<svg width="68" height="68" viewBox="0 0 68 68" fill="none" xmlns="http://www.w3.org/2000/svg">
<path d="M45.6905 21.7486L45.8351 22.305L46.3886 22.46C53.7102 24.51 60.7375 28.2437 66.5341 33.7866C60.7392 39.4653 53.7172 43.1899 46.4066 45.0907L45.8503 45.2353L45.6953 45.7889C43.6473 53.1031 39.9191 60.1236 34.3854 65.9168C28.8169 59.979 24.9594 53.0944 23.0646 45.8069L22.92 45.2505L22.3664 45.0955C15.0522 43.0475 8.03169 39.3193 2.23845 33.7856C8.17631 28.2171 15.0609 24.3596 22.3484 22.4648L22.9048 22.3202L23.0598 21.7666C25.1077 14.4524 28.836 7.4319 34.3697 1.63866C39.9381 7.57652 43.7957 14.4611 45.6905 21.7486Z" stroke="#FFF1F9" stroke-width="2"/>
</svg>
