<svg width="129" height="37" viewBox="0 0 126 32" fill="none" xmlns="http://www.w3.org/2000/svg">
<path d="M23.928 14.256C23.928 14.32 23.864 15.1627 23.736 16.784C23.608 18.384 23.288 19.568 22.776 20.336L22.456 20.976C22.2427 21.424 22.04 21.7653 21.848 22C21.656 22.2347 21.3787 22.384 21.016 22.448C20.9093 22.384 20.7387 22.352 20.504 22.352C20.2907 22.3307 20.1093 22.3093 19.96 22.288C19.768 22.16 19.5867 21.9467 19.416 21.648C19.288 21.4133 19.1493 21.232 19 21.104C18.8507 20.976 18.6053 20.88 18.264 20.816C17.9653 20.5813 17.0693 20.464 15.576 20.464C14.296 20.464 12.888 20.5387 11.352 20.688C9.816 20.8373 8.824 20.9867 8.376 21.136C8.184 21.4773 7.98133 21.744 7.768 21.936C7.55467 22.128 7.27733 22.2453 6.936 22.288C6.78667 22.16 6.63733 22.0533 6.488 21.968C6.36 21.8613 6.24267 21.776 6.136 21.712C5.77333 21.4773 5.496 21.2853 5.304 21.136C5.112 20.9653 4.94133 20.72 4.792 20.4C4.64267 20.016 4.536 19.5467 4.472 18.992C4.42933 18.416 4.408 17.712 4.408 16.88C4.408 16.752 4.39733 16.336 4.376 15.632C4.35467 14.928 4.28 14.32 4.152 13.808L3.96 13.04C3.91733 12.8693 3.82133 12.4747 3.672 11.856C3.544 11.2373 3.448 10.5227 3.384 9.712C3.448 9.66933 3.52267 9.60533 3.608 9.52C3.71467 9.43467 3.82133 9.38133 3.928 9.36C4.056 9.31733 4.23733 9.296 4.472 9.296C4.70667 9.552 4.94133 9.73333 5.176 9.84C5.432 9.92533 5.73067 10 6.072 10.064C6.43467 10.1493 6.72267 10.2453 6.936 10.352C7.17067 10.4373 7.40533 10.608 7.64 10.864C7.87467 10.736 8.46133 10.672 9.4 10.672C9.50667 10.672 9.83733 10.6613 10.392 10.64C10.9467 10.6187 11.4053 10.544 11.768 10.416C11.768 9.60533 11.7253 8.112 11.64 5.936C11.5547 3.73867 11.4267 2.29867 11.256 1.616C10.8507 1.296 10.648 1.06133 10.648 0.911999C10.648 0.698666 10.9573 0.591999 11.576 0.591999C12.2373 0.591999 13.048 0.698666 14.008 0.911999C14.968 1.104 15.544 1.28533 15.736 1.456C15.8427 1.584 15.896 1.75467 15.896 1.968C15.896 2.13867 15.832 2.45867 15.704 2.928C15.5333 3.44 15.448 3.84533 15.448 4.144C15.576 4.18667 15.9173 4.208 16.472 4.208C17.5173 4.208 18.8507 4.16533 20.472 4.08L21.848 4.048C21.9547 3.984 22.3493 3.728 23.032 3.28C23.7147 2.832 24.2693 2.59733 24.696 2.576C25.2507 3.00267 25.7947 3.54667 26.328 4.208C26.8827 4.848 27.224 5.38133 27.352 5.808C27.0107 6.02133 26.7333 6.16 26.52 6.224C26.3067 6.288 26.072 6.32 25.816 6.32C25.752 6.32 25.5707 6.32 25.272 6.32C24.9733 6.29867 24.6 6.34133 24.152 6.448C23.6827 6.512 22.7013 6.544 21.208 6.544C19.288 6.58667 17.8693 6.64 16.952 6.704C16.056 6.768 15.4907 6.896 15.256 7.088C15.1493 7.664 15.096 8.06933 15.096 8.304C15.096 8.53867 15.1173 8.784 15.16 9.04C15.224 9.31733 15.2453 9.57333 15.224 9.808C15.6507 9.78667 16.1093 9.744 16.6 9.68C17.112 9.616 17.464 9.57333 17.656 9.552C18.9787 9.38133 19.9813 9.296 20.664 9.296C20.8987 9.296 21.2293 9.31733 21.656 9.36C22.0187 9.04 22.3387 8.88 22.616 8.88C22.9573 8.88 23.2453 9.04 23.48 9.36C23.736 9.68 24.0667 10.192 24.472 10.896C24.472 11.5573 24.2907 12.6773 23.928 14.256ZM19.224 17.616C19.224 17.0827 19.3093 16.368 19.48 15.472C19.5867 14.896 19.6613 14.4053 19.704 14C19.7467 13.5947 19.7467 13.1253 19.704 12.592C19.256 12.6987 18.2213 12.7947 16.6 12.88C14.9787 12.9653 13.4 13.04 11.864 13.104L8.536 13.296C8.536 13.68 8.57867 14.384 8.664 15.408C8.68533 15.664 8.71733 16.1547 8.76 16.88C8.80267 17.584 8.80267 18.0747 8.76 18.352C8.888 18.2453 11.128 18.0747 15.48 17.84C17.848 17.712 19.096 17.6373 19.224 17.616ZM5.208 23.184C5.25067 24.8693 5.12267 26.4907 4.824 28.048C4.54667 29.6053 4.03467 30.544 3.288 30.864C3.11733 31.0133 2.89333 31.088 2.616 31.088C2.21067 31.088 1.79467 30.9387 1.368 30.64C0.941333 30.3627 0.674667 30.096 0.568 29.84C0.418667 29.6267 0.344 29.3493 0.344 29.008C0.344 28.816 0.365333 28.5707 0.408 28.272C2.69067 25.6267 4.22667 23.6213 5.016 22.256L5.208 23.184ZM29.208 28.272C29.208 29.2107 29.1333 29.936 28.984 30.448C28.92 30.4693 28.7813 30.512 28.568 30.576C28.376 30.6613 28.0667 30.7147 27.64 30.736C26.7653 29.904 26.04 29.072 25.464 28.24C24.888 27.4293 24.2587 26.352 23.576 25.008L22.744 23.216C23.384 23.2587 24.1413 23.472 25.016 23.856C25.8907 24.2187 26.712 24.6453 27.48 25.136C28.248 25.6267 28.8133 26.0533 29.176 26.416L29.208 28.272ZM16.28 23.568C17.1547 23.6107 18.008 23.8773 18.84 24.368C19.6933 24.8373 20.4187 25.392 21.016 26.032C21.0373 26.9707 20.9413 27.8027 20.728 28.528C20.536 29.2747 20.1627 29.6587 19.608 29.68C19.544 29.7653 19.4693 29.808 19.384 29.808C19.2773 29.808 19.1813 29.7653 19.096 29.68C18.6907 29.552 18.2853 29.1147 17.88 28.368C17.496 27.6427 17.1547 26.8213 16.856 25.904C16.5787 24.9653 16.3867 24.1867 16.28 23.568ZM9.016 23.664C9.50667 23.664 10.2427 23.8773 11.224 24.304C12.2267 24.7307 12.7707 25.0933 12.856 25.392C13.0907 25.6907 13.208 26.128 13.208 26.704C13.208 27.3867 13.0693 28.0907 12.792 28.816C12.536 29.5413 12.28 29.9573 12.024 30.064C11.8533 30.1067 11.5867 30.128 11.224 30.128C11.1387 30.0427 11.032 29.9467 10.904 29.84C10.776 29.7333 10.6693 29.616 10.584 29.488C10.52 29.3813 10.4773 29.232 10.456 29.04C10.5413 28.8053 10.4987 28.5173 10.328 28.176C10.1573 27.8347 10.0613 27.632 10.04 27.568C9.464 26.096 9.12267 24.7947 9.016 23.664ZM17.752 25.552C17.88 25.7013 18.0187 25.808 18.168 25.872C18.3387 25.9147 18.4453 25.936 18.488 25.936C18.3813 25.8293 18.2747 25.7547 18.168 25.712C18.0827 25.648 17.944 25.5947 17.752 25.552ZM2.328 28.656C2.30667 28.6773 2.264 28.72 2.2 28.784C2.136 28.848 2.08267 28.9547 2.04 29.104H2.168C2.27467 29.168 2.392 29.2 2.52 29.2C2.52 29.1573 2.59467 29.0827 2.744 28.976V28.656H2.328ZM58.904 12.016C59.5867 12.2507 60.184 12.656 60.696 13.232C61.2293 13.7867 61.496 14.384 61.496 15.024C61.496 15.4293 61.336 15.8453 61.016 16.272C60.632 16.272 60.3013 16.2293 60.024 16.144C59.7467 16.0587 59.4267 15.9307 59.064 15.76C58.4667 15.44 57.9013 15.2693 57.368 15.248C56.8773 15.2267 56.12 15.216 55.096 15.216C53.304 15.216 51.1813 15.2693 48.728 15.376C48.7493 19.024 48.76 22.7253 48.76 26.48C49.0587 26.5227 49.3147 26.544 49.528 26.544L50.456 26.512C50.9253 26.4693 51.3093 26.448 51.608 26.448C52.2053 26.448 52.728 26.5013 53.176 26.608C53.3253 26.3947 53.496 26.2453 53.688 26.16C53.6667 25.8827 53.656 25.456 53.656 24.88C53.656 24.1973 53.6667 23.6 53.688 23.088C53.7093 22.5547 53.7307 22.1067 53.752 21.744C53.816 20.72 53.848 19.7387 53.848 18.8L53.816 17.84C54.008 17.776 54.232 17.744 54.488 17.744C55.0213 17.744 55.6293 17.8507 56.312 18.064C56.9947 18.256 57.5813 18.512 58.072 18.832C58.5627 19.152 58.808 19.472 58.808 19.792C58.4453 20.24 58.2107 21.1147 58.104 22.416C58.0187 23.7173 57.976 25.264 57.976 27.056V28.912C57.8693 29.3813 57.592 29.8187 57.144 30.224C56.696 30.6293 56.2587 30.832 55.832 30.832C55.64 30.832 55.4587 30.768 55.288 30.64C55.032 30.256 54.744 29.9253 54.424 29.648C54.1253 29.392 53.688 29.264 53.112 29.264C52.7707 29.264 52.2373 29.2427 51.512 29.2L50.008 29.168C49.5387 29.168 49.1227 29.2 48.76 29.264C47.9493 29.3707 46.6907 29.424 44.984 29.424C43.2773 29.424 42.008 29.456 41.176 29.52C41.0267 29.5627 40.8773 29.6053 40.728 29.648C40.6 29.6907 40.504 29.7333 40.44 29.776C40.376 29.84 40.28 29.9573 40.152 30.128C38.936 30.9813 38.04 31.408 37.464 31.408C37.1227 31.408 36.888 31.2587 36.76 30.96C36.568 30.6613 36.472 30.2027 36.472 29.584C36.472 29.264 36.4827 28.976 36.504 28.72C36.5253 28.464 36.5467 28.2507 36.568 28.08C36.6533 27.3547 36.696 26.832 36.696 26.512C36.696 26.3413 36.6747 26.0853 36.632 25.744C36.6107 25.2747 36.4187 23.8133 36.056 21.36L35.736 18.864C35.8213 18.8213 36.0133 18.8 36.312 18.8C37.0373 18.8 37.9547 18.8853 39.064 19.056C40.1733 19.2267 40.792 19.3973 40.92 19.568C40.8987 20.3147 40.8667 21.584 40.824 23.376C40.7813 25.1467 40.7493 26.1813 40.728 26.48C40.8987 26.6293 41.5387 26.704 42.648 26.704C43.096 26.704 43.5227 26.6827 43.928 26.64C44.3333 26.6187 44.568 26.5867 44.632 26.544C44.8667 25.9893 44.984 24.6667 44.984 22.576C44.984 22.192 44.952 20.528 44.888 17.584C44.8453 16.7733 44.824 16.24 44.824 15.984C44.696 16.0053 43.4587 16.1547 41.112 16.432C38.7653 16.688 36.2693 16.8587 33.624 16.944C32.4293 16.432 31.832 15.056 31.832 12.816C32.2587 12.9653 33.272 13.104 34.872 13.232C36.4933 13.3387 38.168 13.392 39.896 13.392C42.2213 13.392 43.864 13.296 44.824 13.104C44.8667 12.72 44.9093 11.9627 44.952 10.832L45.016 9.424C44.2267 9.424 42.8507 9.57333 40.888 9.872C39.7787 10.0427 38.872 10.1707 38.168 10.256C37.4853 10.32 36.856 10.3307 36.28 10.288C35.832 9.712 35.5227 9.25333 35.352 8.912C35.1813 8.57067 35.0747 8.208 35.032 7.824C35.0107 7.44 35 6.75733 35 5.776C35.256 6.13867 36.0453 6.42667 37.368 6.64C38.6907 6.85333 40.0987 6.96 41.592 6.96C42.4027 6.96 43.1173 6.928 43.736 6.864C44.376 6.77866 44.8027 6.66133 45.016 6.512C45.1227 6.36267 45.176 6.128 45.176 5.808C45.176 5.168 45.0373 4.37867 44.76 3.44C44.4827 2.50133 44.1947 1.88267 43.896 1.584C44.8133 1.392 45.624 1.296 46.328 1.296C48.12 1.296 49.1973 1.82933 49.56 2.896C49.624 3.088 49.656 3.26933 49.656 3.44C49.656 3.73867 49.5813 4.08 49.432 4.464C49.304 4.82667 49.2293 5.06133 49.208 5.168V6L55.032 5.616C55.16 5.59467 55.384 5.50933 55.704 5.36C56.2587 5.12533 56.8133 4.99733 57.368 4.976C57.4747 5.06133 57.7307 5.296 58.136 5.68C58.5627 6.064 58.8827 6.46933 59.096 6.896C59.3307 7.32267 59.448 7.77067 59.448 8.24C59.448 8.47467 59.416 8.74133 59.352 9.04C58.4987 9.04 57.4107 9.01867 56.088 8.976C54.7653 8.93333 53.816 8.90133 53.24 8.88C52.4933 8.83733 51.1707 8.79467 49.272 8.752L49.208 12.816C51.5973 12.816 53.368 12.7307 54.52 12.56C55.2453 12.4747 55.896 12.432 56.472 12.432C56.5787 12.4107 56.8453 12.3147 57.272 12.144C57.6987 11.9733 58.0613 11.888 58.36 11.888C58.5733 11.888 58.7547 11.9307 58.904 12.016ZM47 19.344C46.872 19.5573 46.6587 19.856 46.36 20.24C45.9973 20.688 45.7413 21.0827 45.592 21.424H45.656C45.6773 21.3813 45.8267 21.2 46.104 20.88C46.488 20.4533 46.7547 20.1227 46.904 19.888C47.0747 19.6533 47.1067 19.472 47 19.344ZM56.056 19.536C56.056 19.6427 56.0667 19.7173 56.088 19.76C56.1093 19.8027 56.1413 19.8453 56.184 19.888V19.792L56.248 19.696L56.056 19.536ZM37.56 7.92H37.624L37.592 7.696H37.528L37.56 7.92ZM91.128 12.56C91.6187 12.944 92.0667 13.4027 92.472 13.936C92.8773 14.448 93.176 14.96 93.368 15.472C93.304 15.6213 93.208 15.7387 93.08 15.824C92.9733 15.9093 92.888 15.984 92.824 16.048C92.0347 16.048 90.7653 16.0907 89.016 16.176C88.6533 16.1973 88.2587 16.2187 87.832 16.24C87.4267 16.2613 87.0107 16.272 86.584 16.272C86.6053 17.1253 86.68 18.2027 86.808 19.504C86.936 20.8693 87 21.8613 87 22.48C87 23.4187 86.8933 24.3787 86.68 25.36C86.5733 25.4453 86.52 25.5307 86.52 25.616V25.712C86.52 25.7547 86.488 25.7973 86.424 25.84C86.3813 25.8613 86.296 25.872 86.168 25.872L85.688 25.424C84.472 24.4213 83.7893 23.696 83.64 23.248C83.64 20.9013 83.6613 18.7253 83.704 16.72C83.0853 16.6987 82.4667 16.7307 81.848 16.816C81.2293 16.9013 80.7173 17.04 80.312 17.232C80.0987 17.7227 79.928 18.2133 79.8 18.704C79.6933 19.1733 79.5973 19.6107 79.512 20.016C79.3627 20.8693 79.16 21.552 78.904 22.064C78.648 22.576 78.1467 23.12 77.4 23.696C76.9307 24.208 76.4293 24.688 75.896 25.136C75.3627 25.584 75.0853 25.7547 75.064 25.648C75.832 24.2827 76.4187 23.0027 76.824 21.808C77.2507 20.6133 77.4853 19.3867 77.528 18.128C77.336 18.064 77.1333 18.032 76.92 18.032C76.7067 18.032 76.3013 18.1067 75.704 18.256C75.384 18.3627 75.1173 18.416 74.904 18.416C74.8187 18.416 74.712 18.3947 74.584 18.352C74.2853 18.1173 74.072 17.8827 73.944 17.648C73.816 17.392 73.6987 17.0827 73.592 16.72C73.528 16.5067 73.4427 16.272 73.336 16.016C73.2507 15.76 73.1333 15.5253 72.984 15.312L73.848 15.344C74.488 15.344 75.1387 15.312 75.8 15.248C76.4613 15.1627 77.112 15.0667 77.752 14.96L77.784 9.712L75.512 10C75.4693 9.97867 75.288 9.89333 74.968 9.744C74.6693 9.57333 74.4027 9.296 74.168 8.912C73.9333 8.528 73.784 8.05867 73.72 7.504L74.392 7.6C75.0747 7.68533 75.544 7.728 75.8 7.728C76.3333 7.728 76.9947 7.62133 77.784 7.408C77.8267 6.68267 77.848 6.20267 77.848 5.968C77.848 5.11467 77.7733 4.432 77.624 3.92C77.4747 3.408 77.208 2.72533 76.824 1.872C77.144 1.68 77.4533 1.584 77.752 1.584C78.0507 1.584 78.3493 1.65867 78.648 1.808C78.968 1.936 79.352 2.128 79.8 2.384C80.376 2.704 80.7173 2.88533 80.824 2.928C81.0587 3.29067 81.176 3.83467 81.176 4.56C81.176 5.05067 81.144 5.552 81.08 6.064C81.0373 6.53333 81.016 6.896 81.016 7.152L83.832 6.576C83.896 6.384 83.928 6.13866 83.928 5.84C83.928 5.392 83.8213 4.57067 83.608 3.376C83.5653 3.12 83.512 2.82133 83.448 2.48C83.4053 2.11733 83.3627 1.73333 83.32 1.328C83.256 1.24267 83.256 1.17867 83.32 1.136C83.4053 1.072 83.5333 1.04 83.704 1.04C84.1093 1.04 84.664 1.168 85.368 1.424C86.072 1.65867 86.6693 1.94667 87.16 2.288C86.904 2.50133 86.744 2.90667 86.68 3.504C86.616 4.10133 86.584 4.82667 86.584 5.68L87.512 5.488C88.1733 5.38133 88.696 5.264 89.08 5.136C89.3787 5.28533 89.848 5.72267 90.488 6.448C91.128 7.152 91.4053 7.54667 91.32 7.632C91.0853 7.80267 90.4667 7.93067 89.464 8.016C88.4613 8.08 87.6187 8.112 86.936 8.112C86.7867 8.34667 86.6907 8.624 86.648 8.944C86.6053 9.24266 86.584 9.73333 86.584 10.416V13.104C86.712 13.1253 86.9253 13.136 87.224 13.136C87.864 13.136 88.568 13.0827 89.336 12.976C90.104 12.848 90.7013 12.7093 91.128 12.56ZM70.008 8.688C69.048 8.00533 68.2587 7.312 67.64 6.608C67.0427 5.904 66.2213 4.82667 65.176 3.376C66.0933 3.41867 67.1493 3.57867 68.344 3.856C69.56 4.13333 70.4347 4.45333 70.968 4.816C70.9893 5.73333 70.904 6.56533 70.712 7.312C70.52 8.03733 70.2853 8.496 70.008 8.688ZM69.112 5.968C69.112 6.05333 69.112 6.11733 69.112 6.16C69.112 6.18133 69.1653 6.21333 69.272 6.256V6.128C69.1653 6.02133 69.112 5.968 69.112 5.968ZM83.704 13.584C83.7253 13.3493 83.736 12.944 83.736 12.368C83.736 11.6853 83.7253 11.1733 83.704 10.832C83.704 10.5973 83.6933 10.3093 83.672 9.968C83.672 9.62667 83.6827 9.27467 83.704 8.912C83.4907 8.99733 83.2133 9.072 82.872 9.136C82.5307 9.17867 82.3067 9.21067 82.2 9.232C81.5813 9.296 81.0693 9.392 80.664 9.52C80.6213 9.69067 80.6 9.97867 80.6 10.384C80.6 10.7467 80.6213 11.376 80.664 12.272L80.696 14.192C80.9093 14.0853 81.3787 14.0107 82.104 13.968C82.552 13.9467 82.904 13.9147 83.16 13.872C83.416 13.8293 83.5973 13.7333 83.704 13.584ZM89.656 25.712C91.5547 25.0293 92.632 24.7307 92.888 24.816C92.9307 25.3067 92.824 26.032 92.568 26.992C92.3333 27.952 92.0453 28.8053 91.704 29.552C91.3627 30.2987 91.128 30.6293 91 30.544C90.9573 30.5867 90.1893 30.6293 88.696 30.672C87.224 30.7147 85.7947 30.736 84.408 30.736C82.424 30.736 81.1973 30.6827 80.728 30.576C77.6133 30.4693 75.224 29.8827 73.56 28.816C71.9173 27.7707 71.064 27.2373 71 27.216C70.6587 27.1307 70.0933 27.3333 69.304 27.824C68.536 28.336 67.8 28.9013 67.096 29.52C66.392 30.16 66.0507 30.5547 66.072 30.704C65.9867 30.6187 65.816 30.448 65.56 30.192C65.3253 29.9573 65.144 29.6907 65.016 29.392C64.9093 29.1147 64.856 28.784 64.856 28.4C65.048 27.9733 65.3467 27.6213 65.752 27.344C66.1573 27.0667 66.7547 26.736 67.544 26.352C68.2907 26.0107 68.856 25.7013 69.24 25.424C69.6453 25.1253 69.8587 24.7627 69.88 24.336C69.624 24.016 69.3467 23.472 69.048 22.704C68.856 22.192 68.6747 21.7973 68.504 21.52C68.3547 21.2213 68.1413 20.9547 67.864 20.72C67.864 19.952 68.0027 18.832 68.28 17.36C68.5787 15.888 68.728 15.1307 68.728 15.088C68.4507 15.152 68.056 15.2907 67.544 15.504C67.48 15.5253 67.2453 15.6107 66.84 15.76C66.456 15.9093 66.04 15.9947 65.592 16.016C65.4853 15.9093 65.2933 15.728 65.016 15.472C64.76 15.1947 64.5467 14.9173 64.376 14.64C64.2267 14.3627 64.1307 14.0533 64.088 13.712C66.52 13.328 68.1413 13.104 68.952 13.04C69.1867 12.9547 69.3787 12.8587 69.528 12.752C69.6773 12.624 69.8267 12.4747 69.976 12.304C70.1467 12.112 70.2853 11.952 70.392 11.824C70.4347 11.824 70.712 11.792 71.224 11.728C71.5653 11.6853 71.8 11.664 71.928 11.664C72.312 11.664 72.5893 11.824 72.76 12.144C72.9307 12.4427 73.016 13.0507 73.016 13.968C72.7813 14.2453 72.3547 15.12 71.736 16.592C71.1387 18.064 70.8293 19.0027 70.808 19.408C71.256 19.9413 71.6187 20.5067 71.896 21.104C72.1947 21.7013 72.472 22.448 72.728 23.344C72.8133 23.7707 72.8667 24.1013 72.888 24.336C72.952 24.8267 73.0267 25.2107 73.112 25.488C73.1973 25.7653 73.3467 25.9787 73.56 26.128C74.0293 26.4053 74.8187 26.608 75.928 26.736C77.0587 26.8853 78.3707 26.96 79.864 26.96C81.592 26.96 83.2987 26.864 84.984 26.672C86.6693 26.5013 87.96 26.2667 88.856 25.968L89.656 25.712ZM66.104 30.736C66.104 30.736 66.0933 30.7253 66.072 30.704L66.104 30.736ZM108.664 13.552C108.387 14.7253 107.789 16.272 106.872 18.192C105.976 20.0907 104.952 21.936 103.8 23.728C102.648 25.4987 101.571 26.8213 100.568 27.696C99.736 28.3787 98.8613 29.0293 97.944 29.648C97.0267 30.2667 96.344 30.5973 95.896 30.64C97.0907 29.2747 98.328 27.376 99.608 24.944C100.909 22.4907 102.093 19.92 103.16 17.232C104.227 14.544 105.048 12.144 105.624 10.032C105.667 9.776 105.688 9.584 105.688 9.456C105.688 8.56 105.315 7.54667 104.568 6.416C103.843 5.28533 102.861 4.368 101.624 3.664C101.133 3.408 100.376 3.28 99.352 3.28C98.9253 3.28 98.52 3.30133 98.136 3.344C99.416 2.42667 100.728 1.968 102.072 1.968C103.203 1.968 104.323 2.288 105.432 2.928C106.541 3.568 107.597 4.50667 108.6 5.744C109.005 6.29867 109.4 6.90667 109.784 7.568C110.083 8.08 110.317 8.464 110.488 8.72C110.787 9.25333 111.096 9.91467 111.416 10.704C111.757 11.472 111.981 11.9733 112.088 12.208C112.835 14.0427 113.496 15.4613 114.072 16.464C115.352 18.512 116.632 20.272 117.912 21.744C119.192 23.1947 120.685 24.3893 122.392 25.328C122.52 25.392 122.797 25.552 123.224 25.808C123.672 26.064 124.12 26.2773 124.568 26.448C125.037 26.6187 125.485 26.704 125.912 26.704C125.421 27.2373 124.856 27.696 124.216 28.08C123.576 28.464 122.755 28.912 121.752 29.424C120.579 30 119.736 30.4693 119.224 30.832C118.925 30.8747 118.232 30.3733 117.144 29.328C116.077 28.2827 114.968 26.9813 113.816 25.424C112.664 23.8667 111.768 22.32 111.128 20.784C111.043 20.5493 110.84 19.8453 110.52 18.672C110.093 17.0933 109.731 15.856 109.432 14.96C109.155 14.064 108.899 13.5947 108.664 13.552ZM114.392 20.72C114.179 20.4427 113.933 19.9627 113.656 19.28C113.443 18.768 113.251 18.3733 113.08 18.096C112.909 17.7973 112.696 17.5733 112.44 17.424C112.653 18.256 112.931 19.088 113.272 19.92C113.635 20.752 114.008 21.264 114.392 21.456V20.72ZM114.872 22.224C114.808 22.032 114.776 21.936 114.776 21.936C114.733 21.8933 114.627 21.8507 114.456 21.808V22.224L114.872 22.384V22.224ZM115.96 24.976C116.045 25.1893 116.141 25.4133 116.248 25.648C116.376 25.8613 116.461 26.0107 116.504 26.096H116.824V25.776C116.653 25.6267 116.536 25.488 116.472 25.36C116.408 25.232 116.333 25.0293 116.248 24.752H115.96V24.976Z" fill="#E8198B"/>
</svg>
