<svg width="151" height="151" viewBox="0 0 151 151" fill="none" xmlns="http://www.w3.org/2000/svg">
<path d="M86 2.5C86.5 2.6 87 2.7 87.5 2.7L87.3 3.5C86.9 3.4 86.5 3.3 86.2 3.2L85.6 3.1C85.3 3.5 85 3.8 84.7 4.1C85 4.2 85.4 4.3 85.7 4.3C86.1 4.4 86.5 4.4 86.9 4.5L86.8 5.3C86.4 5.2 86.1 5.1 85.8 5.1L85.5 6.5C85.9 6.6 86.3 6.6 86.7 6.7L86.6 7.5C86.2 7.4 85.8 7.3 85.4 7.2L85 9.3C85.5 9 85.9 8.7 86.2 8.5C86.2 8.9 86.2 9.2 86.3 9.4C86 9.5 85.7 9.7 85.3 9.9C84.9 10.1 84.5 10.3 84.2 10.6C84.1 10.3 84 10 83.8 9.8C84 9.7 84.1 9.5 84.3 9.3L84.7 7C84.3 6.9 83.9 6.9 83.5 6.8L83.7 6C84.1 6.1 84.5 6.2 84.9 6.3L85.1 5C85 5 84.7 4.9 84.4 4.9L84.5 4.4C84.4 4.4 84.3 4.5 84.1 4.7C84 4.3 83.9 4 83.7 3.9C84.2 3.5 84.8 3 85.2 2.3C85.7 1.7 86 1.2 86.1 0.799999C86.4 0.999999 86.6 1.2 86.9 1.4C86.8 1.5 86.4 1.9 86 2.5ZM93.4 4.6L92.1 11.3C92 11.6 91.9 11.8 91.7 11.9C91.5 12 91.1 12.1 90.6 12.1C90.7 11.7 90.6 11.3 90.5 11C91.1 11.1 91.4 11.1 91.4 10.9L92.8 3.6L89 2.9L87.3 11.6L86.5 11.4C86.6 10.9 86.8 10.3 86.9 9.6L88 3.8C88.2 3 88.2 2.4 88.3 2.1L93.7 3.1C93.6 3.5 93.5 4 93.4 4.6ZM91.2 8C91 8.7 90.9 9.2 90.9 9.6L88.5 9.1C88.6 8.6 88.8 8 88.9 7.4C89 6.7 89.1 6.2 89.2 5.8L91.6 6.3C91.4 6.7 91.3 7.3 91.2 8ZM91.8 5.3L89.2 4.8L89.3 4.1L91.9 4.6L91.8 5.3ZM90.2 8.8L90.6 6.8L89.7 6.6L89.3 8.6L90.2 8.8Z" fill="#FFF1F9"/>
<path d="M98.7002 10.3C98.8002 10.1 98.9002 9.8 99.0002 9.5L99.8002 9.8C99.6002 10.1 99.5002 10.4 99.5002 10.6L101.9 11.5C102.4 11.7 103 11.9 103.4 12L103.1 12.7C102.6 12.5 102.1 12.3 101.6 12.1L99.9002 11.5C100 11.8 100.2 12.2 100.5 12.7C100.9 13.2 101.2 13.6 101.6 13.9C101.9 14.2 102.3 14.4 102.6 14.6C102.3 14.7 102 14.9 101.8 15.2C101.4 14.9 101 14.6 100.7 14.3C100.4 14 100.2 13.7 100 13.5C99.8002 13.2 99.7002 12.9 99.5002 12.6C99.3002 12.3 99.3002 11.9 99.2002 11.4L98.7002 12.9C98.5002 13.4 98.4002 13.9 98.2002 14.4L97.4002 14.1C97.6002 13.7 97.8002 13.3 98.0002 12.7L98.5002 11.3C98.2002 11.5 97.8002 11.7 97.4002 11.9C97.0002 12.1 96.6002 12.2 96.2002 12.3C95.8002 12.4 95.1002 12.5 94.0002 12.5C93.9002 12.2 93.8002 11.9 93.7002 11.5C94.1002 11.6 94.5002 11.6 94.9002 11.6C95.3002 11.6 95.6002 11.6 96.0002 11.5C96.4002 11.4 96.7002 11.4 97.0002 11.2C97.3002 11.1 97.6002 10.9 97.8002 10.8L96.0002 10C95.4002 9.8 94.9002 9.6 94.4002 9.4L94.7002 8.7C95.2002 8.9 95.7002 9.1 96.3002 9.3L98.7002 10.3ZM97.0002 8.2C96.6002 8.3 96.1002 8.5 95.5002 8.8C95.4002 8.5 95.3002 8.2 95.0002 7.8C95.5002 7.8 96.0002 7.7 96.5002 7.5C97.0002 7.4 97.5002 7.2 97.9002 7C97.9002 7.3 97.9002 7.6 98.0002 7.8C97.8002 8 97.5002 8.1 97.0002 8.2ZM97.1002 5.6C97.3002 5.9 97.5002 6.1 97.7002 6.4C97.4002 6.5 97.2002 6.6 97.0002 6.8C96.9002 6.6 96.7002 6.4 96.5002 6.1C96.3002 5.9 96.1002 5.7 95.8002 5.4C96.0002 5.2 96.3002 5.1 96.6002 4.9C96.7002 5.1 96.9002 5.3 97.1002 5.6ZM97.7002 4.7C97.5002 4.4 97.2002 4.2 97.1002 4.1C97.3002 3.9 97.6002 3.7 97.8002 3.6C97.9002 3.8 98.1002 4 98.3002 4.3C98.5002 4.6 98.7002 4.8 99.0002 5.1C98.7002 5.2 98.5002 5.4 98.3002 5.6C98.1002 5.3 98.0002 5 97.7002 4.7ZM104.2 8.1C104.2 8.3 104.3 8.6 104.4 8.9C104.5 9.2 104.5 9.5 104.5 9.8C104.2 9.8 103.9 9.9 103.6 9.9C103.6 9.7 103.6 9.4 103.6 9.1C103.6 8.8 103.5 8.5 103.4 8.3C103.2 8.8 103 9.3 102.8 9.7C102.6 10.1 102.4 10.4 102.1 10.4C101.9 10.4 101.4 10.4 100.8 10.2C100.9 9.9 100.9 9.6 100.8 9.2C101.3 9.4 101.6 9.5 101.8 9.5C101.9 9.5 102.1 9.3 102.3 9C102.5 8.7 102.6 8.3 102.8 7.9C103 7.5 103.1 7.1 103.2 6.7L102.2 6.3C101.9 6.9 101.6 7.3 101.4 7.6C101.2 7.9 100.9 8.2 100.6 8.5C100.3 8.7 100 8.9 99.7002 9C99.4002 9.1 99.0002 9.2 98.4002 9.3C98.4002 9 98.2002 8.7 98.0002 8.3C99.0002 8.4 99.7002 8.2 100.2 7.7C100.7 7.2 101.1 6.6 101.4 5.9L100.9 5.7C100.6 5.6 100.2 5.4 99.6002 5.3L99.9002 4.6C100.4 4.8 100.8 5 101.1 5.1L104.4 6.3C104.3 6.5 104.1 6.8 103.9 7.2L103.5 8.1H104.2ZM99.9002 7.2L99.2002 7.9C99.0002 7.7 98.8002 7.5 98.6002 7.3C98.8002 7.1 99.0002 7 99.2002 6.8C99.4002 6.6 99.5002 6.4 99.7002 6.2L100.4 6.8C100.3 6.9 100.1 7.1 99.9002 7.2Z" fill="#FFF1F9"/>
<path d="M111.3 10.7C111.1 11 110.8 11.5 110.5 12L113.5 13.7C113.9 14 114.4 14.2 114.9 14.4L114.5 15.1C114.1 14.8 113.6 14.6 113.2 14.3L111.4 13.3L109.5 16.7C110 16.5 110.5 16.3 111.1 16C111.6 15.7 112.1 15.4 112.6 15.1C112.8 15.4 113.1 15.7 113.3 16C112.8 16.2 112.2 16.4 111.5 16.8C110.8 17.2 110 17.4 109.1 17.6C108.8 18 108.7 18.3 108.8 18.3C108.9 18.3 109 18.5 109.2 18.6L110.4 19.3C110.7 19.4 110.9 19.5 111.1 19.6C111.2 19.6 111.5 19.4 112 18.8C112.1 19.2 112.3 19.5 112.6 19.7C112 20.1 111.7 20.3 111.5 20.4C111.3 20.5 111.1 20.4 110.8 20.2L108.6 19C108.2 18.8 108 18.6 107.9 18.4C107.9 18.2 107.9 18 108.1 17.6C107.9 17.6 107.6 17.7 107.2 17.7C106.8 17.7 106.4 17.7 106.1 17.7C106.1 17.5 106 17.2 105.9 16.8C106.3 16.9 106.8 16.9 107.3 16.9C107.8 16.9 108.3 16.9 108.6 16.8L110.8 12.9L110.3 12.6C109.8 13.3 109.3 13.8 108.9 14.1C108.5 14.5 108.1 14.8 107.6 15.1C107.1 15.4 106.6 15.6 106 15.8C105.4 16 104.7 16.2 103.7 16.4C103.8 16.2 103.7 15.9 103.3 15.4C103.9 15.4 104.4 15.3 105 15.2C105.6 15 106.1 14.8 106.6 14.6C107.1 14.3 107.6 14 108.1 13.6C108.6 13.2 109 12.7 109.4 12.2L107.9 11.4C107.5 11.1 107 10.9 106.5 10.7L106.9 10C107.4 10.3 107.8 10.6 108.3 10.8L109.9 11.7C110.1 11.4 110.3 11.1 110.6 10.6C110.9 10.2 111.1 9.7 111.3 9.3C111.8 9.7 112 10 112.2 10.1C111.8 10.1 111.5 10.3 111.3 10.7ZM113.1 13.1C113.1 12.6 113 12 112.8 11.3C113 11.3 113.3 11.2 113.6 11.1C113.8 11.6 113.9 12.2 114 12.9C113.8 12.9 113.5 13 113.1 13.1Z" fill="#FFF1F9"/>
<path d="M118.6 15.9C119 16.2 119.4 16.5 119.8 16.8L119.3 17.4C119 17.1 118.7 16.8 118.4 16.6L117.9 16.2C117.4 16.4 117 16.5 116.6 16.7C116.9 16.9 117.1 17.2 117.4 17.4C117.7 17.6 118 17.9 118.4 18.1L117.9 18.7C117.6 18.4 117.3 18.2 117.2 18.1L116.3 19.2C116.6 19.4 116.9 19.7 117.3 19.9L116.8 20.5C116.5 20.2 116.2 19.9 115.9 19.7L114.6 21.4C115.1 21.4 115.6 21.3 116 21.2C115.8 21.5 115.7 21.8 115.6 22.1C115.3 22.1 114.9 22.1 114.5 22.1C114 22.1 113.6 22.1 113.2 22.2C113.3 21.8 113.3 21.5 113.3 21.3C113.5 21.3 113.7 21.2 113.9 21L115.3 19.2C115 18.9 114.6 18.7 114.3 18.5L114.8 17.9C115.1 18.2 115.5 18.5 115.7 18.7L116.6 17.6C116.5 17.5 116.3 17.4 116 17.2L116.3 16.8C116.2 16.8 116.1 16.8 115.9 16.9C116 16.5 116 16.3 115.9 16C116.6 15.9 117.3 15.7 118 15.3C118.7 15 119.2 14.7 119.5 14.4C119.6 14.7 119.8 15 119.9 15.3C119.7 15.4 119.3 15.5 118.6 15.9ZM124.2 21.1L120 26.4C119.8 26.6 119.6 26.7 119.3 26.7C119 26.7 118.7 26.6 118.2 26.3C118.5 26 118.6 25.6 118.6 25.3C119 25.7 119.3 25.8 119.5 25.6L124.2 19.8L121.2 17.4L115.7 24.3L115.1 23.8C115.4 23.4 115.8 22.9 116.3 22.4L120 17.8C120.5 17.2 120.8 16.7 121 16.4L125.3 19.8C124.9 20.2 124.5 20.7 124.2 21.1ZM120.6 23.1C120.2 23.7 119.8 24.1 119.6 24.4L117.7 22.8C118 22.4 118.4 22 118.8 21.4C119.2 20.9 119.5 20.4 119.8 20.1L121.7 21.7C121.4 22.1 121.1 22.5 120.6 23.1ZM119.4 23.4L120.7 21.8L120 21.2L118.7 22.8L119.4 23.4ZM122.4 21L120.3 19.3L120.7 18.8L122.8 20.5L122.4 21Z" fill="#FFF1F9"/>
<path d="M126.2 28.6C126.3 28.5 126.6 28.3 126.8 28L127.4 28.7C127.1 28.9 126.9 29.1 126.7 29.2L128.4 31.1C128.8 31.5 129.2 31.9 129.5 32.3L129 32.8C128.7 32.4 128.3 32 127.9 31.6L126.7 30.2C126.6 30.5 126.6 31 126.7 31.6C126.8 32.2 126.9 32.7 127.1 33.1C127.3 33.5 127.5 33.9 127.7 34.2C127.4 34.2 127 34.2 126.7 34.4C126.5 33.9 126.3 33.5 126.2 33.1C126.1 32.7 126 32.4 125.9 32C125.9 31.7 125.9 31.3 125.9 31C125.9 30.6 126 30.2 126.2 29.8L125.1 30.8C124.7 31.1 124.3 31.5 124 31.9L123.4 31.2C123.7 31 124.1 30.6 124.6 30.2L125.7 29.2C125.3 29.3 124.9 29.3 124.5 29.2C124.1 29.2 123.7 29.1 123.3 29C122.9 28.9 122.2 28.7 121.2 28.2C121.3 27.9 121.3 27.5 121.4 27.1C121.7 27.3 122.1 27.5 122.4 27.7C122.7 27.9 123.1 28 123.4 28.1C123.7 28.2 124.1 28.3 124.4 28.3C124.7 28.3 125 28.3 125.3 28.3L124.1 27C123.7 26.6 123.3 26.1 122.9 25.8L123.4 25.3C123.7 25.7 124.1 26.2 124.5 26.6L126.2 28.6ZM125.7 26.1C125.2 26 124.7 26 124.1 25.9C124.2 25.6 124.2 25.2 124.2 24.8C124.6 25 125.1 25.1 125.6 25.3C126.1 25.4 126.6 25.5 127.1 25.5C127 25.8 126.9 26 126.8 26.3C126.5 26.2 126.1 26.1 125.7 26.1ZM127 23.7C127.1 24 127.1 24.3 127.2 24.7C126.9 24.6 126.6 24.7 126.4 24.8C126.4 24.5 126.4 24.3 126.3 24C126.2 23.7 126.1 23.4 126 23C126.3 23 126.6 22.9 126.9 22.9C126.9 23.1 126.9 23.4 127 23.7ZM132.1 29.2C132 29.4 132 29.7 131.9 30C131.8 30.3 131.7 30.6 131.6 30.9C131.3 30.8 131.1 30.7 130.8 30.6C130.9 30.4 131 30.2 131.1 29.9C131.2 29.6 131.3 29.4 131.3 29.1C130.9 29.5 130.5 29.8 130.1 30.1C129.7 30.4 129.4 30.5 129.2 30.4C129 30.3 128.6 30.1 128.2 29.6C128.4 29.3 128.5 29.1 128.6 28.7C129 29.1 129.2 29.3 129.3 29.4C129.4 29.5 129.6 29.4 130 29.2C130.3 29 130.6 28.7 130.9 28.5C131.2 28.2 131.5 27.9 131.8 27.7L131 26.9C130.5 27.2 130 27.5 129.7 27.7C129.3 27.9 129 28.1 128.6 28.1C128.2 28.2 127.9 28.2 127.5 28.2C127.2 28.2 126.7 28.1 126.2 27.9C126.3 27.6 126.3 27.3 126.3 26.8C127.1 27.3 127.9 27.5 128.5 27.3C129.1 27.1 129.8 26.7 130.4 26.2L130 25.8C129.8 25.5 129.5 25.2 129.1 24.8L129.6 24.3C129.9 24.7 130.2 25 130.4 25.3L132.8 27.9C132.6 28 132.3 28.2 132 28.5L131.3 29.1L132.1 29.2ZM128.7 26.5L127.8 26.8C127.7 26.5 127.6 26.2 127.5 26C127.8 26 128 25.9 128.3 25.9C128.5 25.8 128.8 25.7 129.1 25.6L129.5 26.5C129.2 26.4 128.9 26.4 128.7 26.5ZM127.9 23.3C127.8 22.9 127.7 22.7 127.6 22.5C127.9 22.4 128.2 22.4 128.5 22.4C128.5 22.6 128.6 22.9 128.6 23.2C128.7 23.5 128.7 23.9 128.8 24.2C128.5 24.2 128.2 24.2 127.9 24.3C128 24 128 23.6 127.9 23.3Z" fill="#FFF1F9"/>
<path d="M137.2 34.8C136.9 35 136.4 35.2 135.9 35.5L137.8 38.4C138.1 38.8 138.4 39.2 138.7 39.6L138 40.1C137.7 39.7 137.5 39.2 137.2 38.8L136.1 37L132.8 39.1C133.3 39.2 133.9 39.2 134.5 39.2C135.1 39.2 135.7 39.2 136.2 39.1C136.3 39.5 136.3 39.9 136.4 40.2C135.8 40.1 135.2 40 134.4 40C133.7 40 132.8 39.9 131.9 39.6C131.5 39.8 131.3 40 131.3 40.1C131.3 40.2 131.4 40.4 131.5 40.6L132.3 41.8C132.5 42.1 132.7 42.3 132.8 42.4C132.9 42.5 133.3 42.4 133.9 42.1C133.8 42.5 133.9 42.9 134 43.2C133.3 43.3 132.9 43.3 132.7 43.3C132.5 43.3 132.3 43.1 132.1 42.8L130.7 40.7C130.4 40.3 130.3 40 130.4 39.9C130.4 39.7 130.6 39.5 131 39.3C130.8 39.2 130.5 39.1 130.1 38.9C129.7 38.7 129.4 38.5 129.2 38.4C129.3 38.2 129.4 37.9 129.4 37.5C129.7 37.8 130.1 38 130.6 38.3C131.1 38.5 131.5 38.7 131.8 38.8L135.5 36.4L135.2 35.9C134.4 36.2 133.8 36.5 133.3 36.6C132.8 36.7 132.2 36.8 131.7 36.9C131.2 36.9 130.6 36.9 130 36.8C129.4 36.7 128.6 36.5 127.7 36.3C127.8 36.2 127.9 35.8 127.9 35.2C128.4 35.5 128.9 35.7 129.5 35.8C130.1 35.9 130.7 36 131.2 36C131.8 36 132.4 35.9 133 35.8C133.6 35.7 134.2 35.4 134.8 35.2L133.9 33.8C133.6 33.4 133.3 32.9 133 32.5L133.7 32.1C134 32.6 134.3 33 134.5 33.5L135.5 35C135.8 34.8 136.2 34.6 136.6 34.4C137 34.1 137.4 33.9 137.8 33.5C138 34.1 138.1 34.5 138.2 34.6C137.9 34.5 137.6 34.6 137.2 34.8ZM137.7 37.8C137.9 37.3 138.1 36.7 138.3 36.1C138.5 36.2 138.8 36.3 139.1 36.3C139 36.8 138.9 37.4 138.6 38.1C138.4 37.9 138.1 37.9 137.7 37.8Z" fill="#FFF1F9"/>
<path d="M141.3 42.8C141.5 43.3 141.7 43.8 141.9 44.2L141.2 44.5C141 44.1 140.9 43.7 140.8 43.4L140.5 42.8C140 42.7 139.6 42.7 139.2 42.6C139.3 42.9 139.4 43.3 139.6 43.6C139.8 44 139.9 44.3 140.1 44.7L139.4 45C139.3 44.6 139.1 44.3 139 44.1L137.7 44.7C137.9 45.1 138 45.4 138.2 45.8L137.5 46.1C137.4 45.7 137.2 45.3 137 44.9L135 45.8C135.5 46 135.9 46.2 136.3 46.3C136 46.5 135.8 46.7 135.6 46.9C135.4 46.8 135 46.6 134.6 46.4C134.2 46.2 133.8 46 133.4 45.9C133.6 45.6 133.8 45.4 133.9 45.1C134.1 45.2 134.3 45.2 134.6 45.2L136.7 44.3C136.5 43.9 136.3 43.5 136.2 43.2L136.9 42.9C137.1 43.3 137.2 43.7 137.4 44.1L138.7 43.5C138.6 43.4 138.5 43.2 138.4 42.8L138.9 42.6C138.9 42.6 138.7 42.5 138.5 42.5C138.7 42.2 138.9 42 138.9 41.7C139.6 41.9 140.3 42 141.1 42.1C141.9 42.1 142.5 42.1 142.9 42C142.9 42.4 142.9 42.7 142.9 43C142.5 42.9 142 42.8 141.3 42.8ZM143.8 50.1L137.6 52.8C137.3 52.9 137.1 52.9 136.9 52.8C136.7 52.7 136.4 52.4 136.1 52C136.5 51.8 136.8 51.6 137 51.3C137.2 51.8 137.4 52.1 137.6 52L144.4 49L142.9 45.5L134.8 49.1L134.5 48.4C135 48.2 135.6 48 136.2 47.7L141.6 45.3C142.3 45 142.9 44.7 143.2 44.6L145.4 49.6C144.8 49.6 144.3 49.8 143.8 50.1ZM139.7 50.2C139 50.5 138.5 50.7 138.2 50.9L137.2 48.6C137.7 48.4 138.2 48.2 138.8 47.9C139.4 47.6 139.9 47.4 140.2 47.2L141.2 49.5C140.9 49.7 140.4 49.9 139.7 50.2ZM138.5 49.9L140.4 49.1L140 48.2L138.1 49L138.5 49.9ZM142.3 49.2L141.2 46.8L141.8 46.5L142.9 48.9L142.3 49.2Z" fill="#FFF1F9"/>
<path d="M142.1 57.6C142.3 57.5 142.6 57.5 142.9 57.3L143.1 58.2C142.7 58.3 142.5 58.3 142.3 58.4L142.9 60.9C143 61.5 143.2 62 143.4 62.5L142.7 62.7C142.6 62.2 142.5 61.7 142.3 61.1L141.8 59.3C141.6 59.5 141.4 59.9 141.1 60.5C140.9 61.1 140.8 61.6 140.7 62C140.7 62.4 140.7 62.9 140.7 63.3C140.4 63.1 140.1 63 139.7 63C139.7 62.5 139.8 62 139.8 61.6C139.9 61.2 140 60.8 140.1 60.5C140.2 60.2 140.4 59.9 140.6 59.6C140.8 59.3 141 59 141.4 58.7L139.9 59.1C139.4 59.2 138.9 59.4 138.4 59.5L138.2 58.6C138.6 58.5 139.1 58.4 139.7 58.3L141.2 57.9C140.8 57.8 140.4 57.6 140.1 57.3C139.7 57.1 139.4 56.8 139.1 56.6C138.8 56.4 138.3 55.8 137.6 54.9C137.8 54.7 138 54.4 138.3 54.1C138.5 54.5 138.7 54.8 138.9 55.1C139.1 55.4 139.3 55.7 139.6 55.9C139.8 56.1 140.1 56.4 140.4 56.6C140.7 56.8 140.9 56.9 141.2 57L140.8 55.3C140.6 54.7 140.5 54.2 140.3 53.6L141 53.4C141.1 53.9 141.2 54.5 141.4 55.1L142.1 57.6ZM142.9 55.1C142.5 54.8 142.1 54.5 141.6 54.2C141.8 54 142 53.7 142.2 53.3C142.5 53.7 142.9 54 143.3 54.4C143.7 54.8 144.1 55 144.5 55.3C144.3 55.5 144 55.7 143.9 55.9C143.5 55.6 143.2 55.4 142.9 55.1ZM147.1 60.9C146.9 61.1 146.8 61.3 146.6 61.5C146.4 61.7 146.2 61.9 145.9 62.1C145.7 61.9 145.5 61.7 145.3 61.5C145.5 61.4 145.7 61.2 145.9 61C146.1 60.8 146.3 60.6 146.4 60.4C145.9 60.5 145.4 60.6 144.9 60.7C144.4 60.8 144.1 60.7 143.9 60.5C143.7 60.3 143.5 59.9 143.3 59.3C143.6 59.2 143.9 59 144.1 58.7C144.2 59.2 144.3 59.5 144.4 59.7C144.5 59.8 144.7 59.8 145.1 59.8C145.5 59.7 145.9 59.7 146.3 59.6C146.7 59.5 147.1 59.4 147.5 59.3L147.2 58.2C146.6 58.2 146 58.3 145.6 58.3C145.2 58.3 144.8 58.3 144.4 58.2C144 58.1 143.7 58 143.4 57.8C143.1 57.6 142.8 57.3 142.4 57C142.6 56.8 142.8 56.5 143 56.1C143.5 56.9 144.1 57.4 144.7 57.6C145.4 57.7 146.1 57.7 146.9 57.5L146.8 57C146.7 56.7 146.6 56.2 146.4 55.7L147.1 55.5C147.2 56 147.3 56.5 147.4 56.8L148.3 60.2C148 60.2 147.7 60.3 147.3 60.3L146.4 60.5L147.1 60.9ZM145.1 53.6C145 53.9 144.9 54.2 144.8 54.5C144.6 54.3 144.3 54.2 144 54.2C144.1 54 144.2 53.7 144.3 53.4C144.4 53.1 144.4 52.8 144.5 52.4C144.8 52.5 145.1 52.6 145.3 52.8C145.3 53.1 145.2 53.3 145.1 53.6ZM145.3 56.9L144.4 56.7C144.5 56.4 144.5 56.1 144.5 55.8C144.8 55.9 145 56 145.2 56C145.4 56 145.7 56.1 146 56.1L145.9 57C145.8 57 145.6 56.9 145.3 56.9ZM146.1 53.7C146.2 53.3 146.2 53 146.3 52.8C146.6 52.9 146.9 53 147.1 53.1C147 53.3 146.9 53.6 146.8 53.9C146.7 54.2 146.6 54.6 146.5 54.9C146.3 54.8 146 54.7 145.7 54.6C145.9 54.3 146 54 146.1 53.7Z" fill="#FFF1F9"/>
<path d="M149 68.3C148.6 68.3 148.1 68.3 147.5 68.3L147.8 71.8C147.8 72.3 147.9 72.8 148 73.3L147.1 73.4C147.1 72.9 147 72.4 147 71.9L146.8 69.8L142.9 70.2C143.3 70.5 143.8 70.8 144.3 71.1C144.8 71.4 145.4 71.6 145.9 71.8C145.8 72.2 145.7 72.6 145.6 72.9C145.2 72.5 144.6 72.2 143.9 71.8C143.2 71.5 142.6 71 141.9 70.3C141.4 70.3 141.2 70.4 141.1 70.5C141.1 70.6 141.1 70.8 141.1 71L141.2 72.4C141.3 72.7 141.3 73 141.4 73.1C141.4 73.2 141.8 73.3 142.5 73.4C142.2 73.7 142.1 74.1 142.1 74.4C141.4 74.2 141 74 140.9 73.9C140.7 73.8 140.7 73.5 140.6 73.2L140.4 70.7C140.4 70.2 140.4 70 140.5 69.8C140.6 69.6 140.9 69.6 141.3 69.6C141.1 69.4 140.9 69.2 140.7 68.9C140.5 68.6 140.3 68.3 140.1 68C140.3 67.9 140.5 67.7 140.7 67.3C140.9 67.7 141.1 68.1 141.4 68.5C141.7 68.9 142 69.3 142.2 69.5L146.6 69.1L146.5 68.5C145.7 68.4 145 68.3 144.4 68.2C143.8 68.1 143.4 67.9 142.9 67.7C142.4 67.5 141.9 67.2 141.4 66.8C140.9 66.4 140.3 65.9 139.6 65.3C139.8 65.3 140 65 140.3 64.4C140.6 64.9 141 65.3 141.4 65.7C141.9 66.1 142.3 66.4 142.9 66.7C143.4 67 144 67.2 144.6 67.3C145.2 67.4 145.8 67.5 146.5 67.6L146.3 65.9C146.3 65.4 146.2 64.9 146.1 64.3L146.9 64.2C146.9 64.8 147 65.3 147 65.8L147.2 67.6C147.5 67.6 148 67.6 148.4 67.5C148.9 67.5 149.4 67.4 149.9 67.3C149.8 67.9 149.8 68.3 149.8 68.5C149.7 68.3 149.4 68.2 149 68.3ZM148.1 71.1C148.5 70.8 148.9 70.3 149.4 69.8C149.6 70 149.8 70.2 150 70.4C149.7 70.8 149.3 71.2 148.7 71.7C148.6 71.6 148.4 71.4 148.1 71.1Z" fill="#FFF1F9"/>
<path d="M147.7 84.8L140.9 84.4C140.6 84.4 140.4 84.3 140.3 84C140.2 83.8 140.1 83.4 140 82.9C140.4 82.9 140.8 82.8 141.1 82.7C141 83.3 141.1 83.6 141.3 83.6L148.8 84.1L149 80.3L140.2 79.7L140.3 78.9C140.8 79 141.4 79 142.1 79.1L148 79.5C148.8 79.6 149.4 79.6 149.7 79.6L149.3 85.1C148.9 84.8 148.3 84.8 147.7 84.8ZM148.9 77.2C148.9 77.7 148.8 78.2 148.8 78.7L148 78.6C148.1 78.1 148.1 77.8 148.1 77.4V76.8C147.7 76.5 147.3 76.3 147 76C146.9 76.3 146.9 76.7 146.9 77.1C146.9 77.5 146.9 77.9 146.9 78.3L146.1 78.2C146.2 77.8 146.2 77.4 146.2 77.2L144.8 77.1C144.8 77.5 144.8 77.9 144.8 78.3H144C144.1 77.9 144.1 77.5 144.1 77.1L142 77C142.3 77.4 142.6 77.7 142.9 78C142.5 78.1 142.2 78.1 142 78.2C141.8 78 141.6 77.7 141.4 77.3C141.2 76.9 140.9 76.6 140.6 76.3C140.9 76.1 141.2 76 141.4 75.8C141.5 76 141.7 76.1 142 76.2L144.3 76.3C144.3 75.9 144.3 75.5 144.3 75.1H145.1C145 75.6 145 76 145 76.3L146.4 76.4C146.4 76.3 146.4 76 146.4 75.7H146.9C146.9 75.6 146.8 75.5 146.6 75.4C146.9 75.2 147.2 75.1 147.3 74.9C147.8 75.4 148.4 75.8 149 76.2C149.7 76.6 150.2 76.8 150.6 77C150.4 77.3 150.2 77.6 150.1 77.9C149.9 77.8 149.5 77.5 148.9 77.2ZM144.1 83C143.4 83 142.8 82.9 142.4 82.9L142.6 80.4C143.1 80.5 143.7 80.5 144.4 80.6C145.1 80.6 145.6 80.7 146 80.7L145.8 83.2C145.4 83.1 144.8 83 144.1 83ZM143.1 82.2L145.2 82.3L145.3 81.4L143.2 81.3L143.1 82.2ZM146.9 83.3L147.1 80.6H147.8L147.6 83.3H146.9Z" fill="#FFF1F9"/>
<path d="M142.8 90.8C143 90.8 143.3 90.9 143.6 91L143.4 91.9C143 91.8 142.8 91.7 142.6 91.7L142 94.2C141.9 94.8 141.8 95.3 141.7 95.8L141 95.6C141.1 95.1 141.3 94.6 141.4 94L141.8 92.2C141.5 92.3 141.1 92.6 140.6 93C140.1 93.4 139.8 93.8 139.6 94.2C139.4 94.6 139.2 95 139 95.3C138.8 95 138.6 94.8 138.3 94.6C138.6 94.1 138.8 93.7 139.1 93.4C139.3 93.1 139.6 92.8 139.8 92.6C140 92.4 140.3 92.2 140.6 92C140.9 91.8 141.3 91.7 141.7 91.5L140.2 91.2C139.7 91.1 139.2 91 138.7 90.9L138.9 90C139.3 90.1 139.8 90.2 140.4 90.4L141.9 90.7C141.6 90.4 141.4 90.1 141.2 89.7C141 89.3 140.8 89 140.7 88.6C140.5 88.2 140.4 87.5 140.2 86.5C140.5 86.4 140.8 86.2 141.2 86.1C141.2 86.5 141.2 86.9 141.3 87.3C141.3 87.7 141.4 88 141.5 88.3C141.6 88.6 141.7 88.9 141.9 89.2C142.1 89.5 142.2 89.7 142.4 89.9L142.8 88.2C142.9 87.6 143 87.1 143.1 86.5L143.8 86.7C143.7 87.2 143.5 87.8 143.4 88.4L142.8 90.8ZM145.6 95.9C145.4 96 145.1 96.1 144.9 96.2C144.6 96.3 144.3 96.4 144 96.4C143.9 96.1 143.9 95.8 143.8 95.5C144 95.5 144.3 95.4 144.6 95.4C144.9 95.3 145.1 95.3 145.3 95.1C144.8 95 144.3 94.8 143.8 94.7C143.4 94.5 143.1 94.3 143 94.1C142.9 93.9 142.9 93.4 143 92.8C143.3 92.8 143.6 92.8 144 92.7C143.9 93.2 143.8 93.6 143.9 93.7C143.9 93.8 144.1 94 144.5 94.1C144.9 94.2 145.2 94.3 145.7 94.5C146.2 94.7 146.5 94.7 146.9 94.8L147.2 93.7C146.6 93.4 146.1 93.2 145.8 93.1C145.4 92.9 145.1 92.7 144.8 92.5C144.5 92.2 144.3 92 144.2 91.7C144 91.4 143.9 91 143.7 90.5C144 90.4 144.3 90.3 144.6 90C144.6 91 144.9 91.7 145.5 92.1C146.1 92.5 146.7 92.8 147.5 93L147.6 92.5C147.7 92.2 147.8 91.7 147.9 91.2L148.6 91.4C148.5 91.9 148.3 92.3 148.3 92.6L147.5 96C147.3 95.9 147 95.8 146.6 95.7L145.7 95.4L145.6 95.9ZM144.6 88.9C144.4 88.5 144.1 88 143.8 87.5C144.1 87.4 144.4 87.2 144.7 86.9C144.8 87.4 144.9 87.8 145.1 88.3C145.3 88.8 145.5 89.2 145.8 89.6C145.5 89.6 145.2 89.7 145 89.8C144.9 89.6 144.8 89.3 144.6 88.9ZM145.9 91.6L145.2 91C145.4 90.8 145.6 90.5 145.7 90.3C145.9 90.5 146.1 90.7 146.3 90.8C146.5 90.9 146.7 91.1 147 91.3L146.5 92.1C146.3 91.9 146.1 91.7 145.9 91.6ZM147.2 88.6C147 88.8 146.7 89.1 146.5 89.3C146.4 89 146.2 88.8 146 88.7C146.2 88.5 146.4 88.4 146.6 88.2C146.8 88 147 87.7 147.2 87.4C147.4 87.6 147.6 87.9 147.8 88.1C147.7 88.2 147.5 88.4 147.2 88.6ZM148.2 89.1C148.5 88.8 148.6 88.6 148.7 88.4C148.9 88.6 149.1 88.8 149.3 89.1C149.1 89.2 149 89.4 148.7 89.7C148.5 89.9 148.2 90.2 148 90.5C147.8 90.3 147.7 90 147.4 89.8C147.6 89.6 147.9 89.4 148.2 89.1Z" fill="#FFF1F9"/>
<path d="M144 103.4C143.6 103.2 143.2 103 142.6 102.7L141.3 105.9C141.1 106.4 140.9 106.9 140.8 107.4L140 107.1C140.2 106.6 140.4 106.2 140.6 105.7L141.4 103.8L137.8 102.3C138 102.8 138.3 103.3 138.7 103.8C139 104.3 139.4 104.8 139.8 105.1C139.5 105.4 139.2 105.7 139 105.9C138.8 105.4 138.5 104.8 138 104.2C137.6 103.6 137.2 102.8 136.9 101.9C136.5 101.7 136.2 101.6 136.1 101.7C136 101.8 135.9 101.9 135.8 102.1L135.3 103.4C135.2 103.7 135.1 104 135.1 104.1C135.1 104.2 135.4 104.5 136 104.9C135.6 105.1 135.3 105.3 135.1 105.6C134.6 105.1 134.3 104.8 134.3 104.6C134.2 104.4 134.2 104.2 134.4 103.8L135.4 101.5C135.6 101.1 135.7 100.8 135.9 100.8C136.1 100.7 136.3 100.8 136.7 100.9C136.6 100.7 136.6 100.4 136.5 100C136.5 99.6 136.4 99.2 136.4 99C136.6 99 136.9 98.9 137.3 98.7C137.3 99.1 137.3 99.6 137.4 100.1C137.5 100.6 137.6 101 137.7 101.4L141.8 103.1L142 102.5C141.3 102.1 140.7 101.7 140.3 101.3C139.9 100.9 139.5 100.6 139.2 100.1C138.9 99.7 138.5 99.2 138.3 98.6C138 98.1 137.7 97.3 137.4 96.4C137.6 96.5 137.9 96.3 138.4 95.9C138.5 96.4 138.6 97 138.8 97.5C139 98 139.3 98.6 139.6 99C139.9 99.4 140.3 99.9 140.8 100.3C141.3 100.7 141.8 101.1 142.3 101.4L142.9 99.8C143.1 99.3 143.3 98.8 143.5 98.3L144.3 98.6C144.1 99.1 143.8 99.6 143.7 100.1L143 101.8C143.3 102 143.7 102.1 144.1 102.3C144.5 102.5 145 102.7 145.5 102.8C145.1 103.3 144.9 103.6 144.8 103.8C144.6 103.7 144.3 103.5 144 103.4ZM141.8 105.4C142.3 105.3 142.9 105.1 143.6 104.9C143.7 105.1 143.7 105.4 143.9 105.7C143.4 105.9 142.9 106.1 142.2 106.3C142.1 106.1 142 105.8 141.8 105.4Z" fill="#FFF1F9"/>
<path d="M135.2 117.4L129.4 113.9C129.2 113.8 129 113.5 129 113.3C129 113 129.1 112.7 129.2 112.2C129.5 112.4 129.9 112.5 130.3 112.5C130 113 129.9 113.3 130.1 113.4L136.5 117.3L138.5 114L131 109.4L131.4 108.7C131.8 109 132.3 109.3 133 109.7L138.1 112.8C138.8 113.2 139.3 113.5 139.6 113.7L136.7 118.4C136.1 118 135.7 117.7 135.2 117.4ZM132.8 114.1C132.2 113.7 131.7 113.4 131.3 113.3L132.6 111.2C133 111.5 133.5 111.8 134.1 112.2C134.7 112.6 135.1 112.8 135.5 113L134.2 115.1C133.9 114.8 133.4 114.5 132.8 114.1ZM132.3 113L134.1 114.1L134.6 113.3L132.8 112.2L132.3 113ZM139.7 111.3C139.4 111.8 139.2 112.2 139 112.6L138.3 112.2C138.6 111.8 138.8 111.5 138.9 111.2L139.2 110.7C139 110.3 138.8 109.9 138.6 109.5C138.4 109.8 138.2 110.1 138 110.4C137.8 110.7 137.6 111.1 137.4 111.4L136.7 111C136.9 110.6 137.1 110.4 137.3 110.2L136.1 109.5C135.9 109.8 135.7 110.2 135.5 110.6L134.8 110.2C135 109.8 135.3 109.5 135.5 109.2L133.7 108.1C133.8 108.6 133.9 109 134 109.5C133.6 109.4 133.3 109.3 133.1 109.2C133.1 108.9 133 108.5 133 108.1C132.9 107.6 132.9 107.2 132.7 106.9C133.1 106.9 133.4 106.9 133.6 106.8C133.6 107 133.7 107.2 133.9 107.4L135.8 108.6C136 108.2 136.2 107.9 136.4 107.5L137.1 107.9C136.8 108.3 136.6 108.6 136.4 108.9L137.6 109.6C137.7 109.5 137.8 109.3 137.9 109L138.3 109.3C138.3 109.2 138.3 109.1 138.2 108.9C138.6 108.9 138.9 108.9 139.1 108.8C139.3 109.5 139.6 110.1 140 110.8C140.4 111.5 140.8 111.9 141.1 112.2C140.8 112.4 140.5 112.6 140.3 112.7C140.3 112.3 140.1 111.8 139.7 111.3ZM135.1 115.7L136.5 113.4L137.1 113.8L135.7 116.1L135.1 115.7Z" fill="#FFF1F9"/>
<path d="M128 120.4C128.2 120.5 128.4 120.7 128.7 120.9L128.1 121.6C127.8 121.3 127.6 121.1 127.5 121L125.8 122.9C125.4 123.3 125.1 123.8 124.8 124.2L124.2 123.7C124.6 123.3 124.9 122.9 125.3 122.5L126.5 121.1C126.2 121.1 125.7 121.1 125.1 121.3C124.5 121.4 124 121.6 123.6 121.9C123.2 122.1 122.9 122.4 122.6 122.6C122.6 122.3 122.5 121.9 122.3 121.6C122.8 121.3 123.2 121.1 123.5 120.9C123.9 120.7 124.2 120.6 124.5 120.5C124.8 120.4 125.2 120.4 125.5 120.4C125.9 120.4 126.3 120.4 126.7 120.5L125.5 119.5C125.1 119.2 124.7 118.8 124.3 118.5L124.9 117.8C125.2 118.1 125.6 118.4 126 118.8L127.1 119.8C127 119.4 126.9 119 126.9 118.6C126.9 118.2 126.9 117.8 126.9 117.4C126.9 117 127.1 116.3 127.4 115.3C127.7 115.3 128.1 115.4 128.5 115.4C128.3 115.8 128.1 116.1 128 116.5C127.9 116.8 127.8 117.2 127.7 117.5C127.6 117.8 127.6 118.2 127.6 118.5C127.6 118.8 127.6 119.1 127.7 119.4L128.8 118.1C129.2 117.6 129.6 117.2 129.9 116.8L130.5 117.3C130.1 117.7 129.7 118.1 129.3 118.6L128 120.4ZM128.1 126.3C127.9 126.3 127.6 126.2 127.3 126.2C127 126.2 126.7 126.1 126.4 126C126.5 125.7 126.5 125.4 126.6 125.1C126.8 125.2 127.1 125.2 127.3 125.3C127.6 125.4 127.8 125.4 128.1 125.4C127.7 125 127.3 124.7 127 124.3C126.7 123.9 126.5 123.7 126.6 123.4C126.7 123.2 126.9 122.8 127.2 122.3C127.5 122.5 127.8 122.6 128.1 122.6C127.7 123 127.5 123.3 127.5 123.4C127.5 123.5 127.6 123.7 127.8 124C128.1 124.3 128.3 124.6 128.7 124.8C129 125.1 129.3 125.4 129.6 125.6L130.3 124.8C129.9 124.3 129.6 123.9 129.3 123.6C129.1 123.3 128.9 122.9 128.7 122.6C128.6 122.2 128.5 121.9 128.5 121.6C128.5 121.3 128.5 120.8 128.6 120.3C128.9 120.4 129.2 120.4 129.7 120.2C129.3 121.1 129.2 121.8 129.5 122.5C129.8 123.1 130.2 123.7 130.8 124.2L131.2 123.8C131.4 123.5 131.7 123.2 132 122.8L132.6 123.3C132.2 123.7 131.9 124 131.7 124.3L129.4 127C129.2 126.8 129 126.5 128.7 126.3L128 125.7L128.1 126.3ZM130.4 122.6L130 121.7C130.3 121.6 130.5 121.5 130.8 121.3C130.9 121.6 130.9 121.8 131 122C131.1 122.2 131.2 122.5 131.4 122.7L130.6 123.2C130.6 123 130.5 122.8 130.4 122.6ZM130.5 119.5C130.5 119 130.5 118.5 130.5 117.9C130.8 117.9 131.2 117.9 131.6 117.8C131.5 118.3 131.4 118.8 131.3 119.3C131.2 119.8 131.2 120.3 131.3 120.8C131 120.7 130.7 120.6 130.5 120.6C130.4 120.3 130.5 120 130.5 119.5ZM133 120.5C132.7 120.6 132.4 120.7 132.1 120.8C132.1 120.5 132.1 120.2 131.9 120C132.2 120 132.4 119.9 132.7 119.8C133 119.7 133.3 119.6 133.6 119.4C133.7 119.7 133.7 120 133.8 120.3C133.5 120.3 133.3 120.4 133 120.5ZM133.5 121.4C133.9 121.3 134.1 121.1 134.3 121C134.4 121.3 134.5 121.6 134.5 121.9C134.3 122 134 122 133.7 122.1C133.4 122.2 133.1 122.3 132.7 122.5C132.7 122.2 132.6 121.9 132.5 121.6C132.8 121.6 133.2 121.5 133.5 121.4Z" fill="#FFF1F9"/>
<path d="M123.2 132.1C123 131.8 122.7 131.4 122.3 130.9L119.6 133.1C119.2 133.4 118.8 133.8 118.5 134.2L117.9 133.5C118.3 133.2 118.7 132.9 119.1 132.5L120.7 131.1L118.2 128.1C118.2 128.6 118.2 129.2 118.3 129.8C118.4 130.4 118.5 131 118.7 131.5C118.3 131.6 117.9 131.7 117.6 131.9C117.6 131.3 117.6 130.7 117.5 129.9C117.4 129.2 117.4 128.3 117.6 127.4C117.3 127 117.1 126.8 117 126.9C116.9 126.9 116.8 127 116.6 127.2L115.6 128.1C115.4 128.3 115.2 128.5 115.1 128.6C115 128.7 115.2 129.1 115.5 129.7C115.1 129.7 114.7 129.7 114.4 129.9C114.2 129.2 114.1 128.8 114.1 128.6C114.1 128.4 114.3 128.2 114.5 128L116.4 126.4C116.8 126.1 117 126 117.2 126C117.4 126 117.6 126.2 117.8 126.5C117.8 126.3 117.9 126 118.1 125.6C118.2 125.2 118.4 124.9 118.5 124.6C118.7 124.7 119 124.7 119.4 124.7C119.2 125.1 119 125.5 118.8 126C118.6 126.5 118.5 126.9 118.5 127.3L121.4 130.7L121.9 130.3C121.5 129.6 121.2 129 121 128.5C120.8 128 120.6 127.5 120.5 127C120.4 126.5 120.3 125.9 120.3 125.3C120.3 124.7 120.4 123.9 120.5 123C120.6 123.1 121 123.1 121.6 123C121.4 123.5 121.3 124.1 121.2 124.6C121.2 125.2 121.2 125.8 121.2 126.4C121.3 127 121.4 127.6 121.6 128.1C121.8 128.7 122.1 129.2 122.5 129.8L123.8 128.7C124.2 128.4 124.6 128 125 127.6L125.5 128.2C125 128.5 124.6 128.9 124.3 129.2L122.9 130.4C123.1 130.7 123.4 131 123.7 131.4C124 131.8 124.3 132.2 124.7 132.5C124.1 132.8 123.8 133 123.6 133.1C123.6 132.7 123.5 132.4 123.2 132.1ZM120.3 132.9C120.8 133 121.4 133.2 122.1 133.2C122 133.4 122 133.7 122 134C121.5 134 120.9 133.9 120.2 133.7C120.2 133.6 120.3 133.3 120.3 132.9Z" fill="#FFF1F9"/>
<path d="M108.9 140.5L105.4 134.7C105.3 134.5 105.2 134.2 105.3 134C105.4 133.8 105.7 133.5 106 133.1C106.2 133.4 106.5 133.7 106.8 133.9C106.3 134.2 106.1 134.4 106.2 134.6L110.1 141L113.4 139L108.9 131.5L109.6 131.1C109.8 131.6 110.1 132.1 110.5 132.7L113.6 137.8C114 138.5 114.3 139 114.5 139.3L109.8 142.1C109.5 141.4 109.2 140.9 108.9 140.5ZM108.3 136.5C107.9 135.9 107.6 135.4 107.4 135.1L109.5 133.8C109.7 134.3 110 134.8 110.4 135.3C110.8 135.9 111 136.3 111.3 136.6L109.2 137.9C109 137.6 108.7 137.1 108.3 136.5ZM108.4 135.2L109.5 137L110.3 136.5L109.2 134.7L108.4 135.2ZM109.6 138.9L111.9 137.5L112.3 138.1L110 139.5L109.6 138.9ZM115.8 137.1C115.3 137.4 114.9 137.7 114.5 137.9L114.1 137.2C114.5 137 114.8 136.8 115.1 136.6L115.7 136.3C115.7 135.8 115.7 135.3 115.7 135C115.4 135.2 115.1 135.3 114.8 135.5C114.5 135.7 114.1 135.9 113.8 136.2L113.4 135.5C113.8 135.3 114.1 135.1 114.3 135L113.6 133.8C113.3 134 112.9 134.2 112.6 134.5L112.2 133.8C112.6 133.6 112.9 133.4 113.3 133.2L112.2 131.4C112.1 131.9 111.9 132.3 111.9 132.8C111.6 132.5 111.4 132.3 111.2 132.2C111.3 131.9 111.4 131.6 111.6 131.2C111.8 130.8 111.9 130.4 111.9 130C112.2 130.2 112.5 130.3 112.7 130.4C112.6 130.6 112.6 130.8 112.7 131.1L113.9 133.1C114.3 132.9 114.6 132.7 114.9 132.4L115.3 133.1C114.9 133.3 114.5 133.5 114.2 133.7L114.9 134.9C115 134.8 115.2 134.7 115.5 134.5L115.8 134.9C115.8 134.8 115.9 134.7 115.9 134.5C116.2 134.7 116.5 134.8 116.7 134.8C116.6 135.5 116.5 136.2 116.6 137C116.7 137.8 116.8 138.4 116.9 138.8C116.5 138.8 116.2 138.8 115.9 138.9C115.9 138.3 115.9 137.8 115.8 137.1Z" fill="#FFF1F9"/>
<path d="M101.2 139.8C101.3 140 101.4 140.2 101.6 140.6L100.8 140.9C100.7 140.5 100.6 140.3 100.5 140.1L98.0999 141C97.5999 141.2 97.0999 141.4 96.5999 141.6L96.2999 140.9C96.7999 140.7 97.2999 140.5 97.7999 140.3L99.4999 139.6C99.1999 139.4 98.7999 139.3 98.1999 139.1C97.5999 138.9 97.0999 138.9 96.5999 138.9C96.1999 138.9 95.7999 139 95.3999 139.1C95.4999 138.8 95.5999 138.5 95.5999 138.1C96.0999 138.1 96.5999 138.1 96.9999 138.1C97.3999 138.1 97.7999 138.2 98.0999 138.2C98.3999 138.3 98.7999 138.4 99.0999 138.6C99.3999 138.7 99.7999 139 100.1 139.3L99.4999 137.9C99.2999 137.4 99.0999 136.9 98.8999 136.5L99.6999 136.2C99.7999 136.6 99.9999 137.1 100.2 137.7L100.8 139.1C100.9 138.7 101 138.3 101.2 137.9C101.4 137.5 101.6 137.2 101.8 136.8C102 136.4 102.5 135.9 103.3 135.1C103.6 135.3 103.9 135.5 104.2 135.7C103.9 135.9 103.6 136.2 103.3 136.4C103 136.6 102.8 136.9 102.6 137.2C102.4 137.5 102.2 137.8 102 138C101.8 138.3 101.7 138.6 101.7 138.8L103.3 138.1C103.9 137.9 104.4 137.6 104.9 137.4L105.2 138.1C104.7 138.3 104.1 138.5 103.6 138.7L101.2 139.8ZM98.5999 145.1C98.3999 145 98.1999 144.8 97.9999 144.6C97.7999 144.4 97.4999 144.2 97.2999 144C97.4999 143.8 97.6999 143.6 97.8999 143.3C98.0999 143.5 98.1999 143.6 98.3999 143.8C98.5999 144 98.7999 144.2 98.9999 144.3C98.7999 143.8 98.5999 143.3 98.4999 142.9C98.3999 142.4 98.3999 142.1 98.5999 141.9C98.7999 141.7 99.0999 141.5 99.6999 141.2C99.8999 141.5 100.1 141.7 100.4 141.9C99.8999 142.1 99.5999 142.3 99.4999 142.4C99.3999 142.5 99.3999 142.7 99.4999 143.1C99.5999 143.5 99.6999 143.8 99.8999 144.2C99.9999 144.6 100.2 145 100.3 145.4L101.3 145C101.2 144.4 101.1 143.9 101 143.5C100.9 143.1 100.9 142.7 101 142.3C101.1 141.9 101.2 141.6 101.3 141.3C101.5 141 101.7 140.6 102 140.2C102.2 140.4 102.5 140.5 103 140.6C102.2 141.2 101.8 141.8 101.8 142.5C101.8 143.2 101.9 143.9 102.2 144.7L102.7 144.5C103 144.4 103.4 144.2 103.9 144L104.2 144.7C103.7 144.9 103.3 145 103 145.1L99.6999 146.4C99.6999 146.1 99.5999 145.8 99.4999 145.4L99.1999 144.5L98.5999 145.1ZM102.3 142.8L102.4 141.8C102.7 141.8 103 141.8 103.3 141.8C103.2 142.1 103.2 142.3 103.2 142.6C103.2 142.8 103.2 143.1 103.2 143.4L102.3 143.5C102.3 143.3 102.3 143.1 102.3 142.8ZM103.8 140.2C104 139.8 104.3 139.3 104.5 138.7C104.8 138.9 105.1 139 105.5 139.1C105.2 139.4 104.9 139.8 104.6 140.3C104.3 140.7 104.1 141.2 103.9 141.6C103.7 141.4 103.5 141.2 103.3 141.1C103.4 140.9 103.5 140.6 103.8 140.2ZM105.6 143.3C106 143.4 106.3 143.4 106.5 143.3C106.5 143.6 106.4 143.9 106.3 144.2C106.1 144.2 105.8 144.1 105.5 144C105.2 143.9 104.8 143.9 104.5 143.9C104.6 143.6 104.7 143.3 104.7 143C104.9 143.1 105.2 143.2 105.6 143.3ZM105.5 142.2C105.2 142.1 104.9 142.1 104.5 142C104.6 141.8 104.7 141.5 104.7 141.2C105 141.3 105.2 141.3 105.5 141.4C105.8 141.4 106.1 141.4 106.5 141.4C106.4 141.7 106.4 142 106.3 142.3C106.1 142.3 105.8 142.3 105.5 142.2Z" fill="#FFF1F9"/>
<path d="M91.5001 147.9C91.4001 147.5 91.4001 147 91.3001 146.4L87.9001 147.2C87.4001 147.3 86.9001 147.5 86.4001 147.6L86.2001 146.8C86.7001 146.7 87.2001 146.6 87.7001 146.5L89.8001 146L88.9001 142.2C88.7001 142.7 88.4001 143.2 88.2001 143.7C88.0001 144.3 87.8001 144.8 87.7001 145.4C87.3001 145.3 86.9001 145.3 86.6001 145.2C86.9001 144.7 87.2001 144.1 87.4001 143.4C87.7001 142.7 88.1001 142 88.6001 141.2C88.5001 140.7 88.4001 140.5 88.3001 140.5C88.2001 140.5 88.0001 140.5 87.8001 140.5L86.5001 140.8C86.2001 140.9 85.9001 141 85.8001 141C85.7001 141.1 85.6001 141.5 85.7001 142.2C85.4001 142 85.0001 141.9 84.6001 141.9C84.7001 141.2 84.9001 140.8 85.0001 140.6C85.1001 140.4 85.3001 140.3 85.7001 140.2L88.2001 139.6C88.6001 139.5 88.9001 139.5 89.1001 139.6C89.2001 139.7 89.4001 139.9 89.4001 140.3C89.5001 140.1 89.8001 139.9 90.1001 139.6C90.4001 139.3 90.7001 139.1 90.9001 138.9C91.0001 139 91.3001 139.2 91.7001 139.4C91.3001 139.6 91.0001 139.9 90.6001 140.3C90.2001 140.7 89.9001 141 89.7001 141.2L90.7001 145.6L91.3001 145.5C91.3001 144.7 91.3001 144 91.3001 143.4C91.4001 142.9 91.5001 142.3 91.6001 141.8C91.7001 141.3 92.0001 140.8 92.3001 140.2C92.6001 139.7 93.0001 139 93.6001 138.3C93.6001 138.5 94.0001 138.6 94.6001 138.8C94.2001 139.2 93.8001 139.6 93.5001 140.1C93.2001 140.6 92.9001 141.1 92.7001 141.7C92.5001 142.2 92.3001 142.8 92.3001 143.4C92.2001 144 92.2001 144.6 92.3001 145.3L93.9001 144.9C94.4001 144.8 94.9001 144.7 95.4001 144.5L95.6001 145.3C95.0001 145.4 94.5001 145.5 94.0001 145.6L92.2001 146C92.2001 146.3 92.3001 146.8 92.4001 147.2C92.5001 147.7 92.6001 148.2 92.8001 148.7C92.2001 148.7 91.8001 148.7 91.6001 148.7C91.6001 148.6 91.6001 148.3 91.5001 147.9ZM88.6001 147.3C89.0001 147.7 89.5001 148 90.0001 148.4C89.8001 148.6 89.7001 148.8 89.5001 149.1C89.1001 148.8 88.6001 148.5 88.0001 148C88.2001 147.9 88.4001 147.7 88.6001 147.3Z" fill="#FFF1F9"/>
<path d="M75.0001 148.7L74.6001 141.9C74.6001 141.6 74.7001 141.4 74.9001 141.2C75.1001 141 75.5001 140.9 76.0001 140.7C76.0001 141.1 76.1001 141.5 76.4001 141.8C75.8001 141.8 75.5001 141.9 75.5001 142.2L75.9001 149.7L79.7001 149.5L79.2001 140.7H80.0001C80.0001 141.2 80.0001 141.8 80.1001 142.5L80.4001 148.4C80.4001 149.2 80.5001 149.8 80.5001 150.1L75.0001 150.4C75.0001 149.9 75.0001 149.3 75.0001 148.7ZM76.3001 144.9C76.3001 144.2 76.2001 143.6 76.2001 143.2L78.7001 143.1C78.7001 143.6 78.7001 144.2 78.8001 144.9C78.8001 145.6 78.9001 146.1 78.9001 146.5L76.4001 146.6C76.3001 146.2 76.3001 145.6 76.3001 144.9ZM76.3001 147.6L79.0001 147.4V148.1L76.3001 148.3V147.6ZM77.0001 143.8L77.1001 145.9L78.0001 145.8L77.9001 143.7L77.0001 143.8ZM82.6001 149C82.1001 149 81.6001 149.1 81.1001 149.1V148.3C81.6001 148.3 81.9001 148.3 82.3001 148.3H82.9001C83.1001 147.9 83.3001 147.5 83.5001 147.1C83.2001 147.1 82.8001 147.1 82.4001 147.1C82.0001 147.1 81.6001 147.2 81.2001 147.2V146.4C81.6001 146.4 82.0001 146.4 82.2001 146.4L82.1001 145C81.7001 145 81.3001 145.1 80.9001 145.1V144.3C81.3001 144.3 81.7001 144.3 82.1001 144.3L82.0001 142.2C81.6001 142.6 81.3001 142.9 81.1001 143.2C81.0001 142.8 80.9001 142.5 80.8001 142.3C81.0001 142.1 81.3001 141.9 81.6001 141.6C81.9001 141.3 82.2001 141 82.5001 140.7C82.7001 141 82.9001 141.2 83.1001 141.4C83.0001 141.5 82.9001 141.7 82.8001 142L82.9001 144.3C83.3001 144.3 83.7001 144.2 84.1001 144.2V145C83.6001 145 83.2001 145 82.9001 145L83.0001 146.4C83.1001 146.4 83.4001 146.4 83.7001 146.3V146.8C83.8001 146.8 83.8001 146.6 84.0001 146.4C84.2001 146.7 84.4001 146.9 84.6001 147.1C84.2001 147.6 83.8001 148.3 83.5001 149C83.2001 149.7 83.0001 150.3 83.0001 150.7C82.7001 150.5 82.4001 150.4 82.1001 150.3C82.1001 150 82.3001 149.6 82.6001 149Z" fill="#FFF1F9"/>
<path d="M63.7 148C63.6 147.8 63.5 147.6 63.3 147.3C63.2 147 63 146.8 63 146.5C63.3 146.4 63.5 146.3 63.8 146.1C63.9 146.3 63.9 146.6 64 146.8C64.1 147.1 64.2 147.3 64.4 147.5C64.5 147 64.5 146.5 64.6 146C64.7 145.5 64.9 145.3 65.1 145.2C65.3 145.1 65.8 145.1 66.4 145.1C66.4 145.4 66.5 145.7 66.7 146C66.2 145.9 65.8 145.9 65.7 146C65.6 146 65.5 146.2 65.4 146.6C65.3 147 65.3 147.4 65.2 147.8C65.1 148.2 65.1 148.6 65.1 149L66.2 149.1C66.4 148.5 66.5 148 66.7 147.6C66.8 147.2 67 146.9 67.2 146.6C67.4 146.3 67.7 146 67.9 145.9C68.2 145.7 68.6 145.5 69 145.3C69.1 145.6 69.3 145.8 69.6 146.1C68.6 146.3 68 146.6 67.6 147.2C67.3 147.8 67 148.5 66.9 149.3L67.5 149.4C67.8 149.4 68.3 149.5 68.8 149.5L68.7 150.2C68.2 150.1 67.7 150.1 67.4 150L63.9 149.6C64 149.3 64.1 149 64.1 148.6L64.2 147.7L63.7 148ZM68.4 144.5C68.4 144.7 68.4 145 68.4 145.4L67.5 145.3C67.6 144.9 67.6 144.6 67.6 144.4L65.1 144.1C64.5 144 64 144 63.5 144L63.6 143.3C64.1 143.4 64.7 143.4 65.2 143.5L67 143.7C66.9 143.4 66.5 143.1 66.1 142.7C65.6 142.3 65.2 142 64.8 141.8C64.4 141.6 64 141.5 63.6 141.4C63.9 141.2 64.1 140.9 64.2 140.6C64.7 140.8 65.1 141 65.5 141.2C65.9 141.4 66.2 141.6 66.4 141.8C66.7 142 66.9 142.3 67.1 142.6C67.3 142.9 67.5 143.2 67.7 143.7L67.9 142.2C68 141.7 68 141.2 68 140.7L68.9 140.8C68.8 141.2 68.8 141.7 68.7 142.3L68.5 143.8C68.8 143.5 69.1 143.2 69.4 142.9C69.7 142.6 70.1 142.4 70.4 142.2C70.7 142 71.4 141.7 72.5 141.4C72.6 141.7 72.8 142 73.1 142.3C72.7 142.3 72.3 142.4 72 142.5C71.7 142.6 71.3 142.7 71 142.9C70.7 143 70.4 143.2 70.1 143.4C69.8 143.6 69.6 143.8 69.4 144L71.2 144.2C71.8 144.3 72.4 144.3 72.9 144.3L72.8 145C72.3 144.9 71.7 144.8 71.1 144.8L68.4 144.5ZM68 147.8L68.5 147C68.7 147.2 69 147.3 69.3 147.4C69.1 147.6 68.9 147.8 68.8 148C68.7 148.2 68.6 148.5 68.4 148.8L67.5 148.4C67.7 148.2 67.9 148 68 147.8ZM70.7 149.7C71 149.9 71.3 150.1 71.5 150.1C71.3 150.3 71.1 150.6 70.9 150.8C70.7 150.7 70.5 150.5 70.3 150.3C70 150.1 69.8 149.9 69.5 149.7C69.7 149.5 69.9 149.3 70.1 149C70.2 149.2 70.4 149.4 70.7 149.7ZM70.5 146.1C70.9 145.9 71.3 145.5 71.8 145.2C71.9 145.5 72.2 145.8 72.5 146C72.1 146.2 71.6 146.4 71.1 146.6C70.6 146.9 70.2 147.1 69.9 147.4C69.8 147.1 69.7 146.8 69.6 146.6C69.8 146.5 70.2 146.3 70.5 146.1ZM71.1 148.7C70.8 148.5 70.6 148.3 70.3 148.1C70.5 148 70.7 147.8 70.9 147.5C71.1 147.7 71.3 147.9 71.5 148C71.7 148.2 72 148.3 72.4 148.5C72.2 148.7 72 149 71.8 149.2C71.6 149 71.4 148.9 71.1 148.7Z" fill="#FFF1F9"/>
<path d="M56.1002 147.3C56.2002 146.9 56.4002 146.4 56.6002 145.9L53.2002 145C52.7002 144.9 52.2002 144.8 51.7002 144.7L51.9002 143.9C52.4002 144.1 52.9002 144.2 53.4002 144.3L55.4002 144.8L56.4002 141C56.0002 141.3 55.5002 141.6 55.1002 142C54.7002 142.4 54.2002 142.8 53.9002 143.3C53.6002 143 53.3002 142.8 53.0002 142.6C53.5002 142.3 54.0002 141.9 54.6002 141.4C55.2002 140.9 55.9002 140.4 56.7002 140C56.9002 139.5 56.9002 139.3 56.8002 139.2C56.7002 139.1 56.6002 139.1 56.3002 139L55.0002 138.6C54.7002 138.5 54.4002 138.5 54.3002 138.5C54.2002 138.5 53.9002 138.8 53.6002 139.5C53.4002 139.1 53.1002 138.9 52.8002 138.7C53.2002 138.2 53.5002 137.8 53.7002 137.7C53.9002 137.6 54.1002 137.6 54.5002 137.7L56.9002 138.4C57.3002 138.5 57.6002 138.7 57.7002 138.8C57.8002 139 57.8002 139.2 57.7002 139.6C57.9002 139.5 58.2002 139.4 58.6002 139.3C59.0002 139.2 59.3002 139.1 59.6002 139C59.6002 139.2 59.8002 139.5 60.0002 139.8C59.6002 139.8 59.1002 139.9 58.6002 140C58.1002 140.1 57.7002 140.3 57.4002 140.4L56.2002 144.7L56.8002 144.9C57.2002 144.1 57.5002 143.5 57.8002 143.1C58.1002 142.6 58.4002 142.2 58.8002 141.8C59.2002 141.4 59.6002 141 60.1002 140.7C60.6002 140.3 61.3002 140 62.1002 139.6C62.1002 139.8 62.3002 140.1 62.7002 140.5C62.2002 140.6 61.6002 140.8 61.1002 141.1C60.6002 141.4 60.1002 141.7 59.7002 142.1C59.3002 142.5 58.9002 142.9 58.5002 143.4C58.2002 143.9 57.9002 144.5 57.6002 145.1L59.2002 145.5C59.7002 145.6 60.2002 145.8 60.7002 145.9L60.5002 146.7C60.0002 146.5 59.4002 146.4 59.0002 146.2L57.3002 145.7C57.2002 146 57.1002 146.4 56.9002 146.9C56.8002 147.4 56.7002 147.9 56.6002 148.4C56.1002 148.1 55.7002 147.9 55.5002 147.9C55.8002 148 56.0002 147.7 56.1002 147.3ZM53.7002 145.4C53.9002 145.9 54.1002 146.4 54.5002 147.1C54.3002 147.2 54.0002 147.3 53.7002 147.5C53.4002 147.1 53.2002 146.5 52.9002 145.9C53.1002 145.7 53.4002 145.6 53.7002 145.4Z" fill="#FFF1F9"/>
<path d="M41.0999 140.3L43.8999 134.1C43.9999 133.8 44.1999 133.7 44.4999 133.6C44.7999 133.6 45.0999 133.6 45.6999 133.7C45.4999 134.1 45.4999 134.4 45.4999 134.8C44.9999 134.5 44.6999 134.5 44.5999 134.7L41.4999 141.5L44.9999 143.1L48.5999 135.1L49.2999 135.4C49.0999 135.9 48.7999 136.4 48.4999 137.1L46.0999 142.5C45.7999 143.2 45.4999 143.8 45.3999 144.1L40.3999 141.8C40.5999 141.4 40.7999 140.9 41.0999 140.3ZM42.7999 140L45.1999 141.1L44.8999 141.7L42.4999 140.6L42.7999 140ZM43.9999 137.6C44.2999 136.9 44.4999 136.4 44.5999 136.1L46.8999 137.1C46.6999 137.6 46.3999 138.1 46.0999 138.7C45.7999 139.3 45.5999 139.8 45.4999 140.2L43.1999 139.2C43.4999 138.7 43.6999 138.2 43.9999 137.6ZM45.0999 136.9L44.2999 138.8L45.1999 139.2L45.9999 137.3L45.0999 136.9ZM47.6999 144.1C47.1999 143.9 46.6999 143.7 46.2999 143.5L46.5999 142.8C46.9999 143 47.3999 143.2 47.5999 143.3L48.1999 143.6C48.5999 143.3 48.9999 143.1 49.2999 142.8C48.9999 142.6 48.6999 142.5 48.2999 142.3C47.8999 142.1 47.5999 142 47.1999 141.8L47.4999 141.1C47.8999 141.3 48.1999 141.5 48.3999 141.5L48.9999 140.2C48.5999 140 48.1999 139.9 47.7999 139.7L48.0999 139C48.4999 139.2 48.8999 139.4 49.1999 139.6L50.0999 137.6C49.5999 137.8 49.1999 137.9 48.7999 138.1C48.8999 137.7 48.8999 137.4 48.8999 137.2C49.1999 137.1 49.4999 137 49.9999 136.9C50.3999 136.8 50.7999 136.7 51.1999 136.5C51.1999 136.9 51.2999 137.2 51.3999 137.4C51.1999 137.4 50.9999 137.6 50.7999 137.8L49.8999 139.9C50.2999 140.1 50.6999 140.2 51.0999 140.4L50.7999 141.1C50.3999 140.9 49.9999 140.7 49.6999 140.5L49.0999 141.8C49.1999 141.9 49.4999 141.9 49.7999 142.1L49.5999 142.6C49.6999 142.6 49.7999 142.5 49.9999 142.4C49.9999 142.8 50.0999 143 50.1999 143.3C49.5999 143.6 48.9999 144 48.3999 144.5C47.7999 145 47.3999 145.4 47.0999 145.7C46.8999 145.4 46.6999 145.2 46.4999 144.9C46.7999 144.8 47.1999 144.5 47.6999 144.1Z" fill="#FFF1F9"/>
<path d="M31.3999 134.4C31.3999 134.2 31.3999 133.9 31.3999 133.6C31.3999 133.3 31.3999 133 31.4999 132.7C31.7999 132.7 32.0999 132.8 32.3999 132.8C32.3999 133 32.2999 133.3 32.2999 133.6C32.1999 133.9 32.1999 134.2 32.2999 134.4C32.5999 133.9 32.8999 133.5 33.1999 133.2C33.4999 132.9 33.7999 132.7 33.9999 132.7C34.1999 132.7 34.5999 132.9 35.1999 133.2C35.0999 133.5 34.9999 133.8 34.9999 134.1C34.4999 133.8 34.1999 133.6 34.0999 133.6C33.9999 133.6 33.7999 133.7 33.4999 134C33.1999 134.3 32.9999 134.6 32.7999 135C32.5999 135.4 32.2999 135.7 32.0999 136L32.9999 136.6C33.3999 136.1 33.7999 135.8 34.0999 135.5C34.3999 135.2 34.6999 135 34.9999 134.8C35.2999 134.6 35.6999 134.5 35.9999 134.5C36.2999 134.5 36.7999 134.5 37.2999 134.5C37.2999 134.8 37.2999 135.1 37.4999 135.5C36.5999 135.2 35.7999 135.2 35.1999 135.6C34.5999 136 34.0999 136.5 33.5999 137.1L34.0999 137.4C34.3999 137.6 34.7999 137.8 35.1999 138.1L34.7999 138.7C34.3999 138.4 33.9999 138.1 33.6999 138L30.8999 136C31.0999 135.8 31.2999 135.6 31.5999 135.2L32.1999 134.4H31.3999ZM37.1999 133.6C37.0999 133.8 36.8999 134 36.7999 134.3L35.9999 133.8C36.1999 133.5 36.3999 133.3 36.4999 133.1L34.3999 131.7C33.8999 131.4 33.4999 131.1 32.9999 130.8L33.3999 130.2C33.7999 130.5 34.2999 130.8 34.6999 131.1L36.1999 132.1C36.1999 131.8 36.0999 131.3 35.8999 130.7C35.6999 130.1 35.3999 129.6 35.0999 129.3C34.7999 129 34.4999 128.7 34.1999 128.4C34.4999 128.3 34.7999 128.2 35.0999 128C35.3999 128.4 35.6999 128.8 35.8999 129.1C36.0999 129.4 36.2999 129.8 36.3999 130.1C36.4999 130.4 36.5999 130.8 36.6999 131.1C36.7999 131.4 36.7999 131.9 36.6999 132.3L37.5999 131C37.8999 130.6 38.1999 130.1 38.3999 129.7L39.1999 130.2C38.9999 130.5 38.6999 130.9 38.2999 131.5L37.4999 132.8C37.8999 132.6 38.2999 132.5 38.6999 132.5C39.0999 132.4 39.4999 132.4 39.8999 132.4C40.2999 132.4 40.9999 132.5 42.0999 132.7C42.0999 133 42.0999 133.4 42.1999 133.8C41.7999 133.7 41.3999 133.5 41.0999 133.5C40.7999 133.5 40.3999 133.4 39.9999 133.3C39.6999 133.3 39.2999 133.3 38.9999 133.3C38.6999 133.3 38.3999 133.4 38.0999 133.5L39.5999 134.5C40.0999 134.8 40.5999 135.1 41.0999 135.4L40.6999 136C40.2999 135.7 39.7999 135.3 39.2999 135L37.1999 133.6ZM35.2999 136.2L36.0999 135.7C36.1999 136 36.3999 136.2 36.5999 136.4C36.2999 136.5 36.0999 136.6 35.8999 136.7C35.6999 136.8 35.4999 137 35.1999 137.2L34.5999 136.5C34.8999 136.5 35.0999 136.4 35.2999 136.2ZM36.8999 139.2C37.0999 139.5 37.1999 139.8 37.3999 139.9C37.0999 140 36.8999 140.1 36.5999 140.2C36.4999 140 36.3999 139.8 36.2999 139.4C36.1999 139.1 35.9999 138.8 35.7999 138.5C36.0999 138.4 36.3999 138.3 36.5999 138.2C36.5999 138.5 36.6999 138.8 36.8999 139.2ZM38.2999 135.9C38.7999 135.9 39.2999 135.8 39.8999 135.7C39.8999 136 39.9999 136.4 40.0999 136.8C39.5999 136.7 39.0999 136.7 38.5999 136.7C38.0999 136.7 37.5999 136.8 37.0999 136.9C37.1999 136.6 37.1999 136.3 37.1999 136.1C37.4999 136 37.8999 136 38.2999 135.9ZM37.6999 138.5C37.5999 138.2 37.3999 137.9 37.2999 137.6C37.5999 137.6 37.7999 137.5 38.0999 137.3C38.1999 137.6 38.2999 137.8 38.3999 138C38.4999 138.2 38.6999 138.5 38.8999 138.9C38.5999 139 38.2999 139.1 37.9999 139.2C37.8999 139 37.7999 138.8 37.6999 138.5Z" fill="#FFF1F9"/>
<path d="M24.9998 130.3C25.2998 130 25.5998 129.7 26.0998 129.3L23.4998 126.9C23.0998 126.6 22.6998 126.2 22.2998 125.9L22.8998 125.3C23.2998 125.7 23.5998 126 23.9998 126.4L25.4998 127.8L28.0998 124.9C27.5998 125 26.9998 125.1 26.3998 125.2C25.7998 125.3 25.2998 125.5 24.7998 125.8C24.5998 125.4 24.4998 125.1 24.2998 124.8C24.8998 124.8 25.4998 124.7 26.1998 124.5C26.8998 124.3 27.7998 124.2 28.6998 124.2C29.0998 123.9 29.1998 123.6 29.0998 123.6C28.9998 123.5 28.8998 123.4 28.7998 123.2L27.7998 122.3C27.4998 122.1 27.2998 121.9 27.1998 121.9C27.0998 121.8 26.6998 122 26.1998 122.5C26.1998 122.1 26.0998 121.7 25.7998 121.5C26.3998 121.2 26.8998 121.1 27.0998 121.1C27.2998 121.1 27.4998 121.2 27.7998 121.4L29.6998 123.1C29.9998 123.4 30.1998 123.7 30.1998 123.8C30.1998 124 30.0998 124.2 29.7998 124.5C29.9998 124.5 30.2998 124.6 30.6998 124.7C31.0998 124.8 31.3998 124.9 31.6998 124.9C31.5998 125.1 31.5998 125.4 31.6998 125.8C31.2998 125.6 30.8998 125.5 30.2998 125.4C29.7998 125.3 29.3998 125.2 28.9998 125.2L25.9998 128.5L26.3998 128.9C27.0998 128.4 27.5998 128 28.0998 127.7C28.5998 127.4 29.0998 127.2 29.5998 127C30.0998 126.8 30.6998 126.7 31.2998 126.6C31.8998 126.5 32.6998 126.5 33.5998 126.6C33.4998 126.7 33.4998 127.1 33.6998 127.7C33.1998 127.6 32.5998 127.5 31.9998 127.5C31.3998 127.5 30.7998 127.6 30.2998 127.7C29.6998 127.8 29.1998 128 28.5998 128.3C28.0998 128.6 27.4998 128.9 26.9998 129.4L28.1998 130.5C28.5998 130.8 28.9998 131.2 29.3998 131.5L28.7998 132.1C28.3998 131.7 27.9998 131.3 27.6998 131L26.3998 129.8C26.0998 130 25.7998 130.3 25.4998 130.7C25.1998 131 24.7998 131.4 24.4998 131.9C24.1998 131.4 23.8998 131.1 23.7998 130.9C24.3998 130.7 24.6998 130.6 24.9998 130.3ZM23.7998 127.5C23.6998 128 23.6998 128.6 23.6998 129.3C23.4998 129.3 23.1998 129.3 22.7998 129.3C22.7998 128.8 22.7998 128.2 22.7998 127.5C23.0998 127.5 23.3998 127.5 23.7998 127.5Z" fill="#FFF1F9"/>
<path d="M14.9 117.2L20.2 113C20.4 112.8 20.7 112.8 20.9 112.9C21.1 113 21.5 113.2 21.9 113.5C21.6 113.7 21.4 114 21.2 114.4C20.9 113.9 20.6 113.8 20.4 113.9L14.5 118.5L16.9 121.5L23.9 116L24.4 116.6C24 116.9 23.5 117.3 22.9 117.7L18.2 121.4C17.6 121.9 17.1 122.3 16.9 122.5L13.5 118.2C14 117.8 14.4 117.5 14.9 117.2ZM16.5 117.7L18.1 119.8L17.6 120.2L16 118.1L16.5 117.7ZM18.8 116.1C19.4 115.7 19.8 115.3 20.1 115L21.6 117C21.2 117.3 20.7 117.6 20.2 118.1C19.7 118.5 19.3 118.9 19 119.1L17.5 117.1C17.8 116.8 18.2 116.5 18.8 116.1ZM19.1 123.6C18.8 123.2 18.4 122.8 18.1 122.4L18.7 121.9C19 122.3 19.2 122.6 19.4 122.8L19.8 123.3C20.3 123.2 20.7 123.2 21.1 123.1C20.9 122.8 20.7 122.5 20.5 122.2C20.3 121.9 20 121.6 19.7 121.3L20.3 120.8C20.5 121.2 20.7 121.4 20.9 121.6L22 120.7C21.8 120.4 21.5 120.1 21.2 119.7L21.8 119.2C22 119.6 22.3 119.9 22.5 120.2L24.2 118.9C23.7 118.8 23.2 118.8 22.8 118.7C23 118.4 23.2 118.1 23.3 117.9C23.6 118 23.9 118.1 24.4 118.2C24.8 118.3 25.3 118.4 25.6 118.4C25.5 118.7 25.4 119 25.3 119.3C25.1 119.3 24.9 119.3 24.6 119.4L22.8 120.8C23.1 121.1 23.3 121.5 23.6 121.8L23 122.3C22.7 121.9 22.5 121.6 22.3 121.3L21.2 122.1C21.3 122.2 21.5 122.4 21.7 122.6L21.3 122.9C21.4 122.9 21.5 122.9 21.8 122.9C21.7 123.2 21.6 123.5 21.6 123.8C20.9 123.8 20.2 123.8 19.4 124C18.6 124.2 18.1 124.3 17.7 124.5C17.6 124.1 17.6 123.8 17.5 123.5C17.9 123.8 18.4 123.7 19.1 123.6ZM20.1 116L18.5 117.3L19.1 118L20.7 116.7L20.1 116Z" fill="#FFF1F9"/>
<path d="M8.9999 107.4C9.0999 107.2 9.1999 107 9.3999 106.7C9.4999 106.4 9.6999 106.2 9.8999 105.9C10.0999 106.1 10.3999 106.2 10.6999 106.4C10.5999 106.6 10.3999 106.8 10.1999 107C9.9999 107.2 9.8999 107.5 9.7999 107.7C10.2999 107.4 10.6999 107.2 11.1999 107C11.5999 106.8 11.9999 106.8 12.1999 106.9C12.3999 107 12.6999 107.4 12.9999 107.9C12.7999 108.1 12.4999 108.3 12.3999 108.6C12.0999 108.1 11.8999 107.8 11.7999 107.8C11.6999 107.7 11.4999 107.7 11.0999 107.9C10.7999 108 10.3999 108.2 9.9999 108.4C9.5999 108.6 9.2999 108.8 8.8999 109L9.3999 110C9.9999 109.8 10.4999 109.6 10.8999 109.5C11.2999 109.4 11.6999 109.3 12.0999 109.3C12.4999 109.3 12.7999 109.4 13.0999 109.5C13.3999 109.6 13.7999 109.8 14.2999 110.1C14.0999 110.3 13.9999 110.7 13.9999 111.1C13.2999 110.4 12.5999 110.1 11.9999 110.1C11.2999 110.1 10.5999 110.4 9.8999 110.7L10.1999 111.2C10.3999 111.5 10.5999 111.9 10.8999 112.3L10.2999 112.7C10.0999 112.2 9.8999 111.8 9.6999 111.6L7.8999 108.6C8.1999 108.5 8.4999 108.4 8.7999 108.2L9.5999 107.8L8.9999 107.4ZM11.6999 114.2C11.6999 114.6 11.6999 114.9 11.7999 115.1C11.4999 115.1 11.1999 115.1 10.8999 115C10.8999 114.8 10.8999 114.5 10.9999 114.2C10.9999 113.9 10.9999 113.5 10.9999 113.2C11.2999 113.3 11.5999 113.3 11.8999 113.3C11.6999 113.5 11.6999 113.8 11.6999 114.2ZM11.6999 110.9H12.6999C12.6999 111.2 12.6999 111.5 12.7999 111.8C12.4999 111.8 12.2999 111.8 11.9999 111.8C11.7999 111.8 11.4999 111.9 11.1999 111.9L10.9999 111C11.1999 110.9 11.3999 110.9 11.6999 110.9ZM14.5999 109.4C14.3999 109.5 14.1999 109.6 13.8999 109.9L13.4999 109.1C13.7999 108.9 14.0999 108.8 14.2999 108.7L13.0999 106.5C12.7999 106 12.4999 105.5 12.2999 105.1L12.8999 104.7C13.0999 105.2 13.3999 105.6 13.6999 106.1L14.5999 107.7C14.6999 107.4 14.8999 107 14.8999 106.3C14.9999 105.7 14.9999 105.1 14.8999 104.7C14.7999 104.3 14.6999 103.9 14.5999 103.5C14.8999 103.6 15.2999 103.6 15.5999 103.6C15.6999 104.1 15.7999 104.6 15.7999 105C15.7999 105.4 15.7999 105.8 15.7999 106.1C15.7999 106.4 15.6999 106.8 15.5999 107.1C15.4999 107.4 15.2999 107.8 15.0999 108.2L16.4999 107.4C16.9999 107.2 17.3999 106.9 17.7999 106.6L18.1999 107.4C17.7999 107.6 17.3999 107.8 16.7999 108.1L15.4999 108.8C15.8999 108.8 16.2999 108.9 16.6999 109.1C17.0999 109.2 17.4999 109.4 17.7999 109.6C18.1999 109.8 18.7999 110.2 19.5999 110.8C19.4999 111.1 19.2999 111.4 19.1999 111.8C18.8999 111.5 18.6999 111.2 18.3999 111C18.0999 110.8 17.7999 110.6 17.4999 110.4C17.1999 110.2 16.8999 110.1 16.5999 109.9C16.2999 109.8 15.9999 109.7 15.6999 109.7L16.5999 111.2C16.8999 111.7 17.1999 112.2 17.4999 112.7L16.8999 113.1C16.6999 112.6 16.3999 112.1 16.0999 111.6L14.5999 109.4ZM12.6999 114C12.6999 113.7 12.6999 113.4 12.6999 113C12.9999 113.1 13.1999 113.2 13.4999 113.1C13.3999 113.4 13.3999 113.6 13.3999 113.9C13.3999 114.2 13.3999 114.5 13.4999 114.9C13.1999 114.9 12.8999 114.8 12.5999 114.8C12.6999 114.6 12.6999 114.3 12.6999 114ZM14.4999 112C14.8999 112.2 15.3999 112.4 15.9999 112.6C15.8999 112.9 15.7999 113.2 15.6999 113.7C15.2999 113.4 14.8999 113.2 14.3999 112.9C13.8999 112.7 13.4999 112.5 12.9999 112.4C13.1999 112.2 13.2999 111.9 13.4999 111.7C13.7999 111.7 14.0999 111.8 14.4999 112Z" fill="#FFF1F9"/>
<path d="M5.4999 97.8C5.1999 98.2 4.8999 98.7 4.5999 99.4C4.3999 99.3 4.0999 99.1 3.8999 99C4.0999 98.5 4.3999 98 4.7999 97.4C4.8999 97.5 5.0999 97.6 5.4999 97.8ZM5.2999 100.8C5.6999 100.7 6.1999 100.5 6.7999 100.4L5.5999 97.1C5.3999 96.6 5.1999 96.1 4.9999 95.7L5.7999 95.4C5.8999 95.9 6.0999 96.4 6.2999 96.9L6.9999 98.9L10.6999 97.6C10.1999 97.4 9.6999 97.2 9.0999 97.1C8.4999 96.9 7.8999 96.9 7.3999 96.8C7.3999 96.4 7.4999 96 7.3999 95.6C7.8999 95.8 8.4999 96 9.2999 96.2C9.9999 96.4 10.7999 96.7 11.5999 97.1C12.0999 97 12.2999 96.8 12.2999 96.7C12.2999 96.6 12.2999 96.4 12.1999 96.2L11.6999 95C11.5999 94.7 11.3999 94.5 11.3999 94.3C11.2999 94.2 10.8999 94.2 10.1999 94.3C10.3999 93.9 10.3999 93.6 10.3999 93.2C11.0999 93.3 11.4999 93.3 11.6999 93.4C11.8999 93.5 11.9999 93.7 12.0999 94L12.9999 96.4C13.1999 96.8 13.1999 97.1 13.0999 97.3C12.9999 97.5 12.7999 97.6 12.3999 97.7C12.5999 97.8 12.7999 98 13.1999 98.3C13.5999 98.6 13.7999 98.8 13.9999 99C13.8999 99.1 13.6999 99.4 13.5999 99.8C13.2999 99.5 12.9999 99.1 12.5999 98.8C12.1999 98.5 11.8999 98.2 11.4999 98L7.2999 99.5L7.4999 100.1C8.2999 100 8.9999 99.9 9.5999 99.9C10.1999 99.9 10.6999 99.9 11.1999 100C11.6999 100.1 12.2999 100.2 12.8999 100.5C13.4999 100.8 14.1999 101.1 14.9999 101.5C14.7999 101.6 14.6999 101.9 14.5999 102.5C14.1999 102.1 13.6999 101.8 13.1999 101.6C12.6999 101.4 12.0999 101.2 11.4999 101C10.8999 100.9 10.2999 100.8 9.6999 100.8C9.0999 100.8 8.4999 100.9 7.7999 101L8.3999 102.6C8.5999 103.1 8.7999 103.6 8.9999 104.1L8.1999 104.4C7.9999 103.9 7.8999 103.3 7.6999 102.9L7.0999 101.2C6.7999 101.3 6.3999 101.4 5.8999 101.6C5.3999 101.8 4.9999 101.9 4.4999 102.2C4.3999 101.6 4.3999 101.2 4.3999 101C4.5999 101 4.8999 100.9 5.2999 100.8Z" fill="#FFF1F9"/>
<path d="M2.4002 84.5L9.10019 83.3C9.4002 83.2 9.60019 83.3 9.80019 83.5C10.0002 83.7 10.2002 84 10.4002 84.5C10.0002 84.6 9.7002 84.7 9.4002 85C9.30019 84.4 9.2002 84.2 8.9002 84.2L1.5002 85.6L2.2002 89.4L10.9002 87.8L11.0002 88.6C10.5002 88.7 9.9002 88.8 9.2002 88.9L3.4002 90C2.6002 90.1 2.1002 90.3 1.7002 90.4L0.700195 85C1.3002 84.7 1.9002 84.6 2.4002 84.5ZM3.2002 92.1C3.1002 91.6 3.0002 91.1 2.9002 90.6L3.7002 90.5C3.8002 91 3.8002 91.3 3.9002 91.6V92.2C4.4002 92.4 4.8002 92.5 5.2002 92.7C5.2002 92.4 5.10019 92 5.0002 91.6C4.9002 91.2 4.8002 90.8 4.7002 90.4L5.5002 90.3C5.60019 90.7 5.60019 91.1 5.60019 91.3L7.0002 91.1C6.9002 90.7 6.8002 90.3 6.7002 89.9L7.5002 89.8C7.60019 90.2 7.6002 90.6 7.7002 91L9.80019 90.6C9.4002 90.3 9.00019 90 8.60019 89.8C9.00019 89.6 9.2002 89.5 9.4002 89.4C9.60019 89.6 9.9002 89.8 10.2002 90.1C10.5002 90.4 10.9002 90.7 11.2002 90.9C10.9002 91.1 10.7002 91.3 10.6002 91.5C10.5002 91.4 10.2002 91.3 9.9002 91.3L7.7002 91.7C7.8002 92.1 7.9002 92.5 8.0002 92.9L7.3002 93C7.2002 92.5 7.20019 92.1 7.10019 91.8L5.8002 92C5.8002 92.1 5.9002 92.4 6.0002 92.7L5.5002 92.8C5.5002 92.9 5.7002 92.9 5.9002 93C5.60019 93.2 5.4002 93.5 5.3002 93.7C4.7002 93.3 4.0002 93.1 3.3002 92.8C2.5002 92.6 2.0002 92.5 1.6002 92.5C1.7002 92.2 1.8002 91.8 1.9002 91.5C2.0002 91.8 2.5002 91.9 3.2002 92.1ZM3.7002 85.7L4.2002 88.3L3.5002 88.4L3.0002 85.8L3.7002 85.7ZM6.4002 85.3C7.10019 85.2 7.7002 85.1 8.0002 85L8.5002 87.5C8.0002 87.6 7.4002 87.7 6.8002 87.8C6.1002 87.9 5.6002 88 5.2002 88.1L4.7002 85.6C5.1002 85.5 5.7002 85.5 6.4002 85.3ZM7.5002 85.9L5.5002 86.3L5.7002 87.2L7.7002 86.8L7.5002 85.9Z" fill="#FFF1F9"/>
<path d="M1 80.4C0.8 80.7 0.7 81 0.7 81.2C0.4 81.1 0.2 80.9 0 80.7C0.1 80.5 0.3 80.3 0.4 80C0.6 79.7 0.7 79.4 0.9 79.1C1.1 79.3 1.4 79.5 1.6 79.6C1.4 79.8 1.2 80.1 1 80.4ZM1.7 73.2C1.9 73.1 2.1 72.9 2.4 72.8C2.6 72.6 2.9 72.5 3.2 72.4C3.3 72.7 3.5 72.9 3.6 73.2C3.4 73.3 3.2 73.4 2.9 73.5C2.6 73.6 2.4 73.8 2.2 73.9C2.7 73.9 3.3 73.9 3.7 74C4.2 74 4.5 74.2 4.6 74.4C4.7 74.6 4.8 75 4.9 75.7C4.6 75.8 4.3 75.9 4 76.1C4 75.6 4 75.2 3.9 75.1C3.8 75 3.6 74.9 3.2 74.9C2.8 74.9 2.4 74.8 2 74.8C1.6 74.8 1.2 74.8 0.8 74.8V75.9C1.4 76 2 76.1 2.4 76.2C2.9 76 3.2 76.2 3.6 76.3C3.9 76.5 4.2 76.7 4.4 77C4.6 77.3 4.9 77.6 5.2 78C4.9 78.1 4.7 78.4 4.4 78.7C4.1 77.8 3.7 77.2 3 76.9C2.4 76.6 1.7 76.5 0.9 76.5V77.1C0.9 77.4 0.9 77.9 1 78.4H0.3C0.3 77.9 0.3 77.4 0.3 77.1L0.2 73.6C0.5 73.7 0.8 73.7 1.2 73.7H2.1L1.7 73.2ZM2 80.7C2.2 80.4 2.3 80.1 2.5 79.9C2.7 80 2.9 80.2 3.2 80.3C3 80.5 2.9 80.7 2.8 81C2.7 81.2 2.5 81.6 2.4 81.9C2.1 81.7 1.9 81.6 1.7 81.4C1.7 81.2 1.8 80.9 2 80.7ZM2.5 77.5L3.4 77.9C3.3 78.2 3.2 78.4 3.1 78.7C2.9 78.5 2.6 78.4 2.4 78.3C2.2 78.2 1.9 78.1 1.6 78L1.9 77.1C2.1 77.2 2.3 77.3 2.5 77.5ZM4.5 79.7C4.8 80.1 5.2 80.5 5.6 80.9C5.3 81.1 5.1 81.3 4.8 81.7C4.6 81.3 4.3 80.8 4 80.4C3.7 80 3.4 79.6 3 79.3C3.3 79.2 3.5 79 3.7 78.9C4 79.1 4.2 79.4 4.5 79.7ZM5.8 77.5C5.6 77.5 5.3 77.5 4.9 77.6V76.7C5.3 76.7 5.6 76.7 5.8 76.7L5.7 74.2C5.7 73.6 5.7 73.1 5.6 72.6H6.3C6.3 73.1 6.3 73.7 6.3 74.2V76C6.6 75.8 6.9 75.5 7.2 74.9C7.6 74.4 7.8 73.9 7.9 73.5C8 73.1 8.1 72.7 8.2 72.3C8.4 72.5 8.7 72.7 9.1 72.8C8.9 73.3 8.8 73.8 8.6 74.1C8.4 74.4 8.3 74.8 8.1 75.1C7.9 75.4 7.7 75.6 7.4 75.9C7.1 76.1 6.8 76.4 6.4 76.6H7.9C8.4 76.6 8.9 76.6 9.4 76.5V77.4C9 77.4 8.5 77.4 7.9 77.4H6.4C6.7 77.6 7.1 77.9 7.4 78.2C7.7 78.5 8 78.8 8.2 79.1C8.4 79.4 8.8 80.1 9.2 81.1C8.9 81.3 8.7 81.5 8.4 81.8C8.3 81.4 8.2 81 8.1 80.7C8 80.4 7.9 80 7.7 79.7C7.5 79.4 7.3 79.1 7.1 78.9C6.9 78.7 6.7 78.5 6.4 78.3V80.1C6.4 80.7 6.4 81.3 6.5 81.8H5.8C5.8 81.3 5.8 80.7 5.8 80.1V77.5Z" fill="#FFF1F9"/>
<path d="M1.5002 65.6C1.9002 65.7 2.4002 65.8 3.0002 65.9L3.5002 62.5C3.6002 62 3.6002 61.5 3.6002 61H4.5002C4.4002 61.5 4.3002 62 4.2002 62.5L3.9002 64.6L7.8002 65.1C7.4002 64.7 7.0002 64.3 6.60019 63.9C6.20019 63.5 5.7002 63.2 5.2002 62.9C5.4002 62.6 5.6002 62.2 5.8002 61.9C6.1002 62.4 6.6002 62.8 7.2002 63.3C7.8002 63.8 8.30019 64.4 8.80019 65.2C9.30019 65.3 9.50019 65.3 9.60019 65.2C9.60019 65.1 9.70019 64.9 9.80019 64.7L10.0002 63.3C10.0002 63 10.0002 62.7 10.0002 62.6C10.0002 62.5 9.60019 62.3 8.9002 62.1C9.2002 61.9 9.4002 61.6 9.5002 61.2C10.1002 61.6 10.4002 61.8 10.6002 62C10.7002 62.2 10.8002 62.4 10.7002 62.8L10.4002 65.3C10.3002 65.8 10.2002 66 10.1002 66.1C10.0002 66.2 9.70019 66.2 9.30019 66.2C9.4002 66.4 9.60019 66.7 9.7002 67.1C9.8002 67.5 10.0002 67.8 10.1002 68.1C9.9002 68.2 9.70019 68.3 9.30019 68.6C9.20019 68.2 9.10019 67.7 8.9002 67.2C8.7002 66.7 8.50019 66.3 8.30019 66L3.9002 65.4L3.7002 66C4.5002 66.3 5.10019 66.5 5.60019 66.7C6.10019 66.9 6.5002 67.2 7.0002 67.5C7.4002 67.8 7.90019 68.2 8.30019 68.7C8.70019 69.2 9.2002 69.8 9.7002 70.6C9.5002 70.6 9.30019 70.8 8.9002 71.3C8.7002 70.8 8.4002 70.3 8.10019 69.8C7.70019 69.3 7.3002 68.9 6.9002 68.5C6.5002 68.1 6.0002 67.8 5.4002 67.5C4.9002 67.2 4.3002 67 3.6002 66.8L3.4002 68.5C3.3002 69 3.3002 69.5 3.2002 70.1L2.4002 70C2.5002 69.4 2.6002 68.9 2.7002 68.4L2.9002 66.7C2.6002 66.6 2.2002 66.5 1.7002 66.5C1.2002 66.4 0.700195 66.4 0.200195 66.4C0.400195 65.8 0.600195 65.5 0.600195 65.3C0.800195 65.4 1.1002 65.5 1.5002 65.6ZM3.1002 63C2.6002 63.2 2.1002 63.5 1.5002 64C1.4002 63.8 1.2002 63.5 1.0002 63.3C1.4002 63 1.9002 62.6 2.5002 62.3C2.7002 62.4 2.9002 62.7 3.1002 63Z" fill="#FFF1F9"/>
<path d="M3.6999 56.8C3.8999 56.3 3.9999 55.8 4.0999 55.3L4.8999 55.5C4.6999 55.9 4.5999 56.3 4.4999 56.6L4.2999 57.2C4.5999 57.6 4.8999 57.9 5.1999 58.2C5.2999 57.9 5.3999 57.5 5.5999 57.2C5.6999 56.8 5.7999 56.4 5.8999 56L6.5999 56.2C6.3999 56.6 6.2999 56.9 6.2999 57.1L7.5999 57.5C7.6999 57.1 7.7999 56.7 7.8999 56.3L8.5999 56.5C8.3999 56.9 8.2999 57.3 8.1999 57.7L10.2999 58.3C10.0999 57.8 9.8999 57.4 9.5999 57.1C9.9999 57.1 10.2999 57.1 10.4999 57.1C10.5999 57.4 10.6999 57.7 10.8999 58.1C11.0999 58.5 11.2999 58.9 11.4999 59.2C11.0999 59.3 10.8999 59.4 10.6999 59.5C10.5999 59.3 10.4999 59.2 10.1999 59L7.9999 58.3C7.8999 59 7.7999 59.4 7.6999 59.8L6.8999 59.6C7.0999 59.2 7.1999 58.8 7.2999 58.4L5.9999 58C5.9999 58.1 5.8999 58.4 5.7999 58.7L5.2999 58.5C5.2999 58.6 5.3999 58.7 5.4999 58.9C5.0999 59 4.8999 59.1 4.6999 59.2C4.2999 58.6 3.8999 58 3.2999 57.5C2.6999 57 2.2999 56.6 1.8999 56.4C2.1999 56.1 2.3999 55.9 2.5999 55.7C2.7999 56 3.0999 56.4 3.6999 56.8ZM6.4999 49.8L12.9999 51.8C13.2999 51.9 13.3999 52 13.4999 52.3C13.5999 52.5 13.5999 52.9 13.4999 53.5C13.0999 53.4 12.6999 53.4 12.3999 53.5C12.5999 53 12.5999 52.6 12.3999 52.5L5.2999 50.3L4.1999 54L12.5999 56.6L12.3999 57.4C11.8999 57.2 11.2999 57 10.5999 56.8L4.8999 55.1C4.0999 54.9 3.5999 54.7 3.1999 54.6L4.8999 49.2C5.4999 49.4 5.9999 49.6 6.4999 49.8ZM7.0999 51.4L6.2999 54L5.5999 53.8L6.3999 51.3L7.0999 51.4ZM9.6999 52.3C10.3999 52.5 10.8999 52.7 11.2999 52.8L10.5999 55.2C10.0999 55 9.5999 54.8 8.8999 54.6C8.1999 54.4 7.6999 54.3 7.3999 54.2L8.0999 51.8C8.4999 52 8.9999 52.1 9.6999 52.3ZM10.3999 53.3L8.3999 52.7L8.0999 53.6L10.0999 54.2L10.3999 53.3Z" fill="#FFF1F9"/>
<path d="M7.1 45.5C6.8 45.7 6.6 45.9 6.4 46.1C6.2 45.9 6.1 45.6 6 45.3C6.2 45.2 6.4 45.1 6.7 44.9C7 44.7 7.3 44.5 7.5 44.3C7.6 44.6 7.7 44.8 7.9 45.1C7.7 45.1 7.5 45.3 7.1 45.5ZM7.9 46.2C8.2 46 8.5 45.9 8.7 45.7C8.8 46 8.9 46.2 9.1 46.4C8.9 46.5 8.6 46.6 8.4 46.8C8.2 47 7.9 47.2 7.6 47.5C7.4 47.2 7.3 47 7.2 46.7C7.4 46.5 7.6 46.4 7.9 46.2ZM11.2 39.4C11.4 39.4 11.7 39.4 12 39.3C12.3 39.3 12.6 39.2 12.9 39.3C12.9 39.6 12.9 39.9 12.9 40.2C12.7 40.2 12.4 40.2 12.1 40.2C11.8 40.2 11.5 40.2 11.3 40.3C11.8 40.5 12.2 40.8 12.6 41.1C13 41.4 13.2 41.6 13.2 41.9C13.2 42.1 13.1 42.6 12.9 43.2C12.6 43.1 12.3 43.1 11.9 43.1C12.1 42.6 12.3 42.3 12.3 42.2C12.3 42.1 12.2 41.9 11.8 41.7C11.5 41.5 11.1 41.3 10.8 41.1C10.5 40.9 10.1 40.7 9.7 40.5L9.2 41.5C9.7 41.9 10.1 42.2 10.5 42.5C10.8 42.8 11.1 43 11.3 43.4C11.5 43.7 11.7 44 11.7 44.4C11.8 44.7 11.8 45.2 11.9 45.7C11.6 45.7 11.3 45.8 10.9 46C11.1 45 11 44.3 10.5 43.8C10.1 43.3 9.5 42.8 8.8 42.4L8.6 42.9C8.4 43.2 8.3 43.6 8 44.1L7.3 43.8C7.7 43 7.9 42.6 8 42.3L9.6 39.1C9.8 39.3 10.1 39.5 10.4 39.7L11.2 40.2V39.4ZM9.9 43.6L10.5 44.4C10.3 44.6 10 44.8 9.8 45C9.7 44.7 9.5 44.5 9.4 44.3C9.3 44.1 9.1 43.9 8.8 43.7L9.4 43C9.6 43.2 9.7 43.4 9.9 43.6ZM10.6 46.6C10.7 47 10.8 47.6 11 48.2C10.7 48.2 10.3 48.4 10 48.6C10 48.1 10 47.6 9.9 47.1C9.8 46.6 9.7 46.1 9.5 45.7C9.8 45.7 10.1 45.7 10.3 45.7C10.4 45.8 10.5 46.1 10.6 46.6ZM12.8 45.1C12.6 45 12.4 44.9 12 44.8L12.4 44C12.7 44.2 13 44.3 13.2 44.4L14.3 42.1C14.6 41.6 14.8 41.1 15 40.6L15.7 40.9C15.4 41.4 15.2 41.8 14.9 42.3L14.1 44C14.4 44 14.8 43.8 15.4 43.5C16 43.2 16.4 42.9 16.7 42.6C17 42.3 17.3 42 17.5 41.6C17.6 41.9 17.8 42.2 18 42.5C17.6 42.9 17.3 43.2 17 43.5C16.7 43.8 16.4 44 16.1 44.1C15.8 44.2 15.5 44.4 15.1 44.5C14.8 44.6 14.4 44.7 13.9 44.7L15.3 45.4C15.8 45.6 16.2 45.8 16.7 46L16.3 46.8C16 46.6 15.5 46.4 14.9 46.1L13.6 45.4C13.8 45.8 14 46.1 14.1 46.6C14.2 47 14.3 47.4 14.4 47.8C14.5 48.2 14.5 48.9 14.4 50C14.1 50 13.7 50.1 13.3 50.2C13.4 49.8 13.5 49.4 13.5 49.1C13.5 48.8 13.5 48.4 13.5 48C13.5 47.7 13.4 47.3 13.4 47C13.4 46.7 13.2 46.4 13.1 46.2L12.3 47.8C12 48.3 11.8 48.9 11.6 49.4L10.8 49C11.1 48.5 11.3 48 11.6 47.5L12.8 45.1Z" fill="#FFF1F9"/>
<path d="M14.4999 32.6C14.7999 32.8 15.1999 33.2 15.6999 33.6L17.6999 30.8C17.9999 30.4 18.2999 29.9 18.4999 29.5L19.1999 30C18.8999 30.4 18.5999 30.8 18.2999 31.2L17.0999 32.9L20.2999 35.2C20.1999 34.7 19.9999 34.1 19.7999 33.6C19.5999 33 19.2999 32.5 18.9999 32C19.3999 31.8 19.6999 31.6 19.9999 31.4C20.0999 32 20.2999 32.6 20.5999 33.3C20.8999 34 21.0999 34.8 21.1999 35.8C21.5999 36.1 21.7999 36.2 21.8999 36.2C21.9999 36.1 22.0999 36 22.2999 35.8L23.0999 34.7C23.2999 34.4 23.3999 34.2 23.4999 34.1C23.5999 34 23.2999 33.6 22.7999 33.1C23.1999 33 23.4999 32.9 23.7999 32.6C24.0999 33.2 24.2999 33.6 24.3999 33.8C24.3999 34 24.3999 34.2 24.1999 34.5L22.6999 36.6C22.1999 36.8 21.8999 37 21.7999 37C21.5999 37 21.3999 36.9 21.0999 36.7C21.0999 36.9 21.0999 37.2 21.0999 37.6C21.0999 38 20.9999 38.4 20.9999 38.7C20.7999 38.7 20.4999 38.7 20.0999 38.8C20.1999 38.4 20.2999 37.9 20.3999 37.4C20.4999 36.9 20.4999 36.4 20.3999 36.1L16.7999 33.5L16.1999 34C16.7999 34.6 17.1999 35.1 17.5999 35.6C17.9999 36.1 18.1999 36.5 18.3999 37C18.5999 37.5 18.7999 38 18.9999 38.6C19.1999 39.2 19.2999 40 19.2999 40.9C19.1999 40.8 18.7999 40.9 18.1999 41.1C18.2999 40.6 18.2999 40 18.1999 39.4C18.0999 38.8 17.9999 38.3 17.6999 37.7C17.4999 37.2 17.1999 36.6 16.8999 36.1C16.5999 35.6 16.0999 35.1 15.5999 34.7L14.5999 36.1C14.2999 36.5 13.9999 37 13.6999 37.4L13.1999 37C13.5999 36.5 13.8999 36.1 14.1999 35.7L15.1999 34.2C14.8999 34 14.5999 33.7 14.1999 33.4C13.7999 33.1 13.3999 32.8 12.8999 32.6C13.3999 32.2 13.6999 31.9 13.7999 31.8C13.9999 32.1 14.1999 32.4 14.4999 32.6ZM17.0999 31.1C16.5999 31.1 15.9999 31.1 15.2999 31.2C15.2999 31 15.2999 30.7 15.1999 30.4C15.6999 30.3 16.2999 30.2 16.9999 30.2C16.9999 30.4 16.9999 30.7 17.0999 31.1Z" fill="#FFF1F9"/>
<path d="M20.5 25.9C20.9 25.5 21.2 25.1 21.5 24.8L22.1 25.4C21.8 25.7 21.5 26 21.3 26.2L20.8 26.7C20.9 27.2 21 27.6 21.1 28C21.4 27.8 21.6 27.5 21.9 27.3C22.2 27 22.5 26.7 22.7 26.4L23.3 26.9C23 27.2 22.7 27.4 22.6 27.6L23.6 28.6C23.9 28.3 24.2 28 24.4 27.7L24.9 28.2C24.6 28.5 24.3 28.8 24 29.1L25.5 30.6C25.5 30.1 25.5 29.6 25.5 29.2C25.8 29.4 26.1 29.6 26.3 29.7C26.3 30 26.2 30.4 26.2 30.8C26.2 31.3 26.1 31.7 26.2 32.1C25.9 32 25.6 32 25.3 32C25.3 31.8 25.3 31.6 25.1 31.3L23.5 29.7C23.2 30 22.9 30.3 22.7 30.6L22.1 30.1C22.4 29.8 22.7 29.5 23 29.2L22 28.2C21.9 28.3 21.7 28.5 21.5 28.7L21.1 28.3C21.1 28.4 21.1 28.5 21.1 28.8C20.8 28.7 20.5 28.7 20.2 28.7C20.2 28 20 27.3 19.7 26.6C19.4 25.9 19.2 25.3 19 25C19.3 24.9 19.7 24.8 19.9 24.7C20.1 24.8 20.2 25.2 20.5 25.9ZM26.3 20.9L31.1 25.7C31.3 25.9 31.4 26.1 31.3 26.4C31.3 26.7 31.1 27 30.8 27.5C30.5 27.2 30.2 27 29.8 27C30.2 26.6 30.4 26.3 30.2 26.1L24.9 20.8L22.2 23.5L28.5 29.7L27.9 30.3C27.6 29.9 27.1 29.5 26.6 29L22.4 24.8C21.8 24.2 21.4 23.8 21.1 23.6L25 19.7C25.5 20.1 25.9 20.5 26.3 20.9ZM26 22.6L24.1 24.5L23.6 24L25.5 22.1L26 22.6ZM27.9 24.7C28.4 25.2 28.8 25.6 29.1 25.8L27.3 27.6C27 27.2 26.5 26.8 26.1 26.3C25.6 25.8 25.2 25.5 24.9 25.2L26.7 23.4C27 23.8 27.4 24.2 27.9 24.7ZM28.1 25.9L26.6 24.4L25.9 25.1L27.4 26.6L28.1 25.9Z" fill="#FFF1F9"/>
<path d="M28.7999 17.4C28.3999 17.4 28.0999 17.5 27.8999 17.6C27.8999 17.3 27.8999 17 27.8999 16.7C28.0999 16.7 28.3999 16.7 28.6999 16.7C28.9999 16.7 29.3999 16.6 29.6999 16.6C29.6999 16.9 29.6999 17.2 29.6999 17.5C29.4999 17.4 29.1999 17.4 28.7999 17.4ZM29.1999 18.4C29.4999 18.4 29.7999 18.4 30.1999 18.3C30.0999 18.6 30.0999 18.8 30.1999 19.1C29.8999 19.1 29.6999 19.1 29.3999 19.1C29.0999 19.1 28.7999 19.2 28.3999 19.3C28.3999 19 28.3999 18.7 28.3999 18.4C28.5999 18.4 28.8999 18.4 29.1999 18.4ZM31.3999 19.9C31.2999 20.3 31.1999 20.9 30.9999 21.5C30.6999 21.4 30.2999 21.3 29.8999 21.3C30.0999 20.9 30.2999 20.4 30.4999 19.9C30.6999 19.4 30.7999 18.9 30.7999 18.4C31.0999 18.6 31.2999 18.7 31.4999 18.8C31.5999 19.1 31.4999 19.5 31.3999 19.9ZM35.1999 13.9C35.3999 14 35.6999 14.1 35.8999 14.2C36.1999 14.3 36.4999 14.4 36.6999 14.6C36.5999 14.8 36.3999 15.1 36.2999 15.4C36.0999 15.3 35.8999 15.2 35.5999 15C35.2999 14.8 35.0999 14.8 34.8999 14.7C35.1999 15.1 35.4999 15.6 35.6999 16C35.8999 16.4 35.9999 16.7 35.8999 17C35.7999 17.3 35.4999 17.5 34.9999 18C34.7999 17.8 34.4999 17.6 34.1999 17.5C34.5999 17.2 34.8999 17 34.9999 16.8C35.0999 16.7 34.9999 16.5 34.7999 16.1C34.5999 15.8 34.3999 15.4 34.1999 15.1C33.9999 14.7 33.6999 14.4 33.4999 14.1L32.5999 14.8C32.8999 15.4 33.0999 15.9 33.2999 16.2C33.4999 16.6 33.5999 17 33.5999 17.3C33.5999 17.7 33.5999 18 33.4999 18.4C33.3999 18.7 33.2999 19.1 33.0999 19.6C32.8999 19.5 32.4999 19.4 32.0999 19.4C32.6999 18.6 32.9999 17.9 32.7999 17.3C32.6999 16.6 32.3999 16 31.8999 15.3L31.3999 15.6C31.0999 15.8 30.7999 16.1 30.2999 16.4L29.8999 15.8C30.3999 15.5 30.6999 15.3 30.9999 15.1L33.7999 13C33.8999 13.2 34.0999 13.5 34.2999 13.9L34.7999 14.7L35.1999 13.9ZM33.9999 19.7C33.8999 19.5 33.6999 19.3 33.4999 19L34.1999 18.5C34.3999 18.8 34.5999 19.1 34.6999 19.2L36.6999 17.7C37.1999 17.4 37.5999 17 37.9999 16.7L38.3999 17.3C37.9999 17.6 37.4999 17.9 37.0999 18.2L35.5999 19.3C35.8999 19.4 36.3999 19.5 36.9999 19.5C37.5999 19.5 38.1999 19.4 38.5999 19.3C38.9999 19.2 39.3999 19 39.7999 18.8C39.7999 19.1 39.7999 19.5 39.8999 19.8C39.3999 20 38.8999 20.1 38.4999 20.2C38.0999 20.3 37.6999 20.3 37.3999 20.3C37.0999 20.3 36.6999 20.3 36.3999 20.2C36.0999 20.1 35.6999 20 35.1999 19.8L36.0999 21C36.3999 21.4 36.6999 21.8 36.9999 22.2L36.2999 22.7C36.0999 22.4 35.7999 21.9 35.3999 21.4L34.4999 20.2C34.4999 20.6 34.4999 21 34.3999 21.4C34.2999 21.8 34.1999 22.2 34.0999 22.6C33.9999 23 33.5999 23.6 33.0999 24.6C32.7999 24.5 32.4999 24.4 32.0999 24.3C32.3999 24 32.5999 23.7 32.7999 23.4C32.9999 23.1 33.1999 22.8 33.2999 22.5C33.3999 22.2 33.5999 21.9 33.5999 21.5C33.6999 21.2 33.6999 20.9 33.6999 20.6L32.2999 21.6C31.7999 22 31.3999 22.3 30.8999 22.6L30.4999 22C30.9999 21.7 31.3999 21.4 31.8999 21L33.9999 19.7ZM32.0999 17L32.2999 17.9C31.9999 17.9 31.6999 18 31.3999 18.1C31.3999 17.8 31.3999 17.6 31.2999 17.3C31.2999 17.1 31.1999 16.8 31.0999 16.5L31.9999 16.2C31.9999 16.5 32.0999 16.7 32.0999 17Z" fill="#FFF1F9"/>
<path d="M41.3001 9.4C41.5001 9.8 41.7001 10.2 41.9001 10.8L45.0001 9.2C45.5001 9 45.9001 8.7 46.3001 8.4L46.7001 9.2C46.2001 9.4 45.8001 9.6 45.3001 9.9L43.4001 10.9L45.2001 14.4C45.3001 13.9 45.4001 13.3 45.5001 12.7C45.6001 12.1 45.6001 11.5 45.5001 11C45.9001 11 46.3001 11 46.7001 10.9C46.5001 11.4 46.4001 12.1 46.3001 12.8C46.2001 13.5 46.0001 14.4 45.7001 15.2C45.9001 15.6 46.0001 15.9 46.1001 15.8C46.2001 15.8 46.4001 15.7 46.6001 15.7L47.9001 15C48.2001 14.8 48.4001 14.7 48.5001 14.6C48.6001 14.5 48.6001 14.1 48.3001 13.4C48.7001 13.5 49.1001 13.5 49.4001 13.4C49.4001 14.1 49.4001 14.5 49.4001 14.7C49.3001 14.9 49.2001 15.1 48.8001 15.2L46.5001 16.3C46.1001 16.5 45.8001 16.6 45.6001 16.5C45.4001 16.4 45.3001 16.2 45.1001 15.9C45.0001 16.1 44.9001 16.4 44.6001 16.7C44.4001 17 44.2001 17.3 44.0001 17.6C43.8001 17.5 43.5001 17.4 43.1001 17.3C43.4001 17 43.7001 16.6 44.0001 16.2C44.3001 15.8 44.5001 15.4 44.6001 15.1L42.6001 11.1L42.1001 11.4C42.3001 12.2 42.5001 12.9 42.6001 13.4C42.7001 13.9 42.7001 14.5 42.7001 15C42.7001 15.5 42.6001 16.1 42.5001 16.7C42.4001 17.3 42.1001 18 41.7001 18.9C41.6001 18.7 41.3001 18.7 40.6001 18.6C40.9001 18.1 41.2001 17.6 41.3001 17.1C41.5001 16.5 41.6001 16 41.7001 15.4C41.8001 14.8 41.8001 14.2 41.7001 13.6C41.6001 13 41.5001 12.4 41.2001 11.8L39.9001 12.6C39.4001 12.8 39.0001 13.1 38.5001 13.4L38.1001 12.7C38.6001 12.5 39.1001 12.2 39.5001 12L41.1001 11.2C41.0001 10.9 40.8001 10.5 40.6001 10.1C40.4001 9.7 40.1001 9.2 39.9001 8.8C40.5001 8.7 40.9001 8.6 41.1001 8.5C41.1001 8.7 41.1001 9 41.3001 9.4ZM44.3001 9.2C43.8001 8.9 43.3001 8.7 42.6001 8.5C42.7001 8.3 42.8001 8 42.9001 7.7C43.4001 7.8 44.0001 8.1 44.6001 8.4C44.5001 8.5 44.4001 8.8 44.3001 9.2Z" fill="#FFF1F9"/>
<path d="M49.7001 6.2C50.2001 6 50.7001 5.9 51.1001 5.7L51.3001 6.5C50.9001 6.6 50.5001 6.7 50.2001 6.8L49.6001 7C49.5001 7.5 49.4001 7.9 49.3001 8.3C49.6001 8.2 50.0001 8.1 50.3001 8C50.7001 7.9 51.1001 7.7 51.4001 7.6L51.6001 8.3C51.2001 8.4 50.9001 8.5 50.6001 8.6L51.0001 9.9C51.4001 9.8 51.8001 9.6 52.2001 9.5L52.4001 10.2C52.0001 10.3 51.6001 10.4 51.2001 10.5L51.9001 12.5C52.1001 12.1 52.4001 11.6 52.5001 11.3C52.7001 11.6 52.9001 11.9 53.0001 12.1C52.8001 12.3 52.6001 12.6 52.4001 13C52.1001 13.4 51.9001 13.7 51.8001 14.1C51.5001 13.9 51.3001 13.7 51.1001 13.6C51.2001 13.4 51.2001 13.2 51.2001 12.9L50.5001 10.7C50.1001 10.8 49.7001 11 49.3001 11.1L49.1001 10.4C49.5001 10.3 49.9001 10.2 50.3001 10.1L49.9001 8.8C49.8001 8.8 49.5001 8.9 49.2001 9.1L49.0001 8.6C49.0001 8.6 48.9001 8.8 48.8001 9C48.5001 8.8 48.3001 8.6 48.1001 8.5C48.4001 7.9 48.6001 7.2 48.7001 6.4C48.8001 5.6 48.9001 5 48.8001 4.6C49.2001 4.7 49.5001 4.7 49.8001 4.7C49.9001 5 49.8001 5.5 49.7001 6.2ZM57.1001 4.5L59.2001 11C59.3001 11.3 59.2001 11.5 59.1001 11.7C58.9001 11.9 58.6001 12.1 58.2001 12.4C58.1001 12 57.9001 11.7 57.6001 11.5C58.2001 11.4 58.4001 11.2 58.4001 10.9L56.1001 3.8L52.5001 5L55.2001 13.4L54.4001 13.6C54.3001 13.1 54.1001 12.5 53.9001 11.8L52.1001 6.2C51.9001 5.4 51.7001 4.9 51.5001 4.6L56.7001 2.9C56.8001 3.4 57.0001 4 57.1001 4.5ZM56.1001 5.9L53.6001 6.7L53.3001 6L55.9001 5.2L56.1001 5.9ZM56.8001 8.5C57.0001 9.2 57.2001 9.7 57.4001 10.1L55.0001 10.9C54.9001 10.4 54.7001 9.8 54.5001 9.2C54.3001 8.5 54.1001 8 54.0001 7.7L56.4001 6.9C56.4001 7.3 56.6001 7.9 56.8001 8.5ZM56.4001 9.7L55.8001 7.7L54.9001 8.1L55.5001 10.1L56.4001 9.7Z" fill="#FFF1F9"/>
<path d="M60.9002 3.6C61.2002 3.7 61.5002 3.9 61.8002 4C61.6002 4.2 61.5002 4.4 61.4002 4.7C61.2002 4.6 60.9002 4.4 60.7002 4.4C60.4002 4.3 60.1002 4.2 59.7002 4.1C59.8002 3.8 60.0002 3.6 60.1002 3.3C60.3002 3.4 60.6002 3.5 60.9002 3.6ZM62.1002 6C61.8002 6.3 61.4002 6.8 61.0002 7.2C60.8002 7 60.5002 6.8 60.1002 6.5C60.6002 6.3 60.9002 6 61.3002 5.6C61.7002 5.2 62.0002 4.9 62.3002 4.5C62.5002 4.8 62.6002 5 62.8002 5.2C62.6002 5.4 62.4002 5.6 62.1002 6ZM61.0002 2.6C60.6002 2.5 60.4002 2.4 60.2002 2.4C60.3002 2.1 60.4002 1.9 60.6002 1.6C60.8002 1.7 61.0002 1.8 61.3002 1.9C61.6002 2 61.9002 2.2 62.3002 2.3C62.1002 2.4 62.0002 2.7 61.9002 3C61.7002 2.8 61.4002 2.7 61.0002 2.6ZM64.5002 7C64.5002 6.8 64.4002 6.5 64.3002 6.2L65.2002 6C65.2002 6.4 65.3002 6.7 65.3002 6.9L67.8002 6.5C68.4002 6.4 68.9002 6.3 69.4002 6.2L69.5002 6.9C69.0002 7 68.5002 7 67.9002 7.1L66.1002 7.4C66.3002 7.6 66.7002 7.9 67.3002 8.2C67.9002 8.5 68.4002 8.7 68.8002 8.7C69.2002 8.8 69.6002 8.8 70.1002 8.8C69.9002 9.1 69.8002 9.4 69.7002 9.7C69.2002 9.6 68.7002 9.5 68.3002 9.4C67.9002 9.3 67.6002 9.2 67.3002 9C67.0002 8.8 66.7002 8.7 66.4002 8.4C66.1002 8.2 65.8002 7.9 65.6002 7.5L65.8002 9C65.9002 9.5 66.0002 10 66.1002 10.5L65.2002 10.6C65.2002 10.2 65.1002 9.7 65.0002 9.1L64.8002 7.6C64.6002 8 64.4002 8.3 64.1002 8.7C63.8002 9 63.6002 9.3 63.3002 9.6C62.9002 10 62.3002 10.4 61.3002 11C61.1002 10.8 60.8002 10.5 60.5002 10.2C60.9002 10.1 61.2002 9.9 61.6002 9.7C61.9002 9.5 62.2002 9.3 62.5002 9.1C62.8002 8.9 63.0002 8.7 63.2002 8.4C63.4002 8.2 63.6002 7.9 63.7002 7.7L62.0002 8C61.4002 8.1 60.8002 8.2 60.3002 8.3L60.2002 7.6C60.7002 7.5 61.3002 7.5 61.9002 7.4L64.5002 7ZM68.3002 2.4C68.4002 2.6 68.6002 2.8 68.8002 3C69.0002 3.2 69.2002 3.5 69.3002 3.7C69.1002 3.9 68.8002 4 68.6002 4.2C68.5002 4 68.4002 3.8 68.2002 3.5C68.1002 3.4 67.9002 3.2 67.7002 3C67.8002 3.5 67.8002 4 67.8002 4.5C67.8002 5 67.7002 5.3 67.5002 5.4C67.3002 5.5 66.9002 5.7 66.3002 5.8C66.2002 5.5 66.0002 5.2 65.8002 5C66.3002 4.9 66.7002 4.8 66.8002 4.8C66.9002 4.7 67.0002 4.5 67.0002 4.1C67.0002 3.7 67.0002 3.3 66.9002 2.9C66.9002 2.5 66.8002 2.1 66.7002 1.7L65.6002 1.9C65.6002 2.5 65.6002 3.1 65.5002 3.5C65.5002 3.9 65.4002 4.3 65.3002 4.6C65.2002 5 65.0002 5.3 64.8002 5.5C64.6002 5.7 64.3002 6.1 63.8002 6.4C63.6002 6.2 63.4002 5.9 63.0002 5.7C63.9002 5.3 64.4002 4.8 64.6002 4.1C64.9002 3.5 64.9002 2.8 64.8002 2L64.2002 2.1C63.9002 2.1 63.4002 2.2 62.9002 2.3V1.6C63.4002 1.5 63.9002 1.5 64.2002 1.5L67.7002 1C67.7002 1.3 67.7002 1.6 67.7002 2L67.8002 2.9L68.3002 2.4ZM64.1002 3.7L63.8002 4.6C63.5002 4.5 63.2002 4.4 62.9002 4.4C63.0002 4.1 63.1002 3.9 63.2002 3.7C63.3002 3.5 63.3002 3.2 63.4002 2.9L64.4002 3C64.3002 3.2 64.2002 3.5 64.1002 3.7Z" fill="#FFF1F9"/>
<path d="M75.7999 1.2C75.7999 1.6 75.6999 2.1 75.6999 2.7L79.1999 2.8C79.6999 2.8 80.1999 2.8 80.6999 2.7V3.6C80.1999 3.6 79.6999 3.5 79.1999 3.5H77.0999L76.9999 7.4C77.3999 7 77.6999 6.6 78.0999 6.1C78.4999 5.6 78.6999 5.1 78.8999 4.6C79.1999 4.8 79.5999 4.9 79.8999 5C79.4999 5.4 79.0999 5.9 78.6999 6.5C78.2999 7.1 77.6999 7.7 76.9999 8.4C76.9999 8.9 76.9999 9.1 77.0999 9.2C77.1999 9.2 77.3999 9.3 77.5999 9.3H78.9999C79.2999 9.3 79.5999 9.3 79.6999 9.2C79.7999 9.2 79.9999 8.8 80.0999 8.1C80.3999 8.4 80.6999 8.6 81.0999 8.6C80.7999 9.2 80.5999 9.6 80.3999 9.7C80.2999 9.8 79.9999 9.9 79.6999 9.9H77.1999C76.6999 9.9 76.4999 9.8 76.2999 9.7C76.1999 9.6 76.0999 9.3 76.0999 8.9C75.8999 9 75.6999 9.2 75.2999 9.4C74.8999 9.6 74.5999 9.8 74.3999 9.9C74.2999 9.7 74.0999 9.5 73.7999 9.2C74.1999 9.1 74.5999 8.9 75.0999 8.6C75.4999 8.4 75.8999 8.2 76.1999 8L76.2999 3.5H75.6999C75.4999 4.3 75.3999 5 75.1999 5.5C74.8999 6 74.6999 6.5 74.3999 7C74.0999 7.5 73.7999 7.9 73.3999 8.4C72.9999 8.9 72.3999 9.4 71.6999 10C71.6999 9.8 71.3999 9.6 70.8999 9.3C71.3999 9.1 71.7999 8.7 72.2999 8.3C72.6999 7.9 73.0999 7.4 73.3999 7C73.6999 6.5 73.9999 6 74.1999 5.4C74.3999 4.8 74.5999 4.2 74.6999 3.6H72.9999C72.4999 3.6 71.9999 3.6 71.3999 3.6V2.8C71.9999 2.8 72.4999 2.9 72.9999 2.9H74.7999C74.8999 2.4 74.8999 2 74.8999 1.5C74.8999 1 74.8999 0.5 74.8999 0C75.4999 0.2 75.8999 0.2 76.0999 0.3C75.8999 0.5 75.7999 0.9 75.7999 1.2ZM78.4999 2.5C78.1999 2.1 77.7999 1.6 77.3999 1.1C77.5999 1 77.7999 0.8 78.0999 0.6C78.4999 0.9 78.8999 1.4 79.2999 2C79.0999 2 78.7999 2.2 78.4999 2.5Z" fill="#FFF1F9"/>
</svg>
