<svg width="55" height="70" viewBox="0 0 55 70" fill="none" xmlns="http://www.w3.org/2000/svg">
<path d="M38.6249 21.363C38.6249 19.4798 39.2975 17.7503 40.4121 16.3859C41.2384 15.3674 41.3345 13.907 40.4889 12.9078C39.163 11.3512 38.4328 9.27586 38.6634 7.02755C39.0285 3.41487 41.9686 0.436333 45.5813 0.0520059C50.3277 -0.486052 54.3439 3.22271 54.3439 7.85385C54.3439 9.73705 53.6714 11.4665 52.5568 12.8309C51.6921 13.8878 51.6921 15.3482 52.5568 16.4051C53.6714 17.7503 54.3439 19.4798 54.3439 21.363C54.3439 23.2462 53.6714 24.9756 52.5568 26.34C51.6921 27.3969 51.6921 28.8573 52.5568 29.9142C53.6714 31.2594 54.3439 32.9889 54.3439 34.8913C54.3439 36.7937 53.6714 38.504 52.5568 39.8683C51.6921 40.9252 51.6921 42.3857 52.5568 43.4426C53.6714 44.7877 54.3439 46.5172 54.3439 48.4004C54.3439 50.2836 53.6714 52.0131 52.5568 53.3774C51.7305 54.3959 51.6344 55.8563 52.4799 56.8556C53.8059 58.4121 54.5361 60.4875 54.3055 62.7358C53.9404 66.3677 51.0003 69.327 47.3876 69.7305C42.6412 70.2494 38.6249 66.5598 38.6249 61.9287C38.6249 60.0455 39.2975 58.316 40.4121 56.9517C41.2768 55.8948 41.2768 54.4343 40.4121 53.3774C39.2975 52.0323 38.6249 50.3028 38.6249 48.4004C38.6249 46.498 39.2975 44.7877 40.4121 43.4233C41.2768 42.3664 41.2768 40.906 40.4121 39.8491C39.2975 38.5039 38.6249 36.7745 38.6249 34.8721C38.6249 32.9696 39.2975 31.2594 40.4121 29.895C41.2768 28.8381 41.2768 27.3777 40.4121 26.3208C39.2975 24.9756 38.6249 23.2462 38.6249 21.3437V21.363Z" fill="url(#paint0_linear_16379_484)"/>
<path d="M19.3129 34.8913C19.3129 33.0081 19.9855 31.2786 21.1001 29.9143C21.9264 28.8958 22.0224 27.4353 21.1769 26.4361C19.851 24.8796 19.1208 22.8042 19.3514 20.5559C19.7165 16.924 22.6566 13.9647 26.2693 13.5611C31.0157 13.0423 35.0319 16.7318 35.0319 21.363C35.0319 23.2462 34.3593 24.9756 33.2448 26.34C32.3801 27.3969 32.3801 28.8574 33.2448 29.9143C34.3593 31.2594 35.0319 32.9889 35.0319 34.8913C35.0319 36.7937 34.3593 38.504 33.2448 39.8683C32.4185 40.8868 32.3224 42.3472 33.1679 43.3465C34.4939 44.903 35.2241 46.9784 34.9935 49.2267C34.6284 52.8586 31.6883 55.8179 28.0756 56.2215C23.3292 56.7403 19.3129 53.0508 19.3129 48.4196C19.3129 46.5364 19.9855 44.8069 21.1001 43.4426C21.9648 42.3857 21.9648 40.9252 21.1001 39.8683C19.9855 38.5232 19.3129 36.7937 19.3129 34.8913Z" fill="url(#paint1_linear_16379_484)"/>
<path d="M7.85926 42.7508C3.51858 42.7508 -0.000235558 39.232 -0.000235558 34.8913C-0.000235558 30.5506 3.51858 27.0318 7.85926 27.0318C12.1999 27.0318 15.7188 30.5506 15.7188 34.8913C15.7188 39.232 12.1999 42.7508 7.85926 42.7508Z" fill="url(#paint2_linear_16379_484)"/>
<defs>
<linearGradient id="paint0_linear_16379_484" x1="37.4197" y1="47" x2="88.366" y2="41.9761" gradientUnits="userSpaceOnUse">
<stop stop-color="#E8198B"/>
<stop offset="0.2458" stop-color="#E93295" stop-opacity="0.7542"/>
<stop offset="0.7666" stop-color="#EC73AD" stop-opacity="0.2334"/>
<stop offset="1" stop-color="#EE92B9" stop-opacity="0"/>
</linearGradient>
<linearGradient id="paint1_linear_16379_484" x1="18.1077" y1="42.312" x2="68.2508" y2="34.2425" gradientUnits="userSpaceOnUse">
<stop stop-color="#E8198B"/>
<stop offset="0.2458" stop-color="#E93295" stop-opacity="0.7542"/>
<stop offset="0.7666" stop-color="#EC73AD" stop-opacity="0.2334"/>
<stop offset="1" stop-color="#EE92B9" stop-opacity="0"/>
</linearGradient>
<linearGradient id="paint2_linear_16379_484" x1="-1.20115" y1="37.6193" x2="41.9543" y2="18.737" gradientUnits="userSpaceOnUse">
<stop stop-color="#E8198B"/>
<stop offset="0.2458" stop-color="#E93295" stop-opacity="0.7542"/>
<stop offset="0.7666" stop-color="#EC73AD" stop-opacity="0.2334"/>
<stop offset="1" stop-color="#EE92B9" stop-opacity="0"/>
</linearGradient>
</defs>
</svg>
