<svg width="20" height="27" viewBox="0 0 20 27" fill="none" xmlns="http://www.w3.org/2000/svg">
<path d="M15.9301 18.9701V18.4941H15.9077H15.4077V17.9941V8.75635V8.25635H15.8298C15.8547 8.24813 15.8861 8.23765 15.9233 8.22498C16.0304 8.18846 16.1844 8.13404 16.3697 8.06352C16.7415 7.922 17.233 7.71794 17.7212 7.46597C18.2139 7.21167 18.68 6.92042 19.0167 6.6108C19.136 6.50112 19.2301 6.39753 19.3024 6.3004C17.5456 6.15542 16.0185 5.35031 15.4593 5.02395L13.8625 4.09211H15.2158V4.01006L15.5873 3.9113C16.3589 3.70621 16.7713 3.37467 16.9972 3.0794C16.8556 3.11225 16.7027 3.14021 16.5406 3.15937C15.6474 3.26493 14.479 3.09913 13.4313 2.04633C12.0599 0.669074 10.5659 0.50758 10 0.500039C9.43408 0.50758 7.94011 0.669074 6.56868 2.04633L15.9301 18.9701ZM15.9301 18.9701C15.8924 19.0102 15.843 19.0659 15.7897 19.1348C15.6826 19.2731 15.5449 19.4831 15.4626 19.7415C15.3784 20.0059 15.3481 20.3371 15.4866 20.6828C15.5904 20.9417 15.7741 21.1722 16.0342 21.3731L15.8544 22.9407L15.7906 23.4977H16.3512H16.3586V26.5H9.99702H3.63541V23.4977H3.64286H4.20346L4.1396 22.9407L3.95988 21.3733C4.22018 21.1724 4.40415 20.9419 4.50799 20.683C4.64667 20.3371 4.61632 20.0058 4.53196 19.7413C4.44951 19.4828 4.31156 19.2728 4.20438 19.1346C4.15101 19.0657 4.10168 19.0101 4.06398 18.97V18.4941H4.08631H4.58631V17.9941V8.75635V8.38926L4.23622 8.27936L4.23619 8.27935L4.23606 8.27931L4.23601 8.27929L4.23451 8.27882L4.22722 8.27649L4.19619 8.26643C4.16844 8.25734 4.12691 8.24354 4.07358 8.22525C3.96686 8.18866 3.81323 8.1342 3.62837 8.06367C3.25737 7.92211 2.76657 7.71804 2.27877 7.46605C1.78647 7.21175 1.32061 6.92048 0.983806 6.61081C0.864514 6.50113 0.770373 6.39752 0.698079 6.30037C2.45469 6.15528 3.98151 5.35029 4.5407 5.02395L6.13748 4.09211H4.78422V4.01013L4.41275 3.91132C3.64202 3.70631 3.22964 3.3749 3.00353 3.07959C3.14493 3.11236 3.29757 3.14025 3.45935 3.15937C4.35259 3.26492 5.52087 3.09914 6.56858 2.04642L15.9301 18.9701Z" fill="#FEE1F1" stroke="#FEE1F1"/>
</svg>
