<svg width="55" height="70" viewBox="0 0 55 70" fill="none" xmlns="http://www.w3.org/2000/svg">
<path d="M15.7227 21.363C15.7227 19.4798 15.0501 17.7503 13.9356 16.3859C13.1093 15.3674 13.0132 13.907 13.8587 12.9078C15.1847 11.3512 15.9149 9.27586 15.6843 7.02755C15.3192 3.41487 12.3791 0.436333 8.76639 0.0520059C4.01995 -0.486052 0.00372814 3.22271 0.00372814 7.85385C0.00372814 9.73705 0.676301 11.4665 1.79085 12.8309C2.65559 13.8878 2.65559 15.3482 1.79085 16.4051C0.676301 17.7503 0.00372814 19.4798 0.00372814 21.363C0.00372814 23.2462 0.676301 24.9756 1.79085 26.34C2.65559 27.3969 2.65559 28.8573 1.79085 29.9142C0.676301 31.2594 0.00372814 32.9889 0.00372814 34.8913C0.00372814 36.7937 0.676301 38.504 1.79085 39.8683C2.65559 40.9252 2.65559 42.3857 1.79085 43.4426C0.676301 44.7877 0.00372814 46.5172 0.00372814 48.4004C0.00372814 50.2836 0.676301 52.0131 1.79085 53.3774C2.61715 54.3959 2.71324 55.8563 1.86772 56.8556C0.541786 58.4121 -0.188435 60.4875 0.0421609 62.7358C0.407272 66.3677 3.34737 69.327 6.96005 69.7305C11.7065 70.2494 15.7227 66.5598 15.7227 61.9287C15.7227 60.0455 15.0501 58.316 13.9356 56.9517C13.0709 55.8948 13.0709 54.4343 13.9356 53.3774C15.0501 52.0323 15.7227 50.3028 15.7227 48.4004C15.7227 46.498 15.0501 44.7877 13.9356 43.4233C13.0709 42.3664 13.0709 40.906 13.9356 39.8491C15.0501 38.5039 15.7227 36.7745 15.7227 34.8721C15.7227 32.9696 15.0501 31.2594 13.9356 29.895C13.0709 28.8381 13.0709 27.3777 13.9356 26.3208C15.0501 24.9756 15.7227 23.2462 15.7227 21.3437V21.363Z" fill="url(#paint0_linear_15553_72656)"/>
<path d="M35.0347 34.8913C35.0347 33.0081 34.3622 31.2786 33.2476 29.9143C32.4213 28.8958 32.3252 27.4353 33.1707 26.4361C34.4967 24.8796 35.2269 22.8042 34.9963 20.5559C34.6312 16.924 31.6911 13.9647 28.0784 13.5611C23.332 13.0423 19.3157 16.7318 19.3157 21.363C19.3157 23.2462 19.9883 24.9756 21.1029 26.34C21.9676 27.3969 21.9676 28.8574 21.1029 29.9143C19.9883 31.2594 19.3157 32.9889 19.3157 34.8913C19.3157 36.7937 19.9883 38.504 21.1029 39.8683C21.9292 40.8868 22.0252 42.3472 21.1797 43.3465C19.8538 44.903 19.1236 46.9784 19.3542 49.2267C19.7193 52.8586 22.6594 55.8179 26.2721 56.2215C31.0185 56.7403 35.0347 53.0508 35.0347 48.4196C35.0347 46.5364 34.3622 44.8069 33.2476 43.4426C32.3829 42.3857 32.3829 40.9252 33.2476 39.8683C34.3622 38.5232 35.0347 36.7937 35.0347 34.8913Z" fill="url(#paint1_linear_15553_72656)"/>
<path d="M46.4884 42.7508C50.8291 42.7508 54.3479 39.232 54.3479 34.8913C54.3479 30.5506 50.8291 27.0318 46.4884 27.0318C42.1477 27.0318 38.6289 30.5506 38.6289 34.8913C38.6289 39.232 42.1477 42.7508 46.4884 42.7508Z" fill="url(#paint2_linear_15553_72656)"/>
<defs>
<linearGradient id="paint0_linear_15553_72656" x1="16.9279" y1="47" x2="-34.0184" y2="41.9761" gradientUnits="userSpaceOnUse">
<stop stop-color="#E8198B"/>
<stop offset="0.2458" stop-color="#E93295" stop-opacity="0.7542"/>
<stop offset="0.7666" stop-color="#EC73AD" stop-opacity="0.2334"/>
<stop offset="1" stop-color="#EE92B9" stop-opacity="0"/>
</linearGradient>
<linearGradient id="paint1_linear_15553_72656" x1="36.2399" y1="42.312" x2="-13.9032" y2="34.2425" gradientUnits="userSpaceOnUse">
<stop stop-color="#E8198B"/>
<stop offset="0.2458" stop-color="#E93295" stop-opacity="0.7542"/>
<stop offset="0.7666" stop-color="#EC73AD" stop-opacity="0.2334"/>
<stop offset="1" stop-color="#EE92B9" stop-opacity="0"/>
</linearGradient>
<linearGradient id="paint2_linear_15553_72656" x1="55.5488" y1="37.6193" x2="12.3933" y2="18.737" gradientUnits="userSpaceOnUse">
<stop stop-color="#E8198B"/>
<stop offset="0.2458" stop-color="#E93295" stop-opacity="0.7542"/>
<stop offset="0.7666" stop-color="#EC73AD" stop-opacity="0.2334"/>
<stop offset="1" stop-color="#EE92B9" stop-opacity="0"/>
</linearGradient>
</defs>
</svg>
