<svg width="254" height="196" viewBox="0 0 127 98" fill="none" xmlns="http://www.w3.org/2000/svg">
<path opacity="1" d="M-77.7656 67.6406C-78.1094 65.5781 -78.1094 62.8281 -77.7656 59.3906C-77.7656 56.9844 -77.7656 55.2656 -77.7656 54.2344C-77.4219 50.4531 -75.7031 48.7344 -72.6094 49.0781C-58.5156 48.0469 -43.0469 48.0469 -26.2031 49.0781C-23.1094 49.0781 -21.3906 50.7969 -21.0469 54.2344C-21.0469 58.7031 -21.0469 63 -21.0469 67.125C-21.7344 70.9062 -24.1406 72.7969 -28.2656 72.7969C-40.9844 71.7656 -55.0781 71.7656 -70.5469 72.7969C-74.6719 72.4531 -77.0781 70.7344 -77.7656 67.6406ZM-73.125 56.8125V64.5469C-73.4688 67.2969 -72.2656 68.5 -69.5156 68.1562C-55.0781 67.125 -41.6719 67.125 -29.2969 68.1562C-26.8906 68.1562 -25.6875 66.9531 -25.6875 64.5469V55.7812C-25.3438 54.0625 -26.7188 53.2031 -29.8125 53.2031C-42.875 52.1719 -56.2812 52.1719 -70.0312 53.2031C-72.0938 53.2031 -73.125 54.4062 -73.125 56.8125ZM-88.0781 90.3281C-80.8594 89.6406 -72.7812 89.2969 -63.8438 89.2969C-65.9062 86.2031 -68.3125 83.1094 -71.0625 80.0156C-72.4375 78.6406 -72.6094 77.4375 -71.5781 76.4062C-69.8594 75.375 -68.6562 75.375 -67.9688 76.4062C-64.875 79.5 -61.6094 83.625 -58.1719 88.7812C-58.1719 88.7812 -58.1719 88.9531 -58.1719 89.2969H-41.6719C-41.3281 88.9531 -41.1562 88.7812 -41.1562 88.7812C-40.4688 87.75 -39.4375 86.5469 -38.0625 85.1719C-35.3125 81.7344 -33.4219 78.9844 -32.3906 76.9219C-31.7031 75.2031 -30.5 74.8594 -28.7812 75.8906C-27.4062 76.5781 -27.2344 77.7812 -28.2656 79.5C-31.0156 83.2812 -33.4219 86.5469 -35.4844 89.2969C-25.8594 89.2969 -17.4375 89.6406 -10.2188 90.3281C-8.84375 90.3281 -8.15625 90.8438 -8.15625 91.875C-8.84375 94.625 -10.2188 95.6562 -12.2812 94.9688C-24.3125 93.9375 -38.5781 93.4219 -55.0781 93.4219C-70.8906 93.7656 -82.4062 94.4531 -89.625 95.4844C-91.3438 95.8281 -92.2031 95.1406 -92.2031 93.4219C-91.5156 91.0156 -90.1406 89.9844 -88.0781 90.3281ZM-106.125 5.25C-105.438 33.4375 -106.469 53.2031 -109.219 64.5469C-111.281 76.2344 -116.266 85.6875 -124.172 92.9062C-125.891 94.2812 -127.953 94.2812 -130.359 92.9062C-131.391 92.2188 -131.391 91.3594 -130.359 90.3281C-121.422 82.7656 -115.922 73.8281 -113.859 63.5156C-111.109 53.2031 -110.078 33.7812 -110.766 5.25C-110.766 3.875 -109.906 3.01562 -108.188 2.67188C-106.812 3.01562 -106.125 3.875 -106.125 5.25ZM-45.2812 11.4375C-44.5938 11.7812 -44.25 12.2969 -44.25 12.9844C-43.9062 12.9844 -43.7344 12.9844 -43.7344 12.9844C-39.2656 10.2344 -34.9688 7.14062 -30.8438 3.70312C-29.8125 2.67188 -28.7812 2.84375 -27.75 4.21875C-26.7188 5.59375 -26.8906 6.79688 -28.2656 7.82812C-32.0469 10.9219 -36.3438 13.8437 -41.1562 16.5938C-38.4062 19 -35.8281 21.75 -33.4219 24.8438C-29.9844 22.4375 -26.375 19.8594 -22.5938 17.1094C-21.5625 16.4219 -20.875 15.9062 -20.5312 15.5625C-19.1562 14.5312 -17.9531 14.5312 -16.9219 15.5625C-15.8906 16.9375 -16.4062 18.3125 -18.4688 19.6875C-18.4688 19.6875 -18.6406 19.8594 -18.9844 20.2031C-21.7344 22.6094 -25.3438 25.1875 -29.8125 27.9375C-23.625 33.4375 -16.5781 38.5938 -8.67188 43.4062C-7.64062 44.4375 -7.46875 45.125 -8.15625 45.4688C-10.2188 48.2188 -12.4531 48.5625 -14.8594 46.5C-25.8594 38.5938 -36.8594 28.2812 -47.8594 15.5625C-49.5781 13.5 -49.9219 12.125 -48.8906 11.4375C-47.5156 10.4062 -46.3125 10.4062 -45.2812 11.4375ZM-82.9219 22.7812C-84.2969 22.4375 -84.6406 21.4063 -83.9531 19.6875C-83.6094 18.3125 -82.4062 18.1406 -80.3438 19.1719C-75.1875 21.9219 -71.4062 24.1562 -69 25.875L-68.4844 26.3906C-68.1406 26.0469 -67.7969 25.5313 -67.4531 24.8438C-65.7344 23.125 -63.8438 20.7188 -61.7812 17.625C-60.0625 15.5625 -60.0625 14.1875 -61.7812 13.5C-64.5312 11.7812 -68.1406 10.0625 -72.6094 8.34375C-73.9844 7.65625 -74.3281 6.625 -73.6406 5.25C-72.9531 3.875 -71.75 3.53125 -70.0312 4.21875C-66.9375 5.59375 -63.5 7.3125 -59.7188 9.375C-58.6875 9.71875 -58 10.0625 -57.6562 10.4062C-54.5625 12.8125 -54.3906 15.7344 -57.1406 19.1719C-65.0469 30.1719 -73.8125 39.1094 -83.4375 45.9844C-85.8438 48.0469 -88.25 48.0469 -90.6562 45.9844C-92.0312 44.9531 -92.0312 44.0938 -90.6562 43.4062C-83.4375 39.625 -77.25 35.1562 -72.0938 30C-73.8125 28.625 -76.5625 26.7344 -80.3438 24.3281C-81.375 23.6406 -82.2344 23.125 -82.9219 22.7812ZM-71.0625 39.7969C-70.7188 37.7344 -69.6875 36.5312 -67.9688 36.1875C-55.25 35.5 -43.2188 35.5 -31.875 36.1875C-31.875 36.1875 -31.7031 36.1875 -31.3594 36.1875C-30.3281 36.5312 -29.8125 37.0469 -29.8125 37.7344C-30.5 40.1406 -31.7031 41.3438 -33.4219 41.3438C-45.7969 39.625 -57.8281 39.625 -69.5156 41.3438C-70.2031 41.6875 -70.7188 41.6875 -71.0625 41.3438C-71.4062 41 -71.4062 40.4844 -71.0625 39.7969ZM-103.547 61.4531C-104.234 60.0781 -104.062 58.875 -103.031 57.8438C-101.656 56.8125 -100.625 56.9844 -99.9375 58.3594C-95.4688 66.9531 -90.8281 73.3125 -86.0156 77.4375C-84.6406 78.4688 -85.1562 79.3281 -87.5625 80.0156C-89.9688 81.0469 -91.6875 80.7031 -92.7188 78.9844C-96.8438 73.4844 -100.453 67.6406 -103.547 61.4531ZM-95.2969 40.8281C-96.3281 42.2031 -97.875 42.375 -99.9375 41.3438C-100.969 40.6562 -100.969 39.625 -99.9375 38.25C-96.8438 35.1562 -93.5781 30.1719 -90.1406 23.2969C-89.4531 21.9219 -88.4219 21.75 -87.0469 22.7812C-85.6719 23.4688 -85.5 24.8438 -86.5312 26.9062C-90.6562 33.7812 -93.5781 38.4219 -95.2969 40.8281ZM-123.141 45.9844C-123.484 48.3906 -124.859 49.5938 -127.266 49.5938C-128.641 49.9375 -128.812 48.3906 -127.781 44.9531C-125.719 40.1406 -124.516 35.5 -124.172 31.0312C-123.828 28.625 -122.797 27.5938 -121.078 27.9375C-119.703 27.5938 -119.359 29.3125 -120.047 33.0938C-120.391 37.2188 -121.422 41.5156 -123.141 45.9844ZM17.1094 27.4219C18.1406 27.4219 20.0312 27.4219 22.7812 27.4219C25.5312 27.0781 27.7656 26.9062 29.4844 26.9062V14.5312C26.3906 14.5312 23.4688 14.5312 20.7188 14.5312C19 16.9375 16.5938 20.0312 13.5 23.8125C12.8125 24.5 12.2969 25.0156 11.9531 25.3594C9.54688 27.4219 7.3125 27.5938 5.25 25.875C4.21875 24.8438 4.39062 23.8125 5.76562 22.7812C11.6094 18.6562 17.2812 12.125 22.7812 3.1875C23.125 1.125 24.3281 0.609375 26.3906 1.64062C28.1094 1.98437 28.4531 3.1875 27.4219 5.25C26.3906 6.625 25.3594 8.17187 24.3281 9.89062C42.2031 9.54688 74 9.375 119.719 9.375C121.438 9.375 122.125 10.0625 121.781 11.4375C121.438 13.8437 119.375 14.875 115.594 14.5312C114.219 14.5312 112.156 14.5312 109.406 14.5312C105.281 14.1875 102.016 14.0156 99.6094 14.0156V26.3906H115.078C116.109 26.3906 116.625 27.25 116.625 28.9688C115.938 30.6875 114.219 31.5469 111.469 31.5469C108.719 31.2031 104.766 31.0312 99.6094 31.0312V44.4375C107.859 44.4375 115.938 44.4375 123.844 44.4375C125.562 44.4375 126.078 45.2969 125.391 47.0156C125.047 49.0781 123.5 49.7656 120.75 49.0781C96.6875 48.3906 73.3125 48.2188 50.625 48.5625C29.3125 48.9062 13.5 49.5938 3.1875 50.625C1.8125 50.625 1.29688 49.9375 1.64062 48.5625C1.98438 46.5 3.35938 45.2969 5.76562 44.9531C8.17188 44.9531 11.7812 44.9531 16.5938 44.9531C22.0938 44.6094 26.3906 44.4375 29.4844 44.4375V32.0625C27.4219 32.0625 24.5 32.2344 20.7188 32.5781C17.9688 32.5781 16.0781 32.5781 15.0469 32.5781C14.0156 32.9219 13.3281 32.9219 12.9844 32.5781C12.6406 32.2344 12.6406 31.5469 12.9844 30.5156C13.6719 28.4531 15.0469 27.4219 17.1094 27.4219ZM67.6406 61.4531C71.7656 61.1094 79.5 60.9375 90.8438 60.9375V54.75C90.8438 53.375 91.5312 52.6875 92.9062 52.6875C94.625 52.3438 95.4844 53.0312 95.4844 54.75V60.9375C103.391 60.9375 111.125 60.9375 118.688 60.9375C120.406 60.9375 120.922 61.7969 120.234 63.5156C120.234 65.2344 118.859 65.9219 116.109 65.5781C114.734 65.5781 111.984 65.5781 107.859 65.5781C102.359 65.2344 98.2344 65.0625 95.4844 65.0625V79.5C104.422 79.5 113.531 79.5 122.812 79.5C123.844 79.5 124.188 80.1875 123.844 81.5625C123.5 83.2812 122.125 84.1406 119.719 84.1406C114.906 83.7969 106.828 83.625 95.4844 83.625V94.9688C95.4844 95.6562 94.7969 96.1719 93.4219 96.5156C91.7031 96.1719 90.8438 95.6562 90.8438 94.9688V83.625C85.6875 83.9688 81.3906 84.1406 77.9531 84.1406C70.3906 84.8281 65.9219 84.3125 64.5469 82.5938C62.4844 81.5625 62.1406 78.125 63.5156 72.2812C63.5156 70.9062 64.5469 70.2188 66.6094 70.2188C67.6406 70.9062 68.1562 71.7656 68.1562 72.7969C67.125 76.2344 67.125 78.2969 68.1562 78.9844C68.8438 79.6719 71.4219 80.0156 75.8906 80.0156C80.7031 79.6719 85.6875 79.5 90.8438 79.5V65.0625C88.0938 65.0625 83.9688 65.2344 78.4688 65.5781C72.2812 65.5781 68.3281 65.75 66.6094 66.0938C65.5781 66.4375 64.8906 66.4375 64.5469 66.0938C64.2031 66.0938 64.2031 65.75 64.5469 65.0625C65.2344 62.6562 66.2656 61.4531 67.6406 61.4531ZM27.4219 52.6875C28.4531 50.9688 29.4844 50.625 30.5156 51.6562C32.5781 52.6875 33.0938 54.0625 32.0625 55.7812C31.7188 56.125 31.2031 56.6406 30.5156 57.3281C30.1719 57.6719 29.8281 58.0156 29.4844 58.3594C34.6406 58.0156 42.0312 57.8438 51.6562 57.8438C59.2188 58.5312 61.2812 61.7969 57.8438 67.6406C49.9375 81.3906 35.1562 90.8438 13.5 96C10.75 96.6875 8.51562 96.1719 6.79688 94.4531C6.45312 93.4219 6.96875 92.5625 8.34375 91.875C17.625 91.1875 27.25 87.75 37.2188 81.5625C34.125 79.5 29.8281 77.0938 24.3281 74.3438C23.2969 74 22.4375 73.6562 21.75 73.3125C20.375 72.2812 20.2031 71.25 21.2344 70.2188C22.2656 68.8438 23.6406 68.6719 25.3594 69.7031C28.4531 71.0781 33.7812 74 41.3438 78.4688C45.8125 75.0312 49.5938 71.0781 52.6875 66.6094C53.7188 64.8906 53.8906 63.8594 53.2031 63.5156C52.8594 62.8281 51.3125 62.4844 48.5625 62.4844C40.6562 61.7969 32.9219 61.9688 25.3594 63C18.4844 69.1875 14.0156 73.1406 11.9531 74.8594C9.89062 76.9219 7.82812 77.0938 5.76562 75.375C5.07812 74.3438 5.25 73.3125 6.28125 72.2812C15.5625 66.0938 22.6094 59.5625 27.4219 52.6875ZM51.6562 14.0156C45.4688 14.0156 39.625 14.0156 34.125 14.0156V26.9062C39.625 26.9062 45.4688 26.9062 51.6562 26.9062V14.0156ZM51.6562 31.5469C45.4688 31.5469 39.625 31.5469 34.125 31.5469V44.4375C39.625 44.4375 45.4688 44.4375 51.6562 44.4375V31.5469ZM94.9688 31.0312C89.8125 31.0312 84.1406 31.0312 77.9531 31.0312V44.4375H94.9688V31.0312ZM73.3125 31.0312C67.8125 31.0312 62.1406 31.0312 56.2969 31.0312V44.4375H73.3125V31.0312ZM73.3125 14.0156C71.9375 14.0156 70.0469 14.0156 67.6406 14.0156C62.8281 13.6719 59.0469 13.6719 56.2969 14.0156V26.9062C58.3594 26.9062 61.2812 26.7344 65.0625 26.3906C68.8438 26.3906 71.5938 26.3906 73.3125 26.3906V14.0156ZM94.9688 14.0156C89.8125 14.0156 84.1406 14.0156 77.9531 14.0156V26.3906H94.9688V14.0156Z" fill="url(#paint0_linear_3527_4)"/>
<defs>
<linearGradient id="paint0_linear_3527_4" x1="0.542198" y1="108.025" x2="0.542198" y2="-20" gradientUnits="userSpaceOnUse">
<stop stop-color="#A8EDEA"/>
<stop offset="0.6662" stop-color="#E5DDE5"/>
<stop offset="1" stop-color="#FED6E3"/>
</linearGradient>
</defs>
</svg>
