<svg width="264" height="190" viewBox="0 0 132 95" fill="none" xmlns="http://www.w3.org/2000/svg">
<path opacity="1" d="M54.2344 65.6406C53.8906 63.5781 53.8906 60.8281 54.2344 57.3906C54.2344 54.9844 54.2344 53.2656 54.2344 52.2344C54.5781 48.4531 56.2969 46.7344 59.3906 47.0781C73.4844 46.0469 88.9531 46.0469 105.797 47.0781C108.891 47.0781 110.609 48.7969 110.953 52.2344C110.953 56.7031 110.953 61 110.953 65.125C110.266 68.9062 107.859 70.7969 103.734 70.7969C91.0156 69.7656 76.9219 69.7656 61.4531 70.7969C57.3281 70.4531 54.9219 68.7344 54.2344 65.6406ZM58.875 54.8125V62.5469C58.5312 65.2969 59.7344 66.5 62.4844 66.1562C76.9219 65.125 90.3281 65.125 102.703 66.1562C105.109 66.1562 106.312 64.9531 106.312 62.5469V53.7812C106.656 52.0625 105.281 51.2031 102.188 51.2031C89.125 50.1719 75.7188 50.1719 61.9688 51.2031C59.9062 51.2031 58.875 52.4062 58.875 54.8125ZM43.9219 88.3281C51.1406 87.6406 59.2188 87.2969 68.1562 87.2969C66.0938 84.2031 63.6875 81.1094 60.9375 78.0156C59.5625 76.6406 59.3906 75.4375 60.4219 74.4062C62.1406 73.375 63.3438 73.375 64.0312 74.4062C67.125 77.5 70.3906 81.625 73.8281 86.7812C73.8281 86.7812 73.8281 86.9531 73.8281 87.2969H90.3281C90.6719 86.9531 90.8438 86.7812 90.8438 86.7812C91.5312 85.75 92.5625 84.5469 93.9375 83.1719C96.6875 79.7344 98.5781 76.9844 99.6094 74.9219C100.297 73.2031 101.5 72.8594 103.219 73.8906C104.594 74.5781 104.766 75.7812 103.734 77.5C100.984 81.2812 98.5781 84.5469 96.5156 87.2969C106.141 87.2969 114.562 87.6406 121.781 88.3281C123.156 88.3281 123.844 88.8438 123.844 89.875C123.156 92.625 121.781 93.6562 119.719 92.9688C107.688 91.9375 93.4219 91.4219 76.9219 91.4219C61.1094 91.7656 49.5938 92.4531 42.375 93.4844C40.6562 93.8281 39.7969 93.1406 39.7969 91.4219C40.4844 89.0156 41.8594 87.9844 43.9219 88.3281ZM25.875 3.25C26.5625 31.4375 25.5312 51.2031 22.7812 62.5469C20.7188 74.2344 15.7344 83.6875 7.82812 90.9062C6.10938 92.2812 4.04688 92.2812 1.64062 90.9062C0.609375 90.2188 0.609375 89.3594 1.64062 88.3281C10.5781 80.7656 16.0781 71.8281 18.1406 61.5156C20.8906 51.2031 21.9219 31.7812 21.2344 3.25C21.2344 1.875 22.0938 1.01562 23.8125 0.671875C25.1875 1.01562 25.875 1.875 25.875 3.25ZM86.7188 9.4375C87.4062 9.78125 87.75 10.2969 87.75 10.9844C88.0938 10.9844 88.2656 10.9844 88.2656 10.9844C92.7344 8.23437 97.0312 5.14062 101.156 1.70312C102.188 0.671875 103.219 0.84375 104.25 2.21875C105.281 3.59375 105.109 4.79688 103.734 5.82812C99.9531 8.92188 95.6562 11.8437 90.8438 14.5938C93.5938 17 96.1719 19.75 98.5781 22.8438C102.016 20.4375 105.625 17.8594 109.406 15.1094C110.438 14.4219 111.125 13.9062 111.469 13.5625C112.844 12.5312 114.047 12.5312 115.078 13.5625C116.109 14.9375 115.594 16.3125 113.531 17.6875C113.531 17.6875 113.359 17.8594 113.016 18.2031C110.266 20.6094 106.656 23.1875 102.188 25.9375C108.375 31.4375 115.422 36.5938 123.328 41.4062C124.359 42.4375 124.531 43.125 123.844 43.4688C121.781 46.2188 119.547 46.5625 117.141 44.5C106.141 36.5938 95.1406 26.2812 84.1406 13.5625C82.4219 11.5 82.0781 10.125 83.1094 9.4375C84.4844 8.40625 85.6875 8.40625 86.7188 9.4375ZM49.0781 20.7812C47.7031 20.4375 47.3594 19.4063 48.0469 17.6875C48.3906 16.3125 49.5938 16.1406 51.6562 17.1719C56.8125 19.9219 60.5938 22.1562 63 23.875L63.5156 24.3906C63.8594 24.0469 64.2031 23.5313 64.5469 22.8438C66.2656 21.125 68.1562 18.7188 70.2188 15.625C71.9375 13.5625 71.9375 12.1875 70.2188 11.5C67.4688 9.78125 63.8594 8.0625 59.3906 6.34375C58.0156 5.65625 57.6719 4.625 58.3594 3.25C59.0469 1.875 60.25 1.53125 61.9688 2.21875C65.0625 3.59375 68.5 5.3125 72.2812 7.375C73.3125 7.71875 74 8.0625 74.3438 8.40625C77.4375 10.8125 77.6094 13.7344 74.8594 17.1719C66.9531 28.1719 58.1875 37.1094 48.5625 43.9844C46.1562 46.0469 43.75 46.0469 41.3438 43.9844C39.9688 42.9531 39.9688 42.0938 41.3438 41.4062C48.5625 37.625 54.75 33.1562 59.9062 28C58.1875 26.625 55.4375 24.7344 51.6562 22.3281C50.625 21.6406 49.7656 21.125 49.0781 20.7812ZM60.9375 37.7969C61.2812 35.7344 62.3125 34.5312 64.0312 34.1875C76.75 33.5 88.7812 33.5 100.125 34.1875C100.125 34.1875 100.297 34.1875 100.641 34.1875C101.672 34.5312 102.188 35.0469 102.188 35.7344C101.5 38.1406 100.297 39.3438 98.5781 39.3438C86.2031 37.625 74.1719 37.625 62.4844 39.3438C61.7969 39.6875 61.2812 39.6875 60.9375 39.3438C60.5938 39 60.5938 38.4844 60.9375 37.7969ZM28.4531 59.4531C27.7656 58.0781 27.9375 56.875 28.9688 55.8438C30.3438 54.8125 31.375 54.9844 32.0625 56.3594C36.5312 64.9531 41.1719 71.3125 45.9844 75.4375C47.3594 76.4688 46.8438 77.3281 44.4375 78.0156C42.0312 79.0469 40.3125 78.7031 39.2812 76.9844C35.1562 71.4844 31.5469 65.6406 28.4531 59.4531ZM36.7031 38.8281C35.6719 40.2031 34.125 40.375 32.0625 39.3438C31.0312 38.6562 31.0312 37.625 32.0625 36.25C35.1562 33.1562 38.4219 28.1719 41.8594 21.2969C42.5469 19.9219 43.5781 19.75 44.9531 20.7812C46.3281 21.4688 46.5 22.8438 45.4688 24.9062C41.3438 31.7812 38.4219 36.4219 36.7031 38.8281ZM8.85938 43.9844C8.51562 46.3906 7.14062 47.5938 4.73438 47.5938C3.35938 47.9375 3.1875 46.3906 4.21875 42.9531C6.28125 38.1406 7.48438 33.5 7.82812 29.0312C8.17188 26.625 9.20312 25.5938 10.9219 25.9375C12.2969 25.5938 12.6406 27.3125 11.9531 31.0938C11.6094 35.2188 10.5781 39.5156 8.85938 43.9844ZM237.281 14.5938C236.938 12.5312 235.906 11.3281 234.188 10.9844C228.344 10.2969 223.016 10.4688 218.203 11.5C216.828 11.5 215.797 10.8125 215.109 9.4375C214.766 8.0625 215.281 7.375 216.656 7.375C223.875 6.6875 230.406 6.6875 236.25 7.375C239.688 7.375 241.406 9.09375 241.406 12.5312V37.7969C242.781 37.7969 244.156 37.7969 245.531 37.7969C249.656 37.7969 251.719 39.3438 251.719 42.4375C252.406 46.2188 252.406 50 251.719 53.7812C251.719 55.5 251.031 56.3594 249.656 56.3594C247.938 56.0156 247.078 55.1562 247.078 53.7812C247.766 50.6875 247.766 47.7656 247.078 45.0156C247.422 42.9531 246.047 42.0938 242.953 42.4375C205.141 41.0625 173.688 41.0625 148.594 42.4375C146.188 42.4375 144.812 43.6406 144.469 46.0469C144.469 48.4531 144.469 51.0312 144.469 53.7812C144.469 55.1562 143.781 55.8438 142.406 55.8438C141.031 55.8438 140.344 55.1562 140.344 53.7812C140.344 50.3438 140.344 47.0781 140.344 43.9844C140.344 40.2031 142.234 38.1406 146.016 37.7969C147.734 37.7969 149.281 37.7969 150.656 37.7969V12.5312C151 10.125 152.375 8.40625 154.781 7.375C160.969 6.6875 166.984 5.82812 172.828 4.79688C174.891 4.10937 176.094 4.28125 176.438 5.3125C177.469 7.03125 176.953 8.23437 174.891 8.92188C172.141 9.60938 166.469 10.2969 157.875 10.9844C157.875 10.9844 157.703 10.9844 157.359 10.9844C155.641 11.6719 154.781 12.7031 154.781 14.0781V17.1719C157.531 16.8281 161.312 16.8281 166.125 17.1719C169.219 17.1719 171.797 17.1719 173.859 17.1719C175.578 17.5156 176.094 18.2031 175.406 19.2344C175.062 20.9531 173.516 21.6406 170.766 21.2969C169.047 21.2969 166.984 21.2969 164.578 21.2969C160.797 20.9531 157.531 20.9531 154.781 21.2969V26.9688C161.656 26.9688 168.016 27.1406 173.859 27.4844C175.578 27.4844 176.094 28.1719 175.406 29.5469C175.062 31.2656 173.516 31.9531 170.766 31.6094C165.266 30.9219 159.938 30.9219 154.781 31.6094V37.7969C182.625 37.1094 210.125 37.1094 237.281 37.7969V31.6094C231.438 30.9219 225.422 30.9219 219.234 31.6094C217.172 31.6094 215.797 30.9219 215.109 29.5469C215.109 28.1719 215.625 27.3125 216.656 26.9688C223.875 26.9688 230.75 26.9688 237.281 26.9688V21.2969C231.781 20.6094 226.109 20.6094 220.266 21.2969C217.516 21.6406 216.141 20.9531 216.141 19.2344C215.797 17.8594 216.312 17.1719 217.688 17.1719C224.906 16.4844 231.438 16.4844 237.281 17.1719V14.5938ZM193.969 57.9062C195 58.9375 196.031 59.7969 197.062 60.4844C204.969 59.4531 211.844 57.9062 217.688 55.8438C218.719 55.1562 219.234 54.4688 219.234 53.7812C218.891 53.4375 218.031 53.0938 216.656 52.75C193.281 51.375 175.75 51.8906 164.062 54.2969C163.031 54.6406 162.344 54.6406 162 54.2969C161.656 53.9531 161.656 53.2656 162 52.2344C162.688 50.5156 164.062 49.3125 166.125 48.625C183.312 47.5938 200.672 47.5938 218.203 48.625C221.984 48.9688 224.219 50.3438 224.906 52.75C225.25 55.8438 223.875 58.0781 220.781 59.4531C214.594 61.8594 207.547 63.5781 199.641 64.6094C200.672 65.9844 201.359 67.1875 201.703 68.2188C220.266 68.9062 238.312 69.5938 255.844 70.2812C257.562 70.625 257.906 71.6562 256.875 73.375C255.844 76.125 253.609 77.1562 250.172 76.4688C234.016 74.4062 218.547 73.2031 203.766 72.8594C204.109 74.9219 204.281 77.1562 204.281 79.5625C204.625 89.5312 199.641 94.3438 189.328 94C180.734 94 173.172 92.9688 166.641 90.9062C165.266 90.2188 164.75 88.8438 165.094 86.7812C165.094 85.75 165.953 85.4062 167.672 85.75C175.922 88.8438 182.969 90.3906 188.812 90.3906C196.375 90.3906 199.984 86.7812 199.641 79.5625C199.641 77.1562 199.297 74.9219 198.609 72.8594H197.062C170.25 72.8594 150.484 73.8906 137.766 75.9531C136.047 75.9531 135.188 75.2656 135.188 73.8906C135.875 71.4844 137.25 70.1094 139.312 69.7656C154.781 68.7344 173.688 68.2188 196.031 68.2188H196.547C195.172 65.4688 193.109 62.8906 190.359 60.4844C188.984 59.4531 188.984 58.4219 190.359 57.3906C192.078 56.7031 193.281 56.875 193.969 57.9062ZM208.922 32.125C210.297 32.8125 210.641 33.8438 209.953 35.2188C208.922 36.25 207.719 36.25 206.344 35.2188C205.312 34.5312 203.766 33.5 201.703 32.125C199.297 31.0938 197.578 30.2344 196.547 29.5469C192.422 31.6094 188.469 33.3281 184.688 34.7031C182.281 35.7344 180.734 35.5625 180.047 34.1875C179.359 33.8438 179.016 33.3281 179.016 32.6406C179.016 32.2969 179.359 32.125 180.047 32.125C180.734 31.7812 181.938 31.2656 183.656 30.5781C187.438 29.5469 190.188 28.5156 191.906 27.4844C189.156 26.4531 186.234 25.25 183.141 23.875C181.422 23.1875 181.078 22.3281 182.109 21.2969C182.797 20.2656 184.172 20.0937 186.234 20.7812C186.922 21.125 188.125 21.6406 189.844 22.3281C192.594 23.7031 194.828 24.7344 196.547 25.4219C199.297 23.7031 201.703 22.1562 203.766 20.7812C205.484 19.75 206.688 19.5781 207.375 20.2656C208.75 20.9531 208.75 21.9844 207.375 23.3594C206.688 23.7031 205.656 24.3906 204.281 25.4219C202.562 26.1094 201.359 26.7969 200.672 27.4844C203.766 28.8594 206.516 30.4062 208.922 32.125ZM208.922 15.1094C210.297 15.7969 210.641 16.8281 209.953 18.2031C209.266 19.2344 208.234 19.2344 206.859 18.2031C204.109 16.4844 200.844 14.9375 197.062 13.5625C193.625 14.9375 189.844 16.4844 185.719 18.2031C183.312 19.2344 181.594 19.2344 180.562 18.2031C179.531 17.1719 179.703 16.3125 181.078 15.625C183.141 14.9375 186.234 13.9062 190.359 12.5312C191.391 12.1875 192.25 11.8437 192.938 11.5C191.906 11.1563 190.531 10.4688 188.812 9.4375C186.75 8.75 185.203 8.23437 184.172 7.89062C182.453 7.54688 182.109 6.6875 183.141 5.3125C183.828 4.28125 185.031 4.10937 186.75 4.79688C190.531 6.17187 194.141 7.71875 197.578 9.4375C198.953 8.75 200.672 7.71875 202.734 6.34375C204.109 5.3125 205.141 4.625 205.828 4.28125C206.859 3.25 207.891 3.25 208.922 4.28125C209.609 5.3125 209.438 6.17187 208.406 6.85938C206.344 8.57813 204.109 9.95312 201.703 10.9844C202.391 11.3281 203.422 11.8437 204.797 12.5312C206.859 13.5625 208.234 14.4219 208.922 15.1094Z" fill="url(#paint0_linear_3527_3)"/>
<defs>
<linearGradient id="paint0_linear_3527_3" x1="132.542" y1="106.025" x2="132.542" y2="-22" gradientUnits="userSpaceOnUse">
<stop stop-color="#A8EDEA"/>
<stop offset="0.6662" stop-color="#E5DDE5"/>
<stop offset="1" stop-color="#FED6E3"/>
</linearGradient>
</defs>
</svg>
