<svg width="127" height="95" viewBox="0 0 127 95" fill="none" xmlns="http://www.w3.org/2000/svg">
<path opacity="1" d="M-77.7656 65.6406C-78.1094 63.5781 -78.1094 60.8281 -77.7656 57.3906C-77.7656 54.9844 -77.7656 53.2656 -77.7656 52.2344C-77.4219 48.4531 -75.7031 46.7344 -72.6094 47.0781C-58.5156 46.0469 -43.0469 46.0469 -26.2031 47.0781C-23.1094 47.0781 -21.3906 48.7969 -21.0469 52.2344C-21.0469 56.7031 -21.0469 61 -21.0469 65.125C-21.7344 68.9062 -24.1406 70.7969 -28.2656 70.7969C-40.9844 69.7656 -55.0781 69.7656 -70.5469 70.7969C-74.6719 70.4531 -77.0781 68.7344 -77.7656 65.6406ZM-73.125 54.8125V62.5469C-73.4688 65.2969 -72.2656 66.5 -69.5156 66.1562C-55.0781 65.125 -41.6719 65.125 -29.2969 66.1562C-26.8906 66.1562 -25.6875 64.9531 -25.6875 62.5469V53.7812C-25.3438 52.0625 -26.7188 51.2031 -29.8125 51.2031C-42.875 50.1719 -56.2812 50.1719 -70.0312 51.2031C-72.0938 51.2031 -73.125 52.4062 -73.125 54.8125ZM-88.0781 88.3281C-80.8594 87.6406 -72.7812 87.2969 -63.8438 87.2969C-65.9062 84.2031 -68.3125 81.1094 -71.0625 78.0156C-72.4375 76.6406 -72.6094 75.4375 -71.5781 74.4062C-69.8594 73.375 -68.6562 73.375 -67.9688 74.4062C-64.875 77.5 -61.6094 81.625 -58.1719 86.7812C-58.1719 86.7812 -58.1719 86.9531 -58.1719 87.2969H-41.6719C-41.3281 86.9531 -41.1562 86.7812 -41.1562 86.7812C-40.4688 85.75 -39.4375 84.5469 -38.0625 83.1719C-35.3125 79.7344 -33.4219 76.9844 -32.3906 74.9219C-31.7031 73.2031 -30.5 72.8594 -28.7812 73.8906C-27.4062 74.5781 -27.2344 75.7812 -28.2656 77.5C-31.0156 81.2812 -33.4219 84.5469 -35.4844 87.2969C-25.8594 87.2969 -17.4375 87.6406 -10.2188 88.3281C-8.84375 88.3281 -8.15625 88.8438 -8.15625 89.875C-8.84375 92.625 -10.2188 93.6562 -12.2812 92.9688C-24.3125 91.9375 -38.5781 91.4219 -55.0781 91.4219C-70.8906 91.7656 -82.4062 92.4531 -89.625 93.4844C-91.3438 93.8281 -92.2031 93.1406 -92.2031 91.4219C-91.5156 89.0156 -90.1406 87.9844 -88.0781 88.3281ZM-106.125 3.25C-105.438 31.4375 -106.469 51.2031 -109.219 62.5469C-111.281 74.2344 -116.266 83.6875 -124.172 90.9062C-125.891 92.2812 -127.953 92.2812 -130.359 90.9062C-131.391 90.2188 -131.391 89.3594 -130.359 88.3281C-121.422 80.7656 -115.922 71.8281 -113.859 61.5156C-111.109 51.2031 -110.078 31.7812 -110.766 3.25C-110.766 1.875 -109.906 1.01562 -108.188 0.671875C-106.812 1.01562 -106.125 1.875 -106.125 3.25ZM-45.2812 9.4375C-44.5938 9.78125 -44.25 10.2969 -44.25 10.9844C-43.9062 10.9844 -43.7344 10.9844 -43.7344 10.9844C-39.2656 8.23437 -34.9688 5.14062 -30.8438 1.70312C-29.8125 0.671875 -28.7812 0.84375 -27.75 2.21875C-26.7188 3.59375 -26.8906 4.79688 -28.2656 5.82812C-32.0469 8.92188 -36.3438 11.8437 -41.1562 14.5938C-38.4062 17 -35.8281 19.75 -33.4219 22.8438C-29.9844 20.4375 -26.375 17.8594 -22.5938 15.1094C-21.5625 14.4219 -20.875 13.9062 -20.5312 13.5625C-19.1562 12.5312 -17.9531 12.5312 -16.9219 13.5625C-15.8906 14.9375 -16.4062 16.3125 -18.4688 17.6875C-18.4688 17.6875 -18.6406 17.8594 -18.9844 18.2031C-21.7344 20.6094 -25.3438 23.1875 -29.8125 25.9375C-23.625 31.4375 -16.5781 36.5938 -8.67188 41.4062C-7.64062 42.4375 -7.46875 43.125 -8.15625 43.4688C-10.2188 46.2188 -12.4531 46.5625 -14.8594 44.5C-25.8594 36.5938 -36.8594 26.2812 -47.8594 13.5625C-49.5781 11.5 -49.9219 10.125 -48.8906 9.4375C-47.5156 8.40625 -46.3125 8.40625 -45.2812 9.4375ZM-82.9219 20.7812C-84.2969 20.4375 -84.6406 19.4063 -83.9531 17.6875C-83.6094 16.3125 -82.4062 16.1406 -80.3438 17.1719C-75.1875 19.9219 -71.4062 22.1562 -69 23.875L-68.4844 24.3906C-68.1406 24.0469 -67.7969 23.5313 -67.4531 22.8438C-65.7344 21.125 -63.8438 18.7188 -61.7812 15.625C-60.0625 13.5625 -60.0625 12.1875 -61.7812 11.5C-64.5312 9.78125 -68.1406 8.0625 -72.6094 6.34375C-73.9844 5.65625 -74.3281 4.625 -73.6406 3.25C-72.9531 1.875 -71.75 1.53125 -70.0312 2.21875C-66.9375 3.59375 -63.5 5.3125 -59.7188 7.375C-58.6875 7.71875 -58 8.0625 -57.6562 8.40625C-54.5625 10.8125 -54.3906 13.7344 -57.1406 17.1719C-65.0469 28.1719 -73.8125 37.1094 -83.4375 43.9844C-85.8438 46.0469 -88.25 46.0469 -90.6562 43.9844C-92.0312 42.9531 -92.0312 42.0938 -90.6562 41.4062C-83.4375 37.625 -77.25 33.1562 -72.0938 28C-73.8125 26.625 -76.5625 24.7344 -80.3438 22.3281C-81.375 21.6406 -82.2344 21.125 -82.9219 20.7812ZM-71.0625 37.7969C-70.7188 35.7344 -69.6875 34.5312 -67.9688 34.1875C-55.25 33.5 -43.2188 33.5 -31.875 34.1875C-31.875 34.1875 -31.7031 34.1875 -31.3594 34.1875C-30.3281 34.5312 -29.8125 35.0469 -29.8125 35.7344C-30.5 38.1406 -31.7031 39.3438 -33.4219 39.3438C-45.7969 37.625 -57.8281 37.625 -69.5156 39.3438C-70.2031 39.6875 -70.7188 39.6875 -71.0625 39.3438C-71.4062 39 -71.4062 38.4844 -71.0625 37.7969ZM-103.547 59.4531C-104.234 58.0781 -104.062 56.875 -103.031 55.8438C-101.656 54.8125 -100.625 54.9844 -99.9375 56.3594C-95.4688 64.9531 -90.8281 71.3125 -86.0156 75.4375C-84.6406 76.4688 -85.1562 77.3281 -87.5625 78.0156C-89.9688 79.0469 -91.6875 78.7031 -92.7188 76.9844C-96.8438 71.4844 -100.453 65.6406 -103.547 59.4531ZM-95.2969 38.8281C-96.3281 40.2031 -97.875 40.375 -99.9375 39.3438C-100.969 38.6562 -100.969 37.625 -99.9375 36.25C-96.8438 33.1562 -93.5781 28.1719 -90.1406 21.2969C-89.4531 19.9219 -88.4219 19.75 -87.0469 20.7812C-85.6719 21.4688 -85.5 22.8438 -86.5312 24.9062C-90.6562 31.7812 -93.5781 36.4219 -95.2969 38.8281ZM-123.141 43.9844C-123.484 46.3906 -124.859 47.5938 -127.266 47.5938C-128.641 47.9375 -128.812 46.3906 -127.781 42.9531C-125.719 38.1406 -124.516 33.5 -124.172 29.0312C-123.828 26.625 -122.797 25.5938 -121.078 25.9375C-119.703 25.5938 -119.359 27.3125 -120.047 31.0938C-120.391 35.2188 -121.422 39.5156 -123.141 43.9844ZM105.281 14.5938C104.938 12.5312 103.906 11.3281 102.188 10.9844C96.3438 10.2969 91.0156 10.4688 86.2031 11.5C84.8281 11.5 83.7969 10.8125 83.1094 9.4375C82.7656 8.0625 83.2812 7.375 84.6562 7.375C91.875 6.6875 98.4062 6.6875 104.25 7.375C107.688 7.375 109.406 9.09375 109.406 12.5312V37.7969C110.781 37.7969 112.156 37.7969 113.531 37.7969C117.656 37.7969 119.719 39.3438 119.719 42.4375C120.406 46.2188 120.406 50 119.719 53.7812C119.719 55.5 119.031 56.3594 117.656 56.3594C115.938 56.0156 115.078 55.1562 115.078 53.7812C115.766 50.6875 115.766 47.7656 115.078 45.0156C115.422 42.9531 114.047 42.0938 110.953 42.4375C73.1406 41.0625 41.6875 41.0625 16.5938 42.4375C14.1875 42.4375 12.8125 43.6406 12.4688 46.0469C12.4688 48.4531 12.4688 51.0312 12.4688 53.7812C12.4688 55.1562 11.7812 55.8438 10.4062 55.8438C9.03125 55.8438 8.34375 55.1562 8.34375 53.7812C8.34375 50.3438 8.34375 47.0781 8.34375 43.9844C8.34375 40.2031 10.2344 38.1406 14.0156 37.7969C15.7344 37.7969 17.2812 37.7969 18.6562 37.7969V12.5312C19 10.125 20.375 8.40625 22.7812 7.375C28.9688 6.6875 34.9844 5.82812 40.8281 4.79688C42.8906 4.10937 44.0938 4.28125 44.4375 5.3125C45.4688 7.03125 44.9531 8.23437 42.8906 8.92188C40.1406 9.60938 34.4688 10.2969 25.875 10.9844C25.875 10.9844 25.7031 10.9844 25.3594 10.9844C23.6406 11.6719 22.7812 12.7031 22.7812 14.0781V17.1719C25.5312 16.8281 29.3125 16.8281 34.125 17.1719C37.2188 17.1719 39.7969 17.1719 41.8594 17.1719C43.5781 17.5156 44.0938 18.2031 43.4062 19.2344C43.0625 20.9531 41.5156 21.6406 38.7656 21.2969C37.0469 21.2969 34.9844 21.2969 32.5781 21.2969C28.7969 20.9531 25.5312 20.9531 22.7812 21.2969V26.9688C29.6562 26.9688 36.0156 27.1406 41.8594 27.4844C43.5781 27.4844 44.0938 28.1719 43.4062 29.5469C43.0625 31.2656 41.5156 31.9531 38.7656 31.6094C33.2656 30.9219 27.9375 30.9219 22.7812 31.6094V37.7969C50.625 37.1094 78.125 37.1094 105.281 37.7969V31.6094C99.4375 30.9219 93.4219 30.9219 87.2344 31.6094C85.1719 31.6094 83.7969 30.9219 83.1094 29.5469C83.1094 28.1719 83.625 27.3125 84.6562 26.9688C91.875 26.9688 98.75 26.9688 105.281 26.9688V21.2969C99.7812 20.6094 94.1094 20.6094 88.2656 21.2969C85.5156 21.6406 84.1406 20.9531 84.1406 19.2344C83.7969 17.8594 84.3125 17.1719 85.6875 17.1719C92.9062 16.4844 99.4375 16.4844 105.281 17.1719V14.5938ZM61.9688 57.9062C63 58.9375 64.0312 59.7969 65.0625 60.4844C72.9688 59.4531 79.8438 57.9062 85.6875 55.8438C86.7188 55.1562 87.2344 54.4688 87.2344 53.7812C86.8906 53.4375 86.0312 53.0938 84.6562 52.75C61.2812 51.375 43.75 51.8906 32.0625 54.2969C31.0312 54.6406 30.3438 54.6406 30 54.2969C29.6562 53.9531 29.6562 53.2656 30 52.2344C30.6875 50.5156 32.0625 49.3125 34.125 48.625C51.3125 47.5938 68.6719 47.5938 86.2031 48.625C89.9844 48.9688 92.2188 50.3438 92.9062 52.75C93.25 55.8438 91.875 58.0781 88.7812 59.4531C82.5938 61.8594 75.5469 63.5781 67.6406 64.6094C68.6719 65.9844 69.3594 67.1875 69.7031 68.2188C88.2656 68.9062 106.312 69.5938 123.844 70.2812C125.562 70.625 125.906 71.6562 124.875 73.375C123.844 76.125 121.609 77.1562 118.172 76.4688C102.016 74.4062 86.5469 73.2031 71.7656 72.8594C72.1094 74.9219 72.2812 77.1562 72.2812 79.5625C72.625 89.5312 67.6406 94.3438 57.3281 94C48.7344 94 41.1719 92.9688 34.6406 90.9062C33.2656 90.2188 32.75 88.8438 33.0938 86.7812C33.0938 85.75 33.9531 85.4062 35.6719 85.75C43.9219 88.8438 50.9688 90.3906 56.8125 90.3906C64.375 90.3906 67.9844 86.7812 67.6406 79.5625C67.6406 77.1562 67.2969 74.9219 66.6094 72.8594H65.0625C38.25 72.8594 18.4844 73.8906 5.76562 75.9531C4.04688 75.9531 3.1875 75.2656 3.1875 73.8906C3.875 71.4844 5.25 70.1094 7.3125 69.7656C22.7812 68.7344 41.6875 68.2188 64.0312 68.2188H64.5469C63.1719 65.4688 61.1094 62.8906 58.3594 60.4844C56.9844 59.4531 56.9844 58.4219 58.3594 57.3906C60.0781 56.7031 61.2812 56.875 61.9688 57.9062ZM76.9219 32.125C78.2969 32.8125 78.6406 33.8438 77.9531 35.2188C76.9219 36.25 75.7188 36.25 74.3438 35.2188C73.3125 34.5312 71.7656 33.5 69.7031 32.125C67.2969 31.0938 65.5781 30.2344 64.5469 29.5469C60.4219 31.6094 56.4688 33.3281 52.6875 34.7031C50.2812 35.7344 48.7344 35.5625 48.0469 34.1875C47.3594 33.8438 47.0156 33.3281 47.0156 32.6406C47.0156 32.2969 47.3594 32.125 48.0469 32.125C48.7344 31.7812 49.9375 31.2656 51.6562 30.5781C55.4375 29.5469 58.1875 28.5156 59.9062 27.4844C57.1562 26.4531 54.2344 25.25 51.1406 23.875C49.4219 23.1875 49.0781 22.3281 50.1094 21.2969C50.7969 20.2656 52.1719 20.0937 54.2344 20.7812C54.9219 21.125 56.125 21.6406 57.8438 22.3281C60.5938 23.7031 62.8281 24.7344 64.5469 25.4219C67.2969 23.7031 69.7031 22.1562 71.7656 20.7812C73.4844 19.75 74.6875 19.5781 75.375 20.2656C76.75 20.9531 76.75 21.9844 75.375 23.3594C74.6875 23.7031 73.6562 24.3906 72.2812 25.4219C70.5625 26.1094 69.3594 26.7969 68.6719 27.4844C71.7656 28.8594 74.5156 30.4062 76.9219 32.125ZM76.9219 15.1094C78.2969 15.7969 78.6406 16.8281 77.9531 18.2031C77.2656 19.2344 76.2344 19.2344 74.8594 18.2031C72.1094 16.4844 68.8438 14.9375 65.0625 13.5625C61.625 14.9375 57.8438 16.4844 53.7188 18.2031C51.3125 19.2344 49.5938 19.2344 48.5625 18.2031C47.5312 17.1719 47.7031 16.3125 49.0781 15.625C51.1406 14.9375 54.2344 13.9062 58.3594 12.5312C59.3906 12.1875 60.25 11.8437 60.9375 11.5C59.9062 11.1563 58.5312 10.4688 56.8125 9.4375C54.75 8.75 53.2031 8.23437 52.1719 7.89062C50.4531 7.54688 50.1094 6.6875 51.1406 5.3125C51.8281 4.28125 53.0312 4.10937 54.75 4.79688C58.5312 6.17187 62.1406 7.71875 65.5781 9.4375C66.9531 8.75 68.6719 7.71875 70.7344 6.34375C72.1094 5.3125 73.1406 4.625 73.8281 4.28125C74.8594 3.25 75.8906 3.25 76.9219 4.28125C77.6094 5.3125 77.4375 6.17187 76.4062 6.85938C74.3438 8.57813 72.1094 9.95312 69.7031 10.9844C70.3906 11.3281 71.4219 11.8437 72.7969 12.5312C74.8594 13.5625 76.2344 14.4219 76.9219 15.1094Z" fill="url(#paint0_linear_3527_115)"/>
<defs>
<linearGradient id="paint0_linear_3527_115" x1="0.542198" y1="106.025" x2="0.542198" y2="-22" gradientUnits="userSpaceOnUse">
<stop stop-color="#A8EDEA"/>
<stop offset="0.6662" stop-color="#E5DDE5"/>
<stop offset="1" stop-color="#FED6E3"/>
</linearGradient>
</defs>
</svg>
