<svg width="127" height="94" viewBox="0 0 127 94" fill="none" xmlns="http://www.w3.org/2000/svg">
<path opacity="1" d="M-77.7656 65.6406C-78.1094 63.5781 -78.1094 60.8281 -77.7656 57.3906C-77.7656 54.9844 -77.7656 53.2656 -77.7656 52.2344C-77.4219 48.4531 -75.7031 46.7344 -72.6094 47.0781C-58.5156 46.0469 -43.0469 46.0469 -26.2031 47.0781C-23.1094 47.0781 -21.3906 48.7969 -21.0469 52.2344C-21.0469 56.7031 -21.0469 61 -21.0469 65.125C-21.7344 68.9062 -24.1406 70.7969 -28.2656 70.7969C-40.9844 69.7656 -55.0781 69.7656 -70.5469 70.7969C-74.6719 70.4531 -77.0781 68.7344 -77.7656 65.6406ZM-73.125 54.8125V62.5469C-73.4688 65.2969 -72.2656 66.5 -69.5156 66.1562C-55.0781 65.125 -41.6719 65.125 -29.2969 66.1562C-26.8906 66.1562 -25.6875 64.9531 -25.6875 62.5469V53.7812C-25.3438 52.0625 -26.7188 51.2031 -29.8125 51.2031C-42.875 50.1719 -56.2812 50.1719 -70.0312 51.2031C-72.0938 51.2031 -73.125 52.4062 -73.125 54.8125ZM-88.0781 88.3281C-80.8594 87.6406 -72.7812 87.2969 -63.8438 87.2969C-65.9062 84.2031 -68.3125 81.1094 -71.0625 78.0156C-72.4375 76.6406 -72.6094 75.4375 -71.5781 74.4062C-69.8594 73.375 -68.6562 73.375 -67.9688 74.4062C-64.875 77.5 -61.6094 81.625 -58.1719 86.7812C-58.1719 86.7812 -58.1719 86.9531 -58.1719 87.2969H-41.6719C-41.3281 86.9531 -41.1562 86.7812 -41.1562 86.7812C-40.4688 85.75 -39.4375 84.5469 -38.0625 83.1719C-35.3125 79.7344 -33.4219 76.9844 -32.3906 74.9219C-31.7031 73.2031 -30.5 72.8594 -28.7812 73.8906C-27.4062 74.5781 -27.2344 75.7812 -28.2656 77.5C-31.0156 81.2812 -33.4219 84.5469 -35.4844 87.2969C-25.8594 87.2969 -17.4375 87.6406 -10.2188 88.3281C-8.84375 88.3281 -8.15625 88.8438 -8.15625 89.875C-8.84375 92.625 -10.2188 93.6562 -12.2812 92.9688C-24.3125 91.9375 -38.5781 91.4219 -55.0781 91.4219C-70.8906 91.7656 -82.4062 92.4531 -89.625 93.4844C-91.3438 93.8281 -92.2031 93.1406 -92.2031 91.4219C-91.5156 89.0156 -90.1406 87.9844 -88.0781 88.3281ZM-106.125 3.25C-105.438 31.4375 -106.469 51.2031 -109.219 62.5469C-111.281 74.2344 -116.266 83.6875 -124.172 90.9062C-125.891 92.2812 -127.953 92.2812 -130.359 90.9062C-131.391 90.2188 -131.391 89.3594 -130.359 88.3281C-121.422 80.7656 -115.922 71.8281 -113.859 61.5156C-111.109 51.2031 -110.078 31.7812 -110.766 3.25C-110.766 1.875 -109.906 1.01562 -108.188 0.671875C-106.812 1.01562 -106.125 1.875 -106.125 3.25ZM-45.2812 9.4375C-44.5938 9.78125 -44.25 10.2969 -44.25 10.9844C-43.9062 10.9844 -43.7344 10.9844 -43.7344 10.9844C-39.2656 8.23437 -34.9688 5.14062 -30.8438 1.70312C-29.8125 0.671875 -28.7812 0.84375 -27.75 2.21875C-26.7188 3.59375 -26.8906 4.79688 -28.2656 5.82812C-32.0469 8.92188 -36.3438 11.8437 -41.1562 14.5938C-38.4062 17 -35.8281 19.75 -33.4219 22.8438C-29.9844 20.4375 -26.375 17.8594 -22.5938 15.1094C-21.5625 14.4219 -20.875 13.9062 -20.5312 13.5625C-19.1562 12.5312 -17.9531 12.5312 -16.9219 13.5625C-15.8906 14.9375 -16.4062 16.3125 -18.4688 17.6875C-18.4688 17.6875 -18.6406 17.8594 -18.9844 18.2031C-21.7344 20.6094 -25.3438 23.1875 -29.8125 25.9375C-23.625 31.4375 -16.5781 36.5938 -8.67188 41.4062C-7.64062 42.4375 -7.46875 43.125 -8.15625 43.4688C-10.2188 46.2188 -12.4531 46.5625 -14.8594 44.5C-25.8594 36.5938 -36.8594 26.2812 -47.8594 13.5625C-49.5781 11.5 -49.9219 10.125 -48.8906 9.4375C-47.5156 8.40625 -46.3125 8.40625 -45.2812 9.4375ZM-82.9219 20.7812C-84.2969 20.4375 -84.6406 19.4063 -83.9531 17.6875C-83.6094 16.3125 -82.4062 16.1406 -80.3438 17.1719C-75.1875 19.9219 -71.4062 22.1562 -69 23.875L-68.4844 24.3906C-68.1406 24.0469 -67.7969 23.5313 -67.4531 22.8438C-65.7344 21.125 -63.8438 18.7188 -61.7812 15.625C-60.0625 13.5625 -60.0625 12.1875 -61.7812 11.5C-64.5312 9.78125 -68.1406 8.0625 -72.6094 6.34375C-73.9844 5.65625 -74.3281 4.625 -73.6406 3.25C-72.9531 1.875 -71.75 1.53125 -70.0312 2.21875C-66.9375 3.59375 -63.5 5.3125 -59.7188 7.375C-58.6875 7.71875 -58 8.0625 -57.6562 8.40625C-54.5625 10.8125 -54.3906 13.7344 -57.1406 17.1719C-65.0469 28.1719 -73.8125 37.1094 -83.4375 43.9844C-85.8438 46.0469 -88.25 46.0469 -90.6562 43.9844C-92.0312 42.9531 -92.0312 42.0938 -90.6562 41.4062C-83.4375 37.625 -77.25 33.1562 -72.0938 28C-73.8125 26.625 -76.5625 24.7344 -80.3438 22.3281C-81.375 21.6406 -82.2344 21.125 -82.9219 20.7812ZM-71.0625 37.7969C-70.7188 35.7344 -69.6875 34.5312 -67.9688 34.1875C-55.25 33.5 -43.2188 33.5 -31.875 34.1875C-31.875 34.1875 -31.7031 34.1875 -31.3594 34.1875C-30.3281 34.5312 -29.8125 35.0469 -29.8125 35.7344C-30.5 38.1406 -31.7031 39.3438 -33.4219 39.3438C-45.7969 37.625 -57.8281 37.625 -69.5156 39.3438C-70.2031 39.6875 -70.7188 39.6875 -71.0625 39.3438C-71.4062 39 -71.4062 38.4844 -71.0625 37.7969ZM-103.547 59.4531C-104.234 58.0781 -104.062 56.875 -103.031 55.8438C-101.656 54.8125 -100.625 54.9844 -99.9375 56.3594C-95.4688 64.9531 -90.8281 71.3125 -86.0156 75.4375C-84.6406 76.4688 -85.1562 77.3281 -87.5625 78.0156C-89.9688 79.0469 -91.6875 78.7031 -92.7188 76.9844C-96.8438 71.4844 -100.453 65.6406 -103.547 59.4531ZM-95.2969 38.8281C-96.3281 40.2031 -97.875 40.375 -99.9375 39.3438C-100.969 38.6562 -100.969 37.625 -99.9375 36.25C-96.8438 33.1562 -93.5781 28.1719 -90.1406 21.2969C-89.4531 19.9219 -88.4219 19.75 -87.0469 20.7812C-85.6719 21.4688 -85.5 22.8438 -86.5312 24.9062C-90.6562 31.7812 -93.5781 36.4219 -95.2969 38.8281ZM-123.141 43.9844C-123.484 46.3906 -124.859 47.5938 -127.266 47.5938C-128.641 47.9375 -128.812 46.3906 -127.781 42.9531C-125.719 38.1406 -124.516 33.5 -124.172 29.0312C-123.828 26.625 -122.797 25.5938 -121.078 25.9375C-119.703 25.5938 -119.359 27.3125 -120.047 31.0938C-120.391 35.2188 -121.422 39.5156 -123.141 43.9844ZM21.2344 49.1406C20.8906 38.8281 20.8906 30.75 21.2344 24.9062C21.5781 20.7812 24.1562 18.7188 28.9688 18.7188C32.4062 18.375 37.9062 18.2031 45.4688 18.2031C53.0312 17.8594 58.7031 17.6875 62.4844 17.6875C62.4844 13.9062 62.3125 9.95312 61.9688 5.82812C61.9688 4.10937 62.8281 3.25 64.5469 3.25C66.6094 3.25 67.4688 4.10937 67.125 5.82812V17.6875C77.4375 17.6875 88.7812 18.0312 101.156 18.7188C105.281 18.7188 107.344 20.6094 107.344 24.3906C108.375 32.2969 108.375 40.375 107.344 48.625C107 51.7188 104.25 53.2656 99.0938 53.2656C86.0312 52.5781 74.8594 52.2344 65.5781 52.2344C65.2344 55.6719 64.7188 58.7656 64.0312 61.5156C62.6562 65.6406 60.4219 69.7656 57.3281 73.8906C77.9531 81.4531 99.9531 85.75 123.328 86.7812C123.328 86.7812 123.5 86.7812 123.844 86.7812C125.562 87.125 125.906 87.9844 124.875 89.3594C124.188 92.1094 121.781 93.4844 117.656 93.4844C94.625 90.7344 73.3125 85.4062 53.7188 77.5C45.125 85.75 31.5469 90.7344 12.9844 92.4531C8.85938 93.1406 6.45312 91.9375 5.76562 88.8438C5.42188 87.8125 5.25 87.125 5.25 86.7812C5.59375 86.4375 6.28125 86.2656 7.3125 86.2656C25.5312 86.6094 39.2812 83 48.5625 75.4375C40.6562 71.3125 32.5781 67.0156 24.3281 62.5469C23.2969 61.8594 23.125 60.8281 23.8125 59.4531C24.5 58.0781 25.5312 57.7344 26.9062 58.4219C35.1562 63.5781 43.75 67.875 52.6875 71.3125C54.75 68.5625 56.6406 65.125 58.3594 61C59.3906 58.9375 60.0781 56.0156 60.4219 52.2344C49.0781 52.2344 38.4219 52.5781 28.4531 53.2656C23.6406 53.6094 21.2344 52.2344 21.2344 49.1406ZM26.3906 28C26.0469 33.1562 26.0469 38.3125 26.3906 43.4688C26.3906 47.25 28.2812 48.7969 32.0625 48.1094C34.4688 48.1094 38.4219 48.1094 43.9219 48.1094C51.4844 47.7656 57.1562 47.5938 60.9375 47.5938C61.9688 41.0625 62.4844 32.6406 62.4844 22.3281C52.8594 22.3281 42.5469 22.6719 31.5469 23.3594C28.1094 23.3594 26.3906 24.9062 26.3906 28ZM67.125 22.3281C67.125 32.6406 66.7812 41.0625 66.0938 47.5938C70.2188 47.5938 76.2344 47.7656 84.1406 48.1094C90.6719 48.1094 95.3125 48.1094 98.0625 48.1094C100.812 48.4531 102.359 46.3906 102.703 41.9219C103.391 37.1094 103.391 32.2969 102.703 27.4844C102.016 24.3906 100.125 23.0156 97.0312 23.3594C85.3438 22.6719 75.375 22.3281 67.125 22.3281Z" fill="url(#paint0_linear_3527_58)"/>
<defs>
<linearGradient id="paint0_linear_3527_58" x1="0.542198" y1="106.025" x2="0.542198" y2="-22" gradientUnits="userSpaceOnUse">
<stop stop-color="#A8EDEA"/>
<stop offset="0.6662" stop-color="#E5DDE5"/>
<stop offset="1" stop-color="#FED6E3"/>
</linearGradient>
</defs>
</svg>
