<svg width="127" height="95" viewBox="0 0 127 95" fill="none" xmlns="http://www.w3.org/2000/svg">
<path opacity="1" d="M-77.7656 65.6406C-78.1094 63.5781 -78.1094 60.8281 -77.7656 57.3906C-77.7656 54.9844 -77.7656 53.2656 -77.7656 52.2344C-77.4219 48.4531 -75.7031 46.7344 -72.6094 47.0781C-58.5156 46.0469 -43.0469 46.0469 -26.2031 47.0781C-23.1094 47.0781 -21.3906 48.7969 -21.0469 52.2344C-21.0469 56.7031 -21.0469 61 -21.0469 65.125C-21.7344 68.9062 -24.1406 70.7969 -28.2656 70.7969C-40.9844 69.7656 -55.0781 69.7656 -70.5469 70.7969C-74.6719 70.4531 -77.0781 68.7344 -77.7656 65.6406ZM-73.125 54.8125V62.5469C-73.4688 65.2969 -72.2656 66.5 -69.5156 66.1562C-55.0781 65.125 -41.6719 65.125 -29.2969 66.1562C-26.8906 66.1562 -25.6875 64.9531 -25.6875 62.5469V53.7812C-25.3438 52.0625 -26.7188 51.2031 -29.8125 51.2031C-42.875 50.1719 -56.2812 50.1719 -70.0312 51.2031C-72.0938 51.2031 -73.125 52.4062 -73.125 54.8125ZM-88.0781 88.3281C-80.8594 87.6406 -72.7812 87.2969 -63.8438 87.2969C-65.9062 84.2031 -68.3125 81.1094 -71.0625 78.0156C-72.4375 76.6406 -72.6094 75.4375 -71.5781 74.4062C-69.8594 73.375 -68.6562 73.375 -67.9688 74.4062C-64.875 77.5 -61.6094 81.625 -58.1719 86.7812C-58.1719 86.7812 -58.1719 86.9531 -58.1719 87.2969H-41.6719C-41.3281 86.9531 -41.1562 86.7812 -41.1562 86.7812C-40.4688 85.75 -39.4375 84.5469 -38.0625 83.1719C-35.3125 79.7344 -33.4219 76.9844 -32.3906 74.9219C-31.7031 73.2031 -30.5 72.8594 -28.7812 73.8906C-27.4062 74.5781 -27.2344 75.7812 -28.2656 77.5C-31.0156 81.2812 -33.4219 84.5469 -35.4844 87.2969C-25.8594 87.2969 -17.4375 87.6406 -10.2188 88.3281C-8.84375 88.3281 -8.15625 88.8438 -8.15625 89.875C-8.84375 92.625 -10.2188 93.6562 -12.2812 92.9688C-24.3125 91.9375 -38.5781 91.4219 -55.0781 91.4219C-70.8906 91.7656 -82.4062 92.4531 -89.625 93.4844C-91.3438 93.8281 -92.2031 93.1406 -92.2031 91.4219C-91.5156 89.0156 -90.1406 87.9844 -88.0781 88.3281ZM-106.125 3.25C-105.438 31.4375 -106.469 51.2031 -109.219 62.5469C-111.281 74.2344 -116.266 83.6875 -124.172 90.9062C-125.891 92.2812 -127.953 92.2812 -130.359 90.9062C-131.391 90.2188 -131.391 89.3594 -130.359 88.3281C-121.422 80.7656 -115.922 71.8281 -113.859 61.5156C-111.109 51.2031 -110.078 31.7812 -110.766 3.25C-110.766 1.875 -109.906 1.01562 -108.188 0.671875C-106.812 1.01562 -106.125 1.875 -106.125 3.25ZM-45.2812 9.4375C-44.5938 9.78125 -44.25 10.2969 -44.25 10.9844C-43.9062 10.9844 -43.7344 10.9844 -43.7344 10.9844C-39.2656 8.23437 -34.9688 5.14062 -30.8438 1.70312C-29.8125 0.671875 -28.7812 0.84375 -27.75 2.21875C-26.7188 3.59375 -26.8906 4.79688 -28.2656 5.82812C-32.0469 8.92188 -36.3438 11.8437 -41.1562 14.5938C-38.4062 17 -35.8281 19.75 -33.4219 22.8438C-29.9844 20.4375 -26.375 17.8594 -22.5938 15.1094C-21.5625 14.4219 -20.875 13.9062 -20.5312 13.5625C-19.1562 12.5312 -17.9531 12.5312 -16.9219 13.5625C-15.8906 14.9375 -16.4062 16.3125 -18.4688 17.6875C-18.4688 17.6875 -18.6406 17.8594 -18.9844 18.2031C-21.7344 20.6094 -25.3438 23.1875 -29.8125 25.9375C-23.625 31.4375 -16.5781 36.5938 -8.67188 41.4062C-7.64062 42.4375 -7.46875 43.125 -8.15625 43.4688C-10.2188 46.2188 -12.4531 46.5625 -14.8594 44.5C-25.8594 36.5938 -36.8594 26.2812 -47.8594 13.5625C-49.5781 11.5 -49.9219 10.125 -48.8906 9.4375C-47.5156 8.40625 -46.3125 8.40625 -45.2812 9.4375ZM-82.9219 20.7812C-84.2969 20.4375 -84.6406 19.4063 -83.9531 17.6875C-83.6094 16.3125 -82.4062 16.1406 -80.3438 17.1719C-75.1875 19.9219 -71.4062 22.1562 -69 23.875L-68.4844 24.3906C-68.1406 24.0469 -67.7969 23.5313 -67.4531 22.8438C-65.7344 21.125 -63.8438 18.7188 -61.7812 15.625C-60.0625 13.5625 -60.0625 12.1875 -61.7812 11.5C-64.5312 9.78125 -68.1406 8.0625 -72.6094 6.34375C-73.9844 5.65625 -74.3281 4.625 -73.6406 3.25C-72.9531 1.875 -71.75 1.53125 -70.0312 2.21875C-66.9375 3.59375 -63.5 5.3125 -59.7188 7.375C-58.6875 7.71875 -58 8.0625 -57.6562 8.40625C-54.5625 10.8125 -54.3906 13.7344 -57.1406 17.1719C-65.0469 28.1719 -73.8125 37.1094 -83.4375 43.9844C-85.8438 46.0469 -88.25 46.0469 -90.6562 43.9844C-92.0312 42.9531 -92.0312 42.0938 -90.6562 41.4062C-83.4375 37.625 -77.25 33.1562 -72.0938 28C-73.8125 26.625 -76.5625 24.7344 -80.3438 22.3281C-81.375 21.6406 -82.2344 21.125 -82.9219 20.7812ZM-71.0625 37.7969C-70.7188 35.7344 -69.6875 34.5312 -67.9688 34.1875C-55.25 33.5 -43.2188 33.5 -31.875 34.1875C-31.875 34.1875 -31.7031 34.1875 -31.3594 34.1875C-30.3281 34.5312 -29.8125 35.0469 -29.8125 35.7344C-30.5 38.1406 -31.7031 39.3438 -33.4219 39.3438C-45.7969 37.625 -57.8281 37.625 -69.5156 39.3438C-70.2031 39.6875 -70.7188 39.6875 -71.0625 39.3438C-71.4062 39 -71.4062 38.4844 -71.0625 37.7969ZM-103.547 59.4531C-104.234 58.0781 -104.062 56.875 -103.031 55.8438C-101.656 54.8125 -100.625 54.9844 -99.9375 56.3594C-95.4688 64.9531 -90.8281 71.3125 -86.0156 75.4375C-84.6406 76.4688 -85.1562 77.3281 -87.5625 78.0156C-89.9688 79.0469 -91.6875 78.7031 -92.7188 76.9844C-96.8438 71.4844 -100.453 65.6406 -103.547 59.4531ZM-95.2969 38.8281C-96.3281 40.2031 -97.875 40.375 -99.9375 39.3438C-100.969 38.6562 -100.969 37.625 -99.9375 36.25C-96.8438 33.1562 -93.5781 28.1719 -90.1406 21.2969C-89.4531 19.9219 -88.4219 19.75 -87.0469 20.7812C-85.6719 21.4688 -85.5 22.8438 -86.5312 24.9062C-90.6562 31.7812 -93.5781 36.4219 -95.2969 38.8281ZM-123.141 43.9844C-123.484 46.3906 -124.859 47.5938 -127.266 47.5938C-128.641 47.9375 -128.812 46.3906 -127.781 42.9531C-125.719 38.1406 -124.516 33.5 -124.172 29.0312C-123.828 26.625 -122.797 25.5938 -121.078 25.9375C-119.703 25.5938 -119.359 27.3125 -120.047 31.0938C-120.391 35.2188 -121.422 39.5156 -123.141 43.9844ZM53.2031 39.3438C66.9531 38.6562 78.2969 38.3125 87.2344 38.3125C92.3906 38.3125 98.75 38.3125 106.312 38.3125L107.344 26.4531C90.5 25.7656 75.0312 25.9375 60.9375 26.9688C59.5625 26.9688 59.0469 26.2812 59.3906 24.9062C60.0781 22.8438 61.4531 21.9844 63.5156 22.3281C77.2656 21.2969 92.0469 21.125 107.859 21.8125L108.375 13.5625C108.719 11.1563 107.859 9.95312 105.797 9.95312C87.5781 9.26562 71.5938 9.60938 57.8438 10.9844C56.125 10.9844 55.4375 10.4688 55.7812 9.4375C56.4688 7.375 57.6719 6.34375 59.3906 6.34375C75.5469 4.96875 92.0469 4.79688 108.891 5.82812C112.328 6.51563 113.875 8.23437 113.531 10.9844L111.469 38.3125C113.188 38.3125 115.594 38.4844 118.688 38.8281C121.781 38.8281 124.016 39 125.391 39.3438C126.078 39.3438 126.422 39.5156 126.422 39.8594C126.766 40.2031 126.766 40.5469 126.422 40.8906C125.734 43.2969 124.359 44.5 122.297 44.5C110.953 43.4688 99.6094 42.9531 88.2656 42.9531V92.4531C88.2656 93.8281 87.4062 94.5156 85.6875 94.5156C83.9688 94.5156 83.1094 93.8281 83.1094 92.4531V42.9531C69.3594 42.9531 58.3594 43.6406 50.1094 45.0156C49.0781 45.0156 48.5625 44.3281 48.5625 42.9531C48.9062 40.8906 50.4531 39.6875 53.2031 39.3438ZM9.89062 48.625C14.7031 48.2812 19.6875 48.1094 24.8438 48.1094V35.2188C23.125 35.2188 20.7188 35.3906 17.625 35.7344C14.875 35.7344 12.9844 35.7344 11.9531 35.7344C10.9219 36.0781 10.4062 36.0781 10.4062 35.7344C10.0625 35.7344 10.0625 35.2188 10.4062 34.1875C10.4062 32.4688 11.2656 31.6094 12.9844 31.6094C22.9531 30.5781 32.75 30.5781 42.375 31.6094C43.75 31.6094 44.4375 32.125 44.4375 33.1562C44.0938 35.5625 42.7188 36.4219 40.3125 35.7344C39.2812 35.7344 37.5625 35.7344 35.1562 35.7344C32.75 35.3906 30.8594 35.2188 29.4844 35.2188V48.1094C34.9844 48.1094 40.3125 48.2812 45.4688 48.625C47.875 48.625 48.9062 49.3125 48.5625 50.6875C48.2188 52.4062 47.0156 53.2656 44.9531 53.2656C40.4844 52.9219 35.3281 52.75 29.4844 52.75V78.0156C31.5469 77.6719 34.4688 77.1562 38.25 76.4688C42.375 75.7812 45.2969 75.2656 47.0156 74.9219C48.3906 74.9219 49.0781 75.4375 49.0781 76.4688C48.7344 78.875 47.3594 80.25 44.9531 80.5938C41.5156 80.5938 35.1562 81.4531 25.875 83.1719C18.6562 84.5469 12.2969 86.2656 6.79688 88.3281C5.07812 88.6719 4.21875 88.1562 4.21875 86.7812C3.875 84.375 4.73438 82.8281 6.79688 82.1406C11.9531 81.1094 17.9688 80.0781 24.8438 79.0469V52.75C18.3125 52.75 12.6406 52.9219 7.82812 53.2656C7.14062 53.6094 6.625 53.6094 6.28125 53.2656C5.9375 52.9219 5.9375 52.4062 6.28125 51.7188C6.625 49.6562 7.82812 48.625 9.89062 48.625ZM26.9062 4.79688C27.9375 3.42188 29.1406 3.07812 30.5156 3.76562C31.8906 4.79688 32.0625 6.17187 31.0312 7.89062C31.0312 7.89062 30.8594 8.0625 30.5156 8.40625C30.5156 8.75 30.3438 9.09375 30 9.4375C35.8438 15.2813 42.2031 20.0937 49.0781 23.875C50.1094 24.5625 50.1094 25.4219 49.0781 26.4531C47.3594 28.5156 45.6406 28.6875 43.9219 26.9688C40.4844 24.9062 34.9844 20.4375 27.4219 13.5625C20.2031 22.5 13.1562 29.5469 6.28125 34.7031C4.21875 35.7344 2.15625 35.5625 0.09375 34.1875C-0.9375 32.8125 -0.765625 31.6094 0.609375 30.5781C11.6094 24.7344 20.375 16.1406 26.9062 4.79688ZM124.359 83.6875C125.734 84.375 125.906 85.2344 124.875 86.2656C122.812 89.0156 120.578 89.5312 118.172 87.8125C111.641 85.0625 103.562 80.4219 93.9375 73.8906C92.2188 72.8594 91.875 71.4844 92.9062 69.7656C93.9375 68.7344 94.9688 68.5625 96 69.25C105.969 76.125 115.422 80.9375 124.359 83.6875ZM49.5938 82.6562C51.6562 81.625 55.7812 79.5625 61.9688 76.4688C68.8438 73.0312 73.4844 70.7969 75.8906 69.7656C76.5781 69.4219 77.0938 69.25 77.4375 69.25C77.7812 69.5938 77.9531 70.1094 77.9531 70.7969C78.6406 72.8594 77.9531 74.2344 75.8906 74.9219C64.2031 81.1094 55.6094 85.9219 50.1094 89.3594C49.4219 90.0469 48.7344 90.2188 48.0469 89.875C47.7031 89.5312 47.5312 88.6719 47.5312 87.2969C47.5312 85.5781 48.2188 84.0312 49.5938 82.6562ZM71.7656 64.0938C65.5781 60.6562 60.25 58.0781 55.7812 56.3594C54.0625 55.6719 53.5469 54.6406 54.2344 53.2656C55.2656 51.5469 56.2969 51.0312 57.3281 51.7188C61.1094 53.0938 66.7812 55.6719 74.3438 59.4531C75.7188 60.4844 76.0625 61.8594 75.375 63.5781C74.3438 64.9531 73.1406 65.125 71.7656 64.0938ZM99.6094 63.5781C98.2344 63.9219 97.0312 63.4062 96 62.0312C95.3125 61 95.6562 60.1406 97.0312 59.4531C100.469 58.0781 104.938 56.0156 110.438 53.2656C112.156 52.2344 113.359 51.5469 114.047 51.2031C115.766 50.1719 116.797 50.5156 117.141 52.2344C118.172 53.2656 117.656 54.4688 115.594 55.8438C109.75 59.2812 104.422 61.8594 99.6094 63.5781ZM8.85938 63.5781C7.82812 62.5469 8 61.5156 9.375 60.4844C10.75 59.7969 11.7812 59.9688 12.4688 61C15.5625 64.4375 17.9688 67.7031 19.6875 70.7969C20.375 72.1719 20.0312 73.375 18.6562 74.4062C17.2812 75.0938 16.25 74.75 15.5625 73.375C14.875 72 13.3281 69.5938 10.9219 66.1562C9.89062 65.125 9.20312 64.2656 8.85938 63.5781ZM41.3438 59.4531C42.0312 58.4219 43.0625 58.25 44.4375 58.9375C45.8125 59.625 46.1562 60.6562 45.4688 62.0312C42.375 66.5 39.7969 69.5938 37.7344 71.3125C36.7031 72.3438 35.5 72.5156 34.125 71.8281C33.0938 70.7969 33.0938 69.7656 34.125 68.7344C36.875 65.9844 39.2812 62.8906 41.3438 59.4531Z" fill="url(#paint0_linear_3527_229)"/>
<defs>
<linearGradient id="paint0_linear_3527_229" x1="0.542198" y1="106.025" x2="0.542198" y2="-22" gradientUnits="userSpaceOnUse">
<stop stop-color="#A8EDEA"/>
<stop offset="0.6662" stop-color="#E5DDE5"/>
<stop offset="1" stop-color="#FED6E3"/>
</linearGradient>
</defs>
</svg>
