<svg width="125" height="98" viewBox="0 0 125 98" fill="none" xmlns="http://www.w3.org/2000/svg">
<path opacity="1" d="M-77.7656 67.6406C-78.1094 65.5781 -78.1094 62.8281 -77.7656 59.3906C-77.7656 56.9844 -77.7656 55.2656 -77.7656 54.2344C-77.4219 50.4531 -75.7031 48.7344 -72.6094 49.0781C-58.5156 48.0469 -43.0469 48.0469 -26.2031 49.0781C-23.1094 49.0781 -21.3906 50.7969 -21.0469 54.2344C-21.0469 58.7031 -21.0469 63 -21.0469 67.125C-21.7344 70.9062 -24.1406 72.7969 -28.2656 72.7969C-40.9844 71.7656 -55.0781 71.7656 -70.5469 72.7969C-74.6719 72.4531 -77.0781 70.7344 -77.7656 67.6406ZM-73.125 56.8125V64.5469C-73.4688 67.2969 -72.2656 68.5 -69.5156 68.1562C-55.0781 67.125 -41.6719 67.125 -29.2969 68.1562C-26.8906 68.1562 -25.6875 66.9531 -25.6875 64.5469V55.7812C-25.3438 54.0625 -26.7188 53.2031 -29.8125 53.2031C-42.875 52.1719 -56.2812 52.1719 -70.0312 53.2031C-72.0938 53.2031 -73.125 54.4062 -73.125 56.8125ZM-88.0781 90.3281C-80.8594 89.6406 -72.7812 89.2969 -63.8438 89.2969C-65.9062 86.2031 -68.3125 83.1094 -71.0625 80.0156C-72.4375 78.6406 -72.6094 77.4375 -71.5781 76.4062C-69.8594 75.375 -68.6562 75.375 -67.9688 76.4062C-64.875 79.5 -61.6094 83.625 -58.1719 88.7812C-58.1719 88.7812 -58.1719 88.9531 -58.1719 89.2969H-41.6719C-41.3281 88.9531 -41.1562 88.7812 -41.1562 88.7812C-40.4688 87.75 -39.4375 86.5469 -38.0625 85.1719C-35.3125 81.7344 -33.4219 78.9844 -32.3906 76.9219C-31.7031 75.2031 -30.5 74.8594 -28.7812 75.8906C-27.4062 76.5781 -27.2344 77.7812 -28.2656 79.5C-31.0156 83.2812 -33.4219 86.5469 -35.4844 89.2969C-25.8594 89.2969 -17.4375 89.6406 -10.2188 90.3281C-8.84375 90.3281 -8.15625 90.8438 -8.15625 91.875C-8.84375 94.625 -10.2188 95.6562 -12.2812 94.9688C-24.3125 93.9375 -38.5781 93.4219 -55.0781 93.4219C-70.8906 93.7656 -82.4062 94.4531 -89.625 95.4844C-91.3438 95.8281 -92.2031 95.1406 -92.2031 93.4219C-91.5156 91.0156 -90.1406 89.9844 -88.0781 90.3281ZM-106.125 5.25C-105.438 33.4375 -106.469 53.2031 -109.219 64.5469C-111.281 76.2344 -116.266 85.6875 -124.172 92.9062C-125.891 94.2812 -127.953 94.2812 -130.359 92.9062C-131.391 92.2188 -131.391 91.3594 -130.359 90.3281C-121.422 82.7656 -115.922 73.8281 -113.859 63.5156C-111.109 53.2031 -110.078 33.7812 -110.766 5.25C-110.766 3.875 -109.906 3.01562 -108.188 2.67188C-106.812 3.01562 -106.125 3.875 -106.125 5.25ZM-45.2812 11.4375C-44.5938 11.7812 -44.25 12.2969 -44.25 12.9844C-43.9062 12.9844 -43.7344 12.9844 -43.7344 12.9844C-39.2656 10.2344 -34.9688 7.14062 -30.8438 3.70312C-29.8125 2.67188 -28.7812 2.84375 -27.75 4.21875C-26.7188 5.59375 -26.8906 6.79688 -28.2656 7.82812C-32.0469 10.9219 -36.3438 13.8437 -41.1562 16.5938C-38.4062 19 -35.8281 21.75 -33.4219 24.8438C-29.9844 22.4375 -26.375 19.8594 -22.5938 17.1094C-21.5625 16.4219 -20.875 15.9062 -20.5312 15.5625C-19.1562 14.5312 -17.9531 14.5312 -16.9219 15.5625C-15.8906 16.9375 -16.4062 18.3125 -18.4688 19.6875C-18.4688 19.6875 -18.6406 19.8594 -18.9844 20.2031C-21.7344 22.6094 -25.3438 25.1875 -29.8125 27.9375C-23.625 33.4375 -16.5781 38.5938 -8.67188 43.4062C-7.64062 44.4375 -7.46875 45.125 -8.15625 45.4688C-10.2188 48.2188 -12.4531 48.5625 -14.8594 46.5C-25.8594 38.5938 -36.8594 28.2812 -47.8594 15.5625C-49.5781 13.5 -49.9219 12.125 -48.8906 11.4375C-47.5156 10.4062 -46.3125 10.4062 -45.2812 11.4375ZM-82.9219 22.7812C-84.2969 22.4375 -84.6406 21.4063 -83.9531 19.6875C-83.6094 18.3125 -82.4062 18.1406 -80.3438 19.1719C-75.1875 21.9219 -71.4062 24.1562 -69 25.875L-68.4844 26.3906C-68.1406 26.0469 -67.7969 25.5313 -67.4531 24.8438C-65.7344 23.125 -63.8438 20.7188 -61.7812 17.625C-60.0625 15.5625 -60.0625 14.1875 -61.7812 13.5C-64.5312 11.7812 -68.1406 10.0625 -72.6094 8.34375C-73.9844 7.65625 -74.3281 6.625 -73.6406 5.25C-72.9531 3.875 -71.75 3.53125 -70.0312 4.21875C-66.9375 5.59375 -63.5 7.3125 -59.7188 9.375C-58.6875 9.71875 -58 10.0625 -57.6562 10.4062C-54.5625 12.8125 -54.3906 15.7344 -57.1406 19.1719C-65.0469 30.1719 -73.8125 39.1094 -83.4375 45.9844C-85.8438 48.0469 -88.25 48.0469 -90.6562 45.9844C-92.0312 44.9531 -92.0312 44.0938 -90.6562 43.4062C-83.4375 39.625 -77.25 35.1562 -72.0938 30C-73.8125 28.625 -76.5625 26.7344 -80.3438 24.3281C-81.375 23.6406 -82.2344 23.125 -82.9219 22.7812ZM-71.0625 39.7969C-70.7188 37.7344 -69.6875 36.5312 -67.9688 36.1875C-55.25 35.5 -43.2188 35.5 -31.875 36.1875C-31.875 36.1875 -31.7031 36.1875 -31.3594 36.1875C-30.3281 36.5312 -29.8125 37.0469 -29.8125 37.7344C-30.5 40.1406 -31.7031 41.3438 -33.4219 41.3438C-45.7969 39.625 -57.8281 39.625 -69.5156 41.3438C-70.2031 41.6875 -70.7188 41.6875 -71.0625 41.3438C-71.4062 41 -71.4062 40.4844 -71.0625 39.7969ZM-103.547 61.4531C-104.234 60.0781 -104.062 58.875 -103.031 57.8438C-101.656 56.8125 -100.625 56.9844 -99.9375 58.3594C-95.4688 66.9531 -90.8281 73.3125 -86.0156 77.4375C-84.6406 78.4688 -85.1562 79.3281 -87.5625 80.0156C-89.9688 81.0469 -91.6875 80.7031 -92.7188 78.9844C-96.8438 73.4844 -100.453 67.6406 -103.547 61.4531ZM-95.2969 40.8281C-96.3281 42.2031 -97.875 42.375 -99.9375 41.3438C-100.969 40.6562 -100.969 39.625 -99.9375 38.25C-96.8438 35.1562 -93.5781 30.1719 -90.1406 23.2969C-89.4531 21.9219 -88.4219 21.75 -87.0469 22.7812C-85.6719 23.4688 -85.5 24.8438 -86.5312 26.9062C-90.6562 33.7812 -93.5781 38.4219 -95.2969 40.8281ZM-123.141 45.9844C-123.484 48.3906 -124.859 49.5938 -127.266 49.5938C-128.641 49.9375 -128.812 48.3906 -127.781 44.9531C-125.719 40.1406 -124.516 35.5 -124.172 31.0312C-123.828 28.625 -122.797 27.5938 -121.078 27.9375C-119.703 27.5938 -119.359 29.3125 -120.047 33.0938C-120.391 37.2188 -121.422 41.5156 -123.141 45.9844ZM10.4062 81.5625C8.6875 81.9062 8 81.3906 8.34375 80.0156C8.6875 77.9531 9.54688 76.9219 10.9219 76.9219C25.3594 76.2344 41.6875 75.8906 59.9062 75.8906C80.875 75.8906 98.5781 76.2344 113.016 76.9219C115.078 76.9219 115.938 77.4375 115.594 78.4688C115.594 80.875 114.562 81.9062 112.5 81.5625C98.0625 80.5312 80.3594 80.0156 59.3906 80.0156H54.2344C54.2344 81.0469 53.8906 81.5625 53.2031 81.5625C48.3906 83.9688 44.0938 86.7188 40.3125 89.8125C39.2812 90.5 38.9375 91.1875 39.2812 91.875C39.625 92.2188 40.4844 92.5625 41.8594 92.9062C55.2656 93.25 69.5312 93.25 84.6562 92.9062C86.375 92.5625 87.2344 92.2188 87.2344 91.875C87.5781 91.1875 87.2344 90.5 86.2031 89.8125C84.4844 88.7812 82.5938 87.4062 80.5312 85.6875C79.5 84.6562 79.5 83.625 80.5312 82.5938C81.2188 81.9062 82.25 81.9062 83.625 82.5938C85.3438 83.625 87.4062 85.1719 89.8125 87.2344C90.5 87.5781 91.0156 87.9219 91.3594 88.2656C94.4531 92.7344 93.0781 95.3125 87.2344 96C71.4219 97.0312 55.4375 97.0312 39.2812 96C36.1875 96 34.2969 95.1406 33.6094 93.4219C32.9219 91.3594 33.7812 89.2969 36.1875 87.2344C39.2812 84.4844 42.7188 82.0781 46.5 80.0156C42.7188 80.0156 41.5156 80.0156 42.8906 80.0156C26.3906 80.7031 15.5625 81.2188 10.4062 81.5625ZM87.2344 19.6875C87.2344 22.0937 87.0625 24.3281 86.7188 26.3906C88.0938 26.3906 89.9844 26.3906 92.3906 26.3906C95.4844 26.7344 97.8906 26.9062 99.6094 26.9062C104.078 27.5938 106.141 29.8281 105.797 33.6094C105.109 40.1406 104.766 45.6406 104.766 50.1094C104.422 54.5781 106.312 56.6406 110.438 56.2969C115.594 56.2969 119.375 55.4375 121.781 53.7188C123.156 53.375 124.016 53.7188 124.359 54.75C124.016 58.1875 122.297 60.0781 119.203 60.4219C117.484 60.7656 114.391 60.9375 109.922 60.9375C103.047 60.5938 99.7812 57.5 100.125 51.6562C100.125 46.5 100.297 40.8281 100.641 34.6406C100.984 32.5781 99.9531 31.375 97.5469 31.0312C96.5156 31.0312 94.7969 30.8594 92.3906 30.5156C89.9844 30.5156 88.0938 30.5156 86.7188 30.5156C85.6875 35.6719 84.4844 40.1406 83.1094 43.9219C86.2031 45.9844 89.4688 48.0469 92.9062 50.1094C94.2812 51.1406 94.4531 52.1719 93.4219 53.2031C92.3906 54.5781 91.0156 54.75 89.2969 53.7188C87.9219 52.6875 85.8594 51.3125 83.1094 49.5938C82.4219 48.9062 81.7344 48.3906 81.0469 48.0469C78.6406 52.5156 75.2031 56.6406 70.7344 60.4219C68.3281 62.4844 66.2656 62.6562 64.5469 60.9375C63.5156 59.9062 63.5156 59.0469 64.5469 58.3594C70.7344 53.8906 75.0312 49.5938 77.4375 45.4688C75.0312 44.4375 72.4531 43.0625 69.7031 41.3438C67.9844 40.6562 67.6406 39.625 68.6719 38.25C69.7031 37.2188 71.0781 37.2188 72.7969 38.25C74.8594 39.2812 77.0938 40.4844 79.5 41.8594C80.875 38.4219 81.7344 34.6406 82.0781 30.5156C81.0469 30.5156 79.1562 30.6875 76.4062 31.0312C74 31.0312 72.1094 31.2031 70.7344 31.5469C69.7031 31.8906 69.0156 31.8906 68.6719 31.5469C68.3281 31.2031 68.3281 30.6875 68.6719 30C69.0156 27.9375 70.2188 26.9062 72.2812 26.9062C76.4062 26.9062 79.8438 26.9062 82.5938 26.9062C82.5938 24.5 82.5938 22.0937 82.5938 19.6875C82.9375 18.3125 83.625 17.625 84.6562 17.625C86.375 17.625 87.2344 18.3125 87.2344 19.6875ZM77.4375 2.67188C77.4375 1.29688 78.125 0.609375 79.5 0.609375C81.2188 0.609375 82.0781 1.29688 82.0781 2.67188V7.3125C93.4219 7.3125 104.766 7.48438 116.109 7.82812C118.172 7.82812 119.031 8.6875 118.688 10.4062C118.344 12.125 116.797 12.9844 114.047 12.9844C109.234 12.6406 101.328 12.2969 90.3281 11.9531C93.0781 11.9531 90.3281 11.7812 82.0781 11.4375V16.5938C80.7031 19 79.1562 19.1719 77.4375 17.1094V11.4375C67.125 11.4375 57.1562 11.4375 47.5312 11.4375V17.1094C46.1562 19.1719 44.6094 19.1719 42.8906 17.1094V11.4375C30.5156 11.7812 19.5156 12.2969 9.89062 12.9844C8.85938 13.3281 8 13.3281 7.3125 12.9844C6.96875 12.2969 7.14062 11.6094 7.82812 10.9219C8.85938 8.85938 10.5781 7.82812 12.9844 7.82812C22.6094 7.48438 32.5781 7.3125 42.8906 7.3125V2.15625C42.8906 1.125 43.5781 0.609375 44.9531 0.609375C46.6719 0.609375 47.5312 1.29688 47.5312 2.67188V7.3125C57.1562 6.96875 67.125 6.79688 77.4375 6.79688V2.67188ZM11.9531 57.8438C15.0469 57.5 20.0312 57.1562 26.9062 56.8125C30.3438 56.4688 32.9219 56.2969 34.6406 56.2969V50.1094C27.7656 50.1094 21.2344 50.4531 15.0469 51.1406C14.0156 51.4844 13.3281 51.4844 12.9844 51.1406C12.6406 50.7969 12.6406 50.2812 12.9844 49.5938C13.6719 47.5312 15.2188 46.6719 17.625 47.0156C22.7812 46.3281 28.4531 45.9844 34.6406 45.9844V39.7969C36.0156 37.3906 37.5625 37.3906 39.2812 39.7969V45.9844C45.4688 45.9844 51.6562 46.3281 57.8438 47.0156C58.5312 47.0156 58.875 47.1875 58.875 47.5312C59.2188 47.5312 59.2188 47.875 58.875 48.5625C58.5312 50.2812 57.1562 51.1406 54.75 51.1406C50.2812 50.4531 45.125 50.1094 39.2812 50.1094V56.2969C46.1562 55.9531 53.0312 55.7812 59.9062 55.7812C61.625 55.7812 62.1406 56.4688 61.4531 57.8438C61.1094 59.5625 59.7344 60.4219 57.3281 60.4219C39.4531 59.7344 23.4688 60.4219 9.375 62.4844C8.34375 62.4844 7.82812 62.3125 7.82812 61.9688C7.48438 61.9688 7.48438 61.4531 7.82812 60.4219C8.17188 58.7031 9.54688 57.8438 11.9531 57.8438ZM19.1719 21.75C24.3281 21.75 29.4844 21.75 34.6406 21.75V16.5938C36.3594 14.5312 37.9062 14.5312 39.2812 16.5938V21.75C44.4375 21.75 50.2812 21.75 56.8125 21.75C58.5312 21.75 59.0469 22.4375 58.3594 23.8125C58.0156 25.5313 56.6406 26.3906 54.2344 26.3906C52.5156 26.0469 50.1094 25.875 47.0156 25.875C43.5781 25.5313 41 25.3594 39.2812 25.3594V31.0312C46.8438 31.0312 54.75 31.2031 63 31.5469C64.7188 31.5469 65.2344 32.0625 64.5469 33.0938C64.2031 34.8125 62.6562 35.6719 59.9062 35.6719C43.4062 33.9531 26.9062 34.125 10.4062 36.1875C9.375 36.1875 8.85938 36.0156 8.85938 35.6719C8.51562 35.6719 8.51562 35.1562 8.85938 34.125C9.20312 32.4062 10.5781 31.5469 12.9844 31.5469C19.8594 31.2031 27.0781 31.0312 34.6406 31.0312V25.3594C32.5781 25.7031 29.6562 25.875 25.875 25.875C21.75 26.2187 18.6562 26.3906 16.5938 26.3906C15.2188 26.3906 14.7031 25.875 15.0469 24.8438C15.0469 23.125 16.4219 22.0937 19.1719 21.75ZM23.8125 69.7031C22.4375 69.7031 21.75 69.1875 21.75 68.1562C22.4375 66.0938 23.4688 65.0625 24.8438 65.0625C49.9375 64.375 74 64.375 97.0312 65.0625C97.0312 65.0625 97.2031 65.0625 97.5469 65.0625C99.6094 65.4062 100.297 66.0938 99.6094 67.125C99.6094 68.8438 98.5781 69.7031 96.5156 69.7031C72.1094 68.6719 47.875 68.6719 23.8125 69.7031ZM11.4375 41.8594C14.875 40.8281 19.3438 39.2812 24.8438 37.2188C25.1875 36.875 25.3594 36.7031 25.3594 36.7031C26.7344 35.6719 27.9375 35.8438 28.9688 37.2188C29.6562 38.5938 29.1406 39.4531 27.4219 39.7969C23.9844 41.8594 19.6875 43.5781 14.5312 44.9531C13.1562 45.2969 11.9531 44.9531 10.9219 43.9219C9.89062 42.8906 10.0625 42.2031 11.4375 41.8594ZM60.4219 41.3438C61.7969 42.0312 61.9688 42.8906 60.9375 43.9219C60.25 44.9531 59.0469 45.2969 57.3281 44.9531C56.6406 44.6094 55.4375 44.0938 53.7188 43.4062C50.2812 42.0312 47.875 41 46.5 40.3125C44.7812 39.625 44.2656 38.5938 44.9531 37.2188C45.2969 35.8438 46.5 35.6719 48.5625 36.7031C52.3438 38.0781 56.2969 39.625 60.4219 41.3438Z" fill="url(#paint0_linear_3527_286)"/>
<defs>
<linearGradient id="paint0_linear_3527_286" x1="0.542198" y1="108.025" x2="0.542198" y2="-20" gradientUnits="userSpaceOnUse">
<stop stop-color="#A8EDEA"/>
<stop offset="0.6662" stop-color="#E5DDE5"/>
<stop offset="1" stop-color="#FED6E3"/>
</linearGradient>
</defs>
</svg>
