<svg width="189" height="212" viewBox="0 0 189 212" fill="none" xmlns="http://www.w3.org/2000/svg">
<path d="M29.3997 113.282C29.4261 113.309 29.4525 113.309 29.4789 113.335C29.4525 113.309 29.4261 113.282 29.3997 113.282ZM29.0563 113.362C29.0299 113.202 29.0035 113.042 29.0035 112.881C29.0827 112.721 29.1884 112.588 29.2676 112.427C29.4789 112.374 29.5582 112.134 29.6902 112C29.8223 112.027 29.9544 112.053 30.06 112.107C30.1393 112.187 30.1657 112.294 30.1921 112.427C30.2185 112.748 30.4034 112.961 30.5619 113.202V113.228C30.5619 113.282 30.5619 113.335 30.5355 113.415C30.5883 113.469 30.6148 113.549 30.6148 113.629C30.6676 113.682 30.7204 113.736 30.7732 113.763C30.8261 113.789 30.9053 113.789 30.9846 113.816C31.0902 113.843 31.1695 113.896 31.2751 113.923C31.5129 114.297 31.8034 114.243 32.1204 114.003L32.1468 113.976C32.1996 113.923 32.2525 113.869 32.2789 113.816C32.3053 113.816 32.3581 113.789 32.3845 113.763C32.5166 113.736 32.6223 113.763 32.7808 113.843C32.9921 114.27 33.0185 114.724 32.9657 115.231C32.9128 115.792 32.8072 116.38 32.9921 116.941C33.2298 117.181 33.4411 117.421 33.6789 117.662V117.688C33.6525 118.089 33.2034 118.57 33.8902 118.837C33.9694 119.05 34.0487 119.291 34.1279 119.504C34.2072 119.611 34.2072 119.718 34.1279 119.798C34.0223 119.852 33.9166 119.878 33.811 119.852C33.7581 119.852 33.6789 119.825 33.626 119.798C33.5732 119.798 33.5204 119.798 33.494 119.798C33.4411 119.772 33.3619 119.772 33.3091 119.745C33.1242 119.718 32.9921 119.638 32.8336 119.531C32.8072 119.504 32.7808 119.504 32.7544 119.478C32.6487 119.237 32.4374 119.291 32.2789 119.237C31.9883 118.917 31.8298 119.024 31.777 119.398C31.7506 119.691 31.9091 119.852 32.1732 119.985C32.1732 120.065 32.1468 120.145 32.1204 120.226C32.094 120.252 32.0676 120.279 32.0412 120.306C31.8563 120.386 31.6714 120.439 31.5393 120.626C31.46 120.653 31.4072 120.706 31.328 120.733C30.9053 121.08 30.9317 121.427 31.328 121.801C31.46 121.828 31.6185 121.855 31.7506 121.881C31.8298 121.935 31.9355 121.988 32.0147 122.068C32.5695 122.228 32.9921 121.881 33.4676 121.694C33.5732 121.748 33.7053 121.801 33.8374 121.855C33.8638 121.881 33.8902 121.908 33.9166 121.935C33.9959 122.015 34.0223 122.122 34.0487 122.228C34.0487 122.442 34.0487 122.629 34.0223 122.843C33.8109 123.083 33.7317 123.35 34.0223 123.591C34.1015 123.804 34.2864 123.831 34.4713 123.858C34.4977 123.884 34.4977 123.884 34.5241 123.911C34.5506 124.045 34.577 124.151 34.577 124.285C34.577 124.445 34.6034 124.605 34.6034 124.739C34.577 124.872 34.5506 125.033 34.5506 125.166C34.3657 125.246 34.2336 125.38 34.2864 125.593C34.3657 125.861 34.5506 125.807 34.7355 125.754C34.9468 125.727 35.1581 125.727 35.3958 125.7C35.4223 125.7 35.4222 125.7 35.4487 125.7C35.7392 125.967 36.109 125.914 36.4524 125.887C36.5317 125.967 36.6109 126.047 36.6902 126.154C36.7166 126.368 37.0071 126.395 37.0864 126.582C37.0864 126.635 37.0336 126.715 36.9279 126.795C36.7694 126.849 36.5845 126.902 36.426 126.929C36.2675 127.196 36.0298 127.516 36.1619 127.757C36.3468 128.077 36.7166 127.864 37.0071 127.81C37.3505 127.864 37.7203 127.944 38.0637 128.024C38.592 128.157 38.5128 127.783 38.5392 127.516L38.5656 127.49C38.6449 127.409 38.7241 127.356 38.8033 127.276C39.226 127.036 39.6222 126.662 40.1769 126.822C40.2033 126.822 40.2297 126.822 40.2562 126.822C40.2826 126.849 40.309 126.875 40.3354 126.875C40.3618 126.902 40.3618 126.902 40.3882 126.929V126.955C40.4939 127.596 40.8637 128.077 41.3392 128.504C41.3128 129.012 41.7618 129.012 42.0524 129.199C41.7618 129.92 41.7618 129.92 42.7127 130.427C42.7392 130.561 42.8184 130.614 42.9505 130.614C43.0297 130.668 43.1354 130.801 43.2146 130.801C43.7957 130.881 43.6373 131.175 43.4259 131.496C43.3731 131.602 43.2939 131.682 43.241 131.763C43.241 131.843 43.241 131.923 43.241 132.003C43.2674 132.136 43.241 132.19 43.109 132.217C42.7127 132.43 43.0297 132.804 42.9505 133.098C42.6071 133.392 42.9505 133.792 42.7656 134.113C42.6071 134.139 42.4486 134.166 42.2901 134.193C42.0259 134.407 42.1052 134.807 41.8939 135.074C41.9203 135.154 41.9203 135.234 41.8675 135.288C41.709 135.822 41.709 135.822 42.0259 136.623C42.3958 136.837 42.3165 136.062 42.7127 136.329C42.6863 136.383 42.6863 136.436 42.7656 136.463C42.8448 136.516 42.8712 136.596 42.8448 136.677C42.9769 136.89 43.109 136.97 43.2674 136.73C43.3203 136.623 43.3995 136.543 43.5052 136.49C43.6373 136.436 43.7693 136.383 43.9014 136.329C44.0071 136.864 43.9542 137.398 43.8486 137.932C43.7429 138.466 43.9542 138.813 44.4033 139.053C44.641 139.374 44.958 139.454 45.3278 139.481C45.4599 139.507 45.5919 139.534 45.724 139.561C45.7769 140.015 46.1467 140.389 45.9353 140.896C45.6184 140.896 45.6184 141.323 45.3278 141.377C45.1429 141.404 45.0372 141.617 45.1693 141.697C45.6184 142.018 45.3806 142.659 45.7504 142.979C45.724 143.059 45.6976 143.139 45.6712 143.22C45.6448 143.246 45.592 143.273 45.5655 143.3C45.4599 143.38 45.3542 143.46 45.275 143.513C45.2221 143.593 45.1693 143.674 45.1165 143.754C44.958 143.887 44.958 144.047 45.0637 144.208C45.0637 144.288 45.0637 144.368 45.0637 144.448C44.7467 145.089 44.1127 144.635 43.6901 144.875L43.7165 144.955C43.6373 145.009 43.5316 145.036 43.4259 145.009C43.3203 144.982 43.241 144.929 43.1618 144.875C43.109 144.849 43.0825 144.822 43.0297 144.795C42.7656 144.635 42.5014 144.608 42.2373 144.795C42.0788 144.902 41.9467 145.009 41.8675 145.169C41.8411 145.249 41.7882 145.329 41.7354 145.409C41.6826 145.49 41.6297 145.57 41.5769 145.623C41.5505 145.65 41.5241 145.677 41.4977 145.703C41.4448 145.73 41.392 145.73 41.3656 145.757C41.2863 145.783 41.2071 145.81 41.1278 145.864C41.075 145.917 41.0222 145.97 40.9958 146.024C40.9694 146.077 40.9429 146.157 40.9165 146.237C40.8637 146.291 40.8109 146.344 40.7845 146.424C40.7845 146.424 40.7845 146.451 40.758 146.451C40.6788 146.504 40.626 146.585 40.5996 146.665C40.5467 146.798 40.5467 146.932 40.5996 147.092C40.5996 147.092 40.5996 147.092 40.5996 147.119C40.5996 147.439 40.6524 147.786 40.3882 148.053C40.3618 148.107 40.309 148.134 40.2562 148.16C40.2562 148.16 40.2297 148.16 40.2297 148.187C40.1505 148.214 40.0713 148.214 40.0184 148.24C39.9656 148.294 39.9128 148.32 39.8599 148.374C39.6486 148.401 39.4373 148.347 39.2524 148.401C39.1731 148.427 39.0939 148.454 39.0147 148.507C38.9618 148.561 38.9354 148.614 38.9618 148.694C38.9883 148.748 39.0411 148.828 39.0939 148.881C39.1732 148.961 39.226 149.068 39.2524 149.202C39.2524 149.282 39.2524 149.362 39.226 149.442C39.1732 149.549 39.1203 149.682 39.0675 149.789C39.0411 149.816 39.0411 149.869 39.0147 149.896C38.9882 149.923 38.9618 149.976 38.9354 150.003C38.8826 150.056 38.8298 150.137 38.7769 150.163C38.7241 150.217 38.6713 150.27 38.6184 150.297C38.592 150.35 38.5656 150.43 38.5656 150.484C38.592 150.564 38.6184 150.617 38.6449 150.697C38.6977 150.831 38.6977 150.938 38.6449 151.071C38.5128 151.231 38.3279 151.285 38.143 151.312C37.9581 151.338 37.7732 151.338 37.6147 151.472C37.5883 151.552 37.5354 151.632 37.509 151.712C37.4826 151.792 37.4826 151.846 37.4562 151.926C37.3505 152.059 37.3769 152.246 37.2449 152.38C37.1656 152.46 37.0864 152.567 36.9543 152.62C36.8751 152.62 36.7958 152.647 36.7166 152.7C36.6109 152.834 36.4524 152.861 36.3204 152.967L36.2939 152.994C36.2939 152.994 36.2939 152.994 36.3204 152.994C36.2675 153.047 36.2147 153.128 36.2147 153.234C36.109 153.395 36.0034 153.501 35.8449 153.635C35.7921 153.688 35.7128 153.742 35.66 153.822C35.5279 153.875 35.4222 153.929 35.2902 153.955C35.1581 154.009 35.0524 154.036 34.9468 154.142C34.894 154.223 34.8411 154.303 34.8147 154.383C34.7619 154.516 34.7355 154.677 34.7091 154.837L34.6826 154.864C34.6034 155.05 34.577 155.264 34.3921 155.371C34.1543 155.611 33.811 155.424 33.5468 155.638C33.0713 155.852 32.4638 155.691 32.1204 156.226C32.0147 156.252 31.9091 156.306 31.8562 156.386C31.8034 156.573 31.7242 156.706 31.6185 156.813C31.5657 156.84 31.5129 156.866 31.46 156.92C31.328 156.973 31.1431 157 30.9581 157C30.694 156.973 30.4299 156.786 30.1657 156.813C29.9808 156.706 29.8751 156.493 29.6638 156.412C29.5846 156.412 29.5318 156.412 29.4525 156.439C29.3468 156.386 29.2148 156.332 29.1091 156.279C28.9506 156.119 28.9506 155.905 28.8978 155.691C28.9242 155.478 28.8186 155.318 28.6072 155.184C28.528 155.131 28.4487 155.077 28.3431 155.05C28.1846 154.997 28.0525 154.89 27.9469 154.783C27.9204 154.757 27.9204 154.73 27.9204 154.677C27.8148 154.41 27.7884 154.089 27.762 153.795C27.7355 153.688 27.7355 153.582 27.6827 153.501C27.5771 153.208 27.5506 152.861 27.3393 152.593C27.3129 152.567 27.2865 152.54 27.2601 152.54C27.2601 152.513 27.2337 152.513 27.2073 152.513C27.1808 152.513 27.1544 152.487 27.128 152.487C27.1016 152.487 27.1016 152.487 27.0752 152.46C27.0488 152.46 27.0488 152.46 27.0488 152.46C26.7846 152.407 26.5205 152.407 26.2299 152.433C26.1242 152.46 26.0186 152.487 25.9129 152.513C25.728 152.593 25.5167 152.674 25.3582 152.78C25.0941 152.887 24.8299 153.101 24.5658 152.78C24.5129 152.7 24.4601 152.62 24.4337 152.513C24.3016 152.193 24.328 151.819 24.196 151.472C24.0639 151.231 23.879 151.045 23.6413 150.911C23.3243 150.804 23.0073 150.911 22.7167 150.991C22.6111 151.018 22.5318 151.045 22.4262 151.098C22.1884 151.178 21.9507 151.258 21.713 151.338C21.4488 151.472 21.1847 151.632 20.9205 151.766C20.6035 151.953 20.2602 151.872 19.9168 151.819C19.8111 151.819 19.7054 151.792 19.6262 151.819C19.23 151.926 18.8338 151.926 18.4375 151.712C18.0149 151.525 17.6187 151.392 17.1696 151.552C17.0376 151.605 16.9583 151.712 16.9055 151.792C16.8262 151.872 16.7998 151.979 16.7998 152.059C16.7998 152.166 16.7998 152.273 16.8262 152.407C16.8526 152.567 16.8791 152.7 16.9319 152.861C16.9847 153.208 16.8262 153.261 16.5357 153.208C16.43 153.181 16.3508 153.154 16.2451 153.154C16.2187 153.154 16.1923 153.154 16.1394 153.154C16.0602 153.101 15.981 152.994 15.9017 152.914C15.5319 152.807 15.1621 152.727 15.2413 152.193C15.2942 151.712 15.2678 151.205 15.2678 150.697C15.2678 150.43 15.3206 150.163 15.0036 150.003C14.9244 149.816 14.7923 149.682 14.6338 149.576C14.5017 149.122 14.5281 148.668 14.6074 148.214C14.8451 148 14.9508 147.84 14.5546 147.68C14.3961 147.626 14.2376 147.546 14.0527 147.466C13.9734 147.412 13.8942 147.332 13.8149 147.252C13.181 146.718 12.415 147.145 11.7282 146.985C11.5961 146.798 11.4904 146.585 11.2791 146.478C11.2263 146.237 11.4376 146.077 11.4904 145.864C11.6225 145.81 11.7546 145.757 11.7018 145.57C11.781 145.57 11.8338 145.543 11.9131 145.543C12.5999 145.089 12.2301 144.635 11.9395 144.154C11.9923 143.62 11.9923 143.086 11.2263 143.059C11.1206 143.059 11.015 143.006 10.9886 142.872C10.8829 142.659 10.6716 142.685 10.4867 142.685C10.1961 142.472 9.90555 142.499 9.61499 142.712C9.37726 142.739 9.11311 142.739 8.87538 142.766C8.58481 142.766 8.26783 142.739 7.97727 142.739C8.00368 142.499 8.00369 142.285 8.0301 142.045C8.21501 141.991 8.24142 141.831 8.24142 141.671C8.42632 141.51 8.47915 141.323 8.47915 141.11C8.71689 140.816 8.50557 140.602 8.34708 140.389C8.29425 140.309 8.21501 140.228 8.16218 140.148C8.10935 139.935 7.95086 139.801 7.73954 139.721C7.66029 139.668 7.58105 139.588 7.50181 139.534C7.34332 139.454 7.18483 139.374 7.02634 139.294C6.94709 139.267 6.86785 139.24 6.7886 139.214L6.81502 139.187C6.44521 139 6.04899 139.134 5.67918 139.08C5.67918 139.134 5.62635 139.16 5.54711 139.16C5.36221 139.187 5.1773 139.187 5.15089 139.401C5.01881 139.427 4.91315 139.481 4.93957 139.668C4.78108 139.641 4.67542 139.721 4.70184 139.908C4.51693 139.881 4.43769 139.935 4.4641 140.148C4.38486 140.148 4.30561 140.148 4.22637 140.148C4.06788 140.202 3.90939 140.255 3.7509 140.335C3.67166 140.415 3.59241 140.496 3.51317 140.576C2.95846 140.549 2.40375 140.736 1.87545 140.362C1.71696 140.042 1.58489 139.721 1.4264 139.401C1.45282 139.347 1.45282 139.294 1.4264 139.24C1.55848 138.92 1.69055 138.573 1.82262 138.226C1.76979 138.145 1.79621 138.065 1.87545 138.012C2.29809 137.611 2.29809 137.211 1.87545 136.81C1.79621 136.757 1.71696 136.677 1.63772 136.596C1.26791 136.116 0.660372 136.463 0.237736 136.169C0.184906 136.116 0.105658 136.089 0.0528288 136.036C0.0528288 135.902 0.0264164 135.769 0.0264164 135.635C0.0264164 135.154 0 134.674 0 134.22C0.0264148 134.006 0.026414 133.766 0.0528288 133.552C0.290562 133.231 0.290563 132.858 0.264148 132.457C0.290563 132.323 0.369808 132.19 0.475467 132.11C0.686786 132.03 0.766028 131.869 0.713199 131.629C1.03018 131.629 1.08301 131.362 1.16225 131.148C1.4264 130.988 1.47923 130.721 1.55848 130.454C1.71696 130.134 1.87545 129.84 2.03394 129.519C2.00752 129.412 2.06035 129.332 2.16601 129.306C2.40375 129.226 2.48299 129.012 2.53582 128.798C2.58865 128.745 2.61507 128.665 2.64148 128.585C2.87921 128.504 2.90563 128.291 2.98487 128.104C3.11695 127.97 3.24902 127.837 3.3811 127.677C3.53958 127.677 3.69807 127.677 3.77732 127.49C3.83015 127.436 3.90939 127.409 3.96222 127.356C4.33203 127.276 4.54335 126.982 4.72825 126.688C4.8075 126.555 4.91315 126.448 5.01881 126.368C5.25655 126.128 5.59994 126.047 5.86409 125.861C6.02257 125.7 6.07541 125.46 6.18107 125.273C6.33956 125.033 6.49804 124.766 6.65653 124.525C6.7886 124.365 6.97351 124.258 7.18483 124.231C7.71312 124.312 7.87161 123.884 8.10934 123.591C8.34708 123.43 8.58481 123.35 8.84896 123.27C9.24518 123.163 9.61499 123.217 9.95838 123.35C10.3018 123.43 10.5923 123.617 10.9621 123.537C11.0414 123.51 11.1471 123.484 11.2263 123.43C11.3848 123.35 11.5169 123.243 11.6489 123.11C11.781 122.923 11.8338 122.709 11.9395 122.522C11.9923 122.442 12.0452 122.389 12.1244 122.335C12.2301 122.255 12.3093 122.175 12.3621 122.042C12.3885 121.908 12.3357 121.828 12.2036 121.774C12.1244 121.774 12.0451 121.774 11.9395 121.801C11.5961 121.881 11.2791 121.935 11.015 121.614C10.9621 121.534 10.8829 121.454 10.8565 121.374C10.7508 121.134 10.6452 120.893 10.5659 120.653C10.4867 120.199 9.93197 119.611 10.9093 119.504C11.0942 119.531 11.2791 119.611 11.464 119.611C11.5433 119.611 11.6489 119.585 11.7282 119.558C11.8338 119.478 11.9395 119.398 12.0451 119.318C12.2565 119.211 12.4678 119.131 12.6527 118.997C12.8376 118.864 13.0489 118.757 13.2338 118.623C13.3659 118.49 13.4715 118.356 13.5508 118.196C13.63 118.036 13.7093 117.875 13.8149 117.688C13.8678 117.608 13.9206 117.528 13.9734 117.448C13.9998 117.395 14.0263 117.368 14.0527 117.315C14.2112 116.674 14.9244 116.78 15.2413 116.353C15.3206 116.3 15.4262 116.246 15.5055 116.246C15.664 116.273 15.7696 116.326 15.8489 116.46C15.9281 116.487 15.8225 116.727 16.0338 116.62C16.1659 116.487 16.2979 116.353 16.43 116.246C16.6149 116.113 16.7998 115.979 16.9055 115.766C16.9583 115.685 17.0111 115.605 17.064 115.525C17.3017 115.125 17.7243 114.938 18.0413 114.644C18.3319 114.457 18.7281 114.51 19.0187 114.297C19.0451 114.19 19.1243 114.163 19.23 114.217C19.8903 113.682 20.7356 113.549 21.2111 114.083C21.6866 114.591 22.2413 114.11 22.6903 114.457C22.8224 114.564 22.9016 114.323 22.928 114.163C22.9545 114.056 22.9016 113.789 23.1658 113.896C23.8262 114.136 23.6677 113.789 23.5092 113.415C23.4299 113.255 23.5092 113.122 23.6677 113.015C23.8261 113.042 23.9846 113.068 24.1431 113.095C24.5658 113.576 24.645 113.015 24.8563 112.855C25.2525 112.801 25.6488 112.668 26.045 112.828C26.0978 113.389 25.6488 114.003 26.2035 114.51C26.3091 114.644 26.3884 114.804 26.494 114.938C26.7318 114.938 26.9431 114.938 27.1808 114.938C27.2865 114.724 27.3921 114.537 27.6563 114.484C27.6827 114.43 27.6827 114.404 27.7091 114.35C27.7884 114.323 27.8676 114.297 27.9469 114.243C27.9997 114.243 28.0525 114.217 28.1054 114.19C28.3167 114.217 28.4487 114.083 28.5808 113.95C28.7129 113.95 28.7657 113.869 28.8185 113.763C28.8714 113.496 28.9506 113.442 29.0563 113.362Z" fill="#EBEBEB"/>
<path d="M29.3997 168.282C29.4261 168.309 29.4525 168.309 29.4789 168.335C29.4525 168.309 29.4261 168.282 29.3997 168.282ZM29.0563 168.362C29.0299 168.202 29.0035 168.042 29.0035 167.881C29.0827 167.721 29.1884 167.588 29.2676 167.427C29.4789 167.374 29.5582 167.134 29.6902 167C29.8223 167.027 29.9544 167.053 30.06 167.107C30.1393 167.187 30.1657 167.294 30.1921 167.427C30.2185 167.748 30.4034 167.961 30.5619 168.202V168.228C30.5619 168.282 30.5619 168.335 30.5355 168.415C30.5883 168.469 30.6148 168.549 30.6148 168.629C30.6676 168.682 30.7204 168.736 30.7732 168.763C30.8261 168.789 30.9053 168.789 30.9846 168.816C31.0902 168.843 31.1695 168.896 31.2751 168.923C31.5129 169.297 31.8034 169.243 32.1204 169.003L32.1468 168.976C32.1996 168.923 32.2525 168.869 32.2789 168.816C32.3053 168.816 32.3581 168.789 32.3845 168.763C32.5166 168.736 32.6223 168.763 32.7808 168.843C32.9921 169.27 33.0185 169.724 32.9657 170.231C32.9128 170.792 32.8072 171.38 32.9921 171.941C33.2298 172.181 33.4411 172.421 33.6789 172.662V172.688C33.6525 173.089 33.2034 173.57 33.8902 173.837C33.9694 174.05 34.0487 174.291 34.1279 174.504C34.2072 174.611 34.2072 174.718 34.1279 174.798C34.0223 174.852 33.9166 174.878 33.811 174.852C33.7581 174.852 33.6789 174.825 33.626 174.798C33.5732 174.798 33.5204 174.798 33.494 174.798C33.4411 174.772 33.3619 174.772 33.3091 174.745C33.1242 174.718 32.9921 174.638 32.8336 174.531C32.8072 174.504 32.7808 174.504 32.7544 174.478C32.6487 174.237 32.4374 174.291 32.2789 174.237C31.9883 173.917 31.8298 174.024 31.777 174.398C31.7506 174.691 31.9091 174.852 32.1732 174.985C32.1732 175.065 32.1468 175.145 32.1204 175.226C32.094 175.252 32.0676 175.279 32.0412 175.306C31.8563 175.386 31.6714 175.439 31.5393 175.626C31.46 175.653 31.4072 175.706 31.328 175.733C30.9053 176.08 30.9317 176.427 31.328 176.801C31.46 176.828 31.6185 176.855 31.7506 176.881C31.8298 176.935 31.9355 176.988 32.0147 177.068C32.5695 177.228 32.9921 176.881 33.4676 176.694C33.5732 176.748 33.7053 176.801 33.8374 176.855C33.8638 176.881 33.8902 176.908 33.9166 176.935C33.9959 177.015 34.0223 177.122 34.0487 177.228C34.0487 177.442 34.0487 177.629 34.0223 177.843C33.8109 178.083 33.7317 178.35 34.0223 178.591C34.1015 178.804 34.2864 178.831 34.4713 178.858C34.4977 178.884 34.4977 178.884 34.5241 178.911C34.5506 179.045 34.577 179.151 34.577 179.285C34.577 179.445 34.6034 179.605 34.6034 179.739C34.577 179.872 34.5506 180.033 34.5506 180.166C34.3657 180.246 34.2336 180.38 34.2864 180.593C34.3657 180.861 34.5506 180.807 34.7355 180.754C34.9468 180.727 35.1581 180.727 35.3958 180.7C35.4223 180.7 35.4222 180.7 35.4487 180.7C35.7392 180.967 36.109 180.914 36.4524 180.887C36.5317 180.967 36.6109 181.047 36.6902 181.154C36.7166 181.368 37.0071 181.395 37.0864 181.582C37.0864 181.635 37.0336 181.715 36.9279 181.795C36.7694 181.849 36.5845 181.902 36.426 181.929C36.2675 182.196 36.0298 182.516 36.1619 182.757C36.3468 183.077 36.7166 182.864 37.0071 182.81C37.3505 182.864 37.7203 182.944 38.0637 183.024C38.592 183.157 38.5128 182.783 38.5392 182.516L38.5656 182.49C38.6449 182.409 38.7241 182.356 38.8033 182.276C39.226 182.036 39.6222 181.662 40.1769 181.822C40.2033 181.822 40.2297 181.822 40.2562 181.822C40.2826 181.849 40.309 181.875 40.3354 181.875C40.3618 181.902 40.3618 181.902 40.3882 181.929V181.955C40.4939 182.596 40.8637 183.077 41.3392 183.504C41.3128 184.012 41.7618 184.012 42.0524 184.199C41.7618 184.92 41.7618 184.92 42.7127 185.427C42.7392 185.561 42.8184 185.614 42.9505 185.614C43.0297 185.668 43.1354 185.801 43.2146 185.801C43.7957 185.881 43.6373 186.175 43.4259 186.496C43.3731 186.602 43.2939 186.682 43.241 186.763C43.241 186.843 43.241 186.923 43.241 187.003C43.2674 187.136 43.241 187.19 43.109 187.217C42.7127 187.43 43.0297 187.804 42.9505 188.098C42.6071 188.392 42.9505 188.792 42.7656 189.113C42.6071 189.139 42.4486 189.166 42.2901 189.193C42.0259 189.407 42.1052 189.807 41.8939 190.074C41.9203 190.154 41.9203 190.234 41.8675 190.288C41.709 190.822 41.709 190.822 42.0259 191.623C42.3958 191.837 42.3165 191.062 42.7127 191.329C42.6863 191.383 42.6863 191.436 42.7656 191.463C42.8448 191.516 42.8712 191.596 42.8448 191.677C42.9769 191.89 43.109 191.97 43.2674 191.73C43.3203 191.623 43.3995 191.543 43.5052 191.49C43.6373 191.436 43.7693 191.383 43.9014 191.329C44.0071 191.864 43.9542 192.398 43.8486 192.932C43.7429 193.466 43.9542 193.813 44.4033 194.053C44.641 194.374 44.958 194.454 45.3278 194.481C45.4599 194.507 45.5919 194.534 45.724 194.561C45.7769 195.015 46.1467 195.389 45.9353 195.896C45.6184 195.896 45.6184 196.323 45.3278 196.377C45.1429 196.404 45.0372 196.617 45.1693 196.697C45.6184 197.018 45.3806 197.659 45.7504 197.979C45.724 198.059 45.6976 198.139 45.6712 198.22C45.6448 198.246 45.592 198.273 45.5655 198.3C45.4599 198.38 45.3542 198.46 45.275 198.513C45.2221 198.593 45.1693 198.674 45.1165 198.754C44.958 198.887 44.958 199.047 45.0637 199.208C45.0637 199.288 45.0637 199.368 45.0637 199.448C44.7467 200.089 44.1127 199.635 43.6901 199.875L43.7165 199.955C43.6373 200.009 43.5316 200.036 43.4259 200.009C43.3203 199.982 43.241 199.929 43.1618 199.875C43.109 199.849 43.0825 199.822 43.0297 199.795C42.7656 199.635 42.5014 199.608 42.2373 199.795C42.0788 199.902 41.9467 200.009 41.8675 200.169C41.8411 200.249 41.7882 200.329 41.7354 200.409C41.6826 200.49 41.6297 200.57 41.5769 200.623C41.5505 200.65 41.5241 200.677 41.4977 200.703C41.4448 200.73 41.392 200.73 41.3656 200.757C41.2863 200.783 41.2071 200.81 41.1278 200.864C41.075 200.917 41.0222 200.97 40.9958 201.024C40.9694 201.077 40.9429 201.157 40.9165 201.237C40.8637 201.291 40.8109 201.344 40.7845 201.424C40.7845 201.424 40.7845 201.451 40.758 201.451C40.6788 201.504 40.626 201.585 40.5996 201.665C40.5467 201.798 40.5467 201.932 40.5996 202.092C40.5996 202.092 40.5996 202.092 40.5996 202.119C40.5996 202.439 40.6524 202.786 40.3882 203.053C40.3618 203.107 40.309 203.134 40.2562 203.16C40.2562 203.16 40.2297 203.16 40.2297 203.187C40.1505 203.214 40.0713 203.214 40.0184 203.24C39.9656 203.294 39.9128 203.32 39.8599 203.374C39.6486 203.401 39.4373 203.347 39.2524 203.401C39.1731 203.427 39.0939 203.454 39.0147 203.507C38.9618 203.561 38.9354 203.614 38.9618 203.694C38.9883 203.748 39.0411 203.828 39.0939 203.881C39.1732 203.961 39.226 204.068 39.2524 204.202C39.2524 204.282 39.2524 204.362 39.226 204.442C39.1732 204.549 39.1203 204.682 39.0675 204.789C39.0411 204.816 39.0411 204.869 39.0147 204.896C38.9882 204.923 38.9618 204.976 38.9354 205.003C38.8826 205.056 38.8298 205.137 38.7769 205.163C38.7241 205.217 38.6713 205.27 38.6184 205.297C38.592 205.35 38.5656 205.43 38.5656 205.484C38.592 205.564 38.6184 205.617 38.6449 205.697C38.6977 205.831 38.6977 205.938 38.6449 206.071C38.5128 206.231 38.3279 206.285 38.143 206.312C37.9581 206.338 37.7732 206.338 37.6147 206.472C37.5883 206.552 37.5354 206.632 37.509 206.712C37.4826 206.792 37.4826 206.846 37.4562 206.926C37.3505 207.059 37.3769 207.246 37.2449 207.38C37.1656 207.46 37.0864 207.567 36.9543 207.62C36.8751 207.62 36.7958 207.647 36.7166 207.7C36.6109 207.834 36.4524 207.861 36.3204 207.967L36.2939 207.994C36.2939 207.994 36.2939 207.994 36.3204 207.994C36.2675 208.047 36.2147 208.128 36.2147 208.234C36.109 208.395 36.0034 208.501 35.8449 208.635C35.7921 208.688 35.7128 208.742 35.66 208.822C35.5279 208.875 35.4222 208.929 35.2902 208.955C35.1581 209.009 35.0524 209.036 34.9468 209.142C34.894 209.223 34.8411 209.303 34.8147 209.383C34.7619 209.516 34.7355 209.677 34.7091 209.837L34.6826 209.864C34.6034 210.05 34.577 210.264 34.3921 210.371C34.1543 210.611 33.811 210.424 33.5468 210.638C33.0713 210.852 32.4638 210.691 32.1204 211.226C32.0147 211.252 31.9091 211.306 31.8562 211.386C31.8034 211.573 31.7242 211.706 31.6185 211.813C31.5657 211.84 31.5129 211.866 31.46 211.92C31.328 211.973 31.1431 212 30.9581 212C30.694 211.973 30.4299 211.786 30.1657 211.813C29.9808 211.706 29.8751 211.493 29.6638 211.412C29.5846 211.412 29.5318 211.412 29.4525 211.439C29.3468 211.386 29.2148 211.332 29.1091 211.279C28.9506 211.119 28.9506 210.905 28.8978 210.691C28.9242 210.478 28.8186 210.318 28.6072 210.184C28.528 210.131 28.4487 210.077 28.3431 210.05C28.1846 209.997 28.0525 209.89 27.9469 209.783C27.9204 209.757 27.9204 209.73 27.9204 209.677C27.8148 209.41 27.7884 209.089 27.762 208.795C27.7355 208.688 27.7355 208.582 27.6827 208.501C27.5771 208.208 27.5506 207.861 27.3393 207.593C27.3129 207.567 27.2865 207.54 27.2601 207.54C27.2601 207.513 27.2337 207.513 27.2073 207.513C27.1808 207.513 27.1544 207.487 27.128 207.487C27.1016 207.487 27.1016 207.487 27.0752 207.46C27.0488 207.46 27.0488 207.46 27.0488 207.46C26.7846 207.407 26.5205 207.407 26.2299 207.433C26.1242 207.46 26.0186 207.487 25.9129 207.513C25.728 207.593 25.5167 207.674 25.3582 207.78C25.0941 207.887 24.8299 208.101 24.5658 207.78C24.5129 207.7 24.4601 207.62 24.4337 207.513C24.3016 207.193 24.328 206.819 24.196 206.472C24.0639 206.231 23.879 206.045 23.6413 205.911C23.3243 205.804 23.0073 205.911 22.7167 205.991C22.6111 206.018 22.5318 206.045 22.4262 206.098C22.1884 206.178 21.9507 206.258 21.713 206.338C21.4488 206.472 21.1847 206.632 20.9205 206.766C20.6035 206.953 20.2602 206.872 19.9168 206.819C19.8111 206.819 19.7054 206.792 19.6262 206.819C19.23 206.926 18.8338 206.926 18.4375 206.712C18.0149 206.525 17.6187 206.392 17.1696 206.552C17.0376 206.605 16.9583 206.712 16.9055 206.792C16.8262 206.872 16.7998 206.979 16.7998 207.059C16.7998 207.166 16.7998 207.273 16.8262 207.407C16.8526 207.567 16.8791 207.7 16.9319 207.861C16.9847 208.208 16.8262 208.261 16.5357 208.208C16.43 208.181 16.3508 208.154 16.2451 208.154C16.2187 208.154 16.1923 208.154 16.1394 208.154C16.0602 208.101 15.981 207.994 15.9017 207.914C15.5319 207.807 15.1621 207.727 15.2413 207.193C15.2942 206.712 15.2678 206.205 15.2678 205.697C15.2678 205.43 15.3206 205.163 15.0036 205.003C14.9244 204.816 14.7923 204.682 14.6338 204.576C14.5017 204.122 14.5281 203.668 14.6074 203.214C14.8451 203 14.9508 202.84 14.5546 202.68C14.3961 202.626 14.2376 202.546 14.0527 202.466C13.9734 202.412 13.8942 202.332 13.8149 202.252C13.181 201.718 12.415 202.145 11.7282 201.985C11.5961 201.798 11.4904 201.585 11.2791 201.478C11.2263 201.237 11.4376 201.077 11.4904 200.864C11.6225 200.81 11.7546 200.757 11.7018 200.57C11.781 200.57 11.8338 200.543 11.9131 200.543C12.5999 200.089 12.2301 199.635 11.9395 199.154C11.9923 198.62 11.9923 198.086 11.2263 198.059C11.1206 198.059 11.015 198.006 10.9886 197.872C10.8829 197.659 10.6716 197.685 10.4867 197.685C10.1961 197.472 9.90555 197.499 9.61499 197.712C9.37726 197.739 9.11311 197.739 8.87538 197.766C8.58481 197.766 8.26783 197.739 7.97727 197.739C8.00368 197.499 8.00369 197.285 8.0301 197.045C8.21501 196.991 8.24142 196.831 8.24142 196.671C8.42632 196.51 8.47915 196.323 8.47915 196.11C8.71689 195.816 8.50557 195.602 8.34708 195.389C8.29425 195.309 8.21501 195.228 8.16218 195.148C8.10935 194.935 7.95086 194.801 7.73954 194.721C7.66029 194.668 7.58105 194.588 7.50181 194.534C7.34332 194.454 7.18483 194.374 7.02634 194.294C6.94709 194.267 6.86785 194.24 6.7886 194.214L6.81502 194.187C6.44521 194 6.04899 194.134 5.67918 194.08C5.67918 194.134 5.62635 194.16 5.54711 194.16C5.36221 194.187 5.1773 194.187 5.15089 194.401C5.01881 194.427 4.91315 194.481 4.93957 194.668C4.78108 194.641 4.67542 194.721 4.70184 194.908C4.51693 194.881 4.43769 194.935 4.4641 195.148C4.38486 195.148 4.30561 195.148 4.22637 195.148C4.06788 195.202 3.90939 195.255 3.7509 195.335C3.67166 195.415 3.59241 195.496 3.51317 195.576C2.95846 195.549 2.40375 195.736 1.87545 195.362C1.71696 195.042 1.58489 194.721 1.4264 194.401C1.45282 194.347 1.45282 194.294 1.4264 194.24C1.55848 193.92 1.69055 193.573 1.82262 193.226C1.76979 193.145 1.79621 193.065 1.87545 193.012C2.29809 192.611 2.29809 192.211 1.87545 191.81C1.79621 191.757 1.71696 191.677 1.63772 191.596C1.26791 191.116 0.660372 191.463 0.237736 191.169C0.184906 191.116 0.105658 191.089 0.0528288 191.036C0.0528288 190.902 0.0264164 190.769 0.0264164 190.635C0.0264164 190.154 0 189.674 0 189.22C0.0264148 189.006 0.026414 188.766 0.0528288 188.552C0.290562 188.231 0.290563 187.858 0.264148 187.457C0.290563 187.323 0.369808 187.19 0.475467 187.11C0.686786 187.03 0.766028 186.869 0.713199 186.629C1.03018 186.629 1.08301 186.362 1.16225 186.148C1.4264 185.988 1.47923 185.721 1.55848 185.454C1.71696 185.134 1.87545 184.84 2.03394 184.519C2.00752 184.412 2.06035 184.332 2.16601 184.306C2.40375 184.226 2.48299 184.012 2.53582 183.798C2.58865 183.745 2.61507 183.665 2.64148 183.585C2.87921 183.504 2.90563 183.291 2.98487 183.104C3.11695 182.97 3.24902 182.837 3.3811 182.677C3.53958 182.677 3.69807 182.677 3.77732 182.49C3.83015 182.436 3.90939 182.409 3.96222 182.356C4.33203 182.276 4.54335 181.982 4.72825 181.688C4.8075 181.555 4.91315 181.448 5.01881 181.368C5.25655 181.128 5.59994 181.047 5.86409 180.861C6.02257 180.7 6.07541 180.46 6.18107 180.273C6.33956 180.033 6.49804 179.766 6.65653 179.525C6.7886 179.365 6.97351 179.258 7.18483 179.231C7.71312 179.312 7.87161 178.884 8.10934 178.591C8.34708 178.43 8.58481 178.35 8.84896 178.27C9.24518 178.163 9.61499 178.217 9.95838 178.35C10.3018 178.43 10.5923 178.617 10.9621 178.537C11.0414 178.51 11.1471 178.484 11.2263 178.43C11.3848 178.35 11.5169 178.243 11.6489 178.11C11.781 177.923 11.8338 177.709 11.9395 177.522C11.9923 177.442 12.0452 177.389 12.1244 177.335C12.2301 177.255 12.3093 177.175 12.3621 177.042C12.3885 176.908 12.3357 176.828 12.2036 176.774C12.1244 176.774 12.0451 176.774 11.9395 176.801C11.5961 176.881 11.2791 176.935 11.015 176.614C10.9621 176.534 10.8829 176.454 10.8565 176.374C10.7508 176.134 10.6452 175.893 10.5659 175.653C10.4867 175.199 9.93197 174.611 10.9093 174.504C11.0942 174.531 11.2791 174.611 11.464 174.611C11.5433 174.611 11.6489 174.585 11.7282 174.558C11.8338 174.478 11.9395 174.398 12.0451 174.318C12.2565 174.211 12.4678 174.131 12.6527 173.997C12.8376 173.864 13.0489 173.757 13.2338 173.623C13.3659 173.49 13.4715 173.356 13.5508 173.196C13.63 173.036 13.7093 172.875 13.8149 172.688C13.8678 172.608 13.9206 172.528 13.9734 172.448C13.9998 172.395 14.0263 172.368 14.0527 172.315C14.2112 171.674 14.9244 171.78 15.2413 171.353C15.3206 171.3 15.4262 171.246 15.5055 171.246C15.664 171.273 15.7696 171.326 15.8489 171.46C15.9281 171.487 15.8225 171.727 16.0338 171.62C16.1659 171.487 16.2979 171.353 16.43 171.246C16.6149 171.113 16.7998 170.979 16.9055 170.766C16.9583 170.685 17.0111 170.605 17.064 170.525C17.3017 170.125 17.7243 169.938 18.0413 169.644C18.3319 169.457 18.7281 169.51 19.0187 169.297C19.0451 169.19 19.1243 169.163 19.23 169.217C19.8903 168.682 20.7356 168.549 21.2111 169.083C21.6866 169.591 22.2413 169.11 22.6903 169.457C22.8224 169.564 22.9016 169.323 22.928 169.163C22.9545 169.056 22.9016 168.789 23.1658 168.896C23.8262 169.136 23.6677 168.789 23.5092 168.415C23.4299 168.255 23.5092 168.122 23.6677 168.015C23.8261 168.042 23.9846 168.068 24.1431 168.095C24.5658 168.576 24.645 168.015 24.8563 167.855C25.2525 167.801 25.6488 167.668 26.045 167.828C26.0978 168.389 25.6488 169.003 26.2035 169.51C26.3091 169.644 26.3884 169.804 26.494 169.938C26.7318 169.938 26.9431 169.938 27.1808 169.938C27.2865 169.724 27.3921 169.537 27.6563 169.484C27.6827 169.43 27.6827 169.404 27.7091 169.35C27.7884 169.323 27.8676 169.297 27.9469 169.243C27.9997 169.243 28.0525 169.217 28.1054 169.19C28.3167 169.217 28.4487 169.083 28.5808 168.95C28.7129 168.95 28.7657 168.869 28.8185 168.763C28.8714 168.496 28.9506 168.442 29.0563 168.362Z" fill="#4F5E7D"/>
<circle cx="23" cy="23" r="23" fill="#4328E7"/>
<circle cx="23" cy="79" r="23" fill="#FF6283"/>
<path d="M59.848 19.4H74.088V20.52H59.848V19.4ZM64.744 15.56L66.008 15.608C65.72 22.872 64.808 27.336 60.456 30.056C60.296 29.8 59.816 29.272 59.544 29.032C63.768 26.696 64.536 22.392 64.744 15.56ZM67.416 20.232H68.632V27.96C68.632 28.584 68.76 28.712 69.56 28.712C69.944 28.712 71.928 28.712 72.424 28.712C73.08 28.712 73.192 28.408 73.256 26.856C73.544 27.064 74.04 27.272 74.376 27.336C74.232 29.256 73.864 29.832 72.504 29.832C72.136 29.832 69.8 29.832 69.448 29.832C67.848 29.832 67.416 29.432 67.416 27.976V20.232ZM68.52 16.584L69.304 15.928C70.296 16.584 71.592 17.576 72.248 18.2L71.432 18.952C70.808 18.312 69.528 17.288 68.52 16.584ZM71.96 21.384L73.048 21.848C71.24 25.112 68.248 27.896 64.76 29.544C64.568 29.256 64.216 28.84 63.928 28.584C67.352 27.112 70.312 24.456 71.96 21.384ZM78.504 15.656H79.656V20.776C79.656 24.104 79.352 27.624 76.536 30.28C76.36 30.008 75.96 29.592 75.688 29.4C78.232 26.952 78.504 23.752 78.504 20.776V15.656ZM76.584 18.84L77.496 18.968C77.464 20.264 77.224 22.008 76.808 23.144L75.88 22.76C76.264 21.768 76.52 20.12 76.584 18.84ZM81.064 18.584L82.104 18.984C81.64 20.072 81.096 21.416 80.648 22.264L79.896 21.912C80.296 21.032 80.824 19.576 81.064 18.584ZM79.32 24.52C79.848 24.952 81.608 26.824 82.04 27.288L81.224 28.216C80.68 27.448 79.192 25.784 78.552 25.144L79.32 24.52ZM82.088 16.872H90.36V18.04H82.088V16.872ZM86.296 17.352H87.56V28.536C87.56 29.352 87.368 29.752 86.792 29.96C86.2 30.168 85.192 30.184 83.672 30.184C83.608 29.832 83.384 29.256 83.192 28.904C84.36 28.952 85.528 28.936 85.864 28.92C86.184 28.92 86.296 28.824 86.296 28.52V17.352ZM92.168 18.664H105.944V19.768H92.168V18.664ZM92.104 25.016H106.024V26.152H92.104V25.016ZM102.92 15.896L104.2 16.312C103.544 17.192 102.76 18.12 102.136 18.744L101.128 18.36C101.736 17.704 102.504 16.632 102.92 15.896ZM98.36 15.576H99.56V22.936H98.36V15.576ZM93.912 16.488L94.936 16.008C95.64 16.664 96.408 17.592 96.728 18.232L95.656 18.776C95.336 18.136 94.6 17.176 93.912 16.488ZM100.584 23.672L101.288 23.064C102.216 23.432 103.448 23.992 104.104 24.408L103.352 25.096C102.76 24.664 101.544 24.072 100.584 23.672ZM98.424 23.288H99.688C99.256 27.112 98.152 29.32 92.36 30.296C92.248 29.976 91.96 29.448 91.736 29.192C97.192 28.376 98.072 26.568 98.424 23.288ZM97.912 19.112L98.904 19.528C97.56 21.432 95.096 22.984 92.632 23.704C92.456 23.384 92.104 22.936 91.832 22.68C94.264 22.104 96.712 20.728 97.912 19.112ZM99.976 19.08C101.176 20.712 103.608 21.992 106.168 22.52C105.912 22.744 105.576 23.208 105.416 23.528C102.808 22.872 100.328 21.4 99 19.464L99.976 19.08ZM99.752 25.384C100.664 27.672 102.856 28.824 106.408 29.128C106.136 29.4 105.8 29.928 105.656 30.28C101.944 29.8 99.736 28.424 98.648 25.624L99.752 25.384Z" fill="#FEE1F1"/>
<path d="M59.896 79.904H68.104V81.008H59.896V79.904ZM63.64 78.224H64.808V87.264H63.64V78.224ZM63.608 80.368L64.536 80.928C63.592 82.832 61.784 84.96 60.168 86.144C60.008 85.808 59.688 85.36 59.432 85.088C61 84.112 62.744 82.144 63.608 80.368ZM67.384 72.752L68.136 73.76C66.04 74.352 62.792 74.736 60.12 74.912C60.088 74.64 59.928 74.192 59.784 73.92C62.424 73.696 65.592 73.312 67.384 72.752ZM60.248 75.984L61.16 75.584C61.784 76.352 62.376 77.392 62.616 78.112L61.656 78.56C61.432 77.856 60.84 76.768 60.248 75.984ZM63.096 75.424L64.04 75.136C64.52 75.904 64.984 76.944 65.144 77.632L64.136 77.984C63.992 77.28 63.56 76.224 63.096 75.424ZM66.936 75.072L68.104 75.424C67.592 76.48 66.92 77.744 66.408 78.544L65.496 78.224C65.992 77.376 66.616 76.016 66.936 75.072ZM72.52 72.848L73.704 73.328C72.6 74.752 70.888 76.128 69.368 77.008C69.144 76.736 68.792 76.352 68.472 76.112C69.896 75.376 71.608 74.08 72.52 72.848ZM72.968 77.248L74.12 77.728C72.936 79.216 71.096 80.656 69.448 81.568C69.24 81.296 68.888 80.896 68.568 80.672C70.104 79.888 71.96 78.544 72.968 77.248ZM73.336 81.76L74.52 82.224C73.192 84.384 70.968 86.192 68.52 87.28C68.328 86.976 67.992 86.544 67.672 86.272C69.992 85.36 72.2 83.68 73.336 81.76ZM64.2 81.616L64.952 80.928C66.104 81.792 67.352 83.024 67.928 83.856L67.112 84.64C66.52 83.792 65.304 82.496 64.2 81.616ZM78.504 72.656H79.656V77.776C79.656 81.104 79.352 84.624 76.536 87.28C76.36 87.008 75.96 86.592 75.688 86.4C78.232 83.952 78.504 80.752 78.504 77.776V72.656ZM76.584 75.84L77.496 75.968C77.464 77.264 77.224 79.008 76.808 80.144L75.88 79.76C76.264 78.768 76.52 77.12 76.584 75.84ZM81.064 75.584L82.104 75.984C81.64 77.072 81.096 78.416 80.648 79.264L79.896 78.912C80.296 78.032 80.824 76.576 81.064 75.584ZM79.32 81.52C79.848 81.952 81.608 83.824 82.04 84.288L81.224 85.216C80.68 84.448 79.192 82.784 78.552 82.144L79.32 81.52ZM82.088 73.872H90.36V75.04H82.088V73.872ZM86.296 74.352H87.56V85.536C87.56 86.352 87.368 86.752 86.792 86.96C86.2 87.168 85.192 87.184 83.672 87.184C83.608 86.832 83.384 86.256 83.192 85.904C84.36 85.952 85.528 85.936 85.864 85.92C86.184 85.92 86.296 85.824 86.296 85.52V74.352ZM92.168 75.664H105.944V76.768H92.168V75.664ZM92.104 82.016H106.024V83.152H92.104V82.016ZM102.92 72.896L104.2 73.312C103.544 74.192 102.76 75.12 102.136 75.744L101.128 75.36C101.736 74.704 102.504 73.632 102.92 72.896ZM98.36 72.576H99.56V79.936H98.36V72.576ZM93.912 73.488L94.936 73.008C95.64 73.664 96.408 74.592 96.728 75.232L95.656 75.776C95.336 75.136 94.6 74.176 93.912 73.488ZM100.584 80.672L101.288 80.064C102.216 80.432 103.448 80.992 104.104 81.408L103.352 82.096C102.76 81.664 101.544 81.072 100.584 80.672ZM98.424 80.288H99.688C99.256 84.112 98.152 86.32 92.36 87.296C92.248 86.976 91.96 86.448 91.736 86.192C97.192 85.376 98.072 83.568 98.424 80.288ZM97.912 76.112L98.904 76.528C97.56 78.432 95.096 79.984 92.632 80.704C92.456 80.384 92.104 79.936 91.832 79.68C94.264 79.104 96.712 77.728 97.912 76.112ZM99.976 76.08C101.176 77.712 103.608 78.992 106.168 79.52C105.912 79.744 105.576 80.208 105.416 80.528C102.808 79.872 100.328 78.4 99 76.464L99.976 76.08ZM99.752 82.384C100.664 84.672 102.856 85.824 106.408 86.128C106.136 86.4 105.8 86.928 105.656 87.28C101.944 86.8 99.736 85.424 98.648 82.624L99.752 82.384Z" fill="#FEE1F1"/>
<path d="M64.408 133.504H67.48V134.672H64.408V133.504ZM63.976 128.576H65.208V141.392L63.976 141.552V128.576ZM61 131.808H62.168V141.84L61 142V131.808ZM59.704 141.792C61.64 141.488 64.648 140.96 67.48 140.448L67.576 141.648C64.84 142.16 61.928 142.688 59.912 143.072L59.704 141.792ZM72.984 132.064L73.976 133.024C72.648 134.032 70.776 135.04 69.096 135.84C69.016 135.584 68.792 135.168 68.632 134.912C70.216 134.112 71.976 132.992 72.984 132.064ZM68.28 128.576H69.544V140.608C69.544 141.44 69.656 141.6 70.328 141.6C70.648 141.6 72.136 141.6 72.52 141.6C73.192 141.6 73.288 141.024 73.368 138.752C73.688 138.992 74.184 139.2 74.52 139.28C74.376 141.872 74.056 142.768 72.616 142.768C72.296 142.768 70.488 142.768 70.184 142.768C68.696 142.768 68.28 142.304 68.28 140.576V128.576ZM85.16 128.56H86.296V139.712H85.16V128.56ZM80.12 135.168L88.744 131.536L89.192 132.56L80.584 136.224L80.12 135.168ZM81.848 130.064H83V140.768C83 141.648 83.192 141.84 84.264 141.84C84.792 141.84 87.48 141.84 88.12 141.84C89.064 141.84 89.224 141.408 89.336 139.568C89.624 139.76 90.088 139.952 90.424 140.016C90.232 142.224 89.848 142.928 88.168 142.928C87.736 142.928 84.632 142.928 84.232 142.928C82.392 142.928 81.848 142.496 81.848 140.752V130.064ZM88.536 131.696H88.392L88.68 131.456L88.888 131.28L89.736 131.6L89.688 131.824C89.688 134.832 89.64 137.232 89.528 137.856C89.432 138.496 89.128 138.8 88.664 138.912C88.232 139.024 87.592 139.024 87.16 139.024C87.112 138.704 87.016 138.256 86.872 137.984C87.24 138 87.768 138 87.944 138C88.184 138 88.344 137.936 88.424 137.568C88.52 137.152 88.536 134.88 88.536 131.696ZM75.656 132.416H80.744V133.552H75.656V132.416ZM77.72 128.752H78.856V139.136H77.72V128.752ZM75.512 139.552C76.808 139.072 78.776 138.24 80.68 137.424L80.936 138.496C79.224 139.312 77.416 140.128 75.992 140.736L75.512 139.552ZM92.008 130.64H106.024V131.776H92.008V130.64ZM95.912 136.352H103.432V137.392H95.912V136.352ZM95.064 133.632H103.24V134.704H96.248V143.28H95.064V133.632ZM102.968 133.632H104.136V141.792C104.136 142.496 103.992 142.864 103.448 143.056C102.936 143.248 102.04 143.248 100.664 143.248C100.616 142.912 100.44 142.416 100.264 142.08C101.336 142.128 102.312 142.112 102.6 142.112C102.872 142.096 102.968 142.016 102.968 141.776V133.632ZM97.24 128.56L98.456 128.848C97.368 132.368 95.448 135.92 92.392 138.064C92.232 137.792 91.864 137.376 91.624 137.136C94.488 135.168 96.376 131.776 97.24 128.56ZM95.912 139.056H103.432V140.096H95.912V139.056ZM107.848 132.4H122.088V133.52H107.848V132.4ZM112.744 128.56L114.008 128.608C113.72 135.872 112.808 140.336 108.456 143.056C108.296 142.8 107.816 142.272 107.544 142.032C111.768 139.696 112.536 135.392 112.744 128.56ZM115.416 133.232H116.632V140.96C116.632 141.584 116.76 141.712 117.56 141.712C117.944 141.712 119.928 141.712 120.424 141.712C121.08 141.712 121.192 141.408 121.256 139.856C121.544 140.064 122.04 140.272 122.376 140.336C122.232 142.256 121.864 142.832 120.504 142.832C120.136 142.832 117.8 142.832 117.448 142.832C115.848 142.832 115.416 142.432 115.416 140.976V133.232ZM116.52 129.584L117.304 128.928C118.296 129.584 119.592 130.576 120.248 131.2L119.432 131.952C118.808 131.312 117.528 130.288 116.52 129.584ZM119.96 134.384L121.048 134.848C119.24 138.112 116.248 140.896 112.76 142.544C112.568 142.256 112.216 141.84 111.928 141.584C115.352 140.112 118.312 137.456 119.96 134.384ZM126.504 128.656H127.656V133.776C127.656 137.104 127.352 140.624 124.536 143.28C124.36 143.008 123.96 142.592 123.688 142.4C126.232 139.952 126.504 136.752 126.504 133.776V128.656ZM124.584 131.84L125.496 131.968C125.464 133.264 125.224 135.008 124.808 136.144L123.88 135.76C124.264 134.768 124.52 133.12 124.584 131.84ZM129.064 131.584L130.104 131.984C129.64 133.072 129.096 134.416 128.648 135.264L127.896 134.912C128.296 134.032 128.824 132.576 129.064 131.584ZM127.32 137.52C127.848 137.952 129.608 139.824 130.04 140.288L129.224 141.216C128.68 140.448 127.192 138.784 126.552 138.144L127.32 137.52ZM130.088 129.872H138.36V131.04H130.088V129.872ZM134.296 130.352H135.56V141.536C135.56 142.352 135.368 142.752 134.792 142.96C134.2 143.168 133.192 143.184 131.672 143.184C131.608 142.832 131.384 142.256 131.192 141.904C132.36 141.952 133.528 141.936 133.864 141.92C134.184 141.92 134.296 141.824 134.296 141.52V130.352ZM141.992 134.624H151.144V135.792H141.992V134.624ZM150.744 134.624H151.992C151.992 134.624 151.976 135.04 151.96 135.2C151.736 140.16 151.512 142.016 150.936 142.624C150.616 143.024 150.264 143.136 149.704 143.184C149.176 143.232 148.168 143.216 147.16 143.168C147.144 142.8 146.984 142.304 146.76 141.952C147.816 142.048 148.808 142.064 149.192 142.064C149.512 142.064 149.704 142.032 149.864 141.856C150.296 141.424 150.536 139.6 150.744 134.848V134.624ZM144.184 128.896L145.448 129.264C144.296 131.968 142.408 134.352 140.392 135.888C140.168 135.632 139.656 135.168 139.352 134.944C141.4 133.568 143.176 131.36 144.184 128.896ZM149.768 128.864C150.808 131.008 152.872 133.44 154.616 134.672C154.296 134.928 153.848 135.408 153.608 135.744C151.832 134.304 149.816 131.712 148.616 129.328L149.768 128.864ZM145.368 134.944H146.648C146.28 138.448 145.448 141.76 140.984 143.36C140.84 143.056 140.488 142.576 140.216 142.32C144.408 140.928 145.048 137.968 145.368 134.944ZM155.96 131.024H170.056V132.176H155.96V131.024ZM163.144 132.96H164.36V143.296H163.144V132.96ZM158.552 135.104H168.488V136.256H159.736V141.792H158.552V135.104ZM167.96 135.104H169.176V140.288C169.176 140.912 169.032 141.264 168.52 141.456C168.024 141.632 167.176 141.648 165.816 141.632C165.752 141.312 165.576 140.864 165.4 140.544C166.424 140.576 167.352 140.576 167.608 140.56C167.88 140.544 167.96 140.48 167.96 140.272V135.104ZM161.384 128.56L162.616 128.848C161.464 132.576 159.464 136.336 156.2 138.624C156.04 138.336 155.72 137.856 155.48 137.6C158.504 135.536 160.44 131.936 161.384 128.56Z" fill="#FEE1F1"/>
<path d="M64.408 188.504H67.48V189.672H64.408V188.504ZM63.976 183.576H65.208V196.392L63.976 196.552V183.576ZM61 186.808H62.168V196.84L61 197V186.808ZM59.704 196.792C61.64 196.488 64.648 195.96 67.48 195.448L67.576 196.648C64.84 197.16 61.928 197.688 59.912 198.072L59.704 196.792ZM72.984 187.064L73.976 188.024C72.648 189.032 70.776 190.04 69.096 190.84C69.016 190.584 68.792 190.168 68.632 189.912C70.216 189.112 71.976 187.992 72.984 187.064ZM68.28 183.576H69.544V195.608C69.544 196.44 69.656 196.6 70.328 196.6C70.648 196.6 72.136 196.6 72.52 196.6C73.192 196.6 73.288 196.024 73.368 193.752C73.688 193.992 74.184 194.2 74.52 194.28C74.376 196.872 74.056 197.768 72.616 197.768C72.296 197.768 70.488 197.768 70.184 197.768C68.696 197.768 68.28 197.304 68.28 195.576V183.576ZM85.16 183.56H86.296V194.712H85.16V183.56ZM80.12 190.168L88.744 186.536L89.192 187.56L80.584 191.224L80.12 190.168ZM81.848 185.064H83V195.768C83 196.648 83.192 196.84 84.264 196.84C84.792 196.84 87.48 196.84 88.12 196.84C89.064 196.84 89.224 196.408 89.336 194.568C89.624 194.76 90.088 194.952 90.424 195.016C90.232 197.224 89.848 197.928 88.168 197.928C87.736 197.928 84.632 197.928 84.232 197.928C82.392 197.928 81.848 197.496 81.848 195.752V185.064ZM88.536 186.696H88.392L88.68 186.456L88.888 186.28L89.736 186.6L89.688 186.824C89.688 189.832 89.64 192.232 89.528 192.856C89.432 193.496 89.128 193.8 88.664 193.912C88.232 194.024 87.592 194.024 87.16 194.024C87.112 193.704 87.016 193.256 86.872 192.984C87.24 193 87.768 193 87.944 193C88.184 193 88.344 192.936 88.424 192.568C88.52 192.152 88.536 189.88 88.536 186.696ZM75.656 187.416H80.744V188.552H75.656V187.416ZM77.72 183.752H78.856V194.136H77.72V183.752ZM75.512 194.552C76.808 194.072 78.776 193.24 80.68 192.424L80.936 193.496C79.224 194.312 77.416 195.128 75.992 195.736L75.512 194.552ZM91.832 189.368H106.184V190.52H91.832V189.368ZM92.824 184.632H105.256V185.784H92.824V184.632ZM99.176 191.176H100.424V196.28C100.424 196.824 100.584 196.936 101.432 196.936C101.8 196.936 103.752 196.936 104.264 196.936C105.064 196.936 105.176 196.584 105.272 194.376C105.56 194.6 106.104 194.808 106.44 194.872C106.264 197.448 105.896 198.12 104.344 198.12C103.976 198.12 101.656 198.12 101.304 198.12C99.64 198.12 99.176 197.72 99.176 196.28V191.176ZM98.168 185.096H99.384C99.272 191.272 99.112 196.136 92.408 198.328C92.264 198.008 91.912 197.56 91.64 197.304C98.088 195.336 98.088 190.872 98.168 185.096ZM107.848 187.4H122.088V188.52H107.848V187.4ZM112.744 183.56L114.008 183.608C113.72 190.872 112.808 195.336 108.456 198.056C108.296 197.8 107.816 197.272 107.544 197.032C111.768 194.696 112.536 190.392 112.744 183.56ZM115.416 188.232H116.632V195.96C116.632 196.584 116.76 196.712 117.56 196.712C117.944 196.712 119.928 196.712 120.424 196.712C121.08 196.712 121.192 196.408 121.256 194.856C121.544 195.064 122.04 195.272 122.376 195.336C122.232 197.256 121.864 197.832 120.504 197.832C120.136 197.832 117.8 197.832 117.448 197.832C115.848 197.832 115.416 197.432 115.416 195.976V188.232ZM116.52 184.584L117.304 183.928C118.296 184.584 119.592 185.576 120.248 186.2L119.432 186.952C118.808 186.312 117.528 185.288 116.52 184.584ZM119.96 189.384L121.048 189.848C119.24 193.112 116.248 195.896 112.76 197.544C112.568 197.256 112.216 196.84 111.928 196.584C115.352 195.112 118.312 192.456 119.96 189.384ZM126.504 183.656H127.656V188.776C127.656 192.104 127.352 195.624 124.536 198.28C124.36 198.008 123.96 197.592 123.688 197.4C126.232 194.952 126.504 191.752 126.504 188.776V183.656ZM124.584 186.84L125.496 186.968C125.464 188.264 125.224 190.008 124.808 191.144L123.88 190.76C124.264 189.768 124.52 188.12 124.584 186.84ZM129.064 186.584L130.104 186.984C129.64 188.072 129.096 189.416 128.648 190.264L127.896 189.912C128.296 189.032 128.824 187.576 129.064 186.584ZM127.32 192.52C127.848 192.952 129.608 194.824 130.04 195.288L129.224 196.216C128.68 195.448 127.192 193.784 126.552 193.144L127.32 192.52ZM130.088 184.872H138.36V186.04H130.088V184.872ZM134.296 185.352H135.56V196.536C135.56 197.352 135.368 197.752 134.792 197.96C134.2 198.168 133.192 198.184 131.672 198.184C131.608 197.832 131.384 197.256 131.192 196.904C132.36 196.952 133.528 196.936 133.864 196.92C134.184 196.92 134.296 196.824 134.296 196.52V185.352ZM141.992 189.624H151.144V190.792H141.992V189.624ZM150.744 189.624H151.992C151.992 189.624 151.976 190.04 151.96 190.2C151.736 195.16 151.512 197.016 150.936 197.624C150.616 198.024 150.264 198.136 149.704 198.184C149.176 198.232 148.168 198.216 147.16 198.168C147.144 197.8 146.984 197.304 146.76 196.952C147.816 197.048 148.808 197.064 149.192 197.064C149.512 197.064 149.704 197.032 149.864 196.856C150.296 196.424 150.536 194.6 150.744 189.848V189.624ZM144.184 183.896L145.448 184.264C144.296 186.968 142.408 189.352 140.392 190.888C140.168 190.632 139.656 190.168 139.352 189.944C141.4 188.568 143.176 186.36 144.184 183.896ZM149.768 183.864C150.808 186.008 152.872 188.44 154.616 189.672C154.296 189.928 153.848 190.408 153.608 190.744C151.832 189.304 149.816 186.712 148.616 184.328L149.768 183.864ZM145.368 189.944H146.648C146.28 193.448 145.448 196.76 140.984 198.36C140.84 198.056 140.488 197.576 140.216 197.32C144.408 195.928 145.048 192.968 145.368 189.944ZM155.96 186.024H170.056V187.176H155.96V186.024ZM163.144 187.96H164.36V198.296H163.144V187.96ZM158.552 190.104H168.488V191.256H159.736V196.792H158.552V190.104ZM167.96 190.104H169.176V195.288C169.176 195.912 169.032 196.264 168.52 196.456C168.024 196.632 167.176 196.648 165.816 196.632C165.752 196.312 165.576 195.864 165.4 195.544C166.424 195.576 167.352 195.576 167.608 195.56C167.88 195.544 167.96 195.48 167.96 195.272V190.104ZM161.384 183.56L162.616 183.848C161.464 187.576 159.464 191.336 156.2 193.624C156.04 193.336 155.72 192.856 155.48 192.6C158.504 190.536 160.44 186.936 161.384 183.56Z" fill="#FEE1F1"/>
</svg>
