<svg width="30" height="70" viewBox="0 0 30 70" fill="none" xmlns="http://www.w3.org/2000/svg">
<path d="M27.1764 3.41468C26.9411 3.76792 26.5881 4.12116 26.3529 4.59215H29.294C29.294 5.06314 29.294 5.53413 29.294 5.88737C29.294 6.24061 29.294 6.7116 29.294 7.06485H28.2352V5.53413H18.8234V7.18259H17.7646C17.7646 6.7116 17.7646 6.24061 17.7646 5.88737C17.7646 5.53413 17.7646 5.06314 17.7646 4.4744H25.1764C25.4117 4.12116 25.7646 3.65017 25.9999 3.17918C26.2352 2.70819 26.5881 2.11945 26.8234 1.53072C27.0587 1.88396 27.5293 2.00171 28.2352 2.2372C27.7646 2.70819 27.4117 3.06143 27.1764 3.41468ZM26.9411 6.82935C26.3529 8.36007 25.5293 9.65529 24.4705 10.5973C25.647 11.186 27.294 11.4215 29.5293 11.4215C29.1764 11.7747 28.9411 12.128 28.7058 12.4812C27.647 12.3635 26.5881 12.2457 25.7646 12.0102C24.9411 11.7747 24.1176 11.5392 23.4117 11.0683C22.4705 11.5392 21.647 11.8925 20.9411 12.0102C20.2352 12.2457 19.4117 12.3635 18.3529 12.4812C18.3529 12.128 18.1176 11.7747 17.647 11.4215C18.8234 11.3038 19.8823 11.186 20.7058 10.9505C21.5293 10.715 22.1176 10.4795 22.5882 10.244C21.8823 9.65529 21.1764 8.71331 20.5881 7.53584C20.3529 7.53584 20.1176 7.53584 19.647 7.53584V6.82935C20.3529 6.82935 21.294 6.82935 22.2352 6.82935H26.9411ZM23.8823 1.53072C22.2352 1.64846 20.3529 1.88396 18.3529 2.00171C18.2352 1.64846 18.1176 1.17747 17.8823 0.94198C19.9999 0.94198 21.9999 0.824232 23.9999 0.706485C25.8823 0.47099 27.294 0.235495 28.1176 0C28.3529 0.588737 28.5882 0.94198 28.9411 1.17747C27.294 1.29522 25.647 1.41297 23.8823 1.53072ZM21.1764 4.00341C20.7058 4.12116 20.3529 4.23891 20.1176 4.35666C19.9999 4.00341 19.7646 3.41468 19.294 2.59044C19.647 2.4727 19.9999 2.35495 20.3529 2.11945C20.7058 2.94369 20.9411 3.53242 21.1764 4.00341ZM25.294 7.88908H21.7646C22.2352 8.94881 22.8234 9.65529 23.5293 10.1263C24.2352 9.65529 24.8234 8.94881 25.294 7.88908ZM24.3529 3.65017C23.9999 3.76792 23.5293 3.88567 23.294 4.12116C23.1764 3.65017 22.8234 3.06143 22.3529 2.35495C22.7058 2.2372 23.0587 2.00171 23.4117 1.88396C23.8823 2.70819 24.2352 3.29693 24.3529 3.65017Z" fill="white"/>
<path d="M19.8822 25.9044C18.8234 26.1399 17.9998 26.2576 17.6469 26.3754C17.5292 25.9044 17.4116 25.4334 17.2939 24.9624C17.9998 24.9624 18.4704 24.8447 18.941 24.8447C19.4116 24.8447 19.8822 24.7269 20.4704 24.7269V22.6075H19.6469C18.941 22.6075 18.2351 22.6075 17.7645 22.7252V21.6655C18.3528 21.6655 18.941 21.6655 19.5292 21.6655H20.4704V19.8993C19.7645 19.8993 19.1763 20.017 18.941 20.017C18.5881 20.017 18.2351 20.1348 17.8822 20.1348C17.7645 19.6638 17.6469 19.1928 17.5292 18.8395C18.1175 18.7218 18.5881 18.3685 19.0587 17.7798C19.5292 17.1911 19.8822 16.4846 20.1175 15.7781H19.2939C18.7057 15.7781 18.1175 15.7781 17.5292 15.7781V14.7184C18.1175 14.7184 18.7057 14.7184 19.2939 14.7184H22.8234C23.5292 14.7184 24.1175 14.7184 24.5881 14.7184V15.7781C23.9998 15.7781 23.4116 15.7781 22.8234 15.7781H20.5881L21.5292 16.4846C21.1763 16.8378 20.8234 17.1911 20.4704 17.5443C20.1175 17.8976 19.7645 18.4863 19.2939 18.9573C20.5881 18.8395 21.8822 18.8395 22.941 18.7218C22.7057 18.2508 22.3528 17.7798 21.9998 17.3088C22.3528 17.0733 22.7057 16.9556 22.941 16.7201C23.2939 17.1911 23.6469 17.7798 23.9998 18.2508C24.3528 18.7218 24.5881 19.1928 24.941 19.546C24.5881 19.7815 24.2351 20.017 23.8822 20.2525C23.7645 20.017 23.6469 19.7815 23.5292 19.546C22.7057 19.6638 22.1175 19.7815 21.6469 19.7815V21.6655H22.7057C23.2939 21.6655 23.8822 21.6655 24.3528 21.6655V22.7252C23.8822 22.6075 23.4116 22.6075 22.8234 22.6075H21.7645V24.6092C22.8234 24.4914 23.8822 24.2559 25.0587 24.1382C24.941 24.4914 24.941 24.8447 24.941 25.1979C22.4704 25.4334 20.941 25.6689 19.8822 25.9044ZM26.4704 17.7798V21.901C26.4704 22.7252 26.4704 23.3139 26.4704 23.7849H25.2939C25.2939 23.3139 25.2939 22.6075 25.2939 21.901V17.6621C25.2939 16.9556 25.2939 16.3668 25.2939 15.8959H26.4704C26.4704 16.3668 26.4704 16.9556 26.4704 17.7798ZM29.2939 15.8959V24.9624C29.2939 25.7866 29.1763 26.2576 28.8234 26.4931C28.4704 26.6109 27.8822 26.8464 26.8234 26.9641C26.7057 26.4931 26.5881 26.0221 26.3528 25.6689C27.1763 25.6689 27.6469 25.6689 27.8822 25.5511C28.1175 25.4334 28.2351 25.1979 28.2351 24.7269V16.0136C28.2351 15.1894 28.2351 14.6006 28.2351 14.1296H29.4116C29.2939 14.6006 29.2939 15.3071 29.2939 15.8959Z" fill="white"/>
<path d="M21.7645 33.3224H23.4115C23.9998 33.3224 24.7057 33.3224 25.2939 33.3224V34.1466C24.588 34.1466 23.9998 34.1466 23.4115 34.1466H19.0586C18.3527 34.1466 17.6468 34.1466 17.0586 34.1466V33.2047C17.6468 33.2047 18.3527 33.2047 19.0586 33.2047H20.588C20.588 32.9692 20.4704 32.7337 20.4704 32.4982C20.8233 32.3804 21.1762 32.3804 21.6468 32.3804C21.7645 32.7337 21.7645 32.9692 21.7645 33.3224ZM17.7645 40.3873C17.6468 40.1518 17.4115 39.9163 17.0586 39.6808C17.6468 39.3275 18.3527 38.6211 18.9409 37.7968C19.1762 38.1501 19.5292 38.3856 19.7645 38.5033C19.1762 39.2098 18.4704 39.7985 17.7645 40.3873ZM24.2351 30.3787C24.2351 30.9675 24.2351 31.674 24.3527 32.2627H18.2351C18.2351 31.674 18.2351 30.9675 18.2351 30.3787C18.2351 29.79 18.2351 29.0835 18.2351 28.4948H24.3527C24.2351 29.0835 24.1174 29.79 24.2351 30.3787ZM20.8233 39.2098V37.2081H18.2351C18.2351 36.8548 18.2351 36.3839 18.2351 36.0306C18.2351 35.6774 18.2351 35.2064 18.2351 34.7354H24.3527C24.3527 35.2064 24.2351 35.5596 24.2351 36.0306C24.2351 36.3839 24.2351 36.8548 24.3527 37.2081H21.9998V39.2098C21.9998 39.7985 21.8821 40.2695 21.6468 40.3873C21.4115 40.6228 20.8233 40.7405 20.1174 40.8583C19.9998 40.505 19.8821 40.034 19.7645 39.7985C20.4704 39.7985 20.9409 39.563 20.8233 39.2098ZM23.1762 30.0255V29.319H19.1762V30.0255H23.1762ZM23.1762 31.4385V30.732H19.1762V31.4385H23.1762ZM23.1762 36.3839V35.5596H19.1762V36.3839H23.1762ZM22.4704 38.3856C22.7057 38.1501 22.9409 37.9146 23.1762 37.6791C23.6468 38.1501 23.9998 38.6211 24.3527 38.9743L23.5292 39.6808C23.2939 39.2098 22.9409 38.8565 22.4704 38.3856ZM27.5292 39.092C26.588 39.9163 25.6468 40.505 24.7057 40.976C24.4704 40.6228 24.2351 40.2695 23.9998 40.034C24.8233 39.6808 25.7645 39.092 26.588 38.3856C27.5292 37.6791 28.3527 36.7371 29.1762 35.6774C29.4115 36.0306 29.7645 36.2661 29.9998 36.5016C29.2939 37.4436 28.4704 38.2678 27.5292 39.092ZM27.5292 30.4965C27.0586 31.0852 26.4704 31.674 25.6468 32.4982C25.4115 32.2627 25.0586 32.0272 24.8233 31.9094C25.4115 31.5562 25.8821 30.9675 26.4704 30.3787C27.0586 29.79 27.5292 29.0835 27.9998 28.2593C28.2351 28.4948 28.7057 28.7303 29.0586 29.0835C28.4704 29.4368 27.9998 29.9077 27.5292 30.4965ZM27.9998 34.3821C27.4115 35.0886 26.7057 35.7951 25.7645 36.5016C25.5292 36.2661 25.1762 36.0306 24.8233 35.7951C25.6468 35.3241 26.3527 34.7354 27.0586 34.0289C27.6468 33.3224 28.2351 32.6159 28.7057 31.9094C28.9409 32.1449 29.1762 32.4982 29.6468 32.7337C29.0586 33.0869 28.588 33.6757 27.9998 34.3821Z" fill="white"/>
<path d="M20.9411 46.3925V50.0427C20.9411 50.7492 20.9411 51.5734 20.9411 52.6331H19.9999V51.6911H18.4705V53.4574H17.5293C17.5293 52.7509 17.5293 52.0444 17.5293 51.2201V46.5103C17.5293 45.686 17.5293 44.8618 17.5293 44.1553H21.0587C20.9411 44.744 20.9411 45.5683 20.9411 46.3925ZM20.1175 50.8669V44.8618H18.5881V50.8669H20.1175ZM24.9411 44.3908H29.4117C29.4117 45.215 29.4117 45.9215 29.4117 46.628V53.8106C29.4117 54.1638 29.1764 54.5171 28.9411 54.7526C28.7058 54.9881 28.1175 55.1058 27.1764 55.2236C27.1764 54.8703 26.9411 54.5171 26.5881 53.9283C27.4117 53.9283 27.8822 53.9283 27.9999 53.8106C28.1175 53.6928 28.2352 53.6928 28.2352 53.4574V45.215H22.9411V55.2236H21.8822C21.8822 54.5171 21.8822 53.6928 21.8822 52.9864V47.099C21.8822 46.157 21.8822 45.3328 21.8822 44.5085H23.8822C24.1175 43.8021 24.2352 43.2133 24.2352 42.5068C24.8234 42.6246 25.294 42.7423 25.6469 42.7423C25.4116 42.8601 25.1764 43.4488 24.9411 44.3908ZM27.1764 51.9266H23.9999V47.099H27.1764V51.9266ZM26.2352 51.1024V47.9232H24.9411V51.1024H26.2352Z" fill="white"/>
<path d="M21.412 58.2849V60.7576H22.2355C22.8237 60.7576 23.412 60.7576 24.0002 60.7576V61.6996C23.412 61.6996 22.8237 61.6996 22.2355 61.6996H21.2943V67.3515C21.2943 67.9402 21.2943 68.529 21.2943 69.1177H20.2355C20.2355 68.529 20.2355 67.9402 20.2355 67.3515V63.8191C19.6473 64.8788 18.8237 66.0563 17.7649 67.3515C17.5296 67.116 17.2943 66.8805 16.8237 66.5273C17.6473 65.703 18.3531 64.8788 18.9414 63.8191C19.5296 62.7593 19.8826 62.0529 20.0002 61.5819H19.059C18.2355 61.5819 17.6473 61.5819 17.2943 61.5819V60.6399C17.6473 60.6399 18.2355 60.6399 19.059 60.6399H20.2355V58.2849C19.7649 58.4027 19.059 58.4027 18.0002 58.5204C17.8826 58.1672 17.7649 57.814 17.6473 57.5785C18.3531 57.5785 19.1767 57.4607 20.2355 57.343C21.2943 57.2252 22.2355 56.9897 22.9414 56.6365C23.059 56.9897 23.1767 57.4607 23.412 57.8139C23.2943 58.0494 22.5884 58.0494 21.412 58.2849ZM21.5296 63.2303C21.7649 63.1126 22.0002 62.8771 22.3531 62.5238C23.059 63.3481 23.6473 64.0546 24.1178 64.8788C23.7649 65.1143 23.412 65.3498 23.1767 65.5853C22.7061 64.7611 22.2355 63.9368 21.5296 63.2303ZM29.2943 60.6399V66.2918C29.2943 66.9983 29.2943 67.4692 29.2943 67.9402H28.2355V66.645H25.6473V68.058H24.5884C24.5884 67.2337 24.5884 66.645 24.5884 66.5273V60.6399C24.5884 60.0512 24.5884 59.3447 24.5884 58.6382H29.412C29.412 59.3447 29.2943 59.9334 29.2943 60.6399ZM28.3531 65.703V59.5802H25.7649V65.703H28.3531Z" fill="white"/>
<path d="M3.64729 4.71C4.35317 5.65198 4.82376 6.35846 4.94141 7.1827C5.05905 7.88918 4.94141 8.47792 4.47082 8.94891C4.00023 9.4199 3.52964 9.77314 2.82376 9.89089C2.82376 9.4199 2.70611 9.06666 2.35317 8.71341C3.05905 8.71341 3.41199 8.59566 3.64729 8.36017C3.76494 8.00693 3.88258 7.65369 3.88258 7.06495C3.88258 6.47621 3.41199 5.76973 2.58847 4.82775C3.1767 3.06153 3.52964 1.88406 3.64729 1.17758H2.00023V12.3636H0.941406C0.941406 11.3039 0.941406 10.3619 0.941406 9.30215V2.82604C0.941406 2.11955 0.941406 1.29532 0.941406 0.235596H5.05905C4.35317 2.4728 3.88258 3.88577 3.64729 4.71ZM11.6473 3.06153C11.6473 4.23901 11.6473 5.06324 11.6473 5.76973H9.1767C9.1767 6.47621 9.41199 7.1827 9.76494 8.00693C10.7061 7.41819 11.2943 6.82945 11.6473 6.24072C11.8826 6.71171 12.2355 7.06495 12.4708 7.1827C11.7649 7.53594 10.9414 8.00693 10.0002 8.71341C10.3532 9.30215 10.8238 9.77314 11.2943 10.1264C11.7649 10.4796 12.3532 10.8329 13.1767 11.1861C12.7061 11.4216 12.3532 11.7748 12.2355 12.2458C11.2943 11.6571 10.5885 11.0684 10.1179 10.4796C9.64729 9.89089 9.1767 9.30215 8.94141 8.47792C8.58846 7.77143 8.35317 6.82945 8.23552 5.76973H7.05905V10.8329C7.64729 10.5974 8.23552 10.2441 8.70611 9.77314C8.70611 10.1264 8.82376 10.4796 8.94141 10.9506C8.47082 11.0684 8.11788 11.3039 7.52964 11.5394C6.94141 11.7748 6.58846 12.1281 6.23552 12.4813C6.00023 12.1281 5.88258 11.8926 5.52964 11.5394C5.76494 11.3039 5.88258 10.9506 6.00023 10.4796V2.70829C6.00023 2.00181 6.00023 1.17758 6.00023 0.235596H11.7649C11.7649 0.94208 11.6473 1.88406 11.6473 3.06153ZM10.7061 2.59054V1.17758H7.05905V2.59054H10.7061ZM10.7061 4.82775V3.41478H7.05905V4.94549H10.7061V4.82775Z" fill="white"/>
<path d="M1.88235 16.367H3.52941C3.52941 15.425 3.52941 14.7185 3.52941 14.2476H4.70588C4.70588 14.7185 4.70588 15.425 4.70588 16.367H5.52941C6.23529 16.367 6.94118 16.367 7.52941 16.367V17.309C7.05882 17.309 6.35294 17.309 5.64706 17.309H4.58824V18.8397H6C6.58824 18.8397 7.17647 18.8397 7.76471 18.8397V19.7817H4.58824V21.1947H7.52941C7.52941 21.6656 7.41177 22.2544 7.41177 22.9609C7.41177 23.6674 7.41177 24.2561 7.41177 24.4916C7.41177 24.7271 7.29412 25.0803 7.05882 25.1981C6.82353 25.3158 6.35294 25.4336 5.76471 25.5513C5.64706 25.1981 5.52941 24.7271 5.41176 24.2561C5.88235 24.2561 6.23529 24.2561 6.35294 24.1383C6.47059 24.0206 6.47059 23.7851 6.47059 23.3141V22.0189H4.58824V25.0803C4.58824 25.6691 4.58824 26.2578 4.58824 26.7288H3.41176C3.41176 26.0223 3.41176 25.5513 3.41176 25.0803V22.0189H1.76471V25.5513H0.588235C0.588235 25.0803 0.588235 24.6093 0.588235 24.0206V22.8431C0.588235 22.1366 0.588235 21.5479 0.588235 21.1947H3.52941V19.6639H1.76471C1.05882 19.6639 0.588235 19.6639 0 19.6639V18.8397C0.470588 18.8397 1.05882 18.8397 1.76471 18.8397H3.52941V17.1912H1.52941C1.41176 17.6622 1.17647 18.1332 0.941177 18.3687C0.588235 18.1332 0.235294 18.0155 0 17.78C0.235294 17.4267 0.470588 16.9557 0.705882 16.4848C0.941177 16.0138 1.05882 15.425 1.17647 14.8363C1.52941 14.954 2 15.0718 2.47059 15.1895C2.23529 15.6605 2 16.0138 1.88235 16.367ZM9.76471 17.4267V22.0189C9.76471 22.4899 9.76471 23.1964 9.76471 23.9028H8.58824C8.70588 23.3141 8.70588 22.6076 8.70588 22.0189V17.4267C8.70588 17.0735 8.70588 16.6025 8.58824 16.0138H9.76471C9.76471 16.4848 9.76471 16.9557 9.76471 17.4267ZM12.3529 15.896V25.4336C12.3529 25.9046 12.1176 26.2578 11.7647 26.3755C11.4118 26.4933 10.8235 26.611 10.1176 26.7288C10 26.2578 9.88235 25.7868 9.64706 25.4336C10.2353 25.4336 10.7059 25.4336 10.9412 25.4336C11.1765 25.4336 11.2941 25.1981 11.2941 24.7271V15.896C11.2941 15.3073 11.2941 14.7185 11.2941 14.2476H12.4706C12.4706 14.7185 12.3529 15.3073 12.3529 15.896Z" fill="white"/>
</svg>
