<svg width="47" height="112" viewBox="0 0 47 112" fill="none" xmlns="http://www.w3.org/2000/svg">
<path d="M36.9876 3.29758V10.3638C36.9876 11.5415 36.9876 12.4837 36.9876 13.0726H35.8096C35.9274 12.3659 35.9274 11.5415 35.9274 10.4816V5.06414C35.3385 6.00631 34.9851 6.8307 34.6317 7.30179C34.3961 6.8307 34.1605 6.47739 33.8071 6.24185C34.2783 5.77077 34.8673 4.8286 35.3385 3.65089C35.9274 2.47319 36.3986 1.29548 36.6342 0.117771C37.1054 0.471083 37.5766 0.588854 38.0477 0.706625C37.8121 0.942166 37.4588 1.76656 36.9876 3.29758ZM44.6442 6.59516C44.4086 7.53733 44.0552 8.95058 43.5841 10.9527H45.4688C46.1755 10.9527 46.6467 10.9527 46.8823 10.9527V12.0126C46.5289 12.0126 46.0578 12.0126 45.4688 12.0126H39.8146C38.8723 12.0126 38.2833 12.0126 37.9299 12.0126V10.8349C38.2833 10.8349 38.8723 10.8349 39.6969 10.8349H42.4061C42.8773 9.18612 43.3485 7.06625 43.8197 4.47529C44.4086 4.59306 44.8798 4.71083 45.351 4.8286C45.1154 5.06414 44.8798 5.653 44.6442 6.59516ZM44.9976 2.70873C45.7044 2.70873 46.1755 2.70873 46.5289 2.70873V3.76866C46.1755 3.76866 45.7044 3.76866 44.9976 3.76866H40.0502C39.5791 3.76866 38.9901 3.76866 38.4011 3.76866V2.59096C38.9901 2.59096 39.5791 2.59096 40.0502 2.59096H44.9976V2.70873ZM41.6994 9.89274C41.2282 10.0105 40.8748 10.1283 40.6392 10.2461C40.4036 9.42166 40.2858 8.59727 40.0502 7.77287C39.8146 6.94848 39.4613 6.12408 39.1079 5.18191C39.4613 5.06414 39.8146 4.94637 40.168 4.8286C40.757 6.71293 41.2282 8.36172 41.6994 9.89274ZM43.1129 2.0021C42.8773 2.11987 42.4061 2.23764 41.9349 2.47319C41.6994 1.76656 41.346 1.17771 40.8748 0.588854C41.2282 0.471083 41.5816 0.235542 41.9349 0C42.4061 0.824395 42.7595 1.53102 43.1129 2.0021Z" fill="white"/>
<path d="M39.9321 14.8391C40.7566 14.8391 41.4634 14.8391 41.8168 14.8391V15.7812C41.3456 15.7812 40.6389 15.7812 39.5787 15.7812H38.0474C37.9296 16.2523 37.8118 16.9589 37.5762 17.7833H40.8744C40.6389 19.1966 40.4033 20.4921 40.1677 21.4342C39.9321 22.3764 39.4609 23.2008 38.9897 23.9074C38.5185 24.614 37.9296 25.2029 37.3406 25.674C36.7516 26.1451 36.0449 26.6161 35.3381 27.0872C35.1025 26.6161 34.7491 26.2628 34.3957 25.9095C35.3381 25.5562 36.1627 25.0851 36.7516 24.614C37.3406 24.143 37.9296 23.5541 38.283 22.8475C38.0474 22.6119 37.8118 22.3764 37.4584 22.1409C37.105 21.9053 36.7516 21.552 36.3983 21.3165L37.2228 20.3743C37.4584 20.6098 37.694 20.7276 38.0474 20.9632C38.283 21.1987 38.6363 21.4342 38.9897 21.7875C39.2253 21.1987 39.3431 20.7276 39.4609 20.2565C39.5787 19.7854 39.6965 19.1966 39.8143 18.6077H37.3406C37.105 19.3144 36.7516 19.9032 36.3983 20.4921C36.0449 21.0809 35.5737 21.6698 35.1025 22.0231C34.8669 21.7875 34.5135 21.552 34.1602 21.3165C34.5135 20.9632 34.9847 20.4921 35.2203 20.021C35.4559 19.5499 35.8093 19.0788 36.0449 18.6077C36.2805 18.1367 36.3983 17.6656 36.516 17.1945C36.6338 16.7234 36.7516 16.2523 36.7516 15.7812H35.8093C34.9847 15.7812 34.5135 15.7812 34.1602 15.7812V14.8391C34.3957 14.8391 34.9847 14.8391 35.8093 14.8391H39.9321ZM43.7015 17.7833V21.7875C43.7015 22.4942 43.7015 23.083 43.7015 23.5541H42.4058C42.5236 23.083 42.5236 22.4942 42.5236 21.7875V17.6656C42.5236 17.0767 42.5236 16.4879 42.4058 16.0168H43.8193C43.7015 16.3701 43.7015 17.0767 43.7015 17.7833ZM46.4108 16.0168V25.3207C46.4108 25.7918 46.293 26.1451 45.9396 26.2628C45.704 26.4984 44.9972 26.6161 44.0549 26.7339C43.9371 26.1451 43.8193 25.674 43.4659 25.3207C44.1727 25.3207 44.6439 25.3207 44.8795 25.3207C45.115 25.3207 45.2328 25.0851 45.2328 24.614V15.899C45.2328 15.3102 45.2328 14.7213 45.2328 14.1324H46.5286C46.5286 14.8391 46.4108 15.4279 46.4108 16.0168Z" fill="white"/>
<path d="M45.1154 32.3869C45.1154 33.8002 45.1154 34.8601 45.1154 35.6845H44.0553V34.7423H36.2809V38.2754C36.2809 39.0998 36.6342 39.4532 37.4588 39.4532H43.9375C44.5265 39.4532 44.8799 39.3354 44.9976 38.9821C45.1154 38.6288 45.2332 38.1577 45.351 37.2155C45.7044 37.5688 46.1756 37.6866 46.7646 37.8044C46.4112 38.9821 46.0578 39.6887 45.7044 39.9242C45.351 40.1598 44.8798 40.2776 44.2909 40.2776H37.2232C35.9275 40.1598 35.2207 39.6887 35.2207 38.511V30.8559C35.2207 30.267 35.2207 29.6782 35.2207 28.9716H45.2332C45.1154 29.9137 45.1154 30.9737 45.1154 32.3869ZM39.6969 33.8002V30.0315H36.3986V33.8002H39.6969ZM44.0553 33.8002V30.0315H40.6392V33.8002H44.0553Z" fill="white"/>
<path d="M33.9248 47.6971C34.1604 47.3438 34.396 47.1083 34.5138 46.8727C34.7494 46.9905 35.1028 47.226 35.4561 47.4616L36.8697 48.286C36.6341 48.6393 36.3985 48.8748 36.2807 49.2281C36.1629 48.8748 35.3383 48.4037 33.9248 47.6971ZM35.3383 52.5257C35.6917 51.7013 36.0451 50.8769 36.2807 50.0525C36.6341 50.4058 36.9875 50.6414 37.2231 50.6414C36.9875 51.348 36.7519 51.8191 36.5163 52.1724C36.3985 52.5257 35.9273 53.5857 35.3383 55.2344C35.1028 54.9989 34.6316 54.7634 34.1604 54.6456C34.6316 54.0567 34.985 53.3501 35.3383 52.5257ZM34.8672 44.0462C35.1028 43.8107 35.3383 43.4574 35.4561 43.2218C35.6917 43.3396 36.0451 43.5751 36.5163 44.0462C36.9875 44.3995 37.4586 44.7528 37.6942 44.9884C37.4586 45.2239 37.2231 45.4595 36.9875 45.8128C36.3985 45.1062 35.6917 44.5173 34.8672 44.0462ZM40.8747 53.939V52.5257H39.2256V55.2344H38.1654C38.1654 54.6456 38.1654 53.939 38.1654 53.3501V49.4637C38.1654 49.1104 38.1654 48.5215 38.1654 47.8149L37.6942 48.286C37.4586 48.0504 37.2231 47.6971 36.7519 47.4616C37.2231 47.226 37.6942 46.9905 38.0476 46.5194C38.5188 46.1661 38.99 45.695 39.3434 45.2239C39.6967 44.7528 40.1679 44.2818 40.4035 43.6929C40.7569 43.1041 40.9925 42.633 41.1103 42.2797C41.4637 42.5152 41.817 42.633 42.2882 42.8685L42.0526 43.1041C42.6416 44.0462 43.3484 44.6351 44.1729 45.2239C44.8797 45.695 45.822 46.1661 46.8822 46.5194C46.6466 46.8727 46.2932 47.1083 46.1754 47.4616C45.4687 47.226 44.6441 46.7549 43.584 46.0483V46.9905C43.2306 46.9905 42.6416 46.9905 41.817 46.9905C40.9925 46.9905 40.4035 46.9905 39.9323 46.9905V46.1661C39.4611 46.6372 38.8722 47.226 38.0476 47.9327H41.817C41.817 48.4037 41.817 48.9926 41.817 49.5814V54.5278C41.817 54.7634 41.6992 54.9989 41.4637 55.1167C41.2281 55.2344 40.8747 55.3522 40.2857 55.47C40.2857 55.1167 40.1679 54.7634 39.8145 54.2923C40.5213 54.2923 40.8747 54.1745 40.8747 53.939ZM40.8747 49.6992V48.6393H39.2256V49.6992H40.8747ZM40.8747 51.8191V50.5236H39.2256V51.8191H40.8747ZM41.817 46.0483C42.6416 46.0483 43.2306 46.0483 43.7017 46.0483C43.1128 45.695 42.406 44.9884 41.6992 43.9285C41.4637 44.2818 41.2281 44.6351 40.9925 44.9884C40.7569 45.3417 40.5213 45.5772 40.1679 46.0483C40.5213 46.0483 40.9925 46.0483 41.817 46.0483ZM43.8195 49.6992V51.348C43.8195 51.8191 43.8195 52.4079 43.8195 52.9968H42.7594C42.7594 52.4079 42.7594 51.8191 42.7594 51.348V49.6992C42.7594 49.4637 42.7594 48.9926 42.7594 48.286H43.8195C43.8195 48.9926 43.8195 49.4637 43.8195 49.6992ZM45.8221 49.2281V54.1745C45.8221 54.6456 45.7043 54.9989 45.4687 55.1167C45.2331 55.2344 44.7619 55.3522 43.9373 55.47C43.9373 55.1167 43.8195 54.7634 43.584 54.2923C44.5263 54.41 44.9975 54.2923 44.8797 53.8212V49.2281C44.8797 48.8748 44.8797 48.4037 44.8797 47.9327H45.9398C45.822 48.4037 45.8221 48.8748 45.8221 49.2281Z" fill="white"/>
<path d="M39.8144 61.8297V58.7676C39.8144 58.061 39.8144 57.4722 39.8144 56.8833H41.1102C41.1102 57.4722 41.1102 58.061 41.1102 58.6499V61.8297H44.7618C45.3508 61.8297 46.0575 61.8297 46.8821 61.8297V62.8896C46.0575 62.8896 45.4685 62.8896 44.7618 62.8896H41.1102V66.776C41.1102 67.4827 41.1102 68.4248 41.1102 69.367H39.8144C39.8144 68.4248 39.8144 67.4827 39.8144 66.776V63.0074H36.1628C35.5738 63.0074 34.867 63.0074 34.0425 63.0074V61.9474C34.867 61.9474 35.5738 61.9474 36.1628 61.9474H39.8144V61.8297Z" fill="white"/>
<path d="M39.8145 74.6667C39.8145 73.3712 39.8145 72.5468 39.8145 72.0758C39.8145 71.6047 39.8145 71.2514 39.6967 70.7803C40.1679 70.898 40.6391 70.898 41.2281 70.898C41.1103 71.2514 40.9925 71.8402 40.9925 72.5468C40.9925 73.2535 40.8747 73.9601 40.8747 74.6667H43.7017C44.6441 74.6667 45.5865 74.6667 46.411 74.5489V75.7267C45.7043 75.7267 44.8797 75.7267 44.1729 75.7267H40.8747C40.9925 76.3155 41.2281 77.0221 41.6992 77.611C42.0526 78.1998 42.406 78.7887 42.8772 79.3775C43.3484 79.9664 43.8195 80.4375 44.5263 80.9086C45.2331 81.3796 45.9398 81.9685 46.7644 82.3218C46.5288 82.5574 46.1754 82.9107 45.8221 83.3818C45.1153 83.0284 44.5263 82.5574 43.8195 81.9685C43.1128 81.3796 42.5238 80.673 41.9348 79.7309C41.3459 78.7887 40.7569 77.9643 40.5213 77.2577C40.2857 78.0821 39.9323 78.7887 39.5789 79.2598C39.2256 79.8486 38.8722 80.3197 38.5188 80.673C38.1654 81.0263 37.5764 81.6152 36.9875 81.9685C36.3985 82.3218 35.6917 82.9107 34.8672 83.264C34.6316 82.7929 34.2782 82.4396 33.9248 82.0863C34.7494 81.8507 35.4561 81.4974 36.1629 81.0263C36.8697 80.5553 37.5764 79.9664 38.0476 79.3775C38.5188 78.7887 38.8722 78.0821 39.2256 77.4932C39.5789 76.9044 39.6967 76.1977 39.8145 75.6089H36.7519C35.8095 75.6089 35.2205 75.6089 34.6316 75.6089V74.4312C35.1028 74.4312 35.8095 74.5489 36.7519 74.5489H39.8145V74.6667Z" fill="white"/>
<path d="M40.9926 89.0347C40.9926 89.7414 41.1104 90.3302 41.2282 90.9191H44.0553C44.5265 90.9191 45.2332 90.9191 45.8222 90.9191V91.979C45.2332 91.979 44.6442 91.979 44.0553 91.979H41.4638C41.8172 93.3922 42.4062 94.4522 43.2307 95.1588C44.0553 95.8654 44.6442 96.2187 44.8798 96.101C45.1154 95.9832 45.351 95.8654 45.4688 95.5121C45.5866 95.1588 45.5866 94.9233 45.5866 94.57C45.94 94.8055 46.4112 95.041 46.8823 95.1588C46.6468 95.9832 46.2934 96.5721 46.0578 96.8076C45.8222 97.0431 45.351 97.1609 44.762 97.1609C44.1731 97.0431 43.5841 96.8076 43.1129 96.4543C42.6417 96.101 42.1706 95.6299 41.8172 95.1588C41.4638 94.6877 41.1104 94.2166 40.8748 93.6278C40.6392 93.0389 40.4036 92.4501 40.2859 91.7435H36.5164V95.3943C37.4588 94.9233 38.2833 94.4522 39.1079 93.9811C39.1079 94.4522 39.2257 94.8055 39.3435 95.041C38.5189 95.3943 37.8122 95.7477 37.2232 96.101C36.6342 96.4543 36.0453 96.8076 35.4563 97.1609C35.2207 96.8076 34.9851 96.5721 34.7495 96.2187C35.2207 95.8654 35.3385 95.2766 35.3385 94.4522V87.5037C35.3385 86.6793 35.3385 85.8549 35.3385 85.0305H44.9976C44.9976 85.7371 44.9976 86.326 44.9976 86.7971C44.9976 87.2682 44.9976 87.9748 44.9976 88.6814H40.9926V89.0347ZM43.8197 88.2103V86.2082H36.5164V88.2103H43.8197ZM40.1681 90.9191C40.0503 90.2124 39.9325 89.5058 39.9325 89.0347H36.3986V90.9191H40.1681Z" fill="white"/>
<path d="M34.6313 111.764C34.7491 111.058 34.7491 110.233 34.7491 109.409V103.638C34.7491 102.814 34.7491 102.225 34.6313 101.754H35.9271C35.9271 102.343 35.9271 102.814 35.9271 103.403V109.527C35.9271 110.233 35.9271 111.058 35.9271 111.764H34.6313ZM38.283 100.93C37.9296 101.165 37.4584 101.283 37.105 101.518C36.7516 100.812 36.2805 100.105 35.6915 99.3985C36.0449 99.163 36.3983 98.9275 36.6339 98.8097C37.105 99.2808 37.5762 99.9874 38.283 100.93ZM43.1125 104.58V107.525C43.1125 107.996 43.1125 108.585 43.1125 109.291H37.5762C37.5762 108.585 37.5762 107.996 37.5762 107.525V104.698C37.5762 104.227 37.5762 103.521 37.5762 102.932H43.1125C43.1125 103.403 43.1125 103.992 43.1125 104.58ZM42.0524 105.405V103.638H38.6364V105.405H42.0524ZM42.0524 108.349V106.347H38.6364V108.349H42.0524ZM46.1752 99.8696C46.1752 100.576 46.1752 101.283 46.1752 101.989V110.116C46.1752 110.94 45.9396 111.529 45.4684 111.647C44.9973 111.882 44.4083 112 43.8193 112C43.8193 111.529 43.5837 111.058 43.3481 110.705C44.0549 110.705 44.5261 110.705 44.6439 110.587C44.7617 110.469 44.9973 110.233 44.9973 109.88V100.812H41.699C40.7567 100.812 39.9321 100.812 39.2253 100.812V99.7519C40.0499 99.7519 40.8745 99.7519 41.699 99.7519H46.1752V99.8696Z" fill="white"/>
<path d="M21.0852 2.11986C21.0852 1.53101 21.0852 0.942152 21.0852 0.471069H22.2632C22.1454 0.942152 22.1454 1.41324 22.1454 2.11986H24.9724C24.9724 1.53101 24.9724 0.942152 24.9724 0.471069H26.1504C26.1504 0.942152 26.1504 1.41324 26.1504 2.11986H28.0351C28.6241 2.11986 29.3308 2.11986 29.9198 2.11986V3.1798C29.3308 3.1798 28.7419 3.1798 28.0351 3.1798H25.9148C25.9148 3.65088 25.9148 4.23973 25.9148 4.71082H24.8546V3.06203H22.0276V4.71082H20.9674C20.9674 4.12196 20.9674 3.65088 20.9674 3.06203H19.0827C18.6115 3.06203 18.1404 3.06203 17.4336 3.06203V2.00209C18.1404 2.00209 18.6115 2.00209 19.0827 2.00209H21.0852V2.11986ZM28.0351 5.1819V6.12407C27.3283 6.24184 26.8572 6.47738 26.386 6.59515C25.9148 6.83069 25.4436 7.06623 24.8546 7.41954C24.2657 7.77286 23.5589 8.12617 22.7343 8.71502C21.9098 9.18611 21.203 9.77496 20.4962 10.3638C19.7895 10.9527 19.6717 11.306 20.0251 11.4238C20.3785 11.5415 20.9674 11.6593 21.792 11.6593H27.0927C27.4461 11.6593 27.7995 11.5415 27.9173 11.306C28.0351 11.0704 28.1529 10.5994 28.1529 9.77496C28.6241 10.1283 29.0952 10.246 29.5664 10.3638C29.3308 11.5415 28.9775 12.2481 28.6241 12.3659C28.2707 12.4837 27.9173 12.6015 27.4461 12.6015H20.8496C20.1429 12.6015 19.5539 12.4837 19.2005 12.3659C18.8471 12.1304 18.6115 11.8948 18.6115 11.4238C18.6115 10.9527 18.8471 10.5994 19.2005 10.246C19.5539 9.89273 20.0251 9.53942 20.614 9.06833C21.203 8.71502 21.9098 8.24394 22.7343 7.77286C23.5589 7.30177 24.3835 6.83069 25.208 6.24184H20.9674C20.1429 6.24184 19.3183 6.24184 18.6115 6.24184V5.1819C19.4361 5.1819 20.1429 5.1819 20.9674 5.1819H28.0351Z" fill="white"/>
<path d="M22.852 17.6656V16.6057C22.852 15.6635 22.852 14.9569 22.852 14.368H24.1477C24.1477 15.0747 24.1477 15.7813 24.1477 16.6057V17.6656H27.6816C28.2705 17.6656 28.9773 17.6656 29.6841 17.6656V18.7256C28.9773 18.7256 28.2705 18.7256 27.6816 18.7256H25.0901C25.3257 19.4322 25.5613 20.021 25.9146 20.6099C26.268 21.1987 26.6214 21.7876 27.0926 22.2587C27.5638 22.7298 28.035 23.2008 28.5061 23.5542C28.9773 23.9075 29.4485 24.143 29.9197 24.2608C29.4485 24.6141 29.0951 24.9674 28.8595 25.3207C28.1527 24.9674 27.6816 24.4963 27.0926 24.0252C26.6214 23.5542 26.1502 23.0831 25.6791 22.4942C25.2079 21.9054 24.8545 21.3165 24.6189 20.7277C24.3833 20.1388 24.1477 19.55 23.9121 18.9611V25.0852C23.9121 25.674 23.9121 26.2629 23.9121 26.9695H22.6164C22.6164 26.2629 22.6164 25.5563 22.6164 25.0852V19.3144C22.3808 19.9033 22.1452 20.4921 21.7918 21.081C21.5563 21.6698 21.2029 22.2587 20.8495 22.7298C20.4961 23.2008 20.0249 23.6719 19.5537 24.143C19.0826 24.6141 18.3758 25.203 17.669 25.7918C17.4334 25.4385 17.0801 25.203 16.6089 24.8496C17.0801 24.6141 17.669 24.2608 18.1402 23.7897C18.6114 23.3186 19.2004 22.8475 19.5537 22.3765C20.0249 21.7876 20.3783 21.3165 20.7317 20.6099C21.0851 19.9033 21.3207 19.4322 21.5563 18.8433H19.2004C18.6114 18.8433 17.9046 18.8433 17.0801 18.8433V17.6656C17.9046 17.6656 18.6114 17.6656 19.0826 17.6656H22.852ZM27.5638 15.428C27.7994 15.7813 28.1527 16.1346 28.5061 16.6057C28.035 16.959 27.6816 17.1945 27.5638 17.4301C27.2104 16.8412 26.857 16.3701 26.6214 16.0168C26.3858 15.6635 26.1502 15.428 25.9146 15.1924L26.857 14.6036C26.9748 14.8391 27.3282 15.0747 27.5638 15.428Z" fill="white"/>
<path d="M17.9048 32.858V31.7981C18.6115 31.7981 19.2005 31.7981 19.7895 31.7981H27.6817V32.7402C27.2105 32.9758 26.5038 33.4469 25.5614 34.2713C24.6191 35.0957 23.2055 36.3911 21.0852 38.3932C22.0276 39.0999 23.0877 39.5709 24.6191 39.6887C26.0326 39.9243 27.9173 39.8065 30.0376 39.6887C29.802 40.042 29.5664 40.3953 29.4486 40.9842C27.2105 40.9842 25.5614 40.9842 24.3835 40.8664C23.2055 40.7486 22.381 40.3953 21.6742 39.9243C20.9674 39.4532 20.4963 39.0999 20.2607 38.9821C20.0251 38.8643 19.4361 39.4532 18.3759 40.7486C18.0226 40.2776 17.6692 40.042 17.4336 39.9243C18.4937 38.8643 19.4361 38.1577 20.0251 37.9221C21.203 36.98 23.0877 35.2134 25.5614 32.858H19.9073C19.3183 32.7402 18.6115 32.858 17.9048 32.858ZM21.5564 29.2071C21.9098 28.9716 22.2632 28.736 22.4988 28.5005C22.8521 28.9716 23.2055 29.3249 23.4411 29.5604C23.6767 29.9137 23.9123 30.1493 24.2657 30.5026C23.7945 30.8559 23.4411 31.0914 23.2055 31.2092C22.9699 30.8559 22.381 30.1493 21.5564 29.2071Z" fill="white"/>
<path d="M26.1505 43.9285C25.9149 44.2818 25.6793 44.6351 25.5615 44.9884H27.0929C28.153 44.9884 28.9776 44.9884 29.6843 44.9884V45.9306C28.9776 45.9306 28.2708 45.9306 27.2107 45.9306H23.7946C23.559 46.5194 23.4412 46.9905 23.3234 47.3438H27.4462C27.4462 48.0504 27.4462 48.6393 27.4462 49.1104V52.9968C27.4462 53.7034 27.4462 54.4101 27.4462 55.2344H26.3861V54.4101H20.4964V55.3522H19.4362C19.4362 54.5278 19.4362 53.8212 19.4362 53.1146V49.1104C19.4362 48.6393 19.4362 47.9327 19.4362 47.226H22.2633C22.4989 46.7549 22.6167 46.2839 22.7345 45.8128H19.3184C18.7295 45.8128 18.0227 45.8128 17.3159 45.8128V44.8706C18.1405 44.8706 18.7295 44.8706 19.4362 44.8706H24.6192C25.2081 43.6929 25.5615 42.7507 25.6793 42.2797C26.0327 42.5152 26.3861 42.7507 26.8573 42.9863C26.6217 43.2218 26.3861 43.5751 26.1505 43.9285ZM22.1455 44.2818C21.7921 44.3995 21.4387 44.6351 21.2031 44.8706C20.9675 44.2818 20.4964 43.6929 19.9074 42.8685C20.143 42.7507 20.4964 42.5152 20.8498 42.2797C21.3209 43.2218 21.9099 43.8107 22.1455 44.2818ZM26.3861 49.4637V48.286H20.4964V49.4637H26.3861ZM26.3861 51.4658V50.4058H20.4964V51.4658H26.3861ZM26.3861 53.5857V52.2902H20.4964V53.5857H26.3861Z" fill="white"/>
<path d="M26.5035 60.8875H28.506V63.1251C28.3882 64.0673 27.9171 64.7739 27.0925 65.1272L26.5035 64.6561C27.2103 64.3028 27.4459 63.7139 27.4459 63.0073H26.3857V60.8875H26.5035Z" fill="white"/>
<path d="M20.9675 71.7224C20.732 71.958 20.6142 72.1935 20.3786 72.3113H27.4462C27.9174 72.3113 28.3886 72.3113 28.8598 72.3113V73.2534C28.2708 73.2534 27.7996 73.2534 27.4462 73.2534V74.6667C27.7996 74.6667 28.2708 74.6667 28.8598 74.6667V75.3733C28.2708 75.3733 27.7996 75.3733 27.4462 75.3733V76.7866H28.2708C28.742 76.7866 29.331 76.7866 29.9199 76.7866V77.7287C29.331 77.7287 28.742 77.7287 28.2708 77.7287H20.0252C20.2608 77.8465 20.6142 78.082 20.9675 78.1998C20.732 78.4353 20.4964 78.6709 20.3786 78.9064H23.0878C22.8523 79.8486 22.6167 80.5552 22.2633 81.1441C21.9099 81.7329 21.5565 82.3218 21.0853 82.6751C20.6142 83.0284 20.143 83.3817 19.6718 83.4995C19.2006 83.735 18.6117 83.8528 18.0227 83.9706C17.7871 83.6173 17.6693 83.2639 17.3159 83.0284C18.1405 82.9106 18.7295 82.7929 19.3184 82.5573C19.9074 82.3218 20.2608 82.0862 20.4964 81.8507C20.2608 81.6152 19.7896 81.2618 19.2006 80.9085C19.4362 80.673 19.554 80.4374 19.6718 80.2019C20.3786 80.673 20.8498 80.9085 21.0853 81.1441C21.4387 80.673 21.6743 80.2019 21.9099 79.6131H20.0252C19.4362 80.2019 18.965 80.7908 18.6117 81.2618C18.2583 81.0263 18.0227 80.7908 17.6693 80.5552C18.1405 80.2019 18.7295 79.6131 19.0828 79.0242C19.554 78.4353 19.7896 77.9643 20.0252 77.611H18.8472C18.4939 77.611 17.9049 77.611 17.3159 77.611V76.6688C17.9049 76.6688 18.7295 76.6688 19.7896 76.6688V75.2555C19.554 75.2555 19.3184 75.2555 18.965 75.2555V74.4311C19.3184 74.4311 19.554 74.4311 19.7896 74.4311V73.0179C19.0828 73.8423 18.6117 74.3134 18.2583 74.5489C18.0227 74.3134 17.6693 74.0778 17.4337 73.8423C18.0227 73.489 18.6117 72.9001 19.2006 72.1935C19.7896 71.4869 20.143 71.0158 20.3786 70.6625C20.732 70.898 21.2031 71.1336 21.6743 71.2513C21.3209 71.3691 21.0853 71.4869 20.9675 71.7224ZM22.1455 74.5489V73.1357H20.732V74.5489H22.1455ZM22.1455 76.6688V75.2555H20.732V76.6688H22.1455ZM24.3836 74.5489V73.1357H22.9701V74.5489H24.3836ZM24.3836 76.6688V75.2555H22.9701V76.6688H24.3836ZM26.3861 78.6709C26.3861 78.4354 26.3861 78.1998 26.3861 77.8465H27.4462C27.4462 78.1998 27.4462 78.4354 27.4462 78.6709C28.153 78.6709 28.742 78.6709 29.331 78.6709V79.6131C28.8598 79.6131 28.153 79.6131 27.4462 79.6131V81.2618C28.3886 81.2618 29.2132 81.2618 29.6843 81.2618V82.204C29.2132 82.204 28.742 82.204 28.2708 82.204H27.4462C27.4462 82.9106 27.4462 83.4995 27.4462 84.0883H26.3861C26.3861 83.4995 26.3861 82.7929 26.3861 82.204H23.559C23.6768 81.9685 23.6768 81.6152 23.7946 81.2618C23.9124 80.9085 23.9124 80.5552 23.9124 80.3197H24.8548C24.737 80.3197 24.737 80.673 24.737 81.0263H26.3861V79.3775H25.0904C24.737 79.3775 24.2658 79.3775 23.6768 79.3775V78.4353C24.2658 78.4353 24.737 78.4353 25.0904 78.4353H26.3861V78.6709ZM26.6217 74.5489V73.1357H25.2081V74.5489H26.6217ZM26.6217 76.6688V75.2555H25.2081V76.6688H26.6217Z" fill="white"/>
<path d="M23.2054 86.4437C23.2054 86.9148 23.0876 87.6214 23.0876 88.4458H27.5638C28.2706 88.4458 28.8595 88.4458 29.5663 88.328V89.388C28.8595 89.388 28.2706 89.388 27.5638 89.388H24.8545V94.4521C25.3257 93.981 25.7969 93.3922 26.1503 92.6856C26.6214 92.0967 26.9748 91.3901 27.2104 90.6835C27.6816 90.919 28.1528 91.0368 28.6239 91.2723C28.1528 91.7434 27.5638 92.45 27.0926 93.2744C26.6214 94.0988 25.9147 94.9232 24.9723 95.7476C24.9723 96.3365 24.9723 96.6898 25.0901 96.6898C25.2079 96.6898 25.4435 96.8075 25.6791 96.8075H27.446C27.9172 96.8075 28.1528 96.6898 28.3883 96.6898C28.6239 96.6898 28.7417 96.2187 28.8595 95.2765C29.2129 95.6298 29.6841 95.8654 30.1553 95.9831C29.8019 96.8075 29.5663 97.2786 29.3307 97.5142C29.0951 97.7497 28.8595 97.7497 28.3883 97.7497H25.0901C24.5011 97.7497 24.1477 97.6319 24.03 97.5142C23.9122 97.3964 23.7944 97.0431 23.7944 96.4542C23.5588 96.6898 23.2054 96.8075 22.7342 97.1609C22.263 97.3964 21.9097 97.6319 21.5563 97.8675C21.4385 97.6319 21.2029 97.3964 20.7317 96.9253C21.2029 96.6898 21.7919 96.4542 22.3808 96.1009C22.9698 95.7476 23.441 95.5121 23.7944 95.1588V89.388H22.9698C22.7342 90.4479 22.6164 91.2723 22.3808 91.9789C22.1452 92.6856 21.9097 93.2744 21.5563 93.8633C21.2029 94.4521 20.8495 95.041 20.2605 95.6298C19.6716 96.2187 19.0826 96.9253 18.1402 97.7497C18.1402 97.5142 17.7868 97.1608 17.0801 96.8075C17.6691 96.4542 18.258 96.1009 18.847 95.5121C19.436 94.9232 19.9071 94.4521 20.2605 93.7455C20.7317 93.1566 20.9673 92.45 21.3207 91.7434C21.5563 91.0368 21.7919 90.2124 21.9097 89.388H19.7894C19.0826 89.388 18.4936 89.388 17.7868 89.388V88.328C18.4936 88.328 19.2004 88.328 19.7894 88.328H22.1452C22.1452 87.857 22.263 87.3859 22.263 86.6793C22.263 86.0904 22.263 85.3838 22.1452 84.7949C22.9698 85.0305 23.441 85.1482 23.6766 85.1482C23.3232 85.5016 23.2054 85.9726 23.2054 86.4437ZM26.6214 87.9747C26.268 87.3859 25.7969 86.797 25.0901 86.2082C25.3257 85.9726 25.6791 85.7371 25.9147 85.5015C26.3858 85.9726 26.857 86.5615 27.446 87.2681C27.3282 87.3859 27.0926 87.6214 26.6214 87.9747Z" fill="white"/>
<path d="M18.1402 111.882C17.7868 111.647 17.4335 111.529 17.0801 111.411C17.5513 110.822 18.0224 109.88 18.6114 108.702C18.9648 108.938 19.3182 109.056 19.6716 109.291C19.3182 109.527 18.847 110.351 18.1402 111.882ZM19.436 106.936C19.5538 106.818 19.5538 106.7 19.5538 106.347V104.816C18.9648 104.934 18.3758 105.169 17.6691 105.405C17.5513 105.052 17.4335 104.698 17.3157 104.345C17.9046 104.345 18.6114 104.227 19.6716 103.992V102.225C18.9648 102.225 18.258 102.225 17.6691 102.225V101.283C18.258 101.283 18.9648 101.283 19.6716 101.283C19.6716 100.341 19.6716 99.5163 19.6716 98.9275H20.7317C20.7317 99.3986 20.7317 100.223 20.7317 101.283C21.2029 101.283 21.6741 101.283 22.3808 101.283V102.225C21.7919 102.225 21.2029 102.225 20.7317 102.225V103.874C21.2029 103.756 21.7919 103.638 22.3808 103.521V104.463C21.7919 104.58 21.3207 104.816 20.7317 104.934V106.583C20.7317 107.407 20.6139 107.76 20.3783 107.996C20.1427 108.114 19.5538 108.349 18.847 108.467C18.7292 108.114 18.6114 107.643 18.3758 107.289C18.847 107.054 19.3182 107.054 19.436 106.936ZM20.8495 109.291C21.2029 109.174 21.4385 109.056 21.7919 108.938C22.263 110.116 22.6164 110.94 22.7342 111.411C22.3808 111.529 22.0274 111.647 21.7919 111.765C21.5563 111.058 21.3207 110.233 20.8495 109.291ZM23.7944 105.052C23.5588 104.816 23.0876 104.463 22.4986 104.109C22.7342 103.874 22.852 103.521 23.0876 103.285C23.5588 103.521 23.9122 103.756 24.1477 103.992C24.2655 103.521 24.3833 102.814 24.3833 101.99C23.9122 101.99 23.441 101.99 22.7342 102.107V101.165C23.3232 101.165 23.9122 101.165 24.3833 101.165C24.3833 100.223 24.3833 99.5163 24.3833 98.9275C24.6189 99.0453 25.0901 99.163 25.5613 99.163C25.4435 99.7519 25.4435 100.341 25.4435 101.165L27.9172 101.047C27.7994 101.636 27.6816 102.461 27.6816 103.521C27.6816 104.58 27.6816 105.405 27.9172 105.994C28.1528 106.583 28.3883 106.818 28.5061 106.818C28.7417 106.818 28.8595 106.347 28.9773 105.405C29.3307 105.64 29.6841 105.758 30.0375 105.876C29.8019 106.818 29.4485 107.407 29.3307 107.643C29.0951 107.878 28.8595 107.996 28.6239 107.996C28.3883 107.996 28.035 107.878 27.6816 107.525C27.3282 107.171 27.0926 106.7 26.857 105.758C26.6214 104.816 26.6214 103.638 26.7392 101.99H25.4435C25.4435 102.932 25.3257 103.756 25.0901 104.58C25.9147 105.169 26.3858 105.64 26.857 105.876C26.6214 106.229 26.3858 106.465 26.268 106.818C25.6791 106.112 25.2079 105.758 24.8545 105.523C24.3833 106.465 23.6766 107.525 22.7342 108.349C22.4986 107.996 22.1452 107.76 21.7919 107.643C22.6164 107.054 23.3232 106.112 23.7944 105.052ZM24.03 109.056C24.3833 108.938 24.7367 108.82 24.9723 108.702C25.4435 109.645 25.7969 110.469 26.0325 111.176C25.6791 111.293 25.3257 111.411 24.9723 111.529C24.6189 110.705 24.3833 109.88 24.03 109.056ZM27.0926 108.702C27.3282 108.585 27.6816 108.467 28.035 108.231C28.8595 109.527 29.4485 110.469 29.6841 111.058L28.7417 111.529C28.3883 110.94 27.7994 109.998 27.0926 108.702Z" fill="white"/>
<path d="M1.64912 10.8349C1.53133 11.306 1.41353 11.8948 1.17794 12.3659C0.824561 12.2482 0.471178 12.0126 0 11.7771C0.353383 11.1882 0.588972 10.5994 0.942356 9.77497C1.17794 8.95058 1.41353 8.24395 1.64912 7.30179C2.00251 7.6551 2.35589 7.77287 2.59148 7.89064C2.1203 9.42166 1.76692 10.3638 1.64912 10.8349ZM1.76692 4.35752C2.1203 4.59306 2.59148 4.8286 2.82707 5.06414C2.59148 5.41746 2.35589 5.77077 2.2381 6.00631C1.88471 5.77077 1.53133 5.53523 1.29574 5.29968C0.942356 5.18191 0.588972 4.94637 0 4.71083C0.235589 4.47529 0.471178 4.12198 0.588972 3.76866C0.942356 3.88644 1.29574 4.12198 1.76692 4.35752ZM2.35589 2.59096C2.00251 2.23764 1.76692 2.0021 1.41353 1.76656C1.17794 1.53102 0.942356 1.29548 0.588972 1.05994C0.824561 0.824395 1.06015 0.588854 1.29574 0.235542L2.2381 0.942166C2.47368 1.17771 2.82707 1.41325 3.06266 1.76656C2.82707 2.0021 2.59148 2.23764 2.35589 2.59096ZM6.12531 12.837H5.06516C5.06516 12.0126 5.06516 11.306 5.06516 10.3638C4.12281 10.3638 3.41604 10.3638 2.70927 10.3638V9.42166C3.53383 9.42166 4.3584 9.42166 5.06516 9.42166V8.12618H3.41604C3.41604 7.41956 3.41604 6.71293 3.41604 6.00631C3.41604 5.18191 3.41604 4.47529 3.41604 3.76866H5.18296V2.59096C4.3584 2.59096 3.76942 2.59096 3.18045 2.59096V1.76656C3.88722 1.76656 4.59399 1.76656 5.18296 1.76656C5.18296 1.17771 5.18296 0.588854 5.18296 0H6.24311C6.24311 0.471083 6.24311 1.05994 6.24311 1.76656C6.83208 1.76656 7.53885 1.76656 8.12782 1.76656V2.70873C7.42105 2.70873 6.83208 2.70873 6.24311 2.70873V3.88644H7.89223C7.89223 4.47529 7.89223 5.18191 7.89223 6.00631C7.89223 6.8307 7.89223 7.53733 7.89223 8.24395H6.12531V9.53943C6.83208 9.53943 7.42105 9.53943 8.12782 9.53943V10.4816C7.42105 10.4816 6.71429 10.4816 6.12531 10.4816C6.12531 11.1882 6.12531 12.0126 6.12531 12.837ZM6.83208 5.53523V4.59306H4.47619V5.53523H6.83208ZM6.83208 7.30179V6.47739H4.47619V7.41956H6.83208V7.30179ZM12.7218 0.706625C12.7218 1.41325 12.7218 2.11987 12.7218 3.06204V11.1882C12.7218 11.8948 12.4862 12.3659 12.1328 12.4837C11.7794 12.6015 11.1905 12.7192 10.6015 12.837C10.4837 12.4837 10.3659 12.0126 10.1303 11.6593C10.7193 11.6593 11.0727 11.6593 11.3083 11.5415C11.5439 11.4238 11.6617 11.1882 11.6617 10.7171V7.89064H9.77694C9.77694 8.59727 9.54135 9.42166 9.18797 10.3638C8.83459 11.306 8.36341 12.2482 7.77444 13.0726C7.53885 12.837 7.18546 12.6015 6.71429 12.3659C7.42105 11.7771 7.89223 11.0705 8.12782 10.2461C8.4812 9.42166 8.599 8.4795 8.599 7.53733C8.599 6.47739 8.599 5.41746 8.599 4.12198C8.599 2.8265 8.599 1.76656 8.599 0.824395H12.7218V0.706625ZM11.6617 3.76866V1.53102H9.77694V3.76866H11.6617ZM11.6617 7.06625V4.59306H9.77694V7.06625H11.6617Z" fill="white"/>
</svg>
