<svg width="47" height="126" viewBox="0 0 47 126" fill="none" xmlns="http://www.w3.org/2000/svg">
<path d="M33.9248 18.9589L34.6316 18.0169C35.5739 18.4879 36.3985 18.9589 37.2231 19.43C36.8697 19.7832 36.6341 20.0188 36.5163 20.372C35.6917 19.901 34.8672 19.43 33.9248 18.9589ZM36.5163 24.258C35.9273 25.0823 35.4561 25.9066 35.1027 26.6131C34.8672 26.2599 34.396 26.0244 33.9248 25.6711C34.396 25.3178 34.8672 24.729 35.3383 23.9047C35.8095 23.0804 36.2807 22.3739 36.6341 21.5496C36.8697 21.9029 37.2231 22.1384 37.5764 22.4916C37.4586 22.8449 36.9875 23.4337 36.5163 24.258ZM37.9298 16.2505C37.6942 16.486 37.3408 16.7216 37.1053 17.1926C36.5163 16.6038 35.8095 16.015 34.985 15.4262C35.2205 15.1907 35.4561 14.8374 35.6917 14.6019C36.6341 15.3085 37.3408 15.7795 37.9298 16.2505ZM45.8221 19.43V20.372C45.5865 20.372 44.8797 20.9608 43.7017 21.9029C42.5238 22.8449 41.5814 23.787 40.5213 24.729C41.1103 25.0823 41.6992 25.4356 42.5238 25.5533C43.3484 25.6711 44.0551 25.6711 44.7619 25.6711C45.4687 25.6711 46.1754 25.6711 46.7644 25.6711C46.411 26.1421 46.1754 26.4954 46.1754 26.9664C44.9975 26.9664 43.9373 26.8487 43.2306 26.7309C42.5238 26.6131 41.817 26.4954 41.4637 26.3776C41.1103 26.2599 40.6391 26.0244 40.2857 25.6711C39.9323 25.3178 39.5789 25.3178 39.2256 25.5533C38.8722 25.7888 38.5188 26.0244 38.1654 26.4954C37.9298 26.1421 37.6942 25.9066 37.3408 25.5533C37.6942 25.2001 38.0476 24.8468 38.401 24.729C38.7544 24.4935 39.1078 24.3758 39.6967 24.3758C40.8747 23.3159 42.2882 21.9029 43.8195 20.372H40.2857C39.5789 20.372 38.99 20.372 38.2832 20.372V19.3122C38.99 19.3122 39.6967 19.3122 40.2857 19.3122H45.8221V19.43ZM42.7594 16.1328L38.7544 16.6038C38.6366 16.2505 38.5188 15.8973 38.2832 15.544C39.2256 15.544 40.4035 15.4262 41.9348 15.3085C43.3484 15.1907 44.5263 14.9552 45.3509 14.6019C45.5865 15.1907 45.822 15.544 46.0576 15.8973C45.4687 15.8973 44.4085 16.015 42.7594 16.1328ZM43.2306 18.7234C42.7594 18.9589 42.406 19.0767 42.1704 19.3122C41.9348 18.4879 41.5814 17.7814 41.2281 17.1926C41.4637 17.0748 41.817 16.9571 42.2882 16.7216C42.5238 17.4281 42.8772 18.0169 43.2306 18.7234Z" fill="white"/>
<path d="M34.985 29.9103V28.8505C35.9273 28.8505 36.7519 28.8505 37.5764 28.8505H43.584C44.2907 28.8505 45.1153 28.8505 45.9398 28.8505V29.9103C45.1153 29.9103 44.1729 29.9103 43.2306 29.9103V34.0318H44.2907C44.9975 34.0318 45.822 34.0318 46.6466 34.0318V35.0916C45.822 34.9738 44.9975 34.9738 44.2907 34.9738H43.2306V37.9178C43.2306 38.8598 43.2306 39.9196 43.2306 40.9794H41.9348C41.9348 39.8019 41.9348 38.8598 41.9348 37.9178V34.9738H39.2256C39.1078 35.6804 38.99 36.2692 38.7544 36.9757C38.5188 37.6822 38.2832 38.1533 37.812 38.8598C37.4586 39.4486 36.6341 40.2729 35.5739 41.0972C35.3383 40.7439 34.8672 40.5084 34.2782 40.1551C34.985 39.8019 35.6917 39.4486 36.1629 38.8598C36.7519 38.271 37.1053 37.6822 37.4586 36.9757C37.812 36.2692 37.9298 35.5626 37.9298 34.9738H36.6341C35.6917 34.9738 34.7494 34.9738 33.9248 35.0916V33.914C34.8672 33.914 35.8095 33.914 36.6341 33.914H37.9298V29.7925C36.9875 29.7925 35.9273 29.7925 34.985 29.9103ZM42.0526 33.914V29.7925H39.3434V33.914H42.0526Z" fill="white"/>
<path d="M45.2332 44.2765C45.2332 44.7476 45.2332 45.3363 45.2332 45.8074H42.8773V47.1027H43.8197C44.173 47.1027 44.6442 47.1027 45.1154 47.1027V48.0448C44.5264 48.0448 44.0552 48.0448 43.8197 48.0448H42.8773V49.3401H44.8798C45.2332 49.3401 45.7044 49.3401 46.2933 49.3401V50.2821C45.7044 50.2821 45.2332 50.2821 44.9976 50.2821H41.4638C41.6994 51.2242 42.1705 51.813 42.7595 52.4018C43.3485 51.813 43.8197 51.1064 44.173 50.5177C44.4086 50.7532 44.762 50.9887 45.2332 51.2242C44.8798 51.4597 44.2908 52.0485 43.4663 52.9905C44.2908 53.5793 45.351 53.9326 46.5289 54.1681C46.2933 54.4036 45.94 54.7569 45.8222 55.2279C44.762 54.8747 43.9375 54.5214 43.3485 54.1681C42.7595 53.8148 42.1705 53.3438 41.6994 52.755C41.2282 52.1662 40.8748 51.3419 40.5214 50.3999H38.9901V53.5793C39.8146 53.1083 40.2858 52.755 40.5214 52.6373C40.6392 52.9905 40.757 53.4616 40.8748 53.6971C40.6392 53.8148 40.2858 54.0504 39.6969 54.4036C39.1079 54.7569 38.6367 55.1102 38.2833 55.4634C38.0477 55.1102 37.8121 54.7569 37.5766 54.5214C37.8121 54.1681 37.9299 53.8148 37.9299 53.3438V50.5177H36.163C36.0452 51.6952 35.8096 52.6373 35.574 53.4616C35.3385 54.2859 34.9851 54.8747 34.7495 55.3457C34.5139 55.1102 34.1605 54.8747 33.8071 54.7569C34.1605 54.1681 34.3961 53.4616 34.6317 52.8728C34.8673 52.284 34.9851 51.4597 35.1029 50.7532C35.2207 50.0466 35.2207 49.2223 35.2207 48.2803C35.2207 47.3382 35.2207 46.6317 35.2207 45.9251C35.2207 45.2186 35.2207 44.2765 35.2207 42.9812H45.351C45.2332 43.2167 45.2332 43.8055 45.2332 44.2765ZM44.2908 44.9831V43.57H36.2808V44.8653H44.2908V44.9831ZM38.7545 49.3401V48.0448H38.1655C37.8121 48.0448 37.341 48.0448 36.752 48.0448V47.1027C37.341 47.1027 37.8121 47.1027 38.1655 47.1027H38.7545V45.8074H36.163V49.3401H38.7545ZM41.9349 47.1027V45.8074H39.8146V47.1027H41.9349ZM41.9349 49.3401V48.0448H39.8146V49.3401H41.9349Z" fill="white"/>
<path d="M37.105 59.3495H39.5787C39.5787 59.9383 39.5787 60.7626 39.5787 61.7047V66.5327C39.5787 67.1215 39.5787 67.828 39.5787 68.8878H38.5186V67.828H35.6915V69.0056H34.6313C34.6313 67.828 34.6313 67.1215 34.6313 66.7682V61.7047C34.6313 60.7626 34.6313 59.9383 34.6313 59.2318H36.2805C36.5161 58.4075 36.6339 57.4654 36.7516 56.6411C37.2228 56.8766 37.694 56.9944 38.0474 56.9944C37.694 57.4654 37.4584 58.172 37.105 59.3495ZM38.5186 63.1177V60.4093H35.6915V63.1177H38.5186ZM38.5186 67.0037V64.0598H35.6915V67.0037H38.5186ZM45.8218 67.7103C45.704 68.4168 45.3506 68.7701 44.7617 69.0056C44.1727 69.2411 43.4659 69.4766 42.7592 69.4766C42.7592 69.1234 42.5236 68.6523 42.288 68.1813C42.9948 68.1813 43.5837 68.1813 44.0549 68.1813C44.5261 68.1813 44.7617 67.9458 44.8795 67.7103C44.9973 67.4748 45.1151 66.6505 45.1151 65.4729C45.1151 64.1776 45.2329 62.529 45.2329 60.1738H42.0524C41.8168 60.8804 41.3456 61.7047 40.7567 62.6467C40.5211 62.4112 40.1677 62.1757 39.8143 62.0579C40.1677 61.5869 40.4033 61.1159 40.7567 60.4093C40.9922 59.8206 41.3456 59.114 41.5812 58.4075C41.8168 57.7009 41.9346 57.1121 41.9346 56.6411C42.4058 56.8766 42.877 56.9944 43.2303 57.1121C42.9948 57.4654 42.877 57.7009 42.7592 58.0542C42.6414 58.4075 42.5236 58.7607 42.288 59.114H46.1752C46.1752 59.9383 46.1752 60.6449 46.1752 61.2336C46.0574 63.5888 45.9396 65.7084 45.8218 67.7103ZM42.877 63.5888C43.1126 64.0598 43.3481 64.6486 43.7015 65.3551C43.4659 65.4729 43.1126 65.7084 42.6414 65.9439C42.4058 65.2374 42.1702 64.6486 41.9346 64.1776C41.699 63.7065 41.4634 63.2355 41.2278 62.8822C41.4634 62.7645 41.8168 62.529 42.1702 62.2935L42.877 63.5888Z" fill="white"/>
<path d="M40.8747 75.0113C40.8747 75.7179 40.9925 76.3066 41.1103 76.8954H43.9373C44.4085 76.8954 45.1153 76.8954 45.7043 76.8954V77.9552C45.1153 77.9552 44.5263 77.9552 43.9373 77.9552H41.2281C41.5815 79.3683 42.1704 80.4281 42.995 81.1347C43.8196 81.8412 44.4085 82.1945 44.6441 82.0767C44.8797 81.959 45.1153 81.8412 45.2331 81.4879C45.3509 81.1347 45.3509 80.8992 45.3509 80.5459C45.7043 80.7814 46.1754 81.0169 46.6466 81.1347C46.411 81.959 46.0577 82.5478 45.8221 82.7833C45.5865 83.0188 45.1153 83.1365 44.5263 83.1365C43.9373 83.0188 43.3484 82.7833 42.8772 82.43C42.406 82.0767 41.9348 81.6057 41.5815 81.1347C41.2281 80.6636 40.8747 80.1926 40.6391 79.6038C40.4035 79.015 40.1679 78.4263 40.0501 77.7197H36.1629V81.3702C37.1053 80.8992 37.9298 80.4281 38.7544 79.9571C38.7544 80.4281 38.8722 80.7814 38.99 81.0169C38.1654 81.3702 37.4587 81.7235 36.8697 82.0767C36.2807 82.43 35.6917 82.7833 35.1028 83.1365C34.8672 82.7833 34.6316 82.5478 34.396 82.1945C34.8672 81.8412 34.985 81.2524 34.985 80.4281V73.4805C34.985 72.6562 34.985 71.8319 34.985 71.0076H44.6441C44.6441 71.7141 44.6441 72.3029 44.6441 72.7739C44.6441 73.245 44.6441 73.9515 44.6441 74.658H40.8747V75.0113ZM43.7018 74.0693V72.0674H36.2807V74.0693H43.7018ZM40.0501 76.8954C39.9323 76.1889 39.8145 75.4823 39.8145 75.0113H36.2807V76.8954H40.0501Z" fill="white"/>
<path d="M34.5137 97.6207C34.6315 96.9141 34.6315 96.0898 34.6315 95.2655V89.4954C34.6315 88.6711 34.6315 88.0824 34.5137 87.6113H35.8094C35.8094 88.2001 35.8094 88.6711 35.8094 89.2599V95.3833C35.8094 96.0898 35.8094 96.9141 35.8094 97.6207H34.5137ZM38.1653 86.9048C37.8119 87.1403 37.3407 87.2581 36.9874 87.4936C36.634 86.787 36.1628 86.0805 35.5738 85.3739C35.9272 85.1384 36.2806 84.9029 36.5162 84.7852C36.9874 85.2562 37.4585 85.9627 38.1653 86.9048ZM42.9949 90.4375V93.3814C42.9949 93.8524 42.9949 94.4412 42.9949 95.1478H37.4585C37.4585 94.4412 37.4585 93.8524 37.4585 93.3814V90.5553C37.4585 90.0842 37.4585 89.3777 37.4585 88.7889H42.9949C42.9949 89.3777 42.9949 89.9665 42.9949 90.4375ZM41.9347 91.2618V89.4954H38.5187V91.2618H41.9347ZM41.9347 94.2057V92.2039H38.5187V94.2057H41.9347ZM46.0575 85.7272C46.0575 86.4338 46.0575 87.1403 46.0575 87.8468V95.9721C46.0575 96.7964 45.8219 97.3852 45.3508 97.5029C44.8796 97.7384 44.2906 97.8562 43.7016 97.8562C43.7016 97.3852 43.4661 96.9141 43.2305 96.5609C43.9372 96.5609 44.4084 96.5609 44.5262 96.4431C44.644 96.3253 44.8796 96.0898 44.8796 95.7366V86.6693H41.5813C40.639 86.6693 39.8144 86.6693 39.1077 86.6693V85.6095C39.9322 85.6095 40.7568 85.6095 41.5813 85.6095H46.0575V85.7272Z" fill="white"/>
<path d="M34.0426 103.037V101.86C34.8672 101.86 35.6917 101.86 36.3985 101.86H44.2907C44.9975 101.86 45.7043 101.86 46.6466 101.86V103.037C45.7043 103.037 44.6441 103.037 43.584 103.037C43.3484 104.215 43.1128 105.275 42.6416 106.217C42.1704 107.159 41.6992 107.983 41.1103 108.572C41.817 109.161 42.7594 109.749 43.8195 110.103C44.8797 110.456 45.9398 110.691 46.7644 110.809C46.411 111.045 46.1754 111.398 45.8221 111.987C45.2331 111.869 44.4085 111.634 43.3484 111.163C42.406 110.809 41.2281 110.22 40.1679 109.278C38.6366 110.574 36.8697 111.398 34.7494 111.987C34.6316 111.634 34.396 111.28 33.9248 110.927C34.5138 110.809 35.4561 110.574 36.5163 110.22C37.5764 109.867 38.5188 109.278 39.3434 108.572C38.0476 107.277 37.1053 105.392 36.6341 102.92H36.0451C35.2205 102.92 34.6316 102.92 34.0426 103.037ZM40.0501 107.865C41.2281 106.452 41.9348 104.804 42.2882 102.92H37.6942C38.0476 104.921 38.8722 106.57 40.0501 107.865ZM40.9925 101.271C40.7569 101.389 40.4035 101.506 40.0501 101.86C39.5789 100.918 39.1078 100.093 38.6366 99.5046C38.8722 99.3868 39.2256 99.269 39.5789 98.9158C39.9323 99.5046 40.4035 100.329 40.9925 101.271Z" fill="white"/>
<path d="M37.8123 115.049C37.6945 115.402 37.4589 115.755 37.2233 116.344V123.174C37.2233 124.234 37.2233 125.176 37.2233 125.882H36.0453C36.0453 125.294 36.0453 124.351 36.0453 123.292V117.993C35.692 118.464 35.4564 118.817 35.2208 119.17C34.9852 119.523 34.7496 119.759 34.6318 119.994C34.3962 119.759 34.0428 119.406 33.6895 119.17C34.1606 118.699 34.6318 118.228 34.9852 117.639C35.3386 117.051 35.692 116.58 35.9275 116.108C36.1631 115.637 36.3987 115.166 36.6343 114.695C36.8699 114.224 36.9877 113.871 37.1055 113.518C37.3411 113.753 37.6945 113.871 38.4012 114.107C38.2834 114.342 38.0478 114.695 37.8123 115.049ZM41.8173 114.931V118.817C42.524 118.228 43.113 117.639 43.702 117.051C44.291 116.462 44.7621 115.755 45.1155 115.166C45.3511 115.52 45.8223 115.755 46.1757 115.991C45.9401 116.344 45.3511 116.815 44.6443 117.522C43.9376 118.228 43.3486 118.699 42.9952 119.052C42.6418 119.406 42.1707 119.759 41.6995 120.112V123.645C41.6995 124.234 41.9351 124.587 42.4062 124.587H44.7621C44.9977 124.587 45.2333 124.351 45.3511 124.116C45.4689 123.88 45.4689 123.409 45.5867 122.821C45.9401 123.174 46.2935 123.292 46.8824 123.409C46.6468 124.469 46.4113 125.058 46.1757 125.294C45.9401 125.529 45.5867 125.647 45.1155 125.647H42.0529C41.2283 125.647 40.8749 125.176 40.8749 124.351V121.054C40.6393 121.29 40.2859 121.525 39.9326 121.761C39.5792 121.996 39.108 122.35 38.6368 122.585C38.4012 122.232 38.1656 121.879 37.8123 121.643C38.2834 121.408 38.8724 121.172 39.3436 120.819C39.9326 120.465 40.4037 120.112 40.7571 119.759V114.813C40.7571 114.342 40.7571 113.989 40.7571 113.636H41.9351C41.9351 113.753 41.8173 114.224 41.8173 114.931Z" fill="white"/>
<path d="M20.496 5.53458C20.2604 5.88785 20.0248 6.12336 19.6714 6.47664C18.8469 5.77009 18.0223 5.18131 17.1978 4.71028C17.4333 4.47477 17.6689 4.1215 17.9045 3.76822C18.7291 4.35701 19.5536 4.94579 20.496 5.53458ZM19.4358 10.5981C18.9647 11.5402 18.6113 12.129 18.4935 12.6C18.1401 12.2467 17.6689 12.0112 17.3155 11.8935C17.5511 11.5402 18.0223 11.0692 18.3757 10.3626C18.8469 9.65608 19.3181 8.47851 20.0248 6.94766C20.3782 7.30093 20.6138 7.53645 20.9672 7.65421C20.3782 8.71402 19.7892 9.77383 19.4358 10.5981ZM21.085 2.11963C20.7316 2.4729 20.496 2.70841 20.2604 3.06168C19.6714 2.4729 18.9647 1.88411 18.0223 1.29533C18.2579 1.05981 18.4935 0.706543 18.8469 0.471028C19.5536 0.942057 20.2604 1.53084 21.085 2.11963ZM28.9772 1.53084C28.3882 1.6486 27.7993 1.6486 27.3281 1.76636C26.8569 1.88411 26.2679 1.88411 25.679 2.00187V4.35701H28.0348C28.6238 4.35701 29.2128 4.35701 29.684 4.35701V5.29907C29.2128 5.29907 28.7416 5.29907 28.0348 5.29907H25.679V7.65421H28.7416C28.7416 8.36075 28.7416 9.3028 28.7416 10.4804C28.7416 11.6579 28.7416 12.4822 28.7416 12.9533H27.6815V11.6579H22.8519V12.7178H21.7917C21.7917 12.2467 21.7917 11.3047 21.7917 10.1271C21.7917 8.83178 21.7917 7.88972 21.7917 7.53645H24.6188V5.18131H22.8519C22.0273 5.18131 21.3206 5.18131 20.7316 5.18131V4.23925C21.3206 4.23925 22.0273 4.23925 22.8519 4.23925H24.6188V2.11963C23.6764 2.23738 22.6163 2.35514 21.7917 2.4729C21.7917 2.11963 21.5561 1.76636 21.3206 1.41308C22.1451 1.41308 23.3231 1.29533 25.09 1.05981C26.7391 0.824299 27.7993 0.588786 28.1526 0.353271C28.3882 0.8243 28.6238 1.17757 28.9772 1.53084ZM27.6815 10.7159V8.36075H22.8519V10.8336H27.6815V10.7159Z" fill="white"/>
<path d="M16.9625 18.9589C17.5515 18.9589 18.1405 18.9589 18.965 18.9589H21.0853C21.7921 18.9589 22.4989 18.9589 23.3234 18.9589V19.901C22.4989 19.901 21.7921 19.901 21.0853 19.901H20.4964C20.2608 20.4897 20.0252 21.0785 19.7896 21.7851C19.554 22.4916 19.2006 23.0804 18.8472 23.7869C20.2608 23.6692 21.3209 23.5514 22.1455 23.3159C21.9099 22.8449 21.6743 22.3738 21.2031 21.6673C21.5565 21.4318 21.9099 21.314 22.1455 21.0785C22.4989 21.7851 22.8522 22.2561 23.0878 22.7271C23.3234 23.1981 23.6768 23.7869 23.9124 24.3757C23.6768 24.6112 23.3234 24.729 22.97 24.9645C22.8522 24.6112 22.7345 24.3757 22.6167 24.1402C21.4387 24.3757 20.4964 24.4935 19.7896 24.6112C19.0828 24.729 18.4938 24.8467 17.9049 25.0823C17.7871 24.729 17.5515 24.3757 17.3159 24.0224C17.7871 23.7869 18.2583 23.0804 18.6116 22.2561C18.965 21.4318 19.3184 20.6075 19.4362 19.901H18.8472C18.0227 19.901 17.4337 19.901 16.8447 19.901V18.9589H16.9625ZM20.7319 15.8972C21.3209 15.8972 22.0277 15.8972 22.8522 15.8972V16.957C22.0277 16.957 21.4387 16.957 20.7319 16.957H19.4362C18.8472 16.957 18.2583 16.957 17.6693 16.957V15.8972C18.1405 15.8972 18.7294 15.8972 19.3184 15.8972H20.7319ZM26.6217 14.3664C26.5039 14.7196 26.5039 15.1907 26.5039 15.6617C26.5039 16.1327 26.5039 16.7215 26.5039 17.3103H29.5665C29.5665 17.7813 29.4487 18.3701 29.4487 18.9589L29.2131 25.2C29.0954 25.9066 28.742 26.3776 28.2708 26.4953C27.7996 26.6131 27.2106 26.7309 26.6217 26.8486C26.5039 26.3776 26.3861 26.0243 26.0327 25.671C26.8573 25.671 27.4462 25.671 27.6818 25.5533C27.9174 25.4355 28.153 25.2 28.153 24.8467L28.5064 18.2524H26.5039C26.3861 19.901 26.2683 21.0785 26.1505 21.9028C26.0327 22.7271 25.6793 23.5514 25.3259 24.258C24.9725 24.9645 24.2658 25.9066 23.2056 27.0841C22.8522 26.7309 22.4989 26.4953 22.2633 26.3776C22.97 25.7888 23.559 25.2 24.0302 24.6112C24.5014 24.0224 24.737 23.4337 24.9725 22.7271C25.2081 22.1383 25.3259 21.4318 25.3259 20.7253C25.4437 20.0187 25.4437 19.1944 25.4437 18.2524H24.5014C24.148 18.2524 23.559 18.2524 23.0878 18.2524V17.1925C23.6768 17.1925 24.148 17.1925 24.6192 17.1925H25.4437V15.6617C25.4437 15.1907 25.4437 14.6019 25.4437 14.1309C25.7971 14.3664 26.2683 14.3664 26.6217 14.3664Z" fill="white"/>
<path d="M26.3859 32.7365H28.3884V34.9738C28.2706 35.9159 27.7994 36.6224 26.9748 36.9757L26.3859 36.5047C27.0926 36.1514 27.3282 35.5626 27.3282 34.8561H26.2681V32.7365H26.3859Z" fill="white"/>
<path d="M21.6744 44.7477C21.7922 44.2767 21.91 43.8057 22.0278 43.4524C22.1456 43.0991 22.2634 42.7458 22.2634 42.3926C22.7346 42.5103 23.2057 42.6281 23.6769 42.7458C23.4413 43.0991 23.3235 43.4524 23.3235 43.5701C23.2057 43.8057 23.088 44.1589 22.9702 44.7477H27.4463C28.2709 44.7477 28.8599 44.7477 29.5666 44.7477V45.8075C28.9777 45.8075 28.2709 45.8075 27.4463 45.8075H22.6168C22.3812 46.2786 22.1456 46.8673 21.7922 47.5739C21.4388 48.1627 20.9677 48.8692 20.4965 49.5758V53.4617C20.4965 54.1683 20.4965 54.8748 20.4965 55.5814H19.3185C19.3185 54.8748 19.3185 54.1683 19.3185 53.4617V50.6356C18.7296 51.2244 18.1406 51.6954 17.6694 52.0487C17.4338 51.6954 17.0804 51.4599 16.7271 51.2244C17.1982 50.9888 17.6694 50.6356 18.0228 50.2823C18.494 49.929 18.8474 49.458 19.2007 48.987C19.2007 48.6337 19.2007 48.2804 19.2007 48.0449H20.1431C20.3787 47.8094 20.6143 47.4561 20.8499 47.1029C21.0854 46.7496 21.2032 46.3963 21.321 46.043H20.0253C19.0829 46.043 18.3762 46.043 17.6694 46.043V44.7477C18.3762 44.7477 19.0829 44.7477 20.0253 44.7477H21.6744ZM24.5015 49.1047V48.2804C24.5015 47.5739 24.5015 46.9851 24.5015 46.5141H25.6794C25.6794 46.9851 25.6794 47.5739 25.6794 48.2804V49.1047H26.9752C27.6819 49.1047 28.2709 49.1047 28.7421 49.1047V50.1645C28.1531 50.1645 27.5641 50.1645 26.9752 50.1645H25.6794V53.815H27.7997C28.5065 53.815 29.0955 53.815 29.6844 53.815V54.7571C29.0955 54.7571 28.5065 54.7571 27.7997 54.7571H23.3235C22.3812 54.7571 21.5566 54.7571 21.0854 54.7571V53.815C21.6744 53.815 22.3812 53.815 23.3235 53.815H24.6193V50.1645H23.5591C22.8524 50.1645 22.2634 50.1645 21.6744 50.1645V49.1047C22.2634 49.1047 22.9702 49.1047 23.5591 49.1047H24.5015Z" fill="white"/>
<path d="M18.8474 66.7681C18.6118 67.1214 18.1406 67.7102 17.5516 68.4167C17.316 68.1812 16.9626 67.9457 16.7271 67.7102C17.5516 66.8859 18.1406 65.9438 18.494 65.1195C18.8474 65.4728 19.2007 65.7083 19.5541 65.8261C19.4363 66.0616 19.2007 66.4149 18.8474 66.7681ZM22.0278 61.3513C22.6168 61.3513 23.3235 61.3513 23.9125 61.3513V62.4111C23.3235 62.4111 22.3812 62.4111 21.0854 62.4111V63.8242C22.2634 63.8242 23.088 63.8242 23.7947 63.8242V64.7663C23.088 64.7663 22.2634 64.7663 21.0854 64.7663V68.1812C21.0854 68.77 20.9677 69.1233 20.6143 69.241C20.2609 69.4765 19.7897 69.4765 19.3185 69.4765C19.2007 69.0055 18.9651 68.6522 18.7296 68.299C19.2007 68.299 19.5541 68.299 19.7897 68.299C20.0253 68.299 20.1431 68.0635 20.1431 67.8279V64.7663C18.9651 64.7663 18.0228 64.7663 17.4338 64.7663V63.7064C18.1406 63.7064 19.0829 63.7064 20.1431 63.7064V62.4111C18.7296 62.4111 17.7872 62.4111 17.0804 62.4111V61.3513C17.7872 61.3513 18.3762 61.3513 18.9651 61.3513H21.0854C21.321 60.4093 21.5566 59.8205 21.7922 59.3494C22.0278 59.4672 22.499 59.585 22.9702 59.7027C22.6168 59.8205 22.2634 60.4093 22.0278 61.3513ZM21.321 58.0541C22.1456 58.0541 22.9702 58.0541 23.6769 58.0541V59.1139C22.8524 59.1139 22.2634 59.1139 21.7922 59.1139H19.2007C18.6118 59.1139 18.0228 59.1139 17.4338 59.1139V58.0541C18.0228 58.0541 18.6118 58.0541 19.2007 58.0541H20.1431C20.0253 57.7008 19.9075 57.2298 19.7897 56.7588C20.1431 56.641 20.4965 56.5233 20.9677 56.4055C21.2032 57.2298 21.321 57.8186 21.321 58.0541ZM19.7897 60.998C19.4363 61.1158 19.2007 61.2336 18.8474 61.3513C18.6118 60.7625 18.494 60.2915 18.2584 59.8205C18.494 59.7027 18.8474 59.585 19.2007 59.4672C19.3185 59.9382 19.5541 60.4093 19.7897 60.998ZM23.5591 67.1214C23.2057 67.3569 22.8524 67.5924 22.6168 67.8279C22.3812 67.1214 21.91 66.5326 21.4388 65.9438C21.6744 65.7083 22.0278 65.4728 22.2634 65.355C22.7346 65.8261 23.2057 66.4149 23.5591 67.1214ZM25.7972 58.1719V60.998H28.6243C28.9777 60.998 29.4489 60.998 29.92 60.998V62.0579C29.4489 62.0579 28.9777 62.0579 28.6243 62.0579V67.7102C28.6243 68.299 28.6243 69.0055 28.6243 69.7121H27.4463C27.4463 69.0055 27.4463 68.4167 27.4463 67.8279V62.0579H25.6794C25.6794 62.9999 25.6794 63.8242 25.5616 64.6485C25.4438 65.4728 25.326 66.2971 25.0905 67.1214C24.8549 67.9457 24.5015 68.77 24.0303 69.7121C23.6769 69.4765 23.3235 69.3588 22.9702 69.1233C23.5591 68.299 24.0303 67.3569 24.2659 66.4149C24.5015 65.4728 24.6193 64.6485 24.7371 63.942C24.7371 63.2354 24.7371 62.1756 24.7371 60.7625C24.7371 59.3494 24.7371 58.1719 24.7371 57.3476C26.3862 57.2298 27.9175 56.9943 29.2133 56.5233C29.4489 57.1121 29.8022 57.4653 29.92 57.7008C29.3311 57.8186 27.9175 57.9364 25.7972 58.1719Z" fill="white"/>
<path d="M21.7917 77.0131C21.7917 78.8972 21.7917 80.3103 21.7917 81.4879H20.6138V80.4281H18.3757V82.1944H17.1978C17.1978 80.5458 17.1978 78.7795 17.1978 77.1309C17.1978 75.3645 17.1978 73.7159 17.1978 72.1851H21.6739C21.7917 73.5981 21.7917 75.129 21.7917 77.0131ZM20.7316 75.8355V73.2449H18.4935V75.8355H20.7316ZM20.7316 79.486V76.7776H18.4935V79.486H20.7316ZM26.9747 70.772H28.1526C28.1526 71.714 28.1526 72.7738 28.1526 73.8337C28.7416 73.8337 29.3306 73.8337 29.9196 73.8337V74.8935C29.3306 74.8935 28.7416 74.8935 28.1526 74.8935V82.3122C28.1526 82.9009 27.9171 83.2542 27.4459 83.372C27.0925 83.4897 26.5035 83.6075 25.7968 83.6075C25.7968 83.1365 25.5612 82.7832 25.2078 82.3122C25.9145 82.4299 26.3857 82.4299 26.6213 82.3122C26.8569 82.3122 27.0925 82.0767 27.0925 81.6056V74.7757C25.2078 74.7757 23.6765 74.7757 22.4985 74.7757V73.7159C23.6765 73.7159 25.2078 73.7159 27.0925 73.7159C27.0925 72.7738 27.0925 71.8318 26.9747 70.772ZM25.5612 78.7795C25.2078 78.8972 24.8544 79.015 24.3832 79.2505C24.1476 78.3084 23.6765 77.4841 23.0875 76.7776C23.4409 76.6598 23.7942 76.4243 24.1476 76.3066C24.6188 77.1309 25.09 77.9552 25.5612 78.7795Z" fill="white"/>
<path d="M18.8474 95.7364C18.494 96.3252 18.1406 96.7962 17.6694 97.1495C17.316 96.914 16.9626 96.6785 16.7271 96.5607C17.0804 96.3252 17.4338 95.9719 17.7872 95.5009C18.1406 95.0299 18.494 94.5588 18.7296 94.2056L19.7897 94.9121C19.5541 94.7943 19.2007 95.1476 18.8474 95.7364ZM18.3762 85.0205H19.5541C19.5541 85.727 19.5541 86.3158 19.5541 86.7869H22.0278C22.0278 86.0803 22.0278 85.4915 22.0278 85.0205H23.2057C23.2057 85.6093 23.2057 86.1981 23.2057 86.7869C23.4413 86.7869 23.7947 86.7869 24.1481 86.7869V87.7289C23.7947 87.7289 23.4413 87.7289 23.2057 87.7289V93.028C23.4413 93.028 23.7947 93.028 24.1481 93.028V93.97C23.4413 93.97 22.7346 93.97 22.1456 93.97H19.2007C18.3762 93.97 17.6694 93.97 17.0804 93.97V93.028C17.6694 93.028 18.1406 93.028 18.6118 93.028V87.7289C18.2584 87.7289 17.905 87.7289 17.4338 87.7289V86.7869C17.7872 86.7869 18.2584 86.7869 18.6118 86.7869C18.3762 86.3158 18.3762 85.727 18.3762 85.0205ZM21.91 88.9065V87.7289H19.4363V88.9065H21.91ZM21.91 90.9084V89.7308H19.4363V90.9084H21.91ZM21.91 92.9102V91.7327H19.4363V92.9102H21.91ZM21.2032 94.6766C21.4388 94.5588 21.6744 94.3233 21.91 93.97C22.3812 94.4411 22.8524 94.9121 23.4413 95.6186C23.2057 95.8542 22.8524 96.0897 22.499 96.4429C22.0278 95.6186 21.5566 95.0299 21.2032 94.6766ZM28.2709 95.9719V92.9102H25.7972C25.6794 93.8523 25.5616 94.6766 25.2083 95.5009C24.8549 96.3252 24.3837 97.0317 23.7947 97.7383C23.5591 97.385 23.2057 97.1495 22.7346 97.0317C23.3235 96.4429 23.7947 95.7364 24.1481 95.0299C24.5015 94.3233 24.6193 93.6168 24.7371 92.9102C24.7371 92.2037 24.8549 91.0261 24.8549 89.4953C24.8549 87.8467 24.8549 86.5513 24.8549 85.6093H29.5667C29.5667 86.3158 29.5667 87.1401 29.5667 88.2V96.3252C29.5667 96.7962 29.4489 97.1495 29.0955 97.385C28.7421 97.6205 28.2709 97.7383 27.7997 97.7383C27.7997 97.385 27.6819 96.914 27.3286 96.4429C27.9175 96.4429 28.3887 96.3252 28.2709 95.9719ZM28.2709 88.9065V86.4336H25.915V88.9065H28.2709ZM28.2709 91.9682V89.613H25.915V91.9682H28.2709Z" fill="white"/>
<path d="M21.0851 100.211C21.0851 99.9757 21.0851 99.6224 21.0851 99.2691H22.1452C22.1452 99.6224 22.1452 99.9757 22.1452 100.211H24.7367C24.7367 99.9757 24.7367 99.6224 24.7367 99.1514H25.9147C25.7969 99.6224 25.7969 99.9757 25.7969 100.211H28.1528C28.7417 100.211 29.3307 100.211 29.9197 100.211V101.153C29.4485 101.153 28.8595 101.153 28.1528 101.153H25.7969C25.7969 101.389 25.7969 101.624 25.7969 101.86H24.7367V101.153H22.0274V102.213H21.0851C21.0851 101.86 21.0851 101.507 21.0851 101.153H18.847C18.258 101.153 17.6691 101.153 17.0801 101.271V100.093C17.5513 100.093 18.1402 100.093 18.7292 100.093H21.0851V100.211ZM23.3232 111.751C22.3808 111.751 21.4385 111.398 20.7317 111.045C20.0249 110.692 19.5538 110.456 19.2004 110.692C18.847 110.927 18.4936 111.28 18.0224 111.751C17.7868 111.398 17.4335 111.28 17.1979 111.045C17.4335 110.809 17.6691 110.574 18.0224 110.338C18.258 110.103 18.6114 109.867 18.9648 109.749V105.981H18.6114C18.1402 105.981 17.6691 105.981 17.1979 105.981V105.039C17.6691 105.039 18.1402 105.039 18.7292 105.039H20.1427C20.1427 105.628 20.1427 106.099 20.1427 106.688V109.514C20.7317 109.867 21.4385 110.221 22.263 110.456C23.0876 110.692 23.6766 110.809 24.3833 110.809C25.0901 110.809 25.9147 110.809 26.9748 110.809C28.035 110.809 29.0951 110.692 29.9197 110.574C29.6841 111.045 29.4485 111.398 29.4485 111.751C26.268 111.751 24.2655 111.751 23.3232 111.751ZM20.2605 103.862C19.9071 103.979 19.436 104.097 19.2004 104.215C19.0826 103.744 18.847 103.155 18.3758 102.331C18.7292 102.213 19.0826 102.095 19.436 101.978L20.2605 103.862ZM22.4986 104.804C22.9698 104.686 23.441 104.568 24.03 104.333C23.6766 104.097 23.2054 103.862 22.852 103.391C22.4986 103.744 22.1452 103.979 21.9097 104.333C21.5563 104.215 21.2029 104.097 20.8495 103.979C21.3207 103.744 21.7919 103.273 22.1452 102.802C22.4986 102.331 22.852 101.86 23.0876 101.389C23.3232 101.507 23.7944 101.624 24.2655 101.742C24.03 101.978 23.7944 102.213 23.5588 102.449H28.035C27.9172 102.684 27.5638 102.92 27.0926 103.273C26.6214 103.626 26.268 103.979 25.7969 104.215C26.268 104.333 26.7392 104.45 27.3282 104.568C27.9172 104.686 28.6239 104.686 29.5663 104.568C29.3307 104.804 29.2129 105.157 28.9773 105.628C28.1528 105.51 27.446 105.392 26.857 105.275C26.268 105.157 25.5613 104.921 24.7367 104.686C24.1477 104.921 23.5588 105.157 22.9698 105.275C22.4986 105.51 21.7919 105.628 20.8495 105.864C20.6139 105.51 20.3783 105.157 20.2605 104.921C21.3207 105.039 22.0274 104.921 22.4986 104.804ZM24.3833 105.392H25.4435C25.4435 105.628 25.4435 105.864 25.4435 106.099C26.7392 106.099 27.6816 106.099 28.2706 106.099V106.923C27.7994 106.923 26.857 106.923 25.4435 106.923V107.512C26.7392 107.512 27.6816 107.512 28.2706 107.512V108.336C28.035 108.336 27.0926 108.336 25.4435 108.336V109.043C27.2104 109.043 28.3883 109.043 28.9773 109.043V109.867C28.7417 109.867 27.6816 109.867 25.4435 109.867C25.4435 110.221 25.4435 110.574 25.4435 110.927H24.3833C24.3833 110.574 24.3833 110.221 24.3833 109.867C22.6164 109.867 21.5563 109.867 21.0851 109.867V109.043C21.6741 109.043 22.7342 109.043 24.3833 109.043V108.336C22.9698 108.336 22.1452 108.336 21.7919 108.336V107.512C22.4986 107.512 23.3232 107.512 24.3833 107.512V106.923C22.9698 106.923 22.0274 106.923 21.6741 106.923V105.981C22.1452 105.981 22.9698 105.981 24.3833 105.981C24.5011 105.864 24.5011 105.628 24.3833 105.392ZM26.268 103.037H23.441C23.5588 103.155 23.7944 103.391 24.03 103.508C24.2655 103.626 24.6189 103.862 24.9723 103.979C25.4435 103.744 25.9147 103.391 26.268 103.037Z" fill="white"/>
<path d="M19.9073 120.23C19.0827 120.23 18.4937 120.23 18.1403 120.23V119.288C18.6115 119.288 19.2005 119.288 19.9073 119.288H23.2055V120.23C22.8521 120.465 22.4987 120.583 22.1454 120.819C21.9098 121.054 21.5564 121.29 21.203 121.525V121.996C22.2632 121.879 23.0877 121.761 23.6767 121.761V122.703C23.2055 122.703 22.7343 122.821 22.3809 122.821C22.0276 122.821 21.6742 122.938 21.203 122.938V124.705C21.203 125.176 20.9674 125.529 20.614 125.647C20.2606 125.765 19.6717 125.882 19.0827 125.882C18.9649 125.529 18.8471 125.058 18.7293 124.705C19.5539 124.705 20.0251 124.705 20.1429 124.469C20.2606 124.234 20.2606 123.998 20.2606 123.645V122.821C18.7293 122.938 17.787 123.056 17.198 123.174C17.0802 122.821 16.9624 122.467 16.9624 122.114C17.6692 122.114 18.2581 121.996 18.6115 121.996C19.0827 121.996 19.5539 121.879 20.2606 121.879C20.2606 121.525 20.2606 121.29 20.2606 120.937C20.8496 120.583 21.3208 120.23 21.6742 119.994H19.9073V120.23ZM20.1429 115.049V114.224C20.1429 113.989 20.1429 113.636 20.1429 113.282H21.203C21.203 113.636 21.203 113.871 21.203 114.224V115.049H22.3809C22.8521 115.049 23.4411 115.049 24.0301 115.049V115.991C23.4411 115.991 22.8521 115.991 22.2632 115.991H21.203V117.286H24.0301C24.0301 117.639 24.0301 117.875 24.0301 118.11C24.0301 118.346 24.0301 118.699 24.0301 119.052H22.9699V118.11H18.2581V119.052H17.198C17.198 118.817 17.198 118.464 17.198 118.228C17.198 117.993 17.198 117.639 17.198 117.286H20.2606V115.991H18.8471C18.2581 115.991 17.6692 115.991 17.198 115.991V115.049C17.6692 115.049 18.1403 115.049 18.7293 115.049H20.1429ZM28.9774 124.469C28.8596 125.058 28.6241 125.411 28.2707 125.411C27.9173 125.411 27.3283 125.647 26.7393 125.765C26.6216 125.294 26.5038 124.94 26.2682 124.469C26.9749 124.469 27.4461 124.469 27.7995 124.351C28.0351 124.234 28.1529 123.88 28.1529 123.292L28.5063 117.522H26.7393C26.6216 119.17 26.5038 120.348 26.2682 121.29C26.0326 122.232 25.797 122.938 25.4436 123.527C25.0902 124.116 24.8546 124.587 24.5012 124.94C24.1479 125.294 23.9123 125.647 23.5589 126C23.3233 125.647 22.9699 125.294 22.6165 125.058C23.3233 124.587 23.7945 124.116 24.2657 123.527C24.7368 122.938 24.9724 122.35 25.208 121.761C25.4436 121.172 25.5614 120.583 25.6792 119.994C25.797 119.406 25.797 118.581 25.9148 117.404C25.4436 117.404 24.9724 117.404 24.5012 117.404V116.58C24.8546 116.58 25.4436 116.58 25.9148 116.58C25.9148 115.637 25.9148 115.049 25.9148 114.695V113.165C26.2682 113.282 26.7393 113.282 27.2105 113.4C27.0927 113.636 26.9749 114.107 26.9749 114.578C26.9749 115.049 26.8571 115.755 26.8571 116.462H29.802C29.802 116.815 29.6842 117.522 29.6842 118.464L28.9774 124.469Z" fill="white"/>
<path d="M6.59649 1.7664C6.4787 2.23742 6.3609 2.82621 6.12531 3.53275H10.6015C10.9549 3.53275 11.5439 3.53275 12.2506 3.53275V4.59256C11.5439 4.59256 10.9549 4.59256 10.6015 4.59256H5.88972C5.65413 5.06359 5.41855 5.53462 5.18296 6.12341H11.0727C10.3659 7.772 9.42356 9.18509 8.12782 10.3627C9.07018 11.0692 10.6015 11.5402 12.4862 11.7757C12.2506 12.0113 12.015 12.4823 11.7794 12.8356C11.0727 12.7178 10.2481 12.4823 9.54135 12.2468C8.83459 12.0113 8.01002 11.5402 7.30326 11.0692C6.71428 11.4225 6.00752 11.7757 5.18296 12.129C4.3584 12.4823 3.41604 12.7178 2.59148 12.9533C2.47368 12.6 2.35589 12.2468 2.00251 11.8935C2.82707 11.7757 3.65163 11.658 4.47619 11.3047C5.30075 10.9514 5.88972 10.7159 6.59649 10.3627C5.88972 9.65612 5.30075 8.83182 4.47619 7.65425C4.12281 8.24303 3.53383 8.94957 2.94486 9.53836C2.35589 10.1271 1.64912 10.7159 0.942356 11.3047C0.706767 10.9514 0.471178 10.7159 0 10.4804C0.588972 10.2449 1.06015 9.77387 1.64912 9.30285C2.2381 8.83182 2.70927 8.24303 3.29825 7.41873C3.88722 6.59443 4.3584 5.65238 4.82957 4.47481C3.88722 4.47481 3.18045 4.47481 2.59148 4.47481C2.1203 4.47481 1.64912 4.59256 1.41353 4.71032C1.29574 4.47481 1.17794 4.12154 0.942356 3.65051C1.29574 3.53275 1.53133 3.29724 1.76692 2.82621C2.00251 2.35518 2.1203 1.64864 2.35589 0.706583C2.59148 0.82434 3.06266 1.05985 3.53383 1.17761C3.29825 1.53088 3.18045 1.88415 3.06266 2.35518C2.94486 2.82621 2.70927 3.06172 2.59148 3.53275H5.18296C5.41855 2.35518 5.65413 1.17761 5.88972 0.117798C6.12531 0.353312 6.59649 0.471069 7.06767 0.588826C6.83208 0.942097 6.71428 1.41312 6.59649 1.7664ZM7.42105 9.77387C8.24561 9.06733 8.95238 8.24303 9.54135 7.06546H5.30075C5.77193 7.88976 6.4787 8.83182 7.42105 9.77387ZM10.9549 2.35518C10.7193 2.47294 10.3659 2.70845 10.0125 3.06172C9.42356 2.23742 8.83459 1.53088 8.24561 0.942097C8.4812 0.706583 8.71679 0.471069 9.07017 0.235555C9.65915 0.942097 10.3659 1.64864 10.9549 2.35518Z" fill="white"/>
<path d="M11.3083 16.015C11.3083 16.486 11.3083 17.0748 11.3083 17.5458H8.95238V18.8411H9.89474C10.2481 18.8411 10.7193 18.8411 11.1905 18.8411V19.7832C10.6015 19.7832 10.1303 19.7832 9.89474 19.7832H8.95238V21.0785H10.9549C11.3083 21.0785 11.7794 21.0785 12.3684 21.0785V22.0206C11.7794 22.0206 11.3083 22.0206 11.0727 22.0206H7.53885C7.77444 22.8449 8.24561 23.5514 8.83459 24.0224C9.42356 23.4337 9.89474 22.7271 10.2481 22.1383C10.6015 22.3738 10.9549 22.6094 11.4261 22.8449C11.0727 23.0804 10.4837 23.6692 9.65915 24.6112C10.4837 25.2 11.5439 25.5533 12.7218 25.7888C12.4862 26.0243 12.1328 26.3776 12.015 26.8486C10.9549 26.4953 10.1303 26.1421 9.54135 25.7888C8.95238 25.4355 8.36341 24.9645 7.89223 24.3757C7.42105 23.7869 7.06767 22.9626 6.71429 22.0206H5.06516V25.2C5.88972 24.729 6.3609 24.3757 6.59649 24.1402C6.71429 24.4935 6.83208 24.9645 6.94987 25.2C6.71429 25.3178 6.3609 25.5533 5.77193 25.9066C5.18296 26.2598 4.71178 26.6131 4.3584 26.9664C4.12281 26.6131 3.88722 26.2598 3.65163 26.0243C3.88722 25.671 4.00501 25.3178 4.00501 24.8467V22.0206H2.35589C2.2381 23.1982 2.00251 24.1402 1.76692 24.9645C1.53133 25.7888 1.17794 26.3776 0.942356 26.8486C0.706767 26.6131 0.353383 26.3776 0 26.2598C0.353383 25.671 0.588972 24.9645 0.824561 24.3757C1.06015 23.7869 1.17794 22.9626 1.29574 22.2561C1.41353 21.5496 1.41353 20.7253 1.41353 19.7832C1.41353 18.8411 1.41353 18.1346 1.41353 17.4281C1.41353 16.7215 1.41353 15.7795 1.41353 14.4841H11.5439C11.3083 14.9552 11.3083 15.5439 11.3083 16.015ZM10.3659 16.7215V15.3084H2.35589V16.6038H10.3659V16.7215ZM4.82957 21.0785V19.7832H4.3584C4.00501 19.7832 3.53383 19.7832 2.94486 19.7832V18.8411C3.53383 18.8411 4.00501 18.8411 4.3584 18.8411H4.94737V17.5458H2.35589V21.0785H4.82957ZM8.01003 18.8411V17.5458H5.88972V18.8411H8.01003ZM8.01003 21.0785V19.7832H5.88972V21.0785H8.01003Z" fill="white"/>
<path d="M46.5289 3.65047C45.8222 3.65047 45.1154 3.65047 44.5264 3.65047H36.5164C36.6342 6.12336 36.6342 7.77196 36.5164 8.71402C36.3986 9.65607 36.2808 10.4804 36.0452 11.1869C35.8096 11.8935 35.4563 12.4822 34.9851 13.1888C34.6317 12.8355 34.2783 12.6 33.8071 12.3645C34.2783 11.8935 34.6317 11.3047 34.9851 10.5981C35.3385 9.89159 35.4563 8.83178 35.574 7.41869C35.574 6.00561 35.574 4.47477 35.4563 2.70841H44.4086C45.1154 2.70841 45.8222 2.70841 46.5289 2.70841V3.65047ZM39.5791 0.471028C39.9324 0.353271 40.2858 0.235514 40.6392 0C40.9926 0.588785 41.346 1.17757 41.6994 2.00187C41.4638 2.11963 40.9926 2.23738 40.5214 2.59065C40.2858 1.76636 39.9324 1.05981 39.5791 0.471028Z" fill="white"/>
</svg>
