<svg width="30" height="112" viewBox="0 0 30 112" fill="none" xmlns="http://www.w3.org/2000/svg">
<path d="M20.3115 5.29418C20.078 5.52947 19.8445 5.88241 19.6111 6.23535C18.7939 5.52947 17.9768 5.05888 17.043 4.47065C17.2764 4.1177 17.5099 3.88241 17.6266 3.52947C18.4437 4.00006 19.2609 4.47065 20.3115 5.29418ZM18.327 12.4706C18.0936 12.2354 17.7434 12.0001 17.2764 11.7648C17.7434 11.0589 18.2103 10.2354 18.6772 9.41182C19.1441 8.58829 19.4943 7.88241 19.7278 7.17653C19.9613 7.52947 20.3115 7.76476 20.6616 8.00006C19.7278 9.64712 18.9107 11.1765 18.327 12.4706ZM20.7784 1.88241C20.5449 2.23535 20.1947 2.47065 20.078 2.82359C19.3776 2.1177 18.5605 1.52947 17.7434 1.05888C18.0936 0.70594 18.327 0.470646 18.4437 0.235352C19.1441 0.823587 19.9613 1.29418 20.7784 1.88241ZM21.1286 2.1177V1.05888C22.0624 1.05888 22.7628 1.05888 23.4632 1.05888H28.7161C28.3659 2.58829 28.0157 4.00006 27.5488 5.29418C27.0819 6.58829 26.4982 7.76476 25.9146 8.82359C26.3815 9.41182 27.0819 10.0001 27.7823 10.4706C28.4827 11.0589 29.183 11.4118 30.0002 11.7648C29.65 12.0001 29.4165 12.2354 29.0663 12.7059C28.5994 12.353 27.899 11.8824 27.1986 11.2942C26.4982 10.7059 25.6811 10.1177 25.2142 9.52947C24.6305 10.2354 23.9301 10.8236 23.2297 11.4118C22.5293 12.0001 21.5955 12.4706 20.7784 13.0589C20.6616 12.7059 20.4282 12.4706 19.9613 12.1177C20.6616 11.8824 21.362 11.5295 22.1792 10.9412C22.9963 10.353 23.8134 9.64712 24.5138 8.82359C23.9301 7.88241 23.4632 6.94123 23.113 5.88241C22.7628 4.70594 22.4126 3.52947 22.1792 2.00006C21.829 2.1177 21.4788 2.1177 21.1286 2.1177ZM24.0469 5.29418C24.3971 6.47065 24.864 7.29418 25.2142 7.88241C25.5644 7.29418 25.9146 6.58829 26.3815 5.52947C26.7317 4.47065 27.0819 3.29418 27.4321 2.00006H23.6967H23.2297C23.3465 3.05888 23.5799 4.1177 24.0469 5.29418Z" fill="white"/>
<path d="M20.0776 17.7648V24.8236C20.0776 25.6472 20.0776 26.3531 20.0776 27.1766H18.9103C18.9103 26.3531 18.9103 25.5295 18.9103 24.8236V19.7648C18.3266 20.706 17.8597 21.2942 17.5095 21.7648C17.276 21.5295 17.0426 21.1766 16.6924 20.9413C17.276 20.3531 17.8597 19.5295 18.4434 18.3531C19.027 17.1766 19.4939 15.8825 19.8441 14.4707C20.4278 14.706 20.778 14.9413 21.1282 14.9413C21.1282 15.1766 20.6613 16.1178 20.0776 17.7648ZM23.2293 14.4707C23.4628 14.4707 23.813 14.5883 24.5134 14.5883C24.3967 15.0589 24.5134 16.4707 24.6301 18.9413C26.3811 18.5884 27.7819 18.3531 28.7157 18.0001L28.9492 19.0589C28.599 19.0589 27.1982 19.4119 24.7469 19.8825C25.2138 22.2354 25.7974 23.7648 26.7313 24.706C27.6651 25.6472 28.1321 25.8825 28.2488 25.4119C28.3655 24.9413 28.4823 24.5884 28.4823 24.1178C28.8325 24.3531 29.2994 24.5884 29.6496 24.5884C29.4161 25.6472 29.1827 26.3531 28.9492 26.5884C28.7157 26.8236 28.2488 26.9413 27.6651 26.706C27.0815 26.4707 26.3811 25.8825 25.564 24.9413C24.7469 24.0001 24.1632 22.3531 23.6963 20.0001C22.2955 20.3531 21.4784 20.4707 21.1282 20.5884L20.778 19.5295C21.3616 19.4119 22.2955 19.2942 23.5795 19.0589C23.4628 16.8236 23.3461 15.2942 23.2293 14.4707ZM28.0153 16.8236C27.6651 17.0589 27.315 17.2942 27.0815 17.5295C26.7313 16.9413 26.3811 16.2354 25.7974 15.6472C26.0309 15.4119 26.3811 15.2942 26.7313 14.9413C27.3149 15.7648 27.7819 16.4707 28.0153 16.8236Z" fill="white"/>
<path d="M27.8988 29.1765C27.8988 29.8823 27.8988 30.4706 27.8988 31.0588V33.0588C27.8988 33.8823 27.8988 34.5882 27.8988 35.2941H26.7315V34.4706H19.4941V38.1176C19.3774 39.0588 19.8443 39.4118 20.8949 39.4118H26.2645C26.8482 39.4118 27.3151 39.4117 27.5486 39.1765C27.782 38.9412 28.0155 38.3529 28.0155 37.2941C28.3657 37.5294 28.8326 37.7647 29.4163 37.8823C29.1828 38.8235 28.9494 39.5294 28.7159 39.8823C28.4824 40.2353 28.0155 40.4706 27.5486 40.4706H20.1945C18.9104 40.4706 18.2101 39.8823 18.3268 38.7059V34C18.3268 33.647 18.3268 32.9412 18.3268 32H19.6108C19.6108 32.4706 19.6108 33.0588 19.6108 33.5294H26.7315V30H20.6614C19.8443 30 18.9104 30 17.8599 30V28.9412C18.9104 28.9412 19.8443 28.9412 20.6614 28.9412H27.8988V29.1765Z" fill="white"/>
<path d="M19.9613 44.8236C19.6111 45.4118 19.1441 46.2354 18.327 47.2942C18.5605 47.2942 19.2609 47.2942 20.4282 47.1765C20.7784 46.5883 21.1286 46.0001 21.4788 45.4118C21.7122 45.6471 22.0624 45.8824 22.5293 46.1177C22.1792 46.5883 21.7122 47.1765 21.2453 47.8824C20.7784 48.5883 19.9613 49.5295 18.9107 50.8236C20.3115 50.5883 21.362 50.4707 21.9457 50.353C21.9457 50.5883 21.9457 50.9412 21.9457 51.2942C21.5955 51.4118 21.0118 51.4118 20.1947 51.5295C19.3776 51.6471 18.4437 51.7648 17.7434 52.0001C17.7434 51.7648 17.6266 51.4118 17.3932 51.0589C17.7434 50.8236 18.2103 50.5883 18.6772 50.1177C19.1441 49.6471 19.4943 49.0589 19.9613 48.353C19.6111 48.353 19.1441 48.353 18.6772 48.4707C18.2103 48.5883 17.8601 48.5883 17.5099 48.706C17.3932 48.4707 17.2764 48.1177 17.043 47.7648C17.3932 47.5295 17.8601 46.9412 18.4437 46.0001C19.0274 45.0589 19.3776 44.2354 19.7278 43.2942C19.9613 43.5295 20.3114 43.7648 20.7784 43.8824C20.5449 43.8824 20.3115 44.2354 19.9613 44.8236ZM22.1792 53.5295C21.4788 53.6471 20.7784 53.7648 19.9613 54.0001C19.1441 54.2354 18.327 54.353 17.6266 54.5883C17.3932 54.1177 17.2764 53.7648 17.1597 53.4118C18.2103 53.2942 18.9107 53.1765 19.4943 53.0589C20.078 52.9412 20.8951 52.8236 22.1792 52.5883C22.1792 52.8236 22.1792 53.1765 22.1792 53.5295ZM28.3659 43.7648C28.1325 44.1177 27.899 44.5883 27.6655 44.9413C27.4321 45.2942 26.9651 45.8824 26.4982 46.4707C28.1325 47.5295 29.183 48.2354 29.65 48.5883C29.4165 48.8236 29.0663 49.1765 28.8329 49.5295C28.3659 49.0589 27.4321 48.2354 25.9146 47.1765C25.4476 47.6471 24.9807 48.0001 24.5138 48.353C24.0469 48.706 23.3465 49.1765 22.5293 49.6471C22.2959 49.2942 22.0624 48.9413 21.7122 48.706C22.2959 48.4707 22.8795 48.2354 23.3465 47.8824C23.8134 47.5295 24.3971 47.1765 25.0974 46.4707C25.7978 45.7648 26.2648 45.1765 26.7317 44.5883H24.3971C23.6967 44.5883 23.113 44.5883 22.5293 44.5883V43.6471C23.113 43.6471 23.6967 43.6471 24.3971 43.6471H28.3659V43.7648ZM27.1986 49.8824C27.7823 49.8824 28.3659 49.8824 28.8329 49.8824V50.8236C28.3659 50.8236 27.7823 50.8236 27.1986 50.8236H26.2648V54.1177H27.899C28.3659 54.1177 28.9496 54.1177 29.5332 54.1177V55.0589C28.9496 55.0589 28.3659 55.0589 27.899 55.0589H23.5799C23.113 55.0589 22.5293 55.0589 21.7122 55.0589V54.1177C22.5293 54.1177 23.113 54.1177 23.5799 54.1177H25.2142V50.8236H24.5138C23.9301 50.8236 23.3465 50.8236 22.7628 50.8236V49.8824C23.3465 49.8824 23.9301 49.8824 24.5138 49.8824H27.1986Z" fill="white"/>
<path d="M19.4944 62.5881C20.3115 61.7646 21.0119 60.7058 21.7123 59.5293H19.7278C19.2609 59.5293 18.5605 59.5293 17.8601 59.5293V58.4705C18.794 58.4705 19.4944 58.4705 19.9613 58.4705H22.0625C22.2959 57.5293 22.5294 56.9411 22.5294 56.5881C23.113 56.7058 23.4632 56.8234 23.8134 56.9411C23.6967 57.0587 23.58 57.5293 23.2298 58.5881H27.6656C28.2492 58.5881 28.9496 58.5881 29.5333 58.5881V59.647C28.8329 59.647 28.2492 59.647 27.7823 59.647H22.8796C22.6461 60.1175 22.2959 60.5881 22.0625 61.0587H28.366C28.366 61.9999 28.366 62.8234 28.366 63.5293V67.9999C28.366 68.4705 28.2492 68.9411 27.899 69.1764C27.6656 69.4117 26.9652 69.5293 26.0313 69.647C26.0313 69.294 25.9146 68.8234 25.6811 68.3528C26.2648 68.4705 26.615 68.4705 26.8484 68.3528C27.0819 68.3528 27.1986 68.1175 27.1986 67.7646V66.7058H21.4788V69.4117H20.3115C20.3115 68.4705 20.3115 67.647 20.3115 67.0587V63.1764C19.4944 64.1175 18.794 64.8234 17.8601 65.5293C17.7434 65.294 17.3932 64.9411 16.9263 64.5881C17.8601 64.1176 18.6772 63.4117 19.4944 62.5881ZM27.1986 63.4117V61.8823H21.4788V63.4117H27.1986ZM27.1986 65.647V64.2352H21.4788V65.647H27.1986Z" fill="white"/>
<path d="M28.599 71.1765V72.353C28.2488 72.4706 27.4317 72.9412 26.3811 73.6471C25.3306 74.353 24.5134 74.9412 24.0465 75.2941V81.5294C24.0465 82.1177 23.6963 82.5883 23.1127 82.7059C22.529 82.8235 21.9453 82.9412 21.2449 83.0588C21.0115 82.2353 20.8948 81.7647 20.6613 81.5294C21.5951 81.5294 22.1788 81.5294 22.4123 81.5294C22.6457 81.5294 22.7625 81.1765 22.7625 80.8235V76.4706C22.7625 75.6471 22.7625 75.0588 22.6457 74.7059C23.2294 74.4706 24.6302 73.6471 26.7313 72.1177H20.8948C19.9609 72.1177 19.1438 72.1177 18.3267 72.1177V71.0588C19.1438 71.0588 19.7274 71.0588 20.3111 71.0588H28.599V71.1765Z" fill="white"/>
<path d="M19.144 87.7647V89.6471H20.428C21.1284 89.6471 21.8288 89.6471 22.6459 89.6471V90.8236C21.8288 90.8236 21.1284 90.8236 20.428 90.8236H19.144V95.6471C19.7276 95.4118 20.1946 95.1765 20.6615 94.9412C21.1284 94.7059 21.7121 94.353 22.6459 93.8824C22.7627 94.353 22.7627 94.7059 22.8794 95.0589C22.0623 95.4118 21.1284 95.8824 20.3113 96.353C19.4942 96.8236 18.7938 97.1765 18.4436 97.4118C18.2101 97.0589 17.9767 96.7059 17.6265 96.2353C17.8599 96.1177 17.9767 95.7647 17.9767 95.2942V87.8824C17.9767 86.9412 17.9767 86.2353 17.9767 85.6471H19.144C19.144 86.1177 19.144 86.9412 19.144 87.7647ZM24.6304 87.5295V89.8824C26.3813 89.0589 27.5486 88.2353 28.3658 87.4118C28.5992 87.7648 28.9494 88.2353 29.2996 88.4706C28.8327 88.7059 28.249 89.0589 27.4319 89.5295C26.6148 90 25.6809 90.4706 24.6304 90.9412V95.5294C24.6304 96 24.8638 96.353 25.3307 96.353H27.4319C27.6654 96.353 27.8988 96.2353 28.0156 96C28.1323 95.7647 28.249 95.2942 28.4825 94.5883C28.716 94.8236 29.1829 94.9412 29.7665 95.0589C29.5331 96 29.1829 96.7059 28.9494 96.9412C28.716 97.1765 28.3658 97.2942 28.0156 97.2942H25.0973C24.1634 97.2942 23.6965 96.8236 23.6965 95.8824V87.6471C23.6965 86.8236 23.6965 86 23.6965 85.1765H24.8638C24.6304 86.1177 24.6304 86.8236 24.6304 87.5295Z" fill="white"/>
<path d="M22.7624 108.353C22.529 108.353 21.8286 108.471 20.778 108.706C20.778 109.647 20.778 110.706 20.778 112H19.6107C19.6107 110.706 19.6107 109.765 19.6107 108.941C18.6768 109.176 17.8597 109.412 17.1593 109.647C17.0426 109.176 16.9258 108.823 16.6924 108.471C17.276 108.353 18.3266 108.235 19.6107 108.118V105.882C19.1437 105.882 18.6768 105.882 18.3266 105.882C17.9764 105.882 17.5095 106 17.1593 106.118L16.8091 105.176C17.1593 104.823 17.3928 104.353 17.6262 103.765C17.8597 103.176 18.0932 102.588 18.2099 101.882C17.9764 101.882 17.5095 101.882 16.9258 101.882V100.823C17.5095 100.941 17.9764 100.941 18.4434 100.941C18.6768 100.235 18.9103 99.647 18.9103 98.9411C19.2605 99.0588 19.7274 99.1764 20.1943 99.2941C19.9609 99.7647 19.8441 100.235 19.6107 100.941C20.5445 100.941 21.3616 100.941 21.9453 100.941V101.882C21.2449 101.882 20.4278 101.882 19.3772 101.882C19.1437 102.588 18.7936 103.647 18.2099 105.059H19.6107C19.6107 104.118 19.6107 103.529 19.6107 103.059H20.778C20.778 103.529 20.778 104.235 20.778 105.059H22.1788V105.882H20.778V107.765C21.7118 107.529 22.4122 107.412 22.7624 107.412C22.7624 107.765 22.7624 108 22.7624 108.353ZM27.5484 107.412C27.315 108.118 26.9648 108.706 26.6146 109.294C26.9648 109.529 27.4317 109.882 28.0153 110.118C28.599 110.353 29.2994 110.471 29.9998 110.706C29.7663 111.059 29.5329 111.529 29.4161 111.882C28.4823 111.529 27.6651 111.294 27.1982 110.941C26.6146 110.588 26.2644 110.353 25.9142 110C25.4472 110.353 24.9803 110.706 24.5134 111.059C24.0465 111.412 23.3461 111.647 22.6457 112C22.529 111.647 22.1788 111.294 21.8286 110.941C22.6457 110.706 23.3461 110.471 23.9297 110.235C24.5134 110 24.9803 109.647 25.2138 109.294C24.8636 108.706 24.6301 108.118 24.3967 107.529L23.6963 105.647C23.9297 105.529 24.3967 105.412 24.7469 105.176C24.9803 106.118 25.0971 106.706 25.3305 107.059C25.564 107.412 25.6807 107.882 25.9142 108.353C26.1476 108 26.3811 107.529 26.6146 106.941C26.848 106.353 26.9648 105.765 27.0815 105.059C27.4317 105.176 27.8986 105.294 28.3655 105.529C28.1321 106 27.7819 106.706 27.5484 107.412ZM23.3461 105.529C23.1126 105.294 22.8792 104.941 22.4122 104.706C23.3461 103.765 24.0465 102.941 24.3967 102.235C24.6301 102.471 24.9803 102.706 25.4472 102.941C25.0971 103.529 24.3967 104.353 23.3461 105.529ZM27.6651 100.823C28.4823 100.823 29.0659 100.823 29.5328 100.823V101.765C29.0659 101.765 28.4823 101.765 27.7819 101.765H24.7469C23.9297 101.765 23.3461 101.765 22.8792 101.765V100.823C23.4628 100.823 24.1632 100.823 24.7469 100.823H27.6651ZM26.848 100.235C26.4978 100.471 26.1476 100.588 25.7974 100.823C25.6807 100.588 25.3305 100.118 24.8636 99.4117C25.2138 99.1764 25.4472 99.0588 25.7974 98.8235C26.2644 99.4117 26.6146 99.8823 26.848 100.235ZM29.7663 104.471C29.2994 104.706 28.9492 105.059 28.7157 105.294C28.3655 104.706 27.7819 104 26.848 103.059C27.0815 102.823 27.4317 102.588 27.7819 102.353C28.1321 102.706 28.8325 103.412 29.7663 104.471Z" fill="white"/>
<path d="M10.7393 6.70588C11.4397 6.70588 12.14 6.70588 12.7237 6.70588V7.76471C12.14 7.76471 11.4397 7.76471 10.7393 7.76471H8.40464V11.2941C8.40464 11.6471 8.52137 11.7647 8.87156 11.7647C9.10503 11.7647 9.57195 11.7647 10.0389 11.7647C10.5058 11.7647 10.856 11.7647 11.0895 11.6471C11.3229 11.5294 11.4397 11.0588 11.5564 10.3529C11.9066 10.4706 12.3735 10.5882 12.8404 10.7059C12.607 11.4118 12.3735 11.8824 12.14 12.2353C11.9066 12.4706 11.5564 12.5882 11.2062 12.7059H8.40464C7.58752 12.7059 7.23732 12.3529 7.23732 11.6471V7.64706H5.25289C5.25289 8.58824 5.01942 9.29412 4.78596 10.1176C4.5525 10.8235 3.96884 11.5294 3.26845 12C2.56806 12.4706 1.86767 12.9412 1.05055 13.1765C0.817088 12.8235 0.466894 12.4706 0.116699 12.2353C1.05055 11.8824 1.86767 11.6471 2.45133 11.1765C3.03499 10.7059 3.38518 10.3529 3.61864 9.88235C3.85211 9.41177 4.08557 8.70588 4.08557 7.64706H2.45133C1.63421 7.64706 0.93382 7.64706 0.350162 7.64706V6.58824C0.93382 6.58824 1.63421 6.58824 2.45133 6.58824H10.7393V6.70588ZM6.18674 0C6.65366 0.588235 7.00386 1.17647 7.23732 1.76471H12.3735C12.2568 2.23529 12.2568 2.70588 12.2568 3.17647C12.2568 3.52941 12.2568 4 12.3735 4.35294H11.2062V2.58824H1.75094V4.35294H0.583625C0.583625 3.88235 0.583625 3.41176 0.583625 2.94118C0.583625 2.47059 0.583625 2.11765 0.583625 1.64706H5.95327C5.83654 1.41176 5.60308 1.05882 5.25289 0.588235C5.48635 0.470588 5.83654 0.235294 6.18674 0ZM8.05444 4.23529C8.75483 4.23529 9.45522 4.23529 10.0389 4.23529V5.29412C9.45522 5.29412 8.75483 5.29412 8.05444 5.29412H4.66923C3.96884 5.29412 3.26845 5.29412 2.68479 5.29412V4.11765C3.38518 4.11765 3.96884 4.11765 4.66923 4.11765H8.05444V4.23529Z" fill="white"/>
<path d="M6.18677 20.9413L5.48638 21.6471C5.13619 21.1766 4.66926 20.8236 4.31907 20.4707V21.8824H3.26848V20.4707C2.91829 20.8236 2.45136 21.1766 2.2179 21.4119C1.98444 21.6471 1.40078 21.8824 0.817121 22.353C0.700389 22.0001 0.466926 21.7648 0 21.5295C0.466926 21.2942 0.933852 21.0589 1.40078 20.8236C1.8677 20.5883 2.33463 20.2354 2.68482 19.7648H0.700389C0.700389 19.2942 0.700389 18.9413 0.700389 18.5883C0.700389 18.2354 0.700389 17.7648 0.700389 17.4119H3.26848V16.5883C1.8677 16.5883 0.933852 16.5883 0.350195 16.5883V15.6471C0.933852 15.6471 1.8677 15.6471 3.26848 15.6471C3.26848 15.2942 3.26848 14.8236 3.26848 14.353H4.4358C4.4358 14.8236 4.4358 15.1766 4.4358 15.6471C5.71984 15.6471 6.6537 15.6471 7.12062 15.6471V16.5883C6.53696 16.5883 5.71984 16.5883 4.4358 16.5883V17.4119H6.88716C6.88716 17.7648 6.88716 18.1177 6.88716 18.5883C6.88716 18.9413 6.88716 19.4119 6.88716 19.7648H4.78599C5.25292 20.0001 5.71984 20.353 6.18677 20.9413ZM9.80545 22.2354C10.3891 22.2354 10.9728 22.2354 11.5564 22.2354V23.1766C10.9728 23.1766 9.45525 23.1766 7.12062 23.1766V24.2354C9.33852 24.2354 10.6226 24.2354 11.2062 24.2354V25.1766C10.6226 25.1766 9.33852 25.1766 7.12062 25.1766V26.353H10.9728C11.5564 26.353 12.1401 26.353 12.8405 26.353V27.2942C12.1401 27.2942 11.5564 27.2942 11.0895 27.2942H2.2179C1.75097 27.2942 1.05058 27.2942 0.466926 27.2942V26.353C1.16732 26.353 2.10117 26.353 3.03502 26.353C3.03502 25.2942 3.03502 24.5883 3.03502 24.1177H4.20233C4.20233 24.4707 4.20233 25.1766 4.20233 26.353H6.3035V23.2942C3.96887 23.2942 2.45136 23.2942 1.8677 23.2942V22.353C2.45136 22.353 3.03502 22.353 3.50195 22.353H9.80545V22.2354ZM3.26848 18.9413V18.1177H1.75097V18.9413H3.26848ZM5.71984 18.9413V18.1177H4.31907V18.9413H5.71984ZM7.70428 18.8236C7.47082 18.5883 7.12062 18.4707 6.88716 18.353C7.35409 17.7648 7.82101 17.1766 8.17121 16.353C8.5214 15.5295 8.75486 14.9413 8.75486 14.5883C8.98833 14.706 9.45525 14.8236 9.92218 14.9413C9.80545 15.0589 9.57198 15.5295 9.10506 16.2354H11.4397C11.9066 16.2354 12.3735 16.2354 12.9572 16.2354V17.1766C12.4903 17.1766 12.1401 17.1766 11.9066 17.1766C11.6732 18.1177 11.2062 19.1766 10.5058 20.0001C11.2062 20.4707 11.9066 20.706 12.8405 20.8236C12.607 21.0589 12.4903 21.4119 12.3735 21.8824C11.9066 21.7648 11.4397 21.5295 11.0895 21.4119C10.7393 21.2942 10.3891 20.9413 10.0389 20.706C9.33852 21.1766 8.63813 21.6471 7.93774 22.0001C7.82101 21.7648 7.58755 21.4119 7.23735 21.0589C8.05447 20.8236 8.75486 20.5883 9.33852 20.1177C9.10506 19.7648 8.63813 19.2942 8.28794 18.4707L7.70428 18.8236ZM9.80545 19.4119C10.2724 18.8236 10.6226 18.0001 10.7393 17.0589H8.87159L8.5214 17.6471C8.98833 18.353 9.45525 19.0589 9.80545 19.4119Z" fill="white"/>
<path d="M3.38544 31.1766H5.83681C5.83681 31.7648 5.83681 32.5883 5.83681 33.5295V38.3531C5.83681 38.9413 5.83681 39.6472 5.83681 40.706H4.78622V39.6472H1.98467V40.8236H0.934082C0.934082 39.6472 0.934082 38.9413 0.934082 38.5883V33.5295C0.934082 32.5883 0.934082 31.7648 0.934082 31.0589H2.56832C2.80179 30.2354 2.91852 29.2942 3.03525 28.4707C3.50218 28.706 3.9691 28.8236 4.3193 28.8236C3.9691 29.1766 3.73564 30.0001 3.38544 31.1766ZM4.78622 34.8236V32.1178H1.98467V34.8236H4.78622ZM4.78622 38.706V35.7648H1.98467V38.706H4.78622ZM12.0236 39.5295C11.9068 40.2354 11.5566 40.5884 10.973 40.8236C10.3893 41.0589 9.68894 41.1766 8.87182 41.2942C8.87182 40.9413 8.63836 40.4707 8.4049 40.0001C9.10529 40.0001 9.68894 40.0001 10.1559 40.0001C10.6228 40.0001 10.8563 39.7648 10.973 39.5295C11.0897 39.2942 11.2065 38.4707 11.2065 37.2942C11.2065 36.1178 11.3232 34.3531 11.3232 32.0001H8.17144C7.93797 32.706 7.47105 33.5295 6.88739 34.4707C6.65393 34.2354 6.30373 34.0001 5.95354 33.8825C6.30373 33.4119 6.53719 32.9413 6.88739 32.2354C7.23758 31.5295 7.47105 30.9413 7.70451 30.2354C7.93797 29.5295 8.0547 28.9413 8.0547 28.4707C8.52163 28.706 8.98856 28.8236 9.33875 28.9413C9.10529 29.1766 8.98856 29.5295 8.87182 29.8825C8.75509 30.2354 8.63836 30.5883 8.52163 30.9413H12.3738C12.3738 31.7648 12.3738 32.4707 12.3738 33.0589C12.257 35.2942 12.1403 37.4119 12.0236 39.5295ZM9.10529 35.2942C9.33875 35.7648 9.57221 36.3531 9.92241 37.0589C9.68894 37.1766 9.33875 37.2942 8.87182 37.6472C8.63836 36.9413 8.4049 36.3531 8.17144 35.8825C7.93797 35.4119 7.70451 34.9413 7.47105 34.5883C7.70451 34.4707 8.0547 34.2354 8.4049 34.0001L9.10529 35.2942Z" fill="white"/>
<path d="M6.30344 44.1178C6.30344 44.5884 6.18671 45.2942 6.18671 46.1178H10.5058C11.2062 46.1178 11.7898 46.1178 12.4902 46.0001V47.0589C11.7898 47.0589 11.2062 47.0589 10.5058 47.0589H7.93768V52.1178C8.4046 51.6472 8.87153 51.0589 9.22173 50.3531C9.57192 49.6472 10.0388 49.0589 10.2723 48.3531C10.7392 48.5884 11.2062 48.706 11.6731 48.9413C11.2062 49.4119 10.6225 50.1178 10.1556 50.9413C9.68865 51.7648 8.98826 52.5884 8.05441 53.4119C8.05441 54.0001 8.05441 54.3531 8.17114 54.3531C8.28787 54.3531 8.52134 54.4707 8.7548 54.4707H10.5058C10.9727 54.4707 11.2062 54.3531 11.4396 54.3531C11.6731 54.3531 11.7898 53.8825 11.9065 52.9413C12.2567 53.2942 12.7237 53.5295 13.1906 53.6472C12.8404 54.4707 12.6069 54.9413 12.3735 55.1766C12.14 55.4119 11.9066 55.4119 11.4396 55.4119H8.17114C7.58748 55.4119 7.23729 55.2942 7.12056 55.1766C7.00383 55.0589 6.88709 54.706 6.88709 54.1178C6.65363 54.1178 6.30344 54.3531 5.83651 54.706C5.36959 54.9413 5.01939 55.1766 4.6692 55.4119C4.55246 55.1766 4.319 54.9413 3.85208 54.4707C4.319 54.2354 4.90266 54.0001 5.48632 53.6472C6.06997 53.2942 6.5369 53.0589 6.88709 52.706V46.9413H6.06997C5.83651 48.0001 5.71978 48.8236 5.48632 49.5295C5.25285 50.2354 5.01939 50.8236 4.6692 51.5295C4.319 52.2354 3.96881 52.706 3.38515 53.2942C2.80149 53.8825 2.21783 54.5884 1.28398 55.4119C1.28398 55.1766 0.933788 54.8236 0.233398 54.4707C0.817056 54.1178 1.40071 53.7648 1.98437 53.1766C2.56803 52.5884 3.03495 52.1178 3.38515 51.4119C3.73534 50.706 4.08554 50.1178 4.43573 49.4119C4.78593 48.706 4.90266 47.8825 5.01939 47.0589H2.80149C2.1011 47.0589 1.51745 47.0589 0.817056 47.0589V46.0001C1.51745 46.0001 2.21783 46.0001 2.80149 46.0001H5.13612C5.13612 45.5295 5.25285 45.0589 5.25285 44.3531C5.25285 43.6472 5.25285 43.0589 5.13612 42.4707C5.95324 42.706 6.42017 42.706 6.65363 42.8236C6.42017 43.1766 6.30344 43.6472 6.30344 44.1178ZM9.68865 45.6472C9.33846 45.0589 8.87153 44.4707 8.17114 43.8825C8.4046 43.6472 8.7548 43.4119 8.98826 43.1766C9.45519 43.6472 9.92211 44.2354 10.5058 44.9413C10.389 45.0589 10.1556 45.2942 9.68865 45.6472Z" fill="white"/>
<path d="M4.08547 57.647C3.85201 57.8823 3.73528 58.1175 3.50182 58.2352H10.5057C10.9726 58.2352 11.4396 58.2352 11.9065 58.2352V59.1764C11.3228 59.1764 10.8559 59.1764 10.5057 59.1764V60.5881C10.8559 60.5881 11.3228 60.5881 11.9065 60.5881V61.4117C11.3228 61.4117 10.8559 61.4117 10.5057 61.4117V62.8234H11.2061C11.673 62.8234 12.2567 62.8234 12.8403 62.8234V63.7646C12.2567 63.7646 11.673 63.7646 11.2061 63.7646H3.15162C3.50182 63.5293 3.73528 63.647 4.2022 63.7646C3.96874 63.9999 3.73528 64.2352 3.61855 64.4705H6.30337C6.06991 65.4117 5.83645 66.1175 5.48625 66.7058C5.13606 67.294 4.78586 67.8823 4.31894 68.2352C3.85201 68.5881 3.38508 68.9411 2.91816 69.0587C2.45123 69.294 1.86758 69.4117 1.28392 69.5293C1.05045 69.1764 0.933723 68.8234 0.583528 68.5881C1.40065 68.4705 1.98431 68.3528 2.56796 68.1176C3.15162 67.8823 3.50182 67.647 3.73528 67.4117C3.50182 67.1764 3.03489 66.8234 2.45123 66.4705C2.6847 66.2352 2.80143 65.9999 2.91816 65.7646C3.61855 66.2352 4.08547 66.4705 4.31894 66.7058C4.66913 66.3528 4.90259 65.8823 5.13606 65.294H3.15162C2.56796 65.8823 2.10104 66.4705 1.75084 66.9411C1.40065 66.7058 1.16719 66.4705 0.816991 66.2352C1.28392 65.8823 1.86758 65.294 2.21777 64.7058C2.56796 64.1175 2.91816 63.647 3.15162 63.294H1.98431C1.63411 63.294 1.05045 63.294 0.466797 63.294V62.3528C1.05045 62.3528 1.86757 62.3528 2.91816 62.3528V61.1764C2.6847 61.1764 2.45123 61.1764 2.10104 61.1764V60.3528C2.45123 60.3528 2.6847 60.3528 2.91816 60.3528V58.7058C2.21777 59.5293 1.75084 59.9999 1.40065 60.2352C1.16719 60.2352 0.933723 59.9999 0.583528 59.7646C1.16719 59.294 1.75084 58.8234 2.3345 58.1176C2.91816 57.4117 3.26835 56.9411 3.50182 56.5881C3.85201 56.8234 4.31894 57.0587 4.78586 57.1764C4.43567 57.294 4.20221 57.4117 4.08547 57.647ZM5.25279 60.4705V59.0587H3.85201V60.4705H5.25279ZM5.25279 62.5881V61.1764H3.85201V62.5881H5.25279ZM7.47069 60.4705V59.0587H6.06991V60.4705H7.47069ZM7.47069 62.5881V61.1764H6.06991V62.5881H7.47069ZM9.45512 64.4705C9.45512 64.2352 9.45512 63.9999 9.45512 63.647H10.5057C10.5057 63.9999 10.5057 64.2352 10.5057 64.4705C11.2061 64.4705 11.7898 64.4705 12.3734 64.4705V65.4117C11.9065 65.4117 11.2061 65.4117 10.5057 65.4117V67.0587C11.4396 67.0587 12.2567 67.0587 12.7236 67.0587V67.9999C12.2567 67.9999 11.7898 67.9999 11.3228 67.9999H10.389C10.389 68.7058 10.389 69.294 10.389 69.8823H9.33839C9.33839 69.294 9.33839 68.5881 9.33839 67.9999H6.65357C6.7703 67.7646 6.7703 67.4117 6.88703 67.0587C7.00376 66.7058 7.00376 65.9999 7.00376 65.7646H7.93761C7.82088 66.1176 7.82088 66.4705 7.82088 66.8234H9.45512V65.1764H8.17108C7.82088 65.1764 7.35396 65.1764 6.7703 65.1764V64.2352C7.35396 64.2352 7.82088 64.2352 8.17108 64.2352H9.45512V64.4705ZM9.68859 60.4705V59.0587H8.28781V60.4705H9.68859ZM9.68859 62.5881V61.1764H8.28781V62.5881H9.68859Z" fill="white"/>
</svg>
