<svg width="32" height="116" viewBox="0 0 32 116" fill="none" xmlns="http://www.w3.org/2000/svg">
<path d="M3.19214 107.644H12.4461V108.554H3.19214V107.644ZM2.75814 109.982H13.0061V110.892H2.75814V109.982ZM5.29214 106.272H6.27214V110.458H5.29214V106.272ZM4.53614 110.304H5.51614V114.084H4.53614V110.304ZM9.08614 106.272H10.0801V110.416H9.08614V106.272ZM1.66614 102.926H2.73014V107.028C2.73014 109.408 2.52014 112.852 1.06414 115.134C0.868137 114.98 0.392137 114.7 0.140137 114.602C1.54014 112.39 1.66614 109.268 1.66614 107.028V102.926ZM2.29614 102.926H12.1801V106.356H2.29614V105.446H11.1301V103.836H2.29614V102.926ZM2.92614 113.958C4.31214 113.776 6.42614 113.44 8.49814 113.104L8.54014 114.014C6.60814 114.364 4.56414 114.686 3.09414 114.938L2.92614 113.958ZM7.98014 110.346C8.79214 112.376 10.6121 113.776 13.1461 114.28C12.9221 114.504 12.6421 114.882 12.5161 115.148C9.87014 114.49 8.03614 112.922 7.11214 110.556L7.98014 110.346ZM11.4661 110.976L12.2501 111.522C11.4941 112.124 10.4721 112.712 9.67414 113.118L9.00214 112.6C9.77214 112.18 10.8501 111.48 11.4661 110.976Z" fill="white"/>
<path d="M5.38998 91.33C6.64998 94.396 9.30998 96.482 13.202 97.238C12.978 97.448 12.684 97.882 12.544 98.162C8.56798 97.294 5.92198 95.054 4.49398 91.61L5.38998 91.33ZM10.388 90.938H10.598L10.808 90.896L11.522 91.218C10.248 95.152 7.12598 97.196 3.62598 98.148C3.51398 97.882 3.26198 97.476 3.05198 97.252C6.32798 96.454 9.33798 94.494 10.388 91.12V90.938ZM5.08198 90.938H10.556V91.946H4.78798L5.08198 90.938ZM6.04798 85.198L7.20998 85.38C6.49598 90.686 4.85798 94.592 0.909977 97.014C0.755977 96.79 0.377977 96.398 0.125977 96.202C3.83598 93.962 5.43198 90.182 6.04798 85.198ZM9.11398 85.94L9.93998 85.45C10.542 86.066 11.354 86.934 11.746 87.452L10.906 88.026C10.514 87.494 9.72998 86.598 9.11398 85.94ZM1.72198 89.678C1.65198 89.454 1.48398 88.95 1.37198 88.698C1.55398 88.642 1.72198 88.446 1.88998 88.138C2.04398 87.844 2.58998 86.724 2.81398 85.646L3.94798 85.842C3.59798 87.032 3.03798 88.278 2.56198 89.062V89.076C2.56198 89.076 1.72198 89.426 1.72198 89.678ZM1.72198 89.678V88.852L2.42198 88.432H12.726V89.44H3.20598C2.32398 89.44 1.86198 89.524 1.72198 89.678Z" fill="white"/>
<path d="M6.18808 73.3919H7.23808V76.7379C7.23808 77.2839 7.12608 77.5499 6.70608 77.7039C6.28608 77.8579 5.62808 77.8579 4.63408 77.8579C4.59208 77.5779 4.43808 77.1999 4.29808 76.9199C5.04008 76.9479 5.72608 76.9479 5.93608 76.9339C6.13208 76.9199 6.18808 76.8779 6.18808 76.7239V73.3919ZM3.38808 73.9659L4.46608 74.3299C3.65408 75.5059 2.42208 76.6819 1.34408 77.4239C1.13408 77.2279 0.700082 76.8919 0.434082 76.7239C1.54008 76.0519 2.68808 75.0159 3.38808 73.9659ZM10.4441 74.3579L11.4941 74.7219C10.1501 78.5579 7.26608 80.3919 2.01608 81.1479C1.90408 80.8399 1.69408 80.4199 1.47008 80.1679C6.52408 79.5519 9.24008 77.8859 10.4441 74.3579ZM0.448082 72.4819H12.9641V73.4899H0.448082V72.4819ZM6.80408 69.9059H11.5501V70.8859H6.80408V69.9059ZM6.17408 68.2539H7.25208V73.0699H6.17408V68.2539ZM2.54808 69.3319H3.61208V73.0139H2.54808V69.3319Z" fill="white"/>
<path d="M0.322266 56.9661H13.1323V58.1141H0.322266V56.9661Z" fill="white"/>
<path d="M4.45179 36.7879H12.6418V37.7959H4.45179V36.7879ZM6.42579 34.5479H7.46179V39.4479C7.46179 41.2679 7.18179 43.5639 5.33379 44.9639C5.19379 44.7679 4.78779 44.3619 4.56379 44.2219C6.24379 42.9339 6.42579 41.0579 6.42579 39.4339V34.5479ZM4.35379 40.3159H12.9078V41.3099H4.35379V40.3159ZM3.35979 39.3079V44.7259H2.33779V40.3019H0.391793V39.3079H3.35979ZM2.82779 44.2079C3.30379 44.2079 3.62579 44.6279 4.39579 45.1179C5.30579 45.6779 6.48179 45.7759 8.07779 45.7759C9.72979 45.7759 11.8298 45.6639 13.1878 45.5099C13.0758 45.8039 12.9078 46.3079 12.8798 46.6019C11.8858 46.6719 9.37979 46.7559 8.04979 46.7559C6.31379 46.7559 5.13779 46.5879 4.15779 45.9859C3.56979 45.6079 3.13579 45.1459 2.81379 45.1459C2.33779 45.1459 1.65179 45.9719 0.937793 46.9239L0.237793 45.9719C1.18979 44.9499 2.12779 44.2079 2.82779 44.2079ZM0.825793 35.1219L1.58179 34.5339C2.36579 35.2199 3.31779 36.1859 3.77979 36.8159L2.96779 37.4739C2.54779 36.8299 1.60979 35.8219 0.825793 35.1219ZM9.78579 34.5339H10.8218V44.8939H9.78579V34.5339Z" fill="white"/>
<path d="M0.405953 18.164H7.58795V19.116H0.405953V18.164ZM0.825953 24.828H7.18195V25.78H0.825953V24.828ZM3.49995 23.162H4.53595V28.65L3.49995 28.804V23.162ZM0.251953 28.65C2.07195 28.454 4.91395 28.076 7.61595 27.712L7.64395 28.692C5.03995 29.056 2.28195 29.448 0.419953 29.7L0.251953 28.65ZM0.377953 21.972C1.97395 21.916 4.43795 21.804 6.84595 21.678L6.81795 22.602C4.52195 22.742 2.12795 22.868 0.461953 22.966L0.377953 21.972ZM4.84395 20.264L5.62795 19.83C6.48195 20.81 7.46195 22.126 7.86795 22.966L7.02795 23.47C6.62195 22.616 5.68395 21.258 4.84395 20.264ZM2.82795 18.668L3.96195 18.892C3.47195 20.124 2.86995 21.664 2.35195 22.63L1.42795 22.406C1.91795 21.412 2.51995 19.774 2.82795 18.668ZM8.20395 18.934H9.21195V26.69H8.20395V18.934ZM11.508 17.646H12.544V28.706C12.544 29.434 12.376 29.756 11.914 29.924C11.452 30.106 10.598 30.134 9.46395 30.134C9.40795 29.84 9.25395 29.35 9.09995 29.028C10.038 29.07 10.906 29.056 11.186 29.056C11.438 29.042 11.508 28.972 11.508 28.72V17.646Z" fill="white"/>
<path d="M6.44 3.36198V4.50998H11.074V3.36198H6.44ZM6.44 1.47198V2.60598H11.074V1.47198H6.44ZM5.432 0.673981H12.124V5.30798H5.432V0.673981ZM4.564 6.27398H12.796V7.15598H4.564V6.27398ZM4.242 8.35998H13.048V9.28398H4.242V8.35998ZM9.898 7.04398H10.948V11.972C10.948 12.532 10.822 12.812 10.402 12.966C9.982 13.134 9.31 13.134 8.26 13.134C8.218 12.854 8.05 12.462 7.91 12.182C8.708 12.21 9.408 12.21 9.618 12.196C9.842 12.182 9.898 12.126 9.898 11.944V7.04398ZM5.46 9.99798L6.202 9.49398C6.846 10.082 7.616 10.908 7.98 11.454L7.182 12.042C6.846 11.482 6.09 10.614 5.46 9.99798ZM3.472 3.36198L4.396 3.73998C3.444 5.40598 1.946 7.09998 0.56 8.19198C0.476 7.98198 0.182 7.42198 0 7.18398C1.274 6.25998 2.632 4.81798 3.472 3.36198ZM3.206 0.281982L4.214 0.673981C3.374 1.87798 2.03 3.19398 0.784 4.01998C0.672 3.78198 0.406 3.37598 0.224 3.16598C1.344 2.43798 2.604 1.27598 3.206 0.281982ZM2.212 5.83998L3.192 4.84598L3.234 4.87398V13.12H2.212V5.83998Z" fill="white"/>
<path d="M24.1241 35.1901H30.8161V36.1841H24.1241V35.1901ZM30.4241 35.1901H31.4881C31.4881 35.1901 31.4881 35.6241 31.4881 35.7781C31.3341 42.9181 31.1801 45.2981 30.6481 45.9981C30.3401 46.4321 30.0321 46.5581 29.5701 46.6281C29.0941 46.6841 28.3241 46.6561 27.5681 46.6141C27.5401 46.3061 27.4141 45.8441 27.2321 45.5361C28.0581 45.6061 28.8001 45.6061 29.1221 45.6061C29.3741 45.6201 29.5141 45.5641 29.6681 45.3681C30.1021 44.8641 30.2841 42.3581 30.4241 35.4421V35.1901ZM26.5321 35.6101H27.5961C27.4981 39.7541 27.2881 44.3881 23.9141 46.7961C23.7181 46.5301 23.3681 46.1801 23.0881 45.9981C26.3501 43.8281 26.4481 39.4321 26.5321 35.6101ZM21.1421 40.6501L22.1641 39.4181V46.7821H21.1421V40.6501ZM19.0981 36.4781H23.4381V37.4301H19.0981V36.4781ZM21.1421 33.9021H22.1641V36.9961H21.1421V33.9021ZM22.1361 39.9221C22.5561 40.2861 24.0401 41.8401 24.3901 42.2321L23.7461 43.0161C23.3121 42.3861 22.0801 40.9161 21.5621 40.4121L22.1361 39.9221ZM23.1441 36.4781H23.3401L23.5361 36.4221L24.1381 36.8141C23.1301 39.4041 21.1001 41.8961 19.2801 43.2961C19.1681 43.0301 18.8741 42.5541 18.7061 42.3721C20.4421 41.1401 22.3321 38.8581 23.1441 36.7021V36.4781ZM23.8861 39.0961L24.5861 39.6561C24.0961 40.2161 23.5921 40.8461 23.1721 41.2521L22.6541 40.8181C23.0461 40.3701 23.6061 39.6001 23.8861 39.0961Z" fill="white"/>
<path d="M21.7302 19.702H28.9122V20.64H21.7302V19.702ZM22.1222 22.628H28.5762V23.552H22.1222V22.628ZM21.5202 25.918H29.2202V26.814H21.5202V25.918ZM24.7682 19.996H25.7482V26.394H24.7682V19.996ZM26.6302 24.168L27.3022 23.79C27.8342 24.252 28.4502 24.896 28.7302 25.33L28.0162 25.764C27.7362 25.33 27.1342 24.644 26.6302 24.168ZM19.5322 17.532H31.1382V29.782H30.0182V18.498H20.5962V29.782H19.5322V17.532ZM20.1062 28.102H30.5362V29.068H20.1062V28.102Z" fill="white"/>
<path d="M22.7242 2.856H31.7822V3.71H22.7242V2.856ZM23.5502 6.636H30.8582V7.434H23.5502V6.636ZM22.9202 8.554H31.4742V9.422H22.9202V8.554ZM26.6022 0H27.6242V10.906H26.6022V0ZM23.7322 1.022H30.7322V5.586H23.6342V4.746H29.6962V1.862H23.7322V1.022ZM18.9162 0.784H21.9402V1.722H18.9162V0.784ZM21.5622 0.784H21.7162L21.8842 0.728L22.5982 0.951999C21.9542 2.422 20.9042 4.592 20.0502 6.258L19.0982 5.992C19.9662 4.354 21.0442 2.086 21.5622 0.91V0.784ZM20.1902 4.774H22.4862V5.712H20.0642L20.1902 4.774ZM22.0522 4.774H22.2622L22.4582 4.746L23.0602 4.9C22.6402 8.974 21.4222 11.48 19.6022 12.796C19.4342 12.586 19.0422 12.208 18.8042 12.068C20.5822 10.878 21.7022 8.596 22.0522 4.984V4.774ZM20.2322 6.832C21.3662 10.696 23.9702 11.396 27.5262 11.396C28.1142 11.396 31.1382 11.396 31.8802 11.382C31.7122 11.62 31.5162 12.096 31.4462 12.404H27.4982C23.4522 12.404 20.7502 11.55 19.3922 7.154L20.2322 6.832Z" fill="white"/>
</svg>
