<svg width="28" height="91" viewBox="0 0 28 91" fill="none" xmlns="http://www.w3.org/2000/svg">
<path d="M18.1563 1.98065C18.8125 1.98065 19.3594 1.98065 19.9063 1.98065V2.97098C19.3594 2.97098 18.9219 2.97098 18.4844 2.97098H17.7188C17.3906 3.52116 17.1719 3.96131 16.8437 4.40145C17.2812 4.40145 17.7188 4.40145 18.1563 4.40145C18.5938 4.40145 19.1406 4.40145 19.5781 4.40145V5.28174C19.0312 5.28174 18.7031 5.28174 18.375 5.28174V6.93229C18.8125 6.93229 19.3594 6.93229 19.9063 6.93229V7.70254C19.3594 7.70254 18.9219 7.70254 18.375 7.70254V10.2334C18.8125 9.79323 19.25 9.46312 19.5781 9.02297C19.6875 9.46312 19.7969 9.79323 19.9063 10.1233C19.6875 10.3434 19.25 10.5635 18.8125 11.0036C18.375 11.4438 18.0469 11.6638 17.7188 11.994C17.5 11.6638 17.2813 11.3337 17.0625 11.1137C17.2813 11.0036 17.3906 10.7836 17.5 10.3434V7.5925C16.9531 7.5925 16.5156 7.5925 15.9688 7.5925V6.71221C16.5156 6.71221 17.0625 6.71221 17.5 6.71221V5.1717C17.2812 5.1717 17.0625 5.1717 16.625 5.1717V4.62152C16.5156 4.62152 16.4062 4.8416 16.2969 5.06167C16.0781 4.73156 15.8594 4.40145 15.6406 4.18138C16.1875 3.52116 16.625 2.86094 17.0625 1.98065C17.5 1.10036 17.8281 0.440145 17.9375 0C18.2656 0.220073 18.7031 0.330109 19.0312 0.550181C18.7031 0.770254 18.4844 1.2104 18.1563 1.98065ZM27.2344 2.86094V11.0036C27.2344 11.3337 27.125 11.5538 26.7969 11.7739C26.5781 11.994 26.1406 12.104 25.4844 12.214C25.4844 11.7739 25.375 11.3337 25.1562 10.8936C25.8125 10.8936 26.25 10.7836 26.25 10.5635V1.65054H21.6562V12.214H20.6719C20.6719 11.5538 20.6719 10.8936 20.6719 10.0133V2.86094C20.6719 1.87062 20.6719 1.2104 20.6719 0.770254H27.2344C27.2344 1.43047 27.2344 2.20073 27.2344 2.86094ZM25.4844 4.07134H22.3125V3.19105H25.4844V4.07134ZM25.375 7.37243C25.375 8.25272 25.375 8.91294 25.375 9.35308H22.4219C22.4219 8.69287 22.4219 8.03265 22.4219 7.26239C22.4219 6.3821 22.4219 5.83192 22.4219 5.39178H25.375C25.375 5.83192 25.375 6.49214 25.375 7.37243ZM24.5 8.58283V6.052H23.4062V8.47279H24.5V8.58283Z" fill="white"/>
<path d="M17.7188 15.9553C18.0469 16.1753 18.375 16.3954 18.7031 16.6155C18.4844 16.8356 18.2656 17.0556 18.0469 17.3857C17.8281 17.1657 17.5 16.9456 17.2813 16.8356C17.0625 16.7255 16.625 16.5055 16.1875 16.3954C16.4063 16.0653 16.625 15.8452 16.8437 15.5151C17.1719 15.5151 17.3906 15.7352 17.7188 15.9553ZM21.4375 20.5768C21.4375 20.3567 21.4375 20.0266 21.4375 19.5865H22.5313C22.5313 20.0266 22.5313 20.3567 22.5313 20.5768H25.5938C26.25 20.5768 26.9063 20.5768 27.5625 20.5768V21.4571C26.9063 21.4571 26.25 21.4571 25.5938 21.4571H23.4062C23.625 21.7872 24.0625 22.1173 24.6094 22.5574C25.2656 22.9976 25.8125 23.3277 26.25 23.4377C26.7969 23.5478 27.2344 23.6578 27.6719 23.7678C27.4531 24.098 27.125 24.4281 27.0156 24.7582C26.3594 24.5381 25.9219 24.318 25.375 24.208C24.8281 24.098 24.5 23.7678 24.1719 23.5478C23.8438 23.3277 23.5156 22.9976 23.2969 22.6675C23.0781 22.3374 22.75 22.0073 22.4219 21.4571V23.3277C22.4219 23.9879 22.4219 24.5381 22.4219 25.1983H21.3281C21.3281 24.7582 21.3281 24.098 21.3281 23.3277V21.5671C21.1094 22.0073 20.7813 22.3374 20.3438 22.6675C20.0156 22.9976 19.5781 23.3277 19.25 23.5478C18.9219 23.8779 18.0469 24.208 16.8437 24.7582C16.625 24.4281 16.4062 24.098 16.0781 23.7678C16.5156 23.6578 16.9531 23.5478 17.3906 23.3277C17.8281 23.1076 18.1563 22.9976 18.5938 22.7775C19.0313 22.5575 19.25 22.3374 19.5781 22.1173C19.9062 21.8972 20.125 21.5671 20.3438 21.3471H18.2656C17.5 21.3471 16.8438 21.3471 16.1875 21.3471V20.4668C16.8438 20.4668 17.5 20.4668 18.2656 20.4668H21.4375V20.5768ZM18.7031 18.9263C18.2656 19.2564 17.8281 19.6965 17.2813 20.2467C17.0625 19.9166 16.7344 19.5865 16.4063 19.3664C16.9531 19.1463 17.3906 18.8162 17.9375 18.4861C18.4844 18.156 18.9219 17.7159 19.25 17.2757C19.3594 17.6058 19.5781 17.9359 19.6875 18.156C19.4688 18.3761 19.1406 18.5961 18.7031 18.9263ZM18.0469 14.7449C17.6094 14.5248 17.3906 14.4148 17.0625 14.3047C17.2813 13.9746 17.3906 13.7545 17.7188 13.4244C17.9375 13.5345 18.1563 13.7545 18.5938 13.9746C18.9219 14.1947 19.25 14.4148 19.6875 14.5248C19.4688 14.7449 19.25 15.075 19.0312 15.4051C18.8125 15.185 18.4844 14.9649 18.0469 14.7449ZM26.6875 15.8452C26.7969 16.0653 27.0156 16.3954 27.2344 16.6155C27.4531 16.9456 27.5625 17.2757 27.7812 17.6058C27.4531 17.7159 27.125 17.9359 26.9063 18.156C26.7969 17.9359 26.6875 17.6058 26.5781 17.2757C26.4687 16.9456 26.25 16.7255 26.0312 16.5055C26.0312 17.1657 26.0313 17.7159 25.9219 18.3761C25.8125 19.0363 25.7031 19.2564 25.4844 19.4764C25.2656 19.5865 24.7188 19.6965 23.9531 19.8065C23.8438 19.4764 23.7344 19.0363 23.5156 18.7062C24.1719 18.7062 24.6094 18.7062 24.7188 18.5961C24.8281 18.4861 24.9375 18.266 25.0469 17.8259C25.0469 17.3857 25.1562 16.9456 25.1562 16.3954C25.1562 15.8452 25.1562 15.4051 25.1562 14.8549H23.8437C23.7344 15.6252 23.625 16.1753 23.5156 16.7255C23.4062 17.1657 23.2969 17.6058 23.0781 18.046C22.8594 18.4861 22.6406 18.8162 22.3125 19.0363C21.9844 19.2564 21.3281 19.4764 20.7812 19.8065C20.6719 19.4764 20.3438 19.1463 19.9063 18.9263C21 18.5961 21.7656 18.046 22.0938 17.3857C22.4219 16.6155 22.6406 15.8452 22.6406 14.8549H21.9844C21.5469 14.8549 21 14.8549 20.3438 14.8549V13.9746C21 13.9746 21.5469 13.9746 21.875 13.9746H26.0312C25.9219 14.3047 25.9219 14.6348 25.9219 15.185V16.2854L26.6875 15.8452ZM21.5469 16.6155L21 17.6058C20.6719 17.3857 20.3437 17.2757 20.0156 17.1657C20.2344 16.9456 20.3438 16.6155 20.4531 16.3954C20.5625 16.1753 20.6719 15.8452 20.7812 15.4051L21.875 15.7352C21.7656 16.1753 21.6563 16.3954 21.5469 16.6155Z" fill="white"/>
<path d="M21.5469 27.9492C21.5469 28.3893 21.4375 29.0496 21.4375 29.8198H25.5938C26.25 29.8198 26.7969 29.8198 27.4531 29.7098V30.7001C26.7969 30.7001 26.25 30.7001 25.5938 30.7001H23.0781V35.4317C23.5156 34.9915 23.9531 34.4413 24.2813 33.7811C24.7188 33.2309 25.0469 32.5707 25.2656 31.9105C25.7031 32.1306 26.1406 32.2406 26.5781 32.4607C26.1406 32.9008 25.5938 33.5611 25.1562 34.3313C24.7188 35.1016 24.0625 35.8718 23.1875 36.6421C23.1875 37.1922 23.1875 37.5224 23.2969 37.5224C23.4062 37.5224 23.625 37.6324 23.8437 37.6324H25.4844C25.9219 37.6324 26.1406 37.5224 26.3594 37.5224C26.5781 37.5224 26.6875 37.0822 26.7969 36.2019C27.125 36.532 27.5625 36.7521 28 36.8621C27.6719 37.6324 27.4531 38.0725 27.2344 38.2926C27.0156 38.5127 26.7969 38.5127 26.3594 38.5127H23.2969C22.75 38.5127 22.4219 38.4026 22.3125 38.2926C22.2031 38.1826 22.0938 37.8525 22.0938 37.3023C21.875 37.5224 21.5469 37.6324 21.1094 37.9625C20.6719 38.1826 20.3437 38.4026 20.0156 38.6227C19.9062 38.4026 19.6875 38.1826 19.25 37.7424C19.6875 37.5224 20.2344 37.3023 20.7812 36.9722C21.3281 36.6421 21.7656 36.422 22.0938 36.0919V30.7001H21.3281C21.1094 31.6904 21 32.4607 20.7812 33.1209C20.5625 33.7811 20.3437 34.3313 20.0156 34.8815C19.6875 35.4317 19.3594 35.9818 18.8125 36.532C18.2656 37.0822 17.7187 37.7424 16.8437 38.5127C16.8437 38.2926 16.5156 37.9625 15.8594 37.6324C16.4062 37.3023 16.9531 36.9722 17.5 36.422C18.0469 35.8718 18.4844 35.4317 18.8125 34.7714C19.25 34.2213 19.4688 33.561 19.7969 32.9008C20.0156 32.2406 20.2344 31.4704 20.3438 30.7001H18.375C17.7187 30.7001 17.1719 30.7001 16.5156 30.7001V29.7098C17.1719 29.7098 17.8281 29.7098 18.375 29.7098H20.5625C20.5625 29.2696 20.6719 28.8295 20.6719 28.1693C20.6719 27.6191 20.6719 26.9589 20.5625 26.4087C21.3281 26.6288 21.7656 26.7388 21.9844 26.7388C21.6563 27.1789 21.5469 27.5091 21.5469 27.9492ZM24.8281 29.4897C24.5 28.9395 24.0625 28.3893 23.4062 27.8392C23.625 27.6191 23.9531 27.399 24.1719 27.1789C24.6094 27.6191 25.0469 28.1693 25.5938 28.8295C25.4844 28.8295 25.1563 29.1596 24.8281 29.4897Z" fill="white"/>
<path d="M19.4687 40.7134C19.25 40.9335 19.1406 41.1535 18.9219 41.2636H25.4844C25.9219 41.2636 26.3594 41.2636 26.7969 41.2636V42.1439C26.25 42.1439 25.8125 42.1439 25.4844 42.1439V43.4643C25.8125 43.4643 26.25 43.4643 26.7969 43.4643V44.0145C26.25 44.0145 25.8125 44.0145 25.4844 44.0145V45.3349H26.25C26.6875 45.3349 27.2344 45.3349 27.7812 45.3349V46.2152C27.2344 46.2152 26.6875 46.2152 26.25 46.2152H18.7031C18.9219 46.3253 19.25 46.5453 19.5781 46.6554C19.3594 46.8754 19.1406 47.0955 19.0312 47.3156H21.5469C21.3281 48.1959 21.1094 48.8561 20.7812 49.4063C20.4531 49.9564 20.125 50.5066 19.6875 50.8367C19.25 51.1668 18.8125 51.497 18.375 51.607C17.9375 51.8271 17.3906 51.9371 16.8437 52.0471C16.625 51.717 16.5156 51.3869 16.1875 51.1668C16.9531 51.0568 17.5 50.9468 18.0469 50.7267C18.5937 50.5066 18.9219 50.2866 19.1406 50.0665C18.9219 49.8464 18.4844 49.5163 17.9375 49.1862C18.1562 48.9661 18.2656 48.746 18.375 48.526C19.0312 48.9661 19.4687 49.1862 19.6875 49.4063C20.0156 48.9661 20.2344 48.526 20.4531 47.9758H18.5937C18.0469 48.526 17.6094 49.0762 17.2812 49.5163C16.9531 49.2962 16.7344 49.0762 16.4062 48.8561C16.8437 48.526 17.3906 47.9758 17.7188 47.4256C18.1563 46.8754 18.375 46.4353 18.5937 46.1052H17.6094C17.2813 46.1052 16.7344 46.1052 16.1875 46.1052V45.2249C16.7344 45.2249 17.5 45.2249 18.4844 45.2249V44.0145C18.2656 44.0145 18.0469 44.0145 17.7188 44.0145V43.2442C18.0469 43.2442 18.2656 43.2442 18.4844 43.2442V41.8138C17.8281 42.584 17.3906 43.0242 17.0625 43.2442C16.8438 43.0242 16.5156 42.8041 16.2969 42.584C16.8437 42.2539 17.3906 41.7037 17.9375 41.0435C18.4844 40.3833 18.8125 39.9431 19.0312 39.613C19.3594 39.8331 19.7969 40.0532 20.2344 40.1632C19.9062 40.3833 19.6875 40.4933 19.4687 40.7134ZM20.5625 43.3543V42.0338H19.25V43.3543H20.5625ZM20.5625 45.3349V44.0145H19.25V45.3349H20.5625ZM22.6406 43.3543V42.0338H21.3281V43.3543H22.6406ZM22.6406 45.3349V44.0145H21.3281V45.3349H22.6406ZM24.5 47.0955C24.5 46.8754 24.5 46.6554 24.5 46.3252H25.4844C25.4844 46.6554 25.4844 46.8754 25.4844 47.0955C26.1406 47.0955 26.6875 47.0955 27.2344 47.0955V47.9758C26.7969 47.9758 26.1406 47.9758 25.4844 47.9758V49.5163C26.3594 49.5163 27.125 49.5163 27.5625 49.5163V50.3966C27.125 50.3966 26.6875 50.3966 26.25 50.3966H25.4844C25.4844 51.0568 25.4844 51.607 25.4844 52.1572H24.5C24.5 51.607 24.5 50.9468 24.5 50.3966H21.9844C22.0938 50.1765 22.0937 49.8464 22.2031 49.5163C22.3125 49.1862 22.3125 48.8561 22.3125 48.636H23.1875C23.0781 48.9661 23.0781 49.2962 23.0781 49.6263H24.6094V48.0858H23.4062C23.0781 48.0858 22.6406 48.0858 22.0938 48.0858V47.2055C22.6406 47.2055 23.0781 47.2055 23.4062 47.2055H24.5V47.0955ZM24.8281 43.3543V42.0338H23.5156V43.3543H24.8281ZM24.8281 45.3349V44.0145H23.5156V45.3349H24.8281Z" fill="white"/>
<path d="M19.1406 62.7208C18.4844 63.491 17.7187 64.1513 16.9531 64.8115C16.625 64.4814 16.2969 64.2613 15.9688 63.9312C16.7344 63.381 17.3906 62.9409 17.9375 62.3907C18.4844 61.8405 19.0312 61.1803 19.5781 60.3C19.9062 60.6301 20.3437 60.8502 20.7812 61.1803C20.3437 61.5104 19.7969 61.9505 19.1406 62.7208ZM25.2656 56.4487C24.8281 57.329 24.5 58.0993 24.2812 58.6494H25.375C26.25 58.6494 26.9062 58.6494 27.3438 58.6494V59.6398C26.9062 59.6398 26.25 59.6398 25.375 59.6398H18.0469C17.2812 59.6398 16.625 59.6398 16.0781 59.6398V58.6494C16.625 58.6494 17.2812 58.6494 18.0469 58.6494H22.9687C23.625 57.6591 24.0625 56.6688 24.3906 55.6785C24.7187 54.6881 24.9375 54.0279 25.0469 53.5878C25.4844 53.8079 25.9219 53.9179 26.3594 54.0279C26.0312 54.6881 25.5938 55.4584 25.2656 56.4487ZM18.375 55.3484C18.7031 55.7885 19.1406 56.4487 19.6875 57.1089C19.3594 57.219 19.0313 57.439 18.8125 57.8792C18.5938 57.439 18.1563 56.8889 17.7188 56.2286C17.2813 55.6785 16.9531 55.1283 16.625 54.7982C16.8437 54.5781 17.1719 54.358 17.5 54.0279C17.7187 54.4681 18.0469 54.9082 18.375 55.3484ZM21.9844 54.6881C22.0938 55.4584 22.3125 56.2287 22.5312 57.1089C22.2031 57.1089 21.7656 57.219 21.4375 57.329C21.3281 56.7788 21.2188 56.1186 21 55.3484C20.8906 54.5781 20.6719 53.9179 20.5625 53.3677L21.6562 53.0376C21.6562 53.3677 21.7656 53.9179 21.9844 54.6881ZM25.375 62.0606C26.0312 62.6108 26.6875 63.1609 27.3438 63.7111C27.0156 63.9312 26.6875 64.2613 26.3594 64.5914C25.8125 64.0412 25.1562 63.381 24.5 62.8308C23.7344 62.2806 23.1875 61.7305 22.5312 61.2903C22.75 60.9602 22.9688 60.7401 23.1875 60.41C23.9531 60.9602 24.6094 61.5104 25.375 62.0606Z" fill="white"/>
<path d="M16.4063 76.2552C16.5156 75.8151 16.7344 75.375 16.8438 74.9348C16.9531 74.4947 17.0625 73.8344 17.1719 73.0642C17.5 73.1742 17.8281 73.2843 18.375 73.2843C17.9375 73.9445 17.9375 74.4947 18.2656 75.0448C18.5938 75.595 18.8125 75.8151 19.1406 76.0352V71.8538C17.8281 71.8538 16.9531 71.8538 16.5156 71.8538V70.9735C16.9531 70.9735 17.8281 70.9735 18.9219 70.9735V68.9929C18.1562 68.9929 17.5 68.9929 16.8438 68.9929V68.1126C17.2812 68.1126 17.9375 68.1126 18.9219 68.1126C18.9219 67.4523 18.9219 66.7921 18.9219 66.2419H19.6875C19.6875 66.9022 19.6875 67.4523 19.6875 68.1126C20.4531 68.1126 21 68.1126 21.4375 68.1126V68.9929C21.1094 68.9929 20.4531 68.9929 19.6875 68.9929V70.9735C20.6719 70.9735 21.4375 70.9735 21.9844 70.9735V71.8538C21.4375 71.8538 20.7813 71.8538 19.9063 71.8538V73.5043C20.5625 73.5043 21.1094 73.5043 21.7656 73.5043V74.3846C21.1094 74.3846 20.5625 74.3846 19.9063 74.3846V76.5854C20.3438 76.9155 21.4375 77.1355 23.2969 77.2456C25.1562 77.3556 26.6875 77.2456 28 77.0255C27.7813 77.3556 27.6719 77.7957 27.5625 78.2359C25.9219 78.2359 24.6094 78.2359 23.5156 78.2359C22.4219 78.2359 21.5469 78.1259 20.7813 77.9058C20.0156 77.6857 19.3594 77.4656 18.9219 77.1355C18.4844 76.8054 18.0469 76.2552 17.6094 75.7051C17.2813 76.5854 16.9531 77.4656 16.625 78.2359C16.4063 77.7957 16.0781 77.5757 15.75 77.4656C16.0781 77.0255 16.1875 76.5854 16.4063 76.2552ZM27.0156 75.595C26.7969 75.9251 26.4688 76.0352 26.0312 76.0352H23.625C22.8594 76.0352 22.5313 75.595 22.5313 74.8248V72.404C22.5313 71.9638 22.5313 71.4137 22.5313 70.7534H25.9219V68.1126C23.9531 68.1126 22.6406 68.1126 22.2031 68.1126V67.2323C22.75 67.2323 23.2969 67.2323 23.8438 67.2323H27.0156C27.0156 67.7824 27.0156 68.4427 27.0156 69.433C27.0156 70.3133 27.0156 71.0835 27.0156 71.5237H23.625V74.2746C23.625 74.8248 23.8438 75.0448 24.3906 75.0448H25.8125C26.0313 75.0448 26.25 74.9348 26.3594 74.7147C26.4688 74.4947 26.4688 74.0545 26.5781 73.3943C26.9062 73.6144 27.2344 73.7244 27.7812 73.8344C27.3438 74.8248 27.2344 75.375 27.0156 75.595Z" fill="white"/>
<path d="M21.2187 84.948H17.6094C16.9531 84.948 16.2969 84.948 15.8594 84.948V83.9577C16.4062 83.9577 16.9531 83.9577 17.6094 83.9577H21.2187V80.6566H18.7031C18.0469 80.6566 17.6094 80.6566 17.0625 80.6566V79.6663C17.5 79.6663 18.0469 79.6663 18.7031 79.6663H24.5C25.0469 79.6663 25.7031 79.6663 26.25 79.6663V80.6566C25.7031 80.6566 25.0469 80.6566 24.5 80.6566H22.2031V83.9577H25.4844C26.25 83.9577 26.9063 83.9577 27.5625 83.9577V84.948C27.0156 84.948 26.3594 84.948 25.4844 84.948H22.2031V89.6796C22.2031 90.3398 21.9844 90.6699 21.5469 90.7799C21.1094 90.89 20.5625 91 19.7969 91C19.7969 90.5598 19.5781 90.1197 19.3594 89.5695C19.9063 89.6796 20.3437 89.6796 20.6719 89.6796C21 89.6796 21.1094 89.5695 21.1094 89.2394V84.948H21.2187Z" fill="white"/>
<path d="M4.8125 2.971V6.71223C4.8125 7.59252 4.8125 8.25274 4.8125 8.91296H3.82812V8.1427H1.64062V9.57318H0.65625C0.65625 9.02299 0.65625 8.25274 0.65625 7.26241V2.86096C0.65625 1.98067 0.65625 1.32046 0.65625 0.550202H4.8125C4.8125 1.43049 4.8125 2.20075 4.8125 2.971ZM3.82812 3.85129V1.54053H1.64062V3.85129H3.82812ZM3.82812 7.26241V4.73158H1.64062V7.26241H3.82812ZM11.375 2.53085V9.90329C11.375 10.5635 11.2656 11.0036 11.0469 11.1137C10.8281 11.3338 10.1719 11.4438 9.29688 11.5538C9.1875 11.3338 9.07812 10.8936 8.75 10.4535C9.29688 10.4535 9.73438 10.4535 9.95312 10.4535C10.1719 10.4535 10.3906 10.2334 10.2812 9.90329V7.15238H7.32812C7.10938 8.91296 6.5625 10.5635 5.57812 11.994C5.25 11.6639 4.92188 11.4438 4.48438 11.3338C5.79688 10.0133 6.45313 7.8126 6.34375 4.73158V2.53085C6.34375 1.65056 6.34375 0.88031 6.34375 0.220093H11.4844C11.375 0.88031 11.375 1.65056 11.375 2.53085ZM10.2812 3.30111V1.10038H7.32812V3.30111H10.2812ZM10.2812 6.27209V4.1814H7.32812V6.27209H10.2812Z" fill="white"/>
<path d="M3.0625 16.5055V23.1076C3.0625 23.8779 3.0625 24.5381 3.0625 25.3084H1.96875C1.96875 24.5381 1.96875 23.7678 1.96875 23.1076V18.3761C1.53125 19.1463 1.09375 19.8065 0.765625 20.2467C0.546875 20.0266 0.328125 19.6965 0 19.4764C0.546875 18.9263 1.09375 18.156 1.64062 17.0556C2.1875 15.9553 2.625 14.7449 2.95312 13.4244C3.5 13.6445 3.82812 13.8646 4.15625 13.8646C3.9375 14.0847 3.60938 15.075 3.0625 16.5055ZM6.01562 13.5345C6.23438 13.5345 6.5625 13.6445 7.21875 13.6445C7.10938 14.0847 7.21875 15.4051 7.32812 17.7159C8.96875 17.3857 10.2812 17.1657 11.1562 16.8356L11.375 17.8259C11.0469 17.8259 9.73438 18.156 7.4375 18.5961C7.875 20.7969 8.42188 22.2273 9.29688 23.1076C10.1719 23.9879 10.6094 24.208 10.7188 23.7678C10.8281 23.3277 10.9375 22.9976 10.9375 22.5574C11.2656 22.7775 11.7031 22.9976 12.0312 22.9976C11.8125 23.9879 11.5938 24.6481 11.375 24.8682C11.1562 25.0883 10.7188 25.3084 10.0625 25.0883C9.40625 24.8682 8.85938 24.318 8.09375 23.4377C7.32812 22.5574 6.78125 21.0169 6.34375 18.8162C5.03125 19.1463 4.26562 19.2564 3.9375 19.3664L3.60938 18.3761C4.15625 18.266 5.03125 18.156 6.23438 17.9359C6.125 15.7352 6.01562 14.1947 6.01562 13.5345ZM10.5 15.7352C10.1719 15.9553 9.84375 16.1753 9.625 16.3954C9.29688 15.8452 8.96875 15.185 8.42188 14.6348C8.64062 14.4148 8.96875 14.3047 9.29688 13.9746C9.84375 14.7449 10.1719 15.2951 10.5 15.7352Z" fill="white"/>
</svg>
