<svg width="64" height="107" viewBox="0 0 64 107" fill="none" xmlns="http://www.w3.org/2000/svg">
<path d="M53.0586 3.51974V6.6875H56.7057C56.7057 7.1568 56.7057 8.0954 56.7057 9.38597C56.7057 10.6765 56.7057 11.6151 56.7057 12.4364H55.6468C55.6468 11.6151 55.6468 10.9112 55.6468 10.4419V9.50329H53.9998C53.7645 10.2072 53.5292 10.7939 53.1762 11.2632C52.8233 11.7325 52.3527 12.2018 51.8821 12.5537C51.6468 12.2018 51.4115 11.9671 51.0586 11.7325C51.6468 11.3805 52.1174 11.0285 52.3527 10.6765C52.7057 10.3246 52.8233 9.85526 52.9409 9.50329C52.4704 9.50329 51.8821 9.50329 51.1762 9.50329V8.68202C51.6468 8.68202 52.1174 8.68202 52.588 8.68202H55.6468V7.50877H51.8821C51.8821 6.6875 51.8821 5.7489 51.8821 4.57566C51.8821 3.40241 51.8821 2.58114 51.8821 1.99452H53.0586C53.0586 2.58114 53.0586 3.05044 53.0586 3.51974ZM60.9409 3.05044C60.9409 4.34101 60.9409 5.27961 60.9409 5.98355H54.2351C54.2351 5.27961 54.2351 4.22368 54.2351 3.05044C54.2351 1.75987 54.2351 0.703947 54.2351 0H60.9409C60.9409 0.821272 60.9409 1.75987 60.9409 3.05044ZM59.9998 1.87719V0.938597H55.4115V1.87719H59.9998ZM59.9998 3.51974V2.58114H55.4115V3.51974H59.9998ZM59.9998 5.27961V4.34101H55.4115V5.27961H59.9998ZM63.1762 4.69298C63.1762 5.86623 63.1762 6.80482 63.1762 7.50877H59.2939V8.68202H63.0586C63.0586 9.03399 63.0586 9.50329 63.0586 10.2072C63.0586 10.7939 63.0586 11.4978 63.0586 12.3191H62.1174V9.50329H59.4115V10.2072C59.4115 10.9112 59.4115 11.6151 59.4115 12.3191H58.3527C58.3527 11.7325 58.3527 10.7939 58.3527 9.38597C58.3527 7.97807 58.3527 7.03947 58.3527 6.57018H62.1174V3.28509C62.1174 3.05044 62.1174 2.69847 62.1174 2.22917H63.2939C63.2939 2.69847 63.1762 3.51974 63.1762 4.69298Z" fill="white"/>
<path d="M57.7649 14.1963C58.1179 14.1963 58.4708 14.1963 58.9414 14.1963C58.9414 14.6656 58.9414 15.2522 58.9414 15.9562H61.5296C62.0002 15.9562 62.5885 15.9562 63.2943 15.9562V16.8948C62.5885 16.8948 62.0002 16.8948 61.5296 16.8948H58.9414C59.1767 17.8334 59.412 18.6547 59.8826 19.3586C60.5885 18.772 61.1767 18.068 61.412 17.3641C61.6473 17.5987 62.1179 17.8334 62.4708 18.068C62.2355 18.3027 62.0002 18.5373 61.7649 18.8893C61.5296 19.2413 61.0591 19.5933 60.4708 20.1799C60.9414 20.8838 61.412 21.3531 61.8826 21.4704C62.3532 21.5878 62.5885 21.2358 62.8238 20.2972C63.2944 20.6492 63.6473 20.8838 63.8826 20.8838C63.412 22.2917 62.8238 22.9957 62.0002 22.6437C61.1767 22.409 60.3532 21.7051 59.7649 20.8838C59.0591 21.4704 58.2355 21.9397 57.2943 22.409C57.1767 22.1744 56.9414 21.9397 56.4708 21.5878C57.6473 21.1185 58.4708 20.6492 59.0591 20.0625C58.4708 19.0066 58.1179 17.9507 58.0002 16.8948H53.412V18.068H56.9414C56.9414 19.0066 56.8238 19.7106 56.7061 20.4145C56.5885 21.0011 56.3532 21.4704 56.0002 21.7051C55.6473 21.9397 55.1767 22.0571 54.5885 22.1744C54.4708 21.7051 54.3532 21.3531 54.1179 21.1185C54.9414 21.0011 55.412 20.8838 55.5296 20.7665C55.6473 20.6492 55.7649 20.0625 55.8826 19.124H53.412C53.412 19.7106 53.2943 20.4145 53.0591 21.0011C52.8238 21.5878 52.5885 22.2917 52.1179 22.9957C51.8826 22.761 51.412 22.6437 50.9414 22.5264C51.412 22.1744 51.7649 21.5878 52.0002 20.8838C52.2355 20.1799 52.3532 19.3586 52.3532 18.42C52.3532 17.4814 52.3532 16.7775 52.2355 16.1908H57.8826C57.8826 15.6042 57.7649 15.0176 57.7649 14.1963ZM62.0002 25.8115C62.4708 25.8115 63.0591 25.8115 63.6473 25.8115V26.75C63.0591 26.75 61.8826 26.75 60.3532 26.75H53.6473C52.7061 26.75 51.7649 26.75 51.0591 26.75V25.8115C51.5296 25.8115 52.1179 25.8115 52.7061 25.8115C52.7061 24.2862 52.7061 23.2303 52.7061 22.6437H62.1179V25.8115H62.0002ZM55.5296 25.8115V23.465H53.7649V25.8115H55.5296ZM58.1179 25.8115V23.465H56.4708V25.8115H58.1179ZM60.9414 25.8115V23.465H59.1767V25.8115H60.9414ZM62.1179 15.2522C61.7649 15.4869 61.5296 15.7215 61.1767 15.8389C60.8238 15.3696 60.3532 14.9003 59.8826 14.5483C60.1179 14.431 60.3532 14.1963 60.7061 13.9617C61.2943 14.431 61.7649 14.9003 62.1179 15.2522Z" fill="white"/>
<path d="M56.8233 34.0242H52.9409C52.2351 34.0242 51.5292 34.0242 51.0586 34.0242V32.9682C51.6468 32.9682 52.2351 32.9682 52.9409 32.9682H56.8233V29.4485H54.1174C53.4115 29.4485 52.9409 29.4485 52.3527 29.4485V28.3926C52.8233 28.3926 53.4115 28.3926 54.1174 28.3926H60.3527C60.9409 28.3926 61.6468 28.3926 62.2351 28.3926V29.4485C61.6468 29.4485 60.9409 29.4485 60.3527 29.4485H57.8821V32.9682H61.4115C62.2351 32.9682 62.9409 32.9682 63.6468 32.9682V34.0242C63.0586 34.0242 62.3527 34.0242 61.4115 34.0242H57.8821V39.0691C57.8821 39.7731 57.6468 40.125 57.1762 40.2424C56.7056 40.3597 56.1174 40.477 55.2939 40.477C55.2939 40.0077 55.0586 39.5384 54.8233 38.9518C55.4115 39.0691 55.8821 39.0691 56.2351 39.0691C56.588 39.0691 56.7057 38.9518 56.7057 38.5998V34.0242H56.8233Z" fill="white"/>
<path d="M52.1174 47.5164C51.7645 47.2818 51.4115 47.0471 51.0586 46.9298C51.2939 46.6952 51.4115 46.3432 51.6468 45.9912C51.9998 46.2259 52.4704 46.4605 52.9409 46.6952C53.4115 46.9298 53.7645 47.1645 54.1174 47.2818C53.8821 47.6338 53.6468 47.9857 53.4115 48.2204C52.9409 48.1031 52.4704 47.7511 52.1174 47.5164ZM53.4115 52.4441C52.9409 53.3827 52.4704 54.2039 52.2351 54.7906C51.8821 54.4386 51.5292 54.2039 51.2939 53.9693C52.2351 52.796 53.0586 51.3881 53.7645 49.6283C53.9998 49.8629 54.3527 50.0976 54.588 50.3322C54.2351 50.6842 53.8821 51.3881 53.4115 52.4441ZM54.588 44.3487C54.3527 44.5833 53.9998 44.9353 53.7645 45.1699C53.5292 44.9353 53.1762 44.5833 52.7056 44.2313C52.2351 43.8794 51.9998 43.6447 51.6468 43.4101C51.8821 43.1754 52.2351 42.9408 52.3527 42.7061C53.5292 43.5274 54.2351 43.9967 54.588 44.3487ZM59.6468 45.9912V46.9298H61.4115C62.2351 46.9298 62.9409 46.9298 63.6468 46.9298V47.8684C62.8233 47.8684 61.9998 47.8684 61.2939 47.8684H57.5292C56.3527 47.8684 55.4115 47.8684 54.7057 47.8684V46.9298C55.4115 46.9298 56.3527 46.9298 57.2939 46.9298H58.588V45.9912H57.5292C56.9409 45.9912 56.2351 45.9912 55.6468 45.9912V45.0526C56.3527 45.0526 56.9409 45.0526 57.5292 45.0526H58.588V44.114H57.6468C56.7057 44.114 55.8821 44.114 55.1762 44.114V43.4101C55.8821 43.4101 56.7057 43.4101 57.5292 43.4101H58.588C58.588 42.9408 58.588 42.5888 58.588 42.1195H59.7645C59.7645 42.5888 59.7645 43.0581 59.7645 43.4101H61.1762C61.6468 43.4101 62.3527 43.4101 63.0586 43.4101V44.3487C62.2351 44.3487 61.6468 44.3487 61.1762 44.3487H59.5292V45.2873H60.588C60.8233 45.2873 61.6468 45.2873 62.8233 45.2873V46.2259C61.6468 46.2259 60.9409 46.2259 60.7056 46.2259H59.6468V45.9912ZM61.4115 53.5V52.796H56.8233V54.9079H55.7645C55.7645 54.2039 55.7645 53.6173 55.7645 52.9134V50.4495C55.7645 49.9803 55.7645 49.2763 55.7645 48.5724H62.588C62.588 49.2763 62.588 49.8629 62.588 50.4495V53.852C62.588 54.2039 62.4704 54.4386 62.3527 54.5559C62.1174 54.6732 61.7645 54.7906 61.0586 55.0252C61.0586 54.6732 60.8233 54.3213 60.4704 53.9693C61.0586 53.852 61.4115 53.7346 61.4115 53.5ZM61.4115 50.2149V49.2763H56.8233V50.2149H61.4115ZM61.4115 51.8574V51.0362H56.8233V51.8574H61.4115Z" fill="white"/>
<path d="M62.4705 61.9474C62.5881 62.2993 62.5881 62.6513 62.4705 63.0033C62.3528 63.3552 62.2352 63.5899 61.8822 63.8245C61.6469 64.0592 61.294 64.0592 60.9411 64.0592C60.5881 64.0592 60.2352 63.9419 59.9999 63.5899C59.7646 63.3552 59.5293 63.0033 59.5293 62.6513C59.5293 62.2993 59.5293 61.9474 59.7646 61.7127C59.9999 61.4781 60.2352 61.2434 60.5881 61.1261C60.9411 61.0088 61.294 61.0088 61.7646 61.1261C62.1175 61.3607 62.3528 61.5954 62.4705 61.9474ZM61.6469 63.3552C61.9999 63.1206 62.1175 62.886 62.1175 62.4167C62.1175 61.9474 61.8822 61.7127 61.6469 61.5954C61.4117 61.4781 61.0587 61.4781 60.7058 61.5954C60.4705 61.83 60.2352 62.0647 60.2352 62.4167C60.2352 62.7686 60.3528 63.0033 60.7058 63.2379C60.9411 63.5899 61.294 63.5899 61.6469 63.3552Z" fill="white"/>
<path d="M57.5292 72.5066V74.853H60.7057C61.4116 74.853 62.1174 74.853 62.8233 74.853V76.0263C62.1174 76.0263 61.4116 76.0263 60.588 76.0263H57.5292V81.5405H61.8821C62.4704 81.5405 63.0586 81.5405 63.7645 81.5405V82.7138C63.0586 82.7138 62.4704 82.7138 61.8821 82.7138H53.1763C52.588 82.7138 51.8822 82.7138 51.1763 82.7138V81.5405C51.8822 81.5405 52.588 81.5405 53.1763 81.5405H56.3527V72.6239C56.3527 72.0373 56.3527 71.4506 56.3527 70.864H57.6469C57.5292 71.4506 57.5292 72.0373 57.5292 72.5066Z" fill="white"/>
<path d="M61.1763 88.4627C61.6469 88.4627 62.1175 88.4627 62.8234 88.4627V89.636C62.1175 89.636 61.6469 89.636 61.1763 89.636H59.4116V94.6809C59.4116 95.1502 59.6469 95.5022 60.2351 95.5022H61.8822C62.2351 95.5022 62.4704 95.0329 62.7057 93.977C63.0587 94.2116 63.5292 94.4463 63.8822 94.4463C63.6469 95.7369 63.1763 96.4408 62.1175 96.4408H59.5292C58.7057 96.4408 58.2351 95.9715 58.2351 95.1502V89.7533H56.2351C56.3528 93.1557 55.0587 95.5022 52.3528 97.0274C52.1175 96.6754 51.7645 96.4408 51.2939 96.0888C53.9998 95.1502 55.2939 93.0384 55.1763 89.7533H53.7645C53.1763 89.7533 52.5881 89.7533 51.8822 89.7533V88.5801C52.5881 88.5801 53.1763 88.5801 53.7645 88.5801H61.1763V88.4627ZM60.2351 84.943C60.5881 84.943 61.0587 84.943 61.7645 84.943V85.9989C61.0587 85.9989 60.5881 85.9989 60.2351 85.9989H54.5881C54.1175 85.9989 53.6469 85.9989 53.0587 85.9989V84.943C53.6469 84.943 54.1175 84.943 54.4704 84.943H60.2351Z" fill="white"/>
<path d="M46.2355 7.9781H44.4708V6.21823H34.8237V4.57568H46.2355V7.9781ZM35.2943 5.6316H44.9414V7.39147H45.5296V5.04498H35.2943V5.6316Z" fill="white"/>
<path d="M38.8236 14.7829C38.8236 15.3696 38.8236 16.0735 38.8236 16.6601C38.8236 17.2467 38.8236 17.9507 38.8236 18.5373H35.7648L35.6472 20.5318H38.706C38.706 21.4704 38.5883 22.2917 38.5883 23.2303C38.4707 24.0516 38.4707 24.7555 38.3531 25.1075C38.2354 25.4595 38.0001 25.8114 37.6472 25.9288C37.2942 26.0461 36.5884 26.1634 35.8825 26.2807C35.8825 25.9288 35.6472 25.5768 35.4119 25.1075C36.2354 25.1075 36.8236 25.1075 37.1766 24.9902C37.5295 24.8728 37.6472 23.6996 37.6472 21.4704H34.5884C34.706 20.2972 34.8236 19.0066 34.8236 17.716H37.6472V15.6042H36.2354C35.6472 15.6042 35.0589 15.6042 34.4707 15.6042V14.6656C35.0589 14.6656 35.6472 14.6656 36.2354 14.6656H38.8236V14.7829ZM40.3531 16.5428C40.3531 15.8388 40.3531 15.0176 40.3531 14.079H41.5295C41.5295 15.0176 41.5295 15.8388 41.5295 16.4255V19.2413H44.4707C45.1766 19.2413 45.8825 19.2413 46.5883 19.2413V20.1799C45.7648 20.1799 45.1766 20.1799 44.5884 20.1799H43.5295C43.7648 21.5878 44.2354 22.6437 44.9413 23.3476C45.6472 24.1689 46.3531 24.7555 47.1766 25.1075C46.8236 25.3421 46.4707 25.6941 46.3531 26.0461C45.4119 25.5768 44.5884 24.7555 44.0001 23.6996C43.4119 22.6437 42.9413 21.4704 42.706 20.0625H41.6472V24.6382C42.0001 24.4035 42.4707 24.0516 43.0589 23.6996L43.4119 24.7555C42.9413 25.1075 42.4707 25.3421 42.0001 25.5768C41.5295 25.8114 41.1766 26.1634 40.8236 26.5154C40.5884 26.1634 40.4707 25.9288 40.1178 25.5768C40.4707 25.3421 40.5884 24.9902 40.5884 24.5209V20.0625C40.0001 20.0625 39.5295 20.0625 39.0589 20.0625V19.1239C39.5295 19.1239 40.0001 19.1239 40.5884 19.1239V16.5428H40.3531ZM42.8236 18.6546C42.5884 18.3027 42.2354 18.068 42.0001 17.9507C42.9413 17.0121 43.8825 15.8388 44.5884 14.431C44.8236 14.6656 45.1766 14.9003 45.5295 15.1349C44.706 16.4255 43.7648 17.5987 42.8236 18.6546Z" fill="white"/>
<path d="M39.2941 32.6162C38.8235 32.9682 38.2353 33.3201 37.7647 33.6721C37.647 34.2587 37.647 34.8454 37.5294 35.432C38 35.784 38.4706 36.2533 38.9411 36.7226C39.4117 37.1919 39.8823 37.7785 40.4706 38.4824C40.1176 38.7171 39.8823 39.0691 39.5294 39.421C39.1764 38.9517 38.8235 38.4824 38.4706 38.1305C38.1176 37.7785 37.7647 37.1919 37.1764 36.7226C36.9411 37.3092 36.7059 37.8958 36.4706 38.4824C36.2353 39.0691 35.647 39.8903 35.0588 40.8289C34.7059 40.5943 34.3529 40.3596 33.8823 40.125C34.5882 39.421 35.1764 38.7171 35.5294 37.8958C35.8823 37.0745 36.2353 36.2533 36.3529 35.1973C36.4706 34.2587 36.5882 33.2028 36.7059 32.0296C36.8235 30.8563 36.7059 29.5658 36.7059 27.9232C37.0588 28.0405 37.5294 28.0405 37.8823 28.0405C37.7647 28.6272 37.7647 29.2138 37.647 29.8004C37.5294 30.387 37.647 31.3256 37.647 32.2642C38.2353 31.9123 38.8235 31.443 39.2941 30.739C39.5294 31.091 39.7647 31.443 40.1176 31.6776C40.1176 32.0296 39.7647 32.2642 39.2941 32.6162ZM35.5294 32.7335C35.4117 33.4375 35.2941 34.1414 35.1764 34.9627C34.9411 34.8454 34.5882 34.8454 34.1176 34.8454C34.2353 34.2587 34.3529 33.6721 34.4706 33.0855C34.5882 32.4989 34.5882 31.7949 34.7059 31.2083C34.9411 31.3256 35.4117 31.443 35.7647 31.443C35.647 31.5603 35.647 32.0296 35.5294 32.7335ZM39.5294 29.0965C40.3529 29.0965 40.9411 29.0965 41.1764 29.0965H45.1764C45.5294 29.0965 46.1176 29.0965 46.9411 29.0965V30.1524C46.1176 30.1524 45.5294 30.1524 45.1764 30.1524H44.2353V39.1864C44.2353 40.0077 44 40.3596 43.647 40.4769C43.2941 40.5943 42.7059 40.7116 41.8823 40.9462C41.7647 40.4769 41.647 40.0077 41.4117 39.5384C42.1176 39.5384 42.5882 39.5384 42.7059 39.5384C42.9411 39.5384 42.9411 39.3037 42.9411 38.7171V30.0351H41.1764C40.9411 30.0351 40.3529 30.0351 39.5294 30.0351V29.0965Z" fill="white"/>
<path d="M40.9412 43.8794C40.9412 44.466 40.9412 45.17 40.9412 45.9912C40.9412 46.8125 41.1765 47.7511 41.4118 48.5724C41.6471 49.3937 42.1177 50.2149 42.7059 50.8016C43.1765 51.3882 43.7647 51.8575 44.4706 52.3268C45.1765 52.7961 46 53.0307 47.0589 53.3827C46.5883 53.852 46.2353 54.204 46.1177 54.6733C45.2941 54.3213 44.5883 53.9693 44.1177 53.6173C43.6471 53.2654 43.0589 52.9134 42.7059 52.4441C42.2353 51.9748 41.8824 51.5055 41.4118 50.9189C41.0589 50.3323 40.7059 49.6283 40.4706 48.6897C40.2353 49.511 40 50.2149 39.6471 50.8016C39.2941 51.3882 38.9412 51.8575 38.5883 52.3268C38.2353 52.7961 37.7647 53.2654 37.1765 53.6173C36.5883 53.9693 36 54.4386 35.2941 54.9079C35.0589 54.5559 34.7059 54.204 34.1177 53.852C35.2941 53.3827 36.353 52.7961 37.1765 51.9748C38 51.2709 38.7059 50.3323 39.0589 49.3937C39.4118 48.4551 39.6471 47.2818 39.7647 45.9912C39.8824 44.7007 39.8824 43.2928 39.8824 41.8849C40.2353 42.0022 40.7059 42.0022 41.1765 42.0022C41.0589 42.8235 40.9412 43.2928 40.9412 43.8794ZM37.0589 46.4605C36.8236 47.1645 36.7059 47.9858 36.353 48.6897C36 48.5724 35.5294 48.4551 35.1765 48.4551C35.4118 48.1031 35.5294 47.6338 35.7647 46.9298C36 46.2259 36.1177 45.5219 36.353 44.7007C36.7059 44.818 37.0589 44.9353 37.6471 44.9353C37.4118 45.17 37.1765 45.6393 37.0589 46.4605ZM44.7059 46.4605C44.4706 47.2818 44.1177 47.8684 43.8824 48.4551C43.5294 48.2204 43.1765 48.1031 42.7059 47.9858C43.0589 47.3991 43.4118 46.8125 43.6471 46.1086C43.8824 45.5219 44.1177 44.9353 44.2353 44.3487C44.5883 44.5834 45.0589 44.7007 45.5294 44.818C45.2941 45.17 44.9412 45.7566 44.7059 46.4605Z" fill="white"/>
<path d="M43.5293 60.5394H45.5293V62.7686C45.4117 63.7072 44.9411 64.4111 44.1175 64.7631L43.5293 64.2938C44.2352 63.9418 44.4705 63.3552 44.4705 62.6513H43.5293V60.5394Z" fill="white"/>
<path d="M39.8823 72.6239H45.4117C45.4117 73.4452 45.4117 74.2665 45.4117 74.9704V81.0713C45.4117 81.7752 45.4117 82.3619 45.4117 83.0658H44.3529V81.7752H36.9411V83.0658H35.8823C35.8823 82.3619 35.8823 81.7752 35.8823 81.1886V74.9704C35.8823 74.2665 35.8823 73.5625 35.8823 72.7413H38.8235C38.9411 71.8027 39.0588 70.9814 39.0588 70.5121C39.5294 70.6294 40 70.7467 40.4706 70.8641C40.2353 71.0987 40 71.6853 39.8823 72.6239ZM44.2353 75.3224V73.5625H36.8235V75.3224H44.2353ZM44.2353 78.0209V76.261H36.8235V78.0209H44.2353ZM44.2353 80.8367V78.8421H36.8235V80.8367H44.2353Z" fill="white"/>
<path d="M39.1764 87.2894C39.0588 87.6414 38.8235 88.1107 38.5882 88.58C38.3529 89.1666 38 89.7532 37.647 90.3399C37.8823 90.5745 38.1176 90.8092 38.3529 90.9265C38.5882 90.6918 38.9411 90.2225 39.5294 89.4013L40.4706 90.3399C40.2353 90.5745 40 90.6918 39.7647 90.9265C39.5294 91.1611 39.2941 91.2785 39.0588 91.6304C39.5294 92.0997 39.8823 92.4517 40.2353 92.8037C39.8823 93.0383 39.5294 93.3903 39.2941 93.625C38.9412 93.0383 38.7059 92.6864 38.4706 92.4517C38.2353 92.2171 38 91.9824 37.647 91.6304V95.5021C37.647 96.0888 37.647 96.6754 37.647 97.262H36.4706C36.4706 96.4407 36.4706 95.8541 36.4706 95.5021V91.6304C36 92.2171 35.4117 92.8037 34.5882 93.5076C34.3529 93.1556 34.1176 92.8037 33.8823 92.569C34.5882 92.2171 35.2941 91.6304 35.8823 90.9265C36.4706 90.2225 37.0588 89.4013 37.5294 88.3453H36.3529C35.7647 88.3453 35.1764 88.3453 34.5882 88.3453V87.2894C35.0588 87.2894 35.647 87.2894 36.2353 87.2894H39.1764ZM38.2353 86.2335C38 86.3508 37.647 86.4682 37.1764 86.7028C36.9411 85.9989 36.5882 85.4122 36.2353 84.8256C36.5882 84.7083 36.9411 84.591 37.1764 84.4736C37.647 84.9429 38 85.5296 38.2353 86.2335ZM45.2941 96.5581C44.8235 96.7927 44.2353 97.0274 43.1764 97.0274C43.1764 96.5581 42.9411 96.0888 42.5882 95.6195C43.5294 95.6195 44.2353 95.6195 44.4706 95.5021C44.7059 95.3848 44.8235 95.0328 44.9411 94.3289L45.2941 86.5855H42.9411C42.9411 87.6414 42.8235 88.6973 42.8235 89.6359C42.7059 90.5745 42.5882 91.5131 42.3529 92.3344C42.1176 93.1556 41.7647 93.9769 41.2941 94.7982C40.8235 95.6195 40.2353 96.3234 39.4117 97.1447C39.1764 96.91 38.8235 96.6754 38.3529 96.4407C39.0588 95.8541 39.647 95.2675 40.1176 94.5635C40.5882 93.9769 40.8235 93.273 41.0588 92.569C41.2941 91.8651 41.5294 91.0438 41.5294 89.9879C41.5294 88.932 41.7647 87.876 41.7647 86.5855C40.8235 86.5855 40 86.5855 39.5294 86.5855V85.6469C40.3529 85.6469 41.1764 85.6469 41.7647 85.6469H46.2353L45.7647 94.5635C45.8823 95.7368 45.647 96.3234 45.2941 96.5581Z" fill="white"/>
<path d="M21.6468 5.0449C21.2939 6.80477 20.8233 8.09534 20.3527 9.03393C19.8821 9.97253 19.1762 11.0285 18.1174 12.0844C17.9998 11.8497 17.6468 11.6151 17.0586 11.2631C18.4704 10.2072 19.4115 8.68196 19.9998 6.80477C20.588 4.92757 20.9409 2.93305 20.9409 0.938537C21.4115 1.17319 21.8821 1.29051 22.3527 1.40783C22.2351 1.52516 21.9998 2.69841 21.6468 5.0449ZM26.7057 6.21814C27.2939 8.32998 28.3527 10.0899 29.8821 11.4977C29.5292 11.6151 29.0586 11.8497 28.588 12.319C27.7645 11.3804 27.0586 10.3245 26.588 9.26858C26.1174 8.21266 25.6468 6.92209 25.4115 5.63152C25.1762 4.22362 24.8233 2.58108 24.588 0.469238C25.0586 0.469238 25.4115 0.469238 25.8821 0.469238C25.8821 2.11178 26.2351 4.1063 26.7057 6.21814Z" fill="white"/>
<path d="M25.8822 18.5372C26.941 19.3585 27.9998 20.2971 28.941 21.4703L28.1175 22.2916C27.4116 21.2357 26.4704 20.2971 25.5292 19.2412L25.2939 19.0065L25.8822 18.5372Z" fill="white"/>
<path d="M22.7057 31.4429L26.8234 31.2083L26.3528 38.4824C26.2351 39.069 26.4704 39.421 26.941 39.421H27.8822C28.1175 39.421 28.3528 39.3037 28.4704 39.069C28.5881 38.8344 28.5881 38.2478 28.7057 37.1918C29.1763 37.4265 29.6469 37.6611 29.9998 37.6611C29.7645 38.9517 29.6469 39.6556 29.4116 40.0076C29.1763 40.3596 28.8234 40.4769 28.2351 40.4769H26.3528C25.5292 40.4769 25.0587 40.0076 25.0587 38.9517L25.4116 32.1469L22.5881 32.2642C22.3528 34.0241 21.9998 35.6666 21.2939 37.0745C20.5881 38.4824 19.6469 39.6556 18.3528 40.8289C18.1175 40.4769 17.7645 40.1249 17.2939 39.8903C18.1175 39.421 18.941 38.5997 19.7645 37.4265C20.5881 36.2532 21.0587 34.4934 21.4116 32.3815C20.1175 32.4988 19.0587 32.4988 18.2351 32.6162L17.9998 31.6776C18.8234 31.6776 19.8822 31.6776 21.4116 31.5602C21.5292 29.8004 21.5292 28.7445 21.4116 28.1578C21.9998 28.2752 22.5881 28.2752 22.941 28.2752C22.8234 28.6271 22.7057 29.6831 22.7057 31.4429Z" fill="white"/>
<path d="M28.8234 48.2204C28.4705 48.4551 28.2352 48.6897 27.8822 48.9244C27.5293 48.5724 27.294 48.2204 26.9411 47.9858C25.7646 48.1031 24.8234 48.1031 24.1175 48.1031V50.2149H25.8822C26.7058 50.2149 27.4116 50.2149 27.9999 50.2149V51.2709C27.294 51.2709 26.5881 51.2709 25.8822 51.2709H24.1175V53.2654H27.4116C28.2352 53.2654 28.9411 53.2654 29.6469 53.2654V54.3213C29.0587 54.3213 28.3528 54.3213 27.4116 54.3213H19.4117C18.7058 54.3213 17.9999 54.3213 17.5293 54.3213V53.2654C18.1175 53.2654 18.8234 53.2654 19.5293 53.2654H23.0587V51.2709H20.9411C20.2352 51.2709 19.6469 51.2709 19.0587 51.2709V50.2149C19.6469 50.2149 20.3528 50.2149 21.0587 50.2149H23.0587V48.1031C22.3528 48.1031 21.6469 48.2204 20.8234 48.2204C19.9999 48.3377 19.5293 48.3377 19.1764 48.4551C19.0587 48.1031 18.9411 47.7511 18.7058 47.3991C19.5293 47.1645 20.2352 46.6952 20.9411 45.8739C21.6469 45.0527 21.9999 44.3487 22.1175 43.8794H20.1175C19.294 43.8794 18.5881 43.8794 18.1175 43.8794V42.8235C18.7058 42.8235 19.294 42.8235 20.1175 42.8235H26.7058C27.5293 42.8235 28.1175 42.8235 28.8234 42.8235V43.8794C28.2352 43.8794 27.5293 43.8794 26.7058 43.8794H22.5881C22.8234 44.1141 23.1764 44.3487 23.5293 44.5834C23.0587 44.9353 22.5881 45.522 21.9999 45.9913C21.4117 46.5779 21.0587 46.9298 20.7058 47.2818C21.7646 47.2818 22.8234 47.2818 23.6469 47.2818C24.5881 47.2818 25.4116 47.1645 26.2352 47.1645C25.8822 46.8125 25.5293 46.3432 24.9411 45.8739C25.1764 45.6393 25.4116 45.4046 25.7646 45.17C27.4116 46.6952 28.3528 47.6338 28.8234 48.2204Z" fill="white"/>
<path d="M22.941 61.3607V58.3103C22.941 57.6064 22.941 57.0197 22.941 56.4331H24.2351C24.2351 57.0197 24.2351 57.6064 24.2351 58.193V61.3607H27.8822C28.4704 61.3607 29.1763 61.3607 29.9998 61.3607V62.4167C29.1763 62.4167 28.588 62.4167 27.8822 62.4167H24.2351V66.2884C24.2351 66.9923 24.2351 67.9309 24.2351 68.8695H22.941C22.941 67.9309 22.941 66.9923 22.941 66.2884V62.534H19.2939C18.7057 62.534 17.9998 62.534 17.1763 62.534V61.4781C17.9998 61.4781 18.7057 61.4781 19.2939 61.4781H22.941V61.3607Z" fill="white"/>
<path d="M27.5293 71.4507C27.9999 71.4507 28.5881 71.4507 29.0587 71.4507V72.3893C28.5881 72.3893 28.1175 72.3893 27.6469 72.3893H23.5293L23.1763 75.3224H27.5293C27.4116 75.7917 27.4116 76.261 27.4116 76.9649L27.1763 80.954C28.3528 80.954 29.1763 80.954 29.7646 80.954V82.1272C29.294 82.1272 28.4704 82.1272 27.5293 82.1272H19.5293C18.5881 82.1272 17.9999 82.1272 17.4116 82.2445V81.0713C17.9999 81.0713 18.5881 81.0713 19.4116 81.0713H21.1763L21.8822 76.261H20.5881C19.8822 76.261 19.4116 76.261 18.941 76.261V75.3224C19.4116 75.3224 19.8822 75.3224 20.5881 75.3224H22.1175L22.4704 72.3893H19.9999C19.4116 72.3893 18.8234 72.3893 18.3528 72.3893V71.4507C18.8234 71.4507 19.4116 71.4507 19.9999 71.4507H27.5293ZM26.1175 80.954L26.2351 76.1437H22.941L22.3528 80.954H26.1175Z" fill="white"/>
<path d="M28.3528 90.5745C28.3528 92.8037 28.3528 94.7982 28.3528 96.5581H27.0587V95.1502H20.4704V96.7927H19.2939C19.2939 95.1502 19.2939 93.1557 19.2939 90.8092C19.2939 88.58 19.2939 86.4682 19.2939 84.4736H28.3528C28.3528 86.4682 28.3528 88.4627 28.3528 90.5745ZM27.0587 89.5186V85.6469H20.4704V89.5186H27.0587ZM27.0587 94.3289V90.4572H20.4704V94.3289H27.0587Z" fill="white"/>
<path d="M26.5884 102.776H28.5883V105.006C28.4707 105.944 28.0001 106.648 27.1766 107L26.5884 106.531C27.2942 106.179 27.5295 105.592 27.5295 104.888H26.4707V102.776H26.5884Z" fill="white"/>
<path d="M3.41176 1.87719V4.69298C3.88235 4.69298 4.58824 4.69298 5.52941 4.69298V5.63158H4.47059V9.26864C4.58824 8.91667 4.82353 8.56469 5.05882 8.21272C5.29412 8.44737 5.41177 8.68202 5.76471 8.91667C5.52941 9.15132 5.17647 9.50329 4.82353 9.85526C4.47059 10.3246 4.11765 10.6765 3.76471 11.1458L3.05882 10.3246C3.29412 10.0899 3.52941 9.62062 3.41176 9.15132V5.51425H2.58824C2.47059 7.50877 2.23529 8.79934 2.11765 9.38597C2 9.97259 1.76471 10.4419 1.64706 10.9112C1.52941 11.3805 1.17647 11.8498 0.823529 12.4364C0.588235 12.0844 0.235294 11.8498 0 11.6151C0.352941 11.1458 0.588235 10.5592 0.823529 10.0899C1.05882 9.73794 1.17647 9.26864 1.29412 8.79934C1.41176 8.21272 1.52941 7.1568 1.64706 5.51425C1.41176 5.51425 1.05882 5.51425 0.470588 5.51425V4.57566C1.17647 4.69298 1.88235 4.69298 2.47059 4.69298V1.87719C2.47059 0.938597 2.47059 0.351974 2.47059 0H3.52941C3.41176 0.469298 3.41176 1.05592 3.41176 1.87719ZM2.11765 3.75439C1.88235 3.87171 1.52941 3.98904 1.17647 4.22368C0.941177 3.51974 0.588235 2.69847 0.235294 1.87719C0.588235 1.75987 0.823529 1.64254 1.17647 1.40789C1.64706 2.34649 1.88235 3.16776 2.11765 3.75439ZM4.47059 4.22368C4.11765 3.98904 3.88235 3.87171 3.52941 3.87171C3.88235 3.05044 4.23529 2.22917 4.47059 1.40789C4.70588 1.52522 5.05882 1.64254 5.41176 1.75987C5.17647 2.46382 4.82353 3.28509 4.47059 4.22368ZM8.70588 2.11184C9.05882 2.34649 9.41177 2.46382 9.76471 2.58114C9.52941 2.81579 9.29412 3.28509 8.94118 3.75439H10.5882C11.2941 3.75439 11.8824 3.75439 12.4706 3.75439V4.69298C11.8824 4.69298 11.2941 4.69298 10.7059 4.69298H8.58824C8 5.63158 7.41177 6.33553 7.05882 6.80483H8.82353C8.82353 6.10088 8.82353 5.63158 8.82353 5.39693H9.88235C9.88235 5.63158 9.88235 6.10088 9.88235 6.80483H11.1765C11.4118 6.80483 11.7647 6.80483 12.2353 6.80483V7.74342C11.7647 7.74342 11.4118 7.74342 11.2941 7.74342H9.88235V9.38597H11.1765C11.8824 9.38597 12.4706 9.38597 12.9412 9.38597V10.3246C12.4706 10.3246 11.8824 10.3246 11.1765 10.3246H9.88235C9.88235 11.4978 9.88235 12.3191 9.88235 12.9057H8.82353C8.82353 12.4364 8.94118 11.4978 8.94118 10.3246H7.64706C7.05882 10.3246 6.35294 10.3246 5.64706 10.3246V9.26864C6.47059 9.26864 7.05882 9.26864 7.52941 9.26864H8.94118V7.6261C7.88235 7.6261 7.17647 7.6261 7.05882 7.6261C6.82353 7.6261 6.58824 7.74342 6.23529 7.74342L5.76471 6.92215C6 6.6875 6.35294 6.45285 6.70588 5.86623C7.05882 5.27961 7.29412 4.92763 7.52941 4.57566C6.94118 4.57566 6.35294 4.57566 5.76471 4.57566V3.75439C6.70588 3.75439 7.41177 3.75439 8 3.75439C8.23529 3.16776 8.47059 2.58114 8.70588 2.11184ZM12.4706 1.99452C12.4706 2.34649 12.4706 2.58114 12.4706 2.93311H11.5294V1.52522H6.82353V2.93311H5.88235C5.88235 2.69847 5.88235 2.34649 5.88235 1.99452C5.88235 1.64254 5.88235 1.17325 5.88235 0.821272H12.5882C12.5882 1.17325 12.4706 1.64254 12.4706 1.99452Z" fill="white"/>
<path d="M1.17647 21.1185C0.941177 21.0011 0.470588 21.0011 0 20.8838C0.235294 20.1799 0.588235 18.8893 0.705882 17.1294C1.05882 17.2468 1.52941 17.2468 1.88235 17.2468C1.52941 19.124 1.29412 20.4145 1.17647 21.1185ZM3.29412 17.8334C3.88235 17.2468 4.23529 16.7775 4.58824 16.4255C4.82353 16.7775 5.05882 17.0121 5.41176 17.3641C4.94118 17.7161 4.23529 18.3027 3.41176 19.0066C3.29412 20.0625 3.29412 21.0011 3.17647 21.5878C4.11765 22.409 4.94118 23.113 5.52941 23.5823C5.17647 23.9343 4.94118 24.2862 4.58824 24.5209C4.23529 23.9343 3.64706 23.2303 2.94118 22.6437C2.70588 23.465 2.47059 24.1689 2.23529 24.8729C2 25.5768 1.52941 26.1634 1.05882 26.9847C0.705882 26.75 0.352941 26.5154 0 26.2807C0.470588 25.6941 0.823529 24.9902 1.17647 24.2862C1.52941 23.5823 1.76471 22.6437 2 21.7051C2.11765 20.7665 2.23529 19.5932 2.23529 18.42C2.23529 17.2468 2.23529 15.7215 2.11765 14.079C2.58824 14.1963 3.05882 14.1963 3.29412 14.1963C3.29412 14.7829 3.29412 16.0735 3.29412 17.8334ZM10.7059 21.0011C11.1765 21.0011 11.6471 21.0011 12.3529 21.0011V21.9397C11.7647 21.9397 11.1765 21.9397 10.5882 21.9397H9.17647V23.2303C10.4706 23.2303 11.4118 23.2303 12.1176 23.2303V24.1689C11.4118 24.0516 10.4706 24.0516 9.17647 24.0516V25.5768H11.1765C11.7647 25.5768 12.3529 25.5768 12.9412 25.5768V26.5154C12.3529 26.5154 11.7647 26.5154 11.1765 26.5154H6.35294C5.88235 26.5154 5.17647 26.5154 4.47059 26.5154V25.5768C5.17647 25.5768 5.76471 25.5768 6.35294 25.5768H8.11765V24.0516C6.94118 24.0516 6.11765 24.0516 5.52941 24.1689V23.2303C6.11765 23.2303 7.05882 23.2303 8.11765 23.2303V21.9397H7.29412C6.58824 21.9397 5.88235 21.9397 5.17647 21.9397V21.0011C5.88235 21.0011 6.58824 21.0011 7.29412 21.0011H10.7059ZM8.70588 15.4869H12.1176C12.1176 16.1908 12.1176 16.8948 12.1176 17.8334C12.1176 18.6547 12.1176 19.4759 12.1176 20.0625H5.52941C5.52941 19.4759 5.52941 18.6547 5.52941 17.8334C5.52941 16.8948 5.52941 16.1908 5.52941 15.4869H7.52941C7.64706 15.0176 7.76471 14.5483 7.76471 13.9617C8.35294 14.079 8.82353 14.1963 9.05882 14.1963C8.94118 14.5483 8.82353 14.9003 8.70588 15.4869ZM10.9412 17.3641V16.3082H6.58824V17.3641H10.9412ZM10.9412 19.124V18.1854H6.58824V19.124H10.9412Z" fill="white"/>
<path d="M3.29415 34.728V37.8958C3.76473 38.4824 4.47062 38.9517 5.29415 39.3037C6.11768 39.6556 7.41179 39.773 9.1765 39.773C10.9412 39.773 12.2353 39.6556 13.0589 39.5383C12.8236 40.1249 12.7059 40.5942 12.7059 40.9462C11.1765 40.9462 9.88238 40.9462 8.82356 40.9462C7.76474 40.9462 6.94121 40.8289 6.23532 40.7116C5.52944 40.5942 4.94121 40.4769 4.58826 40.2423C4.23532 40.0076 3.76473 39.773 3.41179 39.421C3.05885 39.069 2.58826 39.069 2.23532 39.421C1.88238 39.773 1.52944 40.2423 1.05885 40.7116C0.823558 40.4769 0.470617 40.1249 0.117676 39.8903C0.588264 39.421 1.29415 38.8344 2.11768 38.1304V34.0241C1.64709 34.0241 1.05885 34.0241 0.35297 34.0241V32.9681C1.1765 32.9681 2.11768 32.9681 3.29415 32.9681C3.29415 33.7894 3.29415 34.2587 3.29415 34.728ZM3.88238 30.6217C3.52944 30.8563 3.29415 31.2083 2.94121 31.4429C2.35297 30.5043 1.76473 29.6831 1.1765 28.9791C1.41179 28.7445 1.76473 28.5098 2.11768 28.2752C2.70591 29.0964 3.29415 29.9177 3.88238 30.6217ZM7.64709 28.1578C8.23532 28.1578 8.70591 28.2752 8.94121 28.2752C8.82356 28.7445 8.70591 29.8004 8.70591 31.4429C10.5883 31.4429 11.8824 31.4429 12.4706 31.4429V32.4988C11.8824 32.4988 10.5883 32.4988 8.70591 32.4988C8.58826 33.7894 8.23532 34.8453 7.64709 35.9013C7.05885 36.9572 6.23532 37.8958 5.05885 38.8344C4.94121 38.5997 4.58826 38.2477 4.23532 37.8958C5.1765 37.1918 6.00003 36.4879 6.47062 35.6666C7.05885 34.8453 7.41179 33.7894 7.52944 32.4988C6.00003 32.4988 4.94121 32.4988 4.23532 32.4988V31.4429C4.94121 31.4429 6.11768 31.4429 7.64709 31.4429C7.76474 29.8004 7.64709 28.7445 7.64709 28.1578ZM12.5883 37.7785C12.2353 38.0131 11.8824 38.2478 11.5294 38.5997C10.9412 37.7785 10 36.4879 8.58826 34.9627C8.82356 34.728 9.1765 34.4934 9.41179 34.1414C11.0589 36.0186 12.1177 37.1918 12.5883 37.7785Z" fill="white"/>
<path d="M10.353 53.148C11.2942 53.148 12.1177 53.148 13.0589 53.148V54.204C12.1177 54.204 11.2942 54.204 10.4707 54.204H3.2942C2.35303 54.204 1.41185 54.204 0.353027 54.204V53.148C1.2942 53.148 2.35303 53.148 3.2942 53.148H10.353ZM11.0589 47.1645C11.0589 49.159 11.0589 50.5669 11.0589 51.2709H2.35303C2.35303 50.8016 2.35303 49.511 2.35303 47.3991C2.35303 45.2873 2.35303 43.8794 2.35303 42.8235H11.1766C11.0589 43.7621 11.0589 45.17 11.0589 47.1645ZM9.88244 46.5779V43.8794H3.5295V46.5779H9.88244ZM9.88244 50.3323V47.5165H3.5295V50.3323H9.88244Z" fill="white"/>
<path d="M11.6472 61.9474C11.7649 62.2993 11.7649 62.6513 11.6472 63.0033C11.5296 63.3552 11.4119 63.5899 11.059 63.8245C10.8237 64.0592 10.4708 64.0592 10.1178 64.0592C9.76488 64.0592 9.41194 63.9419 9.17664 63.5899C8.94135 63.3552 8.70605 63.0033 8.70605 62.6513C8.70605 62.2993 8.70605 61.9474 8.94135 61.7127C9.17664 61.4781 9.41194 61.2434 9.76488 61.1261C10.1178 61.0088 10.4708 61.0088 10.9413 61.1261C11.2943 61.3607 11.5296 61.5954 11.6472 61.9474ZM10.8237 63.3552C11.1766 63.1206 11.2943 62.886 11.2943 62.4167C11.2943 61.9474 11.059 61.7127 10.8237 61.5954C10.5884 61.4781 10.2355 61.4781 9.88252 61.5954C9.41194 61.9474 9.29429 62.182 9.29429 62.534C9.29429 62.8859 9.41194 63.1206 9.76488 63.3552C10.1178 63.5899 10.4708 63.5899 10.8237 63.3552Z" fill="white"/>
<path d="M0.941406 74.9705H2.70611V76.7303H12.3532V78.3729H0.941406V74.9705ZM11.7649 77.317H2.11788V75.5571H1.41199V77.7863H11.7649V77.317Z" fill="white"/>
</svg>
