<svg width="47" height="111" viewBox="0 0 47 111" fill="none" xmlns="http://www.w3.org/2000/svg">
<path d="M37.1716 7.23655V9.10406C37.8685 8.17031 38.217 7.35327 38.3332 6.53624C38.6817 6.65296 39.0302 6.76968 39.4948 6.76968C39.0302 8.17031 38.3332 9.45422 37.2877 10.2713C36.3584 11.205 35.1968 11.9053 34.0352 12.3722C33.8029 12.022 33.4544 11.6719 32.9897 11.4384C33.8029 11.205 34.3837 10.9716 34.9645 10.7381C35.4291 10.5047 35.8938 10.2713 36.2423 9.9211V7.23655C36.2423 6.76968 36.2423 6.18608 36.2423 5.7192H37.1716C37.1716 6.3028 37.1716 6.76968 37.1716 7.23655ZM33.3382 5.48576V4.55201C33.5706 4.55201 33.919 4.55201 34.1514 4.55201C34.1514 2.91794 34.1514 1.75075 34.1514 1.28387H35.1968C35.1968 1.75075 35.1968 2.91794 35.1968 4.55201H36.2423V2.10091C36.2423 1.40059 36.2423 0.816995 36.2423 0.233398H37.1716C37.1716 0.816995 37.1716 1.40059 37.1716 2.10091C37.8685 2.10091 38.5655 2.10091 39.1463 2.10091V3.03466C38.5655 3.03466 37.8685 3.03466 37.1716 3.03466V4.66873C38.217 4.66873 38.914 4.66873 39.3786 4.66873V5.60248C38.914 5.60248 38.217 5.60248 37.1716 5.60248H36.2423C34.7322 5.36905 33.6867 5.48576 33.3382 5.48576ZM34.4998 6.18608C34.8483 6.3028 35.1968 6.41952 35.5453 6.53624C34.9645 7.82015 34.616 8.7539 34.3837 9.10406C34.1514 8.87062 33.8029 8.87062 33.4544 8.7539C33.8029 8.28703 34.1514 7.46999 34.4998 6.18608ZM40.6564 10.9716C41.1211 10.5047 41.4695 10.0378 41.7019 9.57094C41.9342 8.98734 42.0504 8.40375 42.0504 7.70343C42.0504 7.00311 42.0504 6.3028 42.0504 5.48576C42.515 5.60248 42.8635 5.60248 43.3281 5.7192C43.212 6.18608 43.212 6.65296 43.0958 7.23655C43.0958 7.70343 42.9796 8.40375 42.8635 9.10406C42.7473 9.80438 42.3988 10.5047 41.9342 11.205C41.4695 11.9053 40.6564 12.4889 39.611 12.9558C39.3786 12.6056 39.0302 12.3722 38.5655 12.022C39.4948 11.6719 40.1918 11.4384 40.6564 10.9716ZM39.3786 1.75075V0.816995C39.9594 0.816995 40.5403 0.816995 41.1211 0.816995H43.9089C44.4897 0.816995 45.0706 0.816995 45.6514 0.816995V1.75075C45.0706 1.75075 44.1413 1.75075 42.8635 1.75075C42.7473 2.33434 42.6312 2.91794 42.515 3.50154H45.3029C45.3029 3.96841 45.3029 4.55201 45.3029 5.13561V7.82015C45.3029 8.28703 45.3029 8.98734 45.3029 9.80438H44.2574V4.31857H40.8887V9.68766H39.8433C39.8433 8.98734 39.8433 8.40375 39.8433 7.82015V5.25233C39.8433 4.55201 39.8433 3.96841 39.8433 3.50154H41.4695C41.5857 2.80122 41.7019 2.21763 41.7019 1.75075C40.7726 1.75075 39.9594 1.75075 39.3786 1.75075ZM42.9796 10.8548C43.212 10.6214 43.4443 10.388 43.5605 10.0378C44.6059 10.8549 45.419 11.4384 45.9998 11.9053C45.6514 12.1388 45.419 12.4889 45.1867 12.8391C44.8382 12.2555 44.0251 11.6719 42.9796 10.8548Z" fill="white"/>
<path d="M44.0254 22.9937C44.3739 23.2272 44.6063 23.5773 44.9547 23.8108C44.7224 24.0442 44.3739 24.2776 44.1416 24.6278C43.9093 24.3944 43.5608 24.1609 43.3285 23.9275C42.8638 24.0442 41.8184 24.0442 40.1921 24.1609V25.6783C40.1921 26.1451 40.076 26.4953 39.7275 26.612C39.379 26.7287 38.9143 26.8455 38.3335 26.9622C38.2174 26.612 38.1012 26.2619 37.985 26.0284C38.5658 26.0284 38.9143 26.0284 39.0305 26.0284C39.1467 26.0284 39.2628 25.795 39.2628 25.4448V24.2776C38.5658 24.2776 37.8689 24.3944 37.1719 24.3944C36.4749 24.5111 35.6618 24.5111 34.7325 24.6278C34.7325 24.1609 34.6164 23.8108 34.5002 23.5773C35.1972 23.5773 35.778 23.4606 36.4749 23.3439C37.0557 23.2272 37.8689 22.877 38.682 22.5269C38.2174 22.5269 37.5204 22.5269 36.9396 22.5269C36.2426 22.5269 35.778 22.6436 35.4295 22.6436C35.3133 22.4101 35.1972 22.06 35.081 21.7098C35.5456 21.7098 36.0103 21.5931 36.3588 21.4764C36.5911 21.2429 37.1719 20.8928 37.7527 20.4259H34.6164C34.7325 20.0757 34.8487 19.4922 34.8487 18.7918C34.5002 18.7918 34.0355 18.7918 33.8032 18.7918V17.9748C34.1517 17.9748 34.5002 17.9748 34.9648 17.9748C34.9648 17.7414 34.9648 17.1578 35.081 16.4575C34.8487 16.8076 34.6164 17.041 34.5002 17.1578C34.1517 16.9243 33.9194 16.8076 33.8032 16.5742C34.1517 16.224 34.384 15.7571 34.7325 15.2903C34.9648 14.8234 35.1972 14.3565 35.3133 14.0063L36.2426 14.4732C36.1265 14.5899 36.0103 14.7067 35.8941 14.9401H38.4497C38.9143 14.9401 39.6113 14.9401 40.3083 14.9401V15.8739C39.6113 15.8739 38.9143 15.8739 38.4497 15.8739H35.6618C35.4295 16.1073 35.3133 16.3407 35.1972 16.5742H39.4951L39.379 18.0915C39.6113 18.0915 39.9598 18.0915 40.1921 18.0915V18.9086C39.9598 18.9086 39.6113 18.9086 39.379 18.9086V19.8423H39.9598V20.5426H39.2628V20.8928H38.3335V20.5426H37.4042C37.6366 20.7761 37.985 21.0095 38.3335 21.2429C37.8689 21.4764 37.1719 21.7098 36.5911 22.06H39.4951C40.3083 21.8265 40.8891 21.4764 41.3537 21.1262C41.8184 21.4764 42.1669 21.8265 42.283 21.9433C42.0507 21.9433 41.5861 22.1767 41.0052 22.5269C40.4244 22.877 39.1467 23.3439 37.6366 23.9275C39.0305 23.9275 40.7729 23.8108 42.7477 23.5773C42.5153 23.3439 42.1669 23.2272 41.8184 22.9937C42.0507 22.7603 42.3992 22.5269 42.6315 22.2934C43.2123 22.2934 43.677 22.6436 44.0254 22.9937ZM36.2426 25.795C35.778 26.0284 35.1972 26.3786 34.5002 26.7287C34.2679 26.3786 34.0355 26.1452 33.8032 25.9117C34.2679 25.795 34.7325 25.5616 35.1972 25.3281C35.6618 25.0947 36.1265 24.7445 36.5911 24.3944C36.8234 24.6278 37.0557 24.8612 37.5204 25.0947C37.1719 25.3281 36.7073 25.5616 36.2426 25.795ZM36.5911 19.7256C36.4749 19.3754 36.3588 19.0253 36.3588 18.7918H35.4295L35.3133 19.7256H36.5911ZM36.7073 18.0915C36.5911 17.7414 36.4749 17.5079 36.4749 17.1578H35.5456V18.0915H36.7073ZM36.7073 19.7256H38.4497V18.7918H37.0557C37.0557 19.0253 37.1719 19.2587 37.2881 19.4922C37.0557 19.4922 36.9396 19.6089 36.7073 19.7256ZM36.8234 18.0915H38.5658V17.1578H37.1719C37.1719 17.2745 37.2881 17.5079 37.5204 17.8581C37.2881 17.9748 37.0557 18.0915 36.8234 18.0915ZM39.6113 17.5079C40.0759 17.041 40.5406 16.5742 40.7729 15.9906C41.0052 15.407 41.2376 14.9401 41.3537 14.3565C41.8184 14.5899 42.1669 14.7067 42.5153 14.7067C42.283 15.0568 42.1669 15.2903 41.9345 15.6404H43.7931C44.1416 15.6404 44.6063 15.6404 45.1871 15.6404V16.3407C44.8386 16.3407 44.4901 16.3407 44.2578 16.3407C44.0254 17.041 43.9093 17.6246 43.677 18.0915C43.4446 18.5584 43.2123 19.0253 42.98 19.4922C43.2123 19.6089 43.4446 19.8423 43.7931 19.959C44.1416 20.0757 44.6063 20.1925 45.1871 20.3092C44.9547 20.5426 44.7224 20.8928 44.6063 21.2429C44.1416 21.0095 43.677 20.8928 43.3285 20.6593C42.98 20.4259 42.6315 20.3092 42.283 20.0757C41.8184 20.4259 41.1214 20.7761 40.3083 21.2429C40.076 21.0095 39.9598 20.6593 39.7275 20.4259C40.6568 20.0757 41.2376 19.7256 41.7022 19.3754C41.2376 18.6751 40.8891 18.0915 40.6568 17.6246C40.5406 17.8581 40.4244 17.9748 40.3083 18.2082C40.1921 17.7414 39.9598 17.6246 39.6113 17.5079ZM43.3285 25.0947C43.7931 25.3281 44.3739 25.5616 44.8386 25.795C44.6063 26.0284 44.4901 26.3786 44.2578 26.7287C43.7931 26.3786 43.3285 26.1451 42.7477 26.0284C42.283 25.795 41.7022 25.5616 41.1214 25.4448C41.3537 25.2114 41.5861 24.978 41.7022 24.6278C42.283 24.7445 42.8638 24.8612 43.3285 25.0947ZM41.3537 16.8076C41.8184 17.6246 42.1669 18.2082 42.5153 18.6751C42.98 17.8581 43.3285 17.041 43.4446 16.224H41.7022C41.5861 16.4575 41.4699 16.6909 41.3537 16.8076Z" fill="white"/>
<path d="M35.6615 30.8139V33.0316H38.914V29.7634C38.914 29.2966 38.914 28.713 38.914 28.2461H40.0757C40.0757 28.713 40.0757 29.1798 40.0757 29.7634V33.0316H43.3282V31.0474C43.3282 30.4638 43.3282 29.9969 43.3282 29.6467H44.4898C44.4898 29.9969 44.4898 30.4638 44.4898 31.1641V32.6814C44.4898 33.265 44.4898 33.7319 44.4898 34.0821H40.0757V39.101H43.7928V36.7666C43.7928 36.183 43.7928 35.7161 43.7928 35.366H44.9544C44.9544 35.7161 44.9544 36.183 44.9544 36.7666V39.2177C44.9544 39.918 44.9544 40.5016 44.9544 40.9685H43.909V40.0347H34.2676C34.2676 39.5679 34.2676 39.101 34.2676 38.4007V36.7666C34.2676 36.183 34.2676 35.5994 34.2676 35.2492H35.4292C35.4292 35.5994 35.4292 36.0663 35.4292 36.7666V39.101H39.2625V34.0821H34.9645C34.9645 33.7319 34.9645 33.265 34.9645 32.6814V30.9306C34.9645 30.4638 34.9645 29.9969 34.9645 29.53H36.1262C35.6615 29.9969 35.6615 30.347 35.6615 30.8139Z" fill="white"/>
<path d="M36.5908 43.0695C36.9393 43.0695 37.5201 43.0695 38.1009 43.0695V44.1199C37.5201 44.1199 36.9393 44.1199 36.2423 44.1199V47.1546C36.707 47.1546 37.2878 47.1546 37.8686 47.1546V48.2051C37.2878 48.2051 36.707 48.2051 36.2423 48.2051V51.59C36.8231 51.4732 37.5201 51.2398 38.1009 51.0064C38.1009 51.3565 38.1009 51.7067 38.1009 52.0568C36.9393 52.407 35.8938 52.6404 35.1969 52.8739C34.4999 53.1073 33.9191 53.3408 33.5706 53.5742C33.4544 53.1073 33.3383 52.6404 33.106 52.2903C33.6868 52.1736 34.3837 52.0568 35.1969 51.9401V48.3218C34.6161 48.3218 34.0352 48.3218 33.4544 48.3218V47.2713C34.0352 47.2713 34.6161 47.2713 35.1969 47.2713V44.2367C34.4999 44.2367 33.9191 44.2367 33.4544 44.2367V43.1862C33.9191 43.1862 34.2676 43.1862 34.7322 43.1862H36.5908V43.0695ZM42.3989 46.6878C42.3989 47.6215 42.2827 48.4385 42.0504 49.489H43.0959C43.0959 49.8392 43.0959 50.3061 43.0959 51.0064V52.7572C43.0959 53.3408 43.212 53.5742 43.4443 53.6909C43.6767 53.6909 43.909 53.6909 44.1413 53.6909C44.3736 53.6909 44.606 53.5742 44.7221 53.3408C44.8383 53.1073 44.9544 52.6404 44.9544 52.0568C45.3029 52.2903 45.7676 52.407 46.1161 52.5237C45.8837 53.3408 45.7676 53.8076 45.5353 54.0411C45.3029 54.2745 44.9544 54.5079 44.3736 54.5079H43.3282C42.515 54.5079 42.1666 54.1578 42.1666 53.4575V49.6057C41.8181 50.7729 41.3534 51.7067 40.7726 52.5237C40.1918 53.3408 39.2625 54.0411 37.9847 54.7414C37.7524 54.3912 37.5201 54.1578 37.0555 53.9243C38.2171 53.4575 39.0302 52.8739 39.611 52.407C40.1918 51.8234 40.5403 51.1231 40.8888 50.1893C41.2373 49.2556 41.3534 48.4385 41.4696 47.5048C41.4696 46.571 41.5858 45.6373 41.4696 44.7035C41.9342 44.8202 42.3989 44.8202 42.7474 44.8202C42.515 45.1704 42.3989 45.754 42.3989 46.6878ZM44.9544 44.2367V47.8549C44.9544 48.5553 44.9544 49.1389 44.9544 49.6057H43.909V43.3029H39.7272V49.7225H38.6817C38.6817 49.1389 38.6817 48.4385 38.6817 47.6215V44.5868C38.6817 43.7698 38.6817 43.0695 38.6817 42.3691H44.8383C45.0706 43.0695 44.9544 43.6531 44.9544 44.2367Z" fill="white"/>
<path d="M37.7523 58.4764C37.8685 58.0095 37.9846 57.5426 38.1008 57.1924C38.217 56.8423 38.3331 56.4921 38.3331 56.142C38.7978 56.2587 39.2624 56.3754 39.7271 56.4921C39.4947 56.8423 39.3786 57.1924 39.3786 57.3092C39.2624 57.5426 39.1463 57.8928 39.0301 58.4764H43.4442C44.2574 58.4764 44.8382 58.4764 45.5352 58.4764V59.5268C44.9543 59.5268 44.2574 59.5268 43.4442 59.5268H38.6816C38.4493 59.9937 38.217 60.5773 37.8685 61.2776C37.52 61.8612 37.0554 62.5615 36.5907 63.2618V67.1136C36.5907 67.8139 36.5907 68.5142 36.5907 69.2145H35.4291C35.4291 68.5142 35.4291 67.8139 35.4291 67.1136V64.3123C34.8483 64.8959 34.2675 65.3628 33.8028 65.7129C33.5705 65.3628 33.222 65.1293 32.8735 64.8959C33.3382 64.6625 33.8028 64.3123 34.1513 63.9622C34.616 63.612 34.9644 63.1451 35.3129 62.6782C35.3129 62.3281 35.3129 61.9779 35.3129 61.7445H36.2422C36.4745 61.5111 36.7069 61.1609 36.9392 60.8107C37.1715 60.4606 37.2877 60.1104 37.4038 59.7603H36.1261C35.1968 59.7603 34.4998 59.7603 33.8028 59.7603V58.3596C34.4998 58.3596 35.1968 58.3596 36.1261 58.3596H37.7523V58.4764ZM40.5402 62.6782V61.8612C40.5402 61.1609 40.5402 60.5773 40.5402 60.1104H41.7018C41.7018 60.5773 41.7018 61.1609 41.7018 61.8612V62.6782H42.9796C43.6766 62.6782 44.2574 62.6782 44.722 62.6782V63.7287C44.1412 63.7287 43.5604 63.7287 42.9796 63.7287H41.7018V67.347H43.7927C44.4897 67.347 45.0705 67.347 45.6513 67.347V68.2808C45.0705 68.2808 44.4897 68.2808 43.7927 68.2808H39.3786C38.4493 68.2808 37.6362 68.2808 37.1715 68.2808V67.347C37.7523 67.347 38.4493 67.347 39.3786 67.347H40.6564V63.7287H39.4947C38.7978 63.7287 38.217 63.7287 37.6362 63.7287V62.6782C38.217 62.6782 38.9139 62.6782 39.4947 62.6782H40.5402Z" fill="white"/>
<path d="M45.0709 73.5331V79.3691C45.0709 80.5363 45.0709 81.5867 45.0709 82.7539H44.0255V81.9369H34.9649V82.7539H33.9194C33.9194 81.5867 33.9194 80.4195 33.9194 79.2524V73.5331C33.9194 72.4826 33.9194 71.4322 33.9194 70.4984H45.1871C45.071 71.3154 45.0709 72.3659 45.0709 73.5331ZM44.0255 81.1199V71.1987H34.9649V81.0031H44.0255V81.1199ZM41.2376 72.7161C41.8184 72.7161 42.3992 72.7161 42.98 72.7161V73.6498C42.3992 73.6498 41.8184 73.6498 41.2376 73.6498H39.8437V75.4006H40.773C41.4699 75.4006 42.0507 75.4006 42.6316 75.4006V76.3344C42.0507 76.3344 41.4699 76.3344 40.773 76.3344H39.8437V78.7855H41.3538C42.0507 78.7855 42.6316 78.7855 43.2124 78.7855V79.7192C42.6316 79.7192 42.0507 79.7192 41.3538 79.7192H37.6366C37.0558 79.7192 36.3588 79.7192 35.778 79.7192V78.7855C36.3588 78.7855 37.0558 78.7855 37.6366 78.7855H38.7982V76.3344H37.9851C37.4043 76.3344 36.8235 76.3344 36.2427 76.3344V75.4006C36.8235 75.4006 37.4043 75.4006 37.9851 75.4006H38.7982V73.5331H37.9851C37.2881 73.5331 36.7073 73.5331 36.1265 73.5331V72.5994C36.7073 72.5994 37.4043 72.5994 37.9851 72.5994H41.2376V72.7161ZM42.3992 77.8517C42.0507 78.0852 41.7023 78.3186 41.4699 78.4353C41.3538 78.3186 41.0053 77.8517 40.5406 77.2681C40.773 77.0347 41.1215 76.8012 41.3538 76.6845C41.5861 76.8012 41.9346 77.2681 42.3992 77.8517Z" fill="white"/>
<path d="M38.1013 90.4574C38.6821 89.6403 38.9144 88.7066 38.9144 87.4227H35.1972V96.7602H33.9194C34.0356 96.0599 34.0356 95.3596 34.0356 94.8927V88.8233C34.0356 88.123 34.0356 87.3059 34.0356 86.4889H39.0305C39.0305 85.5552 39.0305 84.7381 39.0305 84.2712C39.6114 84.2712 40.076 84.2712 40.4245 84.2712C40.1922 84.7381 40.1922 85.4384 40.1922 86.3722H45.3033C45.1871 87.1892 45.1871 87.8895 45.1871 88.7066V95.3596C45.1871 95.9432 44.9548 96.2933 44.4901 96.41C44.0255 96.5268 43.4447 96.6435 42.7477 96.7602C42.6316 96.41 42.3992 95.9432 41.9346 95.593C42.8639 95.593 43.3285 95.593 43.677 95.4763C44.0255 95.3596 44.0255 95.2429 44.0255 95.0094V87.4227H40.076C40.076 88.123 40.076 88.7066 39.9598 89.2902C40.3083 89.5236 40.8891 89.9905 41.7023 90.5741C42.5154 91.1577 43.0962 91.7413 43.4447 92.0914C43.0962 92.4416 42.7477 92.675 42.5154 93.0252C41.9346 92.3249 40.8891 91.3911 39.6114 90.3406C38.9144 91.5078 38.1013 92.5583 37.0558 93.4921C36.5911 93.1419 36.2427 92.9085 35.778 92.7917C36.7073 91.9747 37.5204 91.2744 38.1013 90.4574Z" fill="white"/>
<path d="M43.6767 99.9117C43.3282 100.495 42.8635 101.079 42.3989 101.663C41.9342 102.246 41.3534 102.83 40.5403 103.53C41.1211 103.88 41.8181 104.23 42.8635 104.464C43.909 104.697 44.8383 104.814 45.6514 104.931C45.3029 105.398 45.0706 105.748 45.0706 106.098C44.0251 105.864 42.9797 105.631 42.0504 105.281C41.1211 104.931 40.308 104.581 39.611 104.114C38.7979 104.581 37.8686 105.047 36.8231 105.398C35.7777 105.748 34.7322 106.098 33.6868 106.331C33.5706 106.098 33.3383 105.748 33.106 105.398C34.0353 105.281 34.9645 105.047 36.1262 104.581C37.2878 104.23 38.2171 103.763 38.914 103.413C38.3332 102.83 37.6363 102.013 37.0555 100.845C36.8231 101.312 36.4746 101.779 36.1262 102.129C35.7777 102.48 35.5454 102.946 35.1969 103.18C34.9645 102.946 34.6161 102.713 34.2676 102.48C34.7322 102.013 35.313 101.429 35.8938 100.612C36.4746 99.795 36.9393 98.8613 37.1716 97.8108C37.5201 98.0442 37.9847 98.1609 38.3332 98.2777C38.1009 98.5111 37.8686 98.8613 37.5201 99.5616H43.6767V99.9117ZM43.3282 105.981C43.3282 106.798 43.3282 107.732 43.3282 108.782C43.3282 109.833 43.3282 110.533 43.3282 110.883H42.2827V110.066H37.0555V111H36.01C36.01 110.533 36.01 109.716 36.01 108.782C36.01 107.849 36.01 106.915 36.01 105.981H43.3282ZM42.2827 109.249V106.915H37.0555V109.249H42.2827ZM41.9342 100.845H37.9847C38.6817 101.896 39.2625 102.713 39.7272 103.063C40.5403 102.48 41.2373 101.663 41.9342 100.845Z" fill="white"/>
<path d="M16.6112 4.43533C17.192 4.43533 17.7728 4.43533 18.4698 4.43533H18.9345V2.10095C18.586 2.21767 17.889 2.33438 17.0759 2.56782C16.9597 2.21767 16.7274 1.86751 16.6112 1.63407C17.4244 1.63407 18.2375 1.51735 18.9345 1.28391C19.6314 1.05047 20.3284 0.817035 21.0254 0.466877C21.2577 0.817035 21.49 1.05047 21.8385 1.51735C21.49 1.51735 21.1415 1.63407 20.9092 1.63407C20.6769 1.75079 20.3284 1.75079 19.9799 1.86751V4.55205C20.4446 4.55205 21.0254 4.55205 21.7223 4.55205V5.4858C21.0254 5.4858 20.4446 5.4858 19.9799 5.4858V11.205C19.9799 11.6719 19.9799 12.3722 19.9799 13.0726H18.8183C18.8183 12.2555 18.8183 11.6719 18.8183 11.205V7.47003C18.586 8.17035 18.3537 8.75394 18.1213 9.22082C17.889 9.6877 17.5405 10.1546 17.192 10.8549C16.9597 10.5047 16.6112 10.0379 16.3789 9.80442C16.8436 9.22082 17.3082 8.63722 17.7728 7.93691C18.1213 7.00315 18.4698 6.18612 18.586 5.36909H17.7728C17.3082 5.36909 16.8436 5.36909 16.4951 5.36909V4.43533H16.6112ZM21.3739 6.88644C21.6062 7.11987 21.7223 7.47003 21.9547 7.93691C21.6062 8.05363 21.3739 8.28707 21.0254 8.5205C20.9092 8.17035 20.793 7.82019 20.6769 7.47003C20.5607 7.11987 20.3284 7.00315 20.0961 6.653C20.3284 6.53628 20.5607 6.30284 21.0254 6.0694C21.0254 6.41956 21.2577 6.653 21.3739 6.88644ZM24.9749 0H26.1365C26.1365 0.350158 26.1365 1.28391 26.1365 2.80126H28.9244C28.9244 3.15142 28.9244 3.73502 28.9244 4.43533V8.17035C28.9244 8.5205 28.9244 8.98738 28.9244 9.57098H27.8789V8.40379H26.1365V10.7382C26.1365 11.6719 26.1365 12.489 26.1365 13.0726H24.9749C24.9749 12.489 24.9749 11.6719 24.9749 10.7382V8.40379H23.2324V9.6877H22.187C22.187 9.22082 22.187 8.75394 22.187 8.17035V4.55205C22.187 3.73502 22.187 3.15142 22.187 2.80126H24.9749C24.9749 1.40063 24.9749 0.466877 24.9749 0ZM24.9749 7.58675V3.6183H23.2324V7.47003H24.9749V7.58675ZM27.7627 7.58675V3.6183H26.0203V7.47003H27.7627V7.58675Z" fill="white"/>
<path d="M22.0708 18.0915C22.0708 16.8076 22.0708 15.9905 22.0708 15.5237C22.0708 15.0568 22.0708 14.7066 21.9547 14.2397C22.4193 14.3565 22.884 14.3565 23.4648 14.3565C23.3486 14.7066 23.2324 15.2902 23.2324 15.9905C23.2324 16.6909 23.1163 17.3912 23.1163 18.0915H25.9042C26.8335 18.0915 27.7627 18.0915 28.5759 17.9748V19.142C27.8789 19.142 27.0658 19.142 26.3688 19.142H23.2324C23.3486 19.7256 23.5809 20.4259 24.0456 21.0095C24.3941 21.5931 24.7425 22.1767 25.2072 22.7603C25.6718 23.3438 26.1365 23.8107 26.8335 24.2776C27.5304 24.7445 28.2274 25.3281 29.0405 25.6782C28.8082 25.9117 28.4597 26.2618 28.1112 26.7287C27.4143 26.3785 26.8335 25.9117 26.1365 25.3281C25.4395 24.7445 24.8587 24.0442 24.2779 23.1104C23.6971 22.1767 23.1163 21.3596 22.884 20.6593C22.6516 21.4763 22.3031 22.1767 21.9547 22.6435C21.6062 23.2271 21.2577 23.694 20.9092 24.0442C20.5607 24.3943 19.9799 24.9779 19.3991 25.3281C18.8183 25.6782 18.1213 26.2618 17.3082 26.612C17.0759 26.1451 16.7274 25.795 16.3789 25.4448C17.192 25.2114 17.889 24.8612 18.586 24.3943C19.2829 23.9274 19.9799 23.3438 20.4446 22.7603C20.9092 22.1767 21.2577 21.4763 21.6062 20.8927C21.9547 20.3091 22.0708 19.6088 22.187 19.0252H19.1668C18.2375 19.0252 17.6567 19.0252 17.0759 19.0252V17.858C17.5405 17.858 18.2375 17.9748 19.1668 17.9748H22.0708V18.0915Z" fill="white"/>
<path d="M21.4901 35.8328C21.4901 35.0158 21.4901 34.3155 21.4901 33.8486V33.1483H19.7476C19.6315 34.082 19.283 34.7824 18.8184 35.3659C18.3537 35.9495 17.8891 36.2997 17.4244 36.6499C17.1921 36.2997 16.9598 35.9495 16.4951 35.5994C17.1921 35.3659 17.6567 35.0158 18.0052 34.5489C18.3537 34.082 18.4699 33.6152 18.586 33.1483C17.8891 33.1483 17.1921 33.1483 16.4951 33.1483V32.0978C17.3082 32.0978 18.0052 32.0978 18.7022 32.0978C18.7022 31.2808 18.7022 30.5805 18.7022 29.7634C18.2375 29.7634 17.6567 29.7634 17.0759 29.7634V28.8297C17.5406 28.8297 18.2375 28.8297 18.8184 28.8297H22.0709C22.4194 28.8297 23.0002 28.8297 23.4648 28.8297V29.7634C23.0002 29.7634 22.6517 29.7634 22.3032 29.7634V32.0978C22.7678 32.0978 23.2325 32.0978 23.8133 32.0978V33.1483C23.2325 33.1483 22.7678 33.1483 22.3032 33.1483V33.8486C22.3032 34.5489 22.3032 35.1325 22.3032 35.8328H21.4901ZM22.3032 37.1167C22.3032 36.8833 22.3032 36.4164 22.3032 35.9495H23.4648C23.4648 36.4164 23.4648 36.8833 23.4648 37.1167H25.788C26.485 37.1167 27.182 37.1167 27.7628 37.1167V38.1672C27.0658 38.1672 26.3689 38.1672 25.788 38.1672H23.4648V39.918H27.4143C27.9951 39.918 28.5759 39.918 29.1567 39.918V40.8518C28.5759 40.8518 27.9951 40.8518 27.4143 40.8518H18.586C17.8891 40.8518 17.3082 40.8518 16.7274 40.8518V39.8013C17.3082 39.8013 17.8891 39.8013 18.586 39.8013H22.4194V38.0505H20.3285C19.5153 38.0505 18.8183 38.0505 18.0052 38.0505L18.1214 37C18.8184 37 19.5153 37 20.2123 37H22.3032V37.1167ZM21.6062 32.2145V29.8801H19.8638C19.8638 30.9306 19.8638 31.7477 19.8638 32.2145H21.6062ZM25.788 31.0473V32.6814C25.788 33.265 25.788 33.8486 25.788 34.4322H24.7426C24.7426 33.8486 24.7426 33.265 24.7426 32.6814V30.9306C24.7426 30.2303 24.7426 29.6467 24.7426 29.1798H25.788C25.788 29.7634 25.788 30.347 25.788 31.0473ZM28.3436 30.2303V34.4322C28.3436 35.1325 28.2274 35.5994 27.9951 35.8328C27.7628 36.0663 27.2981 36.2997 26.485 36.4164C26.3689 36.0663 26.2527 35.5994 26.0204 35.1325C26.7173 35.1325 27.182 35.1325 27.2981 35.0158C27.4143 34.8991 27.4143 34.6656 27.4143 34.1988V30.2303C27.4143 29.53 27.4143 28.9464 27.4143 28.3628H28.4598C28.3436 28.9464 28.3436 29.6467 28.3436 30.2303Z" fill="white"/>
<path d="M24.2778 44.0031H26.1364C26.7172 44.0031 27.5303 44.0031 28.4596 44.0031V44.9369C27.5303 44.9369 26.7172 44.9369 26.0202 44.9369H18.9344C18.9344 47.0378 18.9344 48.6719 18.8182 49.7224C18.702 50.7729 18.5859 51.7066 18.3536 52.5237C18.1212 53.3407 17.6566 54.1577 17.0758 54.9748C16.8435 54.6246 16.495 54.3912 16.1465 54.1577C16.8435 53.224 17.3081 52.1735 17.5404 51.123C17.7727 50.0725 17.8889 49.0221 17.8889 47.9716C17.8889 46.9211 17.8889 45.6372 17.8889 44.0031H23C22.7677 43.3028 22.5354 42.836 22.3031 42.4858C22.6515 42.3691 23 42.2524 23.3485 42.0189C23.8132 42.7192 24.1616 43.4196 24.2778 44.0031ZM21.4899 52.0568C22.3031 51.123 22.8839 50.0725 23.1162 48.7886H21.6061C20.9091 48.7886 20.2121 48.7886 19.6313 48.7886V47.8549C20.3283 47.8549 20.9091 47.8549 21.6061 47.8549H23.2323C23.2323 46.9211 23.2323 46.1041 23.2323 45.4038C23.697 45.4038 24.0455 45.4038 24.5101 45.4038C24.394 45.9874 24.394 46.8044 24.394 47.7382H26.8334C27.298 47.7382 27.8788 47.7382 28.5758 47.7382V48.6719C27.8788 48.6719 27.4142 48.6719 26.9495 48.6719H24.8586C25.4394 50.306 26.2525 51.5899 27.0657 52.2902C27.8788 53.1072 28.6919 53.5741 29.5051 53.8076C29.1566 54.041 28.8081 54.3912 28.5758 54.858C27.298 54.1577 26.3687 53.3407 25.5556 52.4069C24.8586 51.4732 24.394 50.5394 24.1616 49.6057C23.8132 50.6561 23.3485 51.7066 22.7677 52.4069C22.1869 53.224 21.2576 54.041 19.9798 54.9748C19.6313 54.5079 19.2828 54.2744 19.0505 54.1577C19.7475 53.6908 20.6768 52.9905 21.4899 52.0568Z" fill="white"/>
<path d="M27.4144 58.2429C27.4144 58.7098 27.4144 59.2934 27.4144 59.9937V64.1956C28.2275 64.1956 28.8083 64.1956 29.1568 64.1956V65.246C28.6921 65.246 27.9952 65.246 27.182 65.246H18.0053C17.4245 65.246 16.9598 65.246 16.6113 65.246V64.1956C16.9598 64.1956 17.5406 64.1956 18.1214 64.1956V60.1104C18.1214 59.2934 18.1214 58.7098 18.1214 58.2429H20.9093C20.9093 57.3091 20.9093 56.6088 20.9093 56.2587H22.0709C22.0709 56.6088 21.9548 57.1924 21.9548 58.2429H23.6972C23.6972 57.3091 23.6972 56.6088 23.6972 56.2587H24.8588C24.8588 56.6088 24.7426 57.3091 24.7426 58.2429H27.4144ZM17.8891 68.9811C17.6568 68.6309 17.3083 68.3975 16.9598 68.0473C17.8891 67.6972 18.5861 67.347 19.1669 66.9968C19.7477 66.6467 20.3285 66.1798 20.7931 65.7129C21.1416 66.0631 21.4901 66.2965 21.8386 66.6467C19.98 67.8139 18.5861 68.5142 17.8891 68.9811ZM20.9093 61.0442V59.1766H19.1669V61.0442H20.9093ZM20.9093 64.1956V61.9779H19.1669V64.1956H20.9093ZM23.6972 61.0442V59.1766H21.9548V61.0442H23.6972ZM23.6972 64.1956V61.9779H21.9548V64.1956H23.6972ZM23.9295 66.53L24.7426 65.5962C25.2073 65.8296 25.7881 66.1798 26.6012 66.53C27.4144 66.8801 28.1113 67.347 28.6921 67.6972C28.4598 67.9306 28.1113 68.2807 27.7628 68.6309C27.2982 68.2807 26.0204 67.4637 23.9295 66.53ZM26.2527 61.0442V59.1766H24.6265V61.0442H26.2527ZM26.2527 64.1956V61.9779H24.6265V64.1956H26.2527Z" fill="white"/>
<path d="M19.1668 75.5173C18.9345 75.8675 18.7021 76.1009 18.586 76.4511C18.2375 76.1009 17.5405 75.634 16.3789 74.817C16.6112 74.5835 16.7274 74.3501 16.9597 74C18.0052 74.7003 18.8183 75.2839 19.1668 75.5173ZM18.7021 80.3028C18.4698 80.6529 18.2375 81.1198 18.0052 81.47C17.7728 81.8201 17.5405 82.287 17.3082 82.7539C17.0759 82.4037 16.7274 82.1703 16.3789 81.9369C16.8436 81.3533 17.3082 80.7697 17.7728 79.9526C18.2375 79.1356 18.586 78.4353 18.8183 77.8517C19.0506 78.2018 19.3991 78.4353 19.6314 78.6687C19.2829 79.369 18.9345 79.9526 18.7021 80.3028ZM19.6314 72.0157C19.3991 72.2492 19.1668 72.4826 19.0506 72.9495C18.0052 72.1324 17.3082 71.6656 16.8436 71.4321C17.0759 71.082 17.3082 70.8485 17.4244 70.6151C18.4698 71.1987 19.1668 71.6656 19.6314 72.0157ZM22.4193 81.9369C21.8385 82.4037 21.2577 82.7539 20.5607 83.104C20.3284 82.7539 20.0961 82.5205 19.8638 82.287C20.3284 82.0536 20.9092 81.8201 21.3739 81.47C21.8385 81.1198 22.3031 80.7697 22.7678 80.3028C23.0001 80.5362 23.3486 80.7697 23.6971 81.0031C23.3486 81.2365 23.0001 81.47 22.4193 81.9369ZM25.091 71.7823H29.0405C29.0405 72.2492 29.0405 72.5993 29.0405 72.9495C29.0405 73.2996 29.0405 73.6498 29.0405 74.1167H27.9951V72.4826H21.0254V74H19.9799C19.9799 73.5331 19.9799 73.1829 19.9799 72.8328C19.9799 72.4826 19.9799 72.1324 19.9799 71.7823H23.9294C23.8133 71.3154 23.5809 70.8485 23.1163 70.3817C23.4648 70.2649 23.8132 70.1482 24.1617 70.0315C24.6264 70.7318 24.8587 71.3154 25.091 71.7823ZM25.5557 73.7665C26.0203 73.7665 26.6011 73.7665 27.2981 73.7665V74.7003C26.7173 74.7003 26.1365 74.7003 25.5557 74.7003H24.8587V75.8675H28.1112C28.1112 76.3343 28.1112 76.8012 28.1112 77.3848V79.0189C28.1112 79.4857 28.1112 79.9526 28.1112 80.4195H26.1365C26.485 80.6529 26.9496 80.8864 27.5304 81.2365C28.1112 81.5867 28.5759 81.9369 29.1567 82.287C28.9244 82.5205 28.692 82.8706 28.4597 83.2208C27.8789 82.7539 27.4143 82.4037 26.8335 82.0536C26.2526 81.7034 25.9042 81.3533 25.4395 81.1198C25.6718 80.8864 25.9042 80.5362 26.0203 80.4195H20.793C20.793 79.9526 20.793 79.4857 20.793 79.0189V77.3848C20.793 76.8012 20.793 76.3343 20.793 75.8675H23.9294V74.7003H23.3486C22.884 74.7003 22.3031 74.7003 21.6062 74.7003V73.7665C22.3031 73.7665 22.7678 73.7665 23.2324 73.7665H25.5557ZM23.9294 77.5015V76.4511H21.7223V77.5015H23.9294ZM23.9294 79.4858V78.4353H21.7223V79.4858H23.9294ZM27.1819 77.5015V76.4511H24.9749V77.5015H27.1819ZM27.1819 79.4858V78.4353H24.9749V79.4858H27.1819Z" fill="white"/>
<path d="M18.9344 86.8391V89.0567H22.1869V85.7886C22.1869 85.3217 22.1869 84.7381 22.1869 84.2712H23.3486C23.3486 84.7381 23.3486 85.205 23.3486 85.7886V89.0567H26.6011V87.0725C26.6011 86.4889 26.6011 86.022 26.6011 85.6719H27.7627C27.7627 86.022 27.7627 86.4889 27.7627 87.1892V88.7066C27.7627 89.2902 27.7627 89.757 27.7627 90.1072H23.2324V95.1261H26.9496V92.7917C26.9496 92.2082 26.9496 91.7413 26.9496 91.3911H28.1112C28.1112 91.7413 28.1112 92.2082 28.1112 92.7917V95.2429C28.1112 95.9432 28.1112 96.5268 28.1112 96.9936H27.0657V96.0599H17.4243C17.4243 95.593 17.4243 95.1261 17.4243 94.4258V92.7917C17.4243 92.2082 17.4243 91.6246 17.4243 91.2744H18.5859C18.5859 91.6246 18.5859 92.0914 18.5859 92.7917V95.1261H22.4193V90.1072H18.1213C18.1213 89.757 18.1213 89.2902 18.1213 88.7066V86.9558C18.1213 86.4889 18.1213 86.022 18.1213 85.5552H19.2829C18.9344 86.022 18.9344 86.3722 18.9344 86.8391Z" fill="white"/>
<path d="M22.0708 102.129C22.0708 100.845 22.0708 100.028 22.0708 99.5615C22.0708 99.0946 22.0708 98.7445 21.9547 98.2776C22.4193 98.3943 22.884 98.3943 23.4648 98.3943C23.3486 98.7445 23.2324 99.3281 23.2324 100.028C23.2324 100.729 23.1163 101.429 23.1163 102.129H25.9042C26.8335 102.129 27.7627 102.129 28.5759 102.013V103.18C27.8789 103.18 27.0658 103.18 26.3688 103.18H23.2324C23.3486 103.763 23.5809 104.464 24.0456 105.047C24.3941 105.631 24.7425 106.214 25.2072 106.798C25.6718 107.382 26.1365 107.849 26.8335 108.315C27.5304 108.782 28.2274 109.366 29.0405 109.716C28.8082 109.95 28.4597 110.3 28.1112 110.767C27.4143 110.416 26.8335 109.95 26.1365 109.366C25.4395 108.782 24.8587 108.082 24.2779 107.148C23.6971 106.215 23.1163 105.397 22.884 104.697C22.6516 105.514 22.3031 106.215 21.9547 106.681C21.6062 107.265 21.2577 107.732 20.9092 108.082C20.5607 108.432 19.9799 109.016 19.3991 109.366C18.8183 109.716 18.1213 110.3 17.3082 110.65C17.0759 110.183 16.7274 109.833 16.3789 109.483C17.192 109.249 17.889 108.899 18.586 108.432C19.2829 107.965 19.9799 107.382 20.4446 106.798C20.9092 106.214 21.2577 105.514 21.6062 104.931C21.9547 104.347 22.0708 103.647 22.187 103.063H19.1668C18.2375 103.063 17.6567 103.063 17.0759 103.063V101.896C17.5405 101.896 18.2375 102.013 19.1668 102.013H22.0708V102.129Z" fill="white"/>
<path d="M3.48485 1.16717C3.36869 1.40061 3.13636 1.63405 3.0202 1.75077H9.9899C10.4545 1.75077 10.9192 1.75077 11.3838 1.75077V2.68452C10.803 2.68452 10.3384 2.68452 9.9899 2.68452V4.08515C10.3384 4.08515 10.803 4.08515 11.3838 4.08515V4.90219C10.9192 4.66875 10.4545 4.66875 10.1061 4.66875V6.06938H10.803C11.2677 6.06938 11.8485 6.06938 12.4293 6.06938V7.00313C11.8485 7.00313 11.2677 7.00313 10.803 7.00313H2.67172C2.90404 7.00313 3.25253 7.11985 3.60101 7.23657C3.48485 7.47001 3.25253 7.70345 3.0202 7.93689H5.80808C5.57576 8.87064 5.34343 9.57096 4.99495 10.2713C4.64646 10.8549 4.29798 11.4385 3.83333 11.7886C3.36869 12.1388 2.90404 12.4889 2.43939 12.6057C1.97475 12.8391 1.39394 12.9558 0.813131 13.0725C0.580808 12.7224 0.464646 12.3722 0.116162 12.1388C0.929293 12.0221 1.5101 11.9053 2.09091 11.6719C2.67172 11.4385 3.0202 11.205 3.25253 10.9716C3.0202 10.7381 2.55556 10.388 1.97475 10.0378C2.20707 9.8044 2.43939 9.57096 2.55556 9.33752C3.25253 9.8044 3.71717 10.0378 3.9495 10.2713C4.18182 9.8044 4.41414 9.33752 4.64646 8.75392H2.55556C2.09091 9.33752 1.62626 9.92111 1.16162 10.388C0.929293 10.1546 0.580808 9.92112 0.232323 9.68768C0.813131 9.33752 1.27778 8.87064 1.74242 8.28705C2.20707 7.70345 2.43939 7.23657 2.67172 6.88642H1.5101C1.16162 6.88642 0.580808 6.88642 0 6.88642V6.06938C0.580808 6.06938 1.39394 6.06938 2.43939 6.06938V4.66875C2.20707 4.66875 1.97475 4.66875 1.62626 4.66875V3.96843C1.97475 3.96843 2.20707 3.96843 2.43939 3.96843V2.45108C1.74242 3.26812 1.16162 3.735 0.929293 3.96843C0.69697 3.735 0.348485 3.50156 0.116162 3.26812C0.69697 2.91796 1.27778 2.33436 1.85859 1.63405C2.43939 0.933734 2.78788 0.466857 3.0202 0.116699C3.36869 0.350138 3.83333 0.583576 4.29798 0.700295C3.9495 0.817015 3.71717 0.933734 3.48485 1.16717ZM4.64646 3.96843V2.5678H3.36869V3.96843H4.64646ZM4.64646 6.06938V4.66875H3.36869V6.06938H4.64646ZM6.9697 3.96843V2.5678H5.57576V3.96843H6.9697ZM6.9697 6.06938V4.66875H5.57576V6.06938H6.9697ZM8.82828 7.93689C8.82828 7.70345 8.82828 7.47001 8.82828 7.11985H9.87374C9.87374 7.47001 9.87374 7.70345 9.87374 7.93689C10.5707 7.93689 11.1515 7.93689 11.7323 7.93689V8.87064C11.2677 8.87064 10.5707 8.87064 9.87374 8.87064V10.5047C10.803 10.5047 11.6162 10.5047 12.0808 10.5047V11.4385C11.6162 11.4385 11.1515 11.4385 10.6869 11.4385H9.75758C9.75758 12.1388 9.75758 12.7224 9.75758 13.306H8.82828C8.82828 12.7224 8.82828 12.0221 8.82828 11.4385H6.15657C6.27273 11.205 6.27273 10.8549 6.38889 10.5047C6.50505 10.1546 6.50505 9.8044 6.50505 9.57096H7.43434C7.31818 9.57096 7.31818 10.0378 7.20202 10.388H8.82828V8.75392H7.66667C7.31818 8.75392 6.85354 8.75392 6.27273 8.75392V7.93689C6.85354 7.93689 7.31818 7.93689 7.66667 7.93689H8.82828ZM9.17677 3.96843V2.5678H7.78283V3.96843H9.17677ZM9.17677 6.06938V4.66875H7.78283V6.06938H9.17677Z" fill="white"/>
<path d="M4.87898 16.3407C4.29818 17.041 3.60121 17.858 2.55575 18.9085C3.48505 18.9085 4.5305 18.7918 5.57596 18.7918C6.62141 18.7918 7.89919 18.6751 9.29313 18.5584C9.0608 18.0915 8.36383 17.5079 7.5507 16.6909C7.78303 16.4574 8.13151 16.224 8.48 15.8738C9.87393 17.2744 11.0356 18.5584 12.081 19.8423C11.7325 20.0757 11.384 20.3091 11.0356 20.6593C10.6871 20.1924 10.4547 19.7256 10.1063 19.4921C8.24767 19.6088 6.50525 19.7256 4.76282 19.8423C3.0204 19.959 1.74262 20.1924 1.04565 20.4259C0.92949 19.7256 0.697167 19.2587 0.464844 19.0252C0.92949 18.9085 1.62646 18.3249 2.55575 17.5079C3.48505 16.6909 4.18202 15.5237 4.87898 14.2397C5.34363 14.5899 5.80828 14.9401 6.15676 15.0568C5.80828 15.1735 5.45979 15.6404 4.87898 16.3407ZM10.5709 24.1609C10.5709 25.3281 10.5709 26.2618 10.5709 26.9621H9.40929V26.1451H2.67191V26.9621H1.5103C1.5103 26.3785 1.5103 25.5615 1.5103 24.3943C1.5103 23.2271 1.5103 22.1767 1.5103 21.2429H10.5709C10.5709 21.9432 10.5709 22.877 10.5709 24.1609ZM9.40929 25.0946V22.2934H2.67191V25.0946H9.40929Z" fill="white"/>
</svg>
