<svg width="30" height="98" viewBox="0 0 30 98" fill="none" xmlns="http://www.w3.org/2000/svg">
<path d="M24.6094 1.51928H27.4219C28.125 1.51928 28.7109 1.51928 29.2969 1.51928V2.45422C28.7109 2.45422 28.125 2.45422 27.5391 2.45422H24.6094V3.38916H28.125V5.14217C28.4766 5.14217 28.9453 5.14217 29.4141 5.14217V6.07711C28.9453 6.07711 28.4766 6.07711 28.125 6.07711V7.71325H24.6094V8.76506H28.125V12.7386H27.1875V11.9205H21.3281V12.7386H20.2734V8.76506H23.5547V7.59639C22.2656 7.59639 21.3281 7.59639 20.625 7.59639V6.66145C21.3281 6.66145 22.2656 6.66145 23.5547 6.66145V5.96024H22.0312C21.3281 5.96024 20.7422 5.96024 20.1563 5.96024V5.0253C20.7422 5.0253 21.4453 5.0253 22.0312 5.0253H23.5547V4.3241C22.2656 4.3241 21.3281 4.3241 20.625 4.3241V3.38916H23.5547V2.33735H19.5703C19.5703 4.79157 19.5703 6.42771 19.4531 7.36265C19.3359 8.29759 19.2188 9.11566 18.9844 10.0506C18.75 10.9855 18.5156 11.8036 18.0469 12.6217C17.6953 12.388 17.3438 12.1542 16.9922 12.0373C17.4609 11.3361 17.9297 10.2843 18.1641 9.11566C18.3984 7.94699 18.5156 6.66145 18.5156 5.3759C18.5156 4.09036 18.5156 2.80482 18.5156 1.40241H23.4375C23.3203 0.93494 23.2031 0.584337 22.9688 0.233735C23.3203 0.116867 23.7891 0.116867 24.1406 0C24.2578 0.46747 24.4922 1.05181 24.6094 1.51928ZM27.1875 10.9855V9.58313H21.3281V10.9855H27.1875ZM27.1875 5.14217V4.3241H24.6094V5.14217H27.1875ZM27.1875 6.77831V5.96024H24.6094V6.77831H27.1875Z" fill="white"/>
<path d="M22.8516 19.9842C22.8516 19.1662 22.8516 18.5818 22.8516 18.1144H24.1406C24.0234 18.5818 24.0234 19.283 24.0234 19.9842H26.9531C27.7734 19.9842 28.5938 19.9842 29.4141 19.9842V21.036C28.5938 21.036 27.7734 21.036 26.9531 21.036H24.8438C25.5469 22.2047 26.3672 23.0228 27.1875 23.6071C28.125 24.1915 28.9453 24.5421 29.8828 24.8927C29.6484 25.1264 29.2969 25.477 29.0625 25.9445C27.3047 25.1264 26.1328 24.4252 25.4297 23.4903C24.7266 22.6722 24.2578 21.971 24.0234 21.5035V24.4252C24.0234 25.1264 24.0234 25.9445 24.0234 26.9963H22.8516C22.8516 26.0614 22.8516 25.2433 22.8516 24.4252V21.5035C22.0312 22.7891 21.2109 23.724 20.3906 24.4252C19.5703 25.1264 18.75 25.7107 17.9297 26.1782C17.6953 25.8276 17.4609 25.5939 16.9922 25.2433C17.9297 24.8927 18.75 24.4252 19.5703 23.724C20.3906 23.1397 21.2109 22.2047 22.0312 21.036H19.9219C19.2188 21.036 18.5156 21.036 17.6953 21.036V19.9842C18.5156 19.9842 19.2187 19.9842 19.8047 19.9842H22.8516ZM24.375 15.6601C24.0234 15.8939 23.6719 16.0107 23.4375 16.2445H29.0625C29.0625 16.8288 29.0625 17.4132 29.0625 17.8806C29.0625 18.3481 29.0625 18.8156 29.0625 19.283H27.8906V17.2963H18.8672V19.0493H17.6953C17.6953 18.5818 17.6953 18.1144 17.6953 17.6469C17.6953 17.1794 17.6953 16.712 17.6953 16.3614H23.2031C22.9687 16.0107 22.6172 15.4264 22.1484 14.7252C22.5 14.6083 22.8516 14.3746 23.0859 14.1409C23.6719 14.6083 24.0234 15.0758 24.375 15.6601Z" fill="white"/>
<path d="M21.9141 34.2421C21.9141 36.1119 21.9141 37.5144 21.9141 38.683H20.7422V37.6312H18.5156V39.3842H17.3438C17.3438 37.7481 17.3438 35.9951 17.3438 34.3589C17.3438 32.6059 17.3438 30.9698 17.3438 29.4505H21.7969C21.9141 30.8529 21.9141 32.4891 21.9141 34.2421ZM20.8594 33.0734V30.5023H18.6328V33.0734H20.8594ZM20.8594 36.6963V34.0083H18.6328V36.6963H20.8594ZM27.0703 28.0481H28.2422C28.2422 28.983 28.2422 30.0348 28.2422 31.0867C28.8281 31.0867 29.4141 31.0867 30 31.0867V32.1385C29.4141 32.1385 28.8281 32.1385 28.2422 32.1385V39.5011C28.2422 40.0854 28.0078 40.436 27.5391 40.5529C27.0703 40.6698 26.4844 40.7866 25.7812 40.9035C25.7812 40.436 25.5469 40.0854 25.1953 39.618C25.8984 39.7348 26.3672 39.7348 26.6016 39.618C26.8359 39.618 27.0703 39.3842 27.0703 38.9168V32.1385C25.1953 32.1385 23.6719 32.1385 22.5 32.1385V31.0867C23.6719 31.0867 25.1953 31.0867 27.0703 31.0867C27.1875 30.0348 27.1875 29.0999 27.0703 28.0481ZM25.6641 35.9951C25.3125 36.1119 24.9609 36.2288 24.4922 36.4626C24.2578 35.5276 23.7891 34.7095 23.2031 34.0083C23.5547 33.8915 23.9063 33.6577 24.2578 33.5409C24.7266 34.3589 25.1953 35.177 25.6641 35.9951Z" fill="white"/>
<path d="M18.9844 52.8242C18.6328 53.4085 18.2813 53.876 17.8125 54.2266C17.4609 53.9928 17.1094 53.7591 16.875 53.6422C17.2266 53.4085 17.5781 53.0579 17.9297 52.5904C18.2813 52.1229 18.6328 51.6555 18.8672 51.3049L19.9219 52.0061C19.6875 51.8892 19.3359 52.2398 18.9844 52.8242ZM18.5156 42.1892H19.6875C19.6875 42.8904 19.6875 43.4748 19.6875 43.9422H22.1484C22.1484 43.241 22.1484 42.6567 22.1484 42.1892H23.3203C23.3203 42.7735 23.3203 43.3579 23.3203 43.9422C23.5547 43.9422 23.9063 43.9422 24.2578 43.9422V44.8772C23.9063 44.8772 23.5547 44.8772 23.3203 44.8772V50.1362C23.5547 50.1362 23.9063 50.1362 24.2578 50.1362V51.0711C23.5547 51.0711 22.8516 51.0711 22.2656 51.0711H19.3359C18.5156 51.0711 17.8125 51.0711 17.2266 51.0711V50.1362C17.8125 50.1362 18.2813 50.1362 18.75 50.1362V44.8772C18.3984 44.8772 18.0469 44.8772 17.5781 44.8772V43.9422C17.9297 43.9422 18.3984 43.9422 18.75 43.9422C18.5156 43.4748 18.5156 42.8904 18.5156 42.1892ZM22.0312 46.0458V44.8772H19.5703V46.0458H22.0312ZM22.0312 48.0326V46.8639H19.5703V48.0326H22.0312ZM22.0312 50.0193V48.8507H19.5703V50.0193H22.0312ZM21.3281 51.7723C21.5625 51.6555 21.7969 51.4217 22.0312 51.0711C22.5 51.5386 22.9688 52.0061 23.5547 52.7073C23.3203 52.941 22.9687 53.1748 22.6172 53.5254C22.1484 52.7073 21.6797 52.1229 21.3281 51.7723ZM28.3594 53.0579V50.0193H25.8984C25.7813 50.9543 25.6641 51.7723 25.3125 52.5904C24.9609 53.4085 24.4922 54.1097 23.9062 54.8109C23.6719 54.4603 23.3203 54.2266 22.8516 54.1097C23.4375 53.5254 23.9063 52.8241 24.2578 52.1229C24.6094 51.4217 24.7266 50.7205 24.8438 50.0193C24.8438 49.3181 24.9609 48.1495 24.9609 46.6302C24.9609 44.994 24.9609 43.7085 24.9609 42.7735H29.6484C29.6484 43.4748 29.6484 44.2928 29.6484 45.3446V53.4085C29.6484 53.876 29.5312 54.2266 29.1797 54.4603C28.8281 54.694 28.3594 54.8109 27.8906 54.8109C27.8906 54.4603 27.7734 53.9928 27.4219 53.5254C28.0078 53.5254 28.4766 53.4085 28.3594 53.0579ZM28.3594 46.0458V43.5916H26.0156V46.0458H28.3594ZM28.3594 49.0844V46.747H26.0156V49.0844H28.3594Z" fill="white"/>
<path d="M19.5703 61.9397C20.3906 61.1217 21.0938 60.0699 21.7969 58.9012H19.8047C19.3359 58.9012 18.6328 58.9012 17.9297 58.9012V57.8494C18.8672 57.8494 19.5703 57.8494 20.0391 57.8494H22.1484C22.3828 56.9144 22.6172 56.3301 22.6172 55.9795C23.2031 56.0964 23.5547 56.2132 23.9062 56.3301C23.7891 56.447 23.6719 56.9144 23.3203 57.9662H27.7734C28.3594 57.9662 29.0625 57.9662 29.6484 57.9662V59.018C28.9453 59.018 28.3594 59.018 27.8906 59.018H22.9688C22.7344 59.4855 22.3828 59.953 22.1484 60.4205H28.4766C28.4766 61.3554 28.4766 62.1735 28.4766 62.8747V67.3156C28.4766 67.7831 28.3594 68.2506 28.0078 68.4843C27.7734 68.718 27.0703 68.8349 26.1328 68.9518C26.1328 68.6012 26.0156 68.1337 25.7812 67.6662C26.3672 67.7831 26.7188 67.7831 26.9531 67.6662C27.1875 67.6662 27.3047 67.4325 27.3047 67.0819V66.0301H21.5625V68.9518H20.3906C20.3906 68.0168 20.3906 67.1988 20.3906 66.6144V62.7578C19.5703 63.6927 18.8672 64.3939 17.9297 65.0952C17.8125 64.8614 17.4609 64.5108 16.9922 64.1602C17.9297 63.459 18.75 62.7578 19.5703 61.9397ZM27.3047 62.7578V61.2385H21.5625V62.7578H27.3047ZM27.3047 64.9783V63.5759H21.5625V64.9783H27.3047Z" fill="white"/>
<path d="M28.7109 70.588V71.7567C28.3594 71.8735 27.5391 72.341 26.4844 73.0422C25.4297 73.7434 24.6094 74.3277 24.1406 74.6783V80.8723C24.1406 81.4567 23.7891 81.9241 23.2031 82.041C22.6172 82.1579 22.0313 82.2747 21.3281 82.3916C21.0938 81.5735 20.9766 81.1061 20.7422 80.8723C21.6797 80.8723 22.2656 80.8723 22.5 80.8723C22.7344 80.8723 22.8516 80.5217 22.8516 80.1711V75.7302C22.8516 74.9121 22.8516 74.3277 22.7344 73.9771C23.3203 73.7434 24.7266 72.9253 26.8359 71.4061H20.9766C20.0391 71.4061 19.2188 71.4061 18.3984 71.4061V70.3542C19.2188 70.3542 19.8047 70.3542 20.3906 70.3542H28.7109V70.588Z" fill="white"/>
<path d="M20.9766 85.1964C20.7422 85.4301 20.625 85.6638 20.3906 85.7807H27.4219C27.8906 85.7807 28.3594 85.7807 28.8281 85.7807V86.7156C28.2422 86.7156 27.7734 86.7156 27.4219 86.7156V88.118C27.7734 88.118 28.2422 88.118 28.8281 88.118V88.9361C28.2422 88.9361 27.7734 88.9361 27.4219 88.9361V90.3385H28.125C28.5938 90.3385 29.1797 90.3385 29.7656 90.3385V91.2735C29.1797 91.2735 28.5938 91.2735 28.125 91.2735H20.0391C20.2734 91.3903 20.625 91.6241 20.9766 91.7409C20.7422 91.9747 20.5078 92.2084 20.3906 92.4421H23.0859C22.8516 93.3771 22.6172 94.0783 22.2656 94.6626C21.9141 95.247 21.5625 95.8313 21.0937 96.1819C20.625 96.5325 20.1562 96.8831 19.6875 97C19.2187 97.2337 18.6328 97.3506 18.0469 97.4674C17.8125 97.1168 17.6953 96.7662 17.3438 96.5325C18.1641 96.4156 18.75 96.2988 19.3359 96.065C19.9219 95.8313 20.2734 95.5976 20.5078 95.3638C20.2734 95.1301 19.8047 94.7795 19.2187 94.4289C19.4531 94.1952 19.5703 93.9614 19.6875 93.7277C20.3906 94.1952 20.8594 94.4289 21.0937 94.6626C21.4453 94.1952 21.6797 93.7277 21.9141 93.1433H19.9219C19.3359 93.7277 18.8672 94.312 18.5156 94.7795C18.1641 94.5458 17.9297 94.312 17.5781 94.0783C18.0469 93.7277 18.6328 93.1433 18.9844 92.559C19.4531 91.9747 19.6875 91.5072 19.9219 91.1566H18.8672C18.5156 91.1566 17.9297 91.1566 17.3438 91.1566V89.9879C17.9297 89.9879 18.75 89.9879 19.8047 89.9879V88.5855C19.5703 88.5855 19.3359 88.5855 18.9844 88.5855V87.7674C19.3359 87.7674 19.5703 87.7674 19.8047 87.7674V86.1313C19.1016 86.9494 18.6328 87.4168 18.2813 87.6506C18.0469 87.4168 17.6953 87.1831 17.4609 86.9494C18.0469 86.5988 18.6328 86.0144 19.2187 85.3132C19.8047 84.612 20.1562 84.1445 20.3906 83.7939C20.7422 84.0277 21.2109 84.2614 21.6797 84.3783C21.3281 84.8458 21.0937 84.9626 20.9766 85.1964ZM22.1484 88.0012V86.5988H20.7422V88.0012H22.1484ZM22.1484 90.1048V88.7024H20.7422V90.1048H22.1484ZM24.375 88.0012V86.5988H22.9688V88.0012H24.375ZM24.375 90.1048V88.7024H22.9688V90.1048H24.375ZM26.3672 91.9747C26.3672 91.7409 26.3672 91.5072 26.3672 91.1566H27.4219C27.4219 91.5072 27.4219 91.7409 27.4219 91.9747C28.125 91.9747 28.7109 91.9747 29.2969 91.9747V92.9096C28.8281 92.9096 28.125 92.9096 27.4219 92.9096V94.5458C28.3594 94.5458 29.1797 94.5458 29.6484 94.5458V95.4807C29.1797 95.4807 28.7109 95.4807 28.2422 95.4807H27.4219C27.4219 96.1819 27.4219 96.7662 27.4219 97.3506H26.3672C26.3672 96.7662 26.3672 96.065 26.3672 95.4807H23.6719C23.7891 95.247 23.7891 94.8964 23.9062 94.5458C24.0234 94.1952 24.0234 93.8445 24.0234 93.6108H24.9609C24.8437 93.9614 24.8438 94.312 24.8438 94.6626H26.4844V93.0265H25.1953C24.8438 93.0265 24.375 93.0265 23.7891 93.0265V92.0915C24.375 92.0915 24.8438 92.0915 25.1953 92.0915H26.3672V91.9747ZM26.6016 88.0012V86.5988H25.1953V88.0012H26.6016ZM26.6016 90.1048V88.7024H25.1953V90.1048H26.6016Z" fill="white"/>
<path d="M6.32813 1.51928C6.32813 1.98675 6.21094 2.68795 6.21094 3.50602H10.5469C11.25 3.50602 11.8359 3.50602 12.5391 3.38916V4.44096C11.8359 4.44096 11.25 4.44096 10.5469 4.44096H7.96875V9.46627C8.4375 8.9988 8.90625 8.41446 9.25781 7.71325C9.60938 7.01205 9.96094 6.42771 10.3125 5.72651C10.7812 5.96024 11.25 6.07711 11.7188 6.31084C11.25 6.77831 10.6641 7.47952 10.1953 8.29759C9.72656 9.11566 9.02344 9.93373 8.08594 10.7518C8.08594 11.3361 8.08594 11.6867 8.20312 11.6867C8.20312 11.6867 8.4375 11.6867 8.78906 11.8036H10.5469C10.8984 11.6867 11.25 11.6867 11.4844 11.6867C11.7188 11.6867 11.8359 11.2193 11.9531 10.2843C12.3047 10.6349 12.7734 10.8687 13.2422 10.9855C12.8906 11.8036 12.6563 12.2711 12.4219 12.5048C12.1875 12.7386 11.9531 12.7386 11.4844 12.7386H8.20312C7.61719 12.7386 7.26562 12.6217 7.14844 12.5048C7.03125 12.388 6.91406 12.0373 6.91406 11.453C6.67969 11.5699 6.32812 11.8036 5.85938 12.0373C5.39062 12.2711 5.03906 12.5048 4.6875 12.7386C4.57031 12.5048 4.33594 12.2711 3.86719 11.8036C4.33594 11.6867 4.92188 11.453 5.50781 11.1024C6.09375 10.7518 6.5625 10.5181 6.91406 10.1675V4.44096H6.09375C5.85938 5.49277 5.74219 6.31084 5.50781 7.01205C5.27344 7.71325 5.03906 8.29759 4.6875 8.88193C4.33594 9.46626 3.98438 10.0506 3.39844 10.6349C2.8125 11.2193 2.22656 11.9205 1.28906 12.7386C1.28906 12.5048 0.9375 12.1542 0.234375 11.8036C0.820312 11.453 1.40625 11.1024 1.99219 10.5181C2.57812 9.93373 3.04688 9.46626 3.39844 8.76506C3.75 8.18072 4.10156 7.47952 4.45312 6.77831C4.6875 6.07711 4.92188 5.25904 5.03906 4.44096H2.8125C2.10938 4.44096 1.52344 4.44096 0.820312 4.44096V3.50602C1.52344 3.50602 2.22656 3.50602 2.8125 3.50602H5.15625C5.15625 3.03855 5.27344 2.57108 5.27344 1.86988C5.27344 1.28554 5.27344 0.584337 5.15625 0C5.85938 0.233735 6.32812 0.350602 6.5625 0.350602C6.44531 0.701205 6.32813 1.05181 6.32813 1.51928ZM9.72656 3.15542C9.375 2.57108 8.90625 1.98675 8.32031 1.28554C8.55469 1.16867 8.78906 0.93494 9.14062 0.584337C9.60938 1.05181 10.0781 1.63614 10.6641 2.33735C10.4297 2.45422 10.1953 2.80482 9.72656 3.15542Z" fill="white"/>
<path d="M3.39844 16.7121H5.85938C5.85938 17.2965 5.85938 18.1145 5.85938 19.0495V23.841C5.85938 24.4254 5.85938 25.1266 5.85938 26.1784H4.80469V25.1266H1.99219V26.2953H0.9375C0.9375 25.1266 0.9375 24.4254 0.9375 24.0748V19.0495C0.9375 18.1145 0.9375 17.2965 0.9375 16.5953H2.57813C2.8125 15.7772 2.92969 14.8422 3.04688 14.0242C3.51562 14.2579 3.98438 14.3748 4.33594 14.3748C3.98438 14.8422 3.75 15.5434 3.39844 16.7121ZM4.80469 20.4519V17.7639H1.99219V20.4519H4.80469ZM4.80469 24.3085V21.3868H1.99219V24.3085H4.80469ZM12.0703 25.0097C11.9531 25.7109 11.6016 26.0615 11.0156 26.2953C10.4297 26.529 9.72656 26.6459 8.90625 26.7627C8.90625 26.4121 8.67187 25.9447 8.4375 25.4772C9.14062 25.4772 9.72656 25.4772 10.1953 25.4772C10.6641 25.4772 10.8984 25.2434 11.0156 25.0097C11.1328 24.776 11.25 23.9579 11.25 22.7892C11.25 21.5037 11.3672 19.8675 11.3672 17.5302H8.20312C7.96875 18.2314 7.5 19.0495 6.91406 19.9844C6.67969 19.7507 6.32812 19.5169 5.97656 19.4001C6.32812 18.9326 6.5625 18.4651 6.91406 17.7639C7.14844 17.1796 7.5 16.4784 7.73437 15.7772C7.96875 15.076 8.08594 14.4916 8.08594 14.0242C8.55469 14.2579 9.02344 14.3748 9.375 14.4916C9.14062 14.8422 9.02344 15.076 8.90625 15.4266C8.78906 15.7772 8.67187 16.1278 8.4375 16.4784H12.3047C12.3047 17.2965 12.3047 17.9977 12.3047 18.582C12.3047 20.9194 12.1875 23.023 12.0703 25.0097ZM9.14062 20.9194C9.375 21.3868 9.60938 21.9712 9.96094 22.6724C9.72656 22.7892 9.375 23.023 8.90625 23.2567C8.67187 22.5555 8.4375 21.9712 8.20312 21.5037C7.96875 21.0362 7.73438 20.5687 7.5 20.2181C7.73438 20.1013 8.08594 19.8675 8.4375 19.6338L9.14062 20.9194Z" fill="white"/>
<path d="M10.7812 28.2819C10.6641 29.6843 10.6641 31.0867 10.6641 32.2554C10.6641 33.4241 10.6641 34.359 10.6641 35.1771C10.6641 35.8783 10.7812 36.6964 11.0156 37.6313C11.25 38.5662 11.4844 38.9168 11.6016 38.9168C11.7188 38.8 11.8359 38.3325 11.9531 37.5144C12.3047 37.865 12.6562 38.0988 13.0078 38.2156C12.6562 39.6181 12.3047 40.3193 11.8359 40.4361C11.4844 40.553 11.1328 40.4361 10.6641 39.9687C10.3125 39.5012 9.96094 38.8 9.84375 37.9819C9.72656 37.1638 9.72656 35.9952 9.72656 35.0602C9.72656 34.0084 9.72656 32.1385 9.72656 29.3337H2.8125C2.8125 32.2554 2.8125 34.2421 2.69531 35.1771C2.57812 36.112 2.46094 37.047 2.10938 37.9819C1.875 38.9168 1.40625 39.8518 0.820312 40.553C0.46875 40.2024 0.234375 39.8518 0 39.6181C0.46875 39.0337 0.820312 38.2156 1.05469 37.3976C1.28906 36.5795 1.52344 35.5277 1.52344 34.4759C1.64062 33.4241 1.64062 32.2554 1.64062 30.9699C1.64062 29.6843 1.64062 28.7494 1.64062 28.165H10.7812V28.2819ZM8.08594 32.606C7.85156 33.3072 7.5 33.8915 7.14844 34.4759C7.96875 35.7614 8.55469 36.9301 9.02344 37.9819C8.78906 38.0988 8.4375 38.3325 8.20312 38.5662C7.96875 37.9819 7.38281 36.9301 6.67969 35.6446C6.32812 36.2289 5.85938 36.6964 5.39062 37.1638C4.92188 37.6313 4.45312 38.0988 3.86719 38.6831C3.63281 38.3325 3.28125 37.9819 3.04688 37.865C3.63281 37.5144 4.21875 37.047 4.80469 36.4626C5.39062 35.8783 5.74219 35.294 6.09375 34.8265C5.39062 33.6578 4.57031 32.606 3.63281 31.6711C3.98438 31.4373 4.21875 31.2036 4.45312 30.9699C5.15625 31.7879 5.85938 32.7229 6.5625 33.6578C6.91406 32.8397 7.38281 31.7879 7.73438 30.5024L8.78906 31.2036C8.67188 31.4373 8.32031 31.9048 8.08594 32.606Z" fill="white"/>
<path d="M2.92969 44.8772V51.8892C2.92969 53.1748 2.92969 54.2266 2.92969 54.8109H1.875C1.875 54.1097 1.875 53.1748 1.875 51.7724V46.8639C1.52344 47.5651 1.17188 48.1495 0.9375 48.7338C0.703125 48.5001 0.351562 48.2663 0 48.1495C0.351562 47.682 0.9375 46.7471 1.52344 45.3446C2.10938 43.9422 2.57812 42.7736 2.69531 41.8386C3.04688 42.0724 3.51562 42.1892 3.98438 42.3061C3.75 42.6567 3.39844 43.4748 2.92969 44.8772ZM9.02344 44.994C9.375 45.929 9.96094 46.7471 10.6641 47.4483C11.3672 48.1495 12.3047 48.5001 13.125 48.7338C12.8906 48.9675 12.6562 49.3181 12.4219 49.7856C11.9531 49.6687 11.6016 49.5519 11.25 49.3181C11.25 49.6687 11.25 50.4868 11.25 52.0061C11.25 53.4085 11.25 54.3434 11.25 54.8109H10.1953V53.9928H6.91406V54.9278H5.85938C5.85938 54.4603 5.85938 53.5254 5.85938 52.123C5.85938 50.7205 5.85938 49.7856 5.85938 49.3181C5.50781 49.6687 4.92188 50.0193 4.33594 50.3699C4.10156 50.1362 3.75 49.7856 3.39844 49.6687C4.6875 48.9675 5.625 48.1495 6.44531 47.0977C7.26562 46.0459 7.61719 45.1109 7.85156 44.4097C8.08594 44.5266 8.67188 44.6434 9.25781 44.7603L9.02344 44.994ZM5.03906 45.8121C4.6875 45.4615 4.33594 45.2278 4.10156 44.994C5.50781 43.7085 6.32812 42.7736 6.67969 42.1892C7.03125 42.423 7.38281 42.6567 7.85156 42.8904C7.5 43.1242 6.5625 44.176 5.03906 45.8121ZM11.0156 49.0844C9.96094 48.3832 9.02344 47.2145 8.32031 45.5784C7.73438 46.9808 6.91406 48.1495 5.97656 49.0844H11.0156ZM10.1953 52.941V50.0193H6.91406V52.941H10.1953ZM12.7734 44.4097C12.5391 44.5266 12.1875 44.8772 11.8359 45.2278C11.1328 44.4097 10.3125 43.5916 9.375 42.8904C9.72656 42.6567 9.96094 42.5398 10.1953 42.1892C11.1328 43.0073 12.0703 43.8254 12.7734 44.4097Z" fill="white"/>
</svg>
