<svg width="125" height="280" viewBox="0 0 122 231" fill="none" xmlns="http://www.w3.org/2000/svg">
<path d="M52.6328 62.9297C52.3047 60.9609 52.3047 58.3359 52.6328 55.0547C52.6328 52.7578 52.6328 51.1172 52.6328 50.1328C52.9609 46.5234 54.6016 44.8828 57.5547 45.2109C71.0078 44.2266 85.7734 44.2266 101.852 45.2109C104.805 45.2109 106.445 46.8516 106.773 50.1328C106.773 54.3984 106.773 58.5 106.773 62.4375C106.117 66.0469 103.82 67.8516 99.8828 67.8516C87.7422 66.8672 74.2891 66.8672 59.5234 67.8516C55.5859 67.5234 53.2891 65.8828 52.6328 62.9297ZM57.0625 52.5938V59.9766C56.7344 62.6016 57.8828 63.75 60.5078 63.4219C74.2891 62.4375 87.0859 62.4375 98.8984 63.4219C101.195 63.4219 102.344 62.2734 102.344 59.9766V51.6094C102.672 49.9688 101.359 49.1484 98.4062 49.1484C85.9375 48.1641 73.1406 48.1641 60.0156 49.1484C58.0469 49.1484 57.0625 50.2969 57.0625 52.5938ZM42.7891 84.5859C49.6797 83.9297 57.3906 83.6016 65.9219 83.6016C63.9531 80.6484 61.6563 77.6953 59.0312 74.7422C57.7188 73.4297 57.5547 72.2812 58.5391 71.2969C60.1797 70.3125 61.3281 70.3125 61.9844 71.2969C64.9375 74.25 68.0547 78.1875 71.3359 83.1094C71.3359 83.1094 71.3359 83.2734 71.3359 83.6016H87.0859C87.4141 83.2734 87.5781 83.1094 87.5781 83.1094C88.2344 82.125 89.2188 80.9766 90.5312 79.6641C93.1562 76.3828 94.9609 73.7578 95.9453 71.7891C96.6016 70.1484 97.75 69.8203 99.3906 70.8047C100.703 71.4609 100.867 72.6094 99.8828 74.25C97.2578 77.8594 94.9609 80.9766 92.9922 83.6016C102.18 83.6016 110.219 83.9297 117.109 84.5859C118.422 84.5859 119.078 85.0781 119.078 86.0625C118.422 88.6875 117.109 89.6719 115.141 89.0156C103.656 88.0312 90.0391 87.5391 74.2891 87.5391C59.1953 87.8672 48.2031 88.5234 41.3125 89.5078C39.6719 89.8359 38.8516 89.1797 38.8516 87.5391C39.5078 85.2422 40.8203 84.2578 42.7891 84.5859ZM25.5625 3.375C26.2188 30.2812 25.2344 49.1484 22.6094 59.9766C20.6406 71.1328 15.8828 80.1562 8.33594 87.0469C6.69531 88.3594 4.72656 88.3594 2.42969 87.0469C1.44531 86.3906 1.44531 85.5703 2.42969 84.5859C10.9609 77.3672 16.2109 68.8359 18.1797 58.9922C20.8047 49.1484 21.7891 30.6094 21.1328 3.375C21.1328 2.0625 21.9531 1.24219 23.5938 0.914062C24.9062 1.24219 25.5625 2.0625 25.5625 3.375ZM83.6406 9.28125C84.2969 9.60937 84.625 10.1016 84.625 10.7578C84.9531 10.7578 85.1172 10.7578 85.1172 10.7578C89.3828 8.13281 93.4844 5.17969 97.4219 1.89844C98.4062 0.914062 99.3906 1.07813 100.375 2.39062C101.359 3.70312 101.195 4.85156 99.8828 5.83594C96.2734 8.78906 92.1719 11.5781 87.5781 14.2031C90.2031 16.5 92.6641 19.125 94.9609 22.0781C98.2422 19.7813 101.688 17.3203 105.297 14.6953C106.281 14.0391 106.938 13.5469 107.266 13.2188C108.578 12.2344 109.727 12.2344 110.711 13.2188C111.695 14.5312 111.203 15.8438 109.234 17.1562C109.234 17.1562 109.07 17.3203 108.742 17.6484C106.117 19.9453 102.672 22.4062 98.4062 25.0312C104.312 30.2812 111.039 35.2031 118.586 39.7969C119.57 40.7812 119.734 41.4375 119.078 41.7656C117.109 44.3906 114.977 44.7188 112.68 42.75C102.18 35.2031 91.6797 25.3594 81.1797 13.2188C79.5391 11.25 79.2109 9.9375 80.1953 9.28125C81.5078 8.29688 82.6562 8.29688 83.6406 9.28125ZM47.7109 20.1094C46.3984 19.7813 46.0703 18.7969 46.7266 17.1562C47.0547 15.8438 48.2031 15.6797 50.1719 16.6641C55.0938 19.2891 58.7031 21.4219 61 23.0625L61.4922 23.5547C61.8203 23.2266 62.1484 22.7344 62.4766 22.0781C64.1172 20.4375 65.9219 18.1406 67.8906 15.1875C69.5312 13.2188 69.5312 11.9063 67.8906 11.25C65.2656 9.60937 61.8203 7.96875 57.5547 6.32812C56.2422 5.67187 55.9141 4.6875 56.5703 3.375C57.2266 2.0625 58.375 1.73437 60.0156 2.39062C62.9688 3.70312 66.25 5.34375 69.8594 7.3125C70.8438 7.64062 71.5 7.96875 71.8281 8.29688C74.7812 10.5937 74.9453 13.3828 72.3203 16.6641C64.7734 27.1641 56.4062 35.6953 47.2188 42.2578C44.9219 44.2266 42.625 44.2266 40.3281 42.2578C39.0156 41.2734 39.0156 40.4531 40.3281 39.7969C47.2188 36.1875 53.125 31.9219 58.0469 27C56.4062 25.6875 53.7812 23.8828 50.1719 21.5859C49.1875 20.9297 48.3672 20.4375 47.7109 20.1094ZM59.0312 36.3516C59.3594 34.3828 60.3438 33.2344 61.9844 32.9062C74.125 32.25 85.6094 32.25 96.4375 32.9062C96.4375 32.9062 96.6016 32.9062 96.9297 32.9062C97.9141 33.2344 98.4062 33.7266 98.4062 34.3828C97.75 36.6797 96.6016 37.8281 94.9609 37.8281C83.1484 36.1875 71.6641 36.1875 60.5078 37.8281C59.8516 38.1562 59.3594 38.1562 59.0312 37.8281C58.7031 37.5 58.7031 37.0078 59.0312 36.3516ZM28.0234 57.0234C27.3672 55.7109 27.5312 54.5625 28.5156 53.5781C29.8281 52.5938 30.8125 52.7578 31.4688 54.0703C35.7344 62.2734 40.1641 68.3438 44.7578 72.2812C46.0703 73.2656 45.5781 74.0859 43.2812 74.7422C40.9844 75.7266 39.3438 75.3984 38.3594 73.7578C34.4219 68.5078 30.9766 62.9297 28.0234 57.0234ZM35.8984 37.3359C34.9141 38.6484 33.4375 38.8125 31.4688 37.8281C30.4844 37.1719 30.4844 36.1875 31.4688 34.875C34.4219 31.9219 37.5391 27.1641 40.8203 20.6016C41.4766 19.2891 42.4609 19.125 43.7734 20.1094C45.0859 20.7656 45.25 22.0781 44.2656 24.0469C40.3281 30.6094 37.5391 35.0391 35.8984 37.3359ZM9.32031 42.2578C8.99219 44.5547 7.67969 45.7031 5.38281 45.7031C4.07031 46.0312 3.90625 44.5547 4.89062 41.2734C6.85938 36.6797 8.00781 32.25 8.33594 27.9844C8.66406 25.6875 9.64844 24.7031 11.2891 25.0312C12.6016 24.7031 12.9297 26.3437 12.2734 29.9531C11.9453 33.8906 10.9609 37.9922 9.32031 42.2578ZM17.1953 164.539C18.1797 164.539 19.9844 164.539 22.6094 164.539C25.2344 164.211 27.3672 164.047 29.0078 164.047V152.234C26.0547 152.234 23.2656 152.234 20.6406 152.234C19 154.531 16.7031 157.484 13.75 161.094C13.0938 161.75 12.6016 162.242 12.2734 162.57C9.97656 164.539 7.84375 164.703 5.875 163.062C4.89062 162.078 5.05469 161.094 6.36719 160.109C11.9453 156.172 17.3594 149.938 22.6094 141.406C22.9375 139.438 24.0859 138.945 26.0547 139.93C27.6953 140.258 28.0234 141.406 27.0391 143.375C26.0547 144.688 25.0703 146.164 24.0859 147.805C41.1484 147.477 71.5 147.312 115.141 147.312C116.781 147.312 117.438 147.969 117.109 149.281C116.781 151.578 114.812 152.562 111.203 152.234C109.891 152.234 107.922 152.234 105.297 152.234C101.359 151.906 98.2422 151.742 95.9453 151.742V163.555H110.711C111.695 163.555 112.188 164.375 112.188 166.016C111.531 167.656 109.891 168.477 107.266 168.477C104.641 168.148 100.867 167.984 95.9453 167.984V180.781C103.82 180.781 111.531 180.781 119.078 180.781C120.719 180.781 121.211 181.602 120.555 183.242C120.227 185.211 118.75 185.867 116.125 185.211C93.1562 184.555 70.8438 184.391 49.1875 184.719C28.8438 185.047 13.75 185.703 3.90625 186.688C2.59375 186.688 2.10156 186.031 2.42969 184.719C2.75781 182.75 4.07031 181.602 6.36719 181.273C8.66406 181.273 12.1094 181.273 16.7031 181.273C21.9531 180.945 26.0547 180.781 29.0078 180.781V168.969C27.0391 168.969 24.25 169.133 20.6406 169.461C18.0156 169.461 16.2109 169.461 15.2266 169.461C14.2422 169.789 13.5859 169.789 13.2578 169.461C12.9297 169.133 12.9297 168.477 13.2578 167.492C13.9141 165.523 15.2266 164.539 17.1953 164.539ZM65.4297 197.023C69.3672 196.695 76.75 196.531 87.5781 196.531V190.625C87.5781 189.312 88.2344 188.656 89.5469 188.656C91.1875 188.328 92.0078 188.984 92.0078 190.625V196.531C99.5547 196.531 106.938 196.531 114.156 196.531C115.797 196.531 116.289 197.352 115.633 198.992C115.633 200.633 114.32 201.289 111.695 200.961C110.383 200.961 107.758 200.961 103.82 200.961C98.5703 200.633 94.6328 200.469 92.0078 200.469V214.25C100.539 214.25 109.234 214.25 118.094 214.25C119.078 214.25 119.406 214.906 119.078 216.219C118.75 217.859 117.438 218.68 115.141 218.68C110.547 218.352 102.836 218.188 92.0078 218.188V229.016C92.0078 229.672 91.3516 230.164 90.0391 230.492C88.3984 230.164 87.5781 229.672 87.5781 229.016V218.188C82.6562 218.516 78.5547 218.68 75.2734 218.68C68.0547 219.336 63.7891 218.844 62.4766 217.203C60.5078 216.219 60.1797 212.938 61.4922 207.359C61.4922 206.047 62.4766 205.391 64.4453 205.391C65.4297 206.047 65.9219 206.867 65.9219 207.852C64.9375 211.133 64.9375 213.102 65.9219 213.758C66.5781 214.414 69.0391 214.742 73.3047 214.742C77.8984 214.414 82.6562 214.25 87.5781 214.25V200.469C84.9531 200.469 81.0156 200.633 75.7656 200.961C69.8594 200.961 66.0859 201.125 64.4453 201.453C63.4609 201.781 62.8047 201.781 62.4766 201.453C62.1484 201.453 62.1484 201.125 62.4766 200.469C63.1328 198.172 64.1172 197.023 65.4297 197.023ZM27.0391 188.656C28.0234 187.016 29.0078 186.688 29.9922 187.672C31.9609 188.656 32.4531 189.969 31.4688 191.609C31.1406 191.938 30.6484 192.43 29.9922 193.086C29.6641 193.414 29.3359 193.742 29.0078 194.07C33.9297 193.742 40.9844 193.578 50.1719 193.578C57.3906 194.234 59.3594 197.352 56.0781 202.93C48.5312 216.055 34.4219 225.078 13.75 230C11.125 230.656 8.99219 230.164 7.35156 228.523C7.02344 227.539 7.51562 226.719 8.82812 226.062C17.6875 225.406 26.875 222.125 36.3906 216.219C33.4375 214.25 29.3359 211.953 24.0859 209.328C23.1016 209 22.2812 208.672 21.625 208.344C20.3125 207.359 20.1484 206.375 21.1328 205.391C22.1172 204.078 23.4297 203.914 25.0703 204.898C28.0234 206.211 33.1094 209 40.3281 213.266C44.5938 209.984 48.2031 206.211 51.1562 201.945C52.1406 200.305 52.3047 199.32 51.6484 198.992C51.3203 198.336 49.8438 198.008 47.2188 198.008C39.6719 197.352 32.2891 197.516 25.0703 198.5C18.5078 204.406 14.2422 208.18 12.2734 209.82C10.3047 211.789 8.33594 211.953 6.36719 210.312C5.71094 209.328 5.875 208.344 6.85938 207.359C15.7188 201.453 22.4453 195.219 27.0391 188.656ZM50.1719 151.742C44.2656 151.742 38.6875 151.742 33.4375 151.742V164.047C38.6875 164.047 44.2656 164.047 50.1719 164.047V151.742ZM50.1719 168.477C44.2656 168.477 38.6875 168.477 33.4375 168.477V180.781C38.6875 180.781 44.2656 180.781 50.1719 180.781V168.477ZM91.5156 167.984C86.5938 167.984 81.1797 167.984 75.2734 167.984V180.781H91.5156V167.984ZM70.8438 167.984C65.5938 167.984 60.1797 167.984 54.6016 167.984V180.781H70.8438V167.984ZM70.8438 151.742C69.5312 151.742 67.7266 151.742 65.4297 151.742C60.8359 151.414 57.2266 151.414 54.6016 151.742V164.047C56.5703 164.047 59.3594 163.883 62.9688 163.555C66.5781 163.555 69.2031 163.555 70.8438 163.555V151.742ZM91.5156 151.742C86.5938 151.742 81.1797 151.742 75.2734 151.742V163.555H91.5156V151.742Z" fill="#E92F93"/>
</svg>
