<svg width="181" height="183" viewBox="0 0 181 183" fill="none" xmlns="http://www.w3.org/2000/svg">
<path d="M61.327 157.699C61.1371 157.415 60.7572 157.225 60.3773 157.225C60.1873 157.225 59.9974 157.225 59.9024 157.32C59.8074 157.415 59.6175 157.415 59.5225 157.604C59.2376 157.888 59.1426 158.172 59.1426 158.551C59.1426 158.74 59.1426 158.93 59.2376 159.025C59.6175 160.729 60.8521 166.032 63.1316 167.642C63.3215 167.737 63.5115 167.926 63.7014 168.021C66.2658 169.536 70.6347 170.294 72.6292 169.347C72.8191 169.252 73.0091 169.158 73.104 169.063C74.6237 167.737 63.4165 159.214 61.327 157.699Z" fill="url(#paint0_linear_3501_307660)"/>
<path d="M115.273 103.151C111.094 94.9122 113.944 82.2223 114.134 80.9912C104.636 92.3553 94.8535 98.2267 94.8535 98.2267L95.9932 103.435C103.116 97.3744 112.329 102.299 114.893 103.435C115.178 103.53 115.368 103.341 115.273 103.151Z" fill="url(#paint1_linear_3501_307660)"/>
<path d="M88.8698 153.721V153.532C88.7748 153.248 88.6798 153.058 88.4899 152.869C88.2049 152.49 87.6351 152.206 87.1602 152.206L72.4389 152.396C71.964 152.396 71.0143 152.869 70.9193 153.437C70.7293 154.1 70.6344 154.763 71.1093 155.426C71.8691 156.468 81.8415 160.35 83.836 160.066C84.3109 159.972 84.9757 159.593 85.7355 159.025H85.8305V158.93C86.4954 158.362 87.1602 157.699 87.73 156.941H87.825V156.846C88.2049 156.278 88.5848 155.71 88.7748 155.047V154.952C88.9647 154.574 88.9647 154.1 88.8698 153.721Z" fill="url(#paint2_linear_3501_307660)"/>
<path d="M104.826 107.886C104.826 107.413 104.826 106.939 104.636 106.56V106.466C104.636 106.371 104.541 106.371 104.541 106.276C104.256 105.898 103.687 105.803 103.212 105.898C100.267 106.466 87.9206 109.117 88.5854 112.148C88.5854 112.148 88.1106 113.852 92.5744 113.758C97.0383 113.663 99.9826 114.421 101.217 113.758C101.597 113.568 102.167 113.095 102.642 112.337H102.737V112.243C103.212 111.58 103.687 110.822 104.067 110.064H104.161V109.97C104.446 109.307 104.636 108.739 104.731 108.17L104.826 107.886Z" fill="url(#paint3_linear_3501_307660)"/>
<path d="M80.2266 95.2912C80.0366 94.723 79.8467 94.3442 79.8467 94.3442C79.8467 94.3442 79.9417 94.8177 80.2266 95.2912Z" fill="url(#paint4_linear_3501_307660)"/>
<path d="M94.6632 97.8481C93.7134 98.0375 92.7637 98.1322 91.9089 98.3216C88.2048 98.2269 85.9254 92.8289 85.9254 92.8289C85.9254 92.8289 87.445 97.7534 84.5957 98.511C82.5063 99.0792 80.9867 96.7117 80.2269 95.2911C80.7967 96.7117 81.5565 99.5527 79.657 100.878C77.1876 102.678 74.0534 97.9428 73.6735 97.3746C73.9584 97.8481 76.5228 102.015 74.6233 104.004C72.6288 105.992 68.1649 100.973 68.1649 100.973C68.1649 100.973 71.869 105.898 70.0644 108.455C68.2599 111.011 63.6061 107.413 63.6061 107.413C63.6061 107.413 67.9749 113.19 67.1202 115.462C66.2654 117.735 61.6116 115.084 61.6116 115.084C61.6116 115.084 66.8352 118.777 65.6955 121.144C64.7458 123.228 62.0864 121.429 61.2317 120.766C62.0864 121.523 65.3156 124.27 64.3659 126.542C63.2262 129.194 60.3769 126.353 60.3769 126.353C60.3769 126.353 63.0362 130.709 60.6618 132.414C58.2874 134.118 56.7678 128.626 56.7678 128.626C58.0025 133.929 52.9687 133.361 52.8738 133.361C50.0245 132.698 46.4154 131.656 41.5716 131.183C28.085 129.857 23.2413 139.327 23.8111 141.316C24.191 142.641 26.3755 143.588 27.6102 144.062C27.9901 144.157 28.085 144.725 27.7051 144.914C26.4705 145.767 26.5654 146.145 26.5654 146.145L34.5434 152.206C49.1697 163.286 62.1814 159.972 67.785 158.741C73.3886 157.415 76.2379 154.953 76.2379 154.953C76.8077 152.301 80.2269 151.733 80.2269 151.733C79.9419 148.797 83.2661 146.808 83.2661 146.808C83.456 143.494 85.9254 141.884 85.9254 141.884C85.9254 139.043 87.2551 137.244 87.2551 137.244C86.8752 134.592 88.4898 132.13 88.4898 132.13C87.635 129.289 89.1546 126.826 89.1546 126.826C88.3948 124.648 89.8194 121.997 89.8194 121.997C89.2496 120.103 90.1993 117.64 90.1993 117.64C89.9144 116.693 90.0094 114.989 90.0094 114.989C91.7189 104.856 100.552 102.488 100.647 100.026C100.742 97.4693 94.6632 97.8481 94.6632 97.8481Z" fill="url(#paint5_linear_3501_307660)"/>
<path d="M24.2861 142.357C24.2861 142.357 26.5656 140.653 28.1801 141.316C29.7947 141.884 32.3591 143.873 32.2641 144.441C32.2641 145.009 30.9344 146.051 30.2696 146.145C29.6048 146.335 26.9455 146.429 26.5656 146.24C26.5656 146.24 26.1857 145.956 27.6103 144.914C27.8952 144.725 27.8952 144.157 27.5153 144.062C26.4706 143.683 24.856 143.115 24.2861 142.357Z" fill="url(#paint6_linear_3501_307660)"/>
<path d="M29.4149 140.747C29.4149 140.747 32.4541 133.645 37.3929 133.929C42.3316 134.213 46.1307 136.296 50.2146 129.194C50.2146 129.194 47.6503 132.792 44.1362 132.792C40.6221 132.792 36.4431 130.425 32.0742 134.592C27.7053 138.759 27.6104 140.747 27.6104 140.747C27.6104 140.747 29.2249 140.558 29.4149 140.747Z" fill="url(#paint7_linear_3501_307660)"/>
<path d="M28.6545 140.653C28.6545 140.653 32.0737 140.084 31.5988 136.012C31.1239 131.372 35.0179 128.531 36.9175 127.489C36.9175 127.489 30.2691 129.857 30.2691 135.255C30.3641 140.653 26.1852 140.937 26.1852 140.937C26.1852 140.937 25.9952 141.316 26.755 141.221C26.945 141.221 27.5148 141.031 27.9897 140.842C28.3696 140.747 28.5596 140.653 28.6545 140.653Z" fill="url(#paint8_linear_3501_307660)"/>
<path d="M24.286 142.357C24.286 142.357 20.392 140.747 21.0568 137.149C21.0568 137.149 21.6267 141.126 24.9509 142.073L24.286 142.357Z" fill="url(#paint9_linear_3501_307660)"/>
<path d="M25.1412 141.884C25.1412 141.884 21.7221 136.296 25.7111 133.74C25.7111 133.74 24.6663 135.065 24.6663 137.054C24.6663 139.043 25.806 141.6 25.806 141.6L25.1412 141.884Z" fill="url(#paint10_linear_3501_307660)"/>
<path d="M39.672 142.547C41.1407 142.547 42.3313 141.444 42.3313 140.085C42.3313 138.725 41.1407 137.622 39.672 137.622C38.2033 137.622 37.0127 138.725 37.0127 140.085C37.0127 141.444 38.2033 142.547 39.672 142.547Z" fill="#C8E6CC"/>
<mask id="mask0_3501_307660" style="mask-type:luminance" maskUnits="userSpaceOnUse" x="37" y="137" width="6" height="6">
<path d="M39.672 142.547C41.1407 142.547 42.3313 141.444 42.3313 140.085C42.3313 138.725 41.1407 137.622 39.672 137.622C38.2033 137.622 37.0127 138.725 37.0127 140.085C37.0127 141.444 38.2033 142.547 39.672 142.547Z" fill="white"/>
</mask>
<g mask="url(#mask0_3501_307660)">
<g opacity="0.52">
<path d="M41.0967 139.232C41.1923 139.232 41.1923 139.328 41.0967 139.232V139.232Z" fill="#F2AF49"/>
<path d="M41.5723 140.274C41.5723 140.37 41.6686 140.274 41.5723 140.274V140.274Z" fill="#F2AF49"/>
<path d="M42.1416 139.611C42.1416 139.707 42.2373 139.707 42.1416 139.611V139.611Z" fill="#F2AF49"/>
<path d="M42.3316 141.222C42.2359 141.126 42.3316 141.126 42.3316 141.222V141.222Z" fill="#F2AF49"/>
<path d="M42.2363 140.653C42.332 140.653 42.332 140.748 42.2363 140.653V140.653Z" fill="#F2AF49"/>
<path d="M42.2373 142.358C42.2373 142.262 42.3337 142.358 42.2373 142.358V142.358Z" fill="#F2AF49"/>
<path d="M42.0469 139.422C42.1425 139.327 42.1425 139.422 42.0469 139.422V139.422Z" fill="#F2AF49"/>
<path d="M42.3325 140.274C42.2368 140.274 42.2368 140.37 42.3325 140.274V140.274Z" fill="#F2AF49"/>
<path d="M40.2422 141.126C40.3379 141.126 40.3379 141.222 40.2422 141.126V141.126Z" fill="#F2AF49"/>
<path d="M40.0532 140.179C39.9575 140.179 39.9575 140.275 40.0532 140.179V140.179Z" fill="#F2AF49"/>
<path d="M41.5728 141.885C41.5728 141.789 41.5728 141.789 41.5728 141.885C41.4771 141.789 41.5728 141.789 41.5728 141.885Z" fill="#F2AF49"/>
<path d="M41.2871 141.505C41.2871 141.601 41.3828 141.601 41.2871 141.505V141.505Z" fill="#F2AF49"/>
<path d="M41.6675 142.263C41.5718 142.263 41.5718 142.358 41.6675 142.263V142.263Z" fill="#F2AF49"/>
<path d="M41.4775 140.653C41.4775 140.749 41.5739 140.653 41.4775 140.653V140.653Z" fill="#F2AF49"/>
<path d="M40.5273 142.357C40.5273 142.453 40.623 142.453 40.5273 142.357C40.623 142.357 40.623 142.453 40.5273 142.357Z" fill="#F2AF49"/>
<path d="M40.6225 141.41C40.5269 141.41 40.5269 141.506 40.6225 141.41V141.41Z" fill="#F2AF49"/>
<path d="M40.0523 140.748C39.9566 140.653 40.0523 140.653 40.0523 140.748V140.748Z" fill="#F2AF49"/>
<path d="M40.2422 141.41C40.3379 141.41 40.3379 141.506 40.2422 141.41V141.41Z" fill="#F2AF49"/>
<path d="M40.3374 140.843C40.2418 140.747 40.3374 140.747 40.3374 140.843V140.843Z" fill="#F2AF49"/>
<path d="M41.3818 141.41C41.4775 141.41 41.4775 141.506 41.3818 141.41V141.41Z" fill="#F2AF49"/>
<path d="M41.667 142.263C41.667 142.167 41.7633 142.263 41.667 142.263V142.263Z" fill="#F2AF49"/>
<path d="M41.3824 140.748C41.2867 140.653 41.3824 140.653 41.3824 140.748V140.748Z" fill="#F2AF49"/>
<path d="M42.0474 141.789C41.9517 141.885 42.0474 141.885 42.0474 141.789V141.789Z" fill="#F2AF49"/>
<path d="M38.7232 141.506C38.7232 141.41 38.7232 141.41 38.7232 141.506C38.6275 141.41 38.7232 141.41 38.7232 141.506Z" fill="#F2AF49"/>
<path d="M37.2979 142.168C37.3935 142.168 37.3935 142.264 37.2979 142.168V142.168Z" fill="#F2AF49"/>
<path d="M40.2422 142.263C40.2422 142.359 40.3385 142.263 40.2422 142.263V142.263Z" fill="#F2AF49"/>
<path d="M39.3875 140.938C39.2912 140.938 39.3875 140.842 39.3875 140.938V140.938Z" fill="#F2AF49"/>
<path d="M39.3877 141.6C39.3877 141.696 39.484 141.6 39.3877 141.6V141.6Z" fill="#F2AF49"/>
</g>
</g>
<mask id="mask1_3501_307660" style="mask-type:luminance" maskUnits="userSpaceOnUse" x="37" y="137" width="6" height="6">
<path d="M39.672 142.547C41.1407 142.547 42.3313 141.444 42.3313 140.085C42.3313 138.725 41.1407 137.622 39.672 137.622C38.2033 137.622 37.0127 138.725 37.0127 140.085C37.0127 141.444 38.2033 142.547 39.672 142.547Z" fill="white"/>
</mask>
<g mask="url(#mask1_3501_307660)">
<g opacity="0.52">
<path d="M38.8182 141.884C38.7219 141.884 38.8182 141.98 38.8182 141.884V141.884Z" fill="#F2AF49"/>
<path d="M38.4375 140.937C38.4375 141.032 38.5332 141.032 38.4375 140.937C38.5332 140.937 38.5332 140.937 38.4375 140.937Z" fill="#F2AF49"/>
<path d="M38.1532 140.18C38.0568 140.18 38.1532 140.084 38.1532 140.18V140.18Z" fill="#F2AF49"/>
<path d="M38.4375 141.41C38.4375 141.506 38.5332 141.506 38.4375 141.41V141.41Z" fill="#F2AF49"/>
<path d="M38.5328 140.653C38.4371 140.748 38.5328 140.748 38.5328 140.653V140.653Z" fill="#F2AF49"/>
<path d="M38.2479 141.6C38.1515 141.6 38.2479 141.696 38.2479 141.6V141.6Z" fill="#F2AF49"/>
<path d="M39.5776 142.642C39.4819 142.546 39.4819 142.642 39.5776 142.642V142.642Z" fill="#F2AF49"/>
<path d="M39.4829 142.168C39.3873 142.263 39.4829 142.263 39.4829 142.168V142.168Z" fill="#F2AF49"/>
<path d="M37.7725 140.842C37.8681 140.747 37.8681 140.842 37.7725 140.842V140.842Z" fill="#F2AF49"/>
<path d="M37.4873 140.842C37.583 140.747 37.583 140.842 37.4873 140.842V140.842Z" fill="#F2AF49"/>
<path d="M37.3926 142.168C37.4882 142.073 37.4882 142.168 37.3926 142.168V142.168Z" fill="#F2AF49"/>
<path d="M37.5838 141.222C37.4875 141.222 37.5838 141.126 37.5838 141.222V141.222Z" fill="#F2AF49"/>
<path d="M37.6786 141.6C37.5822 141.6 37.6786 141.504 37.6786 141.6V141.6Z" fill="#F2AF49"/>
<path d="M37.583 141.505C37.583 141.601 37.6794 141.505 37.583 141.505V141.505Z" fill="#F2AF49"/>
</g>
</g>
<mask id="mask2_3501_307660" style="mask-type:luminance" maskUnits="userSpaceOnUse" x="37" y="137" width="6" height="6">
<path d="M39.672 142.547C41.1407 142.547 42.3313 141.444 42.3313 140.085C42.3313 138.725 41.1407 137.622 39.672 137.622C38.2033 137.622 37.0127 138.725 37.0127 140.085C37.0127 141.444 38.2033 142.547 39.672 142.547Z" fill="white"/>
</mask>
<g mask="url(#mask2_3501_307660)">
<g opacity="0.52">
<path d="M41.1914 139.422C41.1914 139.517 41.2871 139.517 41.1914 139.422V139.422Z" fill="#F2AF49"/>
<path d="M40.7158 140.463C40.8115 140.463 40.8115 140.559 40.7158 140.463V140.463Z" fill="#F2AF49"/>
<path d="M41.0014 139.801C40.9058 139.801 40.9058 139.896 41.0014 139.801V139.801Z" fill="#F2AF49"/>
<path d="M40.7158 138.001C40.8115 138.001 40.8115 138.097 40.7158 138.001V138.001Z" fill="#F2AF49"/>
<path d="M41.3809 139.801C41.4765 139.705 41.4765 139.801 41.3809 139.801V139.801Z" fill="#F2AF49"/>
<path d="M42.2363 139.706C42.2363 139.611 42.332 139.611 42.2363 139.706C42.2363 139.611 42.2363 139.611 42.2363 139.706Z" fill="#F2AF49"/>
<path d="M42.1406 140.085C42.2363 139.99 42.2363 140.085 42.1406 140.085C42.1406 139.99 42.1406 139.99 42.1406 140.085Z" fill="#F2AF49"/>
<path d="M42.0464 138.002C41.9507 137.906 41.9507 138.002 42.0464 138.002V138.002Z" fill="#F2AF49"/>
<path d="M42.1406 140.653C42.2363 140.653 42.2363 140.748 42.1406 140.653V140.653Z" fill="#F2AF49"/>
<path d="M42.1415 138.854C42.0451 138.854 42.1415 138.95 42.1415 138.854V138.854Z" fill="#F2AF49"/>
<path d="M42.2362 139.138C42.1398 139.138 42.2362 139.234 42.2362 139.138V139.138Z" fill="#F2AF49"/>
<path d="M41.7612 140.274C41.6655 140.274 41.6655 140.369 41.7612 140.274V140.274Z" fill="#F2AF49"/>
</g>
</g>
<mask id="mask3_3501_307660" style="mask-type:luminance" maskUnits="userSpaceOnUse" x="37" y="137" width="6" height="6">
<path d="M39.672 142.547C41.1407 142.547 42.3313 141.444 42.3313 140.085C42.3313 138.725 41.1407 137.622 39.672 137.622C38.2033 137.622 37.0127 138.725 37.0127 140.085C37.0127 141.444 38.2033 142.547 39.672 142.547Z" fill="white"/>
</mask>
<g mask="url(#mask3_3501_307660)">
<g opacity="0.52">
<path d="M42.0464 138.948C41.9507 138.853 41.9507 138.948 42.0464 138.948V138.948Z" fill="#F2AF49"/>
<path d="M40.4316 141.221C40.4316 141.126 40.5273 141.126 40.4316 141.221V141.221Z" fill="#F2AF49"/>
<path d="M40.812 141.789C40.7163 141.789 40.7163 141.885 40.812 141.789V141.789Z" fill="#F2AF49"/>
<path d="M39.7671 141.695C39.6715 141.79 39.7671 141.79 39.7671 141.695V141.695Z" fill="#F2AF49"/>
<path d="M39.957 139.706C40.0527 139.706 40.0527 139.801 39.957 139.706V139.706Z" fill="#F2AF49"/>
<path d="M40.6221 141.79C40.7177 141.79 40.7177 141.79 40.6221 141.79C40.6221 141.694 40.7177 141.694 40.6221 141.79Z" fill="#F2AF49"/>
<path d="M41.4766 141.411C41.5722 141.316 41.5722 141.316 41.4766 141.411V141.411Z" fill="#F2AF49"/>
<path d="M41.3818 139.516C41.4775 139.516 41.4775 139.612 41.3818 139.516V139.516Z" fill="#F2AF49"/>
<path d="M41.3818 141.789C41.4775 141.789 41.4775 141.885 41.3818 141.789C41.4775 141.789 41.4775 141.789 41.3818 141.789Z" fill="#F2AF49"/>
<path d="M41.477 142.357C41.3814 142.357 41.3814 142.453 41.477 142.357V142.357Z" fill="#F2AF49"/>
<path d="M41.002 141.884C41.0976 141.884 41.0976 141.979 41.002 141.884V141.884Z" fill="#F2AF49"/>
<path d="M41.0972 139.896C41.0015 139.8 41.0972 139.8 41.0972 139.896V139.896Z" fill="#F2AF49"/>
<path d="M41.0015 141.221C40.9058 141.316 41.0015 141.316 41.0015 141.221V141.221Z" fill="#F2AF49"/>
<path d="M40.9062 142.263C41.0019 142.263 41.0019 142.358 40.9062 142.263V142.263Z" fill="#F2AF49"/>
<path d="M41.3817 141.6C41.2853 141.6 41.3817 141.504 41.3817 141.6V141.6Z" fill="#F2AF49"/>
<path d="M41.3823 142.073C41.2866 142.073 41.2866 142.169 41.3823 142.073V142.073Z" fill="#F2AF49"/>
<path d="M41.8569 140.748C41.7612 140.653 41.7612 140.748 41.8569 140.748V140.748Z" fill="#F2AF49"/>
<path d="M41.952 142.168C41.8557 142.168 41.952 142.264 41.952 142.168V142.168Z" fill="#F2AF49"/>
<path d="M39.7676 142.168C39.7676 142.264 39.8639 142.168 39.7676 142.168V142.168Z" fill="#F2AF49"/>
<path d="M40.7176 141.411C40.6213 141.411 40.7176 141.315 40.7176 141.411V141.411Z" fill="#F2AF49"/>
<path d="M41.1924 141.411C41.288 141.315 41.288 141.411 41.1924 141.411V141.411Z" fill="#F2AF49"/>
<path d="M41.0971 142.263C41.0015 142.168 41.0015 142.263 41.0971 142.263V142.263Z" fill="#F2AF49"/>
<path d="M41.3827 142.169C41.2863 142.169 41.3827 142.073 41.3827 142.169V142.169Z" fill="#F2AF49"/>
<path d="M41.1922 142.452C41.0959 142.452 41.1922 142.548 41.1922 142.452V142.452Z" fill="#F2AF49"/>
<path d="M40.7173 141.884C40.6217 141.789 40.7173 141.789 40.7173 141.884V141.884Z" fill="#F2AF49"/>
<path d="M40.1465 142.168C40.1465 142.264 40.2428 142.168 40.1465 142.168V142.168Z" fill="#F2AF49"/>
<path d="M40.1465 142.357C40.1465 142.453 40.2428 142.357 40.1465 142.357V142.357Z" fill="#F2AF49"/>
<path d="M39.7671 142.168C39.6714 142.168 39.6714 142.263 39.7671 142.168C39.7671 142.263 39.7671 142.263 39.7671 142.168Z" fill="#F2AF49"/>
<path d="M39.5771 140.653C39.6728 140.558 39.6728 140.653 39.5771 140.653V140.653Z" fill="#F2AF49"/>
<path d="M39.6723 141.695C39.5767 141.6 39.6723 141.6 39.6723 141.695C39.5767 141.695 39.5767 141.695 39.6723 141.695Z" fill="#F2AF49"/>
<path d="M41.3823 142.073C41.2866 142.073 41.2866 142.169 41.3823 142.073V142.073Z" fill="#F2AF49"/>
<path d="M37.8676 142.357C37.772 142.357 37.772 142.453 37.8676 142.357V142.357Z" fill="#F2AF49"/>
<path d="M38.9126 141.032C38.817 140.937 38.9126 140.937 38.9126 141.032V141.032Z" fill="#F2AF49"/>
</g>
</g>
<path d="M38.9127 141.41C39.647 141.41 40.2423 140.817 40.2423 140.085C40.2423 139.352 39.647 138.759 38.9127 138.759C38.1783 138.759 37.583 139.352 37.583 140.085C37.583 140.817 38.1783 141.41 38.9127 141.41Z" fill="url(#paint11_linear_3501_307660)"/>
<path d="M38.2471 140.274C38.4569 140.274 38.627 140.104 38.627 139.895C38.627 139.686 38.4569 139.516 38.2471 139.516C38.0373 139.516 37.8672 139.686 37.8672 139.895C37.8672 140.104 38.0373 140.274 38.2471 140.274Z" fill="white"/>
<path d="M25.3302 0.306306C27.1348 0.401007 28.4644 0.401007 29.1293 0.306306C29.8891 0.211606 30.4589 0.495708 31.1238 1.06391C31.6936 1.63212 32.6434 2.38972 33.8781 3.43143C34.6379 4.28373 35.1127 4.85194 35.3027 5.23074C35.5876 5.51484 35.6826 6.08305 35.6826 6.74595C35.6826 7.40886 35.9675 8.63997 36.5374 10.4393C37.1072 12.2386 37.3922 14.6061 37.4871 17.5418C37.5821 20.4775 37.5821 24.1709 37.4871 28.5271C37.3922 32.978 37.0123 37.1449 36.1575 41.0276C35.3977 44.9103 35.1127 47.2778 35.3977 48.2248C35.6826 49.1718 36.2525 50.2136 37.1072 51.5394C37.962 52.8652 39.0068 54.2857 40.3364 55.7062C41.6661 57.2214 43.3756 58.926 45.4651 60.7253C47.5546 62.6193 48.7893 63.9452 49.2642 64.7975C49.739 65.6498 50.3089 66.6915 51.2587 68.0173L50.7838 68.4908L51.2587 69.8166C50.9737 69.5325 50.6888 69.3431 50.4988 69.3431L51.5436 71.6159L52.3034 72.0894V73.1311L50.4988 73.5099L50.7838 74.2675H48.8843C49.2642 74.9304 49.2642 75.4986 48.8843 75.9721L51.0687 77.2032H50.6888C50.5938 77.2032 50.3089 77.1086 49.834 76.8244C49.3591 76.5403 49.0742 76.4456 48.8843 76.4456C48.6943 76.4456 48.4094 76.3509 47.8395 76.1615L47.5546 76.635L49.0742 77.8661L46.6048 77.4874V78.245H45.1802L44.8953 78.7185L45.94 79.9496L45.6551 80.139C41.6661 78.4344 38.152 76.1615 35.1127 73.4152C32.1685 70.6689 29.6041 67.5438 27.5147 64.1346C23.9056 70.7636 19.3467 76.5403 13.9331 81.4648C10.0391 84.5899 5.76517 87.0521 1.20632 89.0408C0.636469 87.715 1.01637 86.5786 2.25106 85.6316L1.6812 85.5369L1.01637 85.6316V73.0364C4.43551 70.8583 7.56971 68.112 10.419 64.9869C10.9888 64.2293 11.3688 63.6611 11.6537 63.2822C11.9386 62.9981 12.0336 62.5246 12.1286 61.8617C12.2235 61.1988 12.6984 60.4412 13.4582 59.5889C14.313 58.6419 14.9778 57.8843 15.4527 57.1267C15.9276 56.3691 16.3075 55.8009 16.3075 55.3274C16.4025 54.8539 16.6874 54.2857 17.1623 53.6228C17.6372 52.9599 18.207 52.1076 18.9668 50.8765C19.7266 49.6454 20.2015 48.6036 20.5814 47.6566C20.9613 46.7096 21.1513 45.7626 21.2463 44.7209C21.3412 43.6792 21.6262 42.6375 22.0061 41.5011C22.4809 40.3647 22.6709 39.5124 22.6709 38.8495C22.6709 38.1866 22.7659 37.5237 22.9558 36.6714C23.1458 35.8191 23.3357 34.1144 23.3357 31.5575C23.4307 28.9059 23.4307 26.1596 23.3357 23.3186C23.2407 20.4775 22.9558 17.3524 22.386 14.1326C21.8161 10.9128 21.4362 9.01877 21.1513 8.45056C20.8664 7.88236 20.5814 7.21945 20.2015 6.55655L17.8271 4.56784C18.5869 4.56784 19.2518 4.37844 20.0116 3.99963V2.76852L21.5312 1.72682V1.06391C21.9111 0.969211 22.196 0.87451 22.386 0.77981C22.5759 0.685109 22.8608 0.590408 23.2407 0.590408C23.7156 0.590408 24.3805 0.495708 25.3302 0.306306ZM45.845 103.625L44.9902 104.382L45.6551 104.477C44.4204 105.235 43.0907 105.708 41.856 105.898L42.9008 105.14L42.6158 104.856C36.7273 106.939 30.6489 108.549 24.3805 109.686V109.307L23.5257 109.117C24.0955 109.023 24.4754 108.928 24.6654 108.833C24.8553 108.739 25.1403 108.644 25.6151 108.739C26.09 108.739 26.375 108.739 26.6599 108.644C26.9448 108.549 27.1348 108.36 27.3247 108.17L26.4699 107.886L27.0398 107.792V107.413C27.6096 107.507 28.0845 107.413 28.5594 107.034C28.3694 107.413 28.3694 107.792 28.5594 108.076C28.9393 107.792 29.3192 107.697 29.6991 107.507C30.079 107.413 30.4589 107.318 30.9338 107.318C31.4087 107.318 31.7886 107.223 32.1685 107.129C32.5484 106.939 33.2132 106.75 34.3529 106.56V106.087H33.5931C33.7831 105.992 34.068 105.898 34.4479 105.613C34.9228 105.424 35.3027 105.235 35.4926 105.329C35.6826 105.329 35.9675 105.329 36.2525 105.14C36.5374 104.951 36.8223 104.856 37.1072 104.856C37.3922 104.856 37.5821 104.856 37.7721 104.856C37.962 104.856 38.2469 104.761 38.8168 104.572L39.1017 104.951C40.3364 105.329 41.6661 105.14 42.9008 104.193H41.856L44.0405 103.246L43.7556 102.867L45.0852 102.299C45.4651 102.583 46.035 102.678 46.6048 102.394C46.3199 102.583 46.3199 102.867 46.5099 102.962L48.2194 102.204C48.2194 101.92 48.0295 101.541 47.7445 101.257L48.0295 101.163L48.5044 101.636L51.3536 100.216L51.0687 99.8367L55.7225 97.5639C55.4376 97.7533 55.4376 97.9427 55.7225 98.1321L57.2421 97.1851V96.7116C59.3316 95.4805 61.5161 94.4388 63.8905 93.4918L64.3653 92.6395L64.0804 92.4501C62.8457 93.0183 61.801 93.4918 60.9462 93.9653C60.1864 94.4388 59.1417 95.007 57.812 95.7646C56.4823 96.5222 55.1527 97.1851 53.823 97.7533C52.4933 98.3215 51.4486 98.795 50.5938 99.1738C49.834 99.5526 49.0742 99.742 48.3144 99.742L47.7445 100.594L45.94 101.068L45.4651 101.825C45.1802 101.92 44.8953 101.92 44.6103 101.92C44.2304 101.92 43.0907 102.204 41.1912 102.962C39.2917 103.719 36.9173 104.382 34.258 105.14C31.5986 105.898 29.6041 106.371 28.2745 106.655C27.3247 106.845 26.28 107.129 25.1403 107.413C25.4252 107.318 25.6151 107.223 25.7101 107.034L25.3302 106.939L23.8106 107.413C24.2855 107.602 24.7604 107.602 25.1403 107.413C24.5704 107.602 24.0006 107.697 23.4307 107.886V107.413C23.1458 107.413 22.9558 107.413 22.7659 107.318C22.5759 107.318 22.291 107.413 21.8161 107.697C21.3412 107.981 20.5814 108.17 19.4417 108.265C18.302 108.36 16.6874 108.549 14.503 108.739C15.0728 108.644 15.6427 108.454 16.3075 107.981C15.0728 108.17 14.0281 108.265 13.0783 108.076L12.6034 108.644L11.2738 108.739L10.9888 108.928C9.56421 108.928 8.51947 108.928 7.75967 108.833C6.99986 108.833 6.61995 108.833 6.52498 108.928C6.43 109.023 6.24005 109.212 5.76517 109.307C5.57522 109.117 5.48024 109.023 5.29029 108.928C5.10034 108.833 4.72044 108.833 4.0556 108.833C3.39077 108.833 2.44101 108.928 1.20632 108.928V108.454L1.6812 108.36C1.96613 108.454 2.15608 108.454 2.44101 108.549C2.72594 108.549 3.39077 108.549 4.72044 108.454L10.419 108.076L10.7039 107.697L10.1341 107.602L13.5532 107.034V106.845L1.01637 107.318V104.477C3.01087 104.761 4.91039 104.572 6.71493 104.098C6.52498 103.909 6.33503 103.814 6.14507 103.625C5.95512 103.435 5.57522 103.435 5.00536 103.53C4.43551 103.625 3.6757 103.625 2.63096 103.53V103.909H1.39628L1.01637 102.299L6.52498 102.11L6.80991 101.825C6.0501 101.825 5.57522 101.825 5.19531 101.731C4.81541 101.731 4.53048 101.636 4.34053 101.541C4.15058 101.447 3.86565 101.352 3.48575 101.352C3.10584 101.352 2.82092 101.447 2.53599 101.541C2.25106 101.636 1.87116 101.731 1.39628 101.825L1.01637 101.068C5.00536 101.257 8.89938 100.878 12.7934 100.026L12.5085 99.742C8.8044 100.31 5.00536 100.5 1.3013 100.31L1.01637 99.9314L2.72594 99.8367V99.4579L1.39628 99.3632L1.01637 93.6812C4.43551 93.3971 6.80991 93.3971 8.13957 93.3971C9.46923 93.4918 10.6089 93.3024 11.4637 92.8289C12.3185 92.3554 13.2683 92.2607 14.408 92.4501C15.4527 92.6395 16.3075 92.5448 16.9723 91.9766C17.6372 91.4083 18.302 91.1242 19.1568 91.2189C19.9166 91.2189 20.7714 91.2189 21.5312 91.0295C22.291 90.8401 23.2407 90.7454 24.1905 90.6507C25.1403 90.6507 26.5649 90.3666 28.5594 89.8931C30.5539 89.4196 33.1182 88.7567 36.2525 87.9044C39.3867 86.9574 42.2359 86.0104 44.6103 85.0634C46.9847 84.1164 49.1692 82.98 51.1637 81.8436C53.1582 80.7072 54.9627 79.4761 56.4823 78.245C58.0969 77.0138 59.3316 75.9721 60.3763 75.1198C61.3261 74.2675 62.9407 72.847 65.0302 70.953C66.4548 69.1537 67.4995 67.8279 68.1644 67.0703C68.8292 66.3127 69.494 65.0816 70.3488 63.3769C71.2036 61.6723 71.9634 59.6836 72.6283 57.4108C73.3881 55.2327 73.9579 52.8652 74.4328 50.4977C74.9077 48.1301 75.1926 45.5732 75.1926 43.0163C75.1926 40.4594 75.0976 38.0919 74.9077 36.1032C74.7177 34.0197 74.5278 32.5045 74.3378 31.5575C74.1479 30.6105 73.8629 29.19 73.483 27.2013L72.9132 26.8225L73.483 26.349C72.6283 26.349 71.9634 26.349 71.4885 26.2543C71.0136 26.2543 70.3488 26.349 69.3991 26.8225C68.4493 27.2013 66.7397 27.5801 64.2704 27.8642C61.706 28.1483 60.2814 28.243 60.0914 28.0536C59.8065 27.8642 59.4266 27.6748 58.9517 27.296C58.6668 26.5384 58.4768 25.8755 58.3819 25.4967C58.2869 25.0232 58.2869 24.455 58.2869 23.508C58.2869 22.6557 58.3819 21.8034 58.6668 20.951C58.9517 20.0987 59.0467 19.2464 59.0467 18.2994C59.0467 17.3524 58.9517 16.7842 58.6668 16.5001C58.3819 16.216 58.0019 15.7425 57.4321 15.1743C57.622 14.7955 57.717 14.4167 57.812 14.1326C57.907 13.8485 58.0019 13.5644 58.0969 13.0909C58.1919 12.7121 58.3819 12.3333 58.8567 11.9545C59.2366 11.5757 59.6165 11.1969 59.9015 10.9128C60.1864 10.534 60.6613 10.0605 61.4211 9.39757H62.4658L62.7507 8.35586C63.1306 8.35586 63.6055 8.26116 63.9854 8.16646C64.4603 8.07176 65.5051 8.07176 67.3096 8.35586C69.1141 8.63997 71.2986 8.63997 73.9579 8.45056C76.6172 8.26116 80.8912 8.26116 86.6847 8.26116C92.4782 8.26116 95.8024 8.26116 96.6572 8.16646C97.5119 8.07176 98.2718 7.88236 98.9366 7.59826H99.2215L98.8416 8.26116L99.6014 8.54526L98.8416 8.82937L99.6014 9.68167C101.406 10.3446 103.305 10.4393 105.3 10.1552L105.585 26.2543C100.456 26.2543 95.2325 26.1596 90.1038 25.8755C90.1038 25.9702 90.3887 27.8642 90.9586 31.6522C91.5285 35.4403 91.8134 38.8495 91.8134 41.8799C91.8134 44.9103 91.7184 47.7513 91.5285 50.403C91.3385 53.0546 90.9586 55.6115 90.4837 58.0737C90.0088 60.5359 89.344 62.9034 88.6792 65.271C87.9194 67.6385 87.0646 69.9113 85.9249 72.0894C84.7852 74.2675 83.7404 76.3509 82.6957 78.1503C81.651 79.9496 80.7962 81.2754 80.0364 82.033C79.2766 82.7906 78.2318 84.2111 76.8072 86.1051C75.1926 87.8097 74.0529 88.9461 73.1981 89.7984C72.3433 90.556 71.6785 91.0295 71.1086 91.0295C70.5388 91.0295 70.1589 91.2189 69.8739 91.7871C69.589 92.2607 68.8292 93.0183 67.5945 93.9653L67.3096 94.9123C66.5498 94.8176 66.0749 94.9123 65.6 95.2911L66.4548 95.6699L66.1699 95.8593L65.1251 95.4805L65.885 94.6282V94.2494L58.9517 98.3215L59.4266 98.6056C59.1417 99.1738 58.8567 99.5526 58.6668 99.8367C57.4321 100.689 56.2924 101.257 55.2476 101.541L54.9627 102.015L54.6778 101.825C54.2979 102.11 53.918 102.299 53.6331 102.204L55.1527 101.257L54.2979 100.784L53.823 101.541C52.6833 101.731 51.7335 102.299 50.8787 103.057L50.5938 102.678C50.7838 103.435 50.5938 103.909 50.2139 104.382V103.057C48.9792 103.341 48.0295 103.814 47.3646 104.572V104.193C47.3646 104.098 47.5546 103.909 47.9345 103.625C48.3144 103.341 48.5044 103.151 48.5044 103.057V102.962L46.6998 103.53L46.4149 104.004L45.6551 104.477L46.13 103.719L45.845 103.625ZM5.86015 17.7312C6.71493 17.9206 7.75967 18.0153 9.08933 18.11L9.65919 18.9623C10.514 19.7199 11.5587 20.1934 12.7934 20.2881C12.7934 20.5722 13.0783 20.8563 13.5532 21.3299C14.0281 21.8034 14.503 22.3716 14.8829 23.1292C15.2628 23.8868 15.5477 25.2126 15.7376 27.1066C15.9276 29.0006 16.0226 32.031 16.0226 36.1032V45.952C16.0226 48.4142 15.8326 50.1189 15.4527 50.9712C15.0728 51.9182 14.8829 52.5811 14.7879 53.0546C14.6929 53.5281 14.503 54.3804 14.313 55.5168L13.5532 55.6115L12.1286 57.032V56.5585H11.8436L11.5587 57.6002C11.2738 56.8426 10.8939 56.2744 10.6089 55.7062L9.75416 58.5472V57.6002C9.75416 57.4108 9.75416 57.032 9.84914 56.4638C9.94411 55.8956 9.94411 55.138 9.94411 54.3804L7.75967 53.8122C7.56971 54.0016 7.47474 54.2857 7.37976 54.8539C7.28479 55.4221 7.18981 55.8956 6.99986 56.1797C6.80991 56.5585 6.52498 57.1267 6.24005 57.8843C5.95512 57.6949 5.95512 57.5055 6.0501 57.3161C6.14507 57.1267 6.33503 56.7479 6.43 56.2744C6.61995 55.8009 6.71493 55.138 6.71493 54.4751L5.86015 54.3804L5.38527 55.6115L4.81541 55.4221L4.34053 55.6115L3.96063 54.8539C3.20082 54.5698 2.53599 54.5698 1.77618 55.0433L1.01637 54.5698V18.4888C2.72594 18.5835 4.34053 18.2994 5.86015 17.7312ZM5.10034 84.4005L4.24556 85.1581H5.10034L5.38527 84.5899L5.10034 84.4005ZM6.99986 82.1277L5.10034 83.4535L5.48024 83.6429C6.24005 83.4535 6.80991 82.8853 7.28479 82.2224L6.99986 82.1277ZM24.0006 96.4275C23.7156 96.6169 21.5312 96.9957 17.5422 97.5639C13.5532 98.1321 11.3688 98.5109 11.1788 98.6056L10.419 98.795L9.94411 98.6056L8.61445 99.3632L8.89938 99.5526C13.9331 98.795 18.9668 97.9427 24.0006 96.8063L24.4754 96.4275H24.0006ZM10.9888 101.257L8.89938 101.636L9.18431 102.015C10.0391 102.11 10.7989 101.92 11.3688 101.447L10.9888 101.257ZM24.6654 92.7342L24.5704 92.6395C24.4754 92.5448 23.8106 92.6395 22.4809 92.9236C21.1513 93.2077 19.3467 93.6812 17.0673 94.2494L16.4975 94.5335L16.2125 94.2494C14.9778 94.2494 13.8381 94.6282 12.9833 95.4805H14.313C14.6929 95.4805 15.0728 95.3858 15.3577 95.1964C15.6427 95.007 16.0226 94.9123 16.5924 94.9123C17.0673 94.9123 17.9221 94.8176 19.1568 94.3441C20.3915 93.9653 21.5312 93.5865 22.8608 93.3024C24.0955 93.113 24.6654 92.9236 24.6654 92.7342ZM16.4975 98.9844C15.2628 99.1738 14.1231 99.3632 13.0783 99.742L13.3632 100.216C14.503 100.026 15.5477 99.742 16.5924 99.2685V98.9844H16.4975ZM18.397 110.064L15.7376 111.295C15.3577 111.011 14.7879 110.822 14.0281 110.917L16.4025 110.064H18.397ZM22.6709 105.803C21.0563 105.992 19.9166 106.087 19.0618 106.087C18.302 106.087 17.7321 106.087 17.5422 106.182C17.3522 106.276 17.0673 106.371 16.7824 106.655C16.9723 106.75 17.0673 106.75 17.2573 106.75C17.4472 106.75 17.8271 106.655 18.5869 106.466C19.3467 106.276 19.9166 106.276 20.3915 106.466C20.8663 106.655 21.1513 106.655 21.4362 106.466C21.7211 106.276 22.101 106.087 22.5759 105.898V105.803H22.6709ZM20.8663 106.939L17.2573 107.129V107.507H20.4864L21.0563 107.034L20.8663 106.939ZM41.3812 97.4692C41.0962 97.4692 41.0013 97.4692 41.0013 97.3745C41.0013 97.2798 40.2414 97.4692 38.7218 97.9427C37.2022 98.4162 36.1575 98.7003 35.5876 98.795C35.0178 98.8897 34.6379 99.0791 34.5429 99.2685C34.4479 99.4579 34.258 99.6473 33.7831 99.8367L33.4981 99.4579C33.2132 99.5526 32.7383 99.6473 32.0735 99.9314C31.4087 100.121 30.7438 100.31 29.8891 100.5C29.0343 100.594 28.3694 100.784 27.7046 101.068C27.1348 101.352 25.7101 101.731 23.5257 102.299C21.3412 102.772 19.9166 103.057 19.3467 103.057L20.0116 102.583L19.7266 102.299C19.3467 102.488 18.9668 102.583 18.5869 102.583C18.207 102.583 18.0171 102.678 17.9221 102.772C17.8271 102.962 17.6372 103.057 17.4472 103.151L18.0171 103.435C17.8271 103.625 17.7321 103.719 17.7321 103.909C22.6709 103.625 27.5147 102.583 32.3584 100.973L32.6434 100.405L33.0233 100.594C34.258 100.121 35.0178 99.8367 35.5876 99.6473C36.0625 99.4579 36.6324 99.3632 37.2972 99.3632C37.962 99.3632 38.5319 99.1738 39.0068 98.8897C39.4816 98.6056 39.9565 98.4162 40.2414 98.2268C40.6213 98.0374 40.9063 97.7533 41.3812 97.4692ZM20.8663 97.9427L20.2965 98.5109C20.8663 98.6056 21.4362 98.5109 22.0061 98.1321L20.8663 97.9427ZM23.6207 105.14L23.2407 105.898C23.9056 105.992 24.6654 105.898 25.5202 105.803L25.9001 105.235H23.6207V105.14ZM25.3302 106.087L24.0006 106.56L23.6207 106.75C24.1905 106.939 24.7604 106.75 25.3302 106.182V106.087ZM27.2297 100.594L24.7604 101.352V101.731C25.7101 101.825 26.6599 101.447 27.5147 100.784L27.2297 100.594ZM31.2187 105.14L30.8388 105.519H32.2635L32.5484 105.14H31.2187ZM39.9565 102.772L37.0123 103.719V104.004C38.152 103.909 39.1017 103.53 39.9565 102.962V102.772ZM38.6269 104.856L37.2972 105.235V105.803H38.3419L38.8168 104.951L38.6269 104.856ZM50.024 14.322C50.4039 14.322 50.6888 14.322 50.8787 14.2273C51.0687 14.1326 51.3536 14.322 51.9235 14.7955C52.4933 15.269 53.3481 15.9319 54.6778 16.8789L55.4376 19.057H54.6778V26.5384C54.6778 28.1483 54.5828 30.6105 54.2979 34.1144C54.013 37.6184 53.728 39.6071 53.3481 40.0806C52.9682 40.5541 52.4933 41.6905 51.7335 43.4898L50.8787 42.9216L49.834 43.3951C49.6441 45.0997 49.4541 46.6149 49.2642 48.0354C48.9792 46.3308 48.9792 44.5315 49.2642 42.7322C48.7893 43.0163 48.4094 43.2057 48.1244 43.3004C47.8395 43.3004 47.5546 43.5845 47.3646 43.8686C47.0797 44.2474 46.7948 44.4368 46.5099 44.4368C46.13 44.4368 45.6551 44.5315 45.1802 44.6262L44.3254 45.0997L42.141 45.5732L41.856 44.7209L39.1017 45.1944L40.3364 44.4368L41.3812 43.3951C41.3812 42.6375 41.2862 41.9746 41.1912 41.5958C41.0962 41.217 41.0013 40.3647 41.0013 39.2283C41.0013 37.9972 41.0962 36.9555 41.2862 35.9138C41.4761 34.872 41.5711 33.925 41.4761 32.978C41.3812 32.031 41.4761 30.7999 41.5711 29.19C41.7611 27.5801 42.046 25.8755 42.6158 24.0762C43.1857 22.1822 43.4706 21.0458 43.4706 20.4775V18.2994L42.046 17.5418L45.6551 15.6478L46.9847 14.7008L48.2194 15.0796L48.7893 14.7008L49.2642 14.8902L50.024 14.322ZM42.046 102.11C41.5711 102.11 41.0962 102.299 40.5264 102.583C41.0962 102.772 41.5711 102.678 42.046 102.11ZM44.8003 96.3328C44.6103 96.3328 44.4204 96.3328 44.2304 96.2381C44.0405 96.1434 43.7556 96.2381 43.4706 96.4275C43.1857 96.6169 42.7108 96.8063 41.951 96.9957C42.7108 97.5639 43.3757 97.5639 44.1355 96.9957L44.8003 96.3328ZM45.845 103.151C44.7053 103.435 43.7556 103.909 42.9008 104.382C42.9008 104.477 42.9957 104.477 43.1857 104.477C43.3757 104.477 43.6606 104.382 44.1355 104.098C44.6103 103.909 45.1802 103.625 45.845 103.341V103.151ZM46.9847 100.405C46.7948 100.405 46.6998 100.405 46.6048 100.31C46.5099 100.216 46.2249 100.31 45.6551 100.5C45.0852 100.784 44.2304 101.163 43.1857 101.731V101.92C44.4204 101.825 45.6551 101.352 46.9847 100.405ZM46.9847 98.3215L45.94 98.7003V99.0791L47.2697 98.5109L46.9847 98.3215ZM46.9847 102.488L46.6048 102.583C46.6998 102.583 46.7948 102.488 46.9847 102.488ZM54.2979 99.2685L51.3536 100.594V101.068L52.7783 100.5L49.1692 102.394L49.5491 102.867L53.2532 100.973V100.405L54.6778 99.4579L54.2979 99.2685ZM55.3426 99.3632L53.823 99.9314V100.405L55.3426 99.5526V99.3632ZM55.7225 99.9314L54.8677 100.405L55.1527 100.689L56.0075 100.216L55.7225 99.9314ZM57.907 97.3745L55.1527 98.795V99.2685C56.2924 98.795 57.2421 98.2268 58.0969 97.4692L57.907 97.3745ZM57.907 98.9844L56.8622 99.4579L56.0075 100.5L56.2924 100.878L57.1472 99.9314H57.622L58.1919 99.1738L57.907 98.9844ZM60.3763 95.8593L58.5718 96.901L58.8567 97.3745L60.7563 95.954L60.3763 95.8593ZM67.1196 93.2077L66.2649 93.9653L66.5498 94.2494L67.4046 93.3971L67.1196 93.2077ZM68.2594 89.4196L67.4046 90.1772V90.556L68.2594 90.3666L68.5443 89.609L68.2594 89.4196ZM70.1589 90.7454L68.7342 91.7871L69.1141 92.166L70.1589 90.8401V90.7454Z" fill="white"/>
<path d="M91.9083 73.1312L92.953 74.0782C93.2379 74.1729 93.5229 74.1729 93.7128 74.1729C93.9028 74.1729 94.2827 74.1729 94.9475 74.2676C95.6123 74.3623 96.0872 74.5517 96.4671 74.8358C96.847 75.1199 97.4169 75.404 98.1767 75.5934C98.3666 75.8775 98.5566 75.9722 98.7465 76.0669C98.9365 76.1616 99.0315 76.5404 99.0315 77.3927C99.0315 78.1503 98.7465 78.8132 98.1767 79.192C97.6068 79.6655 97.132 80.2337 96.847 81.086C96.4671 81.9383 95.8023 83.3589 94.8525 85.537C94.7576 85.6317 94.9475 85.6317 95.3274 85.6317C95.7073 85.6317 98.1767 85.2529 102.831 84.59C107.389 83.9271 111.853 83.3589 116.222 83.0748C120.591 82.696 125.15 82.5066 130.089 82.5066C135.027 82.5066 139.871 82.5066 144.81 82.5066C149.654 82.5066 153.263 82.6959 155.352 82.8853C157.537 83.0748 159.816 83.2642 162.285 83.2642C164.755 83.2642 170.833 84.0218 180.521 85.4423L180.806 94.5335H175.772V94.8176L178.146 95.3858H174.442L174.157 95.007C169.504 95.007 164.945 94.7229 160.576 94.06L160.291 94.3441C160.576 96.1434 160.671 97.3746 160.861 98.0375C160.956 98.7004 161.051 99.0792 161.146 99.2686L161.621 99.6474C163.33 99.9315 164.565 100.121 165.42 100.216C166.274 100.31 167.319 100.31 168.649 100.31C169.884 100.31 170.738 100.31 171.118 100.216C171.498 100.121 171.973 100.216 172.543 100.31L173.113 101.163L180.331 102.11L180.616 103.909L178.906 103.625V104.098L180.331 104.193L180.616 105.045C180.046 105.329 179.666 105.424 179.286 105.519L180.331 105.803L180.616 109.212C179.476 108.833 178.431 108.644 177.482 108.739L176.532 109.78C174.442 109.496 172.638 109.212 171.118 109.023C169.599 108.833 167.699 108.549 165.42 108.265C163.14 107.981 161.811 107.981 161.431 108.17L161.716 108.644C164.375 109.023 166.369 109.212 167.699 109.307C169.029 109.307 170.073 109.402 170.928 109.591C171.783 109.78 172.448 109.78 173.018 109.78C173.588 109.78 174.062 109.78 174.442 109.97C174.727 110.159 175.202 110.254 175.867 110.443H174.157C173.493 110.443 172.353 110.349 170.643 110.064C168.934 109.78 167.794 109.686 167.224 109.78C166.654 109.78 165.99 109.78 165.23 109.686L165.61 109.591L161.716 109.307L160.956 112.432L161.431 113C162.665 113.095 163.805 113.095 164.66 113.095C165.61 113.095 167.034 113.095 169.029 113.19C171.023 113.284 172.258 113.379 172.828 113.379L174.537 113.663L174.062 113.947L174.632 114.421L174.157 114.799C175.297 115.273 176.532 115.462 177.862 115.368V114.799H178.621V114.421L177.197 114.137H180.426L180.711 123.985C180.521 124.175 180.046 124.175 179.191 124.08C178.336 123.985 175.107 123.796 169.409 123.512C163.71 123.323 160.386 123.228 159.436 123.323L159.151 123.701L170.358 124.27C166.749 124.08 164.09 123.985 162.475 123.891C160.861 123.796 159.911 123.796 159.626 123.891C159.341 123.985 159.056 124.08 158.771 124.27V128.342C159.626 128.531 161.811 128.626 165.325 128.72C168.839 128.815 171.973 129.005 174.822 129.289C177.672 129.573 179.191 129.762 179.381 129.857C179.666 129.952 179.951 129.952 180.426 129.952L180.711 137.906L179.856 137.622L179.761 137.906C176.152 137.528 172.638 137.338 169.219 137.338C172.923 138.096 176.722 138.38 180.521 138.38V138.569C166.749 137.812 159.721 137.528 159.626 137.622C159.436 137.717 159.246 137.812 159.056 137.906V142.547C159.056 143.494 159.056 144.062 159.151 144.251C159.151 144.441 159.246 144.63 159.436 144.82C159.816 144.82 160.291 144.82 160.671 144.725C161.146 144.725 163.52 144.63 167.794 144.535C172.163 144.441 174.727 144.725 175.487 145.293C176.342 145.861 176.912 146.145 177.292 146.145C177.672 146.145 178.241 146.24 179.096 146.24L179.476 145.861L180.521 146.335L180.806 157.983C180.236 157.983 179.191 157.888 177.577 157.699C175.962 157.509 174.062 157.32 172.068 157.32C169.979 157.225 167.984 157.131 165.895 157.036C163.805 156.941 161.811 156.847 159.816 156.847C159.911 157.794 160.006 158.741 160.101 159.593C160.196 160.54 160.291 162.813 160.386 166.506C160.481 170.199 160.291 173.04 160.006 175.124C159.626 177.207 159.341 178.438 159.151 178.722C158.961 179.007 158.581 179.385 158.107 179.764L158.012 179.575L157.252 181.09V180.048C156.777 180.332 156.587 180.806 156.777 181.279L155.827 181.848L155.542 181.469L154.592 182.51L154.023 181.563L153.263 182.51V182.132C152.883 182.132 152.598 182.037 152.408 181.848C152.218 181.658 152.123 181.753 152.028 181.942C151.933 182.132 151.743 182.321 151.458 182.321L151.363 181.374L150.793 181.753C150.698 181.658 150.698 181.563 150.698 181.469L150.603 181.279C150.508 181.279 150.413 181.185 150.318 180.995L149.844 181.753L148.989 182.321C148.704 182.132 148.609 181.942 148.514 181.753C148.419 181.469 148.229 181.374 148.039 181.469C147.754 181.469 147.469 181.469 146.994 181.374L147.279 181.185L146.424 180.711L146.329 181.279C145.475 180.522 144.525 180.048 143.48 179.575C143.765 179.101 144.05 178.722 144.335 178.533C144.62 178.249 144.62 177.775 144.335 176.828C144.05 175.976 144.05 172.567 144.335 166.601C144.62 160.635 144.715 157.604 144.525 157.509C144.335 157.415 144.24 157.225 144.05 157.131C141.011 157.415 138.541 157.509 136.642 157.699C134.742 157.794 132.558 158.078 130.184 158.551C127.809 159.025 126.005 159.498 124.77 159.877C123.535 160.351 122.491 160.54 121.636 160.635C120.781 160.729 120.116 160.635 119.831 160.256C119.451 159.972 118.976 159.782 118.217 159.877C117.457 159.877 116.887 159.782 116.412 159.403C115.937 159.025 115.177 158.551 114.323 158.078L113.848 157.225C114.038 156.941 114.133 156.657 114.133 156.373C114.133 156.089 114.228 155.805 114.418 155.521C114.608 155.237 114.797 154.763 114.987 154.29C115.177 153.816 115.367 153.343 115.652 152.869C115.937 152.396 116.127 152.017 116.222 151.638C116.317 151.259 116.602 150.88 117.172 150.502H118.027C118.312 150.502 118.691 150.312 119.166 149.744C119.641 149.271 120.021 148.986 120.401 148.892C120.781 148.797 121.161 148.797 121.636 148.797C122.016 148.039 122.301 147.471 122.491 147.092C122.68 146.714 122.775 146.43 122.775 146.145C122.775 145.861 122.68 145.482 122.68 144.914L121.826 144.82L122.301 144.346C122.965 144.251 123.63 143.873 124.295 143.304V142.831L125.53 141.789L126.385 140.369C127.049 140.369 127.524 140.274 127.904 140.179C128.284 140.085 128.949 140.085 129.899 140.085C130.848 140.179 131.608 140.369 132.083 140.747C132.558 141.126 133.128 141.6 133.793 142.263C134.268 142.736 134.552 143.21 134.552 143.588C134.552 143.967 134.647 144.346 134.647 144.725C134.647 145.104 134.647 145.482 134.742 145.861C134.742 146.24 134.932 146.619 135.122 146.903L144.905 145.482C145.095 145.293 145.19 145.198 145.285 145.198C145.38 145.198 145.475 144.062 145.665 141.789C145.855 139.611 145.76 138.38 145.475 138.191C145.19 138.001 144.905 137.717 144.715 137.338C142.056 137.528 139.966 137.717 138.257 137.717C136.547 137.717 134.932 137.906 133.318 138.285C131.703 138.664 130.563 138.853 129.804 138.853C129.044 138.853 128.284 138.948 127.619 139.138C126.954 139.327 126.195 139.516 125.34 139.516C124.58 139.516 124.01 139.611 123.82 139.706C123.63 139.8 123.44 139.895 123.155 139.99C123.155 139.706 123.155 139.516 123.25 139.232C123.25 139.043 123.345 138.759 123.345 138.38V137.433C123.345 137.149 123.345 136.77 123.25 136.391C122.68 136.297 122.206 136.391 121.731 136.77C119.641 139.611 117.457 142.357 115.177 144.914C112.898 147.282 109.764 150.123 105.87 153.532C101.976 156.847 98.3666 159.782 94.9475 162.339C91.5284 164.801 89.4389 166.222 88.6791 166.601C87.9193 166.98 87.1595 167.358 86.5896 167.832C86.0198 168.305 85.165 168.779 84.0253 169.347C82.8856 169.821 80.7961 170.862 77.7569 172.472V162.907C80.8911 160.729 83.3604 159.214 84.975 158.362C86.6846 157.415 88.7741 155.994 91.3384 154.1C93.9028 152.206 95.5174 150.88 95.9922 150.218L93.7128 147.945H94.1877L94.0927 147.471C93.8078 147.471 93.6178 147.471 93.3329 147.377C93.048 147.282 92.6681 146.998 92.0033 146.335C91.3384 145.767 90.8635 145.388 90.4836 145.388C90.1037 145.388 89.6289 145.293 89.154 145.104C85.5449 147.755 81.6509 150.123 77.5669 152.112C77.4719 148.229 77.4719 145.482 77.4719 143.873C77.4719 142.263 77.4719 141.316 77.5669 141.221C77.5669 141.032 77.7569 140.937 77.9468 140.842C78.6116 140.085 79.3714 139.8 80.4162 139.8L81.271 138.948C81.081 138.569 80.986 138.285 80.8911 138.191C80.7961 138.096 80.7961 137.906 80.7011 137.528C80.7011 137.149 80.1313 136.486 79.1815 135.539C78.2317 134.592 77.6619 134.118 77.5669 134.118L77.4719 133.834L77.7569 133.74L78.9915 134.592L79.5614 134.118L78.8016 133.645C79.2765 133.834 79.7514 134.118 80.3212 134.308C80.7961 134.497 81.271 134.687 81.5559 134.876C81.8408 135.065 82.0308 135.16 82.2207 135.255C82.4107 135.255 82.5057 135.35 82.6956 135.35L79.5614 131.94C79.9413 132.319 80.4162 132.509 80.986 132.414L80.2262 131.656H80.986L81.3659 131.088C82.0308 131.277 82.5057 131.372 82.7906 131.372C83.0755 131.372 83.7403 131.561 84.5951 131.846C85.4499 132.13 86.7796 132.603 88.6791 133.361C90.5786 131.183 92.0032 129.762 92.858 129.099C93.7128 128.342 94.2827 127.773 94.4726 127.395C94.6626 126.921 94.9475 126.353 95.2324 125.406L94.9475 125.027C90.3887 125.785 86.0198 126.542 81.6509 127.395L82.6956 127.016V126.732C82.3157 126.826 81.9358 126.826 81.6509 126.921C81.3659 126.921 80.986 127.111 80.4162 127.395C79.9413 127.679 78.9915 128.058 77.7569 128.531C77.377 125.122 77.282 121.618 77.4719 117.83C80.1313 117.262 82.3157 116.883 84.0253 116.599C85.7348 116.409 87.5394 116.125 89.7238 116.031C91.8133 115.841 92.953 115.746 93.143 115.746L93.9028 115.557C93.9028 114.326 93.9028 113.379 93.9977 112.811C94.0927 112.243 93.9977 111.958 93.8078 111.864C93.6178 111.769 93.4279 111.674 93.2379 111.485C88.0143 112.243 82.7906 113 77.6619 113.947L77.5669 104.667C78.8016 104.477 79.7514 104.193 80.6061 103.909C81.4609 103.625 82.8856 103.341 84.8801 103.057C86.8746 102.772 90.0088 102.204 94.0927 101.257C94.0927 99.1739 94.1877 97.7534 94.2827 96.9011C94.3776 96.0487 94.3776 95.5752 94.1877 95.4805C93.9977 95.3858 93.9028 95.2911 93.7128 95.1017C91.0535 95.3858 88.964 95.5752 87.6344 95.6699C86.3047 95.7646 84.975 96.2381 83.7403 97.0905C82.5057 97.9428 80.5112 99.1739 77.5669 100.689L77.4719 87.5257L79.2765 86.2946L81.271 84.1165L82.3157 83.1695C83.4554 81.6542 84.2152 80.6125 84.7851 80.0443C85.26 79.4761 85.5449 79.0026 85.6399 78.8132C85.6399 78.5291 85.7348 78.245 85.8298 77.8662C85.3549 77.6768 85.07 77.4874 85.07 77.1086L85.9248 75.404C87.5394 74.7411 89.154 73.8888 90.9585 72.7524L91.9083 73.1312ZM79.9413 163.476L77.7569 164.707V165.086L79.4664 164.328L80.0363 163.57L79.9413 163.476ZM100.456 134.308L97.1319 137.622L97.5119 138.191C97.9867 138.569 98.3666 138.853 98.6516 138.948C98.9365 139.043 99.4114 139.422 100.171 140.085C100.931 140.747 102.261 141.789 104.16 143.399L107.294 140.937C109.004 138.948 110.239 137.622 110.998 136.77C111.853 136.012 112.233 135.539 112.233 135.444C112.233 135.35 112.138 135.255 112.138 135.16L101.881 134.592L100.456 134.308ZM112.043 93.113L102.261 93.6812C102.166 93.9653 102.166 94.06 102.071 94.1547C102.071 94.2494 102.166 94.6282 102.356 95.1964C102.641 95.8593 102.736 96.4275 102.736 96.9958C102.736 97.564 102.925 98.6057 103.115 100.121C106.63 100.121 110.144 99.6474 113.658 98.7951C113.658 98.6057 113.658 98.4163 113.753 98.2269C113.848 97.9428 113.658 97.1852 113.373 95.7646C112.993 94.3441 112.708 93.5865 112.518 93.5865C112.233 93.5865 112.138 93.4918 112.043 93.3024V93.113ZM103.59 132.793V133.171L108.149 133.077L103.59 132.793ZM133.698 122.66C132.748 122.849 131.798 122.849 130.943 122.754L130.184 123.417C129.899 123.228 129.709 123.038 129.424 123.133C129.139 123.133 128.949 123.133 128.759 123.038C128.569 122.944 128.379 122.944 128.189 122.944C127.999 122.944 127.809 122.944 127.429 122.849L126.005 123.607C126.1 123.512 126.1 123.323 126.1 123.133C125.815 123.323 125.53 123.512 125.245 123.701C124.96 123.796 124.485 123.891 123.915 123.891C123.25 123.891 122.68 123.796 122.111 123.701C121.541 123.607 120.971 123.512 120.591 123.512C120.116 123.512 119.736 123.607 119.356 123.891L119.071 123.417C118.786 123.512 118.597 123.512 118.217 123.607C117.932 123.607 117.457 123.607 116.792 123.607C116.127 123.607 115.367 123.701 114.323 123.985C113.278 124.27 111.663 124.459 109.479 124.364C107.294 124.27 106.155 124.27 105.965 124.459C105.775 124.554 105.68 124.648 105.49 124.743C104.635 126.164 104.16 127.584 104.065 128.91C106.725 128.72 108.719 128.626 109.954 128.626C111.188 128.626 112.233 128.436 113.183 128.152C114.133 127.868 115.177 127.679 116.317 127.773C117.457 127.773 119.356 127.868 121.826 127.868L121.921 128.152C122.206 128.247 122.396 128.247 122.491 128.342C122.68 128.342 122.87 128.531 123.155 128.72C123.44 128.91 123.82 129.289 124.295 129.952V128.72C124.77 128.72 125.15 128.72 125.53 128.626C125.815 128.626 126.29 128.626 126.859 128.72C127.429 128.815 128.379 128.91 129.519 129.005C130.753 129.099 131.703 128.91 132.463 128.626C133.223 128.247 133.698 128.152 133.983 128.436C134.268 128.626 136.262 128.72 139.966 128.626C143.67 128.626 145.665 128.531 145.76 128.436C145.95 128.342 146.045 128.247 146.14 128.152C146.235 126.448 146.14 124.648 146.045 122.849C145.57 122.849 144.715 122.849 143.48 122.754C142.246 122.754 141.106 122.754 139.871 122.849C138.731 122.944 137.687 122.944 136.737 122.944C136.167 122.849 135.027 122.754 133.698 122.66ZM113.373 109.496C113.183 109.496 113.088 109.402 113.088 109.307C113.088 109.117 111.948 109.212 109.859 109.402C107.769 109.591 106.535 109.78 106.155 109.97L104.92 110.443V114.705H113.278L113.373 109.496ZM106.535 134.024V134.497H109.669L109.099 134.024C108.434 134.497 107.864 134.497 107.389 134.024H106.535ZM108.339 133.55V133.74L111.473 134.024L111.948 133.645L108.339 133.55ZM108.814 133.077L109.194 133.266C110.429 133.55 111.758 133.55 112.993 133.171L112.708 133.077H108.814ZM120.781 91.9766V92.4501H122.301L121.826 92.2607L120.781 91.9766ZM121.066 92.9236L122.87 98.6057H132.463C132.843 98.1322 133.128 97.8481 133.223 97.6587C133.318 97.4693 133.318 97.0905 133.128 96.4275C133.033 95.7646 132.748 94.6282 132.463 92.9236H121.066ZM123.535 91.9766C123.25 91.9766 123.155 91.9766 123.06 91.8819H122.965C122.87 91.9766 122.68 92.0713 122.396 92.2607L122.68 92.4501H123.44L123.535 91.9766ZM123.82 132.603L122.965 133.077L122.491 134.024H122.965L123.345 133.55H123.82L124.2 133.077L123.915 132.698L123.82 132.603ZM131.038 108.549C129.044 108.549 127.619 108.549 126.669 108.455C125.72 108.36 125.055 108.36 124.865 108.455C124.58 108.549 124.295 108.644 124.01 108.644V113.474C126.195 113.568 127.809 113.568 128.854 113.568C129.899 113.568 130.469 113.568 130.563 113.474C130.658 113.474 130.848 113.379 131.133 113.284V108.549H131.038ZM124.2 91.8819V92.3554L126.954 92.4501L127.334 92.2607L125.15 91.9766L124.2 91.8819ZM127.239 107.508V107.886C128.474 108.265 129.519 108.17 130.563 107.697L130.279 107.602H127.239V107.508ZM127.334 92.166C127.524 92.2607 127.619 92.2607 127.714 92.3554C127.809 92.3554 128.379 92.4501 129.424 92.4501C130.374 92.4501 131.038 92.4501 131.228 92.4501C131.513 92.4501 131.798 92.3554 132.178 92.166H127.334ZM139.871 137.054C139.301 137.054 138.731 137.149 138.067 137.338L139.871 137.054ZM143.1 91.9766L142.246 92.5448L142.53 92.9236C144.335 93.2077 146.14 93.113 148.039 92.7342V92.4501C146.424 92.5448 144.905 92.4501 143.29 92.2607L143.1 91.9766ZM142.341 93.3971C142.435 95.1017 142.435 96.3328 142.53 96.9958C142.53 97.6587 142.625 98.1322 142.625 98.3216C142.625 98.511 142.815 98.7004 143.005 98.7951L144.24 99.1739L144.715 98.7004L144.81 98.8898C146.614 99.1739 148.514 99.3633 150.508 99.2686C150.508 97.2799 150.508 95.8593 150.603 95.1017C150.698 94.2494 150.698 93.7759 150.603 93.7759C150.508 93.6812 150.413 93.5865 150.318 93.3971H142.341ZM142.815 108.36L142.435 112.716C143.005 113 143.48 113.095 143.86 113.19C144.24 113.284 144.81 113.284 145.665 113.284H149.844V108.549L149.369 108.455L142.815 108.36ZM142.815 107.508C143.955 108.17 145.095 108.17 146.424 107.508H142.815ZM146.899 107.223L146.614 107.602L149.559 107.981L149.654 107.508L146.899 107.223ZM151.648 111.011L151.553 112.527H151.838V111.201L151.648 111.011ZM159.246 162.055L158.961 163.286L159.341 163.476V162.245L159.246 162.055ZM159.626 122.186V122.565C162.285 122.66 164.755 122.754 167.224 122.944V122.47L161.621 122.281H159.626V122.186ZM160.101 92.9236L159.721 93.2077C160.006 93.3971 160.196 93.4918 160.386 93.4918C160.576 93.4918 161.051 93.5865 161.716 93.5865C162.38 93.5865 163.425 93.7759 164.755 94.1547L164.66 94.4388C166.274 94.5335 167.414 94.6282 168.269 94.6282C169.124 94.7229 169.504 94.7229 169.599 94.6282C169.599 94.5335 169.694 94.4388 169.884 94.4388V93.9653C169.219 93.8706 168.744 93.7759 168.459 93.6812C168.174 93.5865 167.794 93.5865 167.414 93.6812C167.034 93.7759 166.559 93.7759 166.085 93.6812C165.61 93.5865 164.945 93.4918 164.09 93.3971C163.235 93.3971 162.001 93.2077 160.386 93.0183H160.101V92.9236ZM163.045 137.149C164.28 137.528 165.705 137.622 167.224 137.338L166.939 137.149H163.045ZM164.375 123.038L164.66 123.417L165.895 123.038H164.375ZM173.493 156.373C172.163 156.278 170.833 156.373 169.694 156.468H174.252L173.493 156.373ZM170.928 122.565L170.073 122.754C173.398 123.512 176.817 123.796 180.331 123.796V123.417C177.197 123.133 174.062 122.849 171.213 122.66L170.928 122.565ZM170.643 94.06L170.358 94.3441C171.498 95.007 172.733 95.1964 174.157 94.9123L174.252 94.4388L173.493 94.1547L170.643 94.06ZM175.202 156.373V156.847C175.487 156.847 175.677 156.941 176.057 157.225L176.152 156.847L175.297 156.468L175.202 156.373ZM176.152 118.872V119.156L179.571 119.724V119.25L178.051 119.061L176.152 118.872ZM176.817 156.847L176.532 157.32L179.761 157.604V157.225L177.007 156.847H176.817ZM177.007 106.561L176.722 106.845C177.672 107.318 178.716 107.413 179.951 107.034L178.146 106.655L177.007 106.561ZM179.001 93.113L177.767 93.3024V93.6812L179.001 93.7759L179.096 93.2077L179.001 93.113ZM178.621 87.9992V88.2833L180.426 88.4727V88.2833L179.191 88.1886L178.621 87.9992Z" fill="white"/>
<defs>
<linearGradient id="paint0_linear_3501_307660" x1="66.5288" y1="172.462" x2="65.9061" y2="159.225" gradientUnits="userSpaceOnUse">
<stop stop-color="#C471F5"/>
<stop offset="0.4952" stop-color="#E171E0"/>
<stop offset="1" stop-color="#FA71CD"/>
</linearGradient>
<linearGradient id="paint1_linear_3501_307660" x1="115.955" y1="91.5804" x2="100.067" y2="99.3593" gradientUnits="userSpaceOnUse">
<stop stop-color="#C471F5"/>
<stop offset="0.4952" stop-color="#E171E0"/>
<stop offset="1" stop-color="#FA71CD"/>
</linearGradient>
<linearGradient id="paint2_linear_3501_307660" x1="82.5072" y1="165.85" x2="79.3934" y2="152.234" gradientUnits="userSpaceOnUse">
<stop stop-color="#C471F5"/>
<stop offset="0.4952" stop-color="#E171E0"/>
<stop offset="1" stop-color="#FA71CD"/>
</linearGradient>
<linearGradient id="paint3_linear_3501_307660" x1="103.505" y1="117.337" x2="96.1405" y2="108.824" gradientUnits="userSpaceOnUse">
<stop stop-color="#C471F5"/>
<stop offset="0.4952" stop-color="#E171E0"/>
<stop offset="1" stop-color="#FA71CD"/>
</linearGradient>
<linearGradient id="paint4_linear_3501_307660" x1="80.0722" y1="94.8587" x2="79.9148" y2="94.8872" gradientUnits="userSpaceOnUse">
<stop stop-color="#C471F5"/>
<stop offset="0.4952" stop-color="#E171E0"/>
<stop offset="1" stop-color="#FA71CD"/>
</linearGradient>
<linearGradient id="paint5_linear_3501_307660" x1="76.8412" y1="125.804" x2="22.1541" y2="135.692" gradientUnits="userSpaceOnUse">
<stop stop-color="#C471F5"/>
<stop offset="0.4952" stop-color="#E171E0"/>
<stop offset="1" stop-color="#FA71CD"/>
</linearGradient>
<linearGradient id="paint6_linear_3501_307660" x1="20.944" y1="137.611" x2="40.6543" y2="155.045" gradientUnits="userSpaceOnUse">
<stop offset="0.2155" stop-color="#E7609E"/>
<stop offset="0.3045" stop-color="#DE5D9D"/>
<stop offset="0.4491" stop-color="#C65399"/>
<stop offset="0.6314" stop-color="#9E4593"/>
<stop offset="0.8422" stop-color="#68308C"/>
<stop offset="1" stop-color="#3B1F85"/>
</linearGradient>
<linearGradient id="paint7_linear_3501_307660" x1="27.582" y1="139.415" x2="46.1845" y2="130.294" gradientUnits="userSpaceOnUse">
<stop stop-color="#ECB944"/>
<stop offset="0.3205" stop-color="#EBA05D"/>
<stop offset="1" stop-color="#E7609E"/>
</linearGradient>
<linearGradient id="paint8_linear_3501_307660" x1="39.2888" y1="124.406" x2="27.5013" y2="140.465" gradientUnits="userSpaceOnUse">
<stop offset="0.1157" stop-color="#FDDB92"/>
<stop offset="0.2554" stop-color="#F5E1A5"/>
<stop offset="0.7613" stop-color="#DBF5E6"/>
<stop offset="1" stop-color="#D1FDFF"/>
</linearGradient>
<linearGradient id="paint9_linear_3501_307660" x1="20.9468" y1="139.701" x2="24.9059" y2="139.701" gradientUnits="userSpaceOnUse">
<stop stop-color="#FDDB92"/>
<stop offset="0.158" stop-color="#F5E1A5"/>
<stop offset="0.7301" stop-color="#DBF5E6"/>
<stop offset="1" stop-color="#D1FDFF"/>
</linearGradient>
<linearGradient id="paint10_linear_3501_307660" x1="24.6091" y1="141.817" x2="25.1947" y2="132.302" gradientUnits="userSpaceOnUse">
<stop stop-color="#ECB944"/>
<stop offset="0.3205" stop-color="#EBA05D"/>
<stop offset="1" stop-color="#E7609E"/>
</linearGradient>
<linearGradient id="paint11_linear_3501_307660" x1="36.0314" y1="138.949" x2="42.8824" y2="141.677" gradientUnits="userSpaceOnUse">
<stop offset="0.2007" stop-color="#510909"/>
<stop offset="0.7185" stop-color="#190303"/>
<stop offset="1"/>
</linearGradient>
</defs>
</svg>
