<svg width="125" height="280" viewBox="0 0 122 230" fill="none" xmlns="http://www.w3.org/2000/svg">
<path d="M52.6328 62.9297C52.3047 60.9609 52.3047 58.3359 52.6328 55.0547C52.6328 52.7578 52.6328 51.1172 52.6328 50.1328C52.9609 46.5234 54.6016 44.8828 57.5547 45.2109C71.0078 44.2266 85.7734 44.2266 101.852 45.2109C104.805 45.2109 106.445 46.8516 106.773 50.1328C106.773 54.3984 106.773 58.5 106.773 62.4375C106.117 66.0469 103.82 67.8516 99.8828 67.8516C87.7422 66.8672 74.2891 66.8672 59.5234 67.8516C55.5859 67.5234 53.2891 65.8828 52.6328 62.9297ZM57.0625 52.5938V59.9766C56.7344 62.6016 57.8828 63.75 60.5078 63.4219C74.2891 62.4375 87.0859 62.4375 98.8984 63.4219C101.195 63.4219 102.344 62.2734 102.344 59.9766V51.6094C102.672 49.9688 101.359 49.1484 98.4062 49.1484C85.9375 48.1641 73.1406 48.1641 60.0156 49.1484C58.0469 49.1484 57.0625 50.2969 57.0625 52.5938ZM42.7891 84.5859C49.6797 83.9297 57.3906 83.6016 65.9219 83.6016C63.9531 80.6484 61.6563 77.6953 59.0312 74.7422C57.7188 73.4297 57.5547 72.2812 58.5391 71.2969C60.1797 70.3125 61.3281 70.3125 61.9844 71.2969C64.9375 74.25 68.0547 78.1875 71.3359 83.1094C71.3359 83.1094 71.3359 83.2734 71.3359 83.6016H87.0859C87.4141 83.2734 87.5781 83.1094 87.5781 83.1094C88.2344 82.125 89.2188 80.9766 90.5312 79.6641C93.1562 76.3828 94.9609 73.7578 95.9453 71.7891C96.6016 70.1484 97.75 69.8203 99.3906 70.8047C100.703 71.4609 100.867 72.6094 99.8828 74.25C97.2578 77.8594 94.9609 80.9766 92.9922 83.6016C102.18 83.6016 110.219 83.9297 117.109 84.5859C118.422 84.5859 119.078 85.0781 119.078 86.0625C118.422 88.6875 117.109 89.6719 115.141 89.0156C103.656 88.0312 90.0391 87.5391 74.2891 87.5391C59.1953 87.8672 48.2031 88.5234 41.3125 89.5078C39.6719 89.8359 38.8516 89.1797 38.8516 87.5391C39.5078 85.2422 40.8203 84.2578 42.7891 84.5859ZM25.5625 3.375C26.2188 30.2812 25.2344 49.1484 22.6094 59.9766C20.6406 71.1328 15.8828 80.1562 8.33594 87.0469C6.69531 88.3594 4.72656 88.3594 2.42969 87.0469C1.44531 86.3906 1.44531 85.5703 2.42969 84.5859C10.9609 77.3672 16.2109 68.8359 18.1797 58.9922C20.8047 49.1484 21.7891 30.6094 21.1328 3.375C21.1328 2.0625 21.9531 1.24219 23.5938 0.914062C24.9062 1.24219 25.5625 2.0625 25.5625 3.375ZM83.6406 9.28125C84.2969 9.60937 84.625 10.1016 84.625 10.7578C84.9531 10.7578 85.1172 10.7578 85.1172 10.7578C89.3828 8.13281 93.4844 5.17969 97.4219 1.89844C98.4062 0.914062 99.3906 1.07813 100.375 2.39062C101.359 3.70312 101.195 4.85156 99.8828 5.83594C96.2734 8.78906 92.1719 11.5781 87.5781 14.2031C90.2031 16.5 92.6641 19.125 94.9609 22.0781C98.2422 19.7813 101.688 17.3203 105.297 14.6953C106.281 14.0391 106.938 13.5469 107.266 13.2188C108.578 12.2344 109.727 12.2344 110.711 13.2188C111.695 14.5312 111.203 15.8438 109.234 17.1562C109.234 17.1562 109.07 17.3203 108.742 17.6484C106.117 19.9453 102.672 22.4062 98.4062 25.0312C104.312 30.2812 111.039 35.2031 118.586 39.7969C119.57 40.7812 119.734 41.4375 119.078 41.7656C117.109 44.3906 114.977 44.7188 112.68 42.75C102.18 35.2031 91.6797 25.3594 81.1797 13.2188C79.5391 11.25 79.2109 9.9375 80.1953 9.28125C81.5078 8.29688 82.6562 8.29688 83.6406 9.28125ZM47.7109 20.1094C46.3984 19.7813 46.0703 18.7969 46.7266 17.1562C47.0547 15.8438 48.2031 15.6797 50.1719 16.6641C55.0938 19.2891 58.7031 21.4219 61 23.0625L61.4922 23.5547C61.8203 23.2266 62.1484 22.7344 62.4766 22.0781C64.1172 20.4375 65.9219 18.1406 67.8906 15.1875C69.5312 13.2188 69.5312 11.9063 67.8906 11.25C65.2656 9.60937 61.8203 7.96875 57.5547 6.32812C56.2422 5.67187 55.9141 4.6875 56.5703 3.375C57.2266 2.0625 58.375 1.73437 60.0156 2.39062C62.9688 3.70312 66.25 5.34375 69.8594 7.3125C70.8438 7.64062 71.5 7.96875 71.8281 8.29688C74.7812 10.5937 74.9453 13.3828 72.3203 16.6641C64.7734 27.1641 56.4062 35.6953 47.2188 42.2578C44.9219 44.2266 42.625 44.2266 40.3281 42.2578C39.0156 41.2734 39.0156 40.4531 40.3281 39.7969C47.2188 36.1875 53.125 31.9219 58.0469 27C56.4062 25.6875 53.7812 23.8828 50.1719 21.5859C49.1875 20.9297 48.3672 20.4375 47.7109 20.1094ZM59.0312 36.3516C59.3594 34.3828 60.3438 33.2344 61.9844 32.9062C74.125 32.25 85.6094 32.25 96.4375 32.9062C96.4375 32.9062 96.6016 32.9062 96.9297 32.9062C97.9141 33.2344 98.4062 33.7266 98.4062 34.3828C97.75 36.6797 96.6016 37.8281 94.9609 37.8281C83.1484 36.1875 71.6641 36.1875 60.5078 37.8281C59.8516 38.1562 59.3594 38.1562 59.0312 37.8281C58.7031 37.5 58.7031 37.0078 59.0312 36.3516ZM28.0234 57.0234C27.3672 55.7109 27.5312 54.5625 28.5156 53.5781C29.8281 52.5938 30.8125 52.7578 31.4688 54.0703C35.7344 62.2734 40.1641 68.3438 44.7578 72.2812C46.0703 73.2656 45.5781 74.0859 43.2812 74.7422C40.9844 75.7266 39.3438 75.3984 38.3594 73.7578C34.4219 68.5078 30.9766 62.9297 28.0234 57.0234ZM35.8984 37.3359C34.9141 38.6484 33.4375 38.8125 31.4688 37.8281C30.4844 37.1719 30.4844 36.1875 31.4688 34.875C34.4219 31.9219 37.5391 27.1641 40.8203 20.6016C41.4766 19.2891 42.4609 19.125 43.7734 20.1094C45.0859 20.7656 45.25 22.0781 44.2656 24.0469C40.3281 30.6094 37.5391 35.0391 35.8984 37.3359ZM9.32031 42.2578C8.99219 44.5547 7.67969 45.7031 5.38281 45.7031C4.07031 46.0312 3.90625 44.5547 4.89062 41.2734C6.85938 36.6797 8.00781 32.25 8.33594 27.9844C8.66406 25.6875 9.64844 24.7031 11.2891 25.0312C12.6016 24.7031 12.9297 26.3437 12.2734 29.9531C11.9453 33.8906 10.9609 37.9922 9.32031 42.2578ZM21.1328 187.18C20.8047 177.336 20.8047 169.625 21.1328 164.047C21.4609 160.109 23.9219 158.141 28.5156 158.141C31.7969 157.812 37.0469 157.648 44.2656 157.648C51.4844 157.32 56.8984 157.156 60.5078 157.156C60.5078 153.547 60.3438 149.773 60.0156 145.836C60.0156 144.195 60.8359 143.375 62.4766 143.375C64.4453 143.375 65.2656 144.195 64.9375 145.836V157.156C74.7812 157.156 85.6094 157.484 97.4219 158.141C101.359 158.141 103.328 159.945 103.328 163.555C104.312 171.102 104.312 178.812 103.328 186.688C103 189.641 100.375 191.117 95.4531 191.117C82.9844 190.461 72.3203 190.133 63.4609 190.133C63.1328 193.414 62.6406 196.367 61.9844 198.992C60.6719 202.93 58.5391 206.867 55.5859 210.805C75.2734 218.023 96.2734 222.125 118.586 223.109C118.586 223.109 118.75 223.109 119.078 223.109C120.719 223.438 121.047 224.258 120.062 225.57C119.406 228.195 117.109 229.508 113.172 229.508C91.1875 226.883 70.8438 221.797 52.1406 214.25C43.9375 222.125 30.9766 226.883 13.2578 228.523C9.32031 229.18 7.02344 228.031 6.36719 225.078C6.03906 224.094 5.875 223.438 5.875 223.109C6.20312 222.781 6.85938 222.617 7.84375 222.617C25.2344 222.945 38.3594 219.5 47.2188 212.281C39.6719 208.344 31.9609 204.242 24.0859 199.977C23.1016 199.32 22.9375 198.336 23.5938 197.023C24.25 195.711 25.2344 195.383 26.5469 196.039C34.4219 200.961 42.625 205.062 51.1562 208.344C53.125 205.719 54.9297 202.438 56.5703 198.5C57.5547 196.531 58.2109 193.742 58.5391 190.133C47.7109 190.133 37.5391 190.461 28.0234 191.117C23.4297 191.445 21.1328 190.133 21.1328 187.18ZM26.0547 167C25.7266 171.922 25.7266 176.844 26.0547 181.766C26.0547 185.375 27.8594 186.852 31.4688 186.195C33.7656 186.195 37.5391 186.195 42.7891 186.195C50.0078 185.867 55.4219 185.703 59.0312 185.703C60.0156 179.469 60.5078 171.43 60.5078 161.586C51.3203 161.586 41.4766 161.914 30.9766 162.57C27.6953 162.57 26.0547 164.047 26.0547 167ZM64.9375 161.586C64.9375 171.43 64.6094 179.469 63.9531 185.703C67.8906 185.703 73.6328 185.867 81.1797 186.195C87.4141 186.195 91.8438 186.195 94.4688 186.195C97.0938 186.523 98.5703 184.555 98.8984 180.289C99.5547 175.695 99.5547 171.102 98.8984 166.508C98.2422 163.555 96.4375 162.242 93.4844 162.57C82.3281 161.914 72.8125 161.586 64.9375 161.586Z" fill="#E92F93"/>
</svg>
