<svg width="164" height="165" viewBox="0 0 164 165" fill="none" xmlns="http://www.w3.org/2000/svg">
<path d="M54.2366 141.186C54.067 140.931 53.7279 140.761 53.3888 140.761C53.2192 140.761 53.0496 140.761 52.9649 140.846C52.8801 140.931 52.7105 140.931 52.6257 141.101C52.3714 141.356 52.2866 141.611 52.2866 141.95C52.2866 142.12 52.2866 142.29 52.3714 142.375C52.7105 143.904 53.8127 148.661 55.8474 150.105C56.0169 150.19 56.1865 150.359 56.356 150.444C58.6451 151.803 62.545 152.483 64.3253 151.634C64.4949 151.549 64.6645 151.464 64.7492 151.379C66.0209 150.19 56.0169 142.545 54.2366 141.186Z" fill="url(#paint0_linear_4637_154)"/>
<path d="M102.391 92.2607C98.6609 84.871 101.204 73.489 101.374 72.3848C92.8959 82.5776 84.1636 87.8439 84.1636 87.8439L85.1809 92.5155C91.5394 87.0794 99.763 91.4963 102.052 92.5155C102.306 92.6005 102.476 92.4306 102.391 92.2607Z" fill="url(#paint1_linear_4637_154)"/>
<path d="M78.8229 137.618V137.449C78.7381 137.194 78.6534 137.024 78.4838 136.854C78.2295 136.514 77.7208 136.259 77.2969 136.259L64.156 136.429C63.7321 136.429 62.8843 136.854 62.7996 137.364C62.63 137.958 62.5452 138.553 62.9691 139.147C63.6474 140.082 72.5492 143.564 74.3296 143.309C74.7535 143.224 75.347 142.885 76.0252 142.375H76.11V142.29C76.7034 141.78 77.2969 141.186 77.8056 140.506H77.8903V140.421C78.2295 139.912 78.5686 139.402 78.7381 138.808V138.723C78.8229 138.383 78.9077 138.043 78.8229 137.618Z" fill="url(#paint2_linear_4637_154)"/>
<path d="M92.9809 96.5078C92.9809 96.0831 92.9809 95.6584 92.8113 95.3186V95.2337C92.8113 95.1488 92.7265 95.1488 92.7265 95.0638C92.4722 94.7241 91.9635 94.6391 91.5396 94.7241C88.9114 95.2337 77.8901 97.612 78.4835 100.33C78.4835 100.33 78.0596 101.859 82.0443 101.774C86.0289 101.689 88.6571 102.369 89.7592 101.774C90.0984 101.604 90.607 101.179 91.0309 100.5H91.1157V100.415C91.5396 99.8204 91.9635 99.1409 92.3026 98.4614H92.3874V98.3765C92.6417 97.7819 92.8113 97.2722 92.8961 96.7626L92.9809 96.5078Z" fill="url(#paint3_linear_4637_154)"/>
<path d="M71.1077 85.2107C70.9381 84.701 70.7686 84.3613 70.7686 84.3613C70.7686 84.3613 70.8533 84.786 71.1077 85.2107Z" fill="url(#paint4_linear_4637_154)"/>
<path d="M83.9943 87.504C83.1465 87.6739 82.2988 87.7588 81.5357 87.9287C78.2293 87.8438 76.1946 83.0022 76.1946 83.0022C76.1946 83.0022 77.5511 87.4191 75.0077 88.0986C73.1426 88.6082 71.7861 86.4847 71.1078 85.2106C71.6165 86.4847 72.2948 89.0329 70.5992 90.2221C68.3949 91.8359 65.5972 87.5889 65.258 87.0793C65.5124 87.504 67.8014 91.2413 66.1058 93.0251C64.3255 94.8088 60.3408 90.307 60.3408 90.307C60.3408 90.307 63.6472 94.7239 62.0364 97.0172C60.4256 99.3106 56.2714 96.0829 56.2714 96.0829C56.2714 96.0829 60.1713 101.264 59.4083 103.303C58.6452 105.341 54.491 102.963 54.491 102.963C54.491 102.963 59.1539 106.276 58.1366 108.399C57.2888 110.268 54.9149 108.654 54.1519 108.059C54.9149 108.739 57.7974 111.202 56.9496 113.241C55.9323 115.619 53.3889 113.071 53.3889 113.071C53.3889 113.071 55.7627 116.978 53.6432 118.507C51.5237 120.036 50.1673 115.109 50.1673 115.109C51.2694 119.866 46.7761 119.356 46.6913 119.356C44.1479 118.762 40.9263 117.827 36.6025 117.403C24.5638 116.214 20.2401 124.708 20.7487 126.491C21.0879 127.68 23.0378 128.53 24.1399 128.955C24.479 129.04 24.5638 129.549 24.2247 129.719C23.1226 130.483 23.2073 130.823 23.2073 130.823L30.3288 136.259C43.3849 146.197 54.9997 143.224 60.0017 142.12C65.0037 140.931 67.5471 138.723 67.5471 138.723C68.0558 136.344 71.1078 135.835 71.1078 135.835C70.8535 133.202 73.8208 131.418 73.8208 131.418C73.9903 128.445 76.1946 127.001 76.1946 127.001C76.1946 124.453 77.3815 122.839 77.3815 122.839C77.0424 120.461 78.4837 118.252 78.4837 118.252C77.7206 115.704 79.0771 113.496 79.0771 113.496C78.3989 111.542 79.6706 109.164 79.6706 109.164C79.1619 107.465 80.0097 105.256 80.0097 105.256C79.7554 104.407 79.8401 102.878 79.8401 102.878C81.3662 93.7895 89.2507 91.666 89.3355 89.4576C89.3355 87.1642 83.9943 87.504 83.9943 87.504Z" fill="url(#paint5_linear_4637_154)"/>
<path d="M21.1724 127.426C21.1724 127.426 23.2071 125.897 24.6483 126.491C26.0896 127.001 28.3786 128.785 28.2939 129.294C28.2939 129.804 27.1069 130.738 26.5135 130.823C25.92 130.993 23.5462 131.078 23.2071 130.908C23.2071 130.908 22.868 130.653 24.1397 129.719C24.394 129.549 24.394 129.04 24.0549 128.955C23.1223 128.615 21.5963 128.105 21.1724 127.426Z" fill="url(#paint6_linear_4637_154)"/>
<path d="M25.6655 125.982C25.6655 125.982 28.3784 119.611 32.787 119.866C37.1955 120.121 40.5867 121.99 44.2322 115.619C44.2322 115.619 41.9432 118.847 38.8063 118.847C35.6695 118.847 31.9392 116.723 28.0393 120.461C24.1395 124.198 24.0547 125.982 24.0547 125.982C24.0547 125.982 25.5807 125.812 25.6655 125.982Z" fill="url(#paint7_linear_4637_154)"/>
<path d="M25.0722 125.897C25.0722 125.897 28.1243 125.387 27.7004 121.735C27.2765 117.573 30.7525 115.024 32.4481 114.09C32.4481 114.09 26.5135 116.214 26.5135 121.055C26.5135 125.897 22.868 126.152 22.868 126.152C22.868 126.152 22.6984 126.491 23.3766 126.406C23.5462 126.406 24.0549 126.237 24.4788 126.067C24.8179 125.982 24.9875 125.897 25.0722 125.897Z" fill="url(#paint8_linear_4637_154)"/>
<path d="M21.0874 127.426C21.0874 127.426 17.6114 125.982 18.2049 122.754C18.2049 122.754 18.7136 126.322 21.6809 127.171L21.0874 127.426Z" fill="url(#paint9_linear_4637_154)"/>
<path d="M21.8512 127.001C21.8512 127.001 18.7992 121.99 22.3599 119.696C22.3599 119.696 21.4273 120.885 21.4273 122.669C21.4273 124.453 22.4447 126.746 22.4447 126.746L21.8512 127.001Z" fill="url(#paint10_linear_4637_154)"/>
<path d="M34.8221 127.596C36.1331 127.596 37.1959 126.607 37.1959 125.387C37.1959 124.167 36.1331 123.179 34.8221 123.179C33.511 123.179 32.4482 124.167 32.4482 125.387C32.4482 126.607 33.511 127.596 34.8221 127.596Z" fill="#C8E6CC"/>
<mask id="mask0_4637_154" style="mask-type:luminance" maskUnits="userSpaceOnUse" x="32" y="123" width="6" height="5">
<path d="M34.8221 127.596C36.1331 127.596 37.1959 126.607 37.1959 125.387C37.1959 124.167 36.1331 123.179 34.8221 123.179C33.511 123.179 32.4482 124.167 32.4482 125.387C32.4482 126.607 33.511 127.596 34.8221 127.596Z" fill="white"/>
</mask>
<g mask="url(#mask0_4637_154)">
<g opacity="0.52">
<path d="M35.5011 126.321C35.4163 126.406 35.5011 126.406 35.5011 126.321V126.321Z" fill="#F2AF49"/>
<path d="M35.7555 124.538C35.6707 124.538 35.6707 124.623 35.7555 124.538V124.538Z" fill="#F2AF49"/>
<path d="M36.3487 126.406C36.2639 126.321 36.3487 126.321 36.3487 126.406V126.406Z" fill="#F2AF49"/>
<path d="M37.1119 126.067C37.1119 125.982 37.1119 125.982 37.1119 126.067C37.0271 125.982 37.0271 126.067 37.1119 126.067C37.0271 126.067 37.0271 126.067 37.1119 126.067Z" fill="#F2AF49"/>
<path d="M37.0273 124.962C37.0273 125.051 37.1161 124.962 37.0273 124.962V124.962Z" fill="#F2AF49"/>
<path d="M36.3492 124.453C36.2644 124.453 36.2644 124.538 36.3492 124.453V124.453Z" fill="#F2AF49"/>
<path d="M36.6881 126.491C36.6033 126.491 36.6033 126.576 36.6881 126.491V126.491Z" fill="#F2AF49"/>
<path d="M36.6031 126.831C36.5184 126.831 36.5184 126.916 36.6031 126.831V126.831Z" fill="#F2AF49"/>
<path d="M36.7725 124.793C36.8572 124.793 36.8572 124.878 36.7725 124.793V124.793Z" fill="#F2AF49"/>
<path d="M36.7725 127.086C36.7725 127.171 36.8572 127.086 36.7725 127.086C36.8572 127.086 36.8572 127.086 36.7725 127.086Z" fill="#F2AF49"/>
<path d="M36.9442 125.897C36.8555 125.897 36.9442 125.985 36.9442 125.897V125.897Z" fill="#F2AF49"/>
<path d="M36.9425 126.916C36.8577 127.001 36.9425 127.001 36.9425 126.916V126.916Z" fill="#F2AF49"/>
<path d="M36.4354 127.341C36.3467 127.341 36.4354 127.429 36.4354 127.341V127.341Z" fill="#F2AF49"/>
<path d="M36.2655 127.086C36.1768 127.086 36.2655 127.175 36.2655 127.086V127.086Z" fill="#F2AF49"/>
<path d="M36.2655 125.642C36.1768 125.642 36.2655 125.731 36.2655 125.642V125.642Z" fill="#F2AF49"/>
<path d="M36.5181 127.086C36.4334 127.171 36.5181 127.171 36.5181 127.086V127.086Z" fill="#F2AF49"/>
<path d="M36.4336 127.426C36.5184 127.426 36.5184 127.51 36.4336 127.426V127.426Z" fill="#F2AF49"/>
<path d="M36.3505 125.982C36.2617 125.982 36.3505 126.071 36.3505 125.982V125.982Z" fill="#F2AF49"/>
<path d="M37.1119 126.067C37.0271 125.982 37.1119 125.982 37.1119 126.067V126.067Z" fill="#F2AF49"/>
<path d="M34.5684 127.086C34.6531 127.086 34.6531 127.171 34.5684 127.086V127.086Z" fill="#F2AF49"/>
<path d="M35.1617 126.576C35.0769 126.576 35.0769 126.661 35.1617 126.576V126.576Z" fill="#F2AF49"/>
<path d="M36.4336 126.491C36.5184 126.491 36.5184 126.576 36.4336 126.491V126.491Z" fill="#F2AF49"/>
<path d="M34.7383 126.746C34.8231 126.661 34.8231 126.746 34.7383 126.746V126.746Z" fill="#F2AF49"/>
<path d="M34.9922 127.086C35.077 127.001 35.077 127.086 34.9922 127.086V127.086Z" fill="#F2AF49"/>
<path d="M35.7554 127.001C35.7554 126.916 35.8402 126.916 35.7554 127.001V127.001Z" fill="#F2AF49"/>
<path d="M35.6704 125.302C35.7552 125.217 35.7552 125.302 35.6704 125.302V125.302Z" fill="#F2AF49"/>
<path d="M35.6704 127.341C35.7552 127.256 35.7552 127.341 35.6704 127.341C35.6704 127.256 35.6704 127.256 35.6704 127.341Z" fill="#F2AF49"/>
<path d="M35.6705 126.237C35.5857 126.237 35.5857 126.321 35.6705 126.237V126.237Z" fill="#F2AF49"/>
<path d="M36.0098 126.916C36.0945 127.001 36.0945 127.001 36.0098 126.916V126.916Z" fill="#F2AF49"/>
<path d="M35.7567 126.491C35.668 126.491 35.7567 126.58 35.7567 126.491V126.491Z" fill="#F2AF49"/>
<path d="M35.3317 127.511C35.2469 127.511 35.2469 127.595 35.3317 127.511V127.511Z" fill="#F2AF49"/>
<path d="M35.7554 126.406C35.7554 126.495 35.8441 126.406 35.7554 126.406V126.406Z" fill="#F2AF49"/>
<path d="M35.1616 126.916C35.2464 126.916 35.2464 127.001 35.1616 126.916V126.916Z" fill="#F2AF49"/>
<path d="M35.0767 125.557C35.1614 125.472 35.1614 125.557 35.0767 125.557V125.557Z" fill="#F2AF49"/>
<path d="M35.0767 126.491C35.0767 126.406 35.1614 126.406 35.0767 126.491V126.491Z" fill="#F2AF49"/>
<path d="M36.3486 126.491C36.4334 126.491 36.4334 126.576 36.3486 126.491V126.491Z" fill="#F2AF49"/>
<path d="M36.942 126.916C36.8572 126.831 36.942 126.831 36.942 126.916V126.916Z" fill="#F2AF49"/>
<path d="M33.4663 127.086C33.5511 127.086 33.5511 127.171 33.4663 127.086V127.086Z" fill="#F2AF49"/>
<path d="M34.3989 127.426C34.3989 127.51 34.4837 127.51 34.3989 127.426V127.426Z" fill="#F2AF49"/>
<path d="M34.3989 125.812C34.3989 125.901 34.4877 125.812 34.3989 125.812V125.812Z" fill="#F2AF49"/>
<path d="M34.6547 126.406C34.5659 126.406 34.6547 126.495 34.6547 126.406V126.406Z" fill="#F2AF49"/>
<path d="M34.4834 127.001C34.5682 127.001 34.5682 127.086 34.4834 127.001V127.001Z" fill="#F2AF49"/>
</g>
</g>
<mask id="mask1_4637_154" style="mask-type:luminance" maskUnits="userSpaceOnUse" x="32" y="123" width="6" height="5">
<path d="M34.8221 127.596C36.1331 127.596 37.1959 126.607 37.1959 125.387C37.1959 124.167 36.1331 123.179 34.8221 123.179C33.511 123.179 32.4482 124.167 32.4482 125.387C32.4482 126.607 33.511 127.596 34.8221 127.596Z" fill="white"/>
</mask>
<g mask="url(#mask1_4637_154)">
<g opacity="0.52">
<path d="M33.6359 126.152C33.5511 126.152 33.5511 126.237 33.6359 126.152V126.152Z" fill="#F2AF49"/>
<path d="M33.1266 124.623C33.0418 124.538 33.0418 124.623 33.1266 124.623V124.623Z" fill="#F2AF49"/>
<path d="M33.127 126.831C33.127 126.92 33.2157 126.831 33.127 126.831V126.831Z" fill="#F2AF49"/>
<path d="M34.4834 126.491C34.4834 126.58 34.5721 126.491 34.4834 126.491V126.491Z" fill="#F2AF49"/>
<path d="M34.3985 127.256C34.3138 127.256 34.3138 127.341 34.3985 127.256V127.256Z" fill="#F2AF49"/>
<path d="M33.9746 126.576C33.9746 126.665 34.0633 126.576 33.9746 126.576V126.576Z" fill="#F2AF49"/>
<path d="M34.0596 126.152C34.1443 126.237 34.1443 126.237 34.0596 126.152V126.152Z" fill="#F2AF49"/>
<path d="M33.3832 126.408C33.2945 126.408 33.3832 126.319 33.3832 126.408V126.408Z" fill="#F2AF49"/>
<path d="M32.6182 126.831C32.7029 126.746 32.7029 126.746 32.6182 126.831C32.6182 126.746 32.6182 126.746 32.6182 126.831Z" fill="#F2AF49"/>
<path d="M32.5332 125.132C32.618 125.132 32.618 125.217 32.5332 125.132V125.132Z" fill="#F2AF49"/>
<path d="M32.5332 127.171C32.618 127.171 32.618 127.256 32.5332 127.171C32.618 127.171 32.618 127.171 32.5332 127.171Z" fill="#F2AF49"/>
<path d="M32.5355 127.003C32.4468 127.003 32.5355 126.914 32.5355 127.003V127.003Z" fill="#F2AF49"/>
<path d="M32.5333 127.426C32.4485 127.426 32.4485 127.511 32.5333 127.426V127.426Z" fill="#F2AF49"/>
<path d="M33.4658 127.258C33.4658 127.169 33.5546 127.258 33.4658 127.258V127.258Z" fill="#F2AF49"/>
<path d="M33.5509 125.812C33.4661 125.897 33.5509 125.897 33.5509 125.812V125.812Z" fill="#F2AF49"/>
<path d="M34.9917 127.256C34.9917 127.171 35.0765 127.171 34.9917 127.256V127.256Z" fill="#F2AF49"/>
<path d="M34.3136 127.086C34.2288 127.001 34.2288 127.086 34.3136 127.086V127.086Z" fill="#F2AF49"/>
<path d="M34.7379 125.897C34.6531 125.812 34.7379 125.812 34.7379 125.897V125.897Z" fill="#F2AF49"/>
<path d="M34.5685 127.51C34.4837 127.51 34.4837 127.595 34.5685 127.51V127.51Z" fill="#F2AF49"/>
<path d="M33.7207 127.256C33.7207 127.345 33.8094 127.256 33.7207 127.256V127.256Z" fill="#F2AF49"/>
<path d="M32.9589 126.068C32.8701 126.068 32.9589 125.98 32.9589 126.068V126.068Z" fill="#F2AF49"/>
<path d="M32.9575 127.256C33.0423 127.256 33.0423 127.341 32.9575 127.256V127.256Z" fill="#F2AF49"/>
</g>
</g>
<mask id="mask2_4637_154" style="mask-type:luminance" maskUnits="userSpaceOnUse" x="32" y="123" width="6" height="5">
<path d="M34.8221 127.596C36.1331 127.596 37.1959 126.607 37.1959 125.387C37.1959 124.167 36.1331 123.179 34.8221 123.179C33.511 123.179 32.4482 124.167 32.4482 125.387C32.4482 126.607 33.511 127.596 34.8221 127.596Z" fill="white"/>
</mask>
<g mask="url(#mask2_4637_154)">
<g opacity="0.52">
<path d="M35.6705 124.453C35.5857 124.538 35.6705 124.538 35.6705 124.453V124.453Z" fill="#F2AF49"/>
<path d="M36.2638 125.557C36.179 125.557 36.179 125.642 36.2638 125.557V125.557Z" fill="#F2AF49"/>
<path d="M36.5199 123.435C36.4312 123.435 36.5199 123.346 36.5199 123.435V123.435Z" fill="#F2AF49"/>
<path d="M36.5182 123.774C36.4334 123.689 36.4334 123.774 36.5182 123.774V123.774Z" fill="#F2AF49"/>
<path d="M36.9419 125.472C36.9419 125.387 37.0267 125.387 36.9419 125.472C36.9419 125.387 36.9419 125.387 36.9419 125.472Z" fill="#F2AF49"/>
<path d="M37.027 124.623C36.9422 124.623 36.9422 124.708 37.027 124.623V124.623Z" fill="#F2AF49"/>
<path d="M36.603 125.387C36.603 125.472 36.603 125.472 36.603 125.387C36.6878 125.387 36.6878 125.472 36.603 125.387Z" fill="#F2AF49"/>
<path d="M36.6876 124.877C36.6028 124.962 36.6876 124.962 36.6876 124.877V124.877Z" fill="#F2AF49"/>
<path d="M36.4336 125.642C36.5184 125.642 36.5184 125.727 36.4336 125.642V125.642Z" fill="#F2AF49"/>
<path d="M36.6031 124.877C36.5183 124.962 36.6031 124.962 36.6031 124.877V124.877Z" fill="#F2AF49"/>
<path d="M36.5199 124.028C36.4312 124.028 36.5199 124.117 36.5199 124.028V124.028Z" fill="#F2AF49"/>
<path d="M36.942 125.642C36.8572 125.642 36.8572 125.727 36.942 125.642V125.642Z" fill="#F2AF49"/>
</g>
</g>
<mask id="mask3_4637_154" style="mask-type:luminance" maskUnits="userSpaceOnUse" x="32" y="123" width="6" height="5">
<path d="M34.8221 127.596C36.1331 127.596 37.1959 126.607 37.1959 125.387C37.1959 124.167 36.1331 123.179 34.8221 123.179C33.511 123.179 32.4482 124.167 32.4482 125.387C32.4482 126.607 33.511 127.596 34.8221 127.596Z" fill="white"/>
</mask>
<g mask="url(#mask3_4637_154)">
<g opacity="0.52">
<path d="M36.9414 124.368C37.0262 124.283 37.0262 124.368 36.9414 124.368V124.368Z" fill="#F2AF49"/>
<path d="M36.9414 125.302C36.9414 125.217 37.0262 125.217 36.9414 125.302V125.302Z" fill="#F2AF49"/>
<path d="M35.3306 125.897C35.4153 125.897 35.4153 125.982 35.3306 125.897V125.897Z" fill="#F2AF49"/>
<path d="M35.5001 127.001C35.4153 127.001 35.4153 127.086 35.5001 127.001V127.001Z" fill="#F2AF49"/>
<path d="M35.6699 127.086C35.7547 127.086 35.7547 127.171 35.6699 127.086V127.086Z" fill="#F2AF49"/>
<path d="M36.0089 125.217C35.9241 125.217 35.9241 125.302 36.0089 125.217V125.217Z" fill="#F2AF49"/>
<path d="M36.2632 126.322C36.2632 126.237 36.348 126.237 36.2632 126.322V126.322Z" fill="#F2AF49"/>
<path d="M36.5194 125.217C36.4307 125.217 36.5194 125.306 36.5194 125.217V125.217Z" fill="#F2AF49"/>
<path d="M36.6875 127.171C36.6875 127.256 36.7723 127.256 36.6875 127.171V127.171Z" fill="#F2AF49"/>
<path d="M36.3481 127.171C36.4329 127.171 36.4329 127.256 36.3481 127.171V127.171Z" fill="#F2AF49"/>
<path d="M36.8583 126.321C36.7695 126.321 36.8583 126.41 36.8583 126.321V126.321Z" fill="#F2AF49"/>
<path d="M36.6884 127.51C36.5996 127.51 36.6884 127.599 36.6884 127.51V127.51Z" fill="#F2AF49"/>
<path d="M35.3302 127.086C35.2454 127.001 35.2454 127.086 35.3302 127.086V127.086Z" fill="#F2AF49"/>
<path d="M35.585 127.426C35.585 127.514 35.6737 127.426 35.585 127.426V127.426Z" fill="#F2AF49"/>
<path d="M35.8395 127.426C35.7547 127.426 35.7547 127.511 35.8395 127.426C35.8395 127.511 35.8395 127.511 35.8395 127.426Z" fill="#F2AF49"/>
<path d="M36.6871 127.256C36.6023 127.171 36.6871 127.171 36.6871 127.256V127.256Z" fill="#F2AF49"/>
<path d="M33.0411 126.576C32.9563 126.576 32.9563 126.661 33.0411 126.576V126.576Z" fill="#F2AF49"/>
<path d="M34.3135 127.001C34.3135 127.09 34.4022 127.001 34.3135 127.001V127.001Z" fill="#F2AF49"/>
<path d="M33.6349 126.491C33.5501 126.491 33.5501 126.576 33.6349 126.491V126.491Z" fill="#F2AF49"/>
<path d="M34.0591 126.831C34.1439 126.831 34.1439 126.916 34.0591 126.831V126.831Z" fill="#F2AF49"/>
</g>
</g>
<path d="M34.2289 126.576C34.8844 126.576 35.4158 126.044 35.4158 125.387C35.4158 124.73 34.8844 124.198 34.2289 124.198C33.5734 124.198 33.042 124.73 33.042 125.387C33.042 126.044 33.5734 126.576 34.2289 126.576Z" fill="url(#paint11_linear_4637_154)"/>
<path d="M33.6355 125.557C33.8228 125.557 33.9746 125.405 33.9746 125.217C33.9746 125.029 33.8228 124.877 33.6355 124.877C33.4482 124.877 33.2964 125.029 33.2964 125.217C33.2964 125.405 33.4482 125.557 33.6355 125.557Z" fill="white"/>
<path d="M22.0203 0.0160961C23.6311 0.101036 24.818 0.101036 25.4115 0.0160961C26.0897 -0.0688436 26.5984 0.185975 27.1919 0.695614C27.7005 1.20525 28.5483 1.88477 29.6505 2.81911C30.3287 3.58356 30.7526 4.0932 30.9222 4.43296C31.1765 4.68778 31.2613 5.19742 31.2613 5.79199C31.2613 6.38657 31.5156 7.49079 32.0243 9.10464C32.533 10.7185 32.7873 12.842 32.8721 15.4751C32.9569 18.1082 32.9569 21.4209 32.8721 25.3281C32.7873 29.3203 32.4482 33.0576 31.6852 36.5402C31.0069 40.0227 30.7526 42.1462 31.0069 42.9956C31.2613 43.845 31.77 44.7793 32.533 45.9685C33.296 47.1576 34.2286 48.4317 35.4155 49.7058C36.6024 51.0648 38.1284 52.5938 39.9936 54.2076C41.8587 55.9064 42.9609 57.0956 43.3848 57.86C43.8087 58.6245 44.3174 59.5588 45.1651 60.748L44.7412 61.1727L45.1651 62.3618C44.9108 62.107 44.6565 61.9371 44.4869 61.9371L45.4195 63.9757L46.0977 64.4004V65.3347L44.4869 65.6745L44.7412 66.354H43.0457C43.3848 66.9486 43.3848 67.4582 43.0457 67.8829L44.9956 68.9871H44.6565C44.5717 68.9871 44.3174 68.9022 43.8935 68.6474C43.4696 68.3925 43.2152 68.3076 43.0457 68.3076C42.8761 68.3076 42.6218 68.2226 42.1131 68.0528L41.8587 68.4775L43.2152 69.5817L41.0109 69.2419V69.9214H39.9088L39.6545 70.3461L40.587 71.4504L40.3327 71.6202C36.772 70.0913 33.6351 68.0528 30.9222 65.5895C28.294 63.1263 26.0049 60.3233 24.1398 57.2654C20.9182 63.2112 16.8487 68.3925 12.0163 72.8094C8.54034 75.6124 4.72526 77.8208 0.655832 79.6046C0.147154 78.4154 0.486273 77.3961 1.58841 76.5467L1.07973 76.4618L0.316713 76.8865V65.2498C3.36878 63.2962 6.16651 60.8329 8.7099 58.0299C9.21858 57.3504 9.5577 56.8407 9.81203 56.501C10.0664 56.2462 10.1512 55.8215 10.2359 55.2269C10.3207 54.6323 10.7446 53.9528 11.4228 53.1883C12.1859 52.3389 12.7793 51.6594 13.2032 50.9799C13.6271 50.3004 13.9662 49.7907 13.9662 49.366C14.051 48.9413 14.3054 48.4317 14.7293 47.8371C15.1532 47.2426 15.6618 46.4781 16.3401 45.3739C17.0183 44.2697 17.4422 43.3353 17.7813 42.4859C18.1204 41.6365 18.29 40.7871 18.3748 39.8528C18.4596 38.9185 18.7139 37.9841 19.053 36.9649C19.4769 35.9456 19.6465 35.1811 19.6465 34.5865C19.6465 33.992 19.7313 33.3974 19.9008 32.6329C20.0704 31.8685 20.2399 30.3396 20.2399 28.0462C20.3247 25.6679 20.3247 23.2046 20.2399 20.6564C20.1551 18.1082 19.9008 15.3052 19.3921 12.4173C18.8835 9.52934 18.5443 7.83055 18.29 7.32091C18.0357 6.81127 17.7813 6.21669 17.4422 5.62211L15.3227 3.83838C16.0009 3.83838 16.5944 3.6685 17.2726 3.32874V2.22453L18.7139 1.29019V0.695614C19.053 0.610674 19.3074 0.525734 19.4769 0.440794C19.6465 0.355855 19.9008 0.270915 20.2399 0.270915C20.6638 0.270915 21.2573 0.185975 22.0203 0.0160961ZM40.4175 92.6853L39.6545 93.3648L40.1631 93.4497C39.061 94.1292 37.8741 94.5539 36.772 94.7238L37.7045 94.0443L37.4502 93.7895C32.1939 95.6582 26.768 97.1021 21.1725 98.1214V97.7817L20.4095 97.6118C20.9182 97.5268 21.2573 97.4419 21.4268 97.357C21.5964 97.272 21.8507 97.1871 22.2746 97.272C22.6985 97.272 22.9529 97.272 23.2072 97.1871C23.4616 97.1021 23.6311 96.9323 23.8007 96.7624L23.0377 96.5076L23.5463 96.4226V96.0829C24.055 96.1678 24.4789 96.0829 24.9028 95.7431C24.7333 96.0829 24.7333 96.4226 24.9028 96.6774C25.2419 96.4226 25.581 96.3377 25.9202 96.1678C26.2593 96.0829 26.5984 95.9979 27.0223 95.9979C27.4462 95.9979 27.7853 95.913 28.1244 95.828C28.4636 95.6582 29.057 95.4883 30.0744 95.3184V94.8937H29.3961C29.5657 94.8088 29.82 94.7238 30.1591 94.469C30.583 94.2991 30.9222 94.1293 31.0917 94.2142C31.2613 94.2142 31.5156 94.2142 31.77 94.0443C32.0243 93.8744 32.2786 93.7895 32.533 93.7895C32.7873 93.7895 32.9569 93.7895 33.1264 93.7895C33.296 93.7895 33.5503 93.7046 34.059 93.5347L34.3134 93.8744C35.4155 94.2142 36.6024 94.0443 37.7045 93.1949H36.772L38.7219 92.3455L38.4676 92.0058L39.6545 91.4961C39.9936 91.7509 40.5023 91.8359 41.0109 91.5811C40.7566 91.7509 40.7566 92.0058 40.9262 92.0907L42.4522 91.4112C42.4522 91.1564 42.2826 90.8166 42.0283 90.5618L42.2826 90.4768L42.7913 90.7317L45.3347 89.4576L45.0804 89.1178L49.2346 87.0793C48.9802 87.2491 48.9802 87.419 49.2346 87.5889L50.591 86.7395V86.3148C52.4562 85.2106 54.4061 84.2762 56.5256 83.4268L56.9495 82.6624L56.6952 82.4925C55.5931 83.0022 54.6605 83.4268 53.8974 83.8515C53.2192 84.2762 52.2866 84.7859 51.0997 85.4654C49.9128 86.1449 48.7259 86.7395 47.539 87.2491C46.3521 87.7588 45.4195 88.1835 44.6565 88.5232C43.9782 88.863 43.3 89.0329 42.6218 89.0329L42.1131 89.7973L40.5023 90.222L40.0784 90.9015C39.824 90.9865 39.5697 90.9865 39.3153 90.9865C38.9762 90.9865 37.9589 91.2413 36.2633 91.9208C34.5677 92.6003 32.4482 93.1949 30.0744 93.8744C27.7005 94.5539 25.9202 94.9786 24.7333 95.2335C23.8855 95.4033 22.9529 95.6582 21.9355 95.913C22.1899 95.828 22.3594 95.7431 22.4442 95.5732L22.1051 95.4883L20.7486 95.913C21.1725 96.0829 21.5964 96.0829 21.9355 95.913C21.4268 96.0829 20.9182 96.1678 20.4095 96.3377V95.913C20.1552 95.913 19.9856 95.913 19.816 95.828C19.6465 95.828 19.3921 95.913 18.9682 96.1678C18.5443 96.4226 17.8661 96.5925 16.8487 96.6774C15.8314 96.7624 14.3901 96.9323 12.4402 97.1021C12.9489 97.0172 13.4576 96.8473 14.051 96.4226C12.9489 96.5925 12.0163 96.6774 11.1685 96.5076L10.7446 97.0172L9.5577 97.1021L9.30336 97.272C8.03166 97.272 7.09909 97.272 6.42085 97.1871C5.74261 97.1871 5.40349 97.1871 5.31871 97.272C5.23393 97.357 5.06437 97.5268 4.64048 97.6118C4.47092 97.4419 4.38614 97.357 4.21658 97.272C4.04702 97.1871 3.7079 97.1871 3.11444 97.1871C2.52098 97.1871 1.67319 97.272 0.571052 97.272V96.8473L0.99495 96.7624C1.24929 96.8473 1.41885 96.8473 1.67319 96.9323C1.92753 96.9323 2.52098 96.9323 3.7079 96.8473L8.79468 96.5076L9.04902 96.1678L8.54034 96.0829L11.5924 95.5732V95.4034L0.401493 95.828V93.4497C2.18187 93.7046 3.87746 93.5347 5.48827 93.11C5.31871 92.9401 5.14915 92.8552 4.97959 92.6853C4.81004 92.5154 4.47092 92.5154 3.96224 92.6003C3.45356 92.6853 2.77532 92.6853 1.84275 92.6003V92.9401H0.655832L0.316713 91.5811L5.23393 91.4112L5.48827 91.1564C4.81003 91.1564 4.38614 91.1564 4.04702 91.0714C3.7079 91.0714 3.45356 90.9865 3.284 90.9015C3.11444 90.8166 2.8601 90.7317 2.52098 90.7317C2.18187 90.7317 1.92753 90.8166 1.67319 90.9015C1.41885 90.9865 1.07973 91.0714 0.655832 91.1564L0.316713 90.3919C3.87746 90.5618 7.35342 90.222 10.8294 89.4576L10.5751 89.2028C7.26864 89.7124 3.87746 89.8823 0.571052 89.7124L0.231934 89.3726L1.75797 89.2877V88.9479L0.571052 88.863L0.231934 83.7666C3.284 83.5118 5.40349 83.5118 6.59041 83.5118C7.77732 83.5967 8.79468 83.4268 9.5577 83.0022C10.3207 82.5775 11.1685 82.4925 12.1859 82.6624C13.1184 82.8323 13.8815 82.7473 14.4749 82.2377C15.0684 81.7281 15.6618 81.4732 16.4248 81.5582C17.1031 81.5582 17.8661 81.5582 18.5443 81.3883C19.2226 81.2184 20.0704 81.1335 20.9182 81.0485C21.766 81.0485 23.0377 80.7937 24.818 80.369C26.5984 79.9443 28.8875 79.3497 31.6852 78.5853C34.4829 77.7359 37.0263 76.8865 39.1458 76.0371C41.2653 75.1877 43.2152 74.1684 44.9956 73.1492C46.776 72.1299 48.3868 71.0257 49.7432 69.9214C51.1845 68.8172 52.2866 67.8829 53.2192 67.1184C54.067 66.354 55.5083 65.0799 57.3734 63.3811C58.6451 61.7672 59.5777 60.5781 60.1712 59.8986C60.7646 59.219 61.3581 58.1148 62.1211 56.5859C62.8841 55.057 63.5623 53.2733 64.1558 51.2347C64.834 49.2811 65.3427 47.1576 65.7666 45.0341C66.1905 42.9106 66.4448 40.6173 66.4448 38.3239C66.4448 36.0305 66.3601 33.907 66.1905 32.1233C66.0209 30.2546 65.8514 28.8956 65.6818 28.0462C65.5123 27.1968 65.2579 25.9227 64.9188 24.139L64.4949 23.7143L65.0036 23.2896C64.2406 23.2896 63.6471 23.2896 63.2232 23.2046C62.7993 23.2046 62.2059 23.2896 61.3581 23.7143C60.5103 24.054 58.9842 24.3938 56.78 24.6486C54.4909 24.9034 53.2192 24.9884 53.0497 24.8185C52.7953 24.6486 52.4562 24.4787 52.0323 24.139C51.778 23.4594 51.6084 22.8649 51.5236 22.5251C51.4388 22.1004 51.4388 21.5908 51.4388 20.7414C51.4388 19.9769 51.5236 19.2125 51.778 18.448C52.0323 17.6835 52.1171 16.9191 52.1171 16.0697C52.1171 15.2203 52.0323 14.7107 51.778 14.4558C51.5236 14.201 51.1845 13.7763 50.6758 13.2667C50.8454 12.9269 50.9302 12.5872 51.0149 12.3323C51.0997 12.0775 51.1845 11.8227 51.2693 11.398C51.3541 11.0583 51.5236 10.7185 51.9475 10.3787C52.2866 10.039 52.6258 9.69922 52.8801 9.4444C53.1344 9.10464 53.5583 8.67994 54.2366 8.08537H55.1691L55.4235 7.15103C55.7626 7.15103 56.1865 7.06609 56.5256 6.98115C56.9495 6.89621 57.8821 6.89621 59.4929 7.15103C61.1037 7.40585 63.0537 7.40585 65.4275 7.23597C67.8013 7.06609 71.6164 7.06609 76.788 7.06609C81.9595 7.06609 84.9268 7.06609 85.6898 6.98115C86.4528 6.89621 87.1311 6.72633 87.7245 6.47151H87.9789L87.7245 6.98115L88.4028 7.23597L87.6398 7.66067L88.318 8.42512C89.9288 9.0197 91.6244 9.10464 93.4048 8.84982L93.6591 23.2896C89.081 23.2896 84.4181 23.2046 79.84 22.9498C79.84 23.0347 80.0944 24.7335 80.603 28.1311C81.1117 31.5287 81.3661 34.5865 81.3661 37.3046C81.3661 40.0227 81.2813 42.5709 81.1117 44.9492C80.9422 47.3275 80.603 49.6209 80.1791 51.8293C79.7552 54.0377 79.1618 56.1612 78.5683 58.2847C77.8901 60.4082 77.1271 62.4468 76.1097 64.4004C75.0924 66.354 74.1598 68.2226 73.2272 69.8365C72.2946 71.4504 71.5316 72.6395 70.8534 73.319C70.1751 73.9986 69.2426 75.2726 67.9709 76.9714C66.5296 78.5004 65.5123 79.5196 64.7493 80.2841C63.9862 80.9636 63.3928 81.3883 62.8841 81.3883C62.3754 81.3883 62.0363 81.5582 61.782 82.0678C61.5276 82.4925 60.8494 83.172 59.7473 84.0214L59.4929 84.8708C58.8147 84.7859 58.3908 84.8708 57.9669 85.2106L58.7299 85.5503L58.4756 85.7202L57.543 85.3805L58.2212 84.616V84.2762L52.0323 87.9287L52.4562 88.1835C52.2019 88.6931 51.9475 89.0329 51.778 89.2877C50.6758 90.0521 49.6585 90.5618 48.7259 90.8166L48.4716 91.2413L48.2172 91.0714C47.8781 91.3262 47.539 91.4961 47.2846 91.4112L48.6411 90.5618L47.8781 90.1371L47.4542 90.8166C46.4368 90.9865 45.589 91.4961 44.826 92.1756L44.5717 91.8359C44.7412 92.5154 44.5717 92.9401 44.2326 93.3648V92.1756C43.1304 92.4305 42.2826 92.8552 41.6892 93.5347V93.1949C41.6892 93.11 41.8587 92.9401 42.1979 92.6853C42.537 92.4305 42.7065 92.2606 42.7065 92.1756V92.0907L41.0957 92.6003L40.8414 93.025L40.0784 93.5347L40.5023 92.8552L40.4175 92.6853ZM4.72526 15.645C5.48827 15.8149 6.42085 15.8998 7.60776 15.9848L8.11644 16.7492C8.87946 17.4287 9.81203 17.8534 10.9142 17.9384C10.9142 18.1932 11.1685 18.448 11.5924 18.8727C12.0163 19.2974 12.4402 19.807 12.7793 20.4866C13.1184 21.1661 13.3728 22.3552 13.5423 24.054C13.7119 25.7528 13.7967 28.4709 13.7967 32.1233V40.957C13.7967 43.1655 13.6271 44.6944 13.288 45.4588C12.9489 46.3082 12.7793 46.9028 12.6945 47.3275C12.6098 47.7522 12.4402 48.5166 12.2706 49.5359L11.5924 49.6209L10.3207 50.895V50.4703H10.0664L9.81203 51.4046C9.5577 50.7251 9.21858 50.2154 8.96424 49.7058L8.20122 52.254V51.4046C8.20122 51.2347 8.20122 50.895 8.286 50.3853C8.54034 49.8757 8.54034 49.2811 8.54034 48.5166L6.59041 48.007C6.42085 48.1769 6.33607 48.4317 6.25129 48.9413C6.16651 49.451 6.08173 49.8757 5.91217 50.1305C5.74261 50.4703 5.48827 50.9799 5.23393 51.6594C4.97959 51.4895 4.97959 51.3197 5.06437 51.1498C5.14915 50.9799 5.31871 50.6401 5.40349 50.2154C5.57305 49.7907 5.65783 49.1962 5.65783 48.6016L4.89481 48.5166L4.47092 49.6209L3.96224 49.451L3.53834 49.6209L3.19922 48.9413C2.52098 48.6865 1.92753 48.6865 1.24929 49.1112L0.571052 48.6865L0.401493 16.3245C1.84275 16.4095 3.284 16.1546 4.72526 15.645ZM3.96224 75.4425L3.19922 76.122H3.96224L4.30136 75.6124L3.96224 75.4425ZM5.65783 73.404L3.96224 74.5931L4.30136 74.8479C4.97959 74.6781 5.48827 74.1684 5.91217 73.5739L5.65783 73.404ZM20.8334 86.2299C20.579 86.3997 18.6291 86.7395 15.0684 87.2491C11.5076 87.7588 9.5577 88.0985 9.38814 88.1835L8.7099 88.3534L8.286 88.1835L7.09909 88.9479L7.35342 89.1178C11.8467 88.4383 16.3401 87.6738 20.8334 86.6546L21.2573 86.3148H20.8334V86.2299ZM9.30336 90.5618L7.35342 90.9015L7.60776 91.2413C8.37078 91.3262 9.04902 91.1564 9.5577 90.7317L9.30336 90.5618ZM21.5116 82.9172L21.4268 82.8323C21.3421 82.7473 20.7486 82.8323 19.5617 83.0871C18.3748 83.3419 16.764 83.7666 14.7293 84.2762L14.2206 84.5311L13.9662 84.2762C12.8641 84.2762 11.8467 84.616 11.0837 85.3805H12.2706C12.6098 85.3805 12.9489 85.2955 13.2032 85.1256C13.4576 84.9558 13.7967 84.8708 14.3054 84.8708C14.7293 84.8708 15.4923 84.7859 16.5944 84.3612C17.6965 84.0214 18.7139 83.6817 19.9008 83.4268C20.9182 83.257 21.5116 83.0871 21.5116 82.9172ZM14.1358 88.5232C13.0337 88.6931 12.0163 88.863 11.0837 89.2028L11.3381 89.6274C12.3554 89.4576 13.288 89.2028 14.2206 88.7781V88.5232H14.1358ZM15.8314 98.4612L13.4576 99.5654C13.1184 99.3106 12.6098 99.1407 11.9315 99.2256L14.051 98.4612H15.8314ZM19.7313 94.6389C18.29 94.8088 17.2726 94.8937 16.5096 94.8937C15.8314 94.8937 15.3227 94.8937 15.1532 94.9787C14.9836 95.0636 14.7293 95.1485 14.4749 95.4034C14.6445 95.4883 14.7293 95.4883 14.8988 95.4883C15.0684 95.4883 15.4075 95.4033 16.0857 95.2335C16.764 95.0636 17.2726 95.0636 17.6965 95.2335C18.1204 95.4033 18.3748 95.4033 18.6291 95.2335C18.8835 95.0636 19.2226 94.8937 19.6465 94.7238V94.6389H19.7313ZM18.1204 95.6582L14.8988 95.828V96.1678H17.7813L18.29 95.7431L18.1204 95.6582ZM36.3481 87.1642C36.0937 87.1642 36.0089 87.1642 36.0089 87.0793C36.0089 86.9943 35.3307 87.1642 33.9742 87.5889C32.6178 88.0136 31.6852 88.2684 31.1765 88.3534C30.6678 88.4383 30.3287 88.6082 30.2439 88.7781C30.1591 88.9479 29.9896 89.1178 29.5657 89.2877L29.3114 88.9479C29.057 89.0329 28.6331 89.1178 28.0397 89.3726C27.4462 89.5425 26.8527 89.7124 26.0897 89.8823C25.3267 89.9672 24.7333 90.1371 24.1398 90.3919C23.6311 90.6467 22.3594 90.9865 20.4095 91.4961C18.4596 91.9208 17.1879 92.1756 16.6792 92.1756L17.1879 91.7509L16.9335 91.4961C16.5944 91.666 16.2553 91.7509 15.9162 91.7509C15.5771 91.7509 15.4075 91.8359 15.3227 91.9208C15.2379 92.0907 15.0684 92.1756 14.8988 92.2606L15.4075 92.5154C15.2379 92.6853 15.1532 92.7702 15.1532 92.9401C19.5617 92.6853 23.8855 91.7509 28.2092 90.307L28.4636 89.7973L28.8027 89.9672C29.9048 89.5425 30.583 89.2877 31.0917 89.1178C31.5156 88.9479 32.0243 88.863 32.6178 88.863C33.2112 88.863 33.7199 88.6931 34.1438 88.4383C34.5677 88.1835 34.9916 88.0136 35.2459 87.8437C35.6698 87.6738 36.0089 87.419 36.3481 87.1642ZM18.1204 87.5889L17.6118 88.0985C18.1204 88.1835 18.6291 88.0985 19.1378 87.7588L18.1204 87.5889ZM20.5791 94.0443L20.2399 94.7238C20.8334 94.8088 21.5116 94.7238 22.2746 94.6389L22.6138 94.1293H20.5791V94.0443ZM22.0203 94.8937L20.8334 95.3184L20.4943 95.4883C21.0029 95.6582 21.5116 95.4883 22.0203 94.9787V94.8937ZM23.7159 89.9672L21.5116 90.6467V90.9865C22.3594 91.0714 23.2072 90.7317 23.9702 90.1371L23.7159 89.9672ZM27.3614 94.0443L27.0223 94.3841H28.294L28.5483 94.0443H27.3614ZM35.0764 91.9208L32.4482 92.7702V93.025C33.4656 92.9401 34.3134 92.6003 35.0764 92.0907V91.9208ZM33.8895 93.7895L32.7025 94.1293V94.6389H33.6351L34.059 93.8744L33.8895 93.7895ZM44.1478 12.5872C44.4869 12.5872 44.7412 12.5872 44.9108 12.5022C45.0804 12.4173 45.3347 12.5872 45.8434 13.0119C46.3521 13.4366 47.1151 14.0311 48.302 14.8805L48.9802 16.8342H48.302V23.5444C48.302 24.9884 48.2172 27.1968 47.9629 30.3396C47.7085 33.4823 47.4542 35.2661 47.1151 35.6908C46.776 36.1155 46.3521 37.1347 45.6738 38.7486L44.9108 38.2389L43.9782 38.6636C43.8087 40.1926 43.6391 41.5516 43.4696 42.8257C43.2152 41.2968 43.2152 39.6829 43.4696 38.0691C43.0457 38.3239 42.7065 38.4938 42.4522 38.5787C42.1979 38.5787 41.9435 38.8335 41.774 39.0883C41.5196 39.4281 41.2653 39.598 41.0109 39.598C40.6718 39.598 40.2479 39.6829 39.824 39.7679L39.061 40.1926L37.1111 40.6173L36.8567 39.9377L34.3981 40.3624L35.5003 39.6829L36.4328 38.7486C36.4328 38.0691 36.3481 37.4745 36.2633 37.1347C36.1785 36.795 36.0937 36.0305 36.0937 35.0112C36.0937 33.907 36.1785 32.9727 36.3481 32.0384C36.5176 31.104 36.6024 30.2546 36.5176 29.4052C36.4328 28.5558 36.5176 27.4516 36.6024 26.0076C36.772 24.5637 37.0263 23.0347 37.535 21.4209C38.0437 19.7221 38.298 18.7028 38.298 18.1932V16.2396L37.0263 15.5601L40.2479 13.8613L41.4348 13.0119L42.537 13.3516L43.0457 13.0119L43.4696 13.1817L44.1478 12.5872ZM37.0263 91.3262C36.6024 91.3262 36.1785 91.4961 35.6698 91.7509C36.0937 91.9208 36.6024 91.8359 37.0263 91.3262ZM39.4849 86.1449C39.3154 86.1449 39.1458 86.1449 38.9762 86.06C38.8067 85.975 38.5523 86.06 38.298 86.2299C38.0437 86.3997 37.6198 86.5696 36.9415 86.7395C37.6198 87.2491 38.2132 87.2491 38.8915 86.7395L39.4849 86.1449ZM40.4175 92.2606C39.4001 92.5154 38.5523 92.9401 37.7893 93.3648C37.7893 93.4497 37.8741 93.4497 38.0437 93.4497C38.2132 93.4497 38.4676 93.3648 38.8915 93.11C39.3153 92.9401 39.824 92.6853 40.4175 92.4305V92.2606ZM41.3501 89.7973C41.1805 89.7973 41.0957 89.7973 41.0109 89.7124C40.9262 89.6274 40.6718 89.7124 40.1631 89.8823C39.6545 90.1371 38.8915 90.4768 37.9589 90.9865V91.1564C39.061 91.0714 40.2479 90.6467 41.3501 89.7973ZM41.3501 87.9287L40.4175 88.2684V88.6082L41.6044 88.0985L41.3501 87.9287ZM41.3501 91.666L41.0109 91.7509C41.0957 91.7509 41.1805 91.666 41.3501 91.666ZM47.9629 88.7781L45.3347 89.9672V90.3919L46.6064 89.8823L43.3848 91.5811L43.7239 92.0058L47.0303 90.307V89.7973L48.302 88.9479L47.9629 88.7781ZM48.8955 88.863L47.539 89.3726V89.7973L48.8955 89.0329V88.863ZM49.2346 89.3726L48.4716 89.7973L48.7259 89.9672L49.4889 89.5425L49.2346 89.3726ZM51.0997 87.0793L48.6411 88.3534V88.7781C49.6585 88.3534 50.5063 87.8437 51.2693 87.1642L51.0997 87.0793ZM51.0997 88.5232L50.1671 88.9479L49.4041 89.8823L49.6585 90.222L50.4215 89.3726H50.8454L51.3541 88.6931L51.0997 88.5232ZM53.3888 85.7202L51.778 86.6546L52.0323 87.0793L53.7279 85.8052L53.3888 85.7202ZM59.4081 83.3419L58.6451 84.0214L58.8995 84.2762L59.6625 83.5118L59.4081 83.3419ZM60.3407 79.9443L59.5777 80.6238V80.9636L60.3407 80.7937L60.595 80.1142L60.3407 79.9443ZM62.0363 81.1335L60.7646 82.0678L61.1037 82.4076L62.0363 81.2184V81.1335Z" fill="white"/>
<path d="M112.056 66.269C112.819 66.3539 113.497 66.3539 114.006 66.4389C114.515 66.4389 115.278 66.4389 116.21 66.269C117.143 66.0991 117.906 66.184 118.415 66.3539C118.923 66.6087 119.347 66.8636 119.771 67.2883C120.195 67.713 120.873 68.3075 121.89 69.1569C122.823 70.6009 123.501 71.5353 123.925 72.1298C124.349 72.7244 124.688 73.6587 124.858 75.0178C125.027 76.3768 125.112 78.0756 125.112 80.1991C125.112 82.3226 125.112 83.4268 125.197 83.5117C125.197 83.6816 125.282 83.8515 125.366 84.0214C127.316 84.2762 129.775 84.531 132.658 84.7009C135.54 84.8708 137.151 84.7858 137.575 84.3611C137.999 83.9364 138.423 83.5967 139.016 83.2569C139.864 83.4268 140.457 83.4268 140.796 83.4268C141.135 83.4268 141.475 83.3419 141.814 83.2569C142.153 83.172 142.492 83.0021 142.746 82.9172C143.001 82.7473 143.34 82.7473 143.764 82.8322L145.29 84.4461C146.392 84.531 147.155 84.531 147.664 84.531C148.172 84.531 148.596 84.7009 149.02 85.1256C149.359 85.5503 149.953 86.1449 150.8 86.9093C150.8 88.8629 151.139 90.5617 151.733 92.0907C151.479 92.6852 151.224 93.025 151.055 93.2798C150.885 93.5346 150.716 94.1292 150.461 95.0635C150.207 95.9979 150.122 96.9322 150.122 97.9515C150.122 98.9708 150.037 100.075 149.868 101.264C149.698 102.538 149.444 103.812 148.935 105.086C148.427 106.361 148.087 107.889 147.833 109.588C147.579 111.287 147.324 112.391 146.9 112.901C146.561 113.411 146.137 114.09 145.714 114.939L145.629 114.6L144.272 115.704L143.425 117.657L143.17 116.468L142.831 116.808L141.135 116.893L142.322 117.318C141.814 117.742 141.644 118.252 141.814 118.847H137.914V119.017L139.949 119.696L139.864 119.781C138.592 119.696 137.236 119.611 135.879 119.611C134.523 119.526 131.386 119.441 126.469 119.356C121.551 119.271 118.923 119.271 118.584 119.441C118.245 119.611 117.906 119.781 117.736 119.951C115.956 123.433 114.599 125.897 113.752 127.256C112.904 128.7 112.395 129.464 112.395 129.634V130.144C114.345 130.823 116.125 131.673 117.906 132.522C116.38 132.522 114.939 132.097 113.752 131.248L112.904 131.757L113.243 132.607L118.33 134.73H116.973L117.312 135.07L118.499 135.41L119.008 136.174L129.097 139.402L128.927 139.657L130.284 141.186L130.792 140.082L130.538 139.742L132.064 140.082L132.149 140.506C132.573 140.761 132.912 140.846 133.251 140.846C133.505 140.846 134.014 140.846 134.777 140.591C135.54 140.421 136.896 140.676 138.846 141.356C140.796 142.035 142.746 142.545 144.781 142.885C146.731 143.224 148.342 143.479 149.613 143.819C150.885 144.074 152.496 144.498 154.446 145.093L154.785 145.857L156.481 146.112L156.82 145.773L156.141 145.603L163.433 146.962L163.517 151.633H162.839L162.415 151.888L163.348 152.313L163.433 160.722C160.635 159.957 158.6 159.448 157.244 159.108C155.887 158.853 155.124 158.683 154.87 158.768C154.615 158.768 154.276 158.853 153.768 158.853L154.87 159.618H153.513L153.429 158.683C151.055 158.004 149.274 157.409 148.257 157.069C147.24 156.645 146.392 156.475 145.798 156.56C145.205 156.56 144.696 156.56 144.357 156.475C144.018 156.39 143.594 156.22 143.17 155.965C142.746 155.795 141.898 155.541 140.542 155.286C139.27 155.031 137.999 154.776 136.896 154.351C135.794 154.012 134.692 153.672 133.505 153.417C132.318 153.162 130.453 152.653 127.825 151.973L127.74 152.313L127.486 151.973C126.808 151.803 126.299 151.633 125.96 151.463C125.621 151.294 125.197 151.124 124.519 151.124C123.84 151.124 122.993 150.784 121.975 150.274C120.873 149.765 119.771 149.425 118.669 149.255C117.482 149.085 115.871 148.66 113.921 147.896C111.971 147.132 110.276 146.622 109.004 146.367C107.732 146.112 106.715 145.773 105.782 145.433C104.935 145.093 104.172 144.923 103.663 144.923C103.154 144.923 102.391 144.753 101.459 144.498L95.524 150.444L95.4392 150.104L95.8631 149.595V148.83L91.2003 152.313L89.6742 153.842C89.5047 154.012 89.3351 154.097 89.1655 154.097C88.996 154.097 88.7416 154.266 88.4025 154.436C88.0634 154.691 87.5547 155.031 86.7917 155.626L86.4526 154.946L85.6896 155.626L86.0287 155.71L85.6048 156.22L85.6896 155.456L83.994 156.645H84.757L83.9092 157.494L79.8398 159.278L81.3658 158.429L81.1115 158.344L77.8051 159.957L77.466 160.637C76.279 161.147 75.4312 161.486 74.8378 161.741C74.3291 161.996 73.8204 162.081 73.3118 162.081C72.8031 162.081 72.2944 162.166 71.7857 162.421C71.277 162.676 70.514 162.93 69.4967 163.27C68.4793 163.61 67.2076 163.95 65.8511 164.374V163.27C67.1228 162.76 68.1402 162.421 68.7337 162.166C69.4119 161.996 70.0901 161.741 70.6836 161.571C71.3618 161.401 71.7009 161.232 71.8705 161.147C72.0401 161.062 72.2944 160.807 72.6335 160.552C72.464 160.552 72.3792 160.552 72.3792 160.467C72.3792 160.382 71.7857 160.552 70.6836 160.807C69.5815 161.147 67.9706 161.741 65.7664 162.591L65.6816 157.494L68.988 156.39L69.4119 155.71L70.6836 155.031L70.9379 155.201C71.4466 155.031 71.7857 154.861 72.0401 154.776C72.2944 154.691 72.7183 154.436 73.3965 154.012C74.0748 153.587 74.5835 153.332 74.9226 153.247C75.2617 153.247 75.6008 153.077 75.9399 152.907L76.6182 153.332L78.3985 152.058L78.0594 151.548L77.1268 151.973L76.9573 151.718L76.6182 152.143L75.516 152.483L74.8378 152.058L74.753 152.823L74.0748 152.313L71.9553 153.417L71.7009 154.097C71.1075 154.351 70.6836 154.521 70.4292 154.606C70.1749 154.776 69.751 154.861 69.3271 154.861C68.9032 154.861 68.6489 154.861 68.4793 154.776C68.3098 154.691 68.0554 154.776 67.7163 154.946C67.2924 155.201 66.6989 155.371 65.7664 155.71L65.6816 155.371L66.9533 154.436L66.275 153.672L66.9533 153.842V153.417C67.1228 153.502 67.3772 153.502 67.462 153.502C67.6315 153.502 67.8011 153.417 68.1402 153.162C68.4793 152.907 68.988 152.907 69.6662 153.077C70.3445 153.247 70.8531 153.162 71.1923 152.907C71.5314 152.653 71.9553 152.398 72.464 152.228C72.464 151.973 72.6335 151.633 73.1422 151.294L72.464 150.784L70.6836 151.633C70.6836 151.548 70.6836 151.379 70.7684 151.209C70.0901 151.463 69.4119 151.633 68.6489 151.633L71.6162 150.104V149.68L70.9379 149.935L70.7684 149.68L71.6162 148.83L70.9379 148.491L71.6162 148.066H72.7183L72.0401 148.236C72.464 148.576 72.9726 148.576 73.6509 148.236C73.9052 148.576 74.4139 148.66 75.1769 148.491C74.753 148.745 74.4987 149.085 74.4987 149.34L75.0073 149.595L73.4813 150.359L73.1422 150.784L73.5661 150.869L79.5007 147.217V146.792L78.3985 147.471C77.7203 147.217 77.2116 147.217 76.7029 147.471C76.8725 147.386 76.8725 147.217 76.8725 146.792L75.6008 147.471C75.7704 147.301 75.9399 147.217 76.1095 147.047C76.279 146.877 76.3638 146.707 76.3638 146.452C76.3638 146.197 76.4486 145.942 76.5334 145.773C76.6182 145.518 76.8725 145.348 77.1268 145.008C77.3812 145.263 77.7203 145.433 78.3138 145.433V144.668L78.7377 144.498L79.0768 144.838L84.1635 141.356L84.6722 140.167L84.1635 139.912C85.1809 139.062 86.283 138.383 87.47 137.958L87.1308 137.618C86.4526 137.279 86.0287 137.024 85.6896 136.939C85.3505 136.854 85.0961 136.684 84.757 136.429C84.5027 136.174 84.0788 136.004 83.6549 136.004C83.231 136.004 82.5527 135.835 81.7897 135.665L81.0267 134.9L79.3311 134.391L78.6529 133.626C77.8051 133.286 77.2116 132.947 76.9573 132.692C76.7029 132.437 76.4486 132.352 76.1943 132.352C75.9399 132.352 75.7704 132.352 75.516 132.267L75.0073 132.607L74.753 132.097C73.99 131.503 73.3965 131.078 73.0574 130.653C72.7183 130.229 72.2096 129.889 71.4466 129.549C70.7684 129.209 70.1749 129.039 69.751 129.039C69.3271 129.039 68.988 128.954 68.7337 128.7C68.4793 128.445 68.1402 128.19 67.6315 128.02C67.2076 127.765 66.4446 127.426 65.4272 126.916L65.7664 112.986H66.5294L66.1055 113.495L66.5294 114.26C68.4793 114.515 70.4292 114.939 72.2944 115.364C74.1595 115.789 75.3465 116.129 75.9399 116.298C76.4486 116.468 76.9573 116.553 77.466 116.553C77.3812 116.129 77.2964 115.449 77.1268 114.43C76.9573 113.411 77.0421 112.561 77.3812 111.882C77.7203 111.202 77.9746 110.353 78.1442 109.418C78.3138 108.484 78.1442 107.635 77.7203 106.7C77.2964 105.851 76.9573 104.747 76.8725 103.473C76.7877 102.198 76.8725 101.179 77.2116 100.245C77.5507 99.3105 77.7203 98.5461 77.8051 97.8665C77.8899 97.187 77.8051 96.5075 77.7203 95.9129C77.5507 95.2334 77.466 94.6388 77.466 93.9593C77.466 93.2798 77.2964 92.6852 77.0421 92.1756C76.7877 91.666 76.4486 91.1563 75.9399 90.6467C75.516 90.137 75.1769 89.7123 75.0921 89.4575C75.0073 89.2027 74.9226 88.9479 74.9226 88.6931C75.6008 88.4382 76.3638 87.9286 77.0421 87.334L77.5507 85.7202C78.3985 85.1256 79.1616 84.7009 79.755 84.3611C80.3485 84.0214 81.0267 83.7666 81.7897 83.5117C82.5527 83.2569 83.231 83.3419 83.8244 83.5967C84.4179 83.9364 85.1809 84.0214 86.0287 83.9364C86.8765 83.8515 87.5547 83.9364 88.0634 84.1913C88.5721 84.4461 89.2503 84.616 90.0981 84.531C90.9459 84.4461 92.472 84.3611 94.5914 84.2762C96.7109 84.1913 98.8304 84.0214 100.95 83.7666C103.069 83.5117 105.019 83.4268 106.63 83.5117C108.241 83.5117 109.174 83.5117 109.343 83.5117C109.513 83.5117 109.767 83.4268 110.021 83.3419C109.852 80.1142 109.767 77.9057 109.767 76.7166C109.767 75.4425 109.682 74.2533 109.428 73.0642C109.174 71.875 108.665 70.9407 107.987 70.2612C107.308 69.5816 106.884 69.1569 106.8 69.072C107.563 68.9021 108.411 68.5624 109.258 67.9678L109.937 66.7786L112.056 66.269ZM69.4119 150.529L68.6489 151.379C67.8011 151.463 67.1228 151.718 66.5294 152.143V152.483L68.0554 151.973L68.3945 152.313L65.9359 152.823L65.8511 152.058L69.3271 150.529H69.4119ZM69.1576 160.297C68.7337 160.297 68.3945 160.382 68.0554 160.467L68.3945 160.722L69.1576 160.297ZM83.8244 154.436C83.231 154.946 82.6375 155.371 81.8745 155.626C81.1115 155.965 80.3485 156.39 79.5007 156.985C78.6529 157.579 78.0594 157.919 77.6355 158.004C77.2116 158.089 76.8725 158.259 76.5334 158.513C76.279 158.768 75.8551 158.938 75.3465 159.193C74.8378 159.363 74.4139 159.533 74.1596 159.703L73.0574 160.382L73.4813 160.807C77.2964 159.278 80.9419 157.324 84.3331 154.776L83.8244 154.436ZM81.1963 151.463L77.0421 153.417L76.7029 153.927C76.4486 153.927 76.1943 153.927 76.1095 153.842C76.0247 153.842 75.8551 153.927 75.6008 154.182C75.3465 154.436 74.9226 154.776 74.3291 155.116V155.541C74.8378 155.286 75.1769 155.201 75.4312 155.201C75.6856 155.201 76.279 154.861 77.1268 154.351C77.9746 153.842 79.4159 152.907 81.281 151.548L81.1963 151.463ZM85.3505 143.054L84.1635 143.394L83.6549 143.904C82.6375 144.244 81.7897 144.753 81.1115 145.263L81.4506 145.603L80.0941 146.707L80.7724 146.962C80.9419 146.962 81.1963 146.877 81.6202 146.792C82.0441 146.707 82.3832 146.537 82.5527 146.282C82.7223 146.112 83.1462 145.773 83.6549 145.433V145.093L82.9766 145.348V144.838C83.9092 144.329 84.757 143.819 85.52 143.224L85.3505 143.054ZM83.8244 156.73L81.8745 157.664V158.174L83.9092 156.815L83.8244 156.73ZM87.1308 152.313C86.0287 152.907 84.9266 153.417 83.8244 153.842L84.9266 154.351L87.3004 152.398L87.1308 152.313ZM86.6222 147.301L85.6896 148.236V148.491L86.8765 147.386L86.6222 147.301ZM86.5374 122.414L87.3852 123.264H88.7416L88.8264 124.028H89.3351L89.5894 124.368L91.5394 125.727L91.8785 125.217L91.2003 124.368H91.5394L90.7764 123.433L90.522 124.113L90.4372 123.433C90.0133 123.179 89.759 122.924 89.6742 122.754C89.5894 122.584 89.4199 122.499 89.1655 122.499C88.9112 122.499 88.5721 122.499 88.0634 122.414H86.5374ZM89.3351 150.699L88.1482 151.209L87.2156 152.143L87.47 152.398L89.5047 150.784L89.3351 150.699ZM88.7416 121.395V121.735L89.9286 122.499L90.3525 122.159L89.6742 121.48L88.7416 121.395ZM94.1675 146.367L90.4372 149.68L90.7764 149.85L94.4219 146.537L94.1675 146.367ZM91.0307 121.31L90.6068 122.159L91.0307 122.839H91.7089L91.7937 122.074L91.285 121.395L91.0307 121.31ZM100.017 120.291C97.6435 120.461 95.9479 120.63 94.761 120.63C93.5741 120.63 92.9806 120.8 92.8959 120.97C92.8111 121.14 92.7263 121.31 92.472 121.31C92.0481 122.244 92.2176 122.924 92.8959 123.348C94.2523 123.943 95.2697 124.283 95.9479 124.538C96.6262 124.792 97.0501 124.877 97.1348 124.877H97.9826C98.9152 123.433 99.5934 121.904 100.102 120.291H100.017ZM94.6762 124.962L93.9132 125.812C94.5914 126.491 95.524 126.746 96.5414 126.746L97.3044 125.897L94.8458 125.047L94.6762 124.962ZM97.7283 142.97C96.9653 143.649 96.3718 144.244 96.0327 144.583C95.6936 144.923 95.524 145.178 95.524 145.263V145.518L97.8979 143.139L97.7283 142.97ZM98.9152 145.348L96.7109 147.471L97.474 147.981C98.0674 147.216 98.7457 146.367 99.5934 145.433L98.9152 145.348ZM104.256 93.1949C102.646 93.3647 101.459 93.3647 100.611 93.3647C99.8478 93.3647 99.2543 93.4497 98.8304 93.6196C98.4065 93.7894 97.8979 93.8744 97.3044 93.9593C97.0501 105.596 97.0501 111.542 97.0501 111.712C97.1348 111.882 97.2196 112.136 97.3044 112.221C99.763 112.391 102.222 112.051 104.595 111.372C104.935 110.862 105.274 110.438 105.613 109.928C105.952 109.503 106.461 108.144 107.139 106.021C107.817 103.897 108.241 102.368 108.241 101.349C108.241 100.33 108.411 99.3955 108.75 98.5461C109.004 97.6967 109.174 96.7623 109.258 95.6581C109.343 94.5539 109.343 93.9593 109.258 93.8744C109.174 93.7894 109.089 93.6196 108.919 93.4497L104.341 93.1949H104.256ZM100.696 143.819L99.3391 144.753V145.093L100.272 144.753L100.78 143.904L100.696 143.819ZM134.353 94.6388C131.555 94.6388 129.605 94.5539 128.334 94.384C127.062 94.2141 126.214 94.2141 125.875 94.384C125.536 94.5539 125.197 94.6388 124.943 94.7238C124.858 95.7431 124.349 98.1214 123.417 101.944C122.484 105.766 121.89 107.974 121.721 108.569C121.551 109.164 121.297 109.843 121.212 110.777C123.162 110.862 124.434 110.862 125.282 110.777C126.045 110.692 126.808 110.692 127.486 110.692C128.164 110.692 128.842 110.692 129.351 110.607C129.86 110.523 130.368 110.523 130.877 110.607C131.386 110.692 131.979 110.692 132.658 110.692C132.997 110.438 133.251 110.268 133.336 110.183C133.421 110.013 133.505 109.843 133.505 109.503C133.505 109.164 133.675 108.739 133.929 108.144C134.184 107.55 134.268 106.7 134.184 105.596C134.014 104.492 134.184 103.388 134.692 102.283C135.116 101.179 135.37 99.8202 135.286 98.0364C135.201 96.2527 135.116 95.3184 134.947 95.1485C134.692 95.0635 134.523 94.8937 134.353 94.6388ZM124.095 136.344L123.925 136.429L123.162 136.089L124.095 136.344ZM140.627 140.421H140.203L140.118 140.931C139.27 141.101 138.507 140.931 137.914 140.421H138.762L138.423 139.997L140.627 140.421ZM143.764 141.186C143.17 141.356 142.746 141.186 142.407 140.761L143.764 141.186ZM151.394 142.63L152.326 143.564C149.274 143.309 146.392 142.715 143.594 141.78H144.018V141.101L151.394 142.63ZM143.848 151.718L143.679 152.058L146.477 152.483V152.228L144.527 151.888L143.848 151.718ZM146.731 155.286L146.646 155.71C148.766 156.815 151.055 157.409 153.429 157.324L153.598 156.985C153.259 156.9 153.005 156.815 152.92 156.73C152.835 156.645 152.496 156.56 151.987 156.56C151.479 156.56 151.139 156.56 150.885 156.475C150.631 156.475 150.292 156.305 149.783 156.135L149.274 155.71C148.596 155.795 148.003 155.626 147.494 155.286H146.731ZM147.155 152.483C147.579 153.162 148.257 153.417 149.105 153.247L149.359 152.992L147.748 152.483H147.155ZM148.342 144.668L147.579 145.093L149.105 145.518L149.444 145.348L148.681 144.838L148.342 144.668ZM159.448 158.174L158.515 158.513L160.465 159.023V158.683L159.702 158.259L159.448 158.174ZM159.872 151.294L160.38 151.973H159.957V152.228C160.635 152.398 161.228 152.483 161.906 152.398L161.483 151.973L162.161 151.633L161.906 151.379L160.974 151.294H159.872Z" fill="white"/>
<path d="M7.35306 118.337C11.3798 118.337 14.6441 115.066 14.6441 111.032C14.6441 106.998 11.3798 103.727 7.35306 103.727C3.32633 103.727 0.0620117 106.998 0.0620117 111.032C0.0620117 115.066 3.32633 118.337 7.35306 118.337Z" fill="url(#paint12_linear_4637_154)"/>
<defs>
<linearGradient id="paint0_linear_4637_154" x1="58.844" y1="154.428" x2="58.2829" y2="142.555" gradientUnits="userSpaceOnUse">
<stop stop-color="#C471F5"/>
<stop offset="0.4952" stop-color="#E171E0"/>
<stop offset="1" stop-color="#FA71CD"/>
</linearGradient>
<linearGradient id="paint1_linear_4637_154" x1="102.964" y1="81.8827" x2="88.7555" y2="88.8061" gradientUnits="userSpaceOnUse">
<stop stop-color="#C471F5"/>
<stop offset="0.4952" stop-color="#E171E0"/>
<stop offset="1" stop-color="#FA71CD"/>
</linearGradient>
<linearGradient id="paint2_linear_4637_154" x1="73.1076" y1="148.497" x2="70.3026" y2="136.29" gradientUnits="userSpaceOnUse">
<stop stop-color="#C471F5"/>
<stop offset="0.4952" stop-color="#E171E0"/>
<stop offset="1" stop-color="#FA71CD"/>
</linearGradient>
<linearGradient id="paint3_linear_4637_154" x1="91.8507" y1="104.985" x2="85.2405" y2="97.3804" gradientUnits="userSpaceOnUse">
<stop stop-color="#C471F5"/>
<stop offset="0.4952" stop-color="#E171E0"/>
<stop offset="1" stop-color="#FA71CD"/>
</linearGradient>
<linearGradient id="paint4_linear_4637_154" x1="70.934" y1="84.8229" x2="70.7935" y2="84.8482" gradientUnits="userSpaceOnUse">
<stop stop-color="#C471F5"/>
<stop offset="0.4952" stop-color="#E171E0"/>
<stop offset="1" stop-color="#FA71CD"/>
</linearGradient>
<linearGradient id="paint5_linear_4637_154" x1="68.0499" y1="112.579" x2="19.219" y2="121.365" gradientUnits="userSpaceOnUse">
<stop stop-color="#C471F5"/>
<stop offset="0.4952" stop-color="#E171E0"/>
<stop offset="1" stop-color="#FA71CD"/>
</linearGradient>
<linearGradient id="paint6_linear_4637_154" x1="18.1533" y1="123.168" x2="35.8214" y2="138.722" gradientUnits="userSpaceOnUse">
<stop offset="0.2155" stop-color="#E7609E"/>
<stop offset="0.3045" stop-color="#DE5D9D"/>
<stop offset="0.4491" stop-color="#C65399"/>
<stop offset="0.6314" stop-color="#9E4593"/>
<stop offset="0.8422" stop-color="#68308C"/>
<stop offset="1" stop-color="#3B1F85"/>
</linearGradient>
<linearGradient id="paint7_linear_4637_154" x1="24.0783" y1="124.787" x2="40.7144" y2="116.669" gradientUnits="userSpaceOnUse">
<stop stop-color="#ECB944"/>
<stop offset="0.3205" stop-color="#EBA05D"/>
<stop offset="1" stop-color="#E7609E"/>
</linearGradient>
<linearGradient id="paint8_linear_4637_154" x1="34.529" y1="111.325" x2="23.9414" y2="125.68" gradientUnits="userSpaceOnUse">
<stop offset="0.1157" stop-color="#FDDB92"/>
<stop offset="0.2554" stop-color="#F5E1A5"/>
<stop offset="0.7613" stop-color="#DBF5E6"/>
<stop offset="1" stop-color="#D1FDFF"/>
</linearGradient>
<linearGradient id="paint9_linear_4637_154" x1="18.1556" y1="125.044" x2="21.6898" y2="125.044" gradientUnits="userSpaceOnUse">
<stop stop-color="#FDDB92"/>
<stop offset="0.158" stop-color="#F5E1A5"/>
<stop offset="0.7301" stop-color="#DBF5E6"/>
<stop offset="1" stop-color="#D1FDFF"/>
</linearGradient>
<linearGradient id="paint10_linear_4637_154" x1="21.4252" y1="126.941" x2="21.9529" y2="118.407" gradientUnits="userSpaceOnUse">
<stop stop-color="#ECB944"/>
<stop offset="0.3205" stop-color="#EBA05D"/>
<stop offset="1" stop-color="#E7609E"/>
</linearGradient>
<linearGradient id="paint11_linear_4637_154" x1="31.6211" y1="124.368" x2="37.7446" y2="126.795" gradientUnits="userSpaceOnUse">
<stop offset="0.2007" stop-color="#510909"/>
<stop offset="0.7185" stop-color="#190303"/>
<stop offset="1"/>
</linearGradient>
<linearGradient id="paint12_linear_4637_154" x1="-5.66918" y1="101.222" x2="14.6086" y2="116.426" gradientUnits="userSpaceOnUse">
<stop offset="0.1706" stop-color="#C471F5"/>
<stop offset="0.5813" stop-color="#E171E0"/>
<stop offset="1" stop-color="#FA71CD"/>
</linearGradient>
</defs>
</svg>
