<svg width="164" height="515" viewBox="0 0 164 515" fill="none" xmlns="http://www.w3.org/2000/svg">
<path d="M147.684 48.288H162.516V49.968H147.684V48.288ZM157.452 46.368H159.228V56.736C159.228 57.792 159.012 58.32 158.244 58.608C157.476 58.896 156.204 58.92 154.308 58.92C154.236 58.416 153.972 57.672 153.708 57.144C155.196 57.192 156.54 57.192 156.972 57.168C157.356 57.144 157.452 57.072 157.452 56.712V46.368ZM159.876 36.84L161.124 38.232C157.692 39.264 152.436 40.08 147.972 40.536C147.9 40.128 147.684 39.48 147.468 39.096C151.86 38.592 156.972 37.752 159.876 36.84ZM148.332 41.784L149.844 41.28C150.612 42.648 151.38 44.472 151.62 45.648L150.012 46.224C149.772 45.072 149.076 43.176 148.332 41.784ZM153.036 40.848L154.644 40.464C155.22 41.88 155.724 43.656 155.82 44.784L154.116 45.24C154.044 44.088 153.588 42.264 153.036 40.848ZM149.604 51.744L151.092 50.952C152.34 52.176 153.708 53.952 154.308 55.152L152.748 56.064C152.22 54.84 150.852 53.016 149.604 51.744ZM144.948 36.864H146.676V58.92H144.948V36.864ZM140.1 52.56C141.444 51.864 143.46 50.664 145.428 49.464L146.004 50.976C144.3 52.176 142.524 53.4 141.012 54.408L140.1 52.56ZM140.364 40.608L141.828 39.912C142.98 41.424 144.156 43.464 144.612 44.784L143.052 45.624C142.62 44.256 141.468 42.168 140.364 40.608ZM160.452 40.176L162.084 40.992C160.788 43.008 159.036 45.312 157.668 46.872L156.276 46.08C157.62 44.52 159.444 42.048 160.452 40.176ZM151.404 96.784C149.412 99.808 145.356 103.624 141.084 106.12C140.82 105.712 140.316 105.064 139.908 104.68C144.276 102.208 148.452 98.152 150.348 94.912H152.22C154.836 98.632 159.228 102.352 163.164 104.368C162.708 104.824 162.276 105.448 161.94 105.976C158.028 103.72 153.612 99.928 151.404 96.784ZM150.444 102.784H152.34V116.944H150.444V102.784ZM140.988 130.752H162.084V132.576H140.988V130.752ZM152.676 131.472C154.236 137.28 157.5 142.128 162.492 144.192C162.036 144.6 161.436 145.368 161.124 145.872C155.94 143.424 152.676 138.36 150.876 131.904L152.676 131.472ZM150.564 123.864H152.508C152.412 130.152 152.364 141.096 141.876 145.896C141.588 145.416 141.012 144.768 140.508 144.408C150.708 139.968 150.516 129.624 150.564 123.864ZM144.396 162.128H158.58V163.328H144.396V162.128ZM146.844 159.176H156.204V160.328H146.844V159.176ZM148.14 164.84H153.9V165.968H148.14V164.84ZM153.444 159.68C154.356 162.536 156.348 165.032 158.916 166.088C158.604 166.376 158.172 166.904 157.932 167.264C155.268 165.944 153.252 163.184 152.244 159.992L153.444 159.68ZM150.42 156.344L151.884 156.512C150.924 161.816 148.716 165.368 144.948 167.624C144.78 167.336 144.276 166.736 143.988 166.472C147.588 164.528 149.604 161.144 150.42 156.344ZM147.228 156.536L148.572 156.872C147.852 158.312 146.676 159.8 145.548 160.76C145.308 160.544 144.756 160.136 144.444 159.92C145.572 159.056 146.628 157.808 147.228 156.536ZM147.468 164.84H148.932V169.4C148.932 170.024 149.172 170.12 150.324 170.12C150.876 170.12 153.828 170.12 154.572 170.12C155.412 170.12 155.58 169.88 155.676 168.2C156.012 168.416 156.564 168.608 156.972 168.68C156.804 170.816 156.348 171.32 154.716 171.32C154.212 171.32 150.684 171.32 150.228 171.32C148.092 171.32 147.468 170.984 147.468 169.424V164.84ZM154.26 157.208L155.364 156.56C156.564 157.616 157.932 159.104 158.556 160.136L157.38 160.856C156.78 159.824 155.46 158.288 154.26 157.208ZM153.372 164.84H154.692C154.692 164.84 154.692 165.152 154.692 165.368C154.596 167.12 154.5 167.888 154.212 168.248C153.948 168.512 153.612 168.608 153.108 168.656C152.748 168.656 151.932 168.656 151.164 168.608C151.14 168.296 151.02 167.84 150.852 167.552C151.62 167.6 152.316 167.624 152.556 167.624C152.82 167.624 152.964 167.6 153.084 167.456C153.252 167.288 153.324 166.664 153.372 165.008V164.84ZM141.468 153.896H161.532V174.944H159.756V155.552H143.172V174.944H141.468V153.896ZM142.524 172.28H160.74V173.912H142.524V172.28ZM140.892 194.56C143.196 194.008 146.676 193.096 149.988 192.184L150.228 193.816C147.156 194.704 143.892 195.616 141.42 196.288L140.892 194.56ZM141.036 186.688H150.084V188.392H141.036V186.688ZM144.852 181.864H146.628V201.784C146.628 202.816 146.388 203.32 145.74 203.584C145.14 203.872 144.108 203.92 142.476 203.896C142.404 203.464 142.164 202.744 141.924 202.264C143.052 202.288 144.084 202.288 144.396 202.288C144.732 202.264 144.852 202.168 144.852 201.808V181.864ZM152.388 182.08H154.164V200.128C154.164 201.424 154.38 201.664 155.532 201.664C156.06 201.664 158.7 201.664 159.372 201.664C160.5 201.664 160.692 200.752 160.836 197.2C161.244 197.536 161.988 197.872 162.468 198.016C162.228 201.952 161.748 203.296 159.468 203.296C158.964 203.296 155.868 203.296 155.364 203.296C153.012 203.296 152.388 202.6 152.388 200.08V182.08ZM155.724 213.048H157.404V226.344H155.724V213.048ZM159.996 211.104H161.748V230.424C161.748 231.624 161.46 232.152 160.716 232.488C159.996 232.8 158.676 232.848 156.9 232.848C156.804 232.32 156.54 231.504 156.3 230.928C157.716 230.976 159.06 230.976 159.492 230.976C159.876 230.952 159.996 230.856 159.996 230.448V211.104ZM146.436 210.936H148.14V232.92H146.436V210.936ZM151.476 222.576H153.132V229.176C153.132 229.992 153.012 230.448 152.412 230.736C151.836 231.024 150.924 231.048 149.58 231.024C149.532 230.568 149.316 229.92 149.076 229.464C150.108 229.488 150.876 229.488 151.164 229.464C151.404 229.464 151.476 229.392 151.476 229.152V222.576ZM141.66 222.576H152.148V224.208H143.292V230.952H141.66V222.576ZM140.556 218.496H153.996V220.152H140.556V218.496ZM142.884 214.32H153.036V215.976H142.548L142.884 214.32ZM142.908 211.416L144.588 211.752C144.012 214.248 143.076 216.792 142.068 218.424C141.708 218.232 140.916 217.92 140.484 217.776C141.564 216.144 142.404 213.744 142.908 211.416ZM143.58 248.84H149.556V250.52H143.58V248.84ZM148.836 248.84H150.588C150.588 248.84 150.588 249.368 150.588 249.608C150.468 255.032 150.324 257.048 149.82 257.72C149.436 258.152 149.052 258.32 148.38 258.392C147.756 258.464 146.676 258.44 145.5 258.392C145.452 257.864 145.26 257.168 144.996 256.712C146.076 256.808 147.132 256.808 147.54 256.808C147.876 256.808 148.116 256.784 148.284 256.568C148.644 256.136 148.764 254.336 148.836 249.152V248.84ZM155.604 241.064L156.684 239.936C158.172 240.704 160.068 241.856 161.004 242.696L159.876 243.92C158.964 243.08 157.116 241.856 155.604 241.064ZM159.036 247.568L160.836 248C158.796 254.264 155.22 258.896 150.3 261.8C150.036 261.44 149.364 260.696 148.98 260.336C153.852 257.744 157.236 253.352 159.036 247.568ZM143.724 243.92H162.3V245.696H143.724V243.92ZM142.572 243.92H144.444V250.688C144.444 254.096 144.06 258.944 141.876 262.088C141.564 261.728 140.796 261.104 140.364 260.888C142.356 257.936 142.572 253.808 142.572 250.664V243.92ZM152.532 239.888H154.404C154.356 250.928 156.708 259.928 159.828 259.928C160.5 259.928 160.812 258.68 160.956 255.488C161.364 255.896 162.036 256.304 162.516 256.472C162.18 260.576 161.508 261.752 159.684 261.752C154.788 261.752 152.628 251.384 152.532 239.888ZM141.636 270.616H161.508V272.368H141.636V270.616ZM152.028 278.776H160.548V280.552H152.028V278.776ZM140.724 288.112H162.3V289.864H140.724V288.112ZM151.164 271.264H153.036V288.976H151.164V271.264ZM144.012 276.784H145.86V289.048H144.012V276.784ZM140.748 301.992H162.228V303.72H140.748V301.992ZM148.596 307.68H158.196V309.408H148.596V307.68ZM157.548 307.68H159.396C159.396 307.68 159.372 308.28 159.324 308.544C158.844 315.456 158.364 318.12 157.428 319.08C156.876 319.656 156.276 319.824 155.364 319.896C154.524 319.944 152.94 319.896 151.308 319.824C151.284 319.296 151.02 318.552 150.684 318.048C152.412 318.216 154.116 318.216 154.74 318.216C155.268 318.216 155.604 318.192 155.868 317.952C156.636 317.256 157.116 314.568 157.524 307.992L157.548 307.68ZM148.188 302.952H150.18C149.82 309.312 149.124 316.512 141.804 320.016C141.54 319.56 140.964 318.912 140.508 318.552C147.516 315.384 147.924 308.688 148.188 302.952ZM150.468 297.792H152.316V302.736H150.468V297.792ZM145.5 326.936L147.204 327.44C145.812 331.496 143.628 335.576 141.276 338.288C141.084 337.88 140.556 336.944 140.22 336.512C142.356 334.16 144.324 330.56 145.5 326.936ZM143.34 333.128L145.02 331.424L145.044 331.448V348.896H143.34V333.128ZM153.42 326.936H155.172V348.8H153.42V326.936ZM146.652 331.688H162.372V333.416H146.652V331.688ZM149.46 342.824H159.06V344.456H149.46V342.824ZM156.036 332.576C157.404 336.872 160.044 341.336 162.852 343.592C162.42 343.904 161.82 344.528 161.484 345.008C158.676 342.44 156.108 337.664 154.692 332.984L156.036 332.576ZM152.676 332.48L153.996 332.888C152.508 337.688 149.892 342.44 146.988 345.08C146.724 344.624 146.124 344 145.716 343.712C148.524 341.432 151.26 336.872 152.676 332.48Z" fill="#FFF1F9"/>
<path d="M151.614 86.2386C150.898 86.2273 150.182 86.0909 149.466 85.8295C148.75 85.5682 148.097 85.1278 147.506 84.5085C146.915 83.8835 146.441 83.0398 146.083 81.9773C145.725 80.9091 145.546 79.5682 145.546 77.9545C145.546 76.4091 145.691 75.0398 145.98 73.8466C146.27 72.6477 146.691 71.6392 147.242 70.821C147.793 69.9972 148.458 69.3722 149.236 68.946C150.02 68.5199 150.904 68.3068 151.887 68.3068C152.864 68.3068 153.733 68.5028 154.495 68.8949C155.262 69.2812 155.887 69.821 156.37 70.5142C156.853 71.2074 157.165 72.0057 157.307 72.9091H155.228C155.034 72.125 154.659 71.4744 154.103 70.9574C153.546 70.4403 152.807 70.1818 151.887 70.1818C150.534 70.1818 149.469 70.7699 148.691 71.946C147.918 73.1222 147.529 74.7727 147.523 76.8977H147.659C147.978 76.4148 148.355 76.0028 148.793 75.6619C149.236 75.3153 149.725 75.0483 150.259 74.8608C150.793 74.6733 151.358 74.5795 151.955 74.5795C152.955 74.5795 153.87 74.8295 154.699 75.3295C155.529 75.8239 156.194 76.5085 156.694 77.3835C157.194 78.2528 157.444 79.25 157.444 80.375C157.444 81.4545 157.202 82.4432 156.719 83.3409C156.236 84.233 155.557 84.9432 154.682 85.4716C153.813 85.9943 152.79 86.25 151.614 86.2386ZM151.614 84.3636C152.33 84.3636 152.972 84.1847 153.54 83.8267C154.114 83.4687 154.566 82.9886 154.895 82.3864C155.23 81.7841 155.398 81.1136 155.398 80.375C155.398 79.6534 155.236 78.9972 154.912 78.4062C154.594 77.8097 154.154 77.3352 153.591 76.983C153.034 76.6307 152.398 76.4545 151.682 76.4545C151.142 76.4545 150.64 76.5625 150.174 76.7784C149.708 76.9886 149.299 77.2784 148.946 77.6477C148.6 78.017 148.327 78.4403 148.128 78.9176C147.929 79.3892 147.83 79.8864 147.83 80.4091C147.83 81.1023 147.992 81.75 148.316 82.3523C148.645 82.9545 149.094 83.4403 149.662 83.8097C150.236 84.179 150.887 84.3636 151.614 84.3636Z" fill="#E92F93"/>
<path d="M76.75 68.625C77.625 68.625 78.3125 69.1875 78.8125 70.3125C79.0625 70.8125 79.5 71.0625 80.125 71.0625C84.75 70.6875 88.5 70.875 91.375 71.625C92.375 72 93.0625 72.0625 93.4375 71.8125C94.4375 71.8125 94.75 72.3125 94.375 73.3125C92.625 74.4375 91 74.75 89.5 74.25C84.25 73.375 81 73.125 79.75 73.5C78.875 74.125 78.75 74.75 79.375 75.375C81.25 75.375 82.4375 75.4375 82.9375 75.5625C83.5625 75.5625 84.0625 75.5625 84.4375 75.5625C85.3125 75.9375 86.5625 76 88.1875 75.75C90.9375 76.25 92.5 76.9375 92.875 77.8125C92 78.4375 91 78.8125 89.875 78.9375C88.875 78.9375 87.5625 78.875 85.9375 78.75C84.1875 78.625 83.1875 78.5 82.9375 78.375C81.3125 78 79.75 77.875 78.25 78C77.5 78.25 76.125 78.3125 74.125 78.1875C72.5 78.1875 70.875 78.4375 69.25 78.9375C63.875 80.5625 61 80.875 60.625 79.875C59.875 79 60.0625 78.375 61.1875 78C61.3125 78.5 62 78.4375 63.25 77.8125C64.5 77.3125 67.125 76.8125 71.125 76.3125C72.75 76.1875 73.75 76 74.125 75.75C74.875 75.125 75.25 74.5 75.25 73.875C74.5 73.375 73.3125 73.5 71.6875 74.25C69.3125 75.125 66.125 75.75 62.125 76.125C61.125 76.375 60.25 75.875 59.5 74.625C59.125 74.375 59 74.125 59.125 73.875C59.25 73.5 59.5 73.375 59.875 73.5C60.5 73.875 61.3125 73.8125 62.3125 73.3125C63.5625 72.8125 64.8125 72.5 66.0625 72.375C66.1875 72.375 66.4375 72.375 66.8125 72.375C67.9375 72.25 68.9375 72.0625 69.8125 71.8125C71.6875 71.4375 73.0625 71.25 73.9375 71.25C74.6875 71.125 75.1875 70.8125 75.4375 70.3125C75.5625 69.4375 76 68.875 76.75 68.625ZM83.875 79.875C84.125 80 84.5625 80.125 85.1875 80.25C85.8125 80.375 86.375 80.4375 86.875 80.4375C88.375 80.4375 89.6875 80.625 90.8125 81C92.0625 81.5 93.1875 81.75 94.1875 81.75C95.4375 82.125 96.25 82.4375 96.625 82.6875C97.125 83.1875 97.1875 83.75 96.8125 84.375C96.6875 84.625 96.5625 84.8125 96.4375 84.9375C96.1875 85.0625 96 85.375 95.875 85.875C95.5 86.75 94.75 87.5 93.625 88.125C93.125 88.25 92.75 88 92.5 87.375C92.25 86.75 92.3125 86.0625 92.6875 85.3125C92.9375 84.6875 92.8125 84.1875 92.3125 83.8125C89.5625 83.1875 86.9375 82.8125 84.4375 82.6875C83.9375 82.6875 83.0625 82.6875 81.8125 82.6875C80.6875 82.5625 80 82.5 79.75 82.5C78.625 82.375 77.625 82.375 76.75 82.5C76.375 82.5 75.875 82.5625 75.25 82.6875C74.875 82.8125 73.875 82.875 72.25 82.875C67.625 83.25 64.125 83.9375 61.75 84.9375C61 85.1875 60.4375 86.125 60.0625 87.75C59.1875 89.125 58.25 89.1875 57.25 87.9375C56.25 84.1875 56.3125 82.5625 57.4375 83.0625C59.3125 83.0625 60.75 82.75 61.75 82.125C63.125 81.75 64.5625 81.4375 66.0625 81.1875C67.6875 81.1875 69.875 80.8125 72.625 80.0625C75.875 79.5625 79.625 79.5 83.875 79.875ZM76.1875 84C78.9375 83.75 81.625 83.875 84.25 84.375C85.625 84.625 86.875 84.625 88 84.375C89.125 84.75 89.5625 85.25 89.3125 85.875C87.6875 87 85.5 87.25 82.75 86.625C78.625 86.125 74.25 86.3125 69.625 87.1875C69 87.4375 68.3125 87.625 67.5625 87.75C66.8125 87.875 65.9375 87.875 64.9375 87.75C64.1875 87.75 63.6875 87.5 63.4375 87C63.1875 86.5 63.375 86.1875 64 86.0625C64.125 86.0625 64.375 86 64.75 85.875C65 85.875 65.1875 85.8125 65.3125 85.6875C68.1875 84.9375 71.8125 84.375 76.1875 84ZM88.375 88.125C88.875 88.375 89.1875 88.625 89.3125 88.875C89.4375 89.25 89.3125 89.5625 88.9375 89.8125C88.5625 90.0625 87.75 91 86.5 92.625C86.625 92.5 86.5625 92.5625 86.3125 92.8125C85.9375 93.4375 85.0625 93.75 83.6875 93.75C82.5625 94.25 82.1875 95 82.5625 96C82.5625 96.125 82.625 96.1875 82.75 96.1875C84 96.6875 84.8125 96.875 85.1875 96.75C85.9375 96.75 86.8125 96.875 87.8125 97.125C87.9375 97.125 88.0625 97.125 88.1875 97.125C88.8125 97.375 90.4375 97.4375 93.0625 97.3125C95.3125 97.1875 96.6875 97 97.1875 96.75C97.5625 96.625 97.8125 96.625 97.9375 96.75C98.0625 96.875 98.125 97.125 98.125 97.5C97.5 99.125 96.5 100.5 95.125 101.625C93.5 102.125 91.625 102.188 89.5 101.812C86.125 100.188 81.5625 99.3125 75.8125 99.1875C72.3125 99.3125 66.4375 100.312 58.1875 102.188C56.1875 102.688 55.375 101.562 55.75 98.8125C55.75 97.8125 56.25 97.5 57.25 97.875C58.125 98.5 59.375 98.5 61 97.875C62.875 97.25 65.3125 96.875 68.3125 96.75C69.6875 96.875 70.5 96.375 70.75 95.25C70.875 94.5 70.4375 94.25 69.4375 94.5C67.4375 95.125 66.375 94.875 66.25 93.75C66.125 93.5 66 93.25 65.875 93C65.5 92 65.0625 91.25 64.5625 90.75C64.1875 90.625 64.0625 90.375 64.1875 90C64.3125 89.75 64.625 89.5625 65.125 89.4375C66.5 89.3125 67.9375 89 69.4375 88.5C73.5625 87.875 77.5 87.5625 81.25 87.5625C82.125 87.8125 83.0625 87.875 84.0625 87.75C86.4375 87.875 87.875 88 88.375 88.125ZM69.25 91.125C68.5 91.875 68.5 92.375 69.25 92.625C71.875 91.625 76.8125 91.25 84.0625 91.5C84.6875 91.125 84.9375 90.6875 84.8125 90.1875C84.1875 90.0625 83.5 90 82.75 90C81.75 90.125 80.9375 90.0625 80.3125 89.8125C79.4375 89.8125 78.4375 89.8125 77.3125 89.8125C76.9375 89.8125 76.625 89.8125 76.375 89.8125C76 89.9375 75.5625 90 75.0625 90C73.8125 90.25 72.875 90.3125 72.25 90.1875C71 90.3125 70 90.625 69.25 91.125ZM77.6875 93.75C76.1875 93.75 75.375 93.875 75.25 94.125C75 94.75 74.875 95.3125 74.875 95.8125C75.125 96.1875 76.125 96.1875 77.875 95.8125C78.25 95.6875 78.5 95.1875 78.625 94.3125C78.625 94.0625 78.3125 93.875 77.6875 93.75Z" fill="#E92F93"/>
<path d="M97.6875 39.5937L97.6875 49.1562C90.9375 44.6562 84.0625 42.4687 77.0625 42.5937C68.6875 42.4687 61.6875 44.6562 56.0625 49.1562L56.0625 39.5937L97.6875 39.5937ZM97.6875 138.406L56.0625 138.406L56.0625 128.844C61.6875 133.219 68.6875 135.406 77.0625 135.406C84.0625 135.406 90.9375 133.219 97.6875 128.844L97.6875 138.406Z" fill="#E92F93"/>
</svg>
