<svg width="164" height="515" viewBox="0 0 164 515" fill="none" xmlns="http://www.w3.org/2000/svg">
<path d="M147.684 48.288H162.516V49.968H147.684V48.288ZM157.452 46.368H159.228V56.736C159.228 57.792 159.012 58.32 158.244 58.608C157.476 58.896 156.204 58.92 154.308 58.92C154.236 58.416 153.972 57.672 153.708 57.144C155.196 57.192 156.54 57.192 156.972 57.168C157.356 57.144 157.452 57.072 157.452 56.712V46.368ZM159.876 36.84L161.124 38.232C157.692 39.264 152.436 40.08 147.972 40.536C147.9 40.128 147.684 39.48 147.468 39.096C151.86 38.592 156.972 37.752 159.876 36.84ZM148.332 41.784L149.844 41.28C150.612 42.648 151.38 44.472 151.62 45.648L150.012 46.224C149.772 45.072 149.076 43.176 148.332 41.784ZM153.036 40.848L154.644 40.464C155.22 41.88 155.724 43.656 155.82 44.784L154.116 45.24C154.044 44.088 153.588 42.264 153.036 40.848ZM149.604 51.744L151.092 50.952C152.34 52.176 153.708 53.952 154.308 55.152L152.748 56.064C152.22 54.84 150.852 53.016 149.604 51.744ZM144.948 36.864H146.676V58.92H144.948V36.864ZM140.1 52.56C141.444 51.864 143.46 50.664 145.428 49.464L146.004 50.976C144.3 52.176 142.524 53.4 141.012 54.408L140.1 52.56ZM140.364 40.608L141.828 39.912C142.98 41.424 144.156 43.464 144.612 44.784L143.052 45.624C142.62 44.256 141.468 42.168 140.364 40.608ZM160.452 40.176L162.084 40.992C160.788 43.008 159.036 45.312 157.668 46.872L156.276 46.08C157.62 44.52 159.444 42.048 160.452 40.176ZM151.404 96.784C149.412 99.808 145.356 103.624 141.084 106.12C140.82 105.712 140.316 105.064 139.908 104.68C144.276 102.208 148.452 98.152 150.348 94.912H152.22C154.836 98.632 159.228 102.352 163.164 104.368C162.708 104.824 162.276 105.448 161.94 105.976C158.028 103.72 153.612 99.928 151.404 96.784ZM150.444 102.784H152.34V116.944H150.444V102.784ZM141.804 128.136H161.148V139.44H159.276V129.912H143.604V139.56H141.804V128.136ZM142.764 136.296H160.356V138.048H142.764V136.296ZM150.492 123.84H152.364V145.896H150.492V123.84ZM144.396 162.128H158.58V163.328H144.396V162.128ZM146.844 159.176H156.204V160.328H146.844V159.176ZM148.14 164.84H153.9V165.968H148.14V164.84ZM153.444 159.68C154.356 162.536 156.348 165.032 158.916 166.088C158.604 166.376 158.172 166.904 157.932 167.264C155.268 165.944 153.252 163.184 152.244 159.992L153.444 159.68ZM150.42 156.344L151.884 156.512C150.924 161.816 148.716 165.368 144.948 167.624C144.78 167.336 144.276 166.736 143.988 166.472C147.588 164.528 149.604 161.144 150.42 156.344ZM147.228 156.536L148.572 156.872C147.852 158.312 146.676 159.8 145.548 160.76C145.308 160.544 144.756 160.136 144.444 159.92C145.572 159.056 146.628 157.808 147.228 156.536ZM147.468 164.84H148.932V169.4C148.932 170.024 149.172 170.12 150.324 170.12C150.876 170.12 153.828 170.12 154.572 170.12C155.412 170.12 155.58 169.88 155.676 168.2C156.012 168.416 156.564 168.608 156.972 168.68C156.804 170.816 156.348 171.32 154.716 171.32C154.212 171.32 150.684 171.32 150.228 171.32C148.092 171.32 147.468 170.984 147.468 169.424V164.84ZM154.26 157.208L155.364 156.56C156.564 157.616 157.932 159.104 158.556 160.136L157.38 160.856C156.78 159.824 155.46 158.288 154.26 157.208ZM153.372 164.84H154.692C154.692 164.84 154.692 165.152 154.692 165.368C154.596 167.12 154.5 167.888 154.212 168.248C153.948 168.512 153.612 168.608 153.108 168.656C152.748 168.656 151.932 168.656 151.164 168.608C151.14 168.296 151.02 167.84 150.852 167.552C151.62 167.6 152.316 167.624 152.556 167.624C152.82 167.624 152.964 167.6 153.084 167.456C153.252 167.288 153.324 166.664 153.372 165.008V164.84ZM141.468 153.896H161.532V174.944H159.756V155.552H143.172V174.944H141.468V153.896ZM142.524 172.28H160.74V173.912H142.524V172.28ZM154.02 200.056H160.548V201.808H154.02V200.056ZM140.772 186.4H149.988V188.152H140.772V186.4ZM153.204 184.84H161.412V203.392H159.588V186.568H154.956V203.56H153.204V184.84ZM149.508 186.4H151.26C151.26 186.4 151.26 187.072 151.26 187.312C151.068 197.992 150.9 201.496 150.132 202.552C149.7 203.176 149.268 203.392 148.548 203.464C147.876 203.56 146.772 203.56 145.692 203.488C145.668 202.96 145.476 202.168 145.164 201.664C146.292 201.76 147.324 201.76 147.78 201.76C148.14 201.784 148.356 201.712 148.572 201.4C149.124 200.656 149.34 197.104 149.508 186.832V186.4ZM144.18 182.176H145.932C145.908 191.032 145.788 199.36 141.564 203.944C141.252 203.536 140.628 202.984 140.172 202.72C144.18 198.496 144.156 190.576 144.18 182.176ZM140.796 220.44H162.204V222.216H140.796V220.44ZM150.756 213.168H152.652V230.304C152.652 231.624 152.292 232.176 151.38 232.488C150.492 232.776 148.908 232.824 146.46 232.824C146.34 232.296 145.98 231.456 145.716 230.928C147.684 230.976 149.508 230.976 150.06 230.952C150.564 230.928 150.756 230.784 150.756 230.304V213.168ZM142.476 212.568H160.524V214.344H142.476V212.568ZM141.636 241.616H161.508V243.368H141.636V241.616ZM152.028 249.776H160.548V251.552H152.028V249.776ZM140.724 259.112H162.3V260.864H140.724V259.112ZM151.164 242.264H153.036V259.976H151.164V242.264ZM144.012 247.784H145.86V260.048H144.012V247.784ZM140.748 272.992H162.228V274.72H140.748V272.992ZM148.596 278.68H158.196V280.408H148.596V278.68ZM157.548 278.68H159.396C159.396 278.68 159.372 279.28 159.324 279.544C158.844 286.456 158.364 289.12 157.428 290.08C156.876 290.656 156.276 290.824 155.364 290.896C154.524 290.944 152.94 290.896 151.308 290.824C151.284 290.296 151.02 289.552 150.684 289.048C152.412 289.216 154.116 289.216 154.74 289.216C155.268 289.216 155.604 289.192 155.868 288.952C156.636 288.256 157.116 285.568 157.524 278.992L157.548 278.68ZM148.188 273.952H150.18C149.82 280.312 149.124 287.512 141.804 291.016C141.54 290.56 140.964 289.912 140.508 289.552C147.516 286.384 147.924 279.688 148.188 273.952ZM150.468 268.792H152.316V273.736H150.468V268.792ZM145.5 297.936L147.204 298.44C145.812 302.496 143.628 306.576 141.276 309.288C141.084 308.88 140.556 307.944 140.22 307.512C142.356 305.16 144.324 301.56 145.5 297.936ZM143.34 304.128L145.02 302.424L145.044 302.448V319.896H143.34V304.128ZM153.42 297.936H155.172V319.8H153.42V297.936ZM146.652 302.688H162.372V304.416H146.652V302.688ZM149.46 313.824H159.06V315.456H149.46V313.824ZM156.036 303.576C157.404 307.872 160.044 312.336 162.852 314.592C162.42 314.904 161.82 315.528 161.484 316.008C158.676 313.44 156.108 308.664 154.692 303.984L156.036 303.576ZM152.676 303.48L153.996 303.888C152.508 308.688 149.892 313.44 146.988 316.08C146.724 315.624 146.124 315 145.716 314.712C148.524 312.432 151.26 307.872 152.676 303.48ZM142.644 330.704H149.94V346.4H142.644V344.768H148.26V332.312H142.644V330.704ZM141.564 330.704H143.244V348.32H141.564V330.704ZM142.524 337.376H149.148V338.984H142.524V337.376ZM145.236 326.792L147.18 327.152C146.7 328.64 146.1 330.296 145.62 331.376L144.18 331.016C144.588 329.864 145.044 328.04 145.236 326.792ZM153.348 330.632H160.716V332.312H153.348V330.632ZM160.092 330.632H161.772C161.772 330.632 161.772 331.304 161.772 331.568C161.388 342.584 161.052 346.304 160.092 347.48C159.564 348.176 159.012 348.392 158.172 348.464C157.356 348.56 155.94 348.512 154.596 348.44C154.548 347.912 154.332 347.168 153.996 346.688C155.556 346.808 156.996 346.832 157.548 346.832C158.028 346.832 158.316 346.76 158.58 346.448C159.372 345.584 159.756 341.6 160.092 331.016V330.632ZM153.852 326.744L155.58 327.152C154.692 330.728 153.276 334.256 151.62 336.536C151.308 336.248 150.564 335.744 150.132 335.504C151.764 333.392 153.084 330.08 153.852 326.744ZM152.748 336.872L154.14 336.056C155.508 337.76 157.164 340.088 157.932 341.504L156.396 342.464C155.676 341 154.068 338.624 152.748 336.872ZM151.503 376.239C150.333 376.239 149.299 376.031 148.401 375.616C147.509 375.196 146.813 374.619 146.313 373.886C145.813 373.148 145.566 372.307 145.571 371.364C145.566 370.625 145.711 369.943 146.006 369.318C146.301 368.687 146.705 368.162 147.216 367.741C147.733 367.315 148.31 367.045 148.946 366.932V366.83C148.111 366.614 147.446 366.145 146.952 365.423C146.458 364.696 146.213 363.869 146.219 362.943C146.213 362.057 146.438 361.264 146.892 360.565C147.347 359.866 147.972 359.315 148.767 358.912C149.569 358.509 150.48 358.307 151.503 358.307C152.515 358.307 153.418 358.509 154.213 358.912C155.009 359.315 155.634 359.866 156.088 360.565C156.549 361.264 156.782 362.057 156.787 362.943C156.782 363.869 156.529 364.696 156.029 365.423C155.534 366.145 154.878 366.614 154.06 366.83V366.932C154.691 367.045 155.259 367.315 155.765 367.741C156.27 368.162 156.674 368.687 156.975 369.318C157.276 369.943 157.429 370.625 157.435 371.364C157.429 372.307 157.174 373.148 156.668 373.886C156.168 374.619 155.472 375.196 154.58 375.616C153.694 376.031 152.668 376.239 151.503 376.239ZM151.503 374.364C152.293 374.364 152.975 374.236 153.549 373.98C154.123 373.724 154.566 373.364 154.878 372.898C155.191 372.432 155.35 371.886 155.355 371.261C155.35 370.602 155.179 370.02 154.844 369.514C154.509 369.009 154.051 368.611 153.472 368.321C152.898 368.031 152.242 367.886 151.503 367.886C150.759 367.886 150.094 368.031 149.509 368.321C148.929 368.611 148.472 369.009 148.137 369.514C147.807 370.02 147.645 370.602 147.651 371.261C147.645 371.886 147.796 372.432 148.103 372.898C148.415 373.364 148.861 373.724 149.441 373.98C150.02 374.236 150.708 374.364 151.503 374.364ZM151.503 366.08C152.128 366.08 152.682 365.955 153.165 365.705C153.654 365.455 154.037 365.105 154.316 364.656C154.594 364.207 154.736 363.682 154.742 363.08C154.736 362.489 154.597 361.974 154.324 361.537C154.051 361.094 153.674 360.753 153.191 360.514C152.708 360.27 152.145 360.148 151.503 360.148C150.85 360.148 150.279 360.27 149.79 360.514C149.301 360.753 148.924 361.094 148.657 361.537C148.39 361.974 148.259 362.489 148.265 363.08C148.259 363.682 148.392 364.207 148.665 364.656C148.944 365.105 149.327 365.455 149.816 365.705C150.304 365.955 150.867 366.08 151.503 366.08ZM151.404 386.784C149.412 389.808 145.356 393.624 141.084 396.12C140.82 395.712 140.316 395.064 139.908 394.68C144.276 392.208 148.452 388.152 150.348 384.912H152.22C154.836 388.632 159.228 392.352 163.164 394.368C162.708 394.824 162.276 395.448 161.94 395.976C158.028 393.72 153.612 389.928 151.404 386.784ZM150.444 392.784H152.34V406.944H150.444V392.784ZM145.068 419.336H159.564V420.968H145.068V419.336ZM145.068 424.136H159.276V425.696H145.068V424.136ZM144.66 429.056H159.372V430.64H144.66V429.056ZM144.084 419.336H145.836V425.36C145.836 428.768 145.212 433.184 141.54 436.04C141.3 435.68 140.652 435.032 140.292 434.768C143.7 432.128 144.084 428.408 144.084 425.336V419.336ZM158.604 419.336H160.404V433.64C160.404 434.816 160.092 435.392 159.204 435.656C158.292 435.944 156.708 435.968 154.284 435.968C154.188 435.488 153.852 434.696 153.588 434.216C155.508 434.288 157.38 434.288 157.932 434.24C158.46 434.24 158.604 434.096 158.604 433.64V419.336ZM151.164 420.008H152.868V429.848H151.164V420.008ZM147.348 415.256H154.908V416.792H147.348V415.256ZM147.588 413.792L149.532 414.128C147.948 416.984 145.548 420.176 142.14 422.648C141.852 422.216 141.276 421.616 140.844 421.352C144.084 419.168 146.364 416.192 147.588 413.792ZM154.308 415.256H154.692L155.004 415.184L156.204 415.976C155.388 417.584 154.02 419.456 152.916 420.632C152.58 420.368 152.004 420.008 151.62 419.792C152.628 418.712 153.756 416.864 154.308 415.592V415.256Z" fill="#FFF1F9"/>
<path d="M151.503 86.2386C150.333 86.2386 149.299 86.0312 148.401 85.6165C147.509 85.196 146.813 84.6193 146.313 83.8864C145.813 83.1477 145.566 82.3068 145.571 81.3636C145.566 80.625 145.711 79.9432 146.006 79.3182C146.301 78.6875 146.705 78.1619 147.216 77.7415C147.733 77.3153 148.31 77.0455 148.946 76.9318V76.8295C148.111 76.6136 147.446 76.1449 146.952 75.4233C146.458 74.696 146.213 73.8693 146.219 72.9432C146.213 72.0568 146.438 71.2642 146.892 70.5653C147.347 69.8665 147.972 69.3153 148.767 68.9119C149.569 68.5085 150.48 68.3068 151.503 68.3068C152.515 68.3068 153.418 68.5085 154.213 68.9119C155.009 69.3153 155.634 69.8665 156.088 70.5653C156.549 71.2642 156.782 72.0568 156.787 72.9432C156.782 73.8693 156.529 74.696 156.029 75.4233C155.534 76.1449 154.878 76.6136 154.06 76.8295V76.9318C154.691 77.0455 155.259 77.3153 155.765 77.7415C156.27 78.1619 156.674 78.6875 156.975 79.3182C157.276 79.9432 157.429 80.625 157.435 81.3636C157.429 82.3068 157.174 83.1477 156.668 83.8864C156.168 84.6193 155.472 85.196 154.58 85.6165C153.694 86.0312 152.668 86.2386 151.503 86.2386ZM151.503 84.3636C152.293 84.3636 152.975 84.2358 153.549 83.9801C154.123 83.7244 154.566 83.3636 154.878 82.8977C155.191 82.4318 155.35 81.8864 155.355 81.2614C155.35 80.6023 155.179 80.0199 154.844 79.5142C154.509 79.0085 154.051 78.6108 153.472 78.321C152.898 78.0312 152.242 77.8864 151.503 77.8864C150.759 77.8864 150.094 78.0312 149.509 78.321C148.929 78.6108 148.472 79.0085 148.137 79.5142C147.807 80.0199 147.645 80.6023 147.651 81.2614C147.645 81.8864 147.796 82.4318 148.103 82.8977C148.415 83.3636 148.861 83.7244 149.441 83.9801C150.02 84.2358 150.708 84.3636 151.503 84.3636ZM151.503 76.0795C152.128 76.0795 152.682 75.9545 153.165 75.7045C153.654 75.4545 154.037 75.1051 154.316 74.6562C154.594 74.2074 154.736 73.6818 154.742 73.0795C154.736 72.4886 154.597 71.9744 154.324 71.5369C154.051 71.0937 153.674 70.7528 153.191 70.5142C152.708 70.2699 152.145 70.1477 151.503 70.1477C150.85 70.1477 150.279 70.2699 149.79 70.5142C149.301 70.7528 148.924 71.0937 148.657 71.5369C148.39 71.9744 148.259 72.4886 148.265 73.0795C148.259 73.6818 148.392 74.2074 148.665 74.6562C148.944 75.1051 149.327 75.4545 149.816 75.7045C150.304 75.9545 150.867 76.0795 151.503 76.0795Z" fill="#E92F93"/>
<path d="M74.875 69.5625C76.375 68.4375 77.5 68.8125 78.25 70.6875C78.625 71.9375 79.5 72.375 80.875 72C82 71.875 82.9375 71.875 83.6875 72C84.5625 71.875 85.1875 71.5 85.5625 70.875C86.3125 69.125 87.5625 69.3125 89.3125 71.4375C89.8125 72.1875 90.5625 72.5625 91.5625 72.5625C92.6875 72.9375 93.5625 73.1875 94.1875 73.3125C94.4375 73.3125 94.625 73.3125 94.75 73.3125C95.125 73.4375 95.3125 73.5625 95.3125 73.6875C95.3125 73.8125 95.125 74.0625 94.75 74.4375C93.25 75.1875 91.125 75.3125 88.375 74.8125C87 74.5625 85.625 74.5 84.25 74.625C83.75 74.75 83 74.75 82 74.625C81.625 74.625 81.3125 74.5625 81.0625 74.4375C79.6875 74.5625 79.4375 75.375 80.3125 76.875C80.4375 77.25 80.625 77.75 80.875 78.375C83.875 83.75 86 87.6875 87.25 90.1875C88 91.9375 89.5625 93.3125 91.9375 94.3125C91.9375 94.4375 92 94.5 92.125 94.5C93.625 95 94.8125 95.625 95.6875 96.375C96.3125 97 97.125 97.3125 98.125 97.3125C98.75 97.4375 99.125 97.6875 99.25 98.0625C99.375 98.3125 99.25 98.5625 98.875 98.8125C98.375 98.9375 97.625 99.4375 96.625 100.312C94.875 101.438 92.875 102 90.625 102C88.375 101.875 86.6875 100.562 85.5625 98.0625C85.4375 97.9375 85.3125 97.75 85.1875 97.5C84.6875 95.875 84.25 94.625 83.875 93.75C82.875 92 82.125 89.875 81.625 87.375C80.75 84.375 79.375 80.75 77.5 76.5C77 75.5 76.3125 74.9375 75.4375 74.8125C73.4375 74.8125 72 74.8125 71.125 74.8125C70.5 74.8125 69.8125 74.9375 69.0625 75.1875C68.8125 75.3125 68.5 75.375 68.125 75.375C62.25 76.875 58.75 77.25 57.625 76.5C56.875 76.125 56.5625 75.6875 56.6875 75.1875C56.8125 74.5625 57.25 74.25 58 74.25C58.125 74.25 58.375 74.1875 58.75 74.0625C59.25 73.9375 59.625 73.8125 59.875 73.6875C64.25 72.6875 67.4375 72.3125 69.4375 72.5625C69.6875 72.6875 70.125 72.75 70.75 72.75C71.5 72.75 72.375 72.625 73.375 72.375C74 72.25 74.375 71.875 74.5 71.25C74.5 70.75 74.625 70.1875 74.875 69.5625ZM74.6875 76.6875C75.6875 77.0625 76.25 77.375 76.375 77.625C76.625 77.875 76.4375 78.125 75.8125 78.375C75.0625 78.75 73 79.1875 69.625 79.6875C69.375 79.6875 69.25 79.6875 69.25 79.6875C66.625 79.9375 64.8125 80.1875 63.8125 80.4375C62.5625 80.8125 61.625 80.6875 61 80.0625C60.25 79.1875 60.4375 78.5625 61.5625 78.1875C62.4375 78.0625 63.6875 77.6875 65.3125 77.0625C68.3125 76.0625 71.4375 75.9375 74.6875 76.6875ZM75.8125 81C76.5625 81.25 76.9375 81.5625 76.9375 81.9375C77.0625 82.3125 76.8125 82.5625 76.1875 82.6875C72.9375 83.4375 70.25 83.8125 68.125 83.8125C66.125 84.0625 64.6875 84.3125 63.8125 84.5625C63.6875 84.6875 63.5625 84.75 63.4375 84.75C62.1875 85.25 61.125 85.4375 60.25 85.3125C59.25 85.4375 58.5625 85.0625 58.1875 84.1875C57.9375 83.4375 58.3125 82.9375 59.3125 82.6875C60.1875 82.8125 61.1875 82.5625 62.3125 81.9375C66.4375 81.0625 69.75 80.5 72.25 80.25C73.125 80.375 74.3125 80.625 75.8125 81ZM75.8125 84.375C77.1875 84 77.375 85 76.375 87.375C76 88.375 75.6875 89.25 75.4375 90C75.3125 90.75 75.1875 91.3125 75.0625 91.6875C74.8125 92.6875 74.4375 93.1875 73.9375 93.1875C73.4375 93.1875 73.1875 92.75 73.1875 91.875C73.1875 91.25 73.3125 90.1875 73.5625 88.6875C73.9375 87.6875 72.6875 87.4375 69.8125 87.9375C69.1875 88.0625 68.9375 88.5625 69.0625 89.4375C68.8125 93.1875 67.9375 96 66.4375 97.875C63.5625 100.625 61.3125 101.938 59.6875 101.812C58.1875 101.688 57.25 100.875 56.875 99.375C56.625 98 57 97.3125 58 97.3125C62.625 96.5625 65.375 94.75 66.25 91.875C66.375 91.625 66.5 91.25 66.625 90.75C66.75 90.375 66.875 90.125 67 90C67.25 89.5 67.125 89.0625 66.625 88.6875C66.25 88.5625 65.625 88.625 64.75 88.875C63.5 89.375 62.9375 90.3125 63.0625 91.6875C62.9375 92.3125 62.8125 92.6875 62.6875 92.8125C62.1875 93.4375 61.875 94.0625 61.75 94.6875C61.625 95.1875 61.4375 95.4375 61.1875 95.4375C61.0625 95.5625 60.9375 95.375 60.8125 94.875C60.3125 94.125 60.1875 92.8125 60.4375 90.9375C60.5625 89.9375 60.4375 89.125 60.0625 88.5C59.3125 87.375 59.625 86.6875 61 86.4375C62 86.3125 63.125 86 64.375 85.5C64.875 85.375 65.5625 85.25 66.4375 85.125C67.6875 85.25 68.875 85.125 70 84.75C71.625 84.625 72.8125 84.5625 73.5625 84.5625C74.1875 84.8125 74.9375 84.75 75.8125 84.375ZM70.9375 93.375C71.4375 93.75 72.0625 94 72.8125 94.125C77.4375 95.375 79.1875 96.5625 78.0625 97.6875C77.8125 97.6875 77.5625 97.8125 77.3125 98.0625C77.1875 98.3125 77.0625 98.4375 76.9375 98.4375C75.8125 99.6875 74.6875 100.188 73.5625 99.9375C71.3125 99.3125 70 97.5625 69.625 94.6875C69.625 93.3125 70.0625 92.875 70.9375 93.375Z" fill="#E92F93"/>
<path d="M97.6875 39.5937L97.6875 49.1562C90.9375 44.6562 84.0625 42.4687 77.0625 42.5937C68.6875 42.4687 61.6875 44.6562 56.0625 49.1562L56.0625 39.5937L97.6875 39.5937ZM97.6875 138.406L56.0625 138.406L56.0625 128.844C61.6875 133.219 68.6875 135.406 77.0625 135.406C84.0625 135.406 90.9375 133.219 97.6875 128.844L97.6875 138.406Z" fill="#E92F93"/>
</svg>
