<svg width="164" height="515" viewBox="0 0 164 515" fill="none" xmlns="http://www.w3.org/2000/svg">
<path d="M144.18 38.544H159.708V40.272H144.18V38.544ZM144.18 44.136H159.684V45.84H144.18V44.136ZM144.06 49.872H159.732V51.576H144.06V49.872ZM143.172 38.544H144.948V47.256C144.948 50.904 144.516 55.872 141.66 59.064C141.372 58.704 140.652 58.104 140.268 57.864C142.908 54.888 143.172 50.616 143.172 47.232V38.544ZM158.988 38.544H160.764V56.472C160.764 57.648 160.476 58.2 159.684 58.512C158.868 58.8 157.476 58.824 155.196 58.8C155.124 58.32 154.836 57.528 154.572 57.048C156.276 57.12 157.908 57.096 158.364 57.096C158.82 57.072 158.988 56.928 158.988 56.472V38.544ZM150.708 39.192H152.532V58.704H150.708V39.192ZM150.612 66.2H152.556V85.424C152.556 86.768 152.196 87.296 151.332 87.584C150.468 87.896 148.98 87.944 146.7 87.944C146.604 87.416 146.268 86.576 145.956 86.048C147.732 86.12 149.46 86.096 149.94 86.072C150.444 86.072 150.612 85.904 150.612 85.424V66.2ZM156.42 72.32L158.148 71.648C160.236 75.032 162.276 79.424 162.9 82.328L160.98 83.096C160.404 80.264 158.46 75.752 156.42 72.32ZM144.324 71.816L146.34 72.152C145.548 75.68 144.156 80.024 141.972 82.712C141.54 82.376 140.748 81.944 140.268 81.752C142.404 79.208 143.724 75.056 144.324 71.816ZM144.396 104.128H158.58V105.328H144.396V104.128ZM146.844 101.176H156.204V102.328H146.844V101.176ZM148.14 106.84H153.9V107.968H148.14V106.84ZM153.444 101.68C154.356 104.536 156.348 107.032 158.916 108.088C158.604 108.376 158.172 108.904 157.932 109.264C155.268 107.944 153.252 105.184 152.244 101.992L153.444 101.68ZM150.42 98.344L151.884 98.512C150.924 103.816 148.716 107.368 144.948 109.624C144.78 109.336 144.276 108.736 143.988 108.472C147.588 106.528 149.604 103.144 150.42 98.344ZM147.228 98.536L148.572 98.872C147.852 100.312 146.676 101.8 145.548 102.76C145.308 102.544 144.756 102.136 144.444 101.92C145.572 101.056 146.628 99.808 147.228 98.536ZM147.468 106.84H148.932V111.4C148.932 112.024 149.172 112.12 150.324 112.12C150.876 112.12 153.828 112.12 154.572 112.12C155.412 112.12 155.58 111.88 155.676 110.2C156.012 110.416 156.564 110.608 156.972 110.68C156.804 112.816 156.348 113.32 154.716 113.32C154.212 113.32 150.684 113.32 150.228 113.32C148.092 113.32 147.468 112.984 147.468 111.424V106.84ZM154.26 99.208L155.364 98.56C156.564 99.616 157.932 101.104 158.556 102.136L157.38 102.856C156.78 101.824 155.46 100.288 154.26 99.208ZM153.372 106.84H154.692C154.692 106.84 154.692 107.152 154.692 107.368C154.596 109.12 154.5 109.888 154.212 110.248C153.948 110.512 153.612 110.608 153.108 110.656C152.748 110.656 151.932 110.656 151.164 110.608C151.14 110.296 151.02 109.84 150.852 109.552C151.62 109.6 152.316 109.624 152.556 109.624C152.82 109.624 152.964 109.6 153.084 109.456C153.252 109.288 153.324 108.664 153.372 107.008V106.84ZM141.468 95.896H161.532V116.944H159.756V97.552H143.172V116.944H141.468V95.896ZM142.524 114.28H160.74V115.912H142.524V114.28ZM147.684 135.288H162.516V136.968H147.684V135.288ZM157.452 133.368H159.228V143.736C159.228 144.792 159.012 145.32 158.244 145.608C157.476 145.896 156.204 145.92 154.308 145.92C154.236 145.416 153.972 144.672 153.708 144.144C155.196 144.192 156.54 144.192 156.972 144.168C157.356 144.144 157.452 144.072 157.452 143.712V133.368ZM159.876 123.84L161.124 125.232C157.692 126.264 152.436 127.08 147.972 127.536C147.9 127.128 147.684 126.48 147.468 126.096C151.86 125.592 156.972 124.752 159.876 123.84ZM148.332 128.784L149.844 128.28C150.612 129.648 151.38 131.472 151.62 132.648L150.012 133.224C149.772 132.072 149.076 130.176 148.332 128.784ZM153.036 127.848L154.644 127.464C155.22 128.88 155.724 130.656 155.82 131.784L154.116 132.24C154.044 131.088 153.588 129.264 153.036 127.848ZM149.604 138.744L151.092 137.952C152.34 139.176 153.708 140.952 154.308 142.152L152.748 143.064C152.22 141.84 150.852 140.016 149.604 138.744ZM144.948 123.864H146.676V145.92H144.948V123.864ZM140.1 139.56C141.444 138.864 143.46 137.664 145.428 136.464L146.004 137.976C144.3 139.176 142.524 140.4 141.012 141.408L140.1 139.56ZM140.364 127.608L141.828 126.912C142.98 128.424 144.156 130.464 144.612 131.784L143.052 132.624C142.62 131.256 141.468 129.168 140.364 127.608ZM160.452 127.176L162.084 127.992C160.788 130.008 159.036 132.312 157.668 133.872L156.276 133.08C157.62 131.52 159.444 129.048 160.452 127.176ZM145.284 172.304H157.836V173.912H145.284V172.304ZM148.476 152.648L150.18 153.248C148.236 156.512 145.188 159.44 142.188 161.288C141.9 160.952 141.228 160.28 140.82 159.992C143.844 158.312 146.772 155.6 148.476 152.648ZM157.236 155.36H157.62L157.932 155.264L159.18 156.104C155.628 161.744 147.804 165.392 141.06 166.976C140.916 166.472 140.508 165.728 140.172 165.344C146.58 164.048 154.212 160.496 157.236 155.648V155.36ZM146.604 156.464C149.82 160.616 156.156 163.952 162.756 165.224C162.324 165.632 161.844 166.376 161.58 166.88C154.956 165.392 148.668 161.888 145.116 157.184L146.604 156.464ZM144.348 166.328H158.58V174.944H156.708V167.984H146.148V175.04H144.348V166.328ZM147.54 155.36H157.692V156.968H146.46L147.54 155.36ZM141.804 186.136H161.148V197.44H159.276V187.912H143.604V197.56H141.804V186.136ZM142.764 194.296H160.356V196.048H142.764V194.296ZM150.492 181.84H152.364V203.896H150.492V181.84ZM144.396 220.128H158.58V221.328H144.396V220.128ZM146.844 217.176H156.204V218.328H146.844V217.176ZM148.14 222.84H153.9V223.968H148.14V222.84ZM153.444 217.68C154.356 220.536 156.348 223.032 158.916 224.088C158.604 224.376 158.172 224.904 157.932 225.264C155.268 223.944 153.252 221.184 152.244 217.992L153.444 217.68ZM150.42 214.344L151.884 214.512C150.924 219.816 148.716 223.368 144.948 225.624C144.78 225.336 144.276 224.736 143.988 224.472C147.588 222.528 149.604 219.144 150.42 214.344ZM147.228 214.536L148.572 214.872C147.852 216.312 146.676 217.8 145.548 218.76C145.308 218.544 144.756 218.136 144.444 217.92C145.572 217.056 146.628 215.808 147.228 214.536ZM147.468 222.84H148.932V227.4C148.932 228.024 149.172 228.12 150.324 228.12C150.876 228.12 153.828 228.12 154.572 228.12C155.412 228.12 155.58 227.88 155.676 226.2C156.012 226.416 156.564 226.608 156.972 226.68C156.804 228.816 156.348 229.32 154.716 229.32C154.212 229.32 150.684 229.32 150.228 229.32C148.092 229.32 147.468 228.984 147.468 227.424V222.84ZM154.26 215.208L155.364 214.56C156.564 215.616 157.932 217.104 158.556 218.136L157.38 218.856C156.78 217.824 155.46 216.288 154.26 215.208ZM153.372 222.84H154.692C154.692 222.84 154.692 223.152 154.692 223.368C154.596 225.12 154.5 225.888 154.212 226.248C153.948 226.512 153.612 226.608 153.108 226.656C152.748 226.656 151.932 226.656 151.164 226.608C151.14 226.296 151.02 225.84 150.852 225.552C151.62 225.6 152.316 225.624 152.556 225.624C152.82 225.624 152.964 225.6 153.084 225.456C153.252 225.288 153.324 224.664 153.372 223.008V222.84ZM141.468 211.896H161.532V232.944H159.756V213.552H143.172V232.944H141.468V211.896ZM142.524 230.28H160.74V231.912H142.524V230.28ZM145.452 248V258.32H143.7V249.656H140.556V248H145.452ZM141.468 241.016L142.86 240.128C144.108 241.424 145.62 243.224 146.316 244.4L144.852 245.408C144.204 244.232 142.716 242.36 141.468 241.016ZM144.516 257.048C145.308 257.048 145.884 257.792 147.276 258.656C148.884 259.688 150.972 259.88 153.804 259.88C156.756 259.88 160.452 259.664 162.852 259.4C162.636 259.88 162.324 260.84 162.3 261.416C160.596 261.512 156.156 261.68 153.732 261.68C150.588 261.68 148.572 261.392 146.82 260.312C145.836 259.64 144.996 258.776 144.468 258.776C143.724 258.776 142.644 260.312 141.564 261.968L140.22 260.24C141.78 258.368 143.34 257.048 144.516 257.048ZM154.404 245.216H156.276V259.232H154.404V245.216ZM147.084 253.136H162.06V254.84H147.084V253.136ZM147.252 242.36H161.628V243.944H147.252V242.36ZM148.524 250.208V248.744L149.604 248.168H160.932V249.872H150.708C149.556 249.872 148.74 249.992 148.524 250.208ZM148.524 250.208C148.452 249.824 148.14 248.96 147.924 248.48C148.356 248.384 148.74 247.784 149.22 246.92C149.724 246.08 151.236 242.816 152.052 239.864L153.924 240.368C152.844 243.536 151.356 246.872 149.868 249.176V249.2C149.868 249.2 148.524 249.824 148.524 250.208ZM154.164 268.84H155.988V272.128H154.164V268.84ZM148.476 271.408H161.82V272.968H148.476V271.408ZM147.516 277.024H162.492V278.608H147.516V277.024ZM150.732 273.184L152.292 272.872C152.82 274.168 153.276 275.848 153.372 276.88L151.74 277.288C151.668 276.232 151.236 274.504 150.732 273.184ZM157.86 272.824L159.636 273.088C159.132 274.504 158.556 276.136 158.052 277.216L156.516 276.952C156.996 275.824 157.572 274.024 157.86 272.824ZM147.636 280.984H162.396V282.544H147.636V280.984ZM153.132 278.176L154.932 278.536C153.708 281.296 152.004 284.8 150.78 287.008L149.22 286.48C150.42 284.344 152.076 280.792 153.132 278.176ZM150.444 286.168L151.5 284.944C155.124 285.976 159.636 287.896 161.964 289.576L160.812 290.944C158.604 289.312 154.116 287.272 150.444 286.168ZM157.86 281.992L159.612 282.256C158.46 287.608 155.172 289.936 147.756 290.92C147.636 290.416 147.324 289.792 147.036 289.408C153.948 288.712 156.828 286.672 157.86 281.992ZM140.148 281.608C142.092 281.128 145.02 280.264 147.852 279.448L148.068 281.056C145.452 281.872 142.692 282.736 140.556 283.384L140.148 281.608ZM140.556 273.688H147.876V275.368H140.556V273.688ZM143.82 268.864H145.548V288.736C145.548 289.768 145.332 290.272 144.708 290.56C144.084 290.872 143.1 290.92 141.54 290.92C141.468 290.464 141.228 289.672 140.988 289.168C142.068 289.216 143.076 289.216 143.364 289.192C143.676 289.192 143.82 289.096 143.82 288.736V268.864ZM141.276 300.552H150.9V302.184H141.276V300.552ZM153.348 305.64H160.404V307.224H153.348V305.64ZM140.652 305.208H151.5V306.84H140.652V305.208ZM146.508 310.392H151.284V312H146.508V310.392ZM145.284 297.888H146.988V306.048H145.284V297.888ZM145.692 306.312H147.372V317.328H145.692V306.312ZM152.412 298.992H161.22V307.848H159.468V300.6H152.412V298.992ZM152.652 305.64H154.38V313.488C154.38 314.256 154.596 314.4 155.724 314.4C156.252 314.4 158.94 314.4 159.66 314.4C160.692 314.4 160.86 313.92 160.956 311.04C161.34 311.328 162.084 311.616 162.588 311.736C162.348 315.168 161.844 316.032 159.78 316.032C159.276 316.032 156.036 316.032 155.556 316.032C153.324 316.032 152.652 315.528 152.652 313.488V305.64ZM143.22 311.544C144.516 316.56 147.204 317.592 152.772 317.592C153.948 317.592 161.292 317.592 162.78 317.544C162.492 317.952 162.156 318.792 162.036 319.32H152.82C146.316 319.32 143.46 318.024 141.9 311.976L143.22 311.544ZM141.876 308.736L143.556 308.856C143.412 313.464 143.076 317.448 141.636 320.136C141.324 319.896 140.532 319.464 140.124 319.272C141.516 316.872 141.78 313.008 141.876 308.736ZM140.844 337.496H162.18V339.224H140.844V337.496ZM141.996 329.744H161.172V331.472H141.996V329.744ZM150.516 326.864H152.412V348.92H150.516V326.864ZM157.644 331.904L159.516 332.504C158.652 334.16 157.596 336.08 156.732 337.28L155.196 336.728C156.036 335.456 157.092 333.368 157.644 331.904ZM143.94 332.624L145.524 332.024C146.508 333.416 147.468 335.312 147.804 336.536L146.1 337.232C145.788 336.008 144.876 334.064 143.94 332.624ZM150.036 338.168L151.5 338.768C149.22 342.512 145.236 346.064 141.588 347.864C141.3 347.432 140.724 346.76 140.316 346.4C143.964 344.816 147.972 341.48 150.036 338.168ZM152.94 338.168C155.028 341.48 159.06 344.864 162.708 346.448C162.3 346.808 161.724 347.504 161.436 347.96C157.764 346.136 153.78 342.488 151.476 338.792L152.94 338.168ZM143.268 378.568L142.716 377.32C144.684 376.504 145.764 375.28 145.764 373.48L145.308 371.44L146.604 373.264C146.268 373.696 145.788 373.816 145.332 373.816C144.348 373.816 143.532 373.24 143.532 372.088C143.532 370.96 144.396 370.36 145.356 370.36C146.7 370.36 147.42 371.464 147.42 373.144C147.42 375.736 145.788 377.704 143.268 378.568ZM142.62 388.464H160.548V390.288H142.62V388.464ZM140.748 394.8H162.324V396.6H140.748V394.8ZM150.468 384.84H152.364V395.808H150.468V384.84ZM148.524 395.976L150.636 396.528C149.388 399.36 147.732 402.792 146.34 405.024L144.66 404.448C146.004 402.168 147.66 398.544 148.524 395.976ZM141.612 404.016C146.124 403.896 153.228 403.584 159.804 403.272L159.732 405.024C153.276 405.384 146.388 405.744 141.852 405.936L141.612 404.016ZM154.836 399.336L156.492 398.568C158.652 400.92 160.98 404.064 162.084 406.176L160.308 407.136C159.276 405 156.924 401.712 154.836 399.336ZM140.34 426.56C142.26 426.032 145.14 425.144 147.852 424.28L148.044 425.936C145.548 426.776 142.86 427.664 140.796 428.288L140.34 426.56ZM140.556 418.64H147.924V420.344H140.556V418.64ZM143.484 413.864H145.26V433.688C145.26 434.72 145.02 435.224 144.396 435.512C143.748 435.776 142.74 435.824 141.108 435.8C141.036 435.368 140.772 434.624 140.532 434.168C141.66 434.192 142.716 434.192 143.028 434.168C143.34 434.144 143.484 434.048 143.484 433.688V413.864ZM153.924 413.84H155.7V420.224H153.924V413.84ZM153.948 427.256H155.724V435.944H153.948V427.256ZM155.028 415.88H162.252V417.44H155.028V415.88ZM147.228 430.328H162.492V431.936H147.228V430.328ZM150.444 424.616V426.824H159.084V424.616H150.444ZM150.444 421.064V423.248H159.084V421.064H150.444ZM148.716 419.624H160.86V428.288H148.716V419.624ZM140.988 449.752H162.084V451.576H140.988V449.752ZM152.676 450.472C154.236 456.28 157.5 461.128 162.492 463.192C162.036 463.6 161.436 464.368 161.124 464.872C155.94 462.424 152.676 457.36 150.876 450.904L152.676 450.472ZM150.564 442.864H152.508C152.412 449.152 152.364 460.096 141.876 464.896C141.588 464.416 141.012 463.768 140.508 463.408C150.708 458.968 150.516 448.624 150.564 442.864ZM144.396 481.128H158.58V482.328H144.396V481.128ZM146.844 478.176H156.204V479.328H146.844V478.176ZM148.14 483.84H153.9V484.968H148.14V483.84ZM153.444 478.68C154.356 481.536 156.348 484.032 158.916 485.088C158.604 485.376 158.172 485.904 157.932 486.264C155.268 484.944 153.252 482.184 152.244 478.992L153.444 478.68ZM150.42 475.344L151.884 475.512C150.924 480.816 148.716 484.368 144.948 486.624C144.78 486.336 144.276 485.736 143.988 485.472C147.588 483.528 149.604 480.144 150.42 475.344ZM147.228 475.536L148.572 475.872C147.852 477.312 146.676 478.8 145.548 479.76C145.308 479.544 144.756 479.136 144.444 478.92C145.572 478.056 146.628 476.808 147.228 475.536ZM147.468 483.84H148.932V488.4C148.932 489.024 149.172 489.12 150.324 489.12C150.876 489.12 153.828 489.12 154.572 489.12C155.412 489.12 155.58 488.88 155.676 487.2C156.012 487.416 156.564 487.608 156.972 487.68C156.804 489.816 156.348 490.32 154.716 490.32C154.212 490.32 150.684 490.32 150.228 490.32C148.092 490.32 147.468 489.984 147.468 488.424V483.84ZM154.26 476.208L155.364 475.56C156.564 476.616 157.932 478.104 158.556 479.136L157.38 479.856C156.78 478.824 155.46 477.288 154.26 476.208ZM153.372 483.84H154.692C154.692 483.84 154.692 484.152 154.692 484.368C154.596 486.12 154.5 486.888 154.212 487.248C153.948 487.512 153.612 487.608 153.108 487.656C152.748 487.656 151.932 487.656 151.164 487.608C151.14 487.296 151.02 486.84 150.852 486.552C151.62 486.6 152.316 486.624 152.556 486.624C152.82 486.624 152.964 486.6 153.084 486.456C153.252 486.288 153.324 485.664 153.372 484.008V483.84ZM141.468 472.896H161.532V493.944H159.756V474.552H143.172V493.944H141.468V472.896ZM142.524 491.28H160.74V492.912H142.524V491.28Z" fill="#FFF1F9"/>
<path d="M76.75 68.625C77.375 68.875 77.875 69.1875 78.25 69.5625C78.5 70.0625 79.375 70.5625 80.875 71.0625C81.5 71.3125 82.125 71.5625 82.75 71.8125C83.125 72.3125 84.1875 72.75 85.9375 73.125C86.6875 73.25 87.5625 73.5625 88.5625 74.0625C89.3125 74.5625 90.125 74.875 91 75C91.5 75.5 91.625 75.75 91.375 75.75C91 76.25 90.9375 76.5 91.1875 76.5C91.3125 77 91.0625 77.3125 90.4375 77.4375C88.0625 77.4375 86.1875 77.3125 84.8125 77.0625C84.0625 76.9375 81.4375 76.875 76.9375 76.875C76.1875 77.125 76.0625 77.6875 76.5625 78.5625C77.4375 79.0625 78.25 79.25 79 79.125C79.375 79 79.75 79.0625 80.125 79.3125C80.625 79.5625 81.375 79.5625 82.375 79.3125C84.25 79.1875 86.625 79.375 89.5 79.875C90.625 80.375 91.4375 80.5625 91.9375 80.4375C92.3125 80.3125 92.4375 80.625 92.3125 81.375C91.4375 82.75 90.375 83.4375 89.125 83.4375C86.625 83.5625 84.5 83.375 82.75 82.875C82 83 81.8125 83.4375 82.1875 84.1875C82.6875 84.4375 83.25 84.9375 83.875 85.6875C86.625 88.3125 89.5 90.1875 92.5 91.3125C93.5 91.4375 94.5625 91.875 95.6875 92.625C96.3125 93 97.125 93.25 98.125 93.375C98.5 93.25 98.75 93.375 98.875 93.75C98.875 94.25 98.75 94.625 98.5 94.875C96.75 96.25 94.875 97.3125 92.875 98.0625C90.625 98.0625 88.9375 97.1875 87.8125 95.4375C87.4375 94.9375 86.9375 94.25 86.3125 93.375C83.9375 91 82.6875 89.4375 82.5625 88.6875C82.0625 88.1875 81.5625 88.25 81.0625 88.875C80.1875 89.625 78.75 90 76.75 90C76.25 89.875 75.125 89.8125 73.375 89.8125C71.375 90.1875 70 89.9375 69.25 89.0625C69 88.6875 68.5 88.75 67.75 89.25C66 90.75 64.9375 91.8125 64.5625 92.4375C63.3125 93.9375 61.9375 95.0625 60.4375 95.8125C60.1875 95.9375 59.875 96.125 59.5 96.375C59.375 96.625 59.25 96.75 59.125 96.75C58.625 97.25 57.5625 97.5 55.9375 97.5C55.1875 97.5 54.8125 97.25 54.8125 96.75C54.9375 95.625 55.0625 94.3125 55.1875 92.8125C55.4375 92.0625 55.9375 91.8125 56.6875 92.0625C57.1875 92.9375 57.875 93.0625 58.75 92.4375C61.25 90.8125 63.125 89.625 64.375 88.875C64.875 88.625 66.0625 87.625 67.9375 85.875C68.4375 85.5 68.9375 85.0625 69.4375 84.5625C69.8125 84.1875 69.875 83.875 69.625 83.625C69.375 83.375 68.9375 83.25 68.3125 83.25C64.8125 84 62.375 84.5625 61 84.9375C60 85.0625 59.5 84.1875 59.5 82.3125C59.875 81.4375 60.375 81.0625 61 81.1875C61.375 81.5625 62.1875 81.375 63.4375 80.625C65.4375 79.875 66.875 79.6875 67.75 80.0625C69 80.5625 70.625 80.125 72.625 78.75C73.125 78.25 73.25 77.6875 73 77.0625C72 76.9375 71.125 76.9375 70.375 77.0625C69.625 77.1875 69.1875 77.25 69.0625 77.25C68.0625 77.25 66.25 77.5 63.625 78C61.375 78.5 59.8125 77.9375 58.9375 76.3125C59.0625 76.0625 59.5625 75.5625 60.4375 74.8125C62.3125 74.8125 65.25 74 69.25 72.375C71.375 71.25 72.5625 70.25 72.8125 69.375C73.1875 68.375 74.5 68.125 76.75 68.625ZM76.9375 71.625C75.4375 71.375 74.375 71.4375 73.75 71.8125C72.875 72.4375 72.25 73 71.875 73.5C71.375 74.5 72.125 74.8125 74.125 74.4375C75.125 74.3125 76.9375 74.1875 79.5625 74.0625C79.8125 74.0625 79.9375 74 79.9375 73.875C80.0625 73.75 80 73.5625 79.75 73.3125C79 72.8125 78.0625 72.25 76.9375 71.625ZM76.9375 83.0625C76.1875 82.8125 75.3125 82.9375 74.3125 83.4375C72.9375 84.4375 72.1875 85 72.0625 85.125C71.6875 85.625 71.6875 86.0625 72.0625 86.4375C72.4375 86.6875 73 86.6875 73.75 86.4375C74.75 86.1875 75.9375 86 77.3125 85.875C79.0625 86 79.875 85.75 79.75 85.125C79.125 84.25 78.1875 83.5625 76.9375 83.0625ZM82.375 91.5C83.625 92.375 83.625 93.4375 82.375 94.6875C82 94.9375 81.125 95.125 79.75 95.25C78.125 95.25 77.125 95.1875 76.75 95.0625C74.125 95.0625 72.5 95.125 71.875 95.25C70.625 95.5 69.3125 95.5 67.9375 95.25C66.8125 94.875 66.625 93.9375 67.375 92.4375C68.25 92.4375 69 92.25 69.625 91.875C75.375 91.375 79.625 91.25 82.375 91.5ZM70 97.3125C70.625 97.0625 71.5 96.875 72.625 96.75C73.5 97 74.3125 97 75.0625 96.75C79.1875 96.375 83.375 96.8125 87.625 98.0625C88.5 99.1875 88.125 100.438 86.5 101.812C86.25 101.812 85.875 101.812 85.375 101.812C82.625 101.438 80.75 101.125 79.75 100.875C76.5 100.25 73.625 100.25 71.125 100.875C70.25 101.125 69.1875 101.312 67.9375 101.438C66.8125 101.562 66.1875 101.5 66.0625 101.25C65.5625 101.125 64.9375 101.062 64.1875 101.062C63.1875 100.562 63.1875 99.75 64.1875 98.625C64.6875 98.5 66.0625 98.1875 68.3125 97.6875C69.1875 97.5625 69.75 97.4375 70 97.3125Z" fill="#E92F93"/>
<path d="M97.6875 39.5937L97.6875 49.1562C90.9375 44.6562 84.0625 42.4687 77.0625 42.5937C68.6875 42.4687 61.6875 44.6562 56.0625 49.1562L56.0625 39.5937L97.6875 39.5937ZM97.6875 138.406L56.0625 138.406L56.0625 128.844C61.6875 133.219 68.6875 135.406 77.0625 135.406C84.0625 135.406 90.9375 133.219 97.6875 128.844L97.6875 138.406Z" fill="#E92F93"/>
</svg>
