<svg width="694" height="222" viewBox="0 0 694 222" fill="none" xmlns="http://www.w3.org/2000/svg">
<path d="M71.6394 6.63636V27H69.1735V9.22159H69.0542L64.0826 12.5227V10.017L69.1735 6.63636H71.6394ZM81.8138 27.1591C81.3232 27.1591 80.9023 26.9834 80.551 26.6321C80.1997 26.2808 80.024 25.8598 80.024 25.3693C80.024 24.8788 80.1997 24.4579 80.551 24.1065C80.9023 23.7552 81.3232 23.5795 81.8138 23.5795C82.3043 23.5795 82.7252 23.7552 83.0766 24.1065C83.4279 24.4579 83.6035 24.8788 83.6035 25.3693C83.6035 25.6941 83.5207 25.9924 83.355 26.2642C83.1959 26.536 82.9804 26.7547 82.7087 26.9205C82.4435 27.0795 82.1452 27.1591 81.8138 27.1591ZM98.752 4.628H119.22V6.308H98.752V4.628ZM96.792 17.032H121.264V18.74H96.792V17.032ZM100.404 11.012H106.452V12.44H100.404V11.012ZM99.816 13.952H106.452V15.38H99.816V13.952ZM111.38 13.952H118.24V15.38H111.38V13.952ZM111.38 11.012H117.568V12.44H111.38V11.012ZM107.88 5.272H109.924V16.108H107.88V5.272ZM105.108 21.848H107.068V29.044H105.108V21.848ZM111.324 21.848H113.256V29.044H111.324V21.848ZM97.128 7.932H120.9V13.308H118.912V9.472H99.032V13.308H97.128V7.932ZM98.976 20.756H118.184V22.492H100.964V29.212H98.976V20.756ZM117.652 20.756H119.668V27.168C119.668 28.12 119.528 28.624 118.8 28.932C118.1 29.268 117.064 29.24 115.524 29.24C115.44 28.736 115.132 28.008 114.88 27.504C116 27.532 116.952 27.532 117.26 27.504C117.568 27.476 117.652 27.392 117.652 27.14V20.756ZM107.908 17.676L110.204 17.76C109.7 19.272 109.112 20.812 108.636 21.848L106.788 21.652C107.208 20.504 107.712 18.824 107.908 17.676ZM124.26 18.796H149.74V20.56H124.26V18.796ZM124.932 4.712H149.04V6.56H124.932V4.712ZM133.976 15.856L136.02 16.416C134.2 19.328 131.624 22.996 129.832 25.292L127.844 24.62C129.636 22.352 132.24 18.6 133.976 15.856ZM142.376 19.412L144.392 20C141.928 26.16 135.964 28.456 125.464 29.24C125.324 28.624 124.988 27.868 124.652 27.392C134.648 26.86 140.136 24.872 142.376 19.412ZM129.356 24.34L130.42 22.8C137.336 24.032 144.532 25.908 148.872 27.616L147.612 29.324C143.328 27.56 136.468 25.656 129.356 24.34ZM132.576 5.412H134.564V15.184H132.576V5.412ZM139.1 5.412H141.088V15.184H139.1V5.412ZM128.292 10.676V14.484H145.764V10.676H128.292ZM126.332 8.968H147.864V16.22H126.332V8.968ZM160.548 16.836H177.852V18.796H160.548V16.836ZM171.944 14.596H174.016V26.692C174.016 27.924 173.764 28.54 172.868 28.876C171.972 29.212 170.488 29.24 168.276 29.24C168.192 28.652 167.884 27.784 167.576 27.168C169.312 27.224 170.88 27.224 171.384 27.196C171.832 27.168 171.944 27.084 171.944 26.664V14.596ZM174.772 3.48L176.228 5.104C172.224 6.308 166.092 7.26 160.884 7.792C160.8 7.316 160.548 6.56 160.296 6.112C165.42 5.524 171.384 4.544 174.772 3.48ZM161.304 9.248L163.068 8.66C163.964 10.256 164.86 12.384 165.14 13.756L163.264 14.428C162.984 13.084 162.172 10.872 161.304 9.248ZM166.792 8.156L168.668 7.708C169.34 9.36 169.928 11.432 170.04 12.748L168.052 13.28C167.968 11.936 167.436 9.808 166.792 8.156ZM162.788 20.868L164.524 19.944C165.98 21.372 167.576 23.444 168.276 24.844L166.456 25.908C165.84 24.48 164.244 22.352 162.788 20.868ZM157.356 3.508H159.372V29.24H157.356V3.508ZM151.7 21.82C153.268 21.008 155.62 19.608 157.916 18.208L158.588 19.972C156.6 21.372 154.528 22.8 152.764 23.976L151.7 21.82ZM152.008 7.876L153.716 7.064C155.06 8.828 156.432 11.208 156.964 12.748L155.144 13.728C154.64 12.132 153.296 9.696 152.008 7.876ZM175.444 7.372L177.348 8.324C175.836 10.676 173.792 13.364 172.196 15.184L170.572 14.26C172.14 12.44 174.268 9.556 175.444 7.372ZM192.02 3.62L194.092 4.068C193 8.548 191.236 12.86 189.08 15.716C188.716 15.352 187.876 14.68 187.4 14.372C189.472 11.768 191.096 7.736 192.02 3.62ZM191.544 15.492L193.588 15.912C192.72 19.58 191.208 23.136 189.5 25.488C189.08 25.152 188.184 24.592 187.68 24.34C189.416 22.184 190.76 18.852 191.544 15.492ZM191.768 8.884H204.368V10.844H190.956L191.768 8.884ZM196.108 9.696H198.208V26.692C198.208 27.896 197.956 28.512 197.172 28.848C196.416 29.212 195.212 29.268 193.476 29.268C193.336 28.68 193.028 27.756 192.72 27.14C194.036 27.196 195.24 27.168 195.632 27.168C195.996 27.168 196.108 27.056 196.108 26.692V9.696ZM200.224 15.912L202.1 15.296C203.724 18.236 205.124 22.1 205.6 24.704L203.612 25.376C203.164 22.8 201.764 18.852 200.224 15.912ZM203.752 8.884H204.032L204.396 8.828L205.852 9.136C205.46 11.208 204.984 13.616 204.62 15.128L202.8 14.792C203.108 13.392 203.472 11.04 203.752 9.192V8.884ZM186.392 3.592L188.38 4.208C186.532 8.968 183.648 13.7 180.624 16.836C180.4 16.36 179.812 15.24 179.42 14.764C182.192 12.048 184.824 7.848 186.392 3.592ZM183.48 10.816L185.44 8.828L185.496 8.856V29.212H183.48V10.816ZM210.668 7.988H219.18V26.3H210.668V24.396H217.22V9.864H210.668V7.988ZM209.408 7.988H211.368V28.54H209.408V7.988ZM210.528 15.772H218.256V17.648H210.528V15.772ZM213.692 3.424L215.96 3.844C215.4 5.58 214.7 7.512 214.14 8.772L212.46 8.352C212.936 7.008 213.468 4.88 213.692 3.424ZM223.156 7.904H231.752V9.864H223.156V7.904ZM231.024 7.904H232.984C232.984 7.904 232.984 8.688 232.984 8.996C232.536 21.848 232.144 26.188 231.024 27.56C230.408 28.372 229.764 28.624 228.784 28.708C227.832 28.82 226.18 28.764 224.612 28.68C224.556 28.064 224.304 27.196 223.912 26.636C225.732 26.776 227.412 26.804 228.056 26.804C228.616 26.804 228.952 26.72 229.26 26.356C230.184 25.348 230.632 20.7 231.024 8.352V7.904ZM223.744 3.368L225.76 3.844C224.724 8.016 223.072 12.132 221.14 14.792C220.776 14.456 219.908 13.868 219.404 13.588C221.308 11.124 222.848 7.26 223.744 3.368ZM222.456 15.184L224.08 14.232C225.676 16.22 227.608 18.936 228.504 20.588L226.712 21.708C225.872 20 223.996 17.228 222.456 15.184ZM257.316 3.536L258.884 5.244C253.816 6.728 245.528 7.484 238.724 7.764C238.668 7.232 238.416 6.392 238.22 5.916C244.884 5.608 253.06 4.852 257.316 3.536ZM238.248 11.432H260.088V13.448H238.248V11.432ZM236.372 18.012H261.656V20.056H236.372V18.012ZM247.936 6.504H250.12V26.328C250.12 27.812 249.672 28.456 248.608 28.792C247.544 29.128 245.724 29.184 242.756 29.156C242.616 28.568 242.224 27.616 241.888 27.056C244.212 27.14 246.452 27.112 247.068 27.084C247.712 27.084 247.936 26.888 247.936 26.3V6.504ZM264.204 8.016H276.664V10.004H264.204V8.016ZM268.74 13.728H274.116V15.66H268.74V13.728ZM269.328 3.536H271.4V8.968H269.328V3.536ZM273.388 13.728H275.404C275.404 13.728 275.404 14.4 275.376 14.68C275.18 24.032 275.012 27.224 274.256 28.204C273.808 28.82 273.36 29.016 272.604 29.128C271.932 29.184 270.728 29.184 269.552 29.128C269.496 28.54 269.3 27.728 268.992 27.196C270.168 27.28 271.204 27.28 271.652 27.28C272.044 27.308 272.296 27.224 272.52 26.916C272.996 26.244 273.22 23.136 273.388 14.148V13.728ZM279.296 8.716H289.936V10.676H279.296V8.716ZM279.94 3.48L282.096 3.788C281.144 9.08 279.52 14.092 277.224 17.34C276.86 16.976 275.936 16.276 275.432 15.968C277.672 13 279.128 8.296 279.94 3.48ZM285.904 9.78L287.976 10.004C286.436 19.748 283.244 25.712 275.964 29.324C275.768 28.848 275.152 27.924 274.732 27.476C281.648 24.368 284.616 18.74 285.904 9.78ZM280.108 10.508C281.48 18.264 284.448 24.732 290.132 27.392C289.628 27.812 288.956 28.624 288.648 29.184C282.74 26.104 279.828 19.356 278.288 10.844L280.108 10.508ZM267.536 8.996H269.524V15.828C269.524 20.476 268.964 25.264 265.24 29.212C264.876 28.792 264.204 28.232 263.672 27.868C267.116 24.228 267.536 19.776 267.536 15.828V8.996ZM309.172 6.196V8.716H313.876V6.196H309.172ZM302.62 6.196V8.716H307.24V6.196H302.62ZM296.208 6.196V8.716H300.688V6.196H296.208ZM294.192 4.684H315.976V10.256H294.192V4.684ZM292.904 11.796H317.124V13.42H292.904V11.796ZM295.34 26.384H317.824V28.092H295.34V26.384ZM294.444 15.492H296.572V29.268H294.444V15.492ZM301.36 19.16V20.7H312.756V19.16H301.36ZM301.36 21.96V23.556H312.756V21.96H301.36ZM301.36 16.388V17.9H312.756V16.388H301.36ZM299.4 15.072H314.8V24.844H299.4V15.072ZM304.356 9.808L306.456 9.976C306.204 11.908 305.812 14.26 305.504 15.744H303.46C303.796 14.176 304.16 11.74 304.356 9.808ZM338.012 4.544L339.104 3.312C340.504 3.76 342.24 4.544 343.136 5.244L341.988 6.644C341.148 5.916 339.44 5.048 338.012 4.544ZM323.536 6.336H345.348V8.072H323.536V6.336ZM325.524 9.976H334.12V11.46H325.524V9.976ZM325.972 13.364H327.736V18.46H325.972V13.364ZM340.84 9.416L342.8 9.892C341.232 14.54 338.404 18.32 334.988 20.756C334.68 20.364 333.896 19.664 333.476 19.3C336.864 17.116 339.496 13.616 340.84 9.416ZM334.232 3.48H336.248C336.556 12.104 340.364 19.104 343.22 19.076C343.92 19.076 344.2 18.068 344.34 15.52C344.76 15.912 345.46 16.276 345.992 16.472C345.656 20.028 344.9 21.008 343.108 21.008C338.684 21.008 334.68 12.888 334.232 3.48ZM325.972 13.364H333.672V19.244H325.972V17.732H331.88V14.848H325.972V13.364ZM327.372 21.82H329.444V26.16C329.444 26.86 329.724 27 331.208 27C331.908 27 335.408 27 336.332 27C337.564 27 337.76 26.664 337.872 24.06C338.32 24.396 339.188 24.676 339.776 24.816C339.496 28.12 338.88 28.904 336.5 28.904C335.856 28.904 331.684 28.904 331.068 28.904C328.1 28.904 327.372 28.344 327.372 26.188V21.82ZM329.556 20.896L330.9 19.72C332.664 20.532 334.736 21.876 335.716 22.968L334.288 24.312C333.336 23.22 331.292 21.792 329.556 20.896ZM339.216 22.66L340.924 21.708C342.94 23.276 345.04 25.6 345.908 27.336L344.032 28.372C343.248 26.664 341.232 24.284 339.216 22.66ZM323.816 21.988L325.664 22.632C324.964 24.9 323.816 27.252 321.828 28.68L320.092 27.504C321.968 26.216 323.2 24.088 323.816 21.988ZM322.556 6.336H324.516V10.564C324.516 13.812 324.012 18.404 321.436 21.568C321.156 21.176 320.316 20.476 319.896 20.252C322.248 17.34 322.556 13.392 322.556 10.536V6.336ZM351.424 7.092H373.376V9.08H351.424V7.092ZM350.36 7.092H352.488V14.736C352.488 18.992 352.124 25.264 349.828 29.464C349.464 29.072 348.484 28.484 348.008 28.288C350.164 24.312 350.36 18.712 350.36 14.736V7.092ZM360.076 3.816L362.12 3.284C362.82 4.516 363.604 6.084 363.94 7.092L361.812 7.764C361.476 6.7 360.72 5.048 360.076 3.816ZM354.364 13.28L356.184 12.552C357.416 15.604 358.76 19.496 359.376 22.1L357.416 22.94C356.856 20.308 355.512 16.332 354.364 13.28ZM360.44 11.74L362.344 11.18C363.324 14.232 364.36 18.152 364.78 20.756L362.764 21.344C362.4 18.74 361.364 14.764 360.44 11.74ZM369.932 11.012L372.116 11.824C370.604 17.088 368.168 22.912 365.144 27.56C364.836 27.196 364.192 26.608 363.744 26.3C366.572 21.904 368.812 15.996 369.932 11.012ZM352.824 25.936H373.74V27.952H352.824V25.936ZM380.292 6.42V10.76H385.472V6.42H380.292ZM378.36 4.712H387.488V12.468H378.36V4.712ZM392.5 6.42V10.76H397.708V6.42H392.5ZM390.568 4.712H399.724V12.468H390.568V4.712ZM376.456 14.596H401.572V16.472H376.456V14.596ZM379.76 26.468H386.564V28.26H379.76V26.468ZM391.268 26.468H398.128V28.26H391.268V26.468ZM392.528 15.1C394.432 17.676 398.408 19.86 402.384 20.784C401.908 21.204 401.348 21.96 401.04 22.492C396.924 21.316 392.864 18.88 390.624 15.856L392.528 15.1ZM378.78 20.168H387.656V29.212H385.724V21.96H380.656V29.324H378.78V20.168ZM390.288 20.168H399.22V29.212H397.26V21.96H392.164V29.324H390.288V20.168ZM387.628 11.684L389.672 12.356C387.432 17.172 382.896 20.448 377.044 22.52C376.792 22.072 376.148 21.288 375.728 20.924C381.356 19.02 385.752 15.996 387.628 11.684ZM409.58 7.932H415.712V9.892H409.58V7.932ZM415.068 7.932H415.488L415.88 7.876L417.28 8.24C415.964 19.72 411.764 26.132 405.66 29.296C405.296 28.82 404.484 27.98 403.952 27.644C409.972 24.732 413.948 18.964 415.068 8.436V7.932ZM409.132 11.46C411.764 24.284 418.316 26.216 425.148 26.216C426.016 26.216 428.9 26.216 429.992 26.188C429.656 26.72 429.264 27.784 429.152 28.4H425.036C417.28 28.4 410.308 26.076 407.452 12.048L409.132 11.46ZM409.16 3.592L411.372 4.124C410.364 9.836 408.544 15.324 406.164 18.488C405.772 18.152 404.988 17.592 404.456 17.312C406.668 14.372 408.376 9.08 409.16 3.592ZM421.48 11.348L423.16 10.396C425.316 12.72 427.948 15.856 429.208 17.872L427.388 19.02C426.212 17.004 423.608 13.728 421.48 11.348ZM420.22 3.536H422.46V24.144H420.22V3.536ZM432.568 15.912H457.46V17.928H432.568V15.912ZM433.912 6.868H456.284V8.884H433.912V6.868ZM443.852 3.508H446.064V29.24H443.852V3.508ZM452.168 9.388L454.352 10.088C453.344 12.02 452.112 14.26 451.104 15.66L449.312 15.016C450.292 13.532 451.524 11.096 452.168 9.388ZM436.18 10.228L438.028 9.528C439.176 11.152 440.296 13.364 440.688 14.792L438.7 15.604C438.336 14.176 437.272 11.908 436.18 10.228ZM443.292 16.696L445 17.396C442.34 21.764 437.692 25.908 433.436 28.008C433.1 27.504 432.428 26.72 431.952 26.3C436.208 24.452 440.884 20.56 443.292 16.696ZM446.68 16.696C449.116 20.56 453.82 24.508 458.076 26.356C457.6 26.776 456.928 27.588 456.592 28.12C452.308 25.992 447.66 21.736 444.972 17.424L446.68 16.696ZM469.948 18.684H484.536V20.616H469.948V18.684ZM468.184 26.524H485.88V28.456H468.184V26.524ZM469.024 6.42H485.628V10.984H483.696V8.24H470.872V11.236H469.024V6.42ZM476.052 3.48H478.096V7.596H476.052V3.48ZM476.024 19.608H478.096V27.532H476.024V19.608ZM478.432 8.016H480.364V13.756C480.364 14.344 480.476 14.428 481.12 14.428C481.4 14.428 482.828 14.428 483.192 14.428C483.78 14.428 483.892 14.148 483.948 11.992C484.34 12.3 485.124 12.608 485.656 12.72C485.46 15.492 484.956 16.192 483.416 16.192C482.996 16.192 481.232 16.192 480.84 16.192C478.88 16.192 478.432 15.66 478.432 13.756V8.016ZM473.84 8.1H475.772C475.548 12.972 474.596 15.66 469.948 17.06C469.78 16.612 469.304 15.94 468.912 15.576C472.972 14.428 473.672 12.272 473.84 8.1ZM459.756 18.012C461.94 17.34 465.216 16.192 468.38 15.072L468.744 16.976C465.804 18.096 462.696 19.216 460.288 20.056L459.756 18.012ZM460.148 9.136H468.548V11.096H460.148V9.136ZM463.676 3.508H465.636V26.804C465.636 27.98 465.356 28.54 464.656 28.876C464.012 29.212 462.92 29.268 461.156 29.268C461.072 28.764 460.82 27.896 460.54 27.308C461.772 27.336 462.836 27.336 463.172 27.308C463.508 27.308 463.676 27.224 463.676 26.804V3.508ZM505.928 6.056H507.888V21.568H505.928V6.056ZM510.912 3.788H512.956V26.328C512.956 27.728 512.62 28.344 511.752 28.736C510.912 29.1 509.372 29.156 507.3 29.156C507.188 28.54 506.88 27.588 506.6 26.916C508.252 26.972 509.82 26.972 510.324 26.972C510.772 26.944 510.912 26.832 510.912 26.356V3.788ZM495.092 3.592H497.08V29.24H495.092V3.592ZM500.972 17.172H502.904V24.872C502.904 25.824 502.764 26.356 502.064 26.692C501.392 27.028 500.328 27.056 498.76 27.028C498.704 26.496 498.452 25.74 498.172 25.208C499.376 25.236 500.272 25.236 500.608 25.208C500.888 25.208 500.972 25.124 500.972 24.844V17.172ZM489.52 17.172H501.756V19.076H491.424V26.944H489.52V17.172ZM488.232 12.412H503.912V14.344H488.232V12.412ZM490.948 7.54H502.792V9.472H490.556L490.948 7.54ZM490.976 4.152L492.936 4.544C492.264 7.456 491.172 10.424 489.996 12.328C489.576 12.104 488.652 11.74 488.148 11.572C489.408 9.668 490.388 6.868 490.976 4.152ZM520.852 11.852H537.064V13.84H520.852V11.852ZM520.852 18.488H537.064V20.476H520.852V18.488ZM520.852 25.152H537.064V27.196H520.852V25.152ZM519.396 5.216H538.408V29.1H536.224V7.288H521.496V29.1H519.396V5.216ZM556.02 5.636H568.256V7.596H556.02V5.636ZM554.816 12.328H569.74V14.288H554.816V12.328ZM560.78 13.28H562.908V26.552C562.908 27.756 562.684 28.372 561.872 28.736C561.032 29.1 559.744 29.128 557.784 29.128C557.7 28.512 557.42 27.616 557.14 26.972C558.568 27.028 559.884 27.028 560.276 27C560.668 26.972 560.78 26.888 560.78 26.524V13.28ZM564.812 17.928L566.604 17.368C567.948 20.084 569.32 23.64 569.796 25.852L567.864 26.552C567.416 24.34 566.128 20.7 564.812 17.928ZM556.748 17.424L558.652 17.872C557.812 21.092 556.384 24.368 554.872 26.524C554.508 26.216 553.64 25.656 553.192 25.404C554.732 23.416 555.992 20.392 556.748 17.424ZM544.372 9.416H554.396V11.404H544.372V9.416ZM548.656 3.48H550.728V29.212H548.656V3.48ZM548.376 10.592L549.804 11.04C548.88 15.184 546.92 20.336 544.82 22.968C544.596 22.408 544.036 21.512 543.644 21.008C545.604 18.712 547.536 14.232 548.376 10.592ZM550.588 11.992C551.26 12.72 553.948 16.136 554.536 16.92L553.276 18.6C552.576 17.256 550.364 13.98 549.524 12.944L550.588 11.992ZM583.18 5.188H596.928V7.204H583.18V5.188ZM591.356 13.532H593.484V26.552C593.484 27.868 593.176 28.512 592.224 28.848C591.272 29.156 589.676 29.184 586.932 29.184C586.848 28.596 586.568 27.728 586.26 27.112C588.248 27.168 590.124 27.168 590.628 27.14C591.188 27.112 591.356 27 591.356 26.524V13.532ZM581.948 12.916H597.74V14.904H581.948V12.916ZM576.348 15.072L578.196 13.252L578.448 13.364V29.324H576.348V15.072ZM579.596 9.472L581.584 10.228C579.4 13.784 576.096 17.396 573.156 19.748C572.848 19.328 572.12 18.404 571.672 18.012C574.584 15.94 577.664 12.692 579.596 9.472ZM578.448 3.48L580.464 4.292C578.588 6.756 575.704 9.472 573.212 11.264C572.904 10.816 572.344 10.004 571.98 9.584C574.304 8.016 577.02 5.496 578.448 3.48ZM608.492 8.576H624.872V10.592H608.492V8.576ZM612.44 4.096H614.512V13.896C614.512 17.536 613.952 22.128 610.256 24.928C609.976 24.536 609.164 23.724 608.716 23.444C612.076 20.868 612.44 17.116 612.44 13.868V4.096ZM608.296 15.632H625.404V17.62H608.296V15.632ZM606.308 13.616V24.452H604.264V15.604H600.372V13.616H606.308ZM605.244 23.416C606.196 23.416 606.84 24.256 608.38 25.236C610.2 26.356 612.552 26.552 615.744 26.552C619.048 26.552 623.248 26.328 625.964 26.02C625.74 26.608 625.404 27.616 625.348 28.204C623.36 28.344 618.348 28.512 615.688 28.512C612.216 28.512 609.864 28.176 607.904 26.972C606.728 26.216 605.86 25.292 605.216 25.292C604.264 25.292 602.892 26.944 601.464 28.848L600.064 26.944C601.968 24.9 603.844 23.416 605.244 23.416ZM601.24 5.244L602.752 4.068C604.32 5.44 606.224 7.372 607.148 8.632L605.524 9.948C604.684 8.66 602.808 6.644 601.24 5.244ZM619.16 4.068H621.232V24.788H619.16V4.068ZM638.704 29.884L638.06 28.428C640.44 27.364 641.644 25.796 641.616 23.472L641.112 21.008L642.624 23.136C642.204 23.612 641.672 23.78 641.14 23.78C639.992 23.78 639.04 23.08 639.04 21.764C639.04 20.42 640.02 19.748 641.14 19.748C642.708 19.748 643.548 21.036 643.548 23.136C643.548 26.384 641.7 28.764 638.704 29.884ZM641 11.796C639.852 11.796 638.872 10.956 638.872 9.696C638.872 8.408 639.852 7.568 641 7.568C642.12 7.568 643.1 8.408 643.1 9.696C643.1 10.956 642.12 11.796 641 11.796Z" fill="#FFF1F9"/>
<path d="M165.946 219V217.21L172.667 209.852C173.456 208.991 174.106 208.241 174.616 207.605C175.126 206.962 175.504 206.359 175.75 205.795C176.001 205.225 176.127 204.629 176.127 204.006C176.127 203.29 175.955 202.67 175.61 202.146C175.272 201.623 174.808 201.218 174.218 200.933C173.628 200.648 172.965 200.506 172.23 200.506C171.447 200.506 170.765 200.668 170.181 200.993C169.605 201.311 169.157 201.759 168.839 202.335C168.527 202.912 168.372 203.588 168.372 204.364H166.025C166.025 203.17 166.3 202.123 166.85 201.222C167.401 200.32 168.15 199.617 169.098 199.114C170.052 198.61 171.123 198.358 172.309 198.358C173.502 198.358 174.56 198.61 175.481 199.114C176.402 199.617 177.125 200.297 177.649 201.152C178.172 202.007 178.434 202.958 178.434 204.006C178.434 204.755 178.298 205.487 178.026 206.203C177.761 206.912 177.297 207.705 176.634 208.58C175.978 209.448 175.067 210.509 173.9 211.761L169.326 216.653V216.812H178.792V219H165.946ZM185.228 219.159C184.737 219.159 184.316 218.983 183.965 218.632C183.614 218.281 183.438 217.86 183.438 217.369C183.438 216.879 183.614 216.458 183.965 216.107C184.316 215.755 184.737 215.58 185.228 215.58C185.718 215.58 186.139 215.755 186.491 216.107C186.842 216.458 187.018 216.879 187.018 217.369C187.018 217.694 186.935 217.992 186.769 218.264C186.61 218.536 186.395 218.755 186.123 218.92C185.858 219.08 185.559 219.159 185.228 219.159ZM199.814 197.328H214.178V199.232H199.814V197.328ZM200.654 210.656H213.366V212.56H200.654V210.656ZM206.002 207.324H208.074V218.3L206.002 218.608V207.324ZM199.506 218.3C203.146 217.908 208.83 217.152 214.234 216.424L214.29 218.384C209.082 219.112 203.566 219.896 199.842 220.4L199.506 218.3ZM199.758 204.944C202.95 204.832 207.878 204.608 212.694 204.356L212.638 206.204C208.046 206.484 203.258 206.736 199.926 206.932L199.758 204.944ZM208.69 201.528L210.258 200.66C211.966 202.62 213.926 205.252 214.738 206.932L213.058 207.94C212.246 206.232 210.37 203.516 208.69 201.528ZM204.658 198.336L206.926 198.784C205.946 201.248 204.742 204.328 203.706 206.26L201.858 205.812C202.838 203.824 204.042 200.548 204.658 198.336ZM215.41 198.868H217.426V214.38H215.41V198.868ZM222.018 196.292H224.09V218.412C224.09 219.868 223.754 220.512 222.83 220.848C221.906 221.212 220.198 221.268 217.93 221.268C217.818 220.68 217.51 219.7 217.202 219.056C219.078 219.14 220.814 219.112 221.374 219.112C221.878 219.084 222.018 218.944 222.018 218.44V196.292ZM235.094 202.116H252.594V204.076H235.094V202.116ZM233.862 208.528V216.704H231.818V210.46H227.814V208.528H233.862ZM233.862 215.584C235.178 217.628 237.642 218.608 240.862 218.72C243.914 218.832 250.158 218.776 253.462 218.552C253.21 219.028 252.874 220.008 252.79 220.652C249.738 220.764 243.942 220.82 240.89 220.736C237.222 220.568 234.702 219.56 232.938 217.376C231.538 218.58 230.082 219.784 228.514 221.016L227.422 218.916C228.822 218.02 230.502 216.788 231.986 215.584H233.862ZM229.13 197.132L230.558 195.844C232.266 196.74 234.338 198.168 235.29 199.316L233.806 200.744C232.854 199.624 230.866 198.112 229.13 197.132ZM227.982 202.844L229.382 201.472C231.174 202.312 233.358 203.74 234.422 204.86L232.966 206.344C231.986 205.224 229.83 203.74 227.982 202.844ZM242.542 195.564H244.642C244.474 205.868 244.082 213.092 236.214 216.76C235.934 216.284 235.29 215.528 234.814 215.164C242.262 211.832 242.43 205.28 242.542 195.564ZM244.81 203.292C245.818 209.2 248.142 213.176 253.126 214.912C252.65 215.332 252.062 216.144 251.782 216.704C246.518 214.576 244.11 210.264 242.962 203.572L244.81 203.292ZM256.178 213.876C256.066 213.456 255.73 212.448 255.506 211.944C256.122 211.804 256.766 211.132 257.662 210.124C258.586 209.144 261.582 205.252 263.542 201.5L265.306 202.564C263.038 206.344 260.266 210.096 257.55 212.756V212.812C257.55 212.812 256.178 213.428 256.178 213.876ZM256.178 213.876L256.094 212.168L257.158 211.468L264.942 210.404C264.914 210.936 264.942 211.748 264.998 212.196C257.746 213.316 256.794 213.54 256.178 213.876ZM255.982 207.128C255.87 206.68 255.534 205.672 255.282 205.14C255.786 205 256.29 204.356 256.878 203.376C257.55 202.452 259.566 198.84 260.742 195.452L262.786 196.292C261.302 199.792 259.286 203.432 257.354 205.952V206.008C257.354 206.008 255.982 206.68 255.982 207.128ZM255.982 207.128L255.926 205.616L256.962 205L262.786 204.468C262.702 205 262.618 205.756 262.618 206.148C257.298 206.736 256.486 206.904 255.982 207.128ZM255.394 217.544C257.914 217.124 261.722 216.396 265.418 215.668L265.586 217.544C262.086 218.3 258.446 219 255.758 219.588L255.394 217.544ZM270.234 211.608L271.466 210.264C273.482 211.02 276.002 212.336 277.346 213.316L276.058 214.8C274.742 213.792 272.25 212.42 270.234 211.608ZM267.126 216.816L268.358 215.304C272.138 216.284 276.786 218.16 279.362 219.56L278.13 221.24C275.582 219.728 270.962 217.824 267.126 216.816ZM270.738 195.48L272.894 195.844C271.522 198.896 269.422 202.2 266.258 204.86C265.922 204.384 265.222 203.712 264.718 203.432C267.686 201.136 269.674 198 270.738 195.48ZM270.458 198.42H278.074V200.268H269.534L270.458 198.42ZM277.458 198.42H277.906L278.27 198.336L279.586 199.092C277.066 205.056 271.718 209.256 266.37 211.468C266.146 210.964 265.474 210.124 265.054 209.76C270.29 207.828 275.386 203.908 277.458 198.812V198.42ZM270.094 200.016C272.39 204.216 276.954 208.08 281.77 209.76C281.266 210.152 280.678 210.964 280.342 211.496C275.47 209.536 270.906 205.42 268.386 200.66L270.094 200.016ZM295.126 195.48H297.254V205.028H295.126V195.48ZM289.022 206.008V211.02H303.666V206.008H289.022ZM287.034 204.02H305.794V212.98H287.034V204.02ZM296.106 198.476H307.894V200.464H296.106V198.476ZM291.906 215.416L293.922 215.248C294.314 217.068 294.622 219.364 294.65 220.736L292.494 221.016C292.494 219.588 292.27 217.236 291.906 215.416ZM297.702 215.444L299.606 215.052C300.474 216.732 301.398 219 301.734 220.428L299.662 220.932C299.382 219.532 298.542 217.208 297.702 215.444ZM303.414 215.22L305.29 214.52C306.718 216.256 308.342 218.636 309.014 220.204L307.026 221.016C306.382 219.476 304.842 217.012 303.414 215.22ZM287.37 214.688L289.358 215.192C288.434 217.376 287.006 219.756 285.494 221.24L283.562 220.288C285.046 219.028 286.502 216.76 287.37 214.688ZM315.678 203.264H337.35V205.28H315.678V203.264ZM320.158 217.852H333.514V219.84H320.158V217.852ZM314.586 197.636L317.274 198.168C317.246 198.392 317.078 198.504 316.686 198.56V205.532C316.686 210.068 316.266 216.648 312.934 221.296C312.626 220.82 311.842 220.12 311.282 219.868C314.278 215.612 314.586 209.816 314.586 205.504V197.636ZM333.262 195.732L335.026 197.384C329.93 198.7 322.23 199.568 315.65 200.016C315.594 199.484 315.286 198.672 315.09 198.224C321.53 197.748 329.062 196.824 333.262 195.732ZM319.122 209.284H334.914V221.24H332.786V211.244H321.138V221.268H319.122V209.284ZM342.166 196.628H362.634V198.308H342.166V196.628ZM340.206 209.032H364.678V210.74H340.206V209.032ZM343.818 203.012H349.866V204.44H343.818V203.012ZM343.23 205.952H349.866V207.38H343.23V205.952ZM354.794 205.952H361.654V207.38H354.794V205.952ZM354.794 203.012H360.982V204.44H354.794V203.012ZM351.294 197.272H353.338V208.108H351.294V197.272ZM348.522 213.848H350.482V221.044H348.522V213.848ZM354.738 213.848H356.67V221.044H354.738V213.848ZM340.542 199.932H364.314V205.308H362.326V201.472H342.446V205.308H340.542V199.932ZM342.39 212.756H361.598V214.492H344.378V221.212H342.39V212.756ZM361.066 212.756H363.082V219.168C363.082 220.12 362.942 220.624 362.214 220.932C361.514 221.268 360.478 221.24 358.938 221.24C358.854 220.736 358.546 220.008 358.294 219.504C359.414 219.532 360.366 219.532 360.674 219.504C360.982 219.476 361.066 219.392 361.066 219.14V212.756ZM351.322 209.676L353.618 209.76C353.114 211.272 352.526 212.812 352.05 213.848L350.202 213.652C350.622 212.504 351.126 210.824 351.322 209.676ZM476.658 203.824H494.382V205.728H476.658V203.824ZM476.49 211.608C478.87 211.104 482.482 210.264 485.982 209.424L486.15 211.216C482.902 212.056 479.486 212.924 476.91 213.568L476.49 211.608ZM491.862 206.792L493.654 207.24C491.666 212.952 488.39 217.74 484.386 220.876C484.106 220.484 483.462 219.7 483.07 219.336C487.018 216.564 490.126 212.056 491.862 206.792ZM484.582 195.928L486.15 197.412C483.826 198.616 480.298 199.624 477.274 200.324C477.19 199.876 476.91 199.204 476.658 198.812C479.542 198.112 482.818 197.02 484.582 195.928ZM480.55 198.588H482.454V218.692C482.454 219.952 482.174 220.54 481.418 220.876C480.634 221.212 479.318 221.268 477.386 221.268C477.302 220.736 476.994 219.812 476.714 219.252C478.198 219.28 479.57 219.28 479.99 219.252C480.41 219.252 480.55 219.112 480.55 218.692V198.588ZM486.654 195.62H488.614C488.502 209.06 489.818 219.336 492.282 219.336C492.842 219.308 493.094 218.132 493.206 215.108C493.57 215.556 494.214 215.976 494.662 216.172C494.354 220.064 493.794 221.296 492.058 221.296C487.662 221.296 486.766 209.508 486.654 195.62ZM489.706 196.992L491.302 196.292C492.478 197.692 493.85 199.596 494.466 200.8L492.814 201.612C492.226 200.38 490.882 198.42 489.706 196.992ZM470.638 197.552H476.126V214.212H470.638V212.448H474.362V199.288H470.638V197.552ZM469.602 197.552H471.366V216.956H469.602V197.552ZM508.662 212.252L508.102 201.388L508.018 198.056H511.126L511.042 201.388L510.482 212.252H508.662ZM509.586 219.14C508.578 219.14 507.766 218.44 507.766 217.32C507.766 216.2 508.578 215.444 509.586 215.444C510.566 215.444 511.378 216.2 511.378 217.32C511.378 218.44 510.566 219.14 509.586 219.14Z" fill="#FFF1F9"/>
<path d="M375.206 198.224H393.154V200.044H375.206V198.224ZM383.018 195.592H385.118V199.064H383.018V195.592ZM379.378 203.096V205.7H388.87V203.096H379.378ZM377.362 201.584H390.998V207.212H377.362V201.584ZM374.73 208.836H393.406V213.624H391.474V210.516H376.634V213.68H374.73V208.836ZM377.922 212.42H390.438V214.156H377.922V212.42ZM383.018 212.812H385.09V219C385.09 220.148 384.866 220.68 383.97 220.988C383.074 221.296 381.646 221.296 379.546 221.296C379.462 220.708 379.154 219.952 378.902 219.364C380.526 219.42 382.038 219.42 382.458 219.392C382.906 219.392 383.018 219.28 383.018 218.944V212.812ZM373.806 195.592L375.794 196.208C373.946 200.968 371.062 205.7 368.038 208.836C367.814 208.36 367.226 207.24 366.834 206.764C369.606 204.048 372.238 199.848 373.806 195.592ZM370.894 202.816L372.854 200.828L372.91 200.856V221.212H370.894V202.816ZM399.258 209.508H417.794V221.128H415.666V211.244H401.274V221.24H399.258V209.508ZM400.21 213.988H416.73V215.612H400.21V213.988ZM408.414 197.048H418.746V198.84H408.414V197.048ZM400.21 218.468H416.73V220.232H400.21V218.468ZM407.35 210.208H409.338V219.448H407.35V210.208ZM397.69 197.188L400.378 198C400.322 198.168 400.154 198.252 399.818 198.308L400.098 206.344H398.054L397.69 197.188ZM395.534 206.372C398.054 205.812 402.002 204.832 405.81 203.852L406.034 205.7C402.506 206.652 398.81 207.632 396.094 208.388L395.534 206.372ZM418.018 197.048H420.09C420.09 197.048 420.062 197.636 420.062 197.944C419.782 204.02 419.502 206.288 418.83 207.072C418.382 207.604 417.878 207.8 417.15 207.856C416.478 207.912 415.218 207.912 413.986 207.856C413.93 207.268 413.734 206.512 413.426 205.98C414.63 206.092 415.778 206.092 416.198 206.092C416.646 206.12 416.898 206.092 417.094 205.812C417.542 205.28 417.822 203.18 418.018 197.384V197.048ZM405.978 195.592L407.434 197.132C405.166 198.084 401.946 198.924 399.202 199.456C399.118 199.036 398.81 198.392 398.614 197.972C401.19 197.356 404.242 196.432 405.978 195.592ZM411.83 197.692H413.818C413.454 202.732 412.39 206.596 407.826 208.696C407.602 208.22 407.042 207.52 406.594 207.184C410.654 205.392 411.494 202.032 411.83 197.692ZM402.646 201.556L404.354 200.716C405.95 202.34 407.574 204.608 408.218 206.204L406.37 207.184C405.81 205.588 404.214 203.236 402.646 201.556ZM424.373 219V216.773L431.263 209.634C431.999 208.858 432.606 208.179 433.083 207.595C433.567 207.005 433.928 206.445 434.167 205.915C434.406 205.384 434.525 204.821 434.525 204.224C434.525 203.548 434.366 202.965 434.048 202.474C433.729 201.977 433.295 201.596 432.745 201.331C432.195 201.059 431.575 200.923 430.886 200.923C430.156 200.923 429.52 201.072 428.977 201.371C428.433 201.669 428.015 202.09 427.724 202.634C427.432 203.177 427.286 203.813 427.286 204.543H424.353C424.353 203.303 424.638 202.219 425.208 201.291C425.778 200.363 426.56 199.644 427.555 199.134C428.549 198.616 429.679 198.358 430.945 198.358C432.225 198.358 433.352 198.613 434.326 199.124C435.307 199.627 436.073 200.317 436.623 201.192C437.173 202.06 437.448 203.041 437.448 204.135C437.448 204.891 437.306 205.63 437.021 206.352C436.742 207.075 436.255 207.88 435.559 208.768C434.863 209.65 433.895 210.721 432.656 211.98L428.609 216.216V216.365H437.776V219H424.373ZM457.758 195.508H459.858V210.292C459.858 211.412 459.606 212 458.85 212.364C458.122 212.7 457.03 212.784 455.126 212.756C455.042 212.196 454.706 211.3 454.398 210.74C455.742 210.768 456.918 210.768 457.282 210.74C457.646 210.712 457.758 210.628 457.758 210.292V195.508ZM453.586 200.184L455.602 200.52C454.902 203.936 453.754 207.296 452.326 209.452C451.934 209.172 451.038 208.668 450.506 208.444C451.99 206.428 453.026 203.32 453.586 200.184ZM461.622 200.604L463.386 200.016C464.926 202.536 466.242 205.868 466.69 208.108L464.758 208.78C464.366 206.54 463.078 203.124 461.622 200.604ZM462.91 209.256L464.898 209.816C463.078 216.032 458.934 219.476 451.682 221.212C451.458 220.624 450.954 219.812 450.506 219.308C457.366 217.936 461.202 214.884 462.91 209.256ZM445.522 197.804H447.566V221.184H445.522V197.804ZM440.93 203.376H451.094V205.364H440.93V203.376ZM445.634 204.132L446.95 204.692C445.83 208.64 443.59 213.54 441.434 216.144C441.238 215.556 440.734 214.688 440.37 214.212C442.386 211.972 444.626 207.604 445.634 204.132ZM449.666 195.9L451.15 197.524C448.574 198.56 444.654 199.344 441.406 199.792C441.294 199.316 441.014 198.644 440.762 198.168C443.926 197.636 447.622 196.852 449.666 195.9ZM447.482 206.988C448.182 207.604 450.814 210.264 451.374 210.964L450.142 212.616C449.47 211.468 447.37 208.808 446.502 207.828L447.482 206.988Z" fill="#E92F93"/>
<path d="M160.849 84.8257C164.501 88.7863 176.697 89.6412 182.895 89.5394C285.925 89.5394 496.024 89.4048 512.185 88.866C528.347 88.3273 527.898 83.9278 525.653 81.7954L509.155 70.3872C500.401 65.2975 481.321 65.0729 470.435 65.2975C391.872 65.073 229.764 64.7587 209.831 65.2975C189.899 65.8362 180.651 68.2155 178.518 69.3378L161.273 82.5068C160.516 83.0848 160.203 84.1255 160.849 84.8257V84.8257ZM160.849 84.8257L161.347 133.013C163.771 138.669 173.917 139.595 178.518 139.707C281.997 139.932 492.522 140.246 506.798 139.707C521.074 139.169 526.102 134.584 527 132.003L526.735 84.5284" stroke="#E92F93" stroke-width="2"/>
<rect x="452.08" y="119.669" width="22.5688" height="3.04037" rx="1.52018" stroke="url(#paint0_linear_14702_163447)"/>
<path d="M167.406 82.5078C168.214 80.8916 178.517 73.9782 183.568 70.7234C187.877 68.2993 195.689 67.6931 199.056 67.6931C288.618 67.5809 470.636 67.2891 482.219 67.0198C493.801 66.7504 501.859 69.6011 504.441 71.0601L519.929 82.8445C519.121 86.6156 510.056 85.6122 504.893 85.5H182C171.226 85.5 166.598 84.124 167.406 82.5078Z" stroke="url(#paint1_linear_14702_163447)"/>
<ellipse cx="47.5" cy="46.6593" rx="47.5" ry="46.6593" transform="matrix(-1 0 0 1 438 76)" fill="url(#paint2_linear_14702_163447)"/>
<path d="M393.903 159.23H385.035C375.278 159.152 367.657 155.962 362.128 140.649C359.032 132.078 356.139 130.884 354.41 130.173C353.141 129.649 351.406 128.935 351.406 126.143C351.406 125.272 351.833 120.918 360.256 120.918C365.624 120.918 369.912 124.486 372.645 127.626V96.5377C372.645 92.6977 375.82 89.5718 379.725 89.5718C381.182 89.5718 382.535 90.0072 383.662 90.7522C384.632 88.0379 387.261 86.0889 390.344 86.0889C393.428 86.0889 396.057 88.0379 397.026 90.7522C398.154 90.0072 399.507 89.5718 400.964 89.5718C404.868 89.5718 408.043 92.6977 408.043 96.5377V100.956C409.086 100.361 410.295 100.021 411.583 100.021C415.488 100.021 418.663 103.147 418.663 106.986V141.816C418.663 159.21 400.053 159.23 393.903 159.23ZM360.256 124.401C356.387 124.401 354.946 125.469 354.946 126.143C354.946 126.503 354.998 126.622 354.998 126.622C355.064 126.666 355.475 126.836 355.778 126.959C358.712 128.17 362.124 130.234 365.464 139.486C370.341 152.996 376.339 155.68 385.048 155.748H393.865C408.572 155.748 415.123 151.472 415.123 141.881V106.986C415.123 105.065 413.535 103.504 411.583 103.504C409.632 103.504 408.043 105.065 408.043 106.986V129.626C408.043 130.588 407.252 131.367 406.274 131.367C405.295 131.367 404.504 130.588 404.504 129.626V96.5377C404.504 94.6158 402.915 93.0547 400.964 93.0547C399.012 93.0547 397.424 94.6158 397.424 96.5377V126.143C397.424 127.105 396.632 127.884 395.654 127.884C394.676 127.884 393.884 127.105 393.884 126.143V93.0547C393.884 91.1329 392.296 89.5718 390.344 89.5718C388.393 89.5718 386.804 91.1329 386.804 93.0547V122.66C386.804 123.622 386.013 124.401 385.035 124.401C384.056 124.401 383.265 123.622 383.265 122.66V96.5377C383.265 94.6158 381.676 93.0547 379.725 93.0547C377.773 93.0547 376.185 94.6158 376.185 96.5377V133.108C376.185 133.904 375.635 134.598 374.849 134.796C374.073 135 373.243 134.636 372.858 133.935C372.806 133.84 367.522 124.401 360.256 124.401Z" fill="#FEE1F1"/>
<defs>
<linearGradient id="paint0_linear_14702_163447" x1="463.369" y1="123.21" x2="463.369" y2="119.169" gradientUnits="userSpaceOnUse">
<stop stop-color="#E8198B"/>
<stop offset="0.2458" stop-color="#E93295"/>
<stop offset="1" stop-color="#C50053" stop-opacity="0.96"/>
</linearGradient>
<linearGradient id="paint1_linear_14702_163447" x1="343.691" y1="85.7072" x2="343.691" y2="67.002" gradientUnits="userSpaceOnUse">
<stop stop-color="#E8198B"/>
<stop offset="0.2458" stop-color="#E93295"/>
<stop offset="1" stop-color="#C50053" stop-opacity="0.96"/>
</linearGradient>
<linearGradient id="paint2_linear_14702_163447" x1="44.5" y1="19.5" x2="51.6393" y2="102.057" gradientUnits="userSpaceOnUse">
<stop stop-color="#E8198B"/>
<stop offset="0.2458" stop-color="#E93295" stop-opacity="0.7542"/>
<stop offset="0.7666" stop-color="#EC73AD" stop-opacity="0.2334"/>
<stop offset="1" stop-color="#EE92B9" stop-opacity="0"/>
</linearGradient>
</defs>
</svg>
