<svg width="145" height="145" viewBox="0 0 145 145" fill="none" xmlns="http://www.w3.org/2000/svg">
<circle cx="72.5" cy="72.5" r="59.5" fill="url(#paint0_linear_14713_169236)"/>
<circle cx="72.5" cy="72.5" r="70" stroke="url(#paint1_linear_14713_169236)" stroke-width="5"/>
<path d="M72.1 76.548C72.308 76.548 72.568 76.5133 72.88 76.444C73.192 76.3747 73.4347 76.34 73.608 76.34C73.7813 76.34 73.868 76.392 73.868 76.496C73.868 76.7387 73.504 77.1893 72.776 77.848C72.0827 78.5067 71.0947 79.1307 69.812 79.72C68.564 80.2747 67.4373 80.552 66.432 80.552C65.4613 80.552 64.508 80.1013 63.572 79.2C62.6707 78.2987 61.804 77.12 60.972 75.664C60.1747 74.208 59.2733 72.9427 58.268 71.868C57.2627 70.7587 56.6387 70.1173 56.396 69.944C56.1533 69.736 55.7893 69.632 55.304 69.632C54.8187 69.632 54.2467 69.944 53.588 70.568C51.2307 72.7867 49.584 74.364 48.648 75.3C47.7467 76.2013 46.8453 76.8947 45.944 77.38C45.0427 77.8653 44.2107 78.108 43.448 78.108C42.72 78.108 42.1653 77.9347 41.784 77.588C41.4373 77.2413 41.264 76.6347 41.264 75.768C41.264 75.4907 41.2987 75.3173 41.368 75.248C41.4373 75.1787 41.6107 75.144 41.888 75.144C42.616 75.144 43.1533 74.988 43.5 74.676C44.2627 73.9827 45.1293 73.3587 46.1 72.804C47.0707 72.2493 48.388 71.348 50.052 70.1C51.7507 68.852 52.6 67.864 52.6 67.136C52.6 66.7547 52.3573 66.3733 51.872 65.992C51.4213 65.576 50.728 65.368 49.792 65.368C48.856 65.368 48.1453 65.5413 47.66 65.888C46.3427 66.824 45.476 67.292 45.06 67.292C44.6787 67.292 44.3667 67.1533 44.124 66.876C43.8813 66.564 43.76 66.3213 43.76 66.148C43.76 65.94 43.968 65.6107 44.384 65.16C44.8 64.7093 45.892 63.7213 47.66 62.196C49.4627 60.636 51.1093 59.3013 52.6 58.192C54.0907 57.0827 54.9227 56.2507 55.096 55.696C55.2693 55.1413 55.5293 54.7253 55.876 54.448C56.2573 54.1707 56.6387 54.032 57.02 54.032C57.436 54.032 57.7827 54.2053 58.06 54.552C58.3373 54.864 58.4933 55.124 58.528 55.332C58.5973 55.54 58.8227 55.9213 59.204 56.476C59.62 56.996 60.4173 57.6027 61.596 58.296C62.8093 58.9547 63.676 59.3187 64.196 59.388C64.716 59.4227 65.08 59.6133 65.288 59.96C65.5307 60.3067 65.652 60.6187 65.652 60.896C65.652 61.6933 65.08 62.2133 63.936 62.456C63.6587 62.5253 63.1907 62.768 62.532 63.184C61.908 63.6 61.128 64.1547 60.192 64.848C59.2907 65.5413 58.8053 65.9573 58.736 66.096C58.7013 66.2 58.684 66.3907 58.684 66.668C58.684 66.9107 58.8053 67.2573 59.048 67.708C59.3253 68.124 60.1747 68.9387 61.596 70.152C63.0173 71.3307 64.2133 72.2493 65.184 72.908C66.1893 73.532 66.9867 73.948 67.576 74.156C69.7947 74.9533 71.008 75.56 71.216 75.976C71.4587 76.3573 71.7533 76.548 72.1 76.548ZM59.88 61.104C59.88 60.7227 59.5507 60.3587 58.892 60.012C58.2333 59.6307 57.5227 59.44 56.76 59.44C56.032 59.44 55.3907 59.7 54.836 60.22C54.2813 60.7053 53.848 61.0347 53.536 61.208C53.2587 61.3813 53.12 61.572 53.12 61.78C53.12 62.2307 53.536 62.8027 54.368 63.496C55.2 64.1893 55.8413 64.536 56.292 64.536C56.7773 64.536 57.488 64.1027 58.424 63.236C59.3947 62.3347 59.88 61.624 59.88 61.104ZM45.528 58.192C46.048 58.192 46.4293 58.348 46.672 58.66C46.9493 58.9373 47.088 59.1973 47.088 59.44C47.088 59.9253 46.6547 60.3933 45.788 60.844C44.956 61.26 44.02 61.9707 42.98 62.976C41.94 63.9467 40.6747 65.264 39.184 66.928C37.6933 68.5573 36.8093 69.528 36.532 69.84C36.2893 70.152 36.168 70.3947 36.168 70.568C36.168 70.7413 36.48 70.828 37.104 70.828C37.7627 70.828 38.6987 70.6547 39.912 70.308C41.1253 69.9267 41.9573 69.528 42.408 69.112C42.8933 68.696 43.2053 68.488 43.344 68.488C43.4827 68.488 43.552 68.5747 43.552 68.748C43.552 69.3027 43.292 70.204 42.772 71.452C42.252 72.6653 41.68 73.5147 41.056 74C40.432 74.4853 39.34 74.8667 37.78 75.144C36.22 75.3867 34.348 75.716 32.164 76.132C29.98 76.548 28.7147 76.756 28.368 76.756C27.5707 76.756 27.172 76.5133 27.172 76.028C27.172 75.5427 27.276 74.9707 27.484 74.312C27.692 73.6187 27.9693 73.0813 28.316 72.7C28.6627 72.3187 29.4947 71.816 30.812 71.192C31.0893 71.0533 31.7307 70.6027 32.736 69.84C33.7413 69.0773 34.244 68.5747 34.244 68.332C34.244 68.0893 34.14 67.8987 33.932 67.76C33.7587 67.6213 33.0653 67.4827 31.852 67.344C30.6733 67.1707 29.876 67.1013 29.46 67.136C29.044 67.1707 28.628 67.188 28.212 67.188C27.796 67.188 27.484 67.0493 27.276 66.772C27.068 66.4947 26.964 65.836 26.964 64.796C26.964 63.7213 27.1373 63.0107 27.484 62.664C27.8653 62.3173 28.472 62.0747 29.304 61.936C31.488 61.5893 33.1867 60.7227 34.4 59.336C35.128 58.504 36.1333 57.6893 37.416 56.892C38.7333 56.06 39.5827 55.4187 39.964 54.968C40.38 54.5173 40.7093 54.292 40.952 54.292C41.2293 54.292 41.472 54.396 41.68 54.604C41.888 54.812 41.992 55.1067 41.992 55.488C41.992 55.8347 41.784 56.2853 41.368 56.84C40.9867 57.3947 40.2933 58.0187 39.288 58.712C38.2827 59.3707 37.4333 60.064 36.74 60.792C36.0813 61.4853 35.752 61.9707 35.752 62.248C35.752 62.4907 35.9427 62.716 36.324 62.924C36.7053 63.132 37.0867 63.236 37.468 63.236C37.884 63.236 38.4733 63.08 39.236 62.768C40.0333 62.456 40.6053 62.1613 40.952 61.884C41.2987 61.6067 41.68 61.1213 42.096 60.428C42.5467 59.7 43.084 59.1453 43.708 58.764C44.332 58.3827 44.9387 58.192 45.528 58.192ZM60.296 77.796C60.296 78.3507 59.8973 78.9053 59.1 79.46C58.3373 80.0147 57.5747 80.292 56.812 80.292C55.356 80.292 54.2987 80.3613 53.64 80.5C53.016 80.6387 52.5307 80.708 52.184 80.708C51.0747 80.708 50.2773 80.3613 49.792 79.668C49.3413 78.94 49.116 78.2467 49.116 77.588C49.116 76.8947 49.8613 76.4093 51.352 76.132C52.8773 75.82 54.368 75.664 55.824 75.664C57.28 75.664 58.3893 75.8893 59.152 76.34C59.9147 76.756 60.296 77.2413 60.296 77.796ZM42.564 79.148C42.564 79.4947 42.1653 80.136 41.368 81.072C40.5707 82.008 39.7213 82.6147 38.82 82.892C34.7987 84.036 32.164 84.8333 30.916 85.284C29.668 85.7 28.732 85.908 28.108 85.908C26.6867 85.908 25.976 84.8853 25.976 82.84C25.976 81.7653 26.1667 80.9333 26.548 80.344C26.9293 79.7547 27.3453 79.46 27.796 79.46C28.2467 79.46 28.576 79.5467 28.784 79.72C29.0267 79.8587 29.3387 79.928 29.72 79.928C30.136 79.928 30.9507 79.8067 32.164 79.564C35.1453 78.94 37.364 78.628 38.82 78.628C39.0973 78.628 39.3573 78.6627 39.6 78.732C39.8773 78.8013 40.1373 78.836 40.38 78.836C40.6227 78.836 40.8653 78.8187 41.108 78.784C41.3507 78.7147 41.6453 78.68 41.992 78.68C42.3733 78.68 42.564 78.836 42.564 79.148ZM63.884 85.284C63.884 85.8387 63.4853 86.4627 62.688 87.156C61.8907 87.8493 60.7813 88.196 59.36 88.196L56.24 88.092L51.092 88.3C49.74 88.3 48.7693 88.1093 48.18 87.728C47.5907 87.3467 47.296 86.636 47.296 85.596C47.296 85.2493 47.3827 84.972 47.556 84.764C47.7293 84.5213 47.9547 84.3653 48.232 84.296C48.5093 84.192 48.7867 84.14 49.064 84.14H49.792C50.1387 84.14 50.5373 84.0533 50.988 83.88C52.5133 83.152 54.3333 82.788 56.448 82.788C58.5627 82.788 60.3307 83.048 61.752 83.568C63.1733 84.088 63.884 84.66 63.884 85.284ZM123.06 56.788C123.58 56.788 124.065 56.6147 124.516 56.268C124.967 55.8867 125.227 55.696 125.296 55.696C125.365 55.696 125.4 55.7307 125.4 55.8C125.4 55.9733 125.227 56.3547 124.88 56.944C124.533 57.4987 124.1 58.1053 123.58 58.764C123.06 59.4227 122.505 60.012 121.916 60.532C121.361 61.0173 120.824 61.416 120.304 61.728C119.784 62.04 119.299 62.196 118.848 62.196C117.323 62.196 115.381 61.572 113.024 60.324C112.157 59.8387 110.979 59.596 109.488 59.596C107.997 59.596 106.472 59.7347 104.912 60.012C103.352 60.2547 102.433 60.584 102.156 61C101.879 61.3813 101.74 61.7107 101.74 61.988C101.74 62.404 102 62.612 102.52 62.612L105.172 62.56C108.188 62.56 110.805 62.8373 113.024 63.392C113.96 63.6 115.451 63.7733 117.496 63.912C118.085 63.9467 118.38 64.172 118.38 64.588C118.38 65.2467 117.652 66.408 116.196 68.072C115.78 68.5573 115.347 69.2507 114.896 70.152C114.445 71.0187 114.116 71.8853 113.908 72.752C113.561 74.0693 112.573 74.728 110.944 74.728C110.528 74.728 110.06 74.676 109.54 74.572C107.772 74.2947 105.588 74.156 102.988 74.156C100.423 74.156 97.9093 74.3467 95.448 74.728C93.0213 75.1093 91.6173 75.404 91.236 75.612C90.8893 75.82 90.716 76.1667 90.716 76.652C90.6467 79.044 89.884 81.384 88.428 83.672C87.0067 85.9253 85.6893 87.052 84.476 87.052C83.2973 87.052 82.292 86.272 81.46 84.712C80.6627 83.152 80.264 82.1467 80.264 81.696C80.264 81.5573 80.3333 81.488 80.472 81.488C80.6107 81.488 80.8013 81.5747 81.044 81.748C81.3213 81.8867 81.5467 81.956 81.72 81.956C82.2747 81.956 82.9853 81.6613 83.852 81.072C84.7533 80.4827 85.6027 79.7027 86.4 78.732C87.1973 77.7613 87.596 77.1547 87.596 76.912C87.596 76.7733 87.3187 76.704 86.764 76.704C86.2093 76.704 85.932 76.6 85.932 76.392C85.932 76.1493 86.1227 75.768 86.504 75.248C88.0293 72.9947 88.792 71.1747 88.792 69.788C88.792 68.3667 88.324 67.2747 87.388 66.512C86.4867 65.7147 86.036 65.1427 86.036 64.796C86.036 64.276 87.1107 64.016 89.26 64.016C89.884 64.016 90.3347 64.0507 90.612 64.12C90.924 64.1893 91.2187 64.224 91.496 64.224C91.7733 64.224 92.4667 64.1027 93.576 63.86C94.6853 63.6173 95.5693 63.4267 96.228 63.288C96.8867 63.1493 97.3373 63.0107 97.58 62.872C97.8227 62.7333 98.0133 62.4733 98.152 62.092C98.3253 61.7107 98.412 61.1213 98.412 60.324C98.412 59.5267 98.256 58.4347 97.944 57.048C97.632 55.6613 97.476 54.656 97.476 54.032C97.476 53.408 97.736 53.096 98.256 53.096C98.8107 53.096 99.3133 53.2693 99.764 53.616C100.215 53.9627 100.544 54.3613 100.752 54.812C100.995 55.2627 101.341 55.5747 101.792 55.748C102.277 55.8867 102.763 55.9213 103.248 55.852C105.259 55.6093 107.495 55.488 109.956 55.488C112.417 55.488 114.393 55.7133 115.884 56.164C116.3 56.3027 116.699 56.372 117.08 56.372C117.496 56.372 117.947 56.3373 118.432 56.268C118.952 56.164 119.507 56.112 120.096 56.112C120.685 56.112 121.292 56.2333 121.916 56.476C122.54 56.684 122.921 56.788 123.06 56.788ZM110.424 70.672C111.256 70.672 111.828 70.308 112.14 69.58C112.487 68.8173 112.66 68.2453 112.66 67.864C112.66 67.4827 112.435 67.24 111.984 67.136C111.568 66.9973 110.615 66.8413 109.124 66.668C107.668 66.4947 105.969 66.408 104.028 66.408C102.121 66.408 100.128 66.564 98.048 66.876C95.968 67.188 94.6853 67.4653 94.2 67.708C93.7147 67.9507 93.2987 68.2973 92.952 68.748C92.64 69.164 92.484 69.6493 92.484 70.204C92.484 70.7587 92.6053 71.036 92.848 71.036C93.1253 71.036 93.4547 70.984 93.836 70.88C96.4013 70.2907 99.1053 69.996 101.948 69.996C104.791 69.996 107.321 70.1867 109.54 70.568C109.887 70.6373 110.181 70.672 110.424 70.672ZM106.628 80.552C106.628 81.5227 106.437 82.5973 106.056 83.776C105.675 84.9547 105.363 85.544 105.12 85.544C104.912 85.544 104.739 85.3707 104.6 85.024C104.496 84.6773 104.271 83.8453 103.924 82.528C103.612 81.2107 103.456 79.7893 103.456 78.264C103.456 77.5707 103.56 77.12 103.768 76.912C104.011 76.6693 104.392 76.548 104.912 76.548C105.432 76.548 105.848 76.912 106.16 77.64C106.472 78.368 106.628 79.3387 106.628 80.552ZM112.244 76.6C112.417 76.6 112.625 76.6693 112.868 76.808C114.532 77.744 116.109 78.524 117.6 79.148C119.68 80.1187 120.945 81.0893 121.396 82.06C121.639 82.5453 121.933 83.048 122.28 83.568C122.661 84.0533 122.921 84.348 123.06 84.452C123.233 84.5213 123.32 84.608 123.32 84.712C123.32 84.9893 122.679 85.4573 121.396 86.116C120.148 86.7747 119.004 87.104 117.964 87.104C115.884 87.104 114.289 85.7867 113.18 83.152C112.105 80.5173 111.568 78.6973 111.568 77.692C111.568 76.964 111.793 76.6 112.244 76.6ZM97.008 76.6C98.152 76.6 98.724 77.4493 98.724 79.148C98.724 80.5 98.3427 81.8693 97.58 83.256C96.852 84.6427 96.332 85.336 96.02 85.336C95.708 85.336 95.396 84.9027 95.084 84.036C94.8067 83.1347 94.668 82.3893 94.668 81.8C94.668 81.2107 94.7893 80.7253 95.032 80.344C95.656 79.3387 95.968 78.5413 95.968 77.952C95.968 77.3627 96.0547 76.9987 96.228 76.86C96.4013 76.6867 96.6613 76.6 97.008 76.6Z" fill="white"/>
<defs>
<linearGradient id="paint0_linear_14713_169236" x1="72.5232" y1="132.023" x2="72.5232" y2="13" gradientUnits="userSpaceOnUse">
<stop stop-color="#E8198B"/>
<stop offset="0.2458" stop-color="#E93295"/>
<stop offset="0.7666" stop-color="#EC73AD"/>
<stop offset="1" stop-color="#EE92B9"/>
</linearGradient>
<linearGradient id="paint1_linear_14713_169236" x1="72.5283" y1="145.028" x2="72.5283" y2="0" gradientUnits="userSpaceOnUse">
<stop stop-color="#E8198B"/>
<stop offset="0.2458" stop-color="#E93295"/>
<stop offset="0.7666" stop-color="#EC73AD"/>
<stop offset="1" stop-color="#EE92B9"/>
</linearGradient>
</defs>
</svg>
