<svg width="145" height="145" viewBox="0 0 145 145" fill="none" xmlns="http://www.w3.org/2000/svg">
<circle opacity="0.65" cx="72.5" cy="72.5" r="59.5" fill="url(#paint0_linear_14713_169235)"/>
<circle cx="72.5" cy="72.5" r="70" stroke="url(#paint1_linear_14713_169235)" stroke-width="5"/>
<path d="M40.016 68.384C40.0507 67.6213 39.9987 67.084 39.86 66.772C39.756 66.4253 39.496 66.252 39.08 66.252C38.248 66.252 37.156 66.5987 35.804 67.292C34.1053 68.1587 32.7013 68.592 31.592 68.592C30.5173 68.592 29.824 68.3147 29.512 67.76C29.2 67.1707 29.044 66.5467 29.044 65.888C29.044 65.1947 29.1133 64.744 29.252 64.536C29.4253 64.2933 29.6507 64.172 29.928 64.172C30.24 64.1373 30.5347 64.12 30.812 64.12C31.9213 64.12 33.36 63.8773 35.128 63.392C36.9307 62.9067 37.988 62.4907 38.3 62.144C38.6467 61.7973 38.82 61.3293 38.82 60.74C38.82 60.1507 38.6293 59.856 38.248 59.856C38.1093 59.856 37.9533 59.8907 37.78 59.96C35.492 60.7227 33.9667 61.104 33.204 61.104C32.4413 61.104 31.8173 60.9653 31.332 60.688C30.8467 60.4107 30.552 60.1333 30.448 59.856C30.344 59.544 30.292 58.9893 30.292 58.192C30.292 57.3947 30.448 56.8227 30.76 56.476C31.1067 56.1293 31.4187 55.956 31.696 55.956C31.9733 55.956 32.164 56.0773 32.268 56.32C32.4067 56.528 32.736 56.632 33.256 56.632C33.776 56.632 34.608 56.4067 35.752 55.956C36.896 55.4707 37.78 55.176 38.404 55.072C39.0627 54.9333 39.4787 54.7773 39.652 54.604C39.86 54.396 40.0507 54.0493 40.224 53.564C40.432 53.044 40.7093 52.784 41.056 52.784C41.576 52.784 42.1307 53.304 42.72 54.344C42.8933 54.5867 43.3613 54.7773 44.124 54.916C44.9213 55.02 45.892 55.228 47.036 55.54C48.18 55.852 48.8213 56.06 48.96 56.164C49.0987 56.268 49.168 56.4413 49.168 56.684C49.168 56.892 48.9253 57.3427 48.44 58.036C47.9893 58.6947 47.0707 59.024 45.684 59.024L44.228 58.972C43.8467 58.972 43.552 59.0413 43.344 59.18C43.1707 59.284 42.98 59.5787 42.772 60.064C42.564 60.5147 42.46 60.8787 42.46 61.156C42.46 61.3987 42.5293 61.572 42.668 61.676C42.8067 61.7453 43.136 61.78 43.656 61.78C44.9733 61.78 46.2387 61.9187 47.452 62.196C48.6653 62.4387 49.3067 62.612 49.376 62.716C49.48 62.7853 49.532 62.9587 49.532 63.236C49.532 63.4787 49.3933 63.8947 49.116 64.484C48.8733 65.0387 48.5787 65.3853 48.232 65.524C47.92 65.6627 47.14 65.732 45.892 65.732C44.644 65.732 43.8293 65.7667 43.448 65.836C43.1013 65.9053 42.8067 66.1827 42.564 66.668C42.356 67.1187 42.252 67.7427 42.252 68.54C42.252 68.852 42.304 69.0947 42.408 69.268C42.512 69.4413 42.8067 69.5107 43.292 69.476C44.436 69.3373 45.3027 69.268 45.892 69.268C46.516 69.268 47.2093 69.4067 47.972 69.684C48.7693 69.9267 49.168 70.1693 49.168 70.412C49.168 70.6547 49.012 71.1227 48.7 71.816C48.388 72.4747 48.0067 72.8733 47.556 73.012C47.1053 73.116 46.152 73.22 44.696 73.324C43.2747 73.428 42.4427 73.6013 42.2 73.844C41.992 74.0867 41.888 74.5373 41.888 75.196C41.888 75.82 41.9573 76.2533 42.096 76.496C42.2693 76.704 42.5813 76.8427 43.032 76.912C47.6427 77.6053 51.2307 78.3853 53.796 79.252C56.396 80.084 58.84 80.7427 61.128 81.228C63.416 81.6787 64.768 81.8347 65.184 81.696C66.536 81.28 67.68 81.072 68.616 81.072L70.54 81.228C71.6147 81.228 72.6027 80.968 73.504 80.448C73.6773 80.344 73.8333 80.292 73.972 80.292C74.1453 80.292 74.232 80.396 74.232 80.604C74.232 81.228 73.0187 82.6493 70.592 84.868C68.2 87.052 65.8947 88.144 63.676 88.144C62.532 88.144 61.44 87.884 60.4 87.364C57.0027 85.6307 53.5187 84.244 49.948 83.204C46.412 82.164 42.8587 81.384 39.288 80.864C35.7173 80.344 33.6373 80.084 33.048 80.084C32.4587 80.084 31.436 80.7253 29.98 82.008C29.564 82.3893 29.148 82.58 28.732 82.58C28.316 82.58 28.108 82.2853 28.108 81.696C28.108 78.992 28.8533 77.0507 30.344 75.872C30.7253 75.5947 31.384 74.9187 32.32 73.844C33.2907 72.7347 34.0707 71.7467 34.66 70.88C35.2493 69.9787 35.648 69.528 35.856 69.528C36.0987 69.528 36.272 69.7013 36.376 70.048C36.48 70.3947 36.532 70.8107 36.532 71.296C36.532 71.7813 36.2893 72.5093 35.804 73.48C35.3533 74.4507 35.128 75.092 35.128 75.404C35.128 75.6813 35.388 75.8547 35.908 75.924L38.664 76.236C39.0453 76.3053 39.3053 76.236 39.444 76.028C39.5827 75.82 39.6693 75.4213 39.704 74.832L40.016 68.384ZM69.188 56.268C69.188 56.996 68.7547 57.724 67.888 58.452C67.472 58.7987 67.0213 59.492 66.536 60.532C66.0507 61.572 65.808 62.2307 65.808 62.508C65.808 62.7507 65.8427 62.976 65.912 63.184C65.9813 63.392 66.016 63.6 66.016 63.808C66.016 64.016 65.8773 64.4147 65.6 65.004C65.3227 65.5587 65.0627 65.9227 64.82 66.096C64.612 66.2693 64.2653 66.356 63.78 66.356L60.868 66.304C58.6147 66.304 57.2453 66.4253 56.76 66.668C56.3093 66.876 55.9107 67.3613 55.564 68.124C55.252 68.852 55.096 69.4413 55.096 69.892C55.096 70.5853 55.3387 71.0187 55.824 71.192C56.344 71.3307 57.6267 71.4 59.672 71.4C61.7173 71.4 63.1733 71.348 64.04 71.244C64.9067 71.1053 65.652 70.932 66.276 70.724C66.9347 70.4813 67.3333 70.36 67.472 70.36C67.6107 70.36 67.68 70.5333 67.68 70.88C67.68 73.48 67.1427 75.0747 66.068 75.664C65.028 76.2187 64.2653 76.496 63.78 76.496C63.3293 76.496 62.532 76.4267 61.388 76.288C60.244 76.1147 58.9267 76.028 57.436 76.028C55.9453 76.028 54.9573 76.0973 54.472 76.236C53.9867 76.3747 53.588 76.444 53.276 76.444C52.964 76.444 52.652 76.0107 52.34 75.144C52.028 74.2773 51.872 73.4973 51.872 72.804C51.872 72.1107 51.976 71.4347 52.184 70.776C52.4267 70.1173 52.548 69.4587 52.548 68.8C52.548 68.1067 52.3747 67.396 52.028 66.668C51.716 65.94 51.56 65.2813 51.56 64.692C51.56 64.1027 51.6813 63.652 51.924 63.34C52.2013 63.028 52.5827 62.872 53.068 62.872C54.4547 62.872 55.2693 62.8547 55.512 62.82C57.5227 62.3693 59.3427 62.144 60.972 62.144L62.324 62.196C62.8787 62.196 63.2947 61.884 63.572 61.26C63.8493 60.636 63.988 60.2373 63.988 60.064C63.988 59.4747 63.0693 59.18 61.232 59.18C59.9493 59.18 58.6493 59.3707 57.332 59.752C56.0493 60.0987 54.8707 60.272 53.796 60.272C52.7213 60.272 52.028 60.0987 51.716 59.752C51.4387 59.3707 51.3 58.5387 51.3 57.256C51.3 56.5627 51.3693 56.0947 51.508 55.852C51.6813 55.6093 51.872 55.488 52.08 55.488C52.3227 55.488 52.4787 55.5573 52.548 55.696C52.652 55.8 52.808 55.852 53.016 55.852C53.2587 55.852 53.692 55.7827 54.316 55.644C55.7027 55.2973 57.5227 55.124 59.776 55.124C62.0293 55.124 63.468 55.176 64.092 55.28C64.7507 55.3493 65.288 55.384 65.704 55.384C66.12 55.384 66.5187 55.332 66.9 55.228C67.316 55.124 67.6453 55.072 67.888 55.072C68.7547 55.072 69.188 55.4707 69.188 56.268ZM123.06 56.788C123.58 56.788 124.065 56.6147 124.516 56.268C124.967 55.8867 125.227 55.696 125.296 55.696C125.365 55.696 125.4 55.7307 125.4 55.8C125.4 55.9733 125.227 56.3547 124.88 56.944C124.533 57.4987 124.1 58.1053 123.58 58.764C123.06 59.4227 122.505 60.012 121.916 60.532C121.361 61.0173 120.824 61.416 120.304 61.728C119.784 62.04 119.299 62.196 118.848 62.196C117.323 62.196 115.381 61.572 113.024 60.324C112.157 59.8387 110.979 59.596 109.488 59.596C107.997 59.596 106.472 59.7347 104.912 60.012C103.352 60.2547 102.433 60.584 102.156 61C101.879 61.3813 101.74 61.7107 101.74 61.988C101.74 62.404 102 62.612 102.52 62.612L105.172 62.56C108.188 62.56 110.805 62.8373 113.024 63.392C113.96 63.6 115.451 63.7733 117.496 63.912C118.085 63.9467 118.38 64.172 118.38 64.588C118.38 65.2467 117.652 66.408 116.196 68.072C115.78 68.5573 115.347 69.2507 114.896 70.152C114.445 71.0187 114.116 71.8853 113.908 72.752C113.561 74.0693 112.573 74.728 110.944 74.728C110.528 74.728 110.06 74.676 109.54 74.572C107.772 74.2947 105.588 74.156 102.988 74.156C100.423 74.156 97.9093 74.3467 95.448 74.728C93.0213 75.1093 91.6173 75.404 91.236 75.612C90.8893 75.82 90.716 76.1667 90.716 76.652C90.6467 79.044 89.884 81.384 88.428 83.672C87.0067 85.9253 85.6893 87.052 84.476 87.052C83.2973 87.052 82.292 86.272 81.46 84.712C80.6627 83.152 80.264 82.1467 80.264 81.696C80.264 81.5573 80.3333 81.488 80.472 81.488C80.6107 81.488 80.8013 81.5747 81.044 81.748C81.3213 81.8867 81.5467 81.956 81.72 81.956C82.2747 81.956 82.9853 81.6613 83.852 81.072C84.7533 80.4827 85.6027 79.7027 86.4 78.732C87.1973 77.7613 87.596 77.1547 87.596 76.912C87.596 76.7733 87.3187 76.704 86.764 76.704C86.2093 76.704 85.932 76.6 85.932 76.392C85.932 76.1493 86.1227 75.768 86.504 75.248C88.0293 72.9947 88.792 71.1747 88.792 69.788C88.792 68.3667 88.324 67.2747 87.388 66.512C86.4867 65.7147 86.036 65.1427 86.036 64.796C86.036 64.276 87.1107 64.016 89.26 64.016C89.884 64.016 90.3347 64.0507 90.612 64.12C90.924 64.1893 91.2187 64.224 91.496 64.224C91.7733 64.224 92.4667 64.1027 93.576 63.86C94.6853 63.6173 95.5693 63.4267 96.228 63.288C96.8867 63.1493 97.3373 63.0107 97.58 62.872C97.8227 62.7333 98.0133 62.4733 98.152 62.092C98.3253 61.7107 98.412 61.1213 98.412 60.324C98.412 59.5267 98.256 58.4347 97.944 57.048C97.632 55.6613 97.476 54.656 97.476 54.032C97.476 53.408 97.736 53.096 98.256 53.096C98.8107 53.096 99.3133 53.2693 99.764 53.616C100.215 53.9627 100.544 54.3613 100.752 54.812C100.995 55.2627 101.341 55.5747 101.792 55.748C102.277 55.8867 102.763 55.9213 103.248 55.852C105.259 55.6093 107.495 55.488 109.956 55.488C112.417 55.488 114.393 55.7133 115.884 56.164C116.3 56.3027 116.699 56.372 117.08 56.372C117.496 56.372 117.947 56.3373 118.432 56.268C118.952 56.164 119.507 56.112 120.096 56.112C120.685 56.112 121.292 56.2333 121.916 56.476C122.54 56.684 122.921 56.788 123.06 56.788ZM110.424 70.672C111.256 70.672 111.828 70.308 112.14 69.58C112.487 68.8173 112.66 68.2453 112.66 67.864C112.66 67.4827 112.435 67.24 111.984 67.136C111.568 66.9973 110.615 66.8413 109.124 66.668C107.668 66.4947 105.969 66.408 104.028 66.408C102.121 66.408 100.128 66.564 98.048 66.876C95.968 67.188 94.6853 67.4653 94.2 67.708C93.7147 67.9507 93.2987 68.2973 92.952 68.748C92.64 69.164 92.484 69.6493 92.484 70.204C92.484 70.7587 92.6053 71.036 92.848 71.036C93.1253 71.036 93.4547 70.984 93.836 70.88C96.4013 70.2907 99.1053 69.996 101.948 69.996C104.791 69.996 107.321 70.1867 109.54 70.568C109.887 70.6373 110.181 70.672 110.424 70.672ZM106.628 80.552C106.628 81.5227 106.437 82.5973 106.056 83.776C105.675 84.9547 105.363 85.544 105.12 85.544C104.912 85.544 104.739 85.3707 104.6 85.024C104.496 84.6773 104.271 83.8453 103.924 82.528C103.612 81.2107 103.456 79.7893 103.456 78.264C103.456 77.5707 103.56 77.12 103.768 76.912C104.011 76.6693 104.392 76.548 104.912 76.548C105.432 76.548 105.848 76.912 106.16 77.64C106.472 78.368 106.628 79.3387 106.628 80.552ZM112.244 76.6C112.417 76.6 112.625 76.6693 112.868 76.808C114.532 77.744 116.109 78.524 117.6 79.148C119.68 80.1187 120.945 81.0893 121.396 82.06C121.639 82.5453 121.933 83.048 122.28 83.568C122.661 84.0533 122.921 84.348 123.06 84.452C123.233 84.5213 123.32 84.608 123.32 84.712C123.32 84.9893 122.679 85.4573 121.396 86.116C120.148 86.7747 119.004 87.104 117.964 87.104C115.884 87.104 114.289 85.7867 113.18 83.152C112.105 80.5173 111.568 78.6973 111.568 77.692C111.568 76.964 111.793 76.6 112.244 76.6ZM97.008 76.6C98.152 76.6 98.724 77.4493 98.724 79.148C98.724 80.5 98.3427 81.8693 97.58 83.256C96.852 84.6427 96.332 85.336 96.02 85.336C95.708 85.336 95.396 84.9027 95.084 84.036C94.8067 83.1347 94.668 82.3893 94.668 81.8C94.668 81.2107 94.7893 80.7253 95.032 80.344C95.656 79.3387 95.968 78.5413 95.968 77.952C95.968 77.3627 96.0547 76.9987 96.228 76.86C96.4013 76.6867 96.6613 76.6 97.008 76.6Z" fill="white"/>
<defs>
<linearGradient id="paint0_linear_14713_169235" x1="72.5232" y1="132.023" x2="72.5232" y2="13" gradientUnits="userSpaceOnUse">
<stop stop-color="#E8198B"/>
<stop offset="0.2458" stop-color="#E93295"/>
<stop offset="0.7666" stop-color="#EC73AD"/>
<stop offset="1" stop-color="#EE92B9"/>
</linearGradient>
<linearGradient id="paint1_linear_14713_169235" x1="72.5283" y1="145.028" x2="72.5283" y2="0" gradientUnits="userSpaceOnUse">
<stop stop-color="#E8198B"/>
<stop offset="0.2458" stop-color="#E93295"/>
<stop offset="0.7666" stop-color="#EC73AD"/>
<stop offset="1" stop-color="#EE92B9"/>
</linearGradient>
</defs>
</svg>
