<svg width="519" height="77" viewBox="0 0 519 77" fill="none" xmlns="http://www.w3.org/2000/svg">
<path d="M450.074 58.5933C451.517 59.4453 453.155 59.9479 454.996 60.0971C456.933 60.0461 460.303 59.6849 465.104 59.0056C469.902 58.3263 473.174 57.7374 474.913 57.2348C476.403 56.6851 477.574 55.7781 478.419 54.5256H478.345L479.018 53.9994C479.364 54.3018 479.489 54.6787 479.391 55.1302C479.193 56.6851 479.092 58.2674 479.092 59.8733L476.181 61.0041H476.255C468.548 63.2147 460.688 64.4436 452.685 64.691C451.938 64.691 451.167 64.6675 450.374 64.6164C450.125 63.1597 450 61.7305 450 60.3249C450 59.7712 450.023 59.1941 450.074 58.5933ZM471.481 53.3987C466.906 53.9523 462.307 54.502 457.681 55.0556C456.836 54.9575 455.727 54.4274 454.362 53.4733C452.992 52.5192 452.237 51.6907 452.085 50.9879C452.432 50.5364 452.953 50.234 453.653 50.0848V29.0865C452.012 28.0813 450.868 26.8052 450.222 25.2464C450.319 24.7439 450.619 24.5201 451.117 24.5672C453.455 24.1156 455.494 23.0869 457.233 21.481C459.272 19.1213 460.49 16.412 460.887 13.3495C461.68 13.2984 462.727 13.2984 464.019 13.3495C465.31 13.4005 466.034 13.9266 466.182 14.9318C465.984 16.2864 465.587 17.6174 464.987 18.921C466.03 19.2744 467.124 19.4471 468.271 19.4471C470.112 19.4982 471.878 19.1959 473.567 18.5441C474.014 18.8464 474.672 19.3843 475.543 20.1618C476.411 20.9392 476.897 21.6302 476.998 22.231C476.749 23.0359 475.695 24.3748 473.827 26.2594C471.96 28.1441 470.882 29.2317 470.582 29.5341C471.03 29.6833 471.528 29.7618 472.073 29.7618C473.664 29.6636 475.154 29.2357 476.547 28.4818C477.742 29.2357 478.286 30.4371 478.189 32.0941L478.115 53.5479C477.022 53.9484 475.878 54.1761 474.683 54.2272C474.135 54.2782 473.59 54.2036 473.042 53.9994C472.652 53.5479 472.127 53.3477 471.481 53.3987ZM466.412 29.6126C467.306 27.8575 468.427 26.2516 469.769 24.7949H469.695C469.944 24.5436 470.092 24.3198 470.143 24.1156C469.995 23.8133 469.361 23.6641 468.24 23.6641C467.12 23.6641 466.388 23.6641 466.038 23.6641H462.458C460.918 25.219 459.299 26.7267 457.61 28.1795V28.1049C456.965 28.4072 456.443 28.7841 456.042 29.2357C456.79 29.6872 457.657 29.8639 458.653 29.7618C461.237 29.7147 463.824 29.6636 466.412 29.6126ZM465.365 33.2249H462.455C461.361 33.1267 460.315 33.3505 459.322 33.9041C459.124 34.8072 459.05 35.7103 459.097 36.6134C459.046 37.3672 459.12 38.1446 459.322 38.9456H464.618C465.264 38.2428 465.513 37.3162 465.365 36.1618V33.2249ZM465.365 42.5579H462.159C461.213 42.609 460.268 42.7346 459.322 42.9349V46.021C459.073 48.4279 460.019 49.9121 462.159 50.4618C463.898 50.5128 464.894 50.234 465.143 49.6333C465.392 49.0325 465.466 47.9292 465.369 46.3194V42.5579H465.365ZM473.722 49.861V43.2372C472.975 43.088 472.232 42.9859 471.485 42.9349H469.174V46.3233C469.026 48.4828 469.968 49.6843 472.01 49.9356L473.722 49.861ZM471.481 39.3226C473.322 39.3226 474.065 38.2703 473.719 36.1618V34.1279C472.971 33.9787 472.228 33.8767 471.481 33.8256H469.466V36.4602C469.369 38.07 470.042 39.0202 471.481 39.3226ZM478.123 62.9595V63.0341L478.049 63.1087L478.123 62.9595ZM482.523 68.6056C480.882 66.9487 479.415 65.0954 478.123 63.0341C478.769 62.6846 479.438 62.5315 480.138 62.5825C491.577 60.8274 501.495 55.9351 509.903 47.9057L510.203 47.3049C510.701 47.5562 511.358 48.4711 512.179 50.0534C513 51.6357 513.459 52.6488 513.561 53.1003C513.459 53.3516 512.965 53.8777 512.07 54.6826C511.176 55.4875 510.553 56.0137 510.207 56.265V56.1904C503.74 61.3614 496.581 65.276 488.725 67.9342H488.799C488.301 68.0324 487.531 68.2208 486.488 68.4996C485.445 68.7745 484.698 68.9394 484.251 68.9904C483.656 69.0415 483.084 68.8883 482.535 68.5389V68.6056H482.523ZM503.635 38.1172C502.592 36.7626 501.445 35.4315 500.203 34.1279C497.818 33.9787 496.149 34.0651 495.204 34.391C494.258 34.7169 493.064 35.7849 491.624 37.591C490.43 39.1459 489.064 40.7518 487.523 42.4087C485.982 44.0657 484.142 44.9687 482.002 45.1179C480.609 45.0669 479.664 44.5172 479.166 43.461C479.512 42.8603 480.061 42.5579 480.808 42.5579C484.091 40.1982 486.975 37.4654 489.461 34.3517C486.975 34.552 484.488 34.7051 482.002 34.8033C480.757 34.9054 480.111 34.3518 480.064 33.1463C479.917 31.5405 480.512 30.5392 481.854 30.1348C485.138 30.3861 488.395 30.2094 491.628 29.6087C491.877 28.6545 492.002 27.6533 492.002 26.5971C492.002 26.0945 491.974 25.6194 491.928 25.1679C491.531 24.8656 491.083 24.7164 490.585 24.7164C488.496 25.3682 486.356 26.0239 484.169 26.6717C483.076 26.5225 482.092 25.8197 481.224 24.5632C480.352 23.3107 479.893 22.3802 479.843 21.7794C479.991 21.2769 480.364 21.053 480.963 21.1002C481.162 21.1002 481.36 21.1276 481.559 21.1748H481.485C482.08 21.4771 482.753 21.6263 483.5 21.6263C487.029 21.0727 489.044 18.9681 489.543 15.3048C489.294 13.5497 490.138 12.7958 492.079 13.0471C493.122 13.1963 494.068 13.5733 494.916 14.1779C494.468 16.1333 493.772 17.9905 492.826 19.7495H492.9L491.484 21.1787H498.421C499.067 21.2297 500.421 21.218 502.487 21.1394C504.549 21.0648 505.705 20.7272 505.954 20.1225C505.654 19.3686 505.133 18.7914 504.386 18.3909V18.4656L504.083 17.9433C504.332 17.3936 504.779 17.1149 505.425 17.1149C506.269 17.2641 507.588 17.9826 509.378 19.2587C511.168 20.5387 512.164 21.43 512.362 21.9326C512.261 22.6864 511.701 23.4364 510.685 24.1902C509.666 24.9441 508.759 25.3446 507.962 25.3956C507.514 25.3956 507.117 25.2975 506.767 25.0933C504.382 24.7439 501.966 24.5672 499.53 24.5672C498.04 24.5672 496.546 24.6418 495.056 24.7949C495.951 25.6469 496.597 26.7031 496.993 27.9557C496.993 28.2069 496.892 28.4072 496.694 28.5564L496.394 29.0825C496.593 29.6833 497.437 30.0759 498.931 30.2487C500.421 30.4254 501.441 30.5117 501.989 30.5117C503.581 30.5628 505.32 30.5628 507.211 30.5117C509.102 30.4607 510.666 29.9346 511.911 28.9294V29.004C512.358 28.6035 512.88 28.3012 513.479 28.1009C514.771 29.5576 515.716 31.1635 516.315 32.9186C515.72 34.3243 514.549 34.9014 512.81 34.6502C511.117 34.4499 509.401 34.2732 507.662 34.124C507.164 34.0259 506.841 34.1986 506.693 34.6502C506.993 36.154 508.433 37.4497 511.02 38.5255C513.603 39.6053 515.646 40.1707 517.136 40.2178C518.23 39.8173 518.852 40.1196 519 41.1209C518.802 43.8301 517.432 45.5145 514.899 46.1663C513.207 45.966 511.195 44.898 508.857 42.9663C506.518 41.0345 504.756 39.4168 503.561 38.1093H503.635V38.1172ZM482.597 47.8271C483.095 47.2774 483.765 47.0497 484.613 47.1479C490.231 45.542 494.632 42.3066 497.814 37.4379C497.764 36.9353 497.939 36.6094 498.336 36.4602C499.48 37.112 500.227 38.1682 500.573 39.621C500.573 39.8723 500.472 40.0725 500.273 40.2217C499.13 42.1771 497.861 44.0853 496.468 45.9425V45.8679C492.838 48.0784 488.885 49.3074 484.609 49.5548C483.718 49.1582 483.045 48.581 482.597 47.8271ZM488.414 57.0856C487.617 57.0345 486.659 56.5712 485.543 55.6917C484.422 54.8161 483.815 53.972 483.714 53.171C483.714 52.9707 483.839 52.8686 484.088 52.8686C487.22 53.2691 490.227 53.171 493.114 52.5663C494.904 51.7143 496.608 50.2851 498.223 48.2747C499.838 46.2684 501.02 44.3366 501.768 42.4794V41.1994L502.515 41.6509V41.5763C503.557 42.4794 504.503 43.3825 505.351 44.2855C502.266 49.5037 497.916 53.2691 492.297 55.5778C491.947 55.727 491.278 56.0058 490.282 56.4063C489.286 56.8107 488.663 57.0385 488.414 57.0856Z" fill="url(#paint0_linear_16068_36421)"/>
<path d="M341.326 22.818C341.326 23.7353 340.81 25.0253 339.778 26.688C338.803 28.2933 337.026 29.096 334.446 29.096C333.242 29.096 331.694 28.924 329.802 28.58C324.642 27.72 318.135 27.29 310.28 27.29C305.349 27.29 301.393 27.634 298.412 28.322C295.488 28.9527 292.908 29.268 290.672 29.268C288.436 29.268 286.745 29.1247 285.598 28.838C284.451 28.494 283.878 27.5767 283.878 26.086C283.878 25.3407 284.136 23.9073 284.652 21.786C285.168 19.6073 285.913 18.518 286.888 18.518C287.175 18.518 287.49 18.6613 287.834 18.948C288.178 19.2347 288.665 19.378 289.296 19.378C289.927 19.378 290.873 19.292 292.134 19.12C298.154 18.4893 304.375 18.174 310.796 18.174C317.275 18.174 322.607 18.3173 326.792 18.604C330.977 18.8333 334.159 19.206 336.338 19.722C338.517 20.1807 339.893 20.668 340.466 21.184C341.039 21.6427 341.326 22.1873 341.326 22.818ZM335.736 39.588C335.736 40.104 335.535 40.9927 335.134 42.254C334.733 43.5153 334.159 44.3753 333.414 44.834C332.726 45.2927 331.694 45.522 330.318 45.522C328.999 45.522 327.079 45.264 324.556 44.748C322.091 44.232 319.052 43.974 315.44 43.974C307.815 43.974 299.616 44.8913 290.844 46.726C290.443 46.7833 290.07 46.812 289.726 46.812C288.637 46.812 287.777 46.468 287.146 45.78C286.515 45.092 286.2 44.4327 286.2 43.802C286.2 43.114 286.458 41.7667 286.974 39.76C287.49 37.696 288.493 36.664 289.984 36.664C290.385 36.664 290.844 36.7787 291.36 37.008C291.876 37.18 292.335 37.266 292.736 37.266C293.137 37.266 293.739 37.18 294.542 37.008C300.447 35.6893 305.98 35.03 311.14 35.03C316.357 35.03 321.431 35.46 326.362 36.32C331.293 37.18 334.073 37.782 334.704 38.126C335.392 38.47 335.736 38.9573 335.736 39.588ZM351.732 57.648C351.732 58.2787 350.987 59.884 349.496 62.464C348.005 65.044 346.4 67.0793 344.68 68.57C342.96 70.0033 341.183 70.72 339.348 70.72C336.711 70.72 333.557 69.6307 329.888 67.452C324.441 64.184 317.189 62.55 308.13 62.55C302.454 62.55 296.147 63.324 289.21 64.872C282.273 66.42 278.001 67.194 276.396 67.194C275.651 67.194 275.135 66.8213 274.848 66.076C274.561 65.2733 274.418 64.2127 274.418 62.894C274.418 61.518 274.762 60.1133 275.45 58.68C276.195 57.1893 277.371 56.444 278.976 56.444C279.377 56.444 279.922 56.53 280.61 56.702C281.355 56.874 282.043 56.96 282.674 56.96C283.305 56.96 284.05 56.7307 284.91 56.272C287.662 54.8387 295.029 54.122 307.012 54.122C315.096 54.122 323.008 54.724 330.748 55.928C338.488 57.132 343.161 58.1353 344.766 58.938C345.741 59.3967 346.515 59.626 347.088 59.626C347.661 59.626 348.435 59.2533 349.41 58.508C350.442 57.7627 351.073 57.39 351.302 57.39C351.589 57.39 351.732 57.476 351.732 57.648ZM438.42 44.232C438.42 45.092 436.815 46.6687 433.604 48.962C430.451 51.198 427.985 52.316 426.208 52.316C423.915 52.316 421.277 50.9973 418.296 48.36C417.551 47.672 416.977 47.328 416.576 47.328C416.175 47.328 415.716 47.5287 415.2 47.93C413.537 49.0193 410.986 49.564 407.546 49.564C406.801 49.564 405.912 49.5353 404.88 49.478C403.848 49.3633 402.902 49.306 402.042 49.306C401.182 49.306 400.551 49.478 400.15 49.822C399.806 50.166 399.605 50.596 399.548 51.112C399.491 51.5707 399.405 53.176 399.29 55.928C399.233 58.6227 399.204 60.6007 399.204 61.862L399.376 67.538C399.376 69.086 399.089 70.204 398.516 70.892C398 71.6373 397.111 72.01 395.85 72.01C394.589 72.01 393.958 70.8633 393.958 68.57C393.958 67.882 394.015 66.9933 394.13 65.904C394.302 64.8147 394.388 62.3207 394.388 58.422C394.388 54.466 394.359 52.2013 394.302 51.628C394.302 50.9973 394.159 50.5387 393.872 50.252C393.643 49.908 393.213 49.736 392.582 49.736C392.009 49.736 390.891 49.8507 389.228 50.08C387.623 50.3093 385.931 50.7107 384.154 51.284C382.377 51.8 380.599 52.058 378.822 52.058C377.102 52.058 375.841 51.542 375.038 50.51C374.293 49.4207 373.92 48.4173 373.92 47.5C373.92 46.5827 374.121 45.9233 374.522 45.522C374.923 45.0633 375.296 44.8053 375.64 44.748C376.041 44.6333 376.787 44.576 377.876 44.576C379.023 44.576 380.169 44.2893 381.316 43.716C383.151 42.7987 386.361 42.1107 390.948 41.652C392.152 41.5373 393.012 41.1933 393.528 40.62C394.101 40.0467 394.531 39.0433 394.818 37.61C395.162 35.9473 395.879 35.116 396.968 35.116C397.484 35.116 397.943 35.374 398.344 35.89C398.803 36.3487 399.118 37.1513 399.29 38.298C399.519 39.3873 399.806 40.1613 400.15 40.62C400.551 41.0787 401.297 41.308 402.386 41.308C404.737 41.308 406.629 41.4513 408.062 41.738C409.495 41.9673 410.413 42.082 410.814 42.082C411.215 42.082 411.416 41.9673 411.416 41.738C411.416 41.05 409.295 39.33 405.052 36.578C400.867 33.826 398.057 32.45 396.624 32.45C395.936 32.45 395.076 32.6793 394.044 33.138C393.069 33.5393 389.199 35.7753 382.434 39.846C375.669 43.8593 371.053 46.812 368.588 48.704C366.18 50.5387 364.489 51.456 363.514 51.456C362.597 51.456 361.565 51.1693 360.418 50.596C359.329 49.9653 358.784 48.9907 358.784 47.672C358.784 46.296 358.927 44.92 359.214 43.544C359.501 42.168 359.73 41.48 359.902 41.48C360.131 41.48 360.504 41.9387 361.02 42.856C361.307 43.3147 361.909 43.544 362.826 43.544C363.743 43.544 365.463 42.942 367.986 41.738C370.509 40.4767 373.146 39.1007 375.898 37.61L384.584 32.966C387.623 31.3033 389.257 30.386 389.486 30.214C389.773 29.9847 389.916 29.784 389.916 29.612C389.916 29.2107 388.827 28.666 386.648 27.978C384.527 27.29 383.122 26.946 382.434 26.946C381.115 26.946 379.338 27.6913 377.102 29.182C374.293 30.9593 372.085 31.848 370.48 31.848C368.875 31.848 367.527 30.7587 366.438 28.58C365.406 26.344 364.89 24.9967 364.89 24.538C364.89 24.0793 365.033 23.85 365.32 23.85C365.664 23.85 366.123 23.9647 366.696 24.194C367.327 24.4233 367.986 24.538 368.674 24.538C369.419 24.538 370.509 24.1653 371.942 23.42L381.058 19.292C386.447 16.9413 389.859 15.4793 391.292 14.906C392.783 14.3327 393.872 13.7307 394.56 13.1C395.305 12.4693 396.051 12.154 396.796 12.154C397.541 12.154 398.143 12.326 398.602 12.67C399.061 12.9567 399.29 13.3867 399.29 13.96C399.29 14.476 398.602 15.336 397.226 16.54C395.907 17.6867 393.528 19.3493 390.088 21.528C389.515 21.872 389.228 22.2447 389.228 22.646C389.228 23.0473 389.715 23.4487 390.69 23.85C391.665 24.194 392.668 24.5953 393.7 25.054C394.789 25.5127 395.678 25.742 396.366 25.742C397.111 25.742 398.315 25.2547 399.978 24.28C401.698 23.3053 402.558 22.5887 402.558 22.13C402.558 21.6713 401.899 21.2413 400.58 20.84C398.745 20.2093 397.828 19.5787 397.828 18.948C397.828 18.26 398.229 17.6007 399.032 16.97C399.892 16.3393 400.809 16.024 401.784 16.024C402.759 16.024 403.533 16.1387 404.106 16.368C404.966 16.712 407.976 16.884 413.136 16.884C414.856 16.884 416.031 16.8553 416.662 16.798C417.35 16.6833 417.751 16.626 417.866 16.626C418.898 16.626 419.701 16.97 420.274 17.658C420.905 18.346 421.22 19.0053 421.22 19.636C421.22 20.2093 420.217 21.0407 418.21 22.13C416.261 23.2193 411.903 25.14 405.138 27.892C404.163 28.2933 403.676 28.666 403.676 29.01C403.676 29.2967 404.135 29.6693 405.052 30.128C408.205 31.7333 410.814 33.3387 412.878 34.944C415.802 37.352 418.726 38.9 421.65 39.588C424.631 40.2187 426.695 40.9067 427.842 41.652C429.046 42.34 430.365 42.856 431.798 43.2C433.289 43.544 434.464 43.716 435.324 43.716C436.184 43.716 436.729 43.6873 436.958 43.63C437.245 43.5153 437.474 43.458 437.646 43.458C438.162 43.458 438.42 43.716 438.42 44.232ZM390.604 56.186C390.604 57.3327 389.887 58.6513 388.454 60.142C387.078 61.6327 384.871 63.152 381.832 64.7C378.793 66.1907 376.443 66.936 374.78 66.936C373.117 66.936 371.827 66.162 370.91 64.614C369.993 63.066 369.534 61.8333 369.534 60.916C369.534 60.572 369.591 60.3713 369.706 60.314C369.878 60.1993 370.308 60.142 370.996 60.142C372.315 60.142 373.347 59.9127 374.092 59.454C374.895 58.938 376.471 58.3647 378.822 57.734C381.173 57.046 382.95 56.6733 384.154 56.616C385.358 56.5013 386.361 56.186 387.164 55.67C387.967 55.154 388.683 54.896 389.314 54.896C390.174 54.896 390.604 55.326 390.604 56.186ZM423.37 60.056C423.37 61.1453 422.539 62.7793 420.876 64.958C419.271 67.0793 417.493 68.14 415.544 68.14C413.652 68.14 411.387 66.7067 408.75 63.84C406.113 60.916 404.794 58.508 404.794 56.616C404.794 55.584 405.138 55.068 405.826 55.068C406.113 55.068 406.428 55.154 406.772 55.326C407.173 55.4407 407.775 55.498 408.578 55.498H410.728C412.62 55.498 414.856 55.8707 417.436 56.616C420.016 57.3613 421.65 57.9633 422.338 58.422C423.026 58.8807 423.37 59.4253 423.37 60.056Z" fill="url(#paint1_linear_16068_36421)"/>
<defs>
<linearGradient id="paint0_linear_16068_36421" x1="486.221" y1="13" x2="486.221" y2="69" gradientUnits="userSpaceOnUse">
<stop stop-color="#00C6FB"/>
<stop offset="0.1437" stop-color="#00B5F8"/>
<stop offset="0.7255" stop-color="#0074EE"/>
<stop offset="1" stop-color="#005BEA"/>
</linearGradient>
<linearGradient id="paint1_linear_16068_36421" x1="231.5" y1="3.18668e-07" x2="231.5" y2="77" gradientUnits="userSpaceOnUse">
<stop stop-color="#00C6FB"/>
<stop offset="0.1437" stop-color="#00B5F8"/>
<stop offset="0.7255" stop-color="#0074EE"/>
<stop offset="1" stop-color="#005BEA"/>
</linearGradient>
</defs>
</svg>
