<svg width="125" height="280" viewBox="0 0 121 232" fill="none" xmlns="http://www.w3.org/2000/svg">
<path d="M52.6328 62.9297C52.3047 60.9609 52.3047 58.3359 52.6328 55.0547C52.6328 52.7578 52.6328 51.1172 52.6328 50.1328C52.9609 46.5234 54.6016 44.8828 57.5547 45.2109C71.0078 44.2266 85.7734 44.2266 101.852 45.2109C104.805 45.2109 106.445 46.8516 106.773 50.1328C106.773 54.3984 106.773 58.5 106.773 62.4375C106.117 66.0469 103.82 67.8516 99.8828 67.8516C87.7422 66.8672 74.2891 66.8672 59.5234 67.8516C55.5859 67.5234 53.2891 65.8828 52.6328 62.9297ZM57.0625 52.5938V59.9766C56.7344 62.6016 57.8828 63.75 60.5078 63.4219C74.2891 62.4375 87.0859 62.4375 98.8984 63.4219C101.195 63.4219 102.344 62.2734 102.344 59.9766V51.6094C102.672 49.9688 101.359 49.1484 98.4062 49.1484C85.9375 48.1641 73.1406 48.1641 60.0156 49.1484C58.0469 49.1484 57.0625 50.2969 57.0625 52.5938ZM42.7891 84.5859C49.6797 83.9297 57.3906 83.6016 65.9219 83.6016C63.9531 80.6484 61.6563 77.6953 59.0312 74.7422C57.7188 73.4297 57.5547 72.2812 58.5391 71.2969C60.1797 70.3125 61.3281 70.3125 61.9844 71.2969C64.9375 74.25 68.0547 78.1875 71.3359 83.1094C71.3359 83.1094 71.3359 83.2734 71.3359 83.6016H87.0859C87.4141 83.2734 87.5781 83.1094 87.5781 83.1094C88.2344 82.125 89.2188 80.9766 90.5312 79.6641C93.1562 76.3828 94.9609 73.7578 95.9453 71.7891C96.6016 70.1484 97.75 69.8203 99.3906 70.8047C100.703 71.4609 100.867 72.6094 99.8828 74.25C97.2578 77.8594 94.9609 80.9766 92.9922 83.6016C102.18 83.6016 110.219 83.9297 117.109 84.5859C118.422 84.5859 119.078 85.0781 119.078 86.0625C118.422 88.6875 117.109 89.6719 115.141 89.0156C103.656 88.0312 90.0391 87.5391 74.2891 87.5391C59.1953 87.8672 48.2031 88.5234 41.3125 89.5078C39.6719 89.8359 38.8516 89.1797 38.8516 87.5391C39.5078 85.2422 40.8203 84.2578 42.7891 84.5859ZM25.5625 3.375C26.2188 30.2812 25.2344 49.1484 22.6094 59.9766C20.6406 71.1328 15.8828 80.1562 8.33594 87.0469C6.69531 88.3594 4.72656 88.3594 2.42969 87.0469C1.44531 86.3906 1.44531 85.5703 2.42969 84.5859C10.9609 77.3672 16.2109 68.8359 18.1797 58.9922C20.8047 49.1484 21.7891 30.6094 21.1328 3.375C21.1328 2.0625 21.9531 1.24219 23.5938 0.914062C24.9062 1.24219 25.5625 2.0625 25.5625 3.375ZM83.6406 9.28125C84.2969 9.60937 84.625 10.1016 84.625 10.7578C84.9531 10.7578 85.1172 10.7578 85.1172 10.7578C89.3828 8.13281 93.4844 5.17969 97.4219 1.89844C98.4062 0.914062 99.3906 1.07813 100.375 2.39062C101.359 3.70312 101.195 4.85156 99.8828 5.83594C96.2734 8.78906 92.1719 11.5781 87.5781 14.2031C90.2031 16.5 92.6641 19.125 94.9609 22.0781C98.2422 19.7813 101.688 17.3203 105.297 14.6953C106.281 14.0391 106.938 13.5469 107.266 13.2188C108.578 12.2344 109.727 12.2344 110.711 13.2188C111.695 14.5312 111.203 15.8438 109.234 17.1562C109.234 17.1562 109.07 17.3203 108.742 17.6484C106.117 19.9453 102.672 22.4062 98.4062 25.0312C104.312 30.2812 111.039 35.2031 118.586 39.7969C119.57 40.7812 119.734 41.4375 119.078 41.7656C117.109 44.3906 114.977 44.7188 112.68 42.75C102.18 35.2031 91.6797 25.3594 81.1797 13.2188C79.5391 11.25 79.2109 9.9375 80.1953 9.28125C81.5078 8.29688 82.6562 8.29688 83.6406 9.28125ZM47.7109 20.1094C46.3984 19.7813 46.0703 18.7969 46.7266 17.1562C47.0547 15.8438 48.2031 15.6797 50.1719 16.6641C55.0938 19.2891 58.7031 21.4219 61 23.0625L61.4922 23.5547C61.8203 23.2266 62.1484 22.7344 62.4766 22.0781C64.1172 20.4375 65.9219 18.1406 67.8906 15.1875C69.5312 13.2188 69.5312 11.9063 67.8906 11.25C65.2656 9.60937 61.8203 7.96875 57.5547 6.32812C56.2422 5.67187 55.9141 4.6875 56.5703 3.375C57.2266 2.0625 58.375 1.73437 60.0156 2.39062C62.9688 3.70312 66.25 5.34375 69.8594 7.3125C70.8438 7.64062 71.5 7.96875 71.8281 8.29688C74.7812 10.5937 74.9453 13.3828 72.3203 16.6641C64.7734 27.1641 56.4062 35.6953 47.2188 42.2578C44.9219 44.2266 42.625 44.2266 40.3281 42.2578C39.0156 41.2734 39.0156 40.4531 40.3281 39.7969C47.2188 36.1875 53.125 31.9219 58.0469 27C56.4062 25.6875 53.7812 23.8828 50.1719 21.5859C49.1875 20.9297 48.3672 20.4375 47.7109 20.1094ZM59.0312 36.3516C59.3594 34.3828 60.3438 33.2344 61.9844 32.9062C74.125 32.25 85.6094 32.25 96.4375 32.9062C96.4375 32.9062 96.6016 32.9062 96.9297 32.9062C97.9141 33.2344 98.4062 33.7266 98.4062 34.3828C97.75 36.6797 96.6016 37.8281 94.9609 37.8281C83.1484 36.1875 71.6641 36.1875 60.5078 37.8281C59.8516 38.1562 59.3594 38.1562 59.0312 37.8281C58.7031 37.5 58.7031 37.0078 59.0312 36.3516ZM28.0234 57.0234C27.3672 55.7109 27.5312 54.5625 28.5156 53.5781C29.8281 52.5938 30.8125 52.7578 31.4688 54.0703C35.7344 62.2734 40.1641 68.3438 44.7578 72.2812C46.0703 73.2656 45.5781 74.0859 43.2812 74.7422C40.9844 75.7266 39.3438 75.3984 38.3594 73.7578C34.4219 68.5078 30.9766 62.9297 28.0234 57.0234ZM35.8984 37.3359C34.9141 38.6484 33.4375 38.8125 31.4688 37.8281C30.4844 37.1719 30.4844 36.1875 31.4688 34.875C34.4219 31.9219 37.5391 27.1641 40.8203 20.6016C41.4766 19.2891 42.4609 19.125 43.7734 20.1094C45.0859 20.7656 45.25 22.0781 44.2656 24.0469C40.3281 30.6094 37.5391 35.0391 35.8984 37.3359ZM9.32031 42.2578C8.99219 44.5547 7.67969 45.7031 5.38281 45.7031C4.07031 46.0312 3.90625 44.5547 4.89062 41.2734C6.85938 36.6797 8.00781 32.25 8.33594 27.9844C8.66406 25.6875 9.64844 24.7031 11.2891 25.0312C12.6016 24.7031 12.9297 26.3437 12.2734 29.9531C11.9453 33.8906 10.9609 37.9922 9.32031 42.2578ZM10.7969 216.219C9.15625 216.547 8.5 216.055 8.82812 214.742C9.15625 212.773 9.97656 211.789 11.2891 211.789C25.0703 211.133 40.6562 210.805 58.0469 210.805C78.0625 210.805 94.9609 211.133 108.742 211.789C110.711 211.789 111.531 212.281 111.203 213.266C111.203 215.562 110.219 216.547 108.25 216.219C94.4688 215.234 77.5703 214.742 57.5547 214.742H52.6328C52.6328 215.727 52.3047 216.219 51.6484 216.219C47.0547 218.516 42.9531 221.141 39.3438 224.094C38.3594 224.75 38.0312 225.406 38.3594 226.062C38.6875 226.391 39.5078 226.719 40.8203 227.047C53.6172 227.375 67.2344 227.375 81.6719 227.047C83.3125 226.719 84.1328 226.391 84.1328 226.062C84.4609 225.406 84.1328 224.75 83.1484 224.094C81.5078 223.109 79.7031 221.797 77.7344 220.156C76.75 219.172 76.75 218.188 77.7344 217.203C78.3906 216.547 79.375 216.547 80.6875 217.203C82.3281 218.188 84.2969 219.664 86.5938 221.633C87.25 221.961 87.7422 222.289 88.0703 222.617C91.0234 226.883 89.7109 229.344 84.1328 230C69.0391 230.984 53.7812 230.984 38.3594 230C35.4062 230 33.6016 229.18 32.9453 227.539C32.2891 225.57 33.1094 223.602 35.4062 221.633C38.3594 219.008 41.6406 216.711 45.25 214.742C41.6406 214.742 40.4922 214.742 41.8047 214.742C26.0547 215.398 15.7188 215.891 10.7969 216.219ZM84.1328 157.156C84.1328 159.453 83.9688 161.586 83.6406 163.555C84.9531 163.555 86.7578 163.555 89.0547 163.555C92.0078 163.883 94.3047 164.047 95.9453 164.047C100.211 164.703 102.18 166.836 101.852 170.445C101.195 176.68 100.867 181.93 100.867 186.195C100.539 190.461 102.344 192.43 106.281 192.102C111.203 192.102 114.812 191.281 117.109 189.641C118.422 189.312 119.242 189.641 119.57 190.625C119.242 193.906 117.602 195.711 114.648 196.039C113.008 196.367 110.055 196.531 105.789 196.531C99.2266 196.203 96.1094 193.25 96.4375 187.672C96.4375 182.75 96.6016 177.336 96.9297 171.43C97.2578 169.461 96.2734 168.312 93.9766 167.984C92.9922 167.984 91.3516 167.82 89.0547 167.492C86.7578 167.492 84.9531 167.492 83.6406 167.492C82.6562 172.414 81.5078 176.68 80.1953 180.289C83.1484 182.258 86.2656 184.227 89.5469 186.195C90.8594 187.18 91.0234 188.164 90.0391 189.148C89.0547 190.461 87.7422 190.625 86.1016 189.641C84.7891 188.656 82.8203 187.344 80.1953 185.703C79.5391 185.047 78.8828 184.555 78.2266 184.227C75.9297 188.492 72.6484 192.43 68.3828 196.039C66.0859 198.008 64.1172 198.172 62.4766 196.531C61.4922 195.547 61.4922 194.727 62.4766 194.07C68.3828 189.805 72.4844 185.703 74.7812 181.766C72.4844 180.781 70.0234 179.469 67.3984 177.828C65.7578 177.172 65.4297 176.188 66.4141 174.875C67.3984 173.891 68.7109 173.891 70.3516 174.875C72.3203 175.859 74.4531 177.008 76.75 178.32C78.0625 175.039 78.8828 171.43 79.2109 167.492C78.2266 167.492 76.4219 167.656 73.7969 167.984C71.5 167.984 69.6953 168.148 68.3828 168.477C67.3984 168.805 66.7422 168.805 66.4141 168.477C66.0859 168.148 66.0859 167.656 66.4141 167C66.7422 165.031 67.8906 164.047 69.8594 164.047C73.7969 164.047 77.0781 164.047 79.7031 164.047C79.7031 161.75 79.7031 159.453 79.7031 157.156C80.0312 155.844 80.6875 155.188 81.6719 155.188C83.3125 155.188 84.1328 155.844 84.1328 157.156ZM74.7812 140.914C74.7812 139.602 75.4375 138.945 76.75 138.945C78.3906 138.945 79.2109 139.602 79.2109 140.914V145.344C90.0391 145.344 100.867 145.508 111.695 145.836C113.664 145.836 114.484 146.656 114.156 148.297C113.828 149.938 112.352 150.758 109.727 150.758C105.133 150.43 97.5859 150.102 87.0859 149.773C89.7109 149.773 87.0859 149.609 79.2109 149.281V154.203C77.8984 156.5 76.4219 156.664 74.7812 154.695V149.281C64.9375 149.281 55.4219 149.281 46.2344 149.281V154.695C44.9219 156.664 43.4453 156.664 41.8047 154.695V149.281C29.9922 149.609 19.4922 150.102 10.3047 150.758C9.32031 151.086 8.5 151.086 7.84375 150.758C7.51562 150.102 7.67969 149.445 8.33594 148.789C9.32031 146.82 10.9609 145.836 13.2578 145.836C22.4453 145.508 31.9609 145.344 41.8047 145.344V140.422C41.8047 139.438 42.4609 138.945 43.7734 138.945C45.4141 138.945 46.2344 139.602 46.2344 140.914V145.344C55.4219 145.016 64.9375 144.852 74.7812 144.852V140.914ZM12.2734 193.578C15.2266 193.25 19.9844 192.922 26.5469 192.594C29.8281 192.266 32.2891 192.102 33.9297 192.102V186.195C27.3672 186.195 21.1328 186.523 15.2266 187.18C14.2422 187.508 13.5859 187.508 13.2578 187.18C12.9297 186.852 12.9297 186.359 13.2578 185.703C13.9141 183.734 15.3906 182.914 17.6875 183.242C22.6094 182.586 28.0234 182.258 33.9297 182.258V176.352C35.2422 174.055 36.7188 174.055 38.3594 176.352V182.258C44.2656 182.258 50.1719 182.586 56.0781 183.242C56.7344 183.242 57.0625 183.406 57.0625 183.734C57.3906 183.734 57.3906 184.062 57.0625 184.719C56.7344 186.359 55.4219 187.18 53.125 187.18C48.8594 186.523 43.9375 186.195 38.3594 186.195V192.102C44.9219 191.773 51.4844 191.609 58.0469 191.609C59.6875 191.609 60.1797 192.266 59.5234 193.578C59.1953 195.219 57.8828 196.039 55.5859 196.039C38.5234 195.383 23.2656 196.039 9.8125 198.008C8.82812 198.008 8.33594 197.844 8.33594 197.516C8.00781 197.516 8.00781 197.023 8.33594 196.039C8.66406 194.398 9.97656 193.578 12.2734 193.578ZM19.1641 159.125C24.0859 159.125 29.0078 159.125 33.9297 159.125V154.203C35.5703 152.234 37.0469 152.234 38.3594 154.203V159.125C43.2812 159.125 48.8594 159.125 55.0938 159.125C56.7344 159.125 57.2266 159.781 56.5703 161.094C56.2422 162.734 54.9297 163.555 52.6328 163.555C50.9922 163.227 48.6953 163.062 45.7422 163.062C42.4609 162.734 40 162.57 38.3594 162.57V167.984C45.5781 167.984 53.125 168.148 61 168.477C62.6406 168.477 63.1328 168.969 62.4766 169.953C62.1484 171.594 60.6719 172.414 58.0469 172.414C42.2969 170.773 26.5469 170.938 10.7969 172.906C9.8125 172.906 9.32031 172.742 9.32031 172.414C8.99219 172.414 8.99219 171.922 9.32031 170.938C9.64844 169.297 10.9609 168.477 13.2578 168.477C19.8203 168.148 26.7109 167.984 33.9297 167.984V162.57C31.9609 162.898 29.1719 163.062 25.5625 163.062C21.625 163.391 18.6719 163.555 16.7031 163.555C15.3906 163.555 14.8984 163.062 15.2266 162.078C15.2266 160.438 16.5391 159.453 19.1641 159.125ZM23.5938 204.898C22.2812 204.898 21.625 204.406 21.625 203.422C22.2812 201.453 23.2656 200.469 24.5781 200.469C48.5312 199.812 71.5 199.812 93.4844 200.469C93.4844 200.469 93.6484 200.469 93.9766 200.469C95.9453 200.797 96.6016 201.453 95.9453 202.438C95.9453 204.078 94.9609 204.898 92.9922 204.898C69.6953 203.914 46.5625 203.914 23.5938 204.898ZM11.7812 178.32C15.0625 177.336 19.3281 175.859 24.5781 173.891C24.9062 173.562 25.0703 173.398 25.0703 173.398C26.3828 172.414 27.5312 172.578 28.5156 173.891C29.1719 175.203 28.6797 176.023 27.0391 176.352C23.7578 178.32 19.6562 179.961 14.7344 181.273C13.4219 181.602 12.2734 181.273 11.2891 180.289C10.3047 179.305 10.4688 178.648 11.7812 178.32ZM58.5391 177.828C59.8516 178.484 60.0156 179.305 59.0312 180.289C58.375 181.273 57.2266 181.602 55.5859 181.273C54.9297 180.945 53.7812 180.453 52.1406 179.797C48.8594 178.484 46.5625 177.5 45.25 176.844C43.6094 176.188 43.1172 175.203 43.7734 173.891C44.1016 172.578 45.25 172.414 47.2188 173.398C50.8281 174.711 54.6016 176.188 58.5391 177.828Z" fill="#E92F93"/>
</svg>
