<svg width="189" height="191" viewBox="0 0 189 191" fill="none" xmlns="http://www.w3.org/2000/svg">
<path d="M64.5002 167.2C64.3002 166.9 63.9002 166.7 63.5002 166.7C63.3002 166.7 63.1002 166.7 63.0002 166.8C62.9002 166.9 62.7002 166.9 62.6002 167.1C62.3002 167.4 62.2002 167.7 62.2002 168.1C62.2002 168.3 62.2002 168.5 62.3002 168.6C62.7002 170.4 64.0002 176 66.4002 177.7C66.6002 177.8 66.8002 178 67.0002 178.1C69.7002 179.7 74.3002 180.5 76.4002 179.5C76.6002 179.4 76.8002 179.3 76.9002 179.2C78.5002 177.8 66.7002 168.8 64.5002 167.2Z" fill="url(#paint0_linear_3501_301949)"/>
<path d="M121.3 109.6C116.9 100.9 119.9 87.5 120.1 86.2C110.1 98.2 99.8003 104.4 99.8003 104.4L101 109.9C108.5 103.5 118.2 108.7 120.9 109.9C121.2 110 121.4 109.8 121.3 109.6Z" fill="url(#paint1_linear_3501_301949)"/>
<path d="M93.5004 163V162.8C93.4004 162.5 93.3004 162.3 93.1004 162.1C92.8004 161.7 92.2004 161.4 91.7004 161.4L76.2004 161.6C75.7004 161.6 74.7004 162.1 74.6004 162.7C74.4004 163.4 74.3004 164.1 74.8004 164.8C75.6004 165.9 86.1004 170 88.2004 169.7C88.7004 169.6 89.4004 169.2 90.2004 168.6H90.3004V168.5C91.0004 167.9 91.7004 167.2 92.3004 166.4H92.4004V166.3C92.8004 165.7 93.2004 165.1 93.4004 164.4V164.3C93.6004 163.9 93.6004 163.4 93.5004 163Z" fill="url(#paint2_linear_3501_301949)"/>
<path d="M110.3 114.6C110.3 114.1 110.3 113.6 110.1 113.2V113.1C110.1 113 110 113 110 112.9C109.7 112.5 109.1 112.4 108.6 112.5C105.5 113.1 92.5001 115.9 93.2001 119.1C93.2001 119.1 92.7001 120.9 97.4001 120.8C102.1 120.7 105.2 121.5 106.5 120.8C106.9 120.6 107.5 120.1 108 119.3H108.1V119.2C108.6 118.5 109.1 117.7 109.5 116.9H109.6V116.8C109.9 116.1 110.1 115.5 110.2 114.9L110.3 114.6Z" fill="url(#paint3_linear_3501_301949)"/>
<path d="M84.4 101.3C84.2 100.7 84 100.3 84 100.3C84 100.3 84.1 100.8 84.4 101.3Z" fill="url(#paint4_linear_3501_301949)"/>
<path d="M99.6 104C98.6 104.2 97.6 104.3 96.7 104.5C92.8 104.4 90.4 98.7 90.4 98.7C90.4 98.7 92 103.9 89 104.7C86.8 105.3 85.2 102.8 84.4 101.3C85 102.8 85.8 105.8 83.8 107.2C81.2 109.1 77.9 104.1 77.5 103.5C77.8 104 80.5 108.4 78.5 110.5C76.4 112.6 71.7 107.3 71.7 107.3C71.7 107.3 75.6 112.5 73.7 115.2C71.8 117.9 66.9 114.1 66.9 114.1C66.9 114.1 71.5 120.2 70.6 122.6C69.7 125 64.8 122.2 64.8 122.2C64.8 122.2 70.3 126.1 69.1 128.6C68.1 130.8 65.3 128.9 64.4 128.2C65.3 129 68.7 131.9 67.7 134.3C66.5 137.1 63.5 134.1 63.5 134.1C63.5 134.1 66.3 138.7 63.8 140.5C61.3 142.3 59.7 136.5 59.7 136.5C61 142.1 55.7 141.5 55.6 141.5C52.6 140.8 48.8 139.7 43.7 139.2C29.5 137.8 24.4 147.8 25 149.9C25.4 151.3 27.7 152.3 29 152.8C29.4 152.9 29.5 153.5 29.1 153.7C27.8 154.6 27.9 155 27.9 155L36.3 161.4C51.7 173.1 65.4 169.6 71.3 168.3C77.2 166.9 80.2 164.3 80.2 164.3C80.8 161.5 84.4 160.9 84.4 160.9C84.1 157.8 87.6 155.7 87.6 155.7C87.8 152.2 90.4 150.5 90.4 150.5C90.4 147.5 91.8 145.6 91.8 145.6C91.4 142.8 93.1 140.2 93.1 140.2C92.2 137.2 93.8 134.6 93.8 134.6C93 132.3 94.5 129.5 94.5 129.5C93.9 127.5 94.9 124.9 94.9 124.9C94.6 123.9 94.7 122.1 94.7 122.1C96.5 111.4 105.8 108.9 105.9 106.3C106 103.6 99.6 104 99.6 104Z" fill="url(#paint5_linear_3501_301949)"/>
<path d="M25.5 151C25.5 151 27.9 149.2 29.6 149.9C31.3 150.5 34 152.6 33.9 153.2C33.9 153.8 32.5 154.9 31.8 155C31.1 155.2 28.3 155.3 27.9 155.1C27.9 155.1 27.5 154.8 29 153.7C29.3 153.5 29.3 152.9 28.9 152.8C27.8 152.4 26.1 151.8 25.5 151Z" fill="url(#paint6_linear_3501_301949)"/>
<path d="M30.9 149.3C30.9 149.3 34.1 141.8 39.3 142.1C44.5 142.4 48.5 144.6 52.8 137.1C52.8 137.1 50.1 140.9 46.4 140.9C42.7 140.9 38.3 138.4 33.7 142.8C29.1 147.2 29 149.3 29 149.3C29 149.3 30.7 149.1 30.9 149.3Z" fill="url(#paint7_linear_3501_301949)"/>
<path d="M30.0998 149.2C30.0998 149.2 33.6998 148.6 33.1998 144.3C32.6998 139.4 36.7998 136.4 38.7998 135.3C38.7998 135.3 31.7998 137.8 31.7998 143.5C31.8998 149.2 27.4998 149.5 27.4998 149.5C27.4998 149.5 27.2998 149.9 28.0998 149.8C28.2998 149.8 28.8998 149.6 29.3998 149.4C29.7998 149.3 29.9998 149.2 30.0998 149.2Z" fill="url(#paint8_linear_3501_301949)"/>
<path d="M25.4999 151C25.4999 151 21.4 149.3 22.1 145.5C22.1 145.5 22.7 149.7 26.2 150.7L25.4999 151Z" fill="url(#paint9_linear_3501_301949)"/>
<path d="M26.3999 150.5C26.3999 150.5 22.7999 144.6 26.9999 141.9C26.9999 141.9 25.8999 143.3 25.8999 145.4C25.8999 147.5 27.0999 150.2 27.0999 150.2L26.3999 150.5Z" fill="url(#paint10_linear_3501_301949)"/>
<path d="M41.6999 151.2C43.2463 151.2 44.4999 150.036 44.4999 148.6C44.4999 147.164 43.2463 146 41.6999 146C40.1535 146 38.8999 147.164 38.8999 148.6C38.8999 150.036 40.1535 151.2 41.6999 151.2Z" fill="#C8E6CC"/>
<mask id="mask0_3501_301949" style="mask-type:luminance" maskUnits="userSpaceOnUse" x="38" y="146" width="7" height="6">
<path d="M41.6999 151.2C43.2463 151.2 44.4999 150.036 44.4999 148.6C44.4999 147.164 43.2463 146 41.6999 146C40.1535 146 38.8999 147.164 38.8999 148.6C38.8999 150.036 40.1535 151.2 41.6999 151.2Z" fill="white"/>
</mask>
<g mask="url(#mask0_3501_301949)">
<g opacity="0.52">
<path d="M44.1997 146.7C44.2997 146.6 44.2997 146.7 44.1997 146.7V146.7Z" fill="#F2AF49"/>
<path d="M42.2998 148.5C42.3998 148.5 42.3998 148.6 42.2998 148.5V148.5Z" fill="#F2AF49"/>
<path d="M42.4998 149.8C42.3998 149.8 42.3998 149.8 42.4998 149.8C42.3998 149.8 42.3998 149.9 42.4998 149.8Z" fill="#F2AF49"/>
<path d="M42.1001 147.5C42.0001 147.5 42.1001 147.6 42.1001 147.5V147.5Z" fill="#F2AF49"/>
<path d="M43 147.8C43.1 147.7 43.1 147.8 43 147.8V147.8Z" fill="#F2AF49"/>
<path d="M43.6001 147.4C43.5001 147.3 43.6001 147.3 43.6001 147.4V147.4Z" fill="#F2AF49"/>
<path d="M43.3999 149C43.3999 148.9 43.4999 148.9 43.3999 149V149Z" fill="#F2AF49"/>
<path d="M43.7 147.7C43.6 147.7 43.6 147.8 43.7 147.7C43.7 147.8 43.7 147.8 43.7 147.7Z" fill="#F2AF49"/>
<path d="M43.6001 148C43.6001 148.1 43.7001 148 43.6001 148V148Z" fill="#F2AF49"/>
<path d="M43.8999 150.1C43.8999 150 43.9999 150 43.8999 150.1V150.1Z" fill="#F2AF49"/>
<path d="M43.2998 149.1C43.1998 149.2 43.2998 149.2 43.2998 149.1V149.1Z" fill="#F2AF49"/>
<path d="M43.3997 147.8C43.2997 147.8 43.2997 147.9 43.3997 147.8V147.8Z" fill="#F2AF49"/>
<path d="M43.5 150C43.6 150 43.6 150.1 43.5 150V150Z" fill="#F2AF49"/>
<path d="M42.7996 150.9C42.6996 150.9 42.6996 151 42.7996 150.9V150.9Z" fill="#F2AF49"/>
<path d="M42.1995 149.1C42.0995 149 42.0995 149.1 42.1995 149.1V149.1Z" fill="#F2AF49"/>
<path d="M40.7998 149.2C40.7998 149.1 40.8998 149.2 40.7998 149.2V149.2Z" fill="#F2AF49"/>
<path d="M43.2998 150.9C43.2998 151 43.3998 150.9 43.2998 150.9V150.9Z" fill="#F2AF49"/>
<path d="M40.2998 150.9C40.1998 150.9 40.2998 151 40.2998 150.9V150.9Z" fill="#F2AF49"/>
<path d="M39.9995 149.9C40.0995 149.9 40.0995 150 39.9995 149.9V149.9Z" fill="#F2AF49"/>
<path d="M43.4995 149.4C43.3995 149.5 43.4995 149.5 43.4995 149.4V149.4Z" fill="#F2AF49"/>
<path d="M41.4995 149.7C41.5995 149.7 41.5995 149.8 41.4995 149.7V149.7Z" fill="#F2AF49"/>
<path d="M41.4998 150.8C41.3998 150.8 41.3998 150.9 41.4998 150.8V150.8Z" fill="#F2AF49"/>
</g>
</g>
<mask id="mask1_3501_301949" style="mask-type:luminance" maskUnits="userSpaceOnUse" x="38" y="146" width="7" height="6">
<path d="M41.6999 151.2C43.2463 151.2 44.4999 150.036 44.4999 148.6C44.4999 147.164 43.2463 146 41.6999 146C40.1535 146 38.8999 147.164 38.8999 148.6C38.8999 150.036 40.1535 151.2 41.6999 151.2Z" fill="white"/>
</mask>
<g mask="url(#mask1_3501_301949)">
<g opacity="0.52">
<path d="M41.4998 150.2C41.3998 150.2 41.3998 150.3 41.4998 150.2V150.2Z" fill="#F2AF49"/>
<path d="M41.6001 150.2C41.5001 150.2 41.6001 150.1 41.6001 150.2V150.2Z" fill="#F2AF49"/>
<path d="M41.6001 151C41.6001 151.1 41.7001 151 41.6001 151V151Z" fill="#F2AF49"/>
<path d="M40.9002 148.4C40.8002 148.3 40.8002 148.4 40.9002 148.4V148.4Z" fill="#F2AF49"/>
<path d="M39.5 148.5C39.6 148.4 39.6 148.5 39.5 148.5V148.5Z" fill="#F2AF49"/>
<path d="M41.2998 148.9C41.1998 148.8 41.2998 148.8 41.2998 148.9V148.9Z" fill="#F2AF49"/>
<path d="M41.1001 150.3C41.2001 150.3 41.2001 150.3 41.1001 150.3C41.2001 150.2 41.2001 150.3 41.1001 150.3Z" fill="#F2AF49"/>
<path d="M42.5 150.6C42.5 150.7 42.6 150.6 42.5 150.6V150.6Z" fill="#F2AF49"/>
<path d="M41.8999 150.7C41.9999 150.7 41.9999 150.8 41.8999 150.7V150.7Z" fill="#F2AF49"/>
<path d="M41.7998 150.2C41.7998 150.3 41.8998 150.2 41.7998 150.2V150.2Z" fill="#F2AF49"/>
<path d="M42.0999 150.2C41.9999 150.2 41.9999 150.3 42.0999 150.2V150.2Z" fill="#F2AF49"/>
<path d="M39.7998 150.2C39.6998 150.1 39.7998 150.1 39.7998 150.2V150.2Z" fill="#F2AF49"/>
<path d="M39.3999 151.1C39.4999 151 39.4999 151.1 39.3999 151.1V151.1Z" fill="#F2AF49"/>
<path d="M40.2998 151C40.3998 151 40.3998 151 40.2998 151C40.3998 150.9 40.3998 150.9 40.2998 151C40.2998 150.9 40.2998 150.9 40.2998 151Z" fill="#F2AF49"/>
<path d="M40.2002 149C40.3002 149 40.3002 149.1 40.2002 149V149Z" fill="#F2AF49"/>
<path d="M40.2998 149.7C40.2998 149.8 40.3998 149.7 40.2998 149.7V149.7Z" fill="#F2AF49"/>
<path d="M40.2002 150.1C40.1002 150.1 40.2002 150.2 40.2002 150.1V150.1Z" fill="#F2AF49"/>
<path d="M39.8999 149.3C39.7999 149.4 39.8999 149.4 39.8999 149.3V149.3Z" fill="#F2AF49"/>
<path d="M39.7998 150.8C39.6998 150.9 39.7998 150.9 39.7998 150.8V150.8Z" fill="#F2AF49"/>
</g>
</g>
<mask id="mask2_3501_301949" style="mask-type:luminance" maskUnits="userSpaceOnUse" x="38" y="146" width="7" height="6">
<path d="M41.6999 151.2C43.2463 151.2 44.4999 150.036 44.4999 148.6C44.4999 147.164 43.2463 146 41.6999 146C40.1535 146 38.8999 147.164 38.8999 148.6C38.8999 150.036 40.1535 151.2 41.6999 151.2Z" fill="white"/>
</mask>
<g mask="url(#mask2_3501_301949)">
<g opacity="0.52">
<path d="M44.4998 146.4C44.3998 146.4 44.3998 146.5 44.4998 146.4C44.3998 146.5 44.4998 146.5 44.4998 146.4Z" fill="#F2AF49"/>
<path d="M44.3999 147.4C44.4999 147.4 44.4999 147.5 44.3999 147.4V147.4Z" fill="#F2AF49"/>
<path d="M43.6001 146.1C43.5001 146.1 43.6001 146 43.6001 146.1V146.1Z" fill="#F2AF49"/>
<path d="M41.2998 146.8C41.1998 146.7 41.2998 146.7 41.2998 146.8V146.8Z" fill="#F2AF49"/>
<path d="M43.1001 147.6C43.2001 147.6 43.2001 147.7 43.1001 147.6V147.6Z" fill="#F2AF49"/>
<path d="M43.3997 147.3C43.2997 147.3 43.2997 147.4 43.3997 147.3V147.3Z" fill="#F2AF49"/>
<path d="M43.4998 148.3C43.4998 148.2 43.4998 148.2 43.4998 148.3C43.3998 148.2 43.3998 148.2 43.4998 148.3Z" fill="#F2AF49"/>
<path d="M42.7998 146.3C42.6998 146.2 42.7998 146.2 42.7998 146.3V146.3Z" fill="#F2AF49"/>
<path d="M44.2998 148.9C44.2998 148.8 44.3998 148.9 44.2998 148.9V148.9Z" fill="#F2AF49"/>
<path d="M44.1997 147.4C44.2997 147.4 44.2997 147.5 44.1997 147.4V147.4Z" fill="#F2AF49"/>
<path d="M44.1997 146.2C44.0997 146.1 44.1997 146.1 44.1997 146.2V146.2Z" fill="#F2AF49"/>
<path d="M44.4998 146.9C44.3998 146.9 44.3998 147 44.4998 146.9C44.4998 147 44.4998 147 44.4998 146.9Z" fill="#F2AF49"/>
<path d="M44.3999 148.5C44.3999 148.6 44.4999 148.6 44.3999 148.5V148.5Z" fill="#F2AF49"/>
<path d="M42.1997 147.6C42.2997 147.6 42.2997 147.7 42.1997 147.6V147.6Z" fill="#F2AF49"/>
<path d="M42.7998 147C42.6998 146.9 42.7998 146.9 42.7998 147V147Z" fill="#F2AF49"/>
<path d="M42.6997 148.7C42.6997 148.8 42.7997 148.7 42.6997 148.7V148.7Z" fill="#F2AF49"/>
<path d="M41.3997 147.7C41.2997 147.7 41.2997 147.8 41.3997 147.7V147.7Z" fill="#F2AF49"/>
<path d="M42.1995 147.1C42.0995 147 42.0995 147.1 42.1995 147.1V147.1Z" fill="#F2AF49"/>
<path d="M42.3997 148.5C42.2997 148.4 42.2997 148.5 42.3997 148.5V148.5Z" fill="#F2AF49"/>
<path d="M43.4995 148.8C43.4995 148.7 43.5995 148.8 43.4995 148.8V148.8Z" fill="#F2AF49"/>
<path d="M43.2998 148C43.2998 148.1 43.3998 148.1 43.2998 148V148Z" fill="#F2AF49"/>
<path d="M43.6995 148.8C43.5995 148.8 43.5995 148.9 43.6995 148.8V148.8Z" fill="#F2AF49"/>
<path d="M43.3999 147.5C43.4999 147.5 43.4999 147.6 43.3999 147.5V147.5Z" fill="#F2AF49"/>
<path d="M43.7998 149.1C43.7998 149.2 43.8998 149.1 43.7998 149.1V149.1Z" fill="#F2AF49"/>
<path d="M43.3999 149.1C43.4999 149.1 43.4999 149.2 43.3999 149.1V149.1Z" fill="#F2AF49"/>
</g>
</g>
<mask id="mask3_3501_301949" style="mask-type:luminance" maskUnits="userSpaceOnUse" x="38" y="146" width="7" height="6">
<path d="M41.6999 151.2C43.2463 151.2 44.4999 150.036 44.4999 148.6C44.4999 147.164 43.2463 146 41.6999 146C40.1535 146 38.8999 147.164 38.8999 148.6C38.8999 150.036 40.1535 151.2 41.6999 151.2Z" fill="white"/>
</mask>
<g mask="url(#mask3_3501_301949)">
<g opacity="0.52">
<path d="M44.2 147.4C44.1 147.3 44.1 147.4 44.2 147.4V147.4Z" fill="#F2AF49"/>
<path d="M42.5 149.8C42.5 149.7 42.6 149.7 42.5 149.8V149.8Z" fill="#F2AF49"/>
<path d="M42.8997 150.4C42.7997 150.4 42.7997 150.5 42.8997 150.4V150.4Z" fill="#F2AF49"/>
<path d="M41.7998 150.3C41.6998 150.4 41.7998 150.4 41.7998 150.3V150.3Z" fill="#F2AF49"/>
<path d="M42 148.2C42.1 148.2 42.1 148.3 42 148.2V148.2Z" fill="#F2AF49"/>
<path d="M42.6997 150.4C42.7997 150.4 42.7997 150.4 42.6997 150.4C42.6997 150.3 42.7997 150.3 42.6997 150.4Z" fill="#F2AF49"/>
<path d="M43.5996 150C43.6996 149.9 43.6996 149.9 43.5996 150V150Z" fill="#F2AF49"/>
<path d="M43.5 148C43.6 148 43.6 148.1 43.5 148V148Z" fill="#F2AF49"/>
<path d="M43.5 150.4C43.6 150.4 43.6 150.5 43.5 150.4C43.6 150.4 43.6 150.4 43.5 150.4Z" fill="#F2AF49"/>
<path d="M43.5999 151C43.4999 151 43.4999 151.1 43.5999 151V151Z" fill="#F2AF49"/>
<path d="M43.0996 150.5C43.1996 150.5 43.1996 150.6 43.0996 150.5V150.5Z" fill="#F2AF49"/>
<path d="M43.1997 148.4C43.0997 148.3 43.1997 148.3 43.1997 148.4V148.4Z" fill="#F2AF49"/>
<path d="M43.0996 149.8C42.9996 149.9 43.0996 149.9 43.0996 149.8V149.8Z" fill="#F2AF49"/>
<path d="M43 150.9C43.1 150.9 43.1 151 43 150.9V150.9Z" fill="#F2AF49"/>
<path d="M43.5 150.2C43.4 150.2 43.5 150.1 43.5 150.2V150.2Z" fill="#F2AF49"/>
<path d="M43.4998 150.7C43.3998 150.7 43.3998 150.8 43.4998 150.7V150.7Z" fill="#F2AF49"/>
<path d="M43.9998 149.3C43.8998 149.2 43.8998 149.3 43.9998 149.3V149.3Z" fill="#F2AF49"/>
<path d="M44.0996 150.8C43.9996 150.8 44.0996 150.9 44.0996 150.8V150.8Z" fill="#F2AF49"/>
<path d="M41.7998 150.8C41.7998 150.9 41.8998 150.8 41.7998 150.8V150.8Z" fill="#F2AF49"/>
<path d="M42.7998 150C42.6998 150 42.7998 149.9 42.7998 150V150Z" fill="#F2AF49"/>
<path d="M43.2998 150C43.3998 149.9 43.3998 150 43.2998 150V150Z" fill="#F2AF49"/>
<path d="M43.1995 150.9C43.0995 150.8 43.0995 150.9 43.1995 150.9V150.9Z" fill="#F2AF49"/>
<path d="M43.4995 150.8C43.3995 150.8 43.4995 150.7 43.4995 150.8V150.8Z" fill="#F2AF49"/>
<path d="M43.2998 151.1C43.1998 151.1 43.2998 151.2 43.2998 151.1V151.1Z" fill="#F2AF49"/>
<path d="M42.7998 150.5C42.6998 150.4 42.7998 150.4 42.7998 150.5V150.5Z" fill="#F2AF49"/>
<path d="M42.1997 150.8C42.1997 150.9 42.2997 150.8 42.1997 150.8V150.8Z" fill="#F2AF49"/>
<path d="M42.1997 151C42.1997 151.1 42.2997 151 42.1997 151V151Z" fill="#F2AF49"/>
<path d="M41.7996 150.8C41.6996 150.8 41.6996 150.9 41.7996 150.8C41.7996 150.9 41.7996 150.9 41.7996 150.8Z" fill="#F2AF49"/>
<path d="M41.5996 149.2C41.6996 149.1 41.6996 149.2 41.5996 149.2V149.2Z" fill="#F2AF49"/>
<path d="M41.6995 150.3C41.5995 150.2 41.6995 150.2 41.6995 150.3C41.5995 150.3 41.5995 150.3 41.6995 150.3Z" fill="#F2AF49"/>
<path d="M43.4998 150.7C43.3998 150.7 43.3998 150.8 43.4998 150.7V150.7Z" fill="#F2AF49"/>
<path d="M39.7996 151C39.6996 151 39.6996 151.1 39.7996 151V151Z" fill="#F2AF49"/>
<path d="M40.8999 149.6C40.7999 149.5 40.8999 149.5 40.8999 149.6V149.6Z" fill="#F2AF49"/>
</g>
</g>
<path d="M40.9 150C41.6732 150 42.3 149.373 42.3 148.6C42.3 147.827 41.6732 147.2 40.9 147.2C40.1268 147.2 39.5 147.827 39.5 148.6C39.5 149.373 40.1268 150 40.9 150Z" fill="url(#paint11_linear_3501_301949)"/>
<path d="M40.1998 148.8C40.4207 148.8 40.5998 148.621 40.5998 148.4C40.5998 148.179 40.4207 148 40.1998 148C39.9789 148 39.7998 148.179 39.7998 148.4C39.7998 148.621 39.9789 148.8 40.1998 148.8Z" fill="white"/>
<path d="M26.6 1.00003C28.5 1.10003 29.9 1.10003 30.6 1.00003C31.4 0.900029 32 1.20003 32.7 1.80003C33.3 2.40003 34.3 3.20003 35.6 4.30003C36.4 5.20003 36.9 5.80003 37.1 6.20003C37.4 6.50003 37.5 7.10003 37.5 7.80003C37.5 8.50003 37.8 9.80003 38.4 11.7C39 13.6 39.3 16.1 39.4 19.2C39.5 22.3 39.5 26.2 39.4 30.8C39.3 35.5 38.9 39.9 38 44C37.2 48.1 36.9 50.6 37.2 51.6C37.5 52.6 38.1 53.7 39 55.1C39.9 56.5 41 58 42.4 59.5C43.8 61.1 45.6 62.9 47.8 64.8C50 66.8 51.3 68.2 51.8 69.1C52.3 70 52.9 71.1 53.9 72.5L53.4 73L53.9 74.4C53.6 74.1 53.3 73.9 53.1 73.9L54.2 76.3L55 76.8V77.9L53.1 78.3L53.4 79.1H51.4C51.8 79.8 51.8 80.4 51.4 80.9L53.7 82.2H53.3C53.2 82.2 52.9 82.1 52.4 81.8C51.9 81.5 51.6 81.4 51.4 81.4C51.2 81.4 50.9 81.3 50.3 81.1L50 81.6L51.6 82.9L49 82.5V83.3H47.5L47.2 83.8L48.3 85.1L48 85.3C43.8 83.5 40.1 81.1 36.9 78.2C33.8 75.3 31.1 72 28.9 68.4C25.1 75.4 20.3 81.5 14.6 86.7C10.5 90 6.00001 92.6 1.20001 94.7C0.600009 93.3 1.00001 92.1 2.30001 91.1L1.70001 91L1.00001 91.1V77.8C4.60001 75.5 7.90001 72.6 10.9 69.3C11.5 68.5 11.9 67.9 12.2 67.5C12.5 67.2 12.6 66.7 12.7 66C12.8 65.3 13.3 64.5 14.1 63.6C15 62.6 15.7 61.8 16.2 61C16.7 60.2 17.1 59.6 17.1 59.1C17.2 58.6 17.5 58 18 57.3C18.5 56.6 19.1 55.7 19.9 54.4C20.7 53.1 21.2 52 21.6 51C22 50 22.2 49 22.3 47.9C22.4 46.8 22.7 45.7 23.1 44.5C23.6 43.3 23.8 42.4 23.8 41.7C23.8 41 23.9 40.3 24.1 39.4C24.3 38.5 24.5 36.7 24.5 34C24.6 31.2 24.6 28.3 24.5 25.3C24.4 22.3 24.1 19 23.5 15.6C22.9 12.2 22.5 10.2 22.2 9.60003C21.9 9.00003 21.6 8.30003 21.2 7.60003L18.7 5.50003C19.5 5.50003 20.2 5.30003 21 4.90003V3.60003L22.6 2.50003V1.80003C23 1.70003 23.3 1.60003 23.5 1.50003C23.7 1.40003 24 1.30003 24.4 1.30003C24.9 1.30003 25.6 1.20003 26.6 1.00003ZM48.2 110.1L47.3 110.9L48 111C46.7 111.8 45.3 112.3 44 112.5L45.1 111.7L44.8 111.4C38.6 113.6 32.2 115.3 25.6 116.5V116.1L24.7 115.9C25.3 115.8 25.7 115.7 25.9 115.6C26.1 115.5 26.4 115.4 26.9 115.5C27.4 115.5 27.7 115.5 28 115.4C28.3 115.3 28.5 115.1 28.7 114.9L27.8 114.6L28.4 114.5V114.1C29 114.2 29.5 114.1 30 113.7C29.8 114.1 29.8 114.5 30 114.8C30.4 114.5 30.8 114.4 31.2 114.2C31.6 114.1 32 114 32.5 114C33 114 33.4 113.9 33.8 113.8C34.2 113.6 34.9 113.4 36.1 113.2V112.7H35.3C35.5 112.6 35.8 112.5 36.2 112.2C36.7 112 37.1 111.8 37.3 111.9C37.5 111.9 37.8 111.9 38.1 111.7C38.4 111.5 38.7 111.4 39 111.4C39.3 111.4 39.5 111.4 39.7 111.4C39.9 111.4 40.2 111.3 40.8 111.1L41.1 111.5C42.4 111.9 43.8 111.7 45.1 110.7H44L46.3 109.7L46 109.3L47.4 108.7C47.8 109 48.4 109.1 49 108.8C48.7 109 48.7 109.3 48.9 109.4L50.7 108.6C50.7 108.3 50.5 107.9 50.2 107.6L50.5 107.5L51 108L54 106.5L53.7 106.1L58.6 103.7C58.3 103.9 58.3 104.1 58.6 104.3L60.2 103.3V102.8C62.4 101.5 64.7 100.4 67.2 99.4L67.7 98.5L67.4 98.3C66.1 98.9 65 99.4 64.1 99.9C63.3 100.4 62.2 101 60.8 101.8C59.4 102.6 58 103.3 56.6 103.9C55.2 104.5 54.1 105 53.2 105.4C52.4 105.8 51.6 106 50.8 106L50.2 106.9L48.3 107.4L47.8 108.2C47.5 108.3 47.2 108.3 46.9 108.3C46.5 108.3 45.3 108.6 43.3 109.4C41.3 110.2 38.8 110.9 36 111.7C33.2 112.5 31.1 113 29.7 113.3C28.7 113.5 27.6 113.8 26.4 114.1C26.7 114 26.9 113.9 27 113.7L26.6 113.6L25 114.1C25.5 114.3 26 114.3 26.4 114.1C25.8 114.3 25.2 114.4 24.6 114.6V114.1C24.3 114.1 24.1 114.1 23.9 114C23.7 114 23.4 114.1 22.9 114.4C22.4 114.7 21.6 114.9 20.4 115C19.2 115.1 17.5 115.3 15.2 115.5C15.8 115.4 16.4 115.2 17.1 114.7C15.8 114.9 14.7 115 13.7 114.8L13.2 115.4L11.8 115.5L11.5 115.7C10 115.7 8.90001 115.7 8.10001 115.6C7.30001 115.6 6.90001 115.6 6.80001 115.7C6.70001 115.8 6.50001 116 6.00001 116.1C5.80001 115.9 5.70001 115.8 5.50001 115.7C5.30001 115.6 4.90001 115.6 4.20001 115.6C3.50001 115.6 2.50001 115.7 1.20001 115.7V115.2L1.70001 115.1C2.00001 115.2 2.20001 115.2 2.50001 115.3C2.80001 115.3 3.50001 115.3 4.90001 115.2L10.9 114.8L11.2 114.4L10.6 114.3L14.2 113.7V113.5L1.00001 114V111C3.10001 111.3 5.10001 111.1 7.00001 110.6C6.80001 110.4 6.60001 110.3 6.40001 110.1C6.20001 109.9 5.80001 109.9 5.20001 110C4.60001 110.1 3.80001 110.1 2.70001 110V110.4H1.40001L1.00001 108.7L6.80001 108.5L7.10001 108.2C6.30001 108.2 5.80001 108.2 5.40001 108.1C5.00001 108.1 4.70001 108 4.50001 107.9C4.30001 107.8 4.00001 107.7 3.60001 107.7C3.20001 107.7 2.90001 107.8 2.60001 107.9C2.30001 108 1.90001 108.1 1.40001 108.2L1.00001 107.4C5.20001 107.6 9.30001 107.2 13.4 106.3L13.1 106C9.20001 106.6 5.20001 106.8 1.30001 106.6L1.00001 106.2L2.80001 106.1V105.7L1.40001 105.6L1.00001 99.6C4.60001 99.3 7.10001 99.3 8.50001 99.3C9.90001 99.4 11.1 99.2 12 98.7C12.9 98.2 13.9 98.1 15.1 98.3C16.2 98.5 17.1 98.4 17.8 97.8C18.5 97.2 19.2 96.9 20.1 97C20.9 97 21.8 97 22.6 96.8C23.4 96.6 24.4 96.5 25.4 96.4C26.4 96.4 27.9 96.1 30 95.6C32.1 95.1 34.8 94.4 38.1 93.5C41.4 92.5 44.4 91.5 46.9 90.5C49.4 89.5 51.7 88.3 53.8 87.1C55.9 85.9 57.8 84.6 59.4 83.3C61.1 82 62.4 80.9 63.5 80C64.5 79.1 66.2 77.6 68.4 75.6C69.9 73.7 71 72.3 71.7 71.5C72.4 70.7 73.1 69.4 74 67.6C74.9 65.8 75.7 63.7 76.4 61.3C77.2 59 77.8 56.5 78.3 54C78.8 51.5 79.1 48.8 79.1 46.1C79.1 43.4 79 40.9 78.8 38.8C78.6 36.6 78.4 35 78.2 34C78 33 77.7 31.5 77.3 29.4L76.7 29L77.3 28.5C76.4 28.5 75.7 28.5 75.2 28.4C74.7 28.4 74 28.5 73 29C72 29.4 70.2 29.8 67.6 30.1C64.9 30.4 63.4 30.5 63.2 30.3C62.9 30.1 62.5 29.9 62 29.5C61.7 28.7 61.5 28 61.4 27.6C61.3 27.1 61.3 26.5 61.3 25.5C61.3 24.6 61.4 23.7 61.7 22.8C62 21.9 62.1 21 62.1 20C62.1 19 62 18.4 61.7 18.1C61.4 17.8 61 17.3 60.4 16.7C60.6 16.3 60.7 15.9 60.8 15.6C60.9 15.3 61 15 61.1 14.5C61.2 14.1 61.4 13.7 61.9 13.3C62.3 12.9 62.7 12.5 63 12.2C63.3 11.8 63.8 11.3 64.6 10.6H65.7L66 9.50003C66.4 9.50003 66.9 9.40003 67.3 9.30003C67.8 9.20003 68.9 9.20003 70.8 9.50003C72.7 9.80003 75 9.80003 77.8 9.60003C80.6 9.40003 85.1 9.40003 91.2 9.40003C97.3 9.40003 100.8 9.40003 101.7 9.30003C102.6 9.20003 103.4 9.00003 104.1 8.70003H104.4L104 9.40003L104.8 9.70003L104 10L104.8 10.9C106.7 11.6 108.7 11.7 110.8 11.4L111.1 28.4C105.7 28.4 100.2 28.3 94.8 28C94.8 28.1 95.1 30.1 95.7 34.1C96.3 38.1 96.6 41.7 96.6 44.9C96.6 48.1 96.5 51.1 96.3 53.9C96.1 56.7 95.7 59.4 95.2 62C94.7 64.6 94 67.1 93.3 69.6C92.5 72.1 91.6 74.5 90.4 76.8C89.2 79.1 88.1 81.3 87 83.2C85.9 85.1 85 86.5 84.2 87.3C83.4 88.1 82.3 89.6 80.8 91.6C79.1 93.4 77.9 94.6 77 95.5C76.1 96.3 75.4 96.8 74.8 96.8C74.2 96.8 73.8 97 73.5 97.6C73.2 98.1 72.4 98.9 71.1 99.9L70.8 100.9C70 100.8 69.5 100.9 69 101.3L69.9 101.7L69.6 101.9L68.5 101.5L69.3 100.6V100.2L62 104.5L62.5 104.8C62.2 105.4 61.9 105.8 61.7 106.1C60.4 107 59.2 107.6 58.1 107.9L57.8 108.4L57.5 108.2C57.1 108.5 56.7 108.7 56.4 108.6L58 107.6L57.1 107.1L56.6 107.9C55.4 108.1 54.4 108.7 53.5 109.5L53.2 109.1C53.4 109.9 53.2 110.4 52.8 110.9V109.5C51.5 109.8 50.5 110.3 49.8 111.1V110.7C49.8 110.6 50 110.4 50.4 110.1C50.8 109.8 51 109.6 51 109.5V109.4L49.1 110L48.8 110.5L48 111L48.5 110.2L48.2 110.1ZM6.10001 19.4C7.00001 19.6 8.10001 19.7 9.50001 19.8L10.1 20.7C11 21.5 12.1 22 13.4 22.1C13.4 22.4 13.7 22.7 14.2 23.2C14.7 23.7 15.2 24.3 15.6 25.1C16 25.9 16.3 27.3 16.5 29.3C16.7 31.3 16.8 34.5 16.8 38.8V49.2C16.8 51.8 16.6 53.6 16.2 54.5C15.8 55.5 15.6 56.2 15.5 56.7C15.4 57.2 15.2 58.1 15 59.3L14.2 59.4L12.7 60.9V60.4H12.4L12.1 61.5C11.8 60.7 11.4 60.1 11.1 59.5L10.2 62.5V61.5C10.2 61.3 10.2 60.9 10.3 60.3C10.4 59.7 10.4 58.9 10.4 58.1L8.10001 57.5C7.90001 57.7 7.80001 58 7.70001 58.6C7.60001 59.2 7.50001 59.7 7.30001 60C7.10001 60.4 6.80001 61 6.50001 61.8C6.20001 61.6 6.20001 61.4 6.30001 61.2C6.40001 61 6.60001 60.6 6.70001 60.1C6.90001 59.6 7.00001 58.9 7.00001 58.2L6.10001 58.1L5.60001 59.4L5.00001 59.2L4.50001 59.4L4.10001 58.6C3.30001 58.3 2.60001 58.3 1.80001 58.8L1.00001 58.3V20.2C2.80001 20.3 4.50001 20 6.10001 19.4ZM5.30001 89.8L4.40001 90.6H5.30001L5.60001 90L5.30001 89.8ZM7.30001 87.4L5.30001 88.8L5.70001 89C6.50001 88.8 7.10001 88.2 7.60001 87.5L7.30001 87.4ZM25.2 102.5C24.9 102.7 22.6 103.1 18.4 103.7C14.2 104.3 11.9 104.7 11.7 104.8L10.9 105L10.4 104.8L9.00001 105.6L9.30001 105.8C14.6 105 19.9 104.1 25.2 102.9L25.7 102.5H25.2ZM11.5 107.6L9.30001 108L9.60001 108.4C10.5 108.5 11.3 108.3 11.9 107.8L11.5 107.6ZM25.9 98.6L25.8 98.5C25.7 98.4 25 98.5 23.6 98.8C22.2 99.1 20.3 99.6 17.9 100.2L17.3 100.5L17 100.2C15.7 100.2 14.5 100.6 13.6 101.5H15C15.4 101.5 15.8 101.4 16.1 101.2C16.4 101 16.8 100.9 17.4 100.9C17.9 100.9 18.8 100.8 20.1 100.3C21.4 99.9 22.6 99.5 24 99.2C25.3 99 25.9 98.8 25.9 98.6ZM17.3 105.2C16 105.4 14.8 105.6 13.7 106L14 106.5C15.2 106.3 16.3 106 17.4 105.5V105.2H17.3ZM19.3 116.9L16.5 118.2C16.1 117.9 15.5 117.7 14.7 117.8L17.2 116.9H19.3ZM23.8 112.4C22.1 112.6 20.9 112.7 20 112.7C19.2 112.7 18.6 112.7 18.4 112.8C18.2 112.9 17.9 113 17.6 113.3C17.8 113.4 17.9 113.4 18.1 113.4C18.3 113.4 18.7 113.3 19.5 113.1C20.3 112.9 20.9 112.9 21.4 113.1C21.9 113.3 22.2 113.3 22.5 113.1C22.8 112.9 23.2 112.7 23.7 112.5V112.4H23.8ZM21.9 113.6L18.1 113.8V114.2H21.5L22.1 113.7L21.9 113.6ZM43.5 103.6C43.2 103.6 43.1 103.6 43.1 103.5C43.1 103.4 42.3 103.6 40.7 104.1C39.1 104.6 38 104.9 37.4 105C36.8 105.1 36.4 105.3 36.3 105.5C36.2 105.7 36 105.9 35.5 106.1L35.2 105.7C34.9 105.8 34.4 105.9 33.7 106.2C33 106.4 32.3 106.6 31.4 106.8C30.5 106.9 29.8 107.1 29.1 107.4C28.5 107.7 27 108.1 24.7 108.7C22.4 109.2 20.9 109.5 20.3 109.5L21 109L20.7 108.7C20.3 108.9 19.9 109 19.5 109C19.1 109 18.9 109.1 18.8 109.2C18.7 109.4 18.5 109.5 18.3 109.6L18.9 109.9C18.7 110.1 18.6 110.2 18.6 110.4C23.8 110.1 28.9 109 34 107.3L34.3 106.7L34.7 106.9C36 106.4 36.8 106.1 37.4 105.9C37.9 105.7 38.5 105.6 39.2 105.6C39.9 105.6 40.5 105.4 41 105.1C41.5 104.8 42 104.6 42.3 104.4C42.7 104.2 43 103.9 43.5 103.6ZM21.9 104.1L21.3 104.7C21.9 104.8 22.5 104.7 23.1 104.3L21.9 104.1ZM24.8 111.7L24.4 112.5C25.1 112.6 25.9 112.5 26.8 112.4L27.2 111.8H24.8V111.7ZM26.6 112.7L25.2 113.2L24.8 113.4C25.4 113.6 26 113.4 26.6 112.8V112.7ZM28.6 106.9L26 107.7V108.1C27 108.2 28 107.8 28.9 107.1L28.6 106.9ZM32.8 111.7L32.4 112.1H33.9L34.2 111.7H32.8ZM42 109.2L38.9 110.2V110.5C40.1 110.4 41.1 110 42 109.4V109.2ZM40.6 111.4L39.2 111.8V112.4H40.3L40.8 111.5L40.6 111.4ZM52.6 15.8C53 15.8 53.3 15.8 53.5 15.7C53.7 15.6 54 15.8 54.6 16.3C55.2 16.8 56.1 17.5 57.5 18.5L58.3 20.8H57.5V28.7C57.5 30.4 57.4 33 57.1 36.7C56.8 40.4 56.5 42.5 56.1 43C55.7 43.5 55.2 44.7 54.4 46.6L53.5 46L52.4 46.5C52.2 48.3 52 49.9 51.8 51.4C51.5 49.6 51.5 47.7 51.8 45.8C51.3 46.1 50.9 46.3 50.6 46.4C50.3 46.4 50 46.7 49.8 47C49.5 47.4 49.2 47.6 48.9 47.6C48.5 47.6 48 47.7 47.5 47.8L46.6 48.3L44.3 48.8L44 47.9L41.1 48.4L42.4 47.6L43.5 46.5C43.5 45.7 43.4 45 43.3 44.6C43.2 44.2 43.1 43.3 43.1 42.1C43.1 40.8 43.2 39.7 43.4 38.6C43.6 37.5 43.7 36.5 43.6 35.5C43.5 34.5 43.6 33.2 43.7 31.5C43.9 29.8 44.2 28 44.8 26.1C45.4 24.1 45.7 22.9 45.7 22.3V20L44.2 19.2L48 17.2L49.4 16.2L50.7 16.6L51.3 16.2L51.8 16.4L52.6 15.8ZM44.2 108.5C43.7 108.5 43.2 108.7 42.6 109C43.2 109.2 43.7 109.1 44.2 108.5ZM47.1 102.4C46.9 102.4 46.7 102.4 46.5 102.3C46.3 102.2 46 102.3 45.7 102.5C45.4 102.7 44.9 102.9 44.1 103.1C44.9 103.7 45.6 103.7 46.4 103.1L47.1 102.4ZM48.2 109.6C47 109.9 46 110.4 45.1 110.9C45.1 111 45.2 111 45.4 111C45.6 111 45.9 110.9 46.4 110.6C46.9 110.4 47.5 110.1 48.2 109.8V109.6ZM49.4 106.7C49.2 106.7 49.1 106.7 49 106.6C48.9 106.5 48.6 106.6 48 106.8C47.4 107.1 46.5 107.5 45.4 108.1V108.3C46.7 108.2 48 107.7 49.4 106.7ZM49.4 104.5L48.3 104.9V105.3L49.7 104.7L49.4 104.5ZM49.4 108.9L49 109C49.1 109 49.2 108.9 49.4 108.9ZM57.1 105.5L54 106.9V107.4L55.5 106.8L51.7 108.8L52.1 109.3L56 107.3V106.7L57.5 105.7L57.1 105.5ZM58.2 105.6L56.6 106.2V106.7L58.2 105.8V105.6ZM58.6 106.2L57.7 106.7L58 107L58.9 106.5L58.6 106.2ZM60.9 103.5L58 105V105.5C59.2 105 60.2 104.4 61.1 103.6L60.9 103.5ZM60.9 105.2L59.8 105.7L58.9 106.8L59.2 107.2L60.1 106.2H60.6L61.2 105.4L60.9 105.2ZM63.5 101.9L61.6 103L61.9 103.5L63.9 102L63.5 101.9ZM70.6 99.1L69.7 99.9L70 100.2L70.9 99.3L70.6 99.1ZM71.8 95.1L70.9 95.9V96.3L71.8 96.1L72.1 95.3L71.8 95.1ZM73.8 96.5L72.3 97.6L72.7 98L73.8 96.6V96.5Z" fill="white"/>
<path d="M139.4 98.8L140.2 99.4C139.9 99.5 139.6 99.6 139.2 99.6C138.8 99.8 138.5 99.8 138.3 99.6C138.1 99.4 137.9 99.4 137.6 99.4C137.3 99.4 136.6 99.5 135.3 99.6C134 99.8 133.2 99.8 132.8 99.7C132.4 99.6 132.1 99.4 131.7 99.3L131.6 99.7C121 100 115.6 100.3 115.6 100.5C115.5 100.7 115.3 100.8 115.1 101C115.1 103.8 115.1 105.8 115 107C115 108.1 114.9 108.8 114.7 109.1C114.6 109.4 114.5 109.6 114.4 109.9L114.1 109.1H113.1L112.8 109.7H112.3L111.3 111.7L110.9 111.2C110.3 111.2 109.9 111.2 109.6 111.1C109.3 111 109.2 111 109 111.1C108.9 111.2 108.7 111.3 108.6 111.4L108.5 112.2C107.4 112.2 106.6 112.2 106.2 112.1C105.7 112 105.3 111.9 104.9 111.7C104.5 111.5 104.1 111.4 103.8 111.4C103.5 111.4 103.1 111.5 102.6 111.7C102.4 110.4 102.3 109.5 102.3 108.8C102.3 108.1 102.3 106.9 102.2 105.3C102.1 103.7 101.9 102.6 101.7 102.1C99.2998 102.6 97.3998 102.9 95.9998 103.1C94.5998 103.3 92.7998 103.6 90.5998 104.2C88.3998 104.7 87.1998 105.1 87.1998 105.3C87.0998 105.5 86.8998 105.7 86.6998 105.7L87.0998 105.8L86.1998 106.2L86.6998 105.7C86.0998 105.7 85.5998 105.7 85.1998 105.6C84.7998 105.6 84.2998 105.8 83.7998 106.2C83.2998 106.7 82.8998 106.9 82.4998 107C82.0998 107.1 81.3998 107.2 80.3998 107.5L80.2998 93.3C81.9998 92.9 83.2998 92.6 84.2998 92.4C85.2998 92.2 86.3998 91.9 87.6998 91.5C88.9998 91.1 90.6998 90.8 92.7998 90.4C94.8998 90.1 96.8998 89.8 98.7998 89.6C100.7 89.4 101.7 89.2 102 89L102.5 84.2L103.5 83.9L104.1 83.3C105 82.6 106 82.3 107.1 82.2V80.7L108.5 80.2C109.1 79.7 109.3 79.1 109.1 78.3H110.1L111.9 80.2L113.7 80.8C114 81.2 114.1 81.6 114.1 81.9C114.1 82.2 114 83 113.8 84.4C113.6 85.8 113.5 86.7 113.5 87.1C113.5 87.5 113.5 87.9 113.6 88.1L114 88L114.1 88.1C133.5 88.3 143.2 88.3 143.3 88.2L143.6 87.9C143.8 86.8 144.1 85.4 144.6 83.5C145.1 81.7 145.4 80.6 145.5 80.4C145.6 80.2 145.8 80 146.1 79.7L145.3 78.9L145.6 78.5L145.7 79.1L147.1 79.2L147.4 79.6C148 79.8 148.4 79.9 148.8 79.9C149.1 79.9 149.6 79.9 150.1 79.7C150.6 79.5 151.3 79.4 152 79.3C152.7 79.3 153.4 79.2 154 79C154.6 78.8 155.1 78.8 155.3 78.8C155.6 78.8 155.8 78.9 156.1 79.1L157 81.2H157.8C157.9 81.7 157.8 82.2 157.7 82.6C157.5 83.1 157.4 83.7 157.3 84.4C157.2 85.2 157.1 85.8 157 86.4C156.9 87 156.9 87.6 157.2 88.3C157.7 88.5 158.1 88.6 158.5 88.6C158.8 88.6 159.8 88.7 161.3 88.7C162.8 88.7 165.3 88.8 168.6 89.1C171.9 89.4 173.7 89.5 174 89.6C174.3 89.7 174.6 89.8 174.9 89.9C174.3 89.9 173.9 90.1 173.6 90.4L175.9 90.5L176.5 90L187.4 91.3L187.1 92.2L186 93L187.4 94L186.6 94.5L188.1 95.1L188.2 99L186.9 99.1V99.6L188.2 99.9L187.7 100.7L186.6 100.3L186.3 100.7L186.2 100.3L184.6 100L184.3 100.3H182.3C182.7 100.5 183.1 100.7 183.4 100.8C183.7 100.9 184.2 100.9 184.8 100.8C185.4 100.7 185.9 100.7 186.3 100.8C186.7 100.9 186.9 101 187.1 101.1C187.2 101.2 187.5 101.3 188 101.4L188.1 102.7H186.2L185.9 103.1C186.5 103.3 187.2 103.5 187.9 103.7L184.4 103.1L185.7 103L184.4 101.6C175.2 100.8 166 100 156.7 99.3C157 99.5 157.3 99.6 157.5 99.7C157.7 99.8 158.2 99.9 159.1 99.9C160 99.9 160.6 100 161 100.1C161.4 100.2 161.8 100.4 162.3 100.5H159.7C159.1 100.5 158.6 100.4 158.1 100.3C157.6 100.2 157.2 100.2 157 100.3C156.7 100.4 156.4 100.6 156 100.9C155.3 104.6 154.4 108.1 153.2 111.5C153.1 110.9 153 110.3 152.8 109.6L152.3 110.6H152L150.4 113L150.8 114.1C153.9 113.9 156.1 113.7 157.6 113.5C159 113.3 160 113.3 160.4 113.5C160.9 113.7 161.3 113.8 161.6 113.9C161.9 113.9 162.3 114.1 162.7 114.3C163.1 114.5 163.6 114.6 164 114.7C164.5 114.7 165 114.6 165.6 114.4C166.2 114.2 166.9 114 167.7 114C168.5 114 169.5 114 170.9 114.3C172.3 114.5 173.3 114.7 174 114.9C174.7 115.1 175.7 115.4 177.1 115.8C178.3 117.8 179.1 119.8 179.6 121.8L179 122.3L180 123.4L180.5 124.3L179.4 123.4L177.8 124L176.3 125.3C175.6 125.5 175 125.7 174.4 125.9L176.7 127.2C176.6 127.1 176.4 127 176.1 127C175.7 126.8 175.4 126.8 175.3 127C175.2 127.2 175 127.3 174.9 127.4C174.6 127.3 174.5 127.2 174.4 127C174.3 126.8 174.1 126.7 173.8 126.7C173.5 126.7 173 126.9 172.4 127.3C171.8 127.8 171.1 128 170.5 128C169.8 128 169 128.3 168.1 128.8C167.2 129.3 166.5 129.5 166 129.3C165.5 129.1 164.9 128.9 164.3 128.9C163.7 128.8 162.4 129.2 160.5 130.1C158.6 131 156.3 131.8 153.7 132.7C151.1 133.5 148.8 134.5 146.8 135.5C144.8 136.5 142.6 137.6 140.1 138.8C137.6 140 135.7 140.6 134.3 140.8C132.9 141 131.4 141.4 129.7 142.1C128 142.8 125.3 144.1 121.4 146.1C117.5 148.1 114.5 149.7 112.4 151C110.3 152.3 107.5 154.3 103.9 156.8L103 158.1C102.2 158.4 101.7 158.7 101.5 159.1H102.1C102.4 159.1 104.2 157.9 107.3 155.5C110.4 153.1 113.2 151.2 115.8 149.9C118.3 148.6 119.8 147.9 120.2 147.8C120.6 147.7 121.1 147.6 121.7 147.4C114.7 151.1 108.1 155.4 101.9 160.4C101.6 161.2 101.4 161.6 101.1 161.8C100.8 162 100.7 162.3 100.5 162.7C100.4 163.1 100.4 163.5 100.5 163.7C100.6 164 100.8 164.2 101.1 164.6C103 165.9 104.5 166.7 105.5 167C106.5 167.3 107.5 167.8 108.6 168.4C109.6 168.9 111.6 169.4 114.4 169.8C117.2 170.2 119.4 170.4 120.9 170.5C120.2 170.7 119.6 170.7 118.9 170.7C118.2 170.7 116.6 170.5 114 170.2C111.4 169.9 109.8 169.6 109.2 169.4V169.8C110.2 170.1 111.1 170.5 112 170.9C112.9 171.3 114.6 171.6 117.2 171.9C119.8 172.2 122.4 172.3 125.1 172.2C127.8 172.1 129.8 172.1 131.3 172.3C132.8 172.4 133.8 172.7 134.5 173C135.2 173.3 135.9 173.5 136.6 173.6C137.3 173.6 137.8 173.4 138.1 172.8C138.4 172.3 139.1 172 140.2 172C141.3 172 142.3 172 143.3 172.1C144.3 172.1 144.9 172.3 145.3 172.7C145.7 173 146.2 173.3 146.9 173.4C147.6 173.5 149.1 173.4 151.4 173C153.7 172.6 156.7 172.2 160.4 171.9C164.1 171.5 166.5 171.1 167.5 170.6C168.6 170.1 170 169.8 171.8 169.7C173.6 169.6 175 169.3 176.1 168.9C177.2 168.5 178.1 168.2 178.9 168.1C179.7 168 180.8 167.8 182.2 167.6C183.7 167.4 185.7 166.9 188.4 166L188.5 184.3L187.5 182.9L187.8 182.3C187.5 182.3 187.3 182.2 187.2 182.1C187 182 186.1 182.2 184.3 182.7C182.5 183.2 181 183.5 179.6 183.7C178.2 183.9 177.3 184 176.9 184.2C176.5 184.4 175.9 184.7 175.3 185.1L175.7 185.6L176.5 185.3L177.5 185.7L177.8 185.4L178.9 185.7L179.8 185.3L180.3 185.7L180.9 185.4L179.9 184.8H181.2L180.9 185.7C180.5 185.9 180.2 186.1 180 186.1C179.8 186.1 179 186.2 177.6 186.3C176.2 186.4 175.2 186.4 174.6 186.3V187.1L168.5 187.2L168.2 186.7L169 186.3L168.6 185.4C165.7 186.2 162.8 186.7 160.1 186.9L160.5 187.4L161.3 188L161.8 187.4L163.8 188.7L163.4 188.8L162 187.8L161 188.7L160.1 188.5L159.7 188.7L159.2 189.2C158.6 189 158 188.7 157.3 188.4V188.9C156 188.8 154.8 188.9 153.9 189C153 189.2 152.1 189.2 151.2 189.2C150.3 189.2 149.5 189.2 148.7 189.3C147.9 189.4 147.3 189.4 146.8 189.4C146.3 189.4 146 189.4 145.8 189.3L145.3 189.2L145.7 188.3C145.2 188.3 144.8 188.3 144.6 188.2C144.3 188.1 144.2 188.1 144 188.3C143.9 188.4 143.7 188.5 143.4 188.6C143.1 188.6 142.7 188.7 142 188.7V189.1L143.3 189.3V189.9C140.3 190.2 137.5 190.4 134.8 190.3C134.5 189.9 134.4 189.4 134.5 188.8L134.9 189.3C135.5 189.5 135.9 189.5 136.2 189.5C136.5 189.5 136.8 189.5 137.2 189.6C137.6 189.7 137.9 189.7 138.2 189.6C138.5 189.5 138.8 189.5 139.1 189.5C139.4 189.5 139.9 189.5 140.4 189.4V188.8C137.4 188.6 134.4 188.3 131.5 188.2C131.5 188.5 131.4 188.8 131.1 189L132.4 189.8C131.6 190.2 131 190.1 130.4 189.6L130.9 188.6C130 188.3 129.1 188.2 128.3 188.3L128.6 188.7C126.5 188 124.4 187.7 122.3 187.7V188.3C123.6 188.6 124.6 188.7 125.1 188.8C125.6 188.9 126.2 188.9 126.7 188.9C127.2 188.9 127.6 188.9 127.9 189C128.2 189.1 128.5 189.3 128.9 189.6C128.7 189.6 127.2 189.4 124.5 189.1C121.7 188.8 119.5 188.4 118 188.1C116.5 187.8 115.3 187.5 114.6 187.2C113.8 186.9 113.2 186.9 112.7 187.1C112.2 187.3 111.5 187.2 110.6 186.9C109.8 186.5 108.9 186.3 108 186.1C107.1 185.9 106.3 185.7 105.6 185.4C104.8 185.1 103.8 184.6 102.3 184L101.8 183.2L101.4 183.6C99.5998 183.2 98.0998 182.4 96.5998 181.3L97.1998 181L97.2998 180.5L95.7998 179.4L95.1998 179.6L96.4998 180.2V180.6L94.5998 179.7L94.1998 179.9C93.9998 179.8 93.8998 179.7 93.7998 179.6C93.6998 179.5 93.3998 179.4 93.0998 179.3C92.7998 179.3 92.1998 179.2 91.4998 179L90.3998 177.7L87.5998 174.9C86.1998 172.2 84.6998 169.6 83.0998 166.9C83.3998 166.3 83.6998 165.8 83.9998 165.3C84.2998 164.8 84.3998 164.1 84.2998 163C84.1998 162 84.1998 161.2 84.1998 160.8C84.2998 160.4 84.3998 160 84.5998 159.5L86.6998 157.7C87.0998 156.9 87.3998 156.4 87.5998 156C87.7998 155.6 88.0998 155.2 88.6998 154.8C89.1998 154.4 89.6998 154 89.9998 153.6C90.2998 153.2 90.5998 152.7 90.8998 152L92.4998 151.8L93.2998 150.8L95.2998 149.4L96.5998 148.4L95.9998 147.4L96.2998 146.9L97.2998 146.4C97.6998 146.5 97.9998 146.5 98.1998 146.6C98.3998 146.6 98.7998 146.7 99.4998 146.7C100.2 146.7 100.9 146.5 101.6 146C102.3 145.5 103.1 145 103.9 144.4C104.7 143.8 105.4 143.4 105.9 143.3C106.4 143.1 107 142.8 107.7 142.2C108.4 141.7 112.8 139.5 121.1 135.6L121.5 136C123 135.9 124.4 135.4 125.8 134.4L125.5 133.9L126.4 132C127 131.8 127.4 131.5 127.5 131.4C127.7 131.2 127.9 131.2 128.3 131.2C128.6 131.2 129.1 131.3 129.7 131.3L130.3 131.7C130.6 131.8 130.8 131.8 130.9 131.8C131.1 131.8 131.8 131.5 133.1 130.9C134.4 130.3 136.4 129.3 139.1 127.9L138.7 127.4C138.3 127.3 137.7 127.2 137.1 127C136.4 126.8 132.7 126.8 126 126.8C119.2 126.8 113.9 127 109.9 127.4C105.9 127.7 102.8 128.1 100.6 128.5C98.3998 128.9 96.3998 129.2 94.5998 129.4C92.7998 129.6 90.7998 129.8 88.5998 130.2L88.1998 130.7C86.6998 130.7 85.2998 130.9 83.8998 131.2V130.7L81.2998 131.2L81.1998 120.1C82.9998 119.6 84.3998 119.2 85.2998 119C86.1998 118.8 87.1998 118.7 88.1998 118.6C89.2998 118.6 90.9998 118.4 93.2998 118.1C95.5998 117.8 97.5998 117.5 99.3998 117C101.2 116.6 102.6 116.4 103.8 116.4C105 116.4 106.4 116.4 108.2 116.3L105.9 116.8C106.5 116.9 107.1 116.9 107.7 116.9C108.3 116.9 109 116.8 109.8 116.6C110.6 116.4 111.8 116.3 113.3 116.2C114.8 116.1 115.9 115.9 116.6 115.7C117.2 115.5 117.8 115.4 118.3 115.5C118.8 115.6 119.2 115.6 119.5 115.5C119.8 115.4 120 115.5 120.2 115.9L121.7 114.9L121.8 115.3C123.1 115.1 124 115.1 124.7 115.1C125.4 115.1 126 115 126.6 114.7C127.2 114.4 128 114.3 129 114.4C130 114.4 131 114.4 132.2 114.3C133.4 114.2 134.8 114.1 136.5 114.1C138.2 114.1 139.6 114.1 140.8 114C142 114 143.5 113.8 145.2 113.6L145.3 113.2L143.8 112.3L143.2 110.5L142.7 110.8V109.5L142.2 109.4C142.1 108.9 142.1 108.5 142.1 108.2C142.1 107.9 142.1 107.6 141.9 107.4C141.7 107.2 141.6 106.6 141.5 105.9C141.8 105.7 142 105.4 142.1 105.3C142.2 105.1 142.2 104.7 142.2 103.9C142.2 103.1 142.3 102 142.5 100.4C142.2 100.2 142 100.1 141.9 99.9C141.7 99.7 141.5 99.7 141.1 99.7H141L141.5 99.1H139.4V98.8ZM93.0998 178.1C93.4998 178.7 93.9998 178.9 94.5998 178.7L94.4998 178.3L93.8998 178.1H93.0998ZM99.5998 180.8L99.2998 181.1L100.3 182L99.6998 181.9V182.3L100.6 182.8L101.2 182.3C101.9 183 102.8 183.2 104 182.9L103.7 182.5C103.4 182.2 103.2 182.1 103 181.9C102.8 181.8 102.5 181.7 102.1 181.6C101.7 181.5 101.4 181.4 101.2 181.2C100.9 181 100.4 180.9 99.6998 181L99.5998 180.8ZM102.3 181.1C103.1 181.9 104 182.1 105.1 182C105 181.9 104.9 181.8 104.8 181.7C104.7 181.6 104.5 181.5 104.3 181.5C104.1 181.5 103.7 181.4 103.3 181.1H102.3ZM115.1 83.5C114.9 84.6 114.6 85.5 114.2 86.4L115 83.5H115.1ZM119.8 186.8V187.3H120.9V186.8H119.8ZM129.8 143C128.6 143.6 127.5 144 126.4 144.1L129.5 142.8L129.8 143ZM132 98.3L130.6 98.8H132.9L132.1 98.4L132 98.3ZM133.9 98.3L133.6 98.8L136.5 98.9L137 99.3L137.8 99.4L138.1 98.4L137.3 98.3H133.9ZM138.8 128.5C138.1 128.4 137.7 128.5 137.4 128.9L138 129.1L138.8 128.5ZM140.1 170.1L139.1 171.4L138.8 171L137.8 170.5L137.5 170.1H140.1ZM141.7 89.5L142.2 89.9L143.5 89.5H141.7ZM147.3 111.6L146.7 112.1L145.6 113.5C146.5 113.8 147.5 113.7 148.5 113.1V112.5L147.5 112.2V111.7L147.3 111.6ZM149.8 112.1L148.8 112.6V113L149.8 113.1L149.9 112.2L149.8 112.1ZM149.4 187.7V188L150 188.1L150.6 187.7H149.4ZM158.8 185.1C157.7 185 156.8 185.1 156.2 185.2L156.6 185.7H158.5L158.8 185.1ZM157.7 186.8L158 187.6C158.7 187.9 159.3 187.8 160 187.1L159.1 186.8H157.7ZM162.6 184.7L163 185.1L165.5 184.7H162.6ZM164 187.1L164.5 186.8L164.8 187.9L163.3 187.5L163 186.5L164 187.1ZM164.9 90L163.3 90.4L164.8 91L165.8 90.5L165.3 90.1L164.9 90ZM171 101.2C169.2 101.4 167.5 101.4 166.1 100.9C166.9 101 167.5 100.9 168.1 100.5L171 101.2ZM166.1 186.2C166.3 186.2 166.4 186.2 166.5 186.1C166.6 186.1 166.7 186.1 166.8 186.1C166.9 186.1 167.2 186.2 167.5 186.4L166.1 186.5V186.2ZM169.6 90.6C168.3 90.4 167.2 90.6 166.2 91L166.7 91.6L171.8 92L172.4 92.8C173.2 93.2 173.9 93.1 174.5 92.5L173.1 92.1L174.4 91.9V91.5C174.1 91.4 173.9 91.2 173.8 91C173.7 90.7 173.3 90.6 172.7 90.7C172.1 90.7 171 90.7 169.6 90.6ZM169.1 168.9L166.3 169.9V169.4L168.2 168.8L169.1 168.9ZM168.9 183.7L167.9 184.2V184.7L169.2 184.2V183.8L168.9 183.7ZM172.7 96.4V97L173.8 97.1V96.8L173 96.7L172.7 96.4ZM173 184.8L172.9 185.2C173.6 185.5 174.4 185.7 175.3 185.6L174.9 185L173 184.8ZM175.5 97C175 96.9 174.6 97 174.2 97.1L176 97.3V97.1L175.5 97ZM176.9 127.2C176.7 127.2 176.6 127.2 176.5 127.1L176.9 127.2ZM183.4 181.7C183.2 181.7 183.1 181.6 183 181.5C182.9 181.4 182.6 181.4 182.2 181.6C181.7 181.8 181.2 181.9 180.4 182C179.7 182.1 178.5 182.3 176.8 182.6L176.4 183C178.5 183 180.6 182.8 182.8 182.2L183.4 181.7ZM177.6 101.5C177.8 101.5 177.9 101.5 178.1 101.4C178.3 101.4 178.5 101.4 178.7 101.7C178.9 101.9 179.2 102 179.7 102.1C180.2 102.1 180.5 102.2 180.6 102.3C180.7 102.4 180.9 102.5 181 102.6L176.9 102.1L177.4 101.3L177.6 101.5ZM179.6 97.3L179.2 97.7L180.2 98.1L180.7 98.9H181.5V97.8L179.7 97.5L179.6 97.3ZM183.3 102.9C182.8 103 182.4 102.9 182.2 102.5L183.3 102.9Z" fill="white"/>
<defs>
<linearGradient id="paint0_linear_3501_301949" x1="69.9771" y1="182.789" x2="69.3177" y2="168.811" gradientUnits="userSpaceOnUse">
<stop stop-color="#C471F5"/>
<stop offset="0.4952" stop-color="#E171E0"/>
<stop offset="1" stop-color="#FA71CD"/>
</linearGradient>
<linearGradient id="paint1_linear_3501_301949" x1="122.018" y1="97.3811" x2="105.271" y2="105.557" gradientUnits="userSpaceOnUse">
<stop stop-color="#C471F5"/>
<stop offset="0.4952" stop-color="#E171E0"/>
<stop offset="1" stop-color="#FA71CD"/>
</linearGradient>
<linearGradient id="paint2_linear_3501_301949" x1="86.8013" y1="175.807" x2="83.5046" y2="161.433" gradientUnits="userSpaceOnUse">
<stop stop-color="#C471F5"/>
<stop offset="0.4952" stop-color="#E171E0"/>
<stop offset="1" stop-color="#FA71CD"/>
</linearGradient>
<linearGradient id="paint3_linear_3501_301949" x1="108.909" y1="124.579" x2="101.129" y2="115.612" gradientUnits="userSpaceOnUse">
<stop stop-color="#C471F5"/>
<stop offset="0.4952" stop-color="#E171E0"/>
<stop offset="1" stop-color="#FA71CD"/>
</linearGradient>
<linearGradient id="paint4_linear_3501_301949" x1="84.2374" y1="100.843" x2="84.0717" y2="100.873" gradientUnits="userSpaceOnUse">
<stop stop-color="#C471F5"/>
<stop offset="0.4952" stop-color="#E171E0"/>
<stop offset="1" stop-color="#FA71CD"/>
</linearGradient>
<linearGradient id="paint5_linear_3501_301949" x1="80.8353" y1="133.52" x2="23.2448" y2="143.903" gradientUnits="userSpaceOnUse">
<stop stop-color="#C471F5"/>
<stop offset="0.4952" stop-color="#E171E0"/>
<stop offset="1" stop-color="#FA71CD"/>
</linearGradient>
<linearGradient id="paint6_linear_3501_301949" x1="21.9811" y1="145.987" x2="42.7869" y2="164.338" gradientUnits="userSpaceOnUse">
<stop offset="0.2155" stop-color="#E7609E"/>
<stop offset="0.3045" stop-color="#DE5D9D"/>
<stop offset="0.4491" stop-color="#C65399"/>
<stop offset="0.6314" stop-color="#9E4593"/>
<stop offset="0.8422" stop-color="#68308C"/>
<stop offset="1" stop-color="#3B1F85"/>
</linearGradient>
<linearGradient id="paint7_linear_3501_301949" x1="28.9701" y1="147.893" x2="48.5787" y2="138.306" gradientUnits="userSpaceOnUse">
<stop stop-color="#ECB944"/>
<stop offset="0.3205" stop-color="#EBA05D"/>
<stop offset="1" stop-color="#E7609E"/>
</linearGradient>
<linearGradient id="paint8_linear_3501_301949" x1="41.2966" y1="132.044" x2="28.8387" y2="148.967" gradientUnits="userSpaceOnUse">
<stop offset="0.1157" stop-color="#FDDB92"/>
<stop offset="0.2554" stop-color="#F5E1A5"/>
<stop offset="0.7613" stop-color="#DBF5E6"/>
<stop offset="1" stop-color="#D1FDFF"/>
</linearGradient>
<linearGradient id="paint9_linear_3501_301949" x1="21.9841" y1="148.195" x2="26.1527" y2="148.195" gradientUnits="userSpaceOnUse">
<stop stop-color="#FDDB92"/>
<stop offset="0.158" stop-color="#F5E1A5"/>
<stop offset="0.7301" stop-color="#DBF5E6"/>
<stop offset="1" stop-color="#D1FDFF"/>
</linearGradient>
<linearGradient id="paint10_linear_3501_301949" x1="25.8396" y1="150.429" x2="26.4598" y2="140.382" gradientUnits="userSpaceOnUse">
<stop stop-color="#ECB944"/>
<stop offset="0.3205" stop-color="#EBA05D"/>
<stop offset="1" stop-color="#E7609E"/>
</linearGradient>
<linearGradient id="paint11_linear_3501_301949" x1="37.8663" y1="147.4" x2="45.0854" y2="150.266" gradientUnits="userSpaceOnUse">
<stop offset="0.2007" stop-color="#510909"/>
<stop offset="0.7185" stop-color="#190303"/>
<stop offset="1"/>
</linearGradient>
</defs>
</svg>
