<svg width="125" height="280" viewBox="0 0 122 231" fill="none" xmlns="http://www.w3.org/2000/svg">
<path d="M52.6328 62.9297C52.3047 60.9609 52.3047 58.3359 52.6328 55.0547C52.6328 52.7578 52.6328 51.1172 52.6328 50.1328C52.9609 46.5234 54.6016 44.8828 57.5547 45.2109C71.0078 44.2266 85.7734 44.2266 101.852 45.2109C104.805 45.2109 106.445 46.8516 106.773 50.1328C106.773 54.3984 106.773 58.5 106.773 62.4375C106.117 66.0469 103.82 67.8516 99.8828 67.8516C87.7422 66.8672 74.2891 66.8672 59.5234 67.8516C55.5859 67.5234 53.2891 65.8828 52.6328 62.9297ZM57.0625 52.5938V59.9766C56.7344 62.6016 57.8828 63.75 60.5078 63.4219C74.2891 62.4375 87.0859 62.4375 98.8984 63.4219C101.195 63.4219 102.344 62.2734 102.344 59.9766V51.6094C102.672 49.9688 101.359 49.1484 98.4062 49.1484C85.9375 48.1641 73.1406 48.1641 60.0156 49.1484C58.0469 49.1484 57.0625 50.2969 57.0625 52.5938ZM42.7891 84.5859C49.6797 83.9297 57.3906 83.6016 65.9219 83.6016C63.9531 80.6484 61.6563 77.6953 59.0312 74.7422C57.7188 73.4297 57.5547 72.2812 58.5391 71.2969C60.1797 70.3125 61.3281 70.3125 61.9844 71.2969C64.9375 74.25 68.0547 78.1875 71.3359 83.1094C71.3359 83.1094 71.3359 83.2734 71.3359 83.6016H87.0859C87.4141 83.2734 87.5781 83.1094 87.5781 83.1094C88.2344 82.125 89.2188 80.9766 90.5312 79.6641C93.1562 76.3828 94.9609 73.7578 95.9453 71.7891C96.6016 70.1484 97.75 69.8203 99.3906 70.8047C100.703 71.4609 100.867 72.6094 99.8828 74.25C97.2578 77.8594 94.9609 80.9766 92.9922 83.6016C102.18 83.6016 110.219 83.9297 117.109 84.5859C118.422 84.5859 119.078 85.0781 119.078 86.0625C118.422 88.6875 117.109 89.6719 115.141 89.0156C103.656 88.0312 90.0391 87.5391 74.2891 87.5391C59.1953 87.8672 48.2031 88.5234 41.3125 89.5078C39.6719 89.8359 38.8516 89.1797 38.8516 87.5391C39.5078 85.2422 40.8203 84.2578 42.7891 84.5859ZM25.5625 3.375C26.2188 30.2812 25.2344 49.1484 22.6094 59.9766C20.6406 71.1328 15.8828 80.1562 8.33594 87.0469C6.69531 88.3594 4.72656 88.3594 2.42969 87.0469C1.44531 86.3906 1.44531 85.5703 2.42969 84.5859C10.9609 77.3672 16.2109 68.8359 18.1797 58.9922C20.8047 49.1484 21.7891 30.6094 21.1328 3.375C21.1328 2.0625 21.9531 1.24219 23.5938 0.914062C24.9062 1.24219 25.5625 2.0625 25.5625 3.375ZM83.6406 9.28125C84.2969 9.60937 84.625 10.1016 84.625 10.7578C84.9531 10.7578 85.1172 10.7578 85.1172 10.7578C89.3828 8.13281 93.4844 5.17969 97.4219 1.89844C98.4062 0.914062 99.3906 1.07813 100.375 2.39062C101.359 3.70312 101.195 4.85156 99.8828 5.83594C96.2734 8.78906 92.1719 11.5781 87.5781 14.2031C90.2031 16.5 92.6641 19.125 94.9609 22.0781C98.2422 19.7813 101.688 17.3203 105.297 14.6953C106.281 14.0391 106.938 13.5469 107.266 13.2188C108.578 12.2344 109.727 12.2344 110.711 13.2188C111.695 14.5312 111.203 15.8438 109.234 17.1562C109.234 17.1562 109.07 17.3203 108.742 17.6484C106.117 19.9453 102.672 22.4062 98.4062 25.0312C104.312 30.2812 111.039 35.2031 118.586 39.7969C119.57 40.7812 119.734 41.4375 119.078 41.7656C117.109 44.3906 114.977 44.7188 112.68 42.75C102.18 35.2031 91.6797 25.3594 81.1797 13.2188C79.5391 11.25 79.2109 9.9375 80.1953 9.28125C81.5078 8.29688 82.6562 8.29688 83.6406 9.28125ZM47.7109 20.1094C46.3984 19.7813 46.0703 18.7969 46.7266 17.1562C47.0547 15.8438 48.2031 15.6797 50.1719 16.6641C55.0938 19.2891 58.7031 21.4219 61 23.0625L61.4922 23.5547C61.8203 23.2266 62.1484 22.7344 62.4766 22.0781C64.1172 20.4375 65.9219 18.1406 67.8906 15.1875C69.5312 13.2188 69.5312 11.9063 67.8906 11.25C65.2656 9.60937 61.8203 7.96875 57.5547 6.32812C56.2422 5.67187 55.9141 4.6875 56.5703 3.375C57.2266 2.0625 58.375 1.73437 60.0156 2.39062C62.9688 3.70312 66.25 5.34375 69.8594 7.3125C70.8438 7.64062 71.5 7.96875 71.8281 8.29688C74.7812 10.5937 74.9453 13.3828 72.3203 16.6641C64.7734 27.1641 56.4062 35.6953 47.2188 42.2578C44.9219 44.2266 42.625 44.2266 40.3281 42.2578C39.0156 41.2734 39.0156 40.4531 40.3281 39.7969C47.2188 36.1875 53.125 31.9219 58.0469 27C56.4062 25.6875 53.7812 23.8828 50.1719 21.5859C49.1875 20.9297 48.3672 20.4375 47.7109 20.1094ZM59.0312 36.3516C59.3594 34.3828 60.3438 33.2344 61.9844 32.9062C74.125 32.25 85.6094 32.25 96.4375 32.9062C96.4375 32.9062 96.6016 32.9062 96.9297 32.9062C97.9141 33.2344 98.4062 33.7266 98.4062 34.3828C97.75 36.6797 96.6016 37.8281 94.9609 37.8281C83.1484 36.1875 71.6641 36.1875 60.5078 37.8281C59.8516 38.1562 59.3594 38.1562 59.0312 37.8281C58.7031 37.5 58.7031 37.0078 59.0312 36.3516ZM28.0234 57.0234C27.3672 55.7109 27.5312 54.5625 28.5156 53.5781C29.8281 52.5938 30.8125 52.7578 31.4688 54.0703C35.7344 62.2734 40.1641 68.3438 44.7578 72.2812C46.0703 73.2656 45.5781 74.0859 43.2812 74.7422C40.9844 75.7266 39.3438 75.3984 38.3594 73.7578C34.4219 68.5078 30.9766 62.9297 28.0234 57.0234ZM35.8984 37.3359C34.9141 38.6484 33.4375 38.8125 31.4688 37.8281C30.4844 37.1719 30.4844 36.1875 31.4688 34.875C34.4219 31.9219 37.5391 27.1641 40.8203 20.6016C41.4766 19.2891 42.4609 19.125 43.7734 20.1094C45.0859 20.7656 45.25 22.0781 44.2656 24.0469C40.3281 30.6094 37.5391 35.0391 35.8984 37.3359ZM9.32031 42.2578C8.99219 44.5547 7.67969 45.7031 5.38281 45.7031C4.07031 46.0312 3.90625 44.5547 4.89062 41.2734C6.85938 36.6797 8.00781 32.25 8.33594 27.9844C8.66406 25.6875 9.64844 24.7031 11.2891 25.0312C12.6016 24.7031 12.9297 26.3437 12.2734 29.9531C11.9453 33.8906 10.9609 37.9922 9.32031 42.2578ZM101.359 154.203C101.031 152.234 100.047 151.086 98.4062 150.758C92.8281 150.102 87.7422 150.266 83.1484 151.25C81.8359 151.25 80.8516 150.594 80.1953 149.281C79.8672 147.969 80.3594 147.312 81.6719 147.312C88.5625 146.656 94.7969 146.656 100.375 147.312C103.656 147.312 105.297 148.953 105.297 152.234V176.352C106.609 176.352 107.922 176.352 109.234 176.352C113.172 176.352 115.141 177.828 115.141 180.781C115.797 184.391 115.797 188 115.141 191.609C115.141 193.25 114.484 194.07 113.172 194.07C111.531 193.742 110.711 192.922 110.711 191.609C111.367 188.656 111.367 185.867 110.711 183.242C111.039 181.273 109.727 180.453 106.773 180.781C70.6797 179.469 40.6562 179.469 16.7031 180.781C14.4062 180.781 13.0938 181.93 12.7656 184.227C12.7656 186.523 12.7656 188.984 12.7656 191.609C12.7656 192.922 12.1094 193.578 10.7969 193.578C9.48438 193.578 8.82812 192.922 8.82812 191.609C8.82812 188.328 8.82812 185.211 8.82812 182.258C8.82812 178.648 10.6328 176.68 14.2422 176.352C15.8828 176.352 17.3594 176.352 18.6719 176.352V152.234C19 149.938 20.3125 148.297 22.6094 147.312C28.5156 146.656 34.2578 145.836 39.8359 144.852C41.8047 144.195 42.9531 144.359 43.2812 145.344C44.2656 146.984 43.7734 148.133 41.8047 148.789C39.1797 149.445 33.7656 150.102 25.5625 150.758C25.5625 150.758 25.3984 150.758 25.0703 150.758C23.4297 151.414 22.6094 152.398 22.6094 153.711V156.664C25.2344 156.336 28.8438 156.336 33.4375 156.664C36.3906 156.664 38.8516 156.664 40.8203 156.664C42.4609 156.992 42.9531 157.648 42.2969 158.633C41.9688 160.273 40.4922 160.93 37.8672 160.602C36.2266 160.602 34.2578 160.602 31.9609 160.602C28.3516 160.273 25.2344 160.273 22.6094 160.602V166.016C29.1719 166.016 35.2422 166.18 40.8203 166.508C42.4609 166.508 42.9531 167.164 42.2969 168.477C41.9688 170.117 40.4922 170.773 37.8672 170.445C32.6172 169.789 27.5312 169.789 22.6094 170.445V176.352C49.1875 175.695 75.4375 175.695 101.359 176.352V170.445C95.7812 169.789 90.0391 169.789 84.1328 170.445C82.1641 170.445 80.8516 169.789 80.1953 168.477C80.1953 167.164 80.6875 166.344 81.6719 166.016C88.5625 166.016 95.125 166.016 101.359 166.016V160.602C96.1094 159.945 90.6953 159.945 85.1172 160.602C82.4922 160.93 81.1797 160.273 81.1797 158.633C80.8516 157.32 81.3438 156.664 82.6562 156.664C89.5469 156.008 95.7812 156.008 101.359 156.664V154.203ZM60.0156 195.547C61 196.531 61.9844 197.352 62.9688 198.008C70.5156 197.023 77.0781 195.547 82.6562 193.578C83.6406 192.922 84.1328 192.266 84.1328 191.609C83.8047 191.281 82.9844 190.953 81.6719 190.625C59.3594 189.312 42.625 189.805 31.4688 192.102C30.4844 192.43 29.8281 192.43 29.5 192.102C29.1719 191.773 29.1719 191.117 29.5 190.133C30.1562 188.492 31.4688 187.344 33.4375 186.688C49.8438 185.703 66.4141 185.703 83.1484 186.688C86.7578 187.016 88.8906 188.328 89.5469 190.625C89.875 193.578 88.5625 195.711 85.6094 197.023C79.7031 199.32 72.9766 200.961 65.4297 201.945C66.4141 203.258 67.0703 204.406 67.3984 205.391C85.1172 206.047 102.344 206.703 119.078 207.359C120.719 207.688 121.047 208.672 120.062 210.312C119.078 212.938 116.945 213.922 113.664 213.266C98.2422 211.297 83.4766 210.148 69.3672 209.82C69.6953 211.789 69.8594 213.922 69.8594 216.219C70.1875 225.734 65.4297 230.328 55.5859 230C47.3828 230 40.1641 229.016 33.9297 227.047C32.6172 226.391 32.125 225.078 32.4531 223.109C32.4531 222.125 33.2734 221.797 34.9141 222.125C42.7891 225.078 49.5156 226.555 55.0938 226.555C62.3125 226.555 65.7578 223.109 65.4297 216.219C65.4297 213.922 65.1016 211.789 64.4453 209.82H62.9688C37.375 209.82 18.5078 210.805 6.36719 212.773C4.72656 212.773 3.90625 212.117 3.90625 210.805C4.5625 208.508 5.875 207.195 7.84375 206.867C22.6094 205.883 40.6562 205.391 61.9844 205.391H62.4766C61.1641 202.766 59.1953 200.305 56.5703 198.008C55.2578 197.023 55.2578 196.039 56.5703 195.055C58.2109 194.398 59.3594 194.562 60.0156 195.547ZM74.2891 170.938C75.6016 171.594 75.9297 172.578 75.2734 173.891C74.2891 174.875 73.1406 174.875 71.8281 173.891C70.8438 173.234 69.3672 172.25 67.3984 170.938C65.1016 169.953 63.4609 169.133 62.4766 168.477C58.5391 170.445 54.7656 172.086 51.1562 173.398C48.8594 174.383 47.3828 174.219 46.7266 172.906C46.0703 172.578 45.7422 172.086 45.7422 171.43C45.7422 171.102 46.0703 170.938 46.7266 170.938C47.3828 170.609 48.5312 170.117 50.1719 169.461C53.7812 168.477 56.4062 167.492 58.0469 166.508C55.4219 165.523 52.6328 164.375 49.6797 163.062C48.0391 162.406 47.7109 161.586 48.6953 160.602C49.3516 159.617 50.6641 159.453 52.6328 160.109C53.2891 160.438 54.4375 160.93 56.0781 161.586C58.7031 162.898 60.8359 163.883 62.4766 164.539C65.1016 162.898 67.3984 161.422 69.3672 160.109C71.0078 159.125 72.1562 158.961 72.8125 159.617C74.125 160.273 74.125 161.258 72.8125 162.57C72.1562 162.898 71.1719 163.555 69.8594 164.539C68.2188 165.195 67.0703 165.852 66.4141 166.508C69.3672 167.82 71.9922 169.297 74.2891 170.938ZM74.2891 154.695C75.6016 155.352 75.9297 156.336 75.2734 157.648C74.6172 158.633 73.6328 158.633 72.3203 157.648C69.6953 156.008 66.5781 154.531 62.9688 153.219C59.6875 154.531 56.0781 156.008 52.1406 157.648C49.8438 158.633 48.2031 158.633 47.2188 157.648C46.2344 156.664 46.3984 155.844 47.7109 155.188C49.6797 154.531 52.6328 153.547 56.5703 152.234C57.5547 151.906 58.375 151.578 59.0312 151.25C58.0469 150.922 56.7344 150.266 55.0938 149.281C53.125 148.625 51.6484 148.133 50.6641 147.805C49.0234 147.477 48.6953 146.656 49.6797 145.344C50.3359 144.359 51.4844 144.195 53.125 144.852C56.7344 146.164 60.1797 147.641 63.4609 149.281C64.7734 148.625 66.4141 147.641 68.3828 146.328C69.6953 145.344 70.6797 144.688 71.3359 144.359C72.3203 143.375 73.3047 143.375 74.2891 144.359C74.9453 145.344 74.7812 146.164 73.7969 146.82C71.8281 148.461 69.6953 149.773 67.3984 150.758C68.0547 151.086 69.0391 151.578 70.3516 152.234C72.3203 153.219 73.6328 154.039 74.2891 154.695Z" fill="#E92F93"/>
</svg>
