<svg width="175" height="181" viewBox="0 0 175 181" fill="none" xmlns="http://www.w3.org/2000/svg">
<path d="M59.6806 154.405C59.4958 154.128 59.1263 153.943 58.7567 153.943C58.5719 153.943 58.3872 153.943 58.2948 154.036C58.2024 154.128 58.0176 154.128 57.9252 154.313C57.648 154.589 57.5557 154.866 57.5557 155.236C57.5557 155.42 57.5557 155.605 57.6481 155.697C58.0176 157.358 59.2186 162.527 61.436 164.096C61.6207 164.189 61.8055 164.373 61.9903 164.465C64.4848 165.942 68.7346 166.681 70.6748 165.758C70.8595 165.665 71.0443 165.573 71.1367 165.481C72.6149 164.189 61.7131 155.882 59.6806 154.405Z" fill="url(#paint0_linear_4100_14895)"/>
<path d="M112.157 101.24C108.092 93.2105 110.863 80.8425 111.048 79.6426C101.809 90.7184 92.2935 96.4409 92.2935 96.4409L93.4021 101.517C100.331 95.6103 109.293 100.41 111.787 101.517C112.064 101.61 112.249 101.425 112.157 101.24Z" fill="url(#paint1_linear_4100_14895)"/>
<path d="M86.4731 150.528V150.343C86.3807 150.066 86.2883 149.881 86.1035 149.697C85.8264 149.328 85.272 149.051 84.8101 149.051L70.4899 149.235C70.028 149.235 69.1041 149.697 69.0117 150.251C68.827 150.897 68.7346 151.543 69.1965 152.189C69.9356 153.204 79.6364 156.988 81.5765 156.712C82.0384 156.619 82.6852 156.25 83.4243 155.696H83.5167V155.604C84.1634 155.05 84.8101 154.404 85.3644 153.666H85.4568V153.573C85.8264 153.02 86.1959 152.466 86.3807 151.82V151.727C86.5655 151.358 86.5655 150.989 86.4731 150.528Z" fill="url(#paint2_linear_4100_14895)"/>
<path d="M101.994 105.855C101.994 105.394 101.994 104.932 101.81 104.563V104.471C101.81 104.379 101.717 104.379 101.717 104.286C101.44 103.917 100.886 103.825 100.424 103.917C97.5598 104.471 85.5493 107.055 86.1961 110.009C86.1961 110.009 85.7341 111.67 90.0764 111.578C94.4186 111.486 97.2826 112.224 98.4837 111.578C98.8532 111.393 99.4075 110.932 99.8695 110.193H99.9619V110.101C100.424 109.455 100.886 108.717 101.255 107.978H101.348V107.886C101.625 107.24 101.81 106.686 101.902 106.132L101.994 105.855Z" fill="url(#paint3_linear_4100_14895)"/>
<path d="M78.0654 93.5792C77.8806 93.0254 77.6958 92.6562 77.6958 92.6562C77.6958 92.6562 77.7882 93.1177 78.0654 93.5792Z" fill="url(#paint4_linear_4100_14895)"/>
<path d="M92.1083 96.0715C91.1844 96.2561 90.2606 96.3484 89.4291 96.533C85.8259 96.4407 83.6086 91.1797 83.6086 91.1797C83.6086 91.1797 85.0868 95.9792 82.3152 96.7176C80.2826 97.2714 78.8044 94.9639 78.0653 93.5795C78.6197 94.9639 79.3588 97.7329 77.511 99.0251C75.1089 100.779 72.0601 96.1638 71.6906 95.61C71.9677 96.0715 74.4622 100.133 72.6144 102.071C70.6743 104.009 66.3321 99.1174 66.3321 99.1174C66.3321 99.1174 69.9352 103.917 68.1798 106.409C66.4244 108.901 61.8974 105.394 61.8974 105.394C61.8974 105.394 66.1473 111.024 65.3158 113.239C64.4843 115.454 59.9573 112.87 59.9573 112.87C59.9573 112.87 65.0386 116.47 63.93 118.777C63.0061 120.808 60.4192 119.054 59.5877 118.408C60.4192 119.146 63.5604 121.823 62.6365 124.038C61.5279 126.622 58.7562 123.853 58.7562 123.853C58.7562 123.853 61.3431 128.099 59.0334 129.761C56.7237 131.422 55.2455 126.069 55.2455 126.069C56.4465 131.237 51.55 130.684 51.4576 130.684C48.686 130.037 45.1752 129.022 40.4634 128.561C27.3443 127.268 22.6325 136.498 23.1869 138.437C23.5564 139.729 25.6813 140.652 26.8824 141.113C27.2519 141.206 27.3443 141.759 26.9748 141.944C25.7737 142.775 25.8661 143.144 25.8661 143.144L33.6267 149.051C47.8545 159.85 60.5116 156.619 65.9625 155.42C71.4134 154.127 74.185 151.728 74.185 151.728C74.7394 149.143 78.0653 148.589 78.0653 148.589C77.7882 145.728 81.0218 143.79 81.0218 143.79C81.2065 140.56 83.6086 138.99 83.6086 138.99C83.6086 136.221 84.9021 134.468 84.9021 134.468C84.5325 131.883 86.1031 129.484 86.1031 129.484C85.2716 126.715 86.7498 124.315 86.7498 124.315C86.0107 122.192 87.3965 119.608 87.3965 119.608C86.8422 117.762 87.7661 115.362 87.7661 115.362C87.4889 114.439 87.5813 112.778 87.5813 112.778C89.2443 102.902 97.8364 100.594 97.9288 98.1944C98.0211 95.7023 92.1083 96.0715 92.1083 96.0715Z" fill="url(#paint5_linear_4100_14895)"/>
<path d="M23.6489 139.453C23.6489 139.453 25.8662 137.791 27.4368 138.437C29.0074 138.991 31.5019 140.929 31.4095 141.483C31.4095 142.037 30.1161 143.052 29.4694 143.145C28.8227 143.329 26.2358 143.421 25.8662 143.237C25.8662 143.237 25.4967 142.96 26.8825 141.945C27.1597 141.76 27.1597 141.206 26.7901 141.114C25.7738 140.745 24.2033 140.191 23.6489 139.453Z" fill="url(#paint6_linear_4100_14895)"/>
<path d="M28.6382 137.883C28.6382 137.883 31.5946 130.96 36.3988 131.237C41.2029 131.514 44.8985 133.544 48.8712 126.622C48.8712 126.622 46.3767 130.129 42.9583 130.129C39.54 130.129 35.4749 127.822 31.225 131.883C26.9752 135.944 26.8828 137.883 26.8828 137.883C26.8828 137.883 28.4534 137.698 28.6382 137.883Z" fill="url(#paint7_linear_4100_14895)"/>
<path d="M27.8992 137.79C27.8992 137.79 31.2251 137.237 30.7632 133.268C30.3013 128.745 34.0892 125.976 35.9369 124.961C35.9369 124.961 29.4698 127.268 29.4698 132.529C29.4698 137.79 25.4971 138.067 25.4971 138.067C25.4971 138.067 25.3123 138.437 26.0514 138.344C26.2362 138.344 26.7905 138.16 27.2525 137.975C27.622 137.883 27.8068 137.79 27.8992 137.79Z" fill="url(#paint8_linear_4100_14895)"/>
<path d="M23.6491 139.451C23.6491 139.451 19.8612 137.882 20.5079 134.375C20.5079 134.375 21.0622 138.252 24.2958 139.175L23.6491 139.451Z" fill="url(#paint9_linear_4100_14895)"/>
<path d="M24.4805 138.99C24.4805 138.99 21.1545 133.545 25.0348 131.053C25.0348 131.053 24.0186 132.345 24.0186 134.283C24.0186 136.221 25.1272 138.714 25.1272 138.714L24.4805 138.99Z" fill="url(#paint10_linear_4100_14895)"/>
<path d="M38.6157 139.636C40.0444 139.636 41.2025 138.562 41.2025 137.237C41.2025 135.911 40.0444 134.837 38.6157 134.837C37.187 134.837 36.0288 135.911 36.0288 137.237C36.0288 138.562 37.187 139.636 38.6157 139.636Z" fill="#C8E6CC"/>
<mask id="mask0_4100_14895" style="mask-type:luminance" maskUnits="userSpaceOnUse" x="36" y="134" width="6" height="6">
<path d="M38.6157 139.636C40.0444 139.636 41.2025 138.562 41.2025 137.237C41.2025 135.911 40.0444 134.837 38.6157 134.837C37.187 134.837 36.0288 135.911 36.0288 137.237C36.0288 138.562 37.187 139.636 38.6157 139.636Z" fill="white"/>
</mask>
<g mask="url(#mask0_4100_14895)">
<g opacity="0.52">
<path d="M40.1869 137.791C40.0933 137.791 40.0933 137.884 40.1869 137.791V137.791Z" fill="#F2AF49"/>
<path d="M39.7247 137.976C39.6311 137.883 39.7247 137.883 39.7247 137.976V137.976Z" fill="#F2AF49"/>
<path d="M40.6485 137.976C40.5549 137.976 40.6485 137.883 40.6485 137.976V137.976Z" fill="#F2AF49"/>
<path d="M41.0176 136.776C41.1112 136.682 41.1112 136.776 41.0176 136.776V136.776Z" fill="#F2AF49"/>
<path d="M40.8336 137.606C40.74 137.7 40.8336 137.7 40.8336 137.606V137.606Z" fill="#F2AF49"/>
<path d="M41.0184 138.067C40.9248 138.067 40.9248 138.161 41.0184 138.067V138.067Z" fill="#F2AF49"/>
<path d="M41.0184 137.053C40.9248 137.053 40.9248 137.146 41.0184 137.053V137.053Z" fill="#F2AF49"/>
<path d="M41.2021 139.175C41.2957 139.268 41.2957 139.268 41.2021 139.175C41.2957 139.175 41.2957 139.175 41.2021 139.175Z" fill="#F2AF49"/>
<path d="M41.2032 138.714C41.1096 138.714 41.2032 138.807 41.2032 138.714V138.714Z" fill="#F2AF49"/>
<path d="M41.0184 135.853C40.9248 135.76 40.9248 135.853 41.0184 135.853V135.853Z" fill="#F2AF49"/>
<path d="M41.0182 138.437C40.9246 138.437 41.0182 138.53 41.0182 138.437V138.437Z" fill="#F2AF49"/>
<path d="M41.2955 138.437C41.2019 138.53 41.2955 138.53 41.2955 138.437V138.437Z" fill="#F2AF49"/>
<path d="M41.1104 137.237C41.0169 137.237 41.1104 137.331 41.1104 137.237V137.237Z" fill="#F2AF49"/>
<path d="M39.1699 138.437C39.2635 138.437 39.2635 138.53 39.1699 138.437V138.437Z" fill="#F2AF49"/>
<path d="M39.8178 137.883C39.7242 137.883 39.7242 137.976 39.8178 137.883V137.883Z" fill="#F2AF49"/>
<path d="M41.2021 137.791C41.2957 137.791 41.2957 137.884 41.2021 137.791V137.791Z" fill="#F2AF49"/>
<path d="M39.3545 138.068C39.4481 137.974 39.4481 138.068 39.3545 138.068V138.068Z" fill="#F2AF49"/>
<path d="M40.3711 136.5C40.4647 136.406 40.4647 136.5 40.3711 136.5V136.5Z" fill="#F2AF49"/>
<path d="M40.3711 138.715C40.4647 138.621 40.4647 138.715 40.3711 138.715C40.3711 138.621 40.3711 138.621 40.3711 138.715Z" fill="#F2AF49"/>
<path d="M40.186 137.33C40.2796 137.236 40.2796 137.33 40.186 137.33V137.33Z" fill="#F2AF49"/>
<path d="M40.5557 138.161C40.6493 138.067 40.6493 138.067 40.5557 138.161V138.161Z" fill="#F2AF49"/>
<path d="M40.372 137.514C40.2784 137.514 40.2784 137.607 40.372 137.514V137.514Z" fill="#F2AF49"/>
<path d="M40.7407 138.252C40.8343 138.252 40.8343 138.345 40.7407 138.252V138.252Z" fill="#F2AF49"/>
<path d="M40.464 137.791C40.3704 137.791 40.464 137.884 40.464 137.791V137.791Z" fill="#F2AF49"/>
<path d="M39.9093 137.238C39.8157 137.145 39.9093 137.145 39.9093 137.238V137.238Z" fill="#F2AF49"/>
<path d="M40.3717 138.437C40.2781 138.531 40.3717 138.344 40.3717 138.437V138.437Z" fill="#F2AF49"/>
<path d="M39.5391 138.621C39.6327 138.621 39.6327 138.715 39.5391 138.621V138.621Z" fill="#F2AF49"/>
<path d="M38.8932 138.345C38.7996 138.345 38.8932 138.438 38.8932 138.345V138.345Z" fill="#F2AF49"/>
<path d="M39.817 138.806C39.7234 138.713 39.817 138.713 39.817 138.806V138.806Z" fill="#F2AF49"/>
<path d="M37.6923 139.359C37.5987 139.359 37.5987 139.453 37.6923 139.359V139.359Z" fill="#F2AF49"/>
<path d="M39.0771 139.268C39.1707 139.268 39.1707 139.361 39.0771 139.268V139.268Z" fill="#F2AF49"/>
<path d="M38.2456 137.976C38.3392 137.883 38.3392 137.976 38.2456 137.976V137.976Z" fill="#F2AF49"/>
<path d="M38.2465 138.99C38.1529 138.99 38.1529 139.084 38.2465 138.99V138.99Z" fill="#F2AF49"/>
<path d="M38.3392 139.268C38.2456 139.268 38.2456 139.361 38.3392 139.268V139.268Z" fill="#F2AF49"/>
</g>
</g>
<mask id="mask1_4100_14895" style="mask-type:luminance" maskUnits="userSpaceOnUse" x="36" y="134" width="6" height="6">
<path d="M38.6157 139.636C40.0444 139.636 41.2025 138.562 41.2025 137.237C41.2025 135.911 40.0444 134.837 38.6157 134.837C37.187 134.837 36.0288 135.911 36.0288 137.237C36.0288 138.562 37.187 139.636 38.6157 139.636Z" fill="white"/>
</mask>
<g mask="url(#mask1_4100_14895)">
<g opacity="0.52">
<path d="M38.1533 138.806C38.1533 138.899 38.2469 138.806 38.1533 138.806V138.806Z" fill="#F2AF49"/>
<path d="M37.785 138.621C37.6914 138.621 37.6914 138.715 37.785 138.621V138.621Z" fill="#F2AF49"/>
<path d="M37.6923 137.145C37.5987 137.052 37.5987 137.145 37.6923 137.145V137.145Z" fill="#F2AF49"/>
<path d="M37.6923 138.161C37.5987 138.067 37.6923 138.067 37.6923 138.161C37.5987 138.161 37.5987 138.161 37.6923 138.161Z" fill="#F2AF49"/>
<path d="M36.1211 139.36C36.1211 139.267 36.2147 139.267 36.1211 139.36V139.36Z" fill="#F2AF49"/>
<path d="M36.6759 139.359C36.5823 139.453 36.6759 139.453 36.6759 139.359V139.359Z" fill="#F2AF49"/>
<path d="M37.0458 139.729C36.9522 139.636 36.9522 139.729 37.0458 139.729V139.729Z" fill="#F2AF49"/>
</g>
</g>
<mask id="mask2_4100_14895" style="mask-type:luminance" maskUnits="userSpaceOnUse" x="36" y="134" width="6" height="6">
<path d="M38.6157 139.636C40.0444 139.636 41.2025 138.562 41.2025 137.237C41.2025 135.911 40.0444 134.837 38.6157 134.837C37.187 134.837 36.0288 135.911 36.0288 137.237C36.0288 138.562 37.187 139.636 38.6157 139.636Z" fill="white"/>
</mask>
<g mask="url(#mask2_4100_14895)">
<g opacity="0.52">
<path d="M39.9092 136.959C40.0028 136.959 40.0028 137.052 39.9092 136.959V136.959Z" fill="#F2AF49"/>
<path d="M40.002 138.252C39.9085 138.252 40.002 138.345 40.002 138.252V138.252Z" fill="#F2AF49"/>
<path d="M40.5565 136.405C40.4629 136.405 40.4629 136.499 40.5565 136.405V136.405Z" fill="#F2AF49"/>
<path d="M40.6485 135.022C40.5549 135.022 40.6485 134.929 40.6485 135.022V135.022Z" fill="#F2AF49"/>
<path d="M41.1104 135.022C41.2039 134.929 41.2039 135.022 41.1104 135.022V135.022Z" fill="#F2AF49"/>
<path d="M41.1104 137.237C41.1104 137.144 41.2039 137.237 41.1104 137.237V137.237Z" fill="#F2AF49"/>
<path d="M40.9253 135.852C41.0189 135.759 41.0189 135.852 40.9253 135.852V135.852Z" fill="#F2AF49"/>
<path d="M41.1107 136.036C41.0171 136.036 41.0171 136.13 41.1107 136.036V136.036Z" fill="#F2AF49"/>
<path d="M41.2035 136.313C41.1099 136.313 41.1099 136.407 41.2035 136.313V136.313Z" fill="#F2AF49"/>
<path d="M40.7416 136.867C40.648 136.867 40.648 136.961 40.7416 136.867V136.867Z" fill="#F2AF49"/>
<path d="M40.6493 137.421C40.5557 137.421 40.5557 137.514 40.6493 137.421V137.421Z" fill="#F2AF49"/>
<path d="M40.6485 135.761C40.5549 135.667 40.6485 135.667 40.6485 135.761V135.761Z" fill="#F2AF49"/>
<path d="M41.1107 136.96C41.0171 136.866 41.0171 136.96 41.1107 136.96V136.96Z" fill="#F2AF49"/>
<path d="M40.9262 136.774C40.8326 136.774 40.8326 136.868 40.9262 136.774V136.774Z" fill="#F2AF49"/>
</g>
</g>
<mask id="mask3_4100_14895" style="mask-type:luminance" maskUnits="userSpaceOnUse" x="36" y="134" width="6" height="6">
<path d="M38.6157 139.636C40.0444 139.636 41.2025 138.562 41.2025 137.237C41.2025 135.911 40.0444 134.837 38.6157 134.837C37.187 134.837 36.0288 135.911 36.0288 137.237C36.0288 138.562 37.187 139.636 38.6157 139.636Z" fill="white"/>
</mask>
<g mask="url(#mask3_4100_14895)">
<g opacity="0.52">
<path d="M40.9262 136.129C40.8326 136.036 40.8326 136.129 40.9262 136.129V136.129Z" fill="#F2AF49"/>
<path d="M40.9253 138.528C40.9253 138.622 41.0189 138.528 40.9253 138.528V138.528Z" fill="#F2AF49"/>
<path d="M39.3545 138.345C39.3545 138.252 39.4481 138.252 39.3545 138.345V138.345Z" fill="#F2AF49"/>
<path d="M39.725 138.897C39.6314 138.897 39.6314 138.991 39.725 138.897V138.897Z" fill="#F2AF49"/>
<path d="M38.7086 138.806C38.615 138.899 38.7086 138.899 38.7086 138.806V138.806Z" fill="#F2AF49"/>
<path d="M38.8931 136.867C38.9867 136.867 38.9867 136.961 38.8931 136.867V136.867Z" fill="#F2AF49"/>
<path d="M39.5396 138.899C39.6331 138.899 39.6331 138.899 39.5396 138.899C39.5396 138.806 39.6331 138.806 39.5396 138.899Z" fill="#F2AF49"/>
<path d="M40.3711 138.53C40.4647 138.437 40.4647 138.437 40.3711 138.53V138.53Z" fill="#F2AF49"/>
<path d="M40.2788 136.683C40.3724 136.683 40.3724 136.776 40.2788 136.683V136.683Z" fill="#F2AF49"/>
<path d="M40.2788 138.897C40.3724 138.897 40.3724 138.991 40.2788 138.897C40.3724 138.897 40.3724 138.897 40.2788 138.897Z" fill="#F2AF49"/>
<path d="M40.372 139.452C40.2784 139.452 40.2784 139.546 40.372 139.452V139.452Z" fill="#F2AF49"/>
<path d="M39.9092 138.99C40.0028 138.99 40.0028 139.084 39.9092 138.99V138.99Z" fill="#F2AF49"/>
<path d="M40.002 137.053C39.9085 136.959 40.002 136.959 40.002 137.053V137.053Z" fill="#F2AF49"/>
<path d="M39.9098 138.344C39.8162 138.437 39.9098 138.437 39.9098 138.344V138.344Z" fill="#F2AF49"/>
<path d="M39.8169 139.359C39.9105 139.359 39.9105 139.453 39.8169 139.359V139.359Z" fill="#F2AF49"/>
<path d="M40.2789 138.713C40.1853 138.713 40.2789 138.62 40.2789 138.713V138.713Z" fill="#F2AF49"/>
<path d="M40.2797 139.175C40.1861 139.175 40.1861 139.268 40.2797 139.175V139.175Z" fill="#F2AF49"/>
<path d="M40.7416 137.883C40.648 137.79 40.648 137.883 40.7416 137.883V137.883Z" fill="#F2AF49"/>
<path d="M40.8336 139.267C40.74 139.267 40.8336 139.36 40.8336 139.267V139.267Z" fill="#F2AF49"/>
<path d="M38.708 139.267C38.8016 139.267 38.8016 139.36 38.708 139.267V139.267Z" fill="#F2AF49"/>
<path d="M39.6324 138.529C39.5388 138.529 39.6324 138.435 39.6324 138.529V138.529Z" fill="#F2AF49"/>
<path d="M40.0942 138.529C40.1878 138.435 40.1878 138.529 40.0942 138.529V138.529Z" fill="#F2AF49"/>
<path d="M40.0028 139.36C39.9092 139.266 39.9092 139.36 40.0028 139.36V139.36Z" fill="#F2AF49"/>
<path d="M40.2794 139.267C40.1858 139.267 40.2794 139.174 40.2794 139.267V139.267Z" fill="#F2AF49"/>
<path d="M40.0943 139.544C40.0007 139.544 40.0943 139.637 40.0943 139.544V139.544Z" fill="#F2AF49"/>
<path d="M39.6324 138.991C39.5388 138.898 39.6324 138.898 39.6324 138.991V138.991Z" fill="#F2AF49"/>
<path d="M39.0776 139.267C39.0776 139.36 39.1712 139.267 39.0776 139.267V139.267Z" fill="#F2AF49"/>
<path d="M39.0776 139.451C39.0776 139.545 39.1712 139.451 39.0776 139.451V139.451Z" fill="#F2AF49"/>
<path d="M38.7089 139.36C38.6153 139.266 38.6153 139.36 38.7089 139.36V139.36Z" fill="#F2AF49"/>
<path d="M38.5229 137.791C38.6165 137.697 38.6165 137.791 38.5229 137.791V137.791Z" fill="#F2AF49"/>
<path d="M38.6166 138.806C38.523 138.713 38.6166 138.713 38.6166 138.806C38.523 138.806 38.523 138.806 38.6166 138.806Z" fill="#F2AF49"/>
<path d="M40.2797 139.175C40.1861 139.175 40.1861 139.268 40.2797 139.175V139.175Z" fill="#F2AF49"/>
<path d="M36.8612 139.451C36.7676 139.451 36.7676 139.545 36.8612 139.451V139.451Z" fill="#F2AF49"/>
<path d="M37.5082 138.713C37.4146 138.713 37.4146 138.806 37.5082 138.713V138.713Z" fill="#F2AF49"/>
<path d="M37.877 138.16C37.7835 138.066 37.877 138.066 37.877 138.16V138.16Z" fill="#F2AF49"/>
</g>
</g>
<path d="M37.8764 138.529C38.5908 138.529 39.1699 137.95 39.1699 137.237C39.1699 136.523 38.5908 135.944 37.8764 135.944C37.1621 135.944 36.583 136.523 36.583 137.237C36.583 137.95 37.1621 138.529 37.8764 138.529Z" fill="url(#paint11_linear_4100_14895)"/>
<path d="M37.2299 137.421C37.434 137.421 37.5995 137.256 37.5995 137.052C37.5995 136.848 37.434 136.683 37.2299 136.683C37.0258 136.683 36.8604 136.848 36.8604 137.052C36.8604 137.256 37.0258 137.421 37.2299 137.421Z" fill="white"/>
<path d="M24.6653 1.00382C26.4207 1.09612 27.7141 1.09612 28.3608 1.00382C29.1 0.91152 29.6543 1.18842 30.301 1.74221C30.8553 2.296 31.7792 3.03439 32.9802 4.04968C33.7193 4.88036 34.1813 5.43416 34.3661 5.80335C34.5508 6.17255 34.7356 6.63404 34.7356 7.28013C34.7356 7.92622 35.0128 9.12611 35.5671 10.8798C36.1214 12.6335 36.3986 14.9409 36.491 17.8022C36.5834 20.6634 36.5834 24.2631 36.491 28.5088C36.3986 32.8469 36.029 36.908 35.1976 40.6923C34.4585 44.4765 34.1813 46.784 34.4585 47.707C34.7356 48.63 35.2899 49.6452 36.1214 50.9374C36.9529 52.2296 37.9692 53.6141 39.2626 54.9986C40.5561 56.4754 42.219 58.1367 44.2516 59.8904C46.2841 61.7364 47.4852 63.0286 47.9471 63.8592C48.409 64.6899 48.9634 65.7052 49.8872 66.9974L49.4253 67.4589L49.8872 68.7511C49.6101 68.4742 49.3329 68.2896 49.1481 68.2896L50.1644 70.5048L50.9035 70.9663V71.9815L49.1481 72.3507L49.4253 73.0891H47.5775C47.9471 73.7352 47.9471 74.289 47.5775 74.7505L49.7025 75.9504H49.3329C49.2405 75.9504 48.9634 75.8581 48.5014 75.5812C48.0395 75.3043 47.7623 75.212 47.5775 75.212C47.3928 75.212 47.1156 75.1197 46.5613 74.9351L46.2841 75.3966L47.7623 76.5965L45.3602 76.2273V76.9657H43.9744L43.6973 77.4272L44.7135 78.627L44.4364 78.8116C40.5561 77.1503 37.1377 74.9351 34.1813 72.2584C31.3173 69.5818 28.8228 66.5359 26.7902 63.2132C23.2795 69.6741 18.8449 75.3043 13.5788 80.1038C9.79086 83.1497 5.6334 85.5494 1.19878 87.4877C0.644449 86.1955 1.014 85.088 2.21504 84.165L1.66072 84.0727L1.014 84.165V71.8892C4.33997 69.7664 7.38877 67.0897 10.1604 64.0438C10.7147 63.3055 11.0843 62.7517 11.3615 62.3825C11.6386 62.0133 11.731 61.6441 11.8234 60.998C11.9158 60.3519 12.3777 59.6135 13.1168 58.7828C13.9483 57.8598 14.595 57.1214 15.057 56.3831C15.5189 55.6447 15.8885 55.0909 15.8885 54.6294C15.9809 54.1679 16.258 53.6141 16.72 52.968C17.1819 52.3219 17.7362 51.4912 18.4753 50.2913C19.2144 49.0915 19.6764 48.0762 20.0459 47.1532C20.4155 46.2302 20.6003 45.3072 20.6926 44.2919C20.785 43.2766 21.0622 42.2613 21.4317 41.1538C21.8937 40.0462 22.0785 39.1232 22.0785 38.5694C22.0785 38.0156 22.1709 37.2772 22.3556 36.4465C22.5404 35.6158 22.7252 33.9545 22.7252 31.4624C22.8176 28.878 22.8176 26.2014 22.7252 23.4324C22.6328 20.6634 22.3556 17.6176 21.8013 14.4794C21.247 11.3413 20.8774 9.4953 20.6003 8.94151C20.3231 8.38772 20.0459 7.74163 19.6764 7.09553L17.3667 5.15726C18.1058 5.15726 18.7525 4.97266 19.4916 4.60347V3.40359L20.9698 2.3883V1.74221C21.3394 1.64991 21.6165 1.55761 21.8013 1.46531C21.9861 1.37301 22.2632 1.28071 22.6328 1.28071C23.0947 1.28071 23.7414 1.18842 24.6653 1.00382ZM44.6211 101.702L43.7896 102.44L44.4364 102.532C43.2353 103.271 41.9419 103.732 40.7408 103.917L41.7571 103.179L41.4799 102.994C35.7519 105.024 29.8391 106.594 23.7414 107.701V107.332L22.91 107.147C23.4643 107.055 23.8338 106.963 24.0186 106.87C24.2034 106.778 24.4806 106.686 24.9425 106.778C25.4044 106.778 25.6816 106.778 25.9588 106.686C26.2359 106.594 26.4207 106.501 26.6055 106.224L25.774 105.947L26.3283 105.855V105.486C26.8826 105.578 27.3446 105.486 27.8065 105.117C27.6217 105.486 27.6217 105.855 27.8065 106.132C28.1761 105.855 28.5456 105.763 28.9152 105.578C29.2847 105.486 29.6543 105.394 30.1162 105.394C30.5782 105.394 30.9477 105.301 31.3173 105.209C31.6868 105.024 32.3335 104.84 33.4422 104.655V104.194H32.7031C32.8879 104.101 33.165 104.009 33.5346 103.732C33.9965 103.548 34.3661 103.363 34.5508 103.455C34.7356 103.455 35.0128 103.455 35.2899 103.271C35.5671 103.086 35.8443 102.994 36.1214 103.086C36.3986 103.086 36.5834 103.086 36.7682 103.086C36.9529 103.086 37.2301 102.994 37.7844 102.809L38.0616 103.179C39.2626 103.548 40.5561 103.363 41.7571 102.44H40.7408L42.8658 101.517L42.5886 101.148L43.882 100.594C44.2516 100.871 44.8059 100.963 45.3602 100.686C45.0831 100.871 45.0831 101.148 45.2678 101.24L46.9308 100.502C46.9308 100.225 46.7461 99.8558 46.4689 99.5789L46.7461 99.4866L47.208 99.7635L49.9796 98.379L49.7025 98.0098L54.2295 95.7946C53.9523 95.9792 53.9523 96.1638 54.2295 96.3484L55.7077 95.4254V94.9639C57.7402 93.764 59.8651 92.7487 62.1748 91.8258L62.6368 90.9951L62.3596 90.8105C61.1586 91.3643 60.1423 91.8258 59.3108 92.2873C58.5717 92.7487 57.5554 93.3025 56.262 94.0409C54.9686 94.7793 53.6752 95.4254 52.3817 95.9792C51.0883 96.533 50.072 96.9945 49.2405 97.3637C48.5014 97.7329 47.7623 97.9175 47.0232 97.9175L46.4689 98.7482L44.7135 99.2097L44.2516 99.948C43.9744 100.04 43.6973 100.04 43.4201 100.04C43.0505 100.04 41.9419 100.317 40.0941 101.056C38.2464 101.794 35.9367 102.44 33.3498 103.179C30.7629 103.917 28.8228 104.378 27.5294 104.655C26.6055 104.84 25.5892 105.117 24.4806 105.394C24.7577 105.301 24.9425 105.209 25.0349 105.024L24.6653 104.932L23.1871 105.394C23.6491 105.578 24.111 105.578 24.4806 105.394C23.9262 105.578 23.3719 105.671 22.8176 105.855V105.394C22.5404 105.394 22.3556 105.394 22.1709 105.301C21.9861 105.301 21.7089 105.394 21.247 105.671C20.785 105.947 20.0459 106.132 18.9373 106.224C17.8286 106.317 16.258 106.501 14.1331 106.686C14.6874 106.594 15.2418 106.409 15.8885 105.947C14.6874 106.132 13.6712 106.224 12.7473 106.04L12.2853 106.594L10.9919 106.686L10.7147 106.87C9.32892 106.87 8.31265 106.87 7.57355 106.778C6.83444 106.778 6.46489 106.778 6.3725 106.87C6.28012 106.963 6.09534 107.147 5.6334 107.24C5.44862 107.055 5.35624 106.963 5.17146 106.87C4.98668 106.778 4.61713 106.778 3.97042 106.778C3.3237 106.778 2.39982 106.87 1.19878 106.87V106.409L1.66072 106.317C1.93788 106.409 2.12266 106.409 2.39982 106.501C2.67699 106.501 3.3237 106.501 4.61713 106.409L10.1604 106.04L10.4376 105.671L9.88325 105.578L13.2092 105.024V104.84L1.014 105.301V102.532C2.95415 102.809 4.80191 102.625 6.55728 102.163C6.3725 101.979 6.18773 101.886 6.00295 101.702C5.81818 101.517 5.44862 101.517 4.8943 101.609C4.33997 101.702 3.60086 101.702 2.5846 101.609V101.979H1.38355L1.014 100.41L6.3725 100.225L6.64967 99.948C5.91056 99.948 5.44862 99.9481 5.07907 99.8558C4.70952 99.8558 4.43236 99.7635 4.24758 99.6712C4.0628 99.5789 3.78564 99.4866 3.41609 99.4866C3.04654 99.4866 2.76937 99.5789 2.49221 99.6712C2.21505 99.7635 1.84549 99.8558 1.38355 99.948L1.014 99.2097C4.8943 99.3943 8.6822 99.0251 12.4701 98.1944L12.1929 98.0098C8.58982 98.5636 4.8943 98.7482 1.29117 98.5636L1.014 98.1021L2.67698 98.0098V97.6406L1.38355 97.5483L1.014 92.0104C4.33997 91.8258 6.64967 91.7335 7.9431 91.8258C9.23653 91.9181 10.3452 91.7335 11.1767 91.272C12.0082 90.8105 12.9321 90.7182 14.0407 90.9028C15.057 91.0874 15.8885 90.9951 16.5352 90.4413C17.1819 89.8875 17.8286 89.6106 18.6601 89.7029C19.3992 89.7029 20.2307 89.7029 20.9698 89.5183C21.7089 89.3337 22.6328 89.2414 23.5567 89.1491C24.4806 89.1491 25.8664 88.8722 27.8065 88.4107C29.7467 87.9492 32.2411 87.3031 35.2899 86.4724C38.3387 85.5494 41.1104 84.6265 43.4201 83.7035C45.7298 82.7805 47.8547 81.6729 49.7949 80.5653C51.735 79.4577 53.4904 78.2579 54.9686 77.058C56.5392 75.8581 57.7402 74.8428 58.7565 74.0121C59.6804 73.1814 61.251 71.7969 63.2835 69.951C64.6693 68.1973 65.6856 66.9051 66.3323 66.1667C66.979 65.4283 67.6257 64.2284 68.4572 62.5671C69.2887 60.9057 70.0278 58.9674 70.6745 56.7523C71.3213 54.5371 71.968 52.3219 72.4299 50.0144C72.8919 47.707 73.169 45.2149 73.169 42.7228C73.169 40.2308 73.0766 37.9233 72.8919 35.985C72.7071 33.9545 72.5223 32.4777 72.3375 31.5547C72.1527 30.6317 71.8756 29.2472 71.506 27.309L70.9517 26.9398L71.506 26.4783C70.6745 26.4783 70.0278 26.4783 69.5659 26.386C69.1039 26.386 68.4572 26.4783 67.5333 26.9398C66.6095 27.309 64.9465 27.6782 62.5444 27.955C60.0499 28.2319 58.6641 28.3242 58.4793 28.1396C58.2022 27.955 57.8326 27.7704 57.3707 27.4013C57.0935 26.6629 56.9087 26.0168 56.8163 25.6476C56.724 25.1861 56.724 24.6323 56.724 23.7093C56.724 22.8786 56.8163 22.0479 57.0935 21.2172C57.3707 20.3865 57.4631 19.5559 57.4631 18.6329C57.4631 17.7099 57.3707 17.1561 57.0935 16.8792C56.8163 16.6023 56.4468 16.1408 55.8925 15.587C56.0772 15.2178 56.1696 14.8486 56.262 14.5717C56.3544 14.2948 56.4468 14.0179 56.5392 13.5564C56.6316 13.1873 56.8163 12.8181 57.2783 12.4489C57.6478 12.0797 58.0174 11.7105 58.2946 11.4336C58.5717 11.0644 59.0337 10.6029 59.7728 9.95679H60.789L61.0662 8.94151C61.4357 8.94151 61.8977 8.84921 62.2672 8.75691C62.7292 8.66461 63.7454 8.66461 65.5008 8.94151C67.2562 9.21841 69.3811 9.21841 71.968 9.03381C74.5548 8.84921 78.7123 8.84921 84.348 8.84921C89.9836 8.84921 93.2172 8.84921 94.0487 8.75691C94.8802 8.66461 95.6193 8.48002 96.266 8.20312H96.5432L96.1736 8.75691L96.9127 9.03381L96.1736 9.3107L96.9127 10.1414C98.6681 10.7875 100.516 10.8798 102.456 10.6029L102.733 26.2937C97.7442 26.2937 92.6629 26.2014 87.6739 25.9245C87.6739 26.0168 87.9511 27.8627 88.5054 31.5547C89.0597 35.2466 89.3369 38.5694 89.3369 41.523C89.3369 44.4765 89.2445 47.2455 89.0598 49.8298C88.875 52.4142 88.5054 54.9063 88.0435 57.306C87.5815 59.7058 86.9348 62.0133 86.2881 64.3207C85.549 66.6282 84.7175 68.8434 83.6089 70.9663C82.5002 73.0891 81.4839 75.1197 80.4677 76.8734C79.4514 78.627 78.6199 79.9192 77.8808 80.6576C77.1417 81.396 76.1254 82.7805 74.7396 84.6265C73.169 86.2878 72.0604 87.3954 71.2289 88.2261C70.3974 88.9645 69.7507 89.426 69.1963 89.426C68.642 89.426 68.2725 89.6106 67.9953 90.1644C67.7181 90.6259 66.979 91.3643 65.778 92.2873L65.5008 93.2102C64.7617 93.1179 64.2998 93.2102 63.8378 93.5794L64.6693 93.9486L64.3922 94.1332L63.3759 93.764L64.115 92.9333V92.5641L57.3707 96.533L57.8326 96.8099C57.5554 97.3637 57.2783 97.7329 57.0935 98.0098C55.8925 98.8405 54.7838 99.3943 53.7675 99.6712L53.4904 100.133L53.2132 99.948C52.8437 100.225 52.4741 100.41 52.1969 100.317L53.6752 99.3943L52.8437 98.9328L52.3817 99.6712C51.2731 99.8558 50.3492 100.41 49.5177 101.148L49.2405 100.779C49.4253 101.517 49.2405 101.979 48.871 102.44V101.148C47.6699 101.425 46.7461 101.886 46.0993 102.625V102.256C46.0993 102.163 46.2841 101.979 46.6537 101.702C47.0232 101.425 47.208 101.24 47.208 101.148V101.056L45.4526 101.609L45.1755 102.071L44.4364 102.532L44.8983 101.794L44.6211 101.702ZM5.72579 17.9868C6.55728 18.1714 7.57355 18.2637 8.86698 18.356L9.42131 19.1867C10.2528 19.9251 11.2691 20.3866 12.4701 20.4788C12.4701 20.6634 12.7473 21.0326 13.2092 21.4941C13.6712 21.9556 14.1331 22.5094 14.5026 23.2478C14.8722 23.9862 15.1494 25.2784 15.3341 27.1244C15.5189 28.9703 15.6113 31.9239 15.6113 35.8927V45.4918C15.6113 47.8916 15.4265 49.5529 15.057 50.3836C14.6874 51.3066 14.5026 51.9527 14.4103 52.4142C14.3179 52.8757 14.1331 53.7064 13.9483 54.814L13.2092 54.9063L11.8234 56.2908V55.8293H11.5462L11.2691 56.8445C10.9919 56.1062 10.6224 55.5524 10.3452 54.9986L9.5137 57.7675V56.8445C9.5137 56.66 9.5137 56.2908 9.60608 55.737C9.69847 55.1832 9.69847 54.4448 9.69847 53.7064L7.57355 53.1526C7.38877 53.3372 7.29638 53.6141 7.204 54.1679C7.11161 54.7217 7.01922 55.1832 6.83444 55.4601C6.64967 55.8293 6.3725 56.3831 6.09534 57.1214C5.81818 56.9368 5.81818 56.7523 5.91056 56.5676C6.00295 56.3831 6.18773 56.0139 6.28012 55.5524C6.46489 55.0909 6.55728 54.4448 6.55728 53.7987L5.72579 53.7064L5.26385 54.9063L4.70952 54.7217L4.24758 54.9063L3.87803 54.1679C3.13892 53.891 2.49221 53.9833 1.75311 54.3525L1.014 53.891V18.7252C2.67699 18.8175 4.24758 18.5406 5.72579 17.9868ZM4.98668 82.9651L4.15519 83.7035H4.98668L5.26385 83.1497L4.98668 82.9651ZM6.83444 80.7499L4.98668 82.0421L5.35624 82.2267C6.09534 82.0421 6.64967 81.4883 7.11161 80.8422L6.83444 80.7499ZM23.3719 94.687C23.0947 94.8716 20.9698 95.2408 17.0895 95.7946C13.2092 96.3484 11.0843 96.7176 10.8995 96.8099L10.1604 96.9945L9.69847 96.8099L8.40504 97.5483L8.6822 97.7329C13.5788 96.9945 18.4753 96.1638 23.3719 95.0562L23.8338 94.687H23.3719ZM10.7147 99.3943L8.6822 99.7635L8.95937 100.133C9.79086 100.225 10.53 100.04 11.0843 99.5789L10.7147 99.3943ZM24.0186 91.0874L23.9262 90.9951C23.8338 90.9028 23.1871 90.9951 21.8937 91.272C20.6003 91.5489 18.8449 92.0104 16.6276 92.5641L16.0732 92.7487L15.7961 92.5641C14.595 92.5641 13.4864 92.9333 12.6549 93.764H13.9483C14.3179 93.764 14.6874 93.6717 14.9646 93.4871C15.2418 93.3025 15.6113 93.2102 16.1656 93.2102C16.6276 93.2102 17.4591 93.118 18.6601 92.6565C19.8612 92.2873 20.9698 91.9181 22.2632 91.6412C23.4643 91.4566 24.0186 91.272 24.0186 91.0874ZM16.0732 97.1791C14.8722 97.3637 13.7635 97.5483 12.7473 97.9175L13.0244 98.379C14.1331 98.1944 15.1494 97.9175 16.1656 97.456V97.1791H16.0732ZM17.921 107.978L15.3341 109.178C14.9646 108.901 14.4103 108.716 13.6712 108.809L15.9809 107.978H17.921ZM22.0785 103.825C20.5079 104.009 19.3992 104.009 18.5677 104.009C17.8286 104.009 17.2743 104.009 17.0895 104.101C16.9047 104.194 16.6276 104.286 16.3504 104.563C16.5352 104.655 16.6276 104.655 16.8123 104.655C16.9971 104.655 17.3667 104.563 18.1058 104.378C18.8449 104.194 19.3992 104.194 19.8612 104.378C20.3231 104.563 20.6003 104.563 20.8774 104.378C21.1546 104.194 21.5241 104.009 21.9861 103.825H22.0785ZM20.3231 104.932L16.8123 105.117V105.486H19.9535L20.5079 105.024L20.3231 104.932ZM40.2789 95.7023C40.0017 95.7023 39.9093 95.7023 39.9093 95.61C39.9093 95.5177 39.1702 95.7023 37.692 96.1638C36.2138 96.6253 35.1976 96.9022 34.6432 96.9945C34.0889 97.0868 33.7193 97.2714 33.627 97.456C33.5346 97.6406 33.3498 97.8252 32.8879 98.0098L32.6107 97.6406C32.3335 97.7329 31.8716 97.8252 31.2249 98.1021C30.5782 98.2867 29.9314 98.4713 29.0999 98.6559C28.2685 98.7482 27.6217 98.9328 26.975 99.2097C26.4207 99.4866 25.0349 99.8558 22.91 100.41C20.785 100.871 19.3992 101.148 18.8449 101.148L19.4916 100.686L19.2144 100.502C18.8449 100.686 18.4753 100.686 18.1058 100.686C17.7362 100.686 17.5515 100.779 17.4591 100.871C17.3667 101.056 17.1819 101.148 16.9971 101.24L17.5515 101.425C17.3667 101.609 17.2743 101.702 17.2743 101.886C22.0785 101.609 26.7902 100.594 31.502 99.0251L31.7792 98.4713L32.1488 98.6559C33.3498 98.1944 34.0889 97.9175 34.6432 97.7329C35.1052 97.5483 35.6595 97.456 36.3062 97.456C36.9529 97.456 37.5073 97.2714 37.9692 96.9945C38.4311 96.7176 38.8931 96.533 39.1702 96.3484C39.5398 96.2561 39.817 95.9792 40.2789 95.7023ZM20.3231 96.1638L19.7688 96.7176C20.3231 96.8099 20.8774 96.7176 21.4317 96.3484L20.3231 96.1638ZM23.0023 103.179L22.6328 103.917C23.2795 104.009 24.0186 103.917 24.8501 103.825L25.2197 103.271H23.0023V103.179ZM24.6653 104.101L23.3719 104.563L23.0023 104.748C23.5567 104.932 24.111 104.748 24.6653 104.194V104.101ZM26.5131 98.7482L24.111 99.4866V99.8558C25.0349 99.9481 25.9588 99.6712 26.7902 98.9328L26.5131 98.7482ZM30.3934 103.179L30.0238 103.548H31.4096L31.6868 103.179H30.3934ZM38.8931 100.871L36.029 101.794V102.071C37.1377 101.979 38.0616 101.609 38.8931 101.056V100.871ZM37.5996 102.902L36.3062 103.271V103.825H37.3225L37.7844 102.994L37.5996 102.902ZM48.6862 14.664C49.0558 14.664 49.3329 14.664 49.5177 14.5717C49.7025 14.4794 49.9796 14.664 50.534 15.1255C51.0883 15.587 51.9198 16.2331 53.2132 17.1561L53.9523 19.279H53.2132V26.5706C53.2132 28.1396 53.1208 30.5394 52.8437 33.9545C52.5665 37.3695 52.2893 39.3078 51.9198 39.7693C51.5502 40.2308 51.0883 41.3384 50.3492 43.092L49.5177 42.5382L48.5014 42.9997C48.3167 44.6611 48.1319 46.1379 47.9471 47.5224C47.6699 45.861 47.6699 44.1073 47.9471 42.3536C47.4852 42.6305 47.1156 42.8151 46.8384 42.9074C46.5613 42.9074 46.2841 43.092 46.0993 43.4612C45.8222 43.8304 45.545 44.015 45.2678 44.015C44.8983 44.015 44.4364 44.1073 43.9744 44.1996L43.1429 44.6611L41.018 45.1226L40.7408 44.2919L38.0616 44.7534L39.2626 44.015L40.2789 42.9997C40.2789 42.2613 40.1865 41.6153 40.0941 41.2461C40.0017 40.8769 39.9093 40.0462 39.9093 38.9386C39.9093 37.7387 40.0017 36.7234 40.1865 35.7081C40.3713 34.6929 40.4637 33.7699 40.3713 32.8469C40.2789 31.9239 40.3713 30.724 40.4637 29.1549C40.6484 27.5858 40.9256 25.9245 41.4799 24.1708C42.0343 22.3248 42.3114 21.2172 42.3114 20.6634V18.5406L40.9256 17.8022L44.4364 15.9562L45.7298 15.0332L46.9308 15.4024L47.4852 15.0332L47.9471 15.2178L48.6862 14.664ZM40.9256 100.225C40.4637 100.225 40.0017 100.41 39.4474 100.686C40.0017 100.871 40.4637 100.779 40.9256 100.225ZM43.6049 94.5947C43.4201 94.5947 43.2353 94.5947 43.0505 94.5024C42.8658 94.4101 42.5886 94.5024 42.3114 94.687C42.0343 94.8716 41.5723 95.0562 40.8332 95.2408C41.5723 95.7946 42.219 95.7946 42.9581 95.2408L43.6049 94.5947ZM44.6211 101.24C43.5125 101.517 42.5886 101.979 41.7571 102.44C41.7571 102.532 41.8495 102.532 42.0343 102.532C42.219 102.532 42.4962 102.44 42.9581 102.163C43.4201 101.979 43.9744 101.702 44.6211 101.425V101.24ZM45.7298 98.5636C45.545 98.5636 45.4526 98.5636 45.3602 98.4713C45.2678 98.379 44.9907 98.4713 44.4364 98.6559C43.882 98.8405 43.0505 99.302 42.0343 99.8558V100.04C43.2353 99.9481 44.4364 99.4866 45.7298 98.5636ZM45.7298 96.533L44.7135 96.9022V97.2714L46.007 96.7176L45.7298 96.533ZM45.7298 100.594L45.3602 100.686C45.4526 100.686 45.545 100.594 45.7298 100.594ZM52.8437 97.456L49.9796 98.7482V99.2097L51.3655 98.6559L47.8547 100.502L48.2243 100.963L51.8274 99.1174V98.5636L53.2132 97.6406L52.8437 97.456ZM53.8599 97.5483L52.3817 98.1021V98.5636L53.8599 97.7329V97.5483ZM54.2295 98.1021L53.398 98.5636L53.6752 98.8405L54.5066 98.379L54.2295 98.1021ZM56.3544 95.61L53.6752 96.9945V97.456C54.7838 96.9945 55.7077 96.4407 56.5392 95.7023L56.3544 95.61ZM56.3544 97.1791L55.3381 97.6406L54.5066 98.6559L54.7838 99.0251L55.6153 98.1021H56.0772L56.6316 97.3637L56.3544 97.1791ZM58.7565 94.1332L57.0011 95.1485L57.2783 95.61L59.126 94.2255L58.7565 94.1332ZM65.316 91.5489L64.4845 92.2873L64.7617 92.5641L65.5932 91.7335L65.316 91.5489ZM66.4247 87.8569L65.5932 88.5953V88.9645L66.4247 88.7799L66.7019 88.0415L66.4247 87.8569ZM68.2725 89.1491L66.8866 90.1644L67.2562 90.5336L68.2725 89.2414V89.1491Z" fill="white"/>
<path d="M90.7226 117.024L90.5378 116.193C90.7226 115.916 90.9998 115.639 91.1845 115.454C91.3693 115.27 91.5541 114.993 91.5541 114.531C91.6465 114.07 91.8313 113.516 92.1084 112.593L93.1247 111.763C93.1247 111.024 93.4019 110.378 93.8638 109.547L94.7877 108.717L95.7116 107.24L95.2496 106.409L95.4344 106.132H97.1898C97.6517 106.132 98.2984 106.04 99.0375 105.855C99.7766 105.671 100.885 105.579 102.271 105.579C103.657 105.579 105.135 105.486 106.706 105.302C108.276 105.117 110.494 104.84 113.542 104.286C113.727 104.471 114.651 104.471 116.314 104.286C117.977 104.102 119.178 104.286 119.825 104.656C120.472 105.117 121.211 105.117 121.95 104.932C122.689 104.656 123.705 104.563 124.999 104.563C126.292 104.563 127.678 104.748 129.248 105.117C130.819 105.486 133.036 105.579 135.9 105.486C138.764 105.394 141.166 105.209 143.014 104.932C144.862 104.656 146.617 104.748 148.373 105.209C150.036 105.671 151.144 105.948 151.514 106.132C151.976 106.317 152.345 106.594 152.623 106.963C153.454 107.794 154.193 108.44 154.84 108.901C155.487 109.363 155.764 110.378 155.671 112.039C155.579 113.701 155.487 114.624 155.302 114.808C155.117 114.993 154.932 115.27 154.932 115.824C154.563 115.639 154.193 115.547 154.008 115.454C153.731 115.362 153.454 115.454 153.177 115.731C152.807 116.008 152.161 116.285 151.237 116.747L151.052 117.208H150.313C150.036 117.208 147.911 118.408 143.753 120.9C139.596 123.392 137.009 124.777 135.993 125.146C134.976 125.515 134.237 125.884 133.868 126.161C133.498 126.53 133.221 126.715 133.036 126.715C132.852 126.715 132.574 126.807 132.205 126.9L131.743 127.361L131.189 127.73C131.096 127.361 131.281 126.992 131.65 126.715H132.667L132.759 126.161L133.775 125.7C133.591 125.7 133.498 125.7 133.498 125.607C133.498 125.515 133.313 125.607 132.944 125.7C132.667 125.884 132.205 125.977 131.743 126.069C131.281 126.161 130.542 126.346 129.526 126.807L129.895 126.53H129.526L127.863 127.269L127.678 127.823L128.047 128.284C128.879 128.469 129.71 128.284 130.634 127.823L131.004 128.284C133.591 128.469 135.438 128.561 136.639 128.561C137.84 128.561 138.672 128.653 139.134 128.838C139.411 128.93 139.688 128.93 139.965 128.93H138.302C137.84 128.93 137.563 128.93 137.379 129.022L136.917 129.392H137.656C137.933 129.392 138.857 129.761 140.427 130.407C141.998 131.145 145.786 131.33 151.791 131.238C157.796 131.053 161.861 131.145 163.986 131.514C166.111 131.884 167.867 132.068 169.252 132.161C170.638 132.253 172.394 132.437 174.611 132.714V133.176C174.426 133.176 173.502 133.084 171.839 132.899C170.176 132.714 168.421 132.622 166.666 132.437C164.91 132.253 163.247 132.068 161.677 131.884C160.014 131.699 159.09 131.699 158.628 131.976L158.905 132.253C159.921 132.437 160.66 132.437 161.122 132.345C161.584 132.253 162.139 132.345 162.693 132.53C163.247 132.714 164.171 132.991 165.372 133.268C166.573 133.545 167.959 133.637 169.345 133.545C170.731 133.453 171.747 133.545 172.394 133.637C173.04 133.822 173.779 133.822 174.611 133.822L174.703 138.991H173.317V139.544L174.703 139.729V142.867H170.269V143.329L170.638 143.052L171.1 143.882L172.763 144.252C171.193 144.436 169.714 144.252 168.329 143.882H169.714L169.345 143.329C168.606 143.144 167.959 143.144 167.589 143.236C167.127 143.329 166.758 143.052 166.296 142.498C165.834 141.944 165.187 141.667 164.263 141.76C163.34 141.852 162.508 141.852 161.769 141.76C161.03 141.667 160.476 141.667 160.198 141.667H158.72L158.997 142.129H160.198L159.921 142.59C159.09 142.313 157.519 142.129 155.209 142.129C152.9 142.129 150.682 142.037 148.465 141.852C146.34 141.667 144.215 141.667 142.09 141.667C139.965 141.667 138.764 141.76 138.395 141.852L138.857 142.129H141.628C143.476 142.129 145.693 142.221 148.28 142.498C150.867 142.775 152.992 142.867 154.563 142.683C156.226 142.59 157.427 142.59 158.258 142.867L159.09 143.052C158.628 142.96 158.073 142.96 157.427 143.052C156.688 143.236 155.209 143.144 152.715 142.867C150.313 142.59 147.541 142.498 144.492 142.498C141.444 142.498 138.949 142.313 137.009 142.037C135.069 141.76 133.406 141.575 132.112 141.667C130.819 141.76 129.433 141.667 128.047 141.575C127.863 142.59 127.493 143.421 126.846 144.252L125.46 144.805L124.721 145.544H126.2C126.107 145.913 126.107 146.19 126.107 146.375C126.107 146.559 126.015 146.836 125.738 147.205C125.46 147.667 125.183 148.313 124.906 149.144C124.629 150.067 124.259 150.62 123.798 150.989C123.336 151.359 122.689 151.912 121.95 152.743H122.504L122.596 153.205H121.395L120.656 154.22L119.178 154.589V155.051L120.379 155.512H119.917L119.086 156.251H120.01L118.716 157.174C118.901 156.989 118.993 156.804 118.993 156.435L117.792 156.989V155.974L112.803 161.142V161.419C113.358 161.604 113.82 161.419 114.189 160.958C114.374 161.235 114.651 161.512 114.928 161.696H113.173C112.803 162.527 112.249 163.265 111.695 163.819C110.401 164.004 109.2 164.281 108.092 164.65V164.927H110.216C109.108 165.942 108.092 166.219 107.075 165.757C106.151 166.588 105.228 167.049 104.211 167.142L103.657 167.972C103.934 168.157 104.211 168.249 104.304 168.342C104.396 168.434 104.396 168.526 104.396 168.619V168.895H102.918C102.641 168.895 101.717 169.265 100.331 169.911C98.9451 170.557 97.8365 171.111 97.005 171.295C96.1735 171.572 95.4344 171.757 94.7877 172.034C94.141 172.311 93.5866 172.403 93.1247 172.403L93.8638 172.126L93.9562 171.572L93.4942 171.295L94.3257 170.834L93.9562 170.28L93.4019 170.557L93.4942 170.095C93.8638 170.095 94.141 170.095 94.3257 170.003C94.5105 169.911 94.7877 169.726 95.1572 169.357C95.5268 168.988 95.804 168.895 95.9887 168.988C96.1735 169.08 96.3583 168.988 96.3583 168.895L96.9126 168.342C97.5593 168.342 98.1137 168.065 98.7604 167.511V167.142C98.1137 167.419 97.1898 167.788 95.9887 168.434C94.7877 169.08 93.9562 169.357 93.5866 169.449C93.2171 169.542 92.8475 169.634 92.5704 169.818C92.2932 170.003 91.4617 170.28 90.0759 170.649C88.6901 171.018 87.7662 171.295 87.0271 171.48C86.3804 171.664 86.0108 171.941 85.826 172.126C85.6413 172.31 85.3641 172.403 84.9946 172.403L85.3641 172.864H84.5326C83.9783 172.864 83.2392 173.141 82.1305 173.787C81.1143 174.433 80.3752 174.71 80.0056 174.71L79.7284 175.264L78.5274 175.449V174.895C77.7883 174.895 77.1416 174.895 76.772 174.803C76.4025 174.71 76.0329 174.803 75.8481 174.987C75.571 175.172 75.109 175.356 74.2776 175.633C73.4461 175.91 72.245 176.372 70.6744 177.018L70.582 174.71C72.1526 174.526 73.5384 173.787 74.8319 172.403C74.6471 172.403 74.3699 172.403 74.2776 172.311C74.0928 172.218 73.908 172.311 73.7232 172.403C73.5384 172.587 73.0765 172.68 72.4298 172.864L72.0602 172.126H71.3211C72.5222 171.941 73.6308 171.664 74.9243 171.295L74.0928 170.28C73.0765 171.018 72.1526 171.018 71.2287 170.557L70.6744 171.111V168.434C71.2287 168.988 71.8755 168.988 72.5222 168.434L72.6146 168.988L73.908 168.434L74.8319 167.696C75.8481 167.696 76.6796 167.603 77.234 167.511C77.8807 167.419 78.3426 167.234 78.7122 167.049C79.0817 166.865 79.4513 166.773 79.6361 166.773H80.1904L79.9132 166.957L80.6523 167.049L80.7447 166.311L82.962 165.573C82.5925 165.388 82.3153 165.203 82.1305 165.019C81.9458 164.834 81.5762 164.834 81.0219 165.111C80.4675 165.388 79.5437 165.573 78.2502 165.757L78.6198 164.927C78.435 164.927 78.2502 164.927 78.0655 164.834C77.9731 164.742 77.7883 164.834 77.5111 165.019C77.234 165.203 76.8644 165.48 76.2177 165.757L76.5873 165.573H73.0765C74.5547 165.203 75.7558 164.927 76.5873 164.834C77.5111 164.742 78.2502 164.557 78.897 164.188C79.5437 163.819 80.098 163.634 80.4675 163.634H81.8534L81.299 163.911L81.4838 164.281H83.424L82.6849 164.465L82.962 164.742C83.6087 165.296 84.2555 165.204 84.9022 164.465L85.4565 164.742C86.0108 164.188 86.6575 163.819 87.5814 163.727L87.1195 163.265C85.4565 164.281 83.8859 164.188 82.4077 162.896C82.7772 162.619 83.1468 162.342 83.3316 162.158C83.5163 161.973 83.8859 161.881 84.4402 162.065C84.9022 162.158 85.9184 162.065 87.489 161.604C89.0596 161.142 90.2607 160.773 91.1845 160.404V160.219H89.0596C89.7063 159.85 90.3531 159.573 90.9998 159.389L91.1845 160.219C91.9237 160.219 92.5704 159.942 93.3095 159.389L92.7551 159.112C92.9399 159.112 93.1247 158.927 93.1247 158.558H91.7389V157.543H94.7877L93.5866 158.558L94.0486 158.927C94.7877 158.558 95.6192 158.097 96.4507 157.543V156.804L94.3257 157.266L96.2659 156.435L97.1898 156.989L99.5919 155.974H98.5756L98.8528 155.512L97.9289 155.143C98.5756 155.235 99.2223 155.235 99.869 155.235L99.4071 155.42L99.7766 155.697C101.347 155.42 102.825 154.681 104.211 153.482L104.026 152.097C103.749 152.374 103.103 152.559 102.086 152.651C101.162 152.835 100.331 153.02 99.6842 153.205C99.0375 153.389 98.1137 153.666 96.9126 153.943V154.497H97.3745L95.4344 155.235L96.2659 155.42L93.4942 156.343L93.8638 155.881C94.4181 155.604 95.0648 155.235 95.7116 154.958V154.497L94.4181 155.235L95.4344 153.943C96.6354 153.389 97.5593 152.928 98.1136 152.651C98.668 152.282 99.2223 151.912 99.869 151.359C100.516 150.897 101.162 150.436 101.809 150.159C102.456 149.882 103.287 149.42 104.488 148.682C105.32 147.667 105.967 147.021 106.429 146.651C106.891 146.282 107.26 145.728 107.537 144.99C107.814 144.252 108.461 143.421 109.293 142.406C110.216 141.483 110.586 140.929 110.586 140.837C110.586 140.744 110.494 140.652 110.494 140.467C107.075 140.652 104.304 140.744 102.179 140.837C100.054 140.929 97.4669 141.114 94.4181 141.483C91.3693 141.852 87.951 142.037 84.0707 142.037C80.1904 142.037 77.5111 141.944 75.8481 141.667C74.1852 141.483 72.5222 141.114 70.7668 140.744V131.607C71.5059 131.238 74.6471 130.776 80.2828 130.315C85.9184 129.853 89.8911 129.299 92.1084 128.838C94.3257 128.376 96.5431 128.099 98.5756 127.915C100.701 127.73 103.565 127.73 107.352 127.73C111.048 127.73 112.988 127.73 113.081 127.638C113.173 127.546 113.265 127.546 113.45 127.546C113.358 127.176 113.265 126.9 113.265 126.715L113.173 126.53C113.173 125.977 112.896 124.777 112.249 122.838C112.803 123.115 113.081 123.208 113.265 123.208C113.358 123.208 113.542 122.931 113.727 122.377C113.912 121.823 114.097 121.731 114.282 122.008C114.466 122.285 114.743 122.654 115.205 123.208C115.483 122.654 115.852 122.1 116.222 121.546C117.053 121.915 117.977 122.192 118.901 122.377L119.732 120.439C120.564 121.085 121.488 121.731 122.412 122.377C123.058 122.008 123.428 121.823 123.52 122.008C123.613 122.1 123.89 122.377 124.259 122.654L124.814 122.838C127.401 121.177 129.895 119.331 132.297 117.024V116.193C114.928 116.47 106.151 116.47 105.967 116.377C105.782 116.285 104.95 116.377 103.565 116.654C102.179 116.931 101.07 117.208 100.239 117.485C99.4995 117.762 98.7604 117.854 98.0213 117.854C97.2822 117.854 96.7278 117.947 96.1735 118.223C95.6192 118.408 95.1572 118.593 94.6029 118.777C94.141 118.87 93.5866 118.777 93.1247 118.408C92.5704 118.223 91.8313 117.762 90.7226 117.024ZM72.8917 164.927L70.9516 165.757L70.8592 165.203L72.6146 165.019H72.8917V164.927ZM71.6907 173.326L70.8592 173.787L70.7668 172.772L71.6907 173.326ZM144.492 72.9971C145.139 73.1817 146.248 73.3663 148.003 73.6432C149.666 73.9201 150.682 74.0124 151.052 74.0124C151.422 74.0124 151.699 74.1047 151.883 74.2893C152.068 74.4739 152.53 74.843 153.085 75.5814C153.454 76.0429 153.824 76.4121 154.193 76.7813C154.563 77.1505 154.747 77.612 154.932 78.2581C155.025 78.9042 154.932 79.458 154.655 79.9195C154.378 80.381 154.101 81.0271 153.824 81.8577C153.546 82.5961 153.362 83.4268 153.454 84.1652C153.454 84.9036 153.454 85.642 153.362 86.1958C153.269 86.7496 153.177 87.2111 152.992 87.488C152.807 87.7649 152.623 88.0418 152.253 88.3187C152.53 88.5033 152.807 88.5956 152.992 88.6879C153.177 88.7802 153.546 88.9647 154.193 89.2416C154.84 89.4262 155.487 89.6108 156.133 89.6108C156.872 89.6108 157.519 89.7031 158.351 89.8877C159.09 90.0723 160.106 90.1646 161.215 90.1646C162.416 90.1646 163.617 90.2569 165.003 90.5338C166.388 90.8107 167.774 90.903 169.16 90.7184C170.546 90.5338 171.47 90.7184 171.839 90.9953C172.301 91.2722 172.763 91.3645 173.317 91.3645C173.872 91.3645 174.241 91.2722 174.519 91.0876C174.611 104.748 174.611 111.67 174.519 111.763L174.334 112.224L173.779 111.301L172.763 112.778H174.241L173.502 113.609V113.055H172.671L172.486 112.593L171.1 114.347L170.731 113.609L170.176 114.07C169.992 114.07 169.807 113.978 169.622 113.793C169.437 113.609 169.16 113.609 168.883 113.793C168.606 113.978 168.051 114.07 167.405 114.255V113.793L166.85 113.609L166.296 114.07L166.019 113.609H165.187L165.095 113.055C164.448 113.055 163.986 112.87 163.709 112.593C163.524 111.855 163.524 111.393 163.524 111.024C163.524 110.655 163.524 110.193 163.617 109.64C163.709 109.086 163.709 108.347 163.802 107.517C163.802 106.686 163.802 105.025 163.709 102.533C163.34 102.533 162.693 102.44 161.677 102.163C160.753 101.887 159.644 101.794 158.351 101.794C157.15 101.794 156.041 101.794 155.209 101.702C154.378 101.61 153.177 101.425 151.606 100.964L151.237 100.779L147.079 100.964L146.71 100.502L145.693 99.9483L145.601 100.133C144.492 100.41 143.661 100.502 143.014 100.502C142.367 100.502 141.628 100.41 140.705 100.133C139.781 99.856 138.764 99.7637 137.471 99.856C136.177 99.9483 134.237 99.9483 131.466 99.9483L131.096 99.4868C130.819 99.6714 130.357 99.7637 129.895 99.856C129.433 99.9483 128.047 99.9483 125.645 99.856C123.336 99.7637 119.732 99.856 114.928 99.9483C110.124 100.133 105.597 100.133 101.44 100.133C97.2822 100.133 93.4943 100.225 89.9835 100.41C86.4728 100.594 84.625 100.871 84.3478 101.148C84.0707 101.425 83.7935 101.517 83.5163 101.517C83.5163 103.179 83.424 104.471 83.2392 105.302C83.0544 106.132 82.962 107.055 82.8696 108.071C82.8696 109.086 82.7772 110.101 82.5925 111.116C82.4077 112.132 82.3153 113.885 82.2229 116.285C82.0381 116.285 81.8534 116.193 81.761 116.008L81.6686 115.916C81.5762 116.008 81.4838 116.008 81.3914 116.008V117.854L80.9295 118.039V119.054C80.6523 118.87 80.4675 118.685 80.3752 118.408C80.3752 118.131 80.1904 117.854 80.0056 117.485C79.8208 117.116 79.7284 116.747 79.6361 116.47C79.6361 116.101 79.5437 115.916 79.3589 115.916L79.0817 116.747L77.7883 117.208L75.6634 115.916C74.9243 116.47 74.1852 116.654 73.2613 116.47L73.6308 117.762L73.2613 118.223C72.6146 118.223 72.1526 118.039 71.7831 117.762L70.582 117.947V88.2264C72.5222 88.2264 74.0928 88.2264 75.2938 88.1341C76.4949 88.0418 77.7883 88.411 79.1741 89.3339C80.5599 90.1646 82.4077 90.3492 84.625 89.98C86.8423 89.5185 88.0434 89.2416 88.2281 89.1493L89.152 86.3804C88.9672 86.1958 88.8749 85.642 88.7825 84.6267C88.6901 83.6114 88.4129 82.5961 88.0434 81.6732C87.6738 80.7502 87.3043 80.0118 86.8423 79.458H87.3966C87.951 78.4427 88.6901 77.5197 89.614 76.5967C90.4454 75.9506 91.1845 75.3968 91.7389 74.9353C92.2932 74.4738 93.2171 74.2893 94.4181 74.3816C95.7116 74.5661 97.0974 74.5661 98.668 74.3816C100.239 74.197 101.624 74.2893 102.641 74.6585C103.749 75.0276 104.488 75.3045 105.043 75.6737C105.505 75.9506 106.151 76.5044 106.798 77.1505C107.075 77.4274 107.352 77.7043 107.63 77.9812C107.814 78.2581 107.999 78.7196 108.092 79.2734C108.184 79.9195 108.092 80.6579 107.814 81.4886C107.63 82.3192 107.352 83.1499 107.26 83.8883C107.075 84.6267 106.983 86.0112 106.798 88.0418H115.575C115.76 86.1958 115.852 84.9036 115.852 84.0729C115.852 83.3345 115.852 82.5038 115.76 81.6732C115.667 80.8425 115.483 80.1041 115.205 79.5503C114.928 78.9965 114.743 78.6273 114.651 78.3504C114.559 78.0735 114.559 77.8889 114.559 77.7966L115.945 76.1352L117.33 75.3968L118.347 74.1047C120.749 74.1047 122.504 74.1047 123.613 74.0124C124.721 73.9201 125.461 74.0124 125.83 74.1047C126.2 74.2892 126.569 74.5661 127.031 74.9353C127.678 75.6737 128.14 76.2275 128.417 76.5967C128.694 76.9659 128.879 77.4274 128.971 78.0735C129.064 78.7196 128.879 79.458 128.602 80.2887C128.232 81.1194 128.047 82.0423 128.047 83.0576V87.488C128.509 87.9495 129.156 88.2264 129.895 88.2264L130.634 87.7649L139.042 88.2264V86.4727C139.042 86.1958 139.134 85.7343 139.411 85.2728C139.688 84.8113 139.781 84.1652 139.781 83.5191C139.781 82.7807 139.781 82.1346 140.058 81.3963C140.243 80.6579 140.243 79.9195 139.965 79.0888C139.688 78.2581 139.411 77.5197 139.134 76.9659C138.857 76.4121 138.764 76.1352 138.764 76.0429V75.766C140.982 75.3045 142.829 74.3816 144.492 72.9971ZM73.0765 177.756V178.587C72.3374 178.587 71.5983 178.587 70.8592 178.679V178.587L72.7993 177.756H73.0765ZM74.5547 178.587C74.7395 178.402 74.9243 178.31 74.9243 178.495C74.9243 178.679 75.0167 178.771 75.2014 178.771C73.7232 179.325 72.4298 179.787 71.1364 180.248L71.2287 180.617H70.8592V180.064C72.1526 179.602 73.3537 179.141 74.5547 178.587ZM75.2938 163.081L74.7395 163.45H77.1416L76.8644 163.727L78.3426 163.911C76.1253 164.465 73.908 164.65 71.8755 164.465L71.5059 163.911L72.707 162.896L75.2938 163.081ZM74.5547 180.525L74.1852 180.987H72.7993C73.1689 180.802 73.7232 180.71 74.4623 180.525H74.5547ZM76.6796 168.342C76.2177 168.342 75.8481 168.342 75.4786 168.249C75.109 168.157 74.9243 168.249 74.7395 168.434C74.5547 168.619 74.2775 168.895 73.908 169.172V169.357L76.6796 168.342ZM74.0004 166.219H74.1852C74.2775 166.219 74.3699 166.311 74.4623 166.496C74.5547 166.68 74.7395 166.865 75.0167 167.049C74.5547 166.957 74.1852 166.68 74.0004 166.219ZM76.4949 171.018L74.5547 172.034H75.8481L76.6796 171.018H76.4949ZM77.0492 169.172C76.4949 169.172 76.1253 169.265 75.8481 169.357H77.0492V169.172ZM79.9132 171.018C79.8208 171.018 79.8208 170.926 79.7284 170.741C79.7284 170.557 79.5437 170.557 79.1741 170.741C78.8969 170.926 78.435 171.111 77.9731 171.295L79.3589 171.572L79.9132 171.018ZM81.299 164.465C80.4675 164.834 79.6361 165.019 78.7122 165.019L79.4513 165.757L80.7447 165.203L81.4838 164.742L81.299 164.465ZM86.7499 173.326C87.3966 173.603 88.1357 173.695 89.0596 173.603L84.625 175.264L84.9022 175.449L82.5001 176.187L83.5163 175.449C83.3316 175.449 83.2392 175.449 83.1468 175.356C83.0544 175.264 82.6849 175.356 82.1305 175.541C81.5762 175.818 80.7447 176.279 79.4513 176.925L79.2665 176.464C80.1904 176.187 81.1143 175.91 82.1305 175.449L81.761 174.895C83.3316 174.803 84.9946 174.341 86.7499 173.326ZM81.4838 173.141C81.2066 173.141 81.1143 173.049 81.1143 172.957C81.1143 172.864 80.9295 172.864 80.7447 173.049C80.5599 173.233 80.098 173.418 79.4513 173.603L80.0056 173.787L81.4838 173.141ZM85.6413 166.403C85.3641 166.403 85.2717 166.403 85.0869 166.311C84.9946 166.219 84.7174 166.219 84.2555 166.311C83.7935 166.403 83.2392 166.588 82.3153 167.049L82.7772 167.419L85.6413 166.403ZM86.288 176.095L82.3153 177.756L82.6849 177.572L85.826 175.91L86.288 176.095ZM90.6302 163.081C90.4454 163.081 90.2607 163.081 90.0759 162.988C89.9835 162.896 89.7063 162.896 89.4292 162.988C89.152 163.081 88.6901 163.265 88.0434 163.45C88.8748 163.727 89.7987 163.634 90.815 163.081H90.6302ZM91.6465 164.096L89.5216 164.465V164.927L90.4454 165.111L91.7389 164.096H91.6465ZM91.1845 172.311L90.7226 172.772L89.8911 173.141L90.7226 172.311H91.1845ZM93.5866 141.114C93.4019 141.114 93.2171 141.114 93.2171 141.021C93.2171 140.929 93.0323 140.929 92.6628 141.021C92.3856 141.114 91.8313 141.114 91.1845 141.114V141.39L94.4181 141.114H93.5866ZM95.4344 167.326C94.6953 167.326 94.0486 167.511 93.5866 167.88V168.342C94.141 168.249 94.7877 167.88 95.4344 167.326ZM97.005 169.726C95.9887 169.449 95.1572 169.634 94.4181 170.188V170.465H95.6192L94.2334 171.48L94.4181 171.757L96.5431 170.465C96.4507 170.188 96.5431 169.911 97.005 169.726ZM101.624 165.757L100.793 165.942V166.219L101.809 165.757H101.624ZM105.597 163.081L102.825 164.742V165.203L104.673 164.465L105.689 163.081H105.597ZM107.26 166.957V167.049L106.244 166.957H107.26ZM110.032 161.05L109.847 160.958C109.847 160.773 109.662 160.773 109.385 160.865C109.108 160.958 108.646 161.142 108.092 161.235L107.722 161.696L108.553 161.973L107.722 162.342C108.461 162.619 109.108 162.435 109.662 161.788L110.032 161.05ZM112.249 128.469C112.064 128.469 111.972 128.469 111.972 128.376C111.972 128.284 111.787 128.284 111.418 128.376C111.14 128.469 110.678 128.561 110.124 128.838L109.847 129.299C110.401 129.299 110.771 129.299 111.14 129.392C111.418 129.484 111.695 129.484 111.879 129.392C112.064 129.299 112.157 129.207 112.341 129.022H112.064L112.803 128.838L112.249 128.469ZM115.945 159.204C116.129 159.204 116.314 159.204 116.499 159.296L116.037 160.035L116.314 160.496L115.945 160.773L115.76 160.496L115.205 160.773L114.466 160.496L115.945 159.204ZM116.591 159.389V159.296L116.499 159.389H116.591ZM117.33 159.481L117.146 159.758L116.684 159.389C116.868 159.389 117.053 159.389 117.33 159.481ZM124.259 146.19L123.705 147.482H124.075L124.629 146.467L124.259 146.19ZM147.449 131.33V131.884C150.036 132.068 151.883 132.161 153.085 132.253C154.286 132.345 155.025 132.345 155.394 132.345C155.764 132.345 156.041 132.253 156.41 132.161L151.514 131.607L147.449 131.33ZM149.943 129.484L148.927 130.038L149.481 130.222H148.557L148.742 130.038L148.28 129.484L149.019 129.299L149.943 129.484ZM152.715 100.041L152.9 100.594L154.286 100.225L154.101 100.041H152.715ZM161.769 129.484L160.568 130.038L161.03 130.222L160.291 130.499L160.198 130.038H157.427V130.499L155.579 129.761C156.318 129.945 157.057 129.761 157.981 129.392H161.769V129.484ZM159.182 143.144C159.09 143.144 158.997 143.144 158.905 143.144C159.09 143.052 159.182 143.052 159.182 143.144ZM160.568 143.421H160.291C160.106 143.421 159.736 143.329 159.275 143.144L160.568 143.421ZM164.633 130.13L163.709 130.315L163.155 129.853L164.633 130.13ZM165.926 130.13V130.315H165.003L165.095 130.13H165.926ZM174.611 131.145L174.241 132.161L173.317 131.884L172.763 131.053H174.611V131.145ZM173.687 140.283L173.225 140.837L174.057 141.021L174.426 140.191H173.687V140.283Z" fill="white"/>
<defs>
<linearGradient id="paint0_linear_4100_14895" x1="64.7409" y1="168.794" x2="64.1329" y2="155.892" gradientUnits="userSpaceOnUse">
<stop stop-color="#C471F5"/>
<stop offset="0.4952" stop-color="#E171E0"/>
<stop offset="1" stop-color="#FA71CD"/>
</linearGradient>
<linearGradient id="paint1_linear_4100_14895" x1="112.82" y1="89.9634" x2="97.3538" y2="97.5214" gradientUnits="userSpaceOnUse">
<stop stop-color="#C471F5"/>
<stop offset="0.4952" stop-color="#E171E0"/>
<stop offset="1" stop-color="#FA71CD"/>
</linearGradient>
<linearGradient id="paint2_linear_4100_14895" x1="80.2842" y1="162.349" x2="77.244" y2="149.081" gradientUnits="userSpaceOnUse">
<stop stop-color="#C471F5"/>
<stop offset="0.4952" stop-color="#E171E0"/>
<stop offset="1" stop-color="#FA71CD"/>
</linearGradient>
<linearGradient id="paint3_linear_4100_14895" x1="100.71" y1="115.067" x2="93.5298" y2="106.783" gradientUnits="userSpaceOnUse">
<stop stop-color="#C471F5"/>
<stop offset="0.4952" stop-color="#E171E0"/>
<stop offset="1" stop-color="#FA71CD"/>
</linearGradient>
<linearGradient id="paint4_linear_4100_14895" x1="77.9154" y1="93.158" x2="77.7624" y2="93.1855" gradientUnits="userSpaceOnUse">
<stop stop-color="#C471F5"/>
<stop offset="0.4952" stop-color="#E171E0"/>
<stop offset="1" stop-color="#FA71CD"/>
</linearGradient>
<linearGradient id="paint5_linear_4100_14895" x1="74.7724" y1="123.319" x2="21.5688" y2="132.92" gradientUnits="userSpaceOnUse">
<stop stop-color="#C471F5"/>
<stop offset="0.4952" stop-color="#E171E0"/>
<stop offset="1" stop-color="#FA71CD"/>
</linearGradient>
<linearGradient id="paint6_linear_4100_14895" x1="20.3983" y1="134.827" x2="39.6041" y2="151.782" gradientUnits="userSpaceOnUse">
<stop offset="0.2155" stop-color="#E7609E"/>
<stop offset="0.3045" stop-color="#DE5D9D"/>
<stop offset="0.4491" stop-color="#C65399"/>
<stop offset="0.6314" stop-color="#9E4593"/>
<stop offset="0.8422" stop-color="#68308C"/>
<stop offset="1" stop-color="#3B1F85"/>
</linearGradient>
<linearGradient id="paint7_linear_4100_14895" x1="26.8555" y1="136.584" x2="44.9648" y2="127.722" gradientUnits="userSpaceOnUse">
<stop stop-color="#ECB944"/>
<stop offset="0.3205" stop-color="#EBA05D"/>
<stop offset="1" stop-color="#E7609E"/>
</linearGradient>
<linearGradient id="paint8_linear_4100_14895" x1="38.244" y1="121.956" x2="26.7488" y2="137.586" gradientUnits="userSpaceOnUse">
<stop offset="0.1157" stop-color="#FDDB92"/>
<stop offset="0.2554" stop-color="#F5E1A5"/>
<stop offset="0.7613" stop-color="#DBF5E6"/>
<stop offset="1" stop-color="#D1FDFF"/>
</linearGradient>
<linearGradient id="paint9_linear_4100_14895" x1="20.4011" y1="136.863" x2="24.2525" y2="136.863" gradientUnits="userSpaceOnUse">
<stop stop-color="#FDDB92"/>
<stop offset="0.158" stop-color="#F5E1A5"/>
<stop offset="0.7301" stop-color="#DBF5E6"/>
<stop offset="1" stop-color="#D1FDFF"/>
</linearGradient>
<linearGradient id="paint10_linear_4100_14895" x1="23.9632" y1="138.925" x2="24.535" y2="129.652" gradientUnits="userSpaceOnUse">
<stop stop-color="#ECB944"/>
<stop offset="0.3205" stop-color="#EBA05D"/>
<stop offset="1" stop-color="#E7609E"/>
</linearGradient>
<linearGradient id="paint11_linear_4100_14895" x1="35.0739" y1="136.13" x2="41.7418" y2="138.779" gradientUnits="userSpaceOnUse">
<stop offset="0.2007" stop-color="#510909"/>
<stop offset="0.7185" stop-color="#190303"/>
<stop offset="1"/>
</linearGradient>
</defs>
</svg>
