<svg width="125" height="280" viewBox="0 0 124 231" fill="none" xmlns="http://www.w3.org/2000/svg">
<path d="M53.6328 62.9297C53.3047 60.9609 53.3047 58.3359 53.6328 55.0547C53.6328 52.7578 53.6328 51.1172 53.6328 50.1328C53.9609 46.5234 55.6016 44.8828 58.5547 45.2109C72.0078 44.2266 86.7734 44.2266 102.852 45.2109C105.805 45.2109 107.445 46.8516 107.773 50.1328C107.773 54.3984 107.773 58.5 107.773 62.4375C107.117 66.0469 104.82 67.8516 100.883 67.8516C88.7422 66.8672 75.2891 66.8672 60.5234 67.8516C56.5859 67.5234 54.2891 65.8828 53.6328 62.9297ZM58.0625 52.5938V59.9766C57.7344 62.6016 58.8828 63.75 61.5078 63.4219C75.2891 62.4375 88.0859 62.4375 99.8984 63.4219C102.195 63.4219 103.344 62.2734 103.344 59.9766V51.6094C103.672 49.9688 102.359 49.1484 99.4062 49.1484C86.9375 48.1641 74.1406 48.1641 61.0156 49.1484C59.0469 49.1484 58.0625 50.2969 58.0625 52.5938ZM43.7891 84.5859C50.6797 83.9297 58.3906 83.6016 66.9219 83.6016C64.9531 80.6484 62.6563 77.6953 60.0312 74.7422C58.7188 73.4297 58.5547 72.2812 59.5391 71.2969C61.1797 70.3125 62.3281 70.3125 62.9844 71.2969C65.9375 74.25 69.0547 78.1875 72.3359 83.1094C72.3359 83.1094 72.3359 83.2734 72.3359 83.6016H88.0859C88.4141 83.2734 88.5781 83.1094 88.5781 83.1094C89.2344 82.125 90.2188 80.9766 91.5312 79.6641C94.1562 76.3828 95.9609 73.7578 96.9453 71.7891C97.6016 70.1484 98.75 69.8203 100.391 70.8047C101.703 71.4609 101.867 72.6094 100.883 74.25C98.2578 77.8594 95.9609 80.9766 93.9922 83.6016C103.18 83.6016 111.219 83.9297 118.109 84.5859C119.422 84.5859 120.078 85.0781 120.078 86.0625C119.422 88.6875 118.109 89.6719 116.141 89.0156C104.656 88.0312 91.0391 87.5391 75.2891 87.5391C60.1953 87.8672 49.2031 88.5234 42.3125 89.5078C40.6719 89.8359 39.8516 89.1797 39.8516 87.5391C40.5078 85.2422 41.8203 84.2578 43.7891 84.5859ZM26.5625 3.375C27.2188 30.2812 26.2344 49.1484 23.6094 59.9766C21.6406 71.1328 16.8828 80.1562 9.33594 87.0469C7.69531 88.3594 5.72656 88.3594 3.42969 87.0469C2.44531 86.3906 2.44531 85.5703 3.42969 84.5859C11.9609 77.3672 17.2109 68.8359 19.1797 58.9922C21.8047 49.1484 22.7891 30.6094 22.1328 3.375C22.1328 2.0625 22.9531 1.24219 24.5938 0.914062C25.9062 1.24219 26.5625 2.0625 26.5625 3.375ZM84.6406 9.28125C85.2969 9.60937 85.625 10.1016 85.625 10.7578C85.9531 10.7578 86.1172 10.7578 86.1172 10.7578C90.3828 8.13281 94.4844 5.17969 98.4219 1.89844C99.4062 0.914062 100.391 1.07813 101.375 2.39062C102.359 3.70312 102.195 4.85156 100.883 5.83594C97.2734 8.78906 93.1719 11.5781 88.5781 14.2031C91.2031 16.5 93.6641 19.125 95.9609 22.0781C99.2422 19.7813 102.688 17.3203 106.297 14.6953C107.281 14.0391 107.938 13.5469 108.266 13.2188C109.578 12.2344 110.727 12.2344 111.711 13.2188C112.695 14.5312 112.203 15.8438 110.234 17.1562C110.234 17.1562 110.07 17.3203 109.742 17.6484C107.117 19.9453 103.672 22.4062 99.4062 25.0312C105.312 30.2812 112.039 35.2031 119.586 39.7969C120.57 40.7812 120.734 41.4375 120.078 41.7656C118.109 44.3906 115.977 44.7188 113.68 42.75C103.18 35.2031 92.6797 25.3594 82.1797 13.2188C80.5391 11.25 80.2109 9.9375 81.1953 9.28125C82.5078 8.29688 83.6562 8.29688 84.6406 9.28125ZM48.7109 20.1094C47.3984 19.7813 47.0703 18.7969 47.7266 17.1562C48.0547 15.8438 49.2031 15.6797 51.1719 16.6641C56.0938 19.2891 59.7031 21.4219 62 23.0625L62.4922 23.5547C62.8203 23.2266 63.1484 22.7344 63.4766 22.0781C65.1172 20.4375 66.9219 18.1406 68.8906 15.1875C70.5312 13.2188 70.5312 11.9063 68.8906 11.25C66.2656 9.60937 62.8203 7.96875 58.5547 6.32812C57.2422 5.67187 56.9141 4.6875 57.5703 3.375C58.2266 2.0625 59.375 1.73437 61.0156 2.39062C63.9688 3.70312 67.25 5.34375 70.8594 7.3125C71.8438 7.64062 72.5 7.96875 72.8281 8.29688C75.7812 10.5937 75.9453 13.3828 73.3203 16.6641C65.7734 27.1641 57.4062 35.6953 48.2188 42.2578C45.9219 44.2266 43.625 44.2266 41.3281 42.2578C40.0156 41.2734 40.0156 40.4531 41.3281 39.7969C48.2188 36.1875 54.125 31.9219 59.0469 27C57.4062 25.6875 54.7812 23.8828 51.1719 21.5859C50.1875 20.9297 49.3672 20.4375 48.7109 20.1094ZM60.0312 36.3516C60.3594 34.3828 61.3438 33.2344 62.9844 32.9062C75.125 32.25 86.6094 32.25 97.4375 32.9062C97.4375 32.9062 97.6016 32.9062 97.9297 32.9062C98.9141 33.2344 99.4062 33.7266 99.4062 34.3828C98.75 36.6797 97.6016 37.8281 95.9609 37.8281C84.1484 36.1875 72.6641 36.1875 61.5078 37.8281C60.8516 38.1562 60.3594 38.1562 60.0312 37.8281C59.7031 37.5 59.7031 37.0078 60.0312 36.3516ZM29.0234 57.0234C28.3672 55.7109 28.5312 54.5625 29.5156 53.5781C30.8281 52.5938 31.8125 52.7578 32.4688 54.0703C36.7344 62.2734 41.1641 68.3438 45.7578 72.2812C47.0703 73.2656 46.5781 74.0859 44.2812 74.7422C41.9844 75.7266 40.3438 75.3984 39.3594 73.7578C35.4219 68.5078 31.9766 62.9297 29.0234 57.0234ZM36.8984 37.3359C35.9141 38.6484 34.4375 38.8125 32.4688 37.8281C31.4844 37.1719 31.4844 36.1875 32.4688 34.875C35.4219 31.9219 38.5391 27.1641 41.8203 20.6016C42.4766 19.2891 43.4609 19.125 44.7734 20.1094C46.0859 20.7656 46.25 22.0781 45.2656 24.0469C41.3281 30.6094 38.5391 35.0391 36.8984 37.3359ZM10.3203 42.2578C9.99219 44.5547 8.67969 45.7031 6.38281 45.7031C5.07031 46.0312 4.90625 44.5547 5.89062 41.2734C7.85938 36.6797 9.00781 32.25 9.33594 27.9844C9.66406 25.6875 10.6484 24.7031 12.2891 25.0312C13.6016 24.7031 13.9297 26.3437 13.2734 29.9531C12.9453 33.8906 11.9609 37.9922 10.3203 42.2578ZM52.6484 177.828C65.7734 177.172 76.6016 176.844 85.1328 176.844C90.0547 176.844 96.125 176.844 103.344 176.844L104.328 165.523C88.25 164.867 73.4844 165.031 60.0312 166.016C58.7188 166.016 58.2266 165.359 58.5547 164.047C59.2109 162.078 60.5234 161.258 62.4922 161.586C75.6172 160.602 89.7266 160.438 104.82 161.094L105.312 153.219C105.641 150.922 104.82 149.773 102.852 149.773C85.4609 149.117 70.2031 149.445 57.0781 150.758C55.4375 150.758 54.7812 150.266 55.1094 149.281C55.7656 147.312 56.9141 146.328 58.5547 146.328C73.9766 145.016 89.7266 144.852 105.805 145.836C109.086 146.492 110.562 148.133 110.234 150.758L108.266 176.844C109.906 176.844 112.203 177.008 115.156 177.336C118.109 177.336 120.242 177.5 121.555 177.828C122.211 177.828 122.539 177.992 122.539 178.32C122.867 178.648 122.867 178.977 122.539 179.305C121.883 181.602 120.57 182.75 118.602 182.75C107.773 181.766 96.9453 181.273 86.1172 181.273V228.523C86.1172 229.836 85.2969 230.492 83.6562 230.492C82.0156 230.492 81.1953 229.836 81.1953 228.523V181.273C68.0703 181.273 57.5703 181.93 49.6953 183.242C48.7109 183.242 48.2188 182.586 48.2188 181.273C48.5469 179.305 50.0234 178.156 52.6484 177.828ZM11.3047 186.688C15.8984 186.359 20.6562 186.195 25.5781 186.195V173.891C23.9375 173.891 21.6406 174.055 18.6875 174.383C16.0625 174.383 14.2578 174.383 13.2734 174.383C12.2891 174.711 11.7969 174.711 11.7969 174.383C11.4688 174.383 11.4688 173.891 11.7969 172.906C11.7969 171.266 12.6172 170.445 14.2578 170.445C23.7734 169.461 33.125 169.461 42.3125 170.445C43.625 170.445 44.2812 170.938 44.2812 171.922C43.9531 174.219 42.6406 175.039 40.3438 174.383C39.3594 174.383 37.7188 174.383 35.4219 174.383C33.125 174.055 31.3203 173.891 30.0078 173.891V186.195C35.2578 186.195 40.3438 186.359 45.2656 186.688C47.5625 186.688 48.5469 187.344 48.2188 188.656C47.8906 190.297 46.7422 191.117 44.7734 191.117C40.5078 190.789 35.5859 190.625 30.0078 190.625V214.742C31.9766 214.414 34.7656 213.922 38.375 213.266C42.3125 212.609 45.1016 212.117 46.7422 211.789C48.0547 211.789 48.7109 212.281 48.7109 213.266C48.3828 215.562 47.0703 216.875 44.7734 217.203C41.4922 217.203 35.4219 218.023 26.5625 219.664C19.6719 220.977 13.6016 222.617 8.35156 224.586C6.71094 224.914 5.89062 224.422 5.89062 223.109C5.5625 220.812 6.38281 219.336 8.35156 218.68C13.2734 217.695 19.0156 216.711 25.5781 215.727V190.625C19.3438 190.625 13.9297 190.789 9.33594 191.117C8.67969 191.445 8.1875 191.445 7.85938 191.117C7.53125 190.789 7.53125 190.297 7.85938 189.641C8.1875 187.672 9.33594 186.688 11.3047 186.688ZM27.5469 144.852C28.5312 143.539 29.6797 143.211 30.9922 143.867C32.3047 144.852 32.4688 146.164 31.4844 147.805C31.4844 147.805 31.3203 147.969 30.9922 148.297C30.9922 148.625 30.8281 148.953 30.5 149.281C36.0781 154.859 42.1484 159.453 48.7109 163.062C49.6953 163.719 49.6953 164.539 48.7109 165.523C47.0703 167.492 45.4297 167.656 43.7891 166.016C40.5078 164.047 35.2578 159.781 28.0391 153.219C21.1484 161.75 14.4219 168.477 7.85938 173.398C5.89062 174.383 3.92188 174.219 1.95312 172.906C0.96875 171.594 1.13281 170.445 2.44531 169.461C12.9453 163.883 21.3125 155.68 27.5469 144.852ZM120.57 220.156C121.883 220.812 122.047 221.633 121.062 222.617C119.094 225.242 116.961 225.734 114.664 224.094C108.43 221.469 100.719 217.039 91.5312 210.805C89.8906 209.82 89.5625 208.508 90.5469 206.867C91.5312 205.883 92.5156 205.719 93.5 206.375C103.016 212.938 112.039 217.531 120.57 220.156ZM49.2031 219.172C51.1719 218.188 55.1094 216.219 61.0156 213.266C67.5781 209.984 72.0078 207.852 74.3047 206.867C74.9609 206.539 75.4531 206.375 75.7812 206.375C76.1094 206.703 76.2734 207.195 76.2734 207.852C76.9297 209.82 76.2734 211.133 74.3047 211.789C63.1484 217.695 54.9453 222.289 49.6953 225.57C49.0391 226.227 48.3828 226.391 47.7266 226.062C47.3984 225.734 47.2344 224.914 47.2344 223.602C47.2344 221.961 47.8906 220.484 49.2031 219.172ZM70.3672 201.453C64.4609 198.172 59.375 195.711 55.1094 194.07C53.4688 193.414 52.9766 192.43 53.6328 191.117C54.6172 189.477 55.6016 188.984 56.5859 189.641C60.1953 190.953 65.6094 193.414 72.8281 197.023C74.1406 198.008 74.4688 199.32 73.8125 200.961C72.8281 202.273 71.6797 202.438 70.3672 201.453ZM96.9453 200.961C95.6328 201.289 94.4844 200.797 93.5 199.484C92.8438 198.5 93.1719 197.68 94.4844 197.023C97.7656 195.711 102.031 193.742 107.281 191.117C108.922 190.133 110.07 189.477 110.727 189.148C112.367 188.164 113.352 188.492 113.68 190.133C114.664 191.117 114.172 192.266 112.203 193.578C106.625 196.859 101.539 199.32 96.9453 200.961ZM10.3203 200.961C9.33594 199.977 9.5 198.992 10.8125 198.008C12.125 197.352 13.1094 197.516 13.7656 198.5C16.7188 201.781 19.0156 204.898 20.6562 207.852C21.3125 209.164 20.9844 210.312 19.6719 211.297C18.3594 211.953 17.375 211.625 16.7188 210.312C16.0625 209 14.5859 206.703 12.2891 203.422C11.3047 202.438 10.6484 201.617 10.3203 200.961ZM41.3281 197.023C41.9844 196.039 42.9688 195.875 44.2812 196.531C45.5938 197.188 45.9219 198.172 45.2656 199.484C42.3125 203.75 39.8516 206.703 37.8828 208.344C36.8984 209.328 35.75 209.492 34.4375 208.836C33.4531 207.852 33.4531 206.867 34.4375 205.883C37.0625 203.258 39.3594 200.305 41.3281 197.023Z" fill="#E92F93"/>
</svg>
