<svg width="160" height="160" viewBox="0 0 160 160" fill="none" xmlns="http://www.w3.org/2000/svg">
<path d="M54.3015 141.523C54.1307 141.268 53.789 141.098 53.4473 141.098C53.2765 141.098 53.1057 141.098 53.0202 141.183C52.9348 141.268 52.764 141.268 52.6786 141.438C52.4223 141.694 52.3369 141.949 52.3369 142.29C52.3369 142.46 52.3369 142.63 52.4223 142.715C52.764 144.248 53.8744 149.016 55.9244 150.463C56.0952 150.549 56.2661 150.719 56.4369 150.804C58.7431 152.166 62.6723 152.847 64.466 151.996C64.6369 151.911 64.8077 151.826 64.8931 151.741C66.2598 150.549 56.1806 142.886 54.3015 141.523Z" fill="url(#paint0_linear_4666_68549)"/>
<path d="M102.818 92.4811C99.0596 85.0737 101.622 73.6645 101.793 72.5576C93.2512 82.7748 84.4534 88.0537 84.4534 88.0537L85.4784 92.7365C91.8846 87.2874 100.17 91.7148 102.476 92.7365C102.732 92.8217 102.903 92.6514 102.818 92.4811Z" fill="url(#paint1_linear_4666_68549)"/>
<path d="M79.0722 137.947V137.777C78.9868 137.522 78.9014 137.351 78.7305 137.181C78.4743 136.84 77.9618 136.585 77.5347 136.585L64.2952 136.755C63.8681 136.755 63.014 137.181 62.9285 137.692C62.7577 138.288 62.6723 138.884 63.0994 139.48C63.7827 140.416 72.7514 143.907 74.5452 143.652C74.9722 143.567 75.5701 143.226 76.2535 142.715H76.3389V142.63C76.9368 142.119 77.5347 141.523 78.0472 140.842H78.1326V140.757C78.4743 140.246 78.816 139.735 78.9868 139.139V139.054C79.1576 138.714 79.1576 138.288 79.0722 137.947Z" fill="url(#paint2_linear_4666_68549)"/>
<path d="M93.4222 96.7386C93.4222 96.3129 93.4222 95.8872 93.2513 95.5466V95.4615C93.2513 95.3763 93.1659 95.3763 93.1659 95.2912C92.9097 94.9506 92.3972 94.8655 91.9701 94.9506C89.3222 95.4615 78.2181 97.8455 78.816 100.57C78.816 100.57 78.3889 102.103 82.4035 102.018C86.418 101.932 89.0659 102.614 90.1764 102.018C90.518 101.847 91.0305 101.422 91.4576 100.74H91.543V100.655C91.9701 100.059 92.3972 99.3781 92.7388 98.6969H92.8243V98.6118C93.0805 98.0158 93.2513 97.5049 93.3368 96.9941L93.4222 96.7386Z" fill="url(#paint3_linear_4666_68549)"/>
<path d="M71.2989 85.4139C71.1281 84.9031 70.9573 84.5625 70.9573 84.5625C70.9573 84.5625 71.0427 84.9882 71.2989 85.4139Z" fill="url(#paint4_linear_4666_68549)"/>
<path d="M84.2826 87.7128C83.4284 87.8831 82.5742 87.9682 81.8055 88.1385C78.4743 88.0534 76.4243 83.2002 76.4243 83.2002C76.4243 83.2002 77.7909 87.6276 75.2284 88.3088C73.3493 88.8196 71.9826 86.6911 71.2993 85.4139C71.8118 86.6911 72.4951 89.2454 70.7868 90.4374C68.566 92.0551 65.7472 87.7979 65.4056 87.2871C65.6618 87.7128 67.9681 91.4591 66.2597 93.2471C64.466 95.0351 60.4514 90.5225 60.4514 90.5225C60.4514 90.5225 63.7827 94.9499 62.1597 97.2488C60.5368 99.5477 56.3514 96.3122 56.3514 96.3122C56.3514 96.3122 60.2806 101.506 59.5118 103.549C58.7431 105.593 54.5577 103.209 54.5577 103.209C54.5577 103.209 59.2556 106.529 58.2306 108.658C57.3764 110.531 54.9848 108.913 54.216 108.317C54.9848 108.999 57.8889 111.468 57.0348 113.511C56.0098 115.895 53.4473 113.341 53.4473 113.341C53.4473 113.341 55.8389 117.257 53.7035 118.79C51.5681 120.323 50.2015 115.384 50.2015 115.384C51.3119 120.152 46.7848 119.641 46.6994 119.641C44.1369 119.045 40.8911 118.109 36.5349 117.683C24.4058 116.491 20.0495 125.005 20.562 126.793C20.9037 127.985 22.8683 128.837 23.9787 129.263C24.3203 129.348 24.4058 129.859 24.0641 130.029C22.9537 130.795 23.0391 131.136 23.0391 131.136L30.2141 136.585C43.3682 146.547 55.0702 143.567 60.1098 142.46C65.1493 141.268 67.7118 139.054 67.7118 139.054C68.2243 136.67 71.2993 136.159 71.2993 136.159C71.043 133.52 74.0326 131.732 74.0326 131.732C74.2034 128.752 76.4243 127.304 76.4243 127.304C76.4243 124.75 77.6201 123.132 77.6201 123.132C77.2784 120.748 78.7305 118.535 78.7305 118.535C77.9618 115.98 79.3284 113.767 79.3284 113.767C78.6451 111.808 79.9263 109.424 79.9263 109.424C79.4138 107.721 80.268 105.508 80.268 105.508C80.0117 104.656 80.0972 103.124 80.0972 103.124C81.6347 94.0134 89.5784 91.8848 89.6638 89.6711C89.7492 87.3722 84.2826 87.7128 84.2826 87.7128Z" fill="url(#paint5_linear_4666_68549)"/>
<path d="M20.989 127.73C20.989 127.73 23.039 126.198 24.4911 126.794C25.9432 127.305 28.2494 129.093 28.164 129.604C28.164 130.114 26.9682 131.051 26.3702 131.136C25.7723 131.306 23.3807 131.392 23.039 131.221C23.039 131.221 22.6973 130.966 23.9786 130.029C24.2348 129.859 24.2348 129.348 23.8932 129.263C22.9536 128.922 21.5015 128.412 20.989 127.73Z" fill="url(#paint6_linear_4666_68549)"/>
<path d="M25.6014 126.283C25.6014 126.283 28.3347 119.897 32.7764 120.153C37.218 120.408 40.6347 122.281 44.3076 115.896C44.3076 115.896 42.0014 119.131 38.841 119.131C35.6805 119.131 31.9222 117.002 27.9931 120.749C24.0639 124.495 23.9785 126.283 23.9785 126.283C23.9785 126.283 25.4306 126.113 25.6014 126.283Z" fill="url(#paint7_linear_4666_68549)"/>
<path d="M24.9183 126.198C24.9183 126.198 27.9933 125.687 27.5662 122.026C27.1391 117.854 30.6412 115.3 32.3495 114.363C32.3495 114.363 26.3703 116.492 26.3703 121.345C26.3703 126.198 22.6974 126.454 22.6974 126.454C22.6974 126.454 22.5266 126.794 23.2099 126.709C23.3808 126.709 23.8933 126.539 24.3204 126.368C24.662 126.283 24.8329 126.198 24.9183 126.198Z" fill="url(#paint8_linear_4666_68549)"/>
<path d="M20.9892 127.731C20.9892 127.731 17.4871 126.283 18.085 123.048C18.085 123.048 18.5975 126.624 21.5871 127.475L20.9892 127.731Z" fill="url(#paint9_linear_4666_68549)"/>
<path d="M21.7578 127.305C21.7578 127.305 18.6829 122.281 22.2703 119.982C22.2703 119.982 21.3308 121.174 21.3308 122.962C21.3308 124.75 22.3558 127.049 22.3558 127.049L21.7578 127.305Z" fill="url(#paint10_linear_4666_68549)"/>
<path d="M34.8265 127.901C36.1473 127.901 37.2181 126.91 37.2181 125.687C37.2181 124.465 36.1473 123.474 34.8265 123.474C33.5056 123.474 32.4348 124.465 32.4348 125.687C32.4348 126.91 33.5056 127.901 34.8265 127.901Z" fill="#C8E6CC"/>
<mask id="mask0_4666_68549" style="mask-type:luminance" maskUnits="userSpaceOnUse" x="32" y="123" width="6" height="5">
<path d="M34.8265 127.901C36.1473 127.901 37.2181 126.91 37.2181 125.687C37.2181 124.465 36.1473 123.474 34.8265 123.474C33.5056 123.474 32.4348 124.465 32.4348 125.687C32.4348 126.91 33.5056 127.901 34.8265 127.901Z" fill="white"/>
</mask>
<g mask="url(#mask0_4666_68549)">
<g opacity="0.52">
<path d="M36.4493 126.198C36.3639 126.113 36.4493 126.113 36.4493 126.198V126.198Z" fill="#F2AF49"/>
<path d="M36.1931 124.753C36.1931 124.663 36.2832 124.753 36.1931 124.753V124.753Z" fill="#F2AF49"/>
<path d="M35.937 126.709C35.937 126.624 36.0224 126.624 35.937 126.709V126.709Z" fill="#F2AF49"/>
<path d="M36.2782 127.22C36.1928 127.22 36.1928 127.305 36.2782 127.22V127.22Z" fill="#F2AF49"/>
<path d="M36.1077 127.901C36.1931 127.816 36.1931 127.901 36.1077 127.901V127.901Z" fill="#F2AF49"/>
<path d="M35.5095 125.347C35.5949 125.347 35.5949 125.432 35.5095 125.347V125.347Z" fill="#F2AF49"/>
<path d="M36.1077 127.135C36.1931 127.135 36.1931 127.22 36.1077 127.135V127.135Z" fill="#F2AF49"/>
<path d="M36.1077 126.965C36.1931 126.879 36.1931 126.965 36.1077 126.965V126.965Z" fill="#F2AF49"/>
<path d="M36.8765 126.879C36.8765 126.794 36.9619 126.794 36.8765 126.879C36.8765 126.794 36.8765 126.794 36.8765 126.879Z" fill="#F2AF49"/>
<path d="M36.791 125.177C36.8764 125.177 36.8764 125.262 36.791 125.177V125.177Z" fill="#F2AF49"/>
<path d="M36.791 127.22C36.8764 127.135 36.8764 127.22 36.791 127.22V127.22Z" fill="#F2AF49"/>
<path d="M36.791 127.731C36.8764 127.731 36.8764 127.817 36.791 127.731V127.731Z" fill="#F2AF49"/>
<path d="M36.7911 126.113C36.7057 126.113 36.7057 126.198 36.7911 126.113V126.113Z" fill="#F2AF49"/>
<path d="M36.4493 126.709C36.3639 126.794 36.4493 126.794 36.4493 126.709V126.709Z" fill="#F2AF49"/>
<path d="M36.3635 127.646C36.4489 127.646 36.4489 127.731 36.3635 127.646V127.646Z" fill="#F2AF49"/>
<path d="M36.6202 127.05C36.5348 127.05 36.5348 127.135 36.6202 127.05V127.05Z" fill="#F2AF49"/>
<path d="M36.7911 127.476C36.7057 127.476 36.7057 127.561 36.7911 127.476V127.476Z" fill="#F2AF49"/>
<path d="M35.3387 127.476C35.2533 127.476 35.2533 127.561 35.3387 127.476V127.476Z" fill="#F2AF49"/>
<path d="M35.2533 126.113C35.1679 126.028 35.1679 126.113 35.2533 126.113V126.113Z" fill="#F2AF49"/>
<path d="M35.2535 127.05C35.1681 126.965 35.2535 126.965 35.2535 127.05V127.05Z" fill="#F2AF49"/>
<path d="M35.4241 127.731C35.4241 127.646 35.5095 127.646 35.4241 127.731V127.731Z" fill="#F2AF49"/>
<path d="M36.1931 127.646C36.1931 127.735 36.2832 127.646 36.1931 127.646V127.646Z" fill="#F2AF49"/>
<path d="M33.6305 127.646C33.5451 127.646 33.5451 127.731 33.6305 127.646V127.646Z" fill="#F2AF49"/>
<path d="M36.366 126.368C36.2759 126.368 36.366 126.458 36.366 126.368V126.368Z" fill="#F2AF49"/>
<path d="M34.6556 127.561C34.5702 127.561 34.5702 127.646 34.6556 127.561V127.561Z" fill="#F2AF49"/>
</g>
</g>
<mask id="mask1_4666_68549" style="mask-type:luminance" maskUnits="userSpaceOnUse" x="32" y="123" width="6" height="5">
<path d="M34.8265 127.901C36.1473 127.901 37.2181 126.91 37.2181 125.687C37.2181 124.465 36.1473 123.474 34.8265 123.474C33.5056 123.474 32.4348 124.465 32.4348 125.687C32.4348 126.91 33.5056 127.901 34.8265 127.901Z" fill="white"/>
</mask>
<g mask="url(#mask1_4666_68549)">
<g opacity="0.52">
<path d="M34.1434 126.709C34.058 126.709 34.058 126.794 34.1434 126.709V126.709Z" fill="#F2AF49"/>
<path d="M34.0581 127.476C34.0581 127.565 34.1482 127.476 34.0581 127.476V127.476Z" fill="#F2AF49"/>
<path d="M34.3143 126.369C34.2289 126.369 34.2289 126.454 34.3143 126.369V126.369Z" fill="#F2AF49"/>
<path d="M33.7162 125.687C33.6307 125.602 33.6307 125.687 33.7162 125.687V125.687Z" fill="#F2AF49"/>
<path d="M34.3994 127.305C34.3994 127.394 34.4895 127.305 34.3994 127.305V127.305Z" fill="#F2AF49"/>
<path d="M35.085 126.369C34.9949 126.369 35.085 126.459 35.085 126.369V126.369Z" fill="#F2AF49"/>
<path d="M32.6931 126.285C32.603 126.285 32.6931 126.195 32.6931 126.285V126.285Z" fill="#F2AF49"/>
<path d="M33.1184 126.283C33.2038 126.198 33.2038 126.283 33.1184 126.283V126.283Z" fill="#F2AF49"/>
<path d="M32.9473 127.05C33.0327 126.964 33.0327 127.05 32.9473 127.05V127.05Z" fill="#F2AF49"/>
<path d="M33.2037 127.476C33.1183 127.476 33.1183 127.561 33.2037 127.476V127.476Z" fill="#F2AF49"/>
<path d="M32.7765 127.816C32.6911 127.731 32.7765 127.731 32.7765 127.816V127.816Z" fill="#F2AF49"/>
<path d="M32.691 126.88C32.6056 126.965 32.691 126.965 32.691 126.88V126.88Z" fill="#F2AF49"/>
</g>
</g>
<mask id="mask2_4666_68549" style="mask-type:luminance" maskUnits="userSpaceOnUse" x="32" y="123" width="6" height="5">
<path d="M34.8265 127.901C36.1473 127.901 37.2181 126.91 37.2181 125.687C37.2181 124.465 36.1473 123.474 34.8265 123.474C33.5056 123.474 32.4348 124.465 32.4348 125.687C32.4348 126.91 33.5056 127.901 34.8265 127.901Z" fill="white"/>
</mask>
<g mask="url(#mask2_4666_68549)">
<g opacity="0.52">
<path d="M37.2202 123.389C37.1301 123.389 37.2202 123.478 37.2202 123.389V123.389Z" fill="#F2AF49"/>
<path d="M36.6201 123.646C36.6201 123.557 36.7102 123.646 36.6201 123.646V123.646Z" fill="#F2AF49"/>
<path d="M36.8762 124.24C36.8762 124.325 36.9616 124.325 36.8762 124.24V124.24Z" fill="#F2AF49"/>
<path d="M36.9619 125.433C36.9619 125.522 37.052 125.433 36.9619 125.433V125.433Z" fill="#F2AF49"/>
<path d="M34.5701 123.899C34.6555 123.899 34.6555 123.985 34.5701 123.899V123.899Z" fill="#F2AF49"/>
<path d="M35.5972 124.836C35.5071 124.836 35.5972 124.926 35.5972 124.836V124.836Z" fill="#F2AF49"/>
<path d="M36.1927 124.07C36.1073 124.07 36.1073 124.155 36.1927 124.07V124.07Z" fill="#F2AF49"/>
<path d="M36.1929 124.495C36.2783 124.495 36.2783 124.58 36.1929 124.495V124.495Z" fill="#F2AF49"/>
<path d="M36.2786 124.836C36.364 124.836 36.364 124.921 36.2786 124.836V124.836Z" fill="#F2AF49"/>
<path d="M36.366 125.007C36.2759 125.007 36.366 125.097 36.366 125.007V125.007Z" fill="#F2AF49"/>
<path d="M35.8513 123.729C35.9367 123.729 35.9367 123.815 35.8513 123.729V123.729Z" fill="#F2AF49"/>
<path d="M37.0474 126.965C37.1328 126.965 37.1328 127.05 37.0474 126.965V126.965Z" fill="#F2AF49"/>
<path d="M37.1327 125.177C37.0472 125.091 37.0472 125.177 37.1327 125.177V125.177Z" fill="#F2AF49"/>
<path d="M36.8784 125.943C36.7883 125.943 36.8784 126.033 36.8784 125.943V125.943Z" fill="#F2AF49"/>
<path d="M36.962 125.688C36.8766 125.773 36.962 125.773 36.962 125.688V125.688Z" fill="#F2AF49"/>
<path d="M36.793 124.58C36.7029 124.58 36.793 124.67 36.793 124.58V124.58Z" fill="#F2AF49"/>
<path d="M34.8267 124.58C34.9121 124.58 34.9121 124.665 34.8267 124.58V124.58Z" fill="#F2AF49"/>
<path d="M35.0826 125.688C34.9972 125.688 34.9972 125.773 35.0826 125.688V125.688Z" fill="#F2AF49"/>
<path d="M35.6826 123.901C35.5925 123.901 35.6826 123.811 35.6826 123.901V123.901Z" fill="#F2AF49"/>
<path d="M35.1677 125.347C35.2531 125.262 35.2531 125.347 35.1677 125.347V125.347Z" fill="#F2AF49"/>
<path d="M36.1077 123.899C36.1931 123.814 36.1931 123.899 36.1077 123.899V123.899Z" fill="#F2AF49"/>
<path d="M36.1077 125.943C36.1931 125.943 36.1931 125.943 36.1077 125.943C36.1931 125.858 36.1931 125.943 36.1077 125.943Z" fill="#F2AF49"/>
<path d="M36.0223 124.666C35.9369 124.581 35.9369 124.666 36.0223 124.666V124.666Z" fill="#F2AF49"/>
<path d="M36.2805 124.583C36.1904 124.583 36.2805 124.493 36.2805 124.583V124.583Z" fill="#F2AF49"/>
<path d="M35.6805 125.518C35.5951 125.603 35.6805 125.603 35.6805 125.518V125.518Z" fill="#F2AF49"/>
<path d="M36.1094 124.836C36.0193 124.836 36.1094 124.926 36.1094 124.836V124.836Z" fill="#F2AF49"/>
<path d="M36.449 125.518C36.5344 125.518 36.5344 125.603 36.449 125.518V125.518Z" fill="#F2AF49"/>
<path d="M36.1953 125.092C36.1052 125.092 36.1953 125.182 36.1953 125.092V125.092Z" fill="#F2AF49"/>
<path d="M36.6201 127.05C36.6201 126.965 36.7055 126.965 36.6201 127.05V127.05Z" fill="#F2AF49"/>
<path d="M36.1094 125.689C36.0193 125.689 36.1094 125.6 36.1094 125.689V125.689Z" fill="#F2AF49"/>
</g>
</g>
<mask id="mask3_4666_68549" style="mask-type:luminance" maskUnits="userSpaceOnUse" x="32" y="123" width="6" height="5">
<path d="M34.8265 127.901C36.1473 127.901 37.2181 126.91 37.2181 125.687C37.2181 124.465 36.1473 123.474 34.8265 123.474C33.5056 123.474 32.4348 124.465 32.4348 125.687C32.4348 126.91 33.5056 127.901 34.8265 127.901Z" fill="white"/>
</mask>
<g mask="url(#mask3_4666_68549)">
<g opacity="0.52">
<path d="M36.962 124.666C36.8766 124.581 36.8766 124.666 36.962 124.666V124.666Z" fill="#F2AF49"/>
<path d="M36.9619 126.88C36.9619 126.97 37.052 126.88 36.9619 126.88V126.88Z" fill="#F2AF49"/>
<path d="M35.5095 126.709C35.5095 126.624 35.5949 126.624 35.5095 126.709V126.709Z" fill="#F2AF49"/>
<path d="M35.8514 127.221C35.766 127.221 35.766 127.306 35.8514 127.221V127.221Z" fill="#F2AF49"/>
<path d="M34.912 127.135C34.8266 127.22 34.912 127.22 34.912 127.135V127.135Z" fill="#F2AF49"/>
<path d="M35.0825 125.347C35.1679 125.347 35.1679 125.432 35.0825 125.347V125.347Z" fill="#F2AF49"/>
<path d="M35.6807 127.22C35.7661 127.22 35.7661 127.22 35.6807 127.22C35.6807 127.135 35.7661 127.135 35.6807 127.22Z" fill="#F2AF49"/>
<path d="M36.449 126.879C36.5344 126.794 36.5344 126.794 36.449 126.879V126.879Z" fill="#F2AF49"/>
<path d="M36.3638 125.177C36.4492 125.177 36.4492 125.262 36.3638 125.177V125.177Z" fill="#F2AF49"/>
<path d="M36.3638 127.221C36.4492 127.221 36.4492 127.306 36.3638 127.221C36.4492 127.221 36.4492 127.221 36.3638 127.221Z" fill="#F2AF49"/>
<path d="M36.4491 127.731C36.3637 127.731 36.3637 127.817 36.4491 127.731V127.731Z" fill="#F2AF49"/>
<path d="M36.0222 127.306C36.1076 127.306 36.1076 127.391 36.0222 127.306V127.306Z" fill="#F2AF49"/>
<path d="M36.1078 125.518C36.0224 125.433 36.1078 125.433 36.1078 125.518V125.518Z" fill="#F2AF49"/>
<path d="M36.0221 126.709C35.9367 126.794 36.0221 126.794 36.0221 126.709V126.709Z" fill="#F2AF49"/>
<path d="M35.937 127.646C36.0224 127.646 36.0224 127.732 35.937 127.646V127.646Z" fill="#F2AF49"/>
<path d="M36.366 127.053C36.2759 127.053 36.366 126.963 36.366 127.053V127.053Z" fill="#F2AF49"/>
<path d="M36.3639 127.476C36.2785 127.476 36.2785 127.561 36.3639 127.476V127.476Z" fill="#F2AF49"/>
<path d="M36.7909 126.284C36.7055 126.199 36.7055 126.284 36.7909 126.284V126.284Z" fill="#F2AF49"/>
<path d="M36.8784 127.561C36.7883 127.561 36.8784 127.65 36.8784 127.561V127.561Z" fill="#F2AF49"/>
<path d="M34.9121 127.561C34.9975 127.561 34.9975 127.646 34.9121 127.561V127.561Z" fill="#F2AF49"/>
<path d="M35.7681 126.882C35.678 126.882 35.7681 126.792 35.7681 126.882V126.882Z" fill="#F2AF49"/>
<path d="M36.1929 126.88C36.2783 126.794 36.2783 126.88 36.1929 126.88V126.88Z" fill="#F2AF49"/>
<path d="M36.1075 127.646C36.0221 127.561 36.0221 127.646 36.1075 127.646V127.646Z" fill="#F2AF49"/>
<path d="M36.366 127.562C36.2759 127.562 36.366 127.473 36.366 127.562V127.562Z" fill="#F2AF49"/>
<path d="M36.1951 127.816C36.105 127.816 36.1951 127.906 36.1951 127.816V127.816Z" fill="#F2AF49"/>
<path d="M35.766 127.305C35.6806 127.22 35.766 127.22 35.766 127.305V127.305Z" fill="#F2AF49"/>
<path d="M35.2534 127.562C35.2534 127.651 35.3435 127.562 35.2534 127.562V127.562Z" fill="#F2AF49"/>
<path d="M35.2534 127.731C35.2534 127.821 35.3435 127.731 35.2534 127.731V127.731Z" fill="#F2AF49"/>
<path d="M34.912 127.562C34.8265 127.562 34.8265 127.647 34.912 127.562C34.912 127.647 34.912 127.647 34.912 127.562Z" fill="#F2AF49"/>
<path d="M34.741 126.199C34.8264 126.114 34.8264 126.199 34.741 126.199V126.199Z" fill="#F2AF49"/>
<path d="M34.8263 127.136C34.7409 127.051 34.8263 127.051 34.8263 127.136C34.7409 127.136 34.7409 127.136 34.8263 127.136Z" fill="#F2AF49"/>
<path d="M36.3639 127.477C36.2785 127.477 36.2785 127.562 36.3639 127.477V127.477Z" fill="#F2AF49"/>
<path d="M33.2037 127.731C33.1183 127.731 33.1183 127.817 33.2037 127.731V127.731Z" fill="#F2AF49"/>
<path d="M34.1432 126.539C34.0578 126.454 34.1432 126.454 34.1432 126.539V126.539Z" fill="#F2AF49"/>
</g>
</g>
<path d="M34.1429 126.879C34.8033 126.879 35.3387 126.345 35.3387 125.687C35.3387 125.029 34.8033 124.495 34.1429 124.495C33.4824 124.495 32.947 125.029 32.947 125.687C32.947 126.345 33.4824 126.879 34.1429 126.879Z" fill="url(#paint11_linear_4666_68549)"/>
<path d="M33.5453 125.858C33.734 125.858 33.8869 125.705 33.8869 125.517C33.8869 125.329 33.734 125.177 33.5453 125.177C33.3566 125.177 33.2036 125.329 33.2036 125.517C33.2036 125.705 33.3566 125.858 33.5453 125.858Z" fill="white"/>
<path d="M21.9287 0.0161346C23.5516 0.101278 24.7475 0.101278 25.3454 0.0161346C26.0287 -0.0690084 26.5412 0.186421 27.1391 0.697279C27.6516 1.20814 28.5058 1.88928 29.6162 2.82586C30.2995 3.59214 30.7266 4.103 30.8974 4.44357C31.1537 4.699 31.2391 5.20986 31.2391 5.80586C31.2391 6.40187 31.4953 7.50873 32.0078 9.12644C32.5203 10.7442 32.7766 12.8727 32.862 15.5122C32.9474 18.1516 32.9474 21.4722 32.862 25.3888C32.7766 29.3905 32.4349 33.1368 31.6662 36.6277C30.9828 40.1185 30.7266 42.2471 30.9828 43.0985C31.2391 43.95 31.7516 44.8865 32.5203 46.0785C33.2891 47.2705 34.2287 48.5477 35.4245 49.8248C36.6203 51.1871 38.1578 52.7197 40.037 54.3374C41.9161 56.0403 43.0265 57.2323 43.4536 57.9986C43.8807 58.7649 44.3932 59.7014 45.2474 60.8934L44.8203 61.3192L45.2474 62.5112C44.9911 62.2557 44.7349 62.0854 44.564 62.0854L45.5036 64.1289L46.1869 64.5546V65.4912L44.564 65.8317L44.8203 66.5129H43.112C43.4536 67.1089 43.4536 67.6197 43.112 68.0455L45.0765 69.1523H44.7349C44.6494 69.1523 44.3932 69.0672 43.9661 68.8118C43.539 68.5563 43.2828 68.4712 43.112 68.4712C42.9411 68.4712 42.6849 68.386 42.1724 68.2157L41.9161 68.6415L43.2828 69.7483L41.062 69.4077V70.0889H39.7807L39.5245 70.5146L40.4641 71.6215L40.2078 71.7918C36.6203 70.2592 33.4599 68.2157 30.7266 65.7466C28.0787 63.2774 25.7725 60.4677 23.8933 57.4026C20.6475 63.3626 16.5475 68.5563 11.6788 72.9838C8.1767 75.7935 4.33297 78.0072 0.232984 79.7952C-0.279514 78.6032 0.0621511 77.5815 1.17256 76.73L0.660065 76.6449L0.0621511 76.73V65.406C3.13714 63.4477 5.95587 60.9786 8.51836 58.1689C9.03086 57.4877 9.37253 56.9769 9.62877 56.6363C9.88502 56.3809 9.97044 55.9551 10.0559 55.3591C10.1413 54.7631 10.5684 54.082 11.2517 53.3157C12.0204 52.4643 12.6183 51.7831 13.0454 51.102C13.4725 50.4208 13.8142 49.91 13.8142 49.4843C13.8996 49.0586 14.1558 48.5477 14.5829 47.9517C15.01 47.3557 15.5225 46.5894 16.2058 45.4825C16.8892 44.3757 17.3162 43.4391 17.6579 42.5877C17.9996 41.7362 18.1704 40.8848 18.2558 39.9482C18.3412 39.0117 18.5975 38.0751 18.9391 37.0534C19.3662 36.0317 19.5371 35.2654 19.5371 34.6694C19.5371 34.0734 19.6225 33.4774 19.7933 32.7111C19.9641 31.9448 20.135 30.4122 20.135 28.1134C20.2204 25.7293 20.2204 23.2602 20.135 20.7059C20.0496 18.1516 19.7933 15.3419 19.2808 12.447C18.7683 9.55216 18.4267 7.8493 18.1704 7.33844C17.9142 6.82758 17.6579 6.23158 17.3162 5.63558L15.1808 3.84757C15.8642 3.84757 16.4621 3.67729 17.1454 3.33671V2.22985L18.5121 1.29328V0.697279C18.8537 0.612136 19.11 0.526993 19.2808 0.44185C19.4516 0.356707 19.7079 0.271564 20.0496 0.271564C20.4766 0.271564 21.0746 0.186421 21.9287 0.0161346ZM40.3786 92.9072L39.6099 93.5884L40.2078 93.6735C39.0974 94.3547 37.9016 94.7804 36.7912 94.9507L37.7307 94.2695L37.4745 94.0141C32.1787 95.8873 26.712 97.3347 21.0746 98.3564V98.0158L20.3058 97.8455C20.8183 97.7604 21.16 97.6753 21.3308 97.5901C21.5016 97.505 21.7579 97.4198 22.185 97.505C22.612 97.505 22.8683 97.505 23.1245 97.4198C23.3808 97.3347 23.5516 97.1644 23.7225 96.9941L22.9537 96.7387L23.4662 96.6535V96.313C23.9787 96.3981 24.4058 96.313 24.8329 95.9724C24.662 96.313 24.662 96.6535 24.8329 96.909C25.1745 96.6535 25.5162 96.5684 25.8579 96.3981C26.1995 96.313 26.5412 96.2278 26.9683 96.2278C27.3954 96.2278 27.737 96.1427 28.0787 96.0575C28.4204 95.8873 29.0183 95.717 30.0433 95.5467V95.121H29.3599C29.5308 95.0358 29.787 94.9507 30.1287 94.6952C30.5558 94.525 30.8974 94.3547 31.0683 94.4398C31.2391 94.4398 31.4953 94.4398 31.7516 94.2695C32.0078 94.0992 32.2641 94.0141 32.5203 94.0141C32.7766 94.0141 32.9474 94.0141 33.1183 94.0141C33.2891 94.0141 33.5453 93.929 34.0578 93.7587L34.3141 94.0992C35.4245 94.4398 36.6203 94.2695 37.7307 93.4181H36.7912L38.7557 92.5667L38.4995 92.2261L39.6953 91.7152C40.037 91.9707 40.5495 92.0558 41.062 91.8004C40.8057 91.9707 40.8057 92.2261 40.9766 92.3112L42.514 91.6301C42.514 91.3747 42.3432 91.0341 42.087 90.7787L42.3432 90.6935L42.7703 91.1192L45.3328 89.8421L45.0765 89.5015L49.2619 87.4581C49.0057 87.6284 49.0057 87.7987 49.2619 87.9689L50.6286 87.1175V86.6918C52.5077 85.5849 54.4723 84.6484 56.6077 83.7969L57.0348 83.0306L56.7786 82.8604C55.6682 83.3712 54.7286 83.7969 53.9598 84.2226C53.2765 84.6484 52.3369 85.1592 51.1411 85.8404C49.9453 86.5215 48.7494 87.1175 47.5536 87.6284C46.3578 88.1392 45.4182 88.5649 44.6494 88.9055C43.9661 89.2461 43.2828 89.4164 42.5995 89.4164L42.087 90.1827L40.4641 90.6084L40.037 91.2895C39.7807 91.3747 39.5245 91.3747 39.2682 91.3747C38.9266 91.3747 37.9016 91.6301 36.1932 92.3112C34.4849 92.9924 32.3495 93.5884 29.9578 94.2695C27.5662 94.9507 25.7725 95.3764 24.5766 95.6318C23.7225 95.8021 22.7829 96.0575 21.7579 96.313C22.0141 96.2278 22.185 96.1427 22.2704 95.9724L21.9287 95.8872L20.5621 96.313C20.9891 96.4832 21.4162 96.4832 21.7579 96.313C21.2454 96.4832 20.7329 96.5684 20.2204 96.7387V96.313C19.9641 96.313 19.7933 96.313 19.6225 96.2278C19.4516 96.2278 19.1954 96.313 18.7683 96.5684C18.3412 96.8238 17.6579 96.9941 16.6329 97.0793C15.6079 97.1644 14.1558 97.3347 12.1913 97.505C12.7038 97.4198 13.2163 97.2495 13.8142 96.8238C12.7038 96.9941 11.7642 97.0793 10.91 96.909L10.4829 97.4198L9.28711 97.505L9.03086 97.6752C7.74962 97.6752 6.81004 97.6753 6.12671 97.5901C5.44338 97.5901 5.10171 97.5901 5.0163 97.6752C4.93088 97.7604 4.76005 97.9307 4.33296 98.0158C4.16213 97.8455 4.07672 97.7604 3.90588 97.6752C3.73505 97.5901 3.39339 97.5901 2.79547 97.5901C2.19756 97.5901 1.3434 97.6752 0.232984 97.6752V97.2495L0.660065 97.1644C0.916314 97.2495 1.08715 97.2495 1.3434 97.3347C1.59964 97.3347 2.19756 97.3347 3.39339 97.2495L8.51836 96.909L8.77461 96.5684L8.26211 96.4833L11.3371 95.9724V95.8021L0.0621511 96.2278V93.6735C1.85589 93.929 3.56422 93.7587 5.18713 93.333C5.0163 93.1627 4.84546 93.0775 4.67463 92.9072C4.5038 92.737 4.16213 92.737 3.64963 92.8221C3.13714 92.9072 2.45381 92.9072 1.51423 92.8221V93.1627H0.403816L0.0621511 91.7152L5.0163 91.545L5.27254 91.2895C4.58921 91.2895 4.16213 91.2895 3.82047 91.2044C3.4788 91.2044 3.22255 91.1192 3.05172 91.0341C2.88089 90.949 2.62464 90.8638 2.28297 90.8638C1.94131 90.8638 1.68506 90.949 1.42881 91.0341C1.17256 91.1192 0.830898 91.2044 0.403816 91.2895L0.0621511 90.6084C3.64963 90.7787 7.1517 90.4381 10.6538 89.6718L10.3975 89.4164C7.06629 89.9272 3.64964 90.0975 0.3184 89.9272L0.0621511 89.5867L1.59964 89.5015V89.1609L0.403816 89.0758L0.0621511 83.9672C3.13714 83.7118 5.27254 83.7118 6.46837 83.7118C7.6642 83.7969 8.6892 83.6266 9.45794 83.2009C10.2267 82.7752 11.0809 82.6901 12.1058 82.8604C13.0454 83.0306 13.8142 82.9455 14.4121 82.4346C15.01 81.9238 15.6079 81.6684 16.3767 81.7535C17.06 81.7535 17.8287 81.7535 18.5121 81.5832C19.1954 81.4129 20.0496 81.3278 20.9037 81.2426C21.7579 81.2426 23.0391 80.9872 24.8329 80.5615C26.6266 80.1358 28.9329 79.5398 31.7516 78.7735C34.5703 77.9221 37.1328 77.0706 39.2682 76.2192C41.4036 75.3678 43.3682 74.346 45.1619 73.3243C46.9557 72.3026 48.5786 71.1958 49.9453 70.0889C51.3973 68.982 52.5077 68.0455 53.4473 67.2792C54.3015 66.5129 55.7536 65.2357 57.6327 63.5329C58.914 61.9152 59.8535 60.7232 60.4515 60.042C61.0494 59.3609 61.6473 58.254 62.416 56.7214C63.1848 55.1889 63.8681 53.4008 64.466 51.3574C65.1494 49.3991 65.6619 47.2705 66.0889 45.142C66.516 43.0134 66.7723 40.7145 66.7723 38.4157C66.7723 36.1168 66.6869 33.9882 66.516 32.2002C66.3452 30.3271 66.1743 28.9648 66.0035 28.1134C65.8327 27.2619 65.5764 25.9848 65.2348 24.1968L64.7223 23.8562L65.2348 23.4305C64.466 23.4305 63.8681 23.4305 63.441 23.3453C63.0139 23.3453 62.416 23.4305 61.5619 23.8562C60.7077 24.1968 59.1702 24.5373 56.9494 24.7928C54.6432 25.0482 53.3619 25.1333 53.1911 24.9631C52.9348 24.7928 52.5932 24.6225 52.1661 24.2819C51.9098 23.6008 51.739 23.0048 51.6536 22.6642C51.5682 22.2385 51.5682 21.7276 51.5682 20.8762C51.5682 20.1099 51.6536 19.3436 51.9098 18.5773C52.1661 17.811 52.2515 17.0448 52.2515 16.1933C52.2515 15.3419 52.1661 14.831 51.9098 14.5756C51.6536 14.3202 51.3119 13.8945 50.7994 13.3836C50.9703 13.043 51.0557 12.7025 51.1411 12.447C51.2265 12.1916 51.3119 11.9362 51.3973 11.5105C51.4827 11.1699 51.6536 10.8293 52.0807 10.4887C52.4223 10.1482 52.764 9.80759 53.0202 9.55216C53.2765 9.21159 53.7036 8.78587 54.3869 8.18987H55.3265L55.5827 7.2533C55.9244 7.2533 56.3515 7.16815 56.6931 7.08301C57.1202 6.99787 58.0598 6.99787 59.6827 7.2533C61.3056 7.50873 63.2702 7.50873 65.6619 7.33844C68.0535 7.16815 71.8972 7.16815 77.1076 7.16815C82.318 7.16815 85.3076 7.16815 86.0763 7.08301C86.8451 6.99787 87.5284 6.82758 88.1263 6.57215H88.3826L88.0409 7.16815L88.7243 7.42358L88.0409 7.67901L88.7243 8.4453C90.3472 9.0413 92.0555 9.12644 93.8492 8.87102L94.1055 23.3453C89.493 23.3453 84.7951 23.2602 80.1826 23.0048C80.1826 23.0899 80.4389 24.7928 80.9514 28.1985C81.4639 31.6042 81.7201 34.6694 81.7201 37.394C81.7201 40.1185 81.6347 42.6728 81.4639 45.0568C81.293 47.4408 80.9514 49.7397 80.5243 51.9534C80.0972 54.1671 79.4993 56.2957 78.9014 58.4243C78.218 60.5529 77.4493 62.5963 76.4243 64.5546C75.3993 66.5129 74.4597 68.386 73.5201 70.0037C72.5806 71.6215 71.8118 72.8135 71.1285 73.4946C70.4452 74.1758 69.5056 75.4529 68.2243 77.1558C66.7723 78.6883 65.7473 79.7101 64.9785 80.4763C64.2098 81.1575 63.6119 81.5832 63.0994 81.5832C62.5869 81.5832 62.2452 81.7535 61.989 82.2644C61.7327 82.6901 61.0494 83.3712 59.939 84.2226L59.6827 85.0741C58.9994 84.9889 58.5723 85.0741 58.1452 85.4146L58.914 85.7552L58.6577 85.9255L57.7181 85.5849L58.4015 84.8186V84.4781L52.1661 88.1392L52.5932 88.3947C52.3369 88.9055 52.0807 89.2461 51.9098 89.5015C50.7994 90.2678 49.7744 90.7787 48.8348 91.0341L48.5786 91.4598L48.3223 91.2895C47.9807 91.5449 47.639 91.7152 47.3828 91.6301L48.7494 90.7787L47.9807 90.3529L47.5536 91.0341C46.5286 91.2044 45.6744 91.7152 44.9057 92.3964L44.6494 92.0558C44.8203 92.737 44.6494 93.1627 44.3078 93.5884V92.3964C43.1974 92.6518 42.3432 93.0775 41.7453 93.7587V93.4181C41.7453 93.333 41.9161 93.1627 42.2578 92.9072C42.5995 92.6518 42.7703 92.4815 42.7703 92.3964V92.3112L41.1474 92.8221L40.8911 93.2478L40.2078 93.6735L40.6349 92.9924L40.3786 92.9072ZM4.41838 15.6825C5.18713 15.8527 6.12671 15.9379 7.32254 16.023L7.83503 16.7893C8.60378 17.4705 9.54336 17.8962 10.6538 17.9813C10.6538 18.2368 10.91 18.4922 11.3371 18.9179C11.7642 19.3436 12.1913 19.8545 12.5329 20.5356C12.8746 21.2168 13.1308 22.4088 13.3017 24.1116C13.4725 25.8145 13.5579 28.5391 13.5579 32.2002V41.0551C13.5579 43.2688 13.3871 44.8014 13.0454 45.5677C12.7038 46.4191 12.5329 47.0151 12.4475 47.4408C12.3621 47.8666 12.1913 48.6328 12.0204 49.6546L11.3371 49.7397L10.0559 51.0168V50.5911H9.79961L9.54336 51.5277C9.28711 50.8466 8.94545 50.3357 8.6892 49.8248L7.92045 52.3791V51.5277C7.92045 51.3574 7.92045 51.0168 8.00587 50.506C8.09128 49.9951 8.09128 49.314 8.09128 48.6328L6.12671 48.122C5.95587 48.2923 5.87046 48.5477 5.78504 49.0586C5.69963 49.5694 5.61421 49.9951 5.44338 50.2506C5.27254 50.5911 5.0163 51.102 4.76005 51.7831C4.5038 51.6128 4.5038 51.4426 4.58921 51.2723C4.67463 51.102 4.84546 50.7614 4.93088 50.3357C5.10171 49.91 5.18713 49.314 5.18713 48.718L4.41838 48.6328L3.9913 49.7397L3.4788 49.5694L3.05172 49.7397L2.71006 49.0586C2.02673 48.8031 1.42881 48.8031 0.745481 49.2288L0.0621511 48.8031V16.3636C1.59964 16.4487 3.05172 16.1933 4.41838 15.6825ZM3.73505 75.6232L2.9663 76.3043H3.73505L3.9913 75.7935L3.73505 75.6232ZM5.44338 73.5798L3.73505 74.7718L4.07672 74.942C4.76005 74.7718 5.27254 74.2609 5.69963 73.6649L5.44338 73.5798ZM20.7329 86.4364C20.4766 86.6067 18.5121 86.9472 14.9246 87.4581C11.3371 87.9689 9.37253 88.3095 9.20169 88.3947L8.51836 88.5649L8.09128 88.3947L6.89545 89.0758L7.1517 89.2461C11.6788 88.5649 16.2058 87.7987 20.7329 86.7769L21.16 86.4364H20.7329ZM9.03086 90.7787L7.1517 91.1192L7.40795 91.4598C8.1767 91.545 8.86003 91.3747 9.37253 90.949L9.03086 90.7787ZM21.3308 83.1158L21.2454 83.0306C21.16 82.9455 20.5621 83.0306 19.3662 83.2861C18.1704 83.5415 16.5475 83.9672 14.4975 84.4781L13.985 84.7335L13.7288 84.4781C12.6183 84.4781 11.5933 84.8186 10.8246 85.5849H12.0204C12.3621 85.5849 12.7038 85.4998 12.96 85.3295C13.2163 85.1592 13.5579 85.0741 14.0704 85.0741C14.4975 85.0741 15.2663 84.9889 16.3767 84.5632C17.4871 84.2226 18.5121 83.8821 19.7079 83.6266C20.8183 83.4564 21.3308 83.2861 21.3308 83.1158ZM13.985 88.7352C12.8746 88.9055 11.8496 89.0758 10.91 89.4164L11.1663 89.8421C12.1913 89.6718 13.1308 89.4164 14.0704 88.9907V88.7352H13.985ZM15.6933 98.697L13.3017 99.8038C12.96 99.5484 12.4475 99.3781 11.7642 99.4633L13.8996 98.697H15.6933ZM19.5371 94.8655C18.085 95.0358 17.06 95.121 16.2912 95.121C15.6079 95.121 15.0954 95.121 14.9246 95.2061C14.7538 95.2913 14.4975 95.3764 14.2413 95.6318C14.4121 95.717 14.4975 95.717 14.6683 95.717C14.8392 95.717 15.1808 95.6318 15.8642 95.4615C16.5475 95.2912 17.06 95.2912 17.4871 95.4615C17.9142 95.6318 18.1704 95.6318 18.4267 95.4615C18.6829 95.2912 19.0246 95.121 19.4516 94.9507V94.8655H19.5371ZM17.9142 95.8872L14.6683 96.0575V96.3981H17.5725L18.085 95.9724L17.9142 95.8872ZM36.3641 87.3729C36.1078 87.3729 36.0224 87.3729 36.0224 87.2878C36.0224 87.2027 35.3391 87.3729 33.9724 87.7987C32.6058 88.2244 31.6662 88.4798 31.1537 88.5649C30.6412 88.6501 30.2995 88.8204 30.2141 88.9907C30.1287 89.1609 29.9578 89.3312 29.5308 89.5015L29.2745 89.1609C29.0183 89.2461 28.5912 89.3312 27.9933 89.5867C27.3954 89.7569 26.7974 89.9272 26.0287 90.0975C25.26 90.1827 24.662 90.353 24.0641 90.6084C23.5516 90.8638 22.2704 91.2044 20.3058 91.7152C18.3412 92.141 17.06 92.3964 16.5475 92.3964L17.1454 91.9707L16.8892 91.7152C16.5475 91.8855 16.2058 91.9707 15.8642 91.9707C15.5225 91.9707 15.3517 92.0558 15.2662 92.141C15.1808 92.3112 15.01 92.3964 14.8392 92.4815L15.3517 92.737C15.1808 92.9072 15.0954 92.9924 15.0954 93.1627C19.5371 92.9072 23.8933 91.9707 28.2495 90.5232L28.5058 90.0124L28.8474 90.1827C29.9578 89.757 30.6412 89.5015 31.1537 89.3312C31.5808 89.1609 32.0933 89.0758 32.6912 89.0758C33.2891 89.0758 33.8016 88.9055 34.2287 88.6501C34.6557 88.3947 35.0828 88.2244 35.3391 88.0541C35.6807 87.8838 35.937 87.6284 36.3641 87.3729ZM17.9142 87.7987L17.4017 88.3095C17.9142 88.3947 18.4267 88.3095 18.9391 87.9689L17.9142 87.7987ZM20.3912 94.2695L20.0496 94.9507C20.6475 95.0358 21.3308 94.9507 22.0996 94.8655L22.4412 94.3547H20.3912V94.2695ZM21.9287 95.121L20.7329 95.5467L20.3912 95.717C20.9037 95.8872 21.4162 95.717 21.9287 95.2061V95.121ZM23.637 90.1827L21.4162 90.8638V91.2044C22.2704 91.2895 23.1245 90.9489 23.8933 90.3529L23.637 90.1827ZM27.2245 94.2695L26.8829 94.6101H28.1641L28.4204 94.2695H27.2245ZM35.0828 92.141L32.4349 92.9924V93.2478C33.4599 93.1627 34.3141 92.8221 35.0828 92.3112V92.141ZM33.887 94.0141L32.6912 94.3547V94.8655H33.6307L34.0578 94.0992L33.887 94.0141ZM44.137 12.6173C44.4786 12.6173 44.7349 12.6173 44.9057 12.5322C45.0765 12.447 45.3328 12.6173 45.8453 13.043C46.3578 13.4687 47.1265 14.0647 48.3223 14.9162L49.0057 16.8745H48.3223V23.6008C48.3223 25.0482 48.2369 27.2619 47.9807 30.4122C47.7244 33.5625 47.4682 35.3505 47.1265 35.7762C46.7849 36.2019 46.3578 37.2237 45.6744 38.8414L44.9057 38.3305L43.9661 38.7562C43.7953 40.2888 43.6245 41.6511 43.4536 42.9282C43.1974 41.3957 43.1974 39.778 43.4536 38.1602C43.0265 38.4157 42.6849 38.586 42.4286 38.6711C42.1724 38.6711 41.9161 38.9265 41.7453 39.182C41.489 39.5225 41.2328 39.6928 40.9766 39.6928C40.6349 39.6928 40.2078 39.778 39.7807 39.8631L39.012 40.2888L37.0474 40.7145L36.7912 39.9482L34.3141 40.374L35.4245 39.6928L36.3641 38.7562C36.3641 38.0751 36.2787 37.4791 36.1932 37.1385C36.1078 36.7979 36.0224 36.0317 36.0224 35.0099C36.0224 33.9031 36.1078 32.9665 36.2787 32.0299C36.4495 31.0934 36.5349 30.2419 36.4495 29.3905C36.3641 28.5391 36.4495 27.4322 36.5349 25.9848C36.7057 24.5373 36.962 23.0048 37.4745 21.387C37.987 19.6842 38.2432 18.6625 38.2432 18.1516V16.1933L36.962 15.5122L40.2078 13.8093L41.4036 12.9579L42.514 13.2985L43.0265 12.9579L43.4536 13.1282L44.137 12.6173ZM36.962 91.545C36.5349 91.545 36.1078 91.7152 35.5953 91.9707C36.1078 92.141 36.5349 92.0558 36.962 91.545ZM39.4391 86.3512C39.2682 86.3512 39.0974 86.3512 38.9266 86.2661C38.7557 86.1809 38.4995 86.2661 38.2432 86.4364C37.987 86.6067 37.5599 86.7769 36.8766 86.9472C37.5599 87.4581 38.1578 87.4581 38.8411 86.9472L39.4391 86.3512ZM40.3786 92.4815C39.3536 92.737 38.4995 93.1627 37.7307 93.5884C37.7307 93.6735 37.8161 93.6735 37.987 93.6735C38.1578 93.6735 38.4141 93.5884 38.8411 93.333C39.2682 93.1627 39.7807 92.9072 40.3786 92.6518V92.4815ZM41.4036 90.0124C41.2328 90.0124 41.1474 90.0124 41.062 89.9272C40.9765 89.8421 40.7203 89.9272 40.2078 90.0975C39.6953 90.353 38.9266 90.6935 37.987 91.2044V91.3747C39.0974 91.2895 40.2078 90.8638 41.4036 90.0124ZM41.4036 88.1392L40.4641 88.4798V88.8204L41.6599 88.3095L41.4036 88.1392ZM41.4036 91.8855L41.062 91.9707C41.1474 91.9707 41.2328 91.8855 41.4036 91.8855ZM47.9807 88.9907L45.3328 90.1827V90.6084L46.614 90.0975L43.3682 91.8004L43.7099 92.2261L47.0411 90.5232V90.0124L48.3223 89.1609L47.9807 88.9907ZM48.9203 89.0758L47.5536 89.5867V90.0124L48.9203 89.2461V89.0758ZM49.2619 89.5867L48.4932 90.0124L48.7494 90.2678L49.5182 89.8421L49.2619 89.5867ZM51.2265 87.2878L48.7494 88.5649V88.9907C49.7744 88.5649 50.6286 88.0541 51.3973 87.3729L51.2265 87.2878ZM51.2265 88.7352L50.2869 89.1609L49.5182 90.0975L49.7744 90.4381L50.5432 89.5867H50.9703L51.4828 88.9055L51.2265 88.7352ZM53.4473 85.9255L51.8244 86.8621L52.0807 87.2878L53.789 86.0107L53.4473 85.9255ZM59.5119 83.5415L58.7431 84.2226L58.9994 84.4781L59.7681 83.7118L59.5119 83.5415ZM60.5369 80.1358L59.7681 80.8169V81.1575L60.5369 80.9872L60.7931 80.3061L60.5369 80.1358ZM62.2452 81.3278L60.964 82.2644L61.3056 82.6049L62.2452 81.4129V81.3278Z" fill="white"/>
<path d="M118.193 68.8967C118.449 68.8967 118.62 68.8967 118.705 68.8115C118.791 68.8115 119.303 68.8967 120.243 69.1521C121.182 69.4075 122.464 69.4075 124.172 69.2372C125.88 68.9818 127.247 69.1521 128.357 69.5778C129.468 70.0035 130.493 70.259 131.347 70.3441C132.201 70.4292 132.97 70.3441 133.568 70.0887C134.166 69.8332 134.849 69.7481 135.532 69.7481C136.216 69.7481 136.984 69.663 137.839 69.4075C138.693 69.1521 139.803 69.1521 141.17 69.3224C142.536 69.5778 143.647 70.0035 144.501 70.7698C145.355 71.5361 146.124 72.047 146.893 72.3875C147.661 72.7281 148.089 72.9835 148.259 73.1538C148.43 73.3241 148.686 73.4944 148.943 73.7498C149.199 74.6012 149.541 75.1973 149.882 75.623C150.224 76.0487 150.309 76.5595 150.053 77.3258C149.882 78.0921 149.455 78.8584 148.857 79.795C148.259 80.6464 147.918 82.179 147.832 84.1373C147.747 86.1807 147.491 87.7133 147.149 88.735C146.722 89.8419 146.551 90.7784 146.551 91.6299C146.551 92.4813 146.209 93.503 145.611 94.6099C145.014 95.7167 144.672 96.3979 144.672 96.5682V97.3345C146.209 97.5047 147.405 97.5047 148.174 97.5047C148.943 97.5047 149.455 97.5899 149.797 97.675C150.139 97.7602 150.309 97.8453 150.48 97.9305C150.651 98.0156 150.736 98.0156 150.907 98.0156V98.4413C151.249 98.6116 151.591 98.6967 151.847 98.7819C152.103 98.867 152.701 98.867 153.555 98.7819C154.409 98.6967 155.178 98.7819 155.776 98.9522C156.374 99.2076 157.143 99.3779 158.082 99.463L158.338 99.0373V99.3779L159.705 99.463V109.595C159.534 109.68 159.022 109.68 157.997 109.68C156.972 109.68 156.032 109.595 155.178 109.425C154.324 109.254 153.47 109.169 152.701 109.169C151.847 109.169 151.078 109.169 150.395 109.084C149.711 108.999 148.857 108.999 147.832 108.999C146.807 108.999 145.014 109.084 142.451 109.084L142.707 108.829L142.366 108.488C142.28 108.403 142.024 108.403 141.682 108.403C141.255 108.403 140.743 108.403 140.145 108.318V108.744L125.197 109.084L125.709 108.829C124.941 108.829 124.343 108.744 124.087 108.658C123.83 108.573 123.574 108.573 123.403 108.744C123.232 108.914 122.891 108.914 122.378 108.914C121.866 108.914 121.439 108.999 121.182 109.254C120.926 109.51 120.499 109.765 119.987 110.191V117.769C119.987 119.301 119.987 120.153 120.072 120.408C120.157 120.664 120.243 120.919 120.414 121.089C121.609 122.111 122.549 122.792 123.318 123.303C124.001 123.814 124.428 124.069 124.514 124.069H124.599C124.77 123.218 124.855 122.622 124.855 122.281C124.855 121.941 124.941 121.685 125.026 121.6C125.197 121.515 125.282 121.175 125.368 120.749C125.453 120.323 125.368 119.983 125.112 119.812C124.941 119.642 124.684 119.301 124.599 118.705L126.649 118.024L126.478 117.513L125.539 116.832C125.88 116.832 126.137 116.832 126.222 116.747C126.307 116.662 126.564 116.662 126.991 116.662C127.418 116.662 127.845 116.577 128.101 116.492C128.357 116.407 128.784 116.151 129.297 115.896C129.553 116.151 129.895 116.407 130.237 116.577C130.578 116.747 131.262 116.832 132.287 116.747C133.397 116.747 134.422 116.577 135.361 116.236C136.386 115.981 137.326 115.811 138.351 115.896C139.376 115.981 139.974 115.981 140.145 115.811C140.316 115.64 140.486 115.555 140.572 115.47L140.828 115.811C142.366 115.981 143.391 115.981 144.074 115.981C144.757 115.981 145.099 115.981 145.184 115.896C145.27 115.811 145.355 115.725 145.611 115.725L145.099 114.789C145.27 114.789 145.355 114.789 145.441 114.704C145.526 114.618 145.697 114.704 145.782 114.959C145.953 115.129 146.124 115.385 146.466 115.725L146.636 116.917H147.405V117.599L147.832 117.854L148.089 118.195L147.234 118.45L148.089 118.535C147.661 118.791 147.405 118.961 147.234 119.046L148.089 119.727L147.832 119.812V120.153L147.405 120.408V121.345H148.259L146.636 121.6L146.466 121.771C147.149 122.111 147.918 122.196 148.857 122.111L149.028 122.792L145.611 123.133L146.295 123.644L145.611 123.984L147.234 124.325V124.836L144.843 124.58L144.159 125.006L147.405 125.432V126.113L146.636 126.198V126.539L146.466 126.283L145.782 126.198L145.27 126.539C144.672 126.453 144.159 126.539 143.647 126.794L144.416 127.475C143.22 127.56 142.28 127.56 141.597 127.56C140.914 127.56 140.059 127.645 139.12 127.901C138.18 128.156 137.07 128.241 135.959 128.156C134.849 128.071 133.995 128.071 133.568 128.156C133.141 128.241 132.543 128.327 131.774 128.327V127.901C131.603 128.071 131.347 128.156 131.091 128.241C130.92 128.327 130.578 128.412 130.066 128.412C129.639 128.412 128.784 128.497 127.589 128.582L129.212 130.966L129.895 131.221C130.151 131.903 130.578 132.499 131.262 132.839C134.08 134.712 136.984 136.075 140.059 137.096L140.23 137.607C140.743 137.863 141.17 138.033 141.511 138.118C141.853 138.118 142.28 138.288 142.622 138.629C143.049 138.884 143.561 139.14 144.416 139.31C145.184 139.48 146.466 139.821 148.089 140.332C149.797 140.843 150.822 141.013 151.334 140.843C151.761 140.672 152.103 140.587 152.359 140.757C152.53 140.843 153.043 141.013 153.641 141.098L154.068 141.609C154.58 141.694 155.007 141.694 155.349 141.694C155.691 141.694 156.032 141.779 156.374 142.035C156.716 142.29 157.057 142.545 157.57 142.716C157.997 142.971 158.766 143.227 159.876 143.652V158.127H159.791C159.705 158.127 159.363 157.956 158.766 157.701C158.168 157.445 157.143 157.105 155.776 156.764C154.409 156.424 152.701 156.168 150.822 155.913C148.857 155.657 146.039 155.232 142.195 154.721L141.939 154.295C141.255 154.04 140.743 153.869 140.486 153.614C140.23 153.359 139.718 153.188 138.949 153.103C138.18 153.018 137.497 152.933 136.984 152.763C136.472 152.592 135.789 152.422 135.105 152.081C134.934 151.911 134.764 151.571 134.593 151.23L132.543 150.464L131.176 149.101L129.553 147.739C128.784 146.803 128.187 146.036 127.674 145.525C127.247 144.929 126.137 143.823 124.343 142.12C122.634 140.417 121.439 139.055 120.926 138.118C120.414 137.181 119.987 136.585 119.73 136.33C119.474 136.16 119.218 135.819 118.962 135.479C118.962 136.671 118.876 137.607 118.705 138.288C118.534 138.969 118.449 139.821 118.364 140.928C118.278 142.035 118.107 143.227 117.851 144.419C117.595 145.611 117.509 146.717 117.509 147.909C117.509 149.016 117.424 150.208 117.339 151.315C117.168 152.422 117.082 153.614 116.997 154.636C116.912 155.743 116.826 156.594 116.655 157.105C116.484 157.616 116.314 158.212 116.143 158.723L115.716 158.297L115.545 158.978L113.922 159.489L113.41 159.915L112.982 159.659L112.299 159.574V160L112.043 159.659L111.274 159.574L110.847 159.404V159.574H110.249V159.915L109.395 159.574V160L108.882 159.489C108.199 159.404 107.43 159.148 106.662 158.723L105.722 157.19L105.295 157.871H104.099C104.099 157.786 104.099 157.701 104.014 157.616C103.928 157.531 103.843 156.764 103.672 155.232C103.501 153.699 103.672 152.337 104.014 151.06C104.441 149.783 104.612 148.335 104.612 146.888C104.612 145.44 104.782 143.652 105.124 141.694C105.466 139.736 105.807 136.756 106.149 132.669C106.491 128.582 106.832 124.921 107.345 121.771C107.772 118.62 108.028 116.066 108.028 114.022C108.028 112.064 108.028 111.042 107.943 110.957C107.857 110.872 107.857 110.787 107.857 110.617C107.516 110.617 107.26 110.617 107.089 110.532C106.918 110.532 106.747 110.532 106.576 110.617C106.32 110.702 106.064 110.617 105.551 110.446C105.124 110.276 104.612 110.361 104.014 110.702C103.501 111.042 102.647 111.128 101.537 111.042C100.426 110.957 97.4367 111.383 92.7388 112.405C88.0409 113.341 84.7096 113.937 82.6596 114.108C80.6951 114.278 78.9013 114.533 77.3638 114.789C75.8263 115.044 74.8013 115.3 74.118 115.47C73.5201 115.64 72.8368 115.811 72.068 116.066V115.725C71.8972 115.725 71.8118 115.725 71.6409 115.64C71.4701 115.555 71.3847 115.555 71.2139 115.725C71.043 115.811 70.8722 115.896 70.6159 115.811C70.3597 115.811 70.1889 115.811 70.018 115.981C69.8472 116.151 69.6764 116.236 69.4201 116.236C69.1639 116.236 68.9076 116.321 68.6514 116.321V106.189C70.7868 105.508 72.7513 105.082 74.6305 104.742C76.5097 104.401 78.4742 104.061 80.6096 103.805C82.7451 103.465 84.7096 103.124 86.5034 102.698C88.2971 102.273 90.0054 101.847 91.7138 101.506C93.4221 101.081 94.7033 100.91 95.7283 100.996C96.7533 100.996 97.6929 100.996 98.5471 100.825C99.4012 100.655 100.682 100.485 102.305 100.4C104.014 100.314 105.893 100.059 108.028 99.6333C110.164 99.2076 114.264 98.867 120.414 98.6967C126.564 98.5265 130.151 98.5265 131.091 98.6967C132.116 98.867 132.628 98.9522 132.714 98.9522C132.799 98.9522 132.97 98.867 133.397 98.7819L132.884 98.4413C132.884 97.3345 132.884 96.483 132.97 96.0573C133.055 95.6316 132.97 95.291 132.884 95.291C132.714 95.2059 132.628 95.1207 132.457 94.9504C130.578 94.695 128.784 94.4396 127.076 94.1842C125.368 93.9287 122.805 93.9287 119.474 94.0139C116.143 94.099 112.726 94.3545 109.053 94.7802C105.466 95.2059 101.622 95.7167 97.6929 96.3979C93.6783 97.079 91.1159 97.5899 90.0054 97.9305C88.895 98.3562 87.6992 98.7819 86.5034 99.3779V98.867C85.0513 99.5482 83.77 99.6333 82.5742 98.9522C82.5742 98.6967 82.5742 98.4413 82.4888 98.271C82.4034 98.1007 82.4888 97.9305 82.5742 97.5899C82.7451 97.3345 82.8305 96.5682 82.9159 95.4613C83.0013 94.3544 83.1721 93.6733 83.4284 93.503C83.6846 93.3327 83.8555 93.0773 84.0263 92.8219L83.343 91.715L82.5742 91.2893V90.2676C82.8305 89.927 83.0867 89.5013 83.343 88.9904L84.9659 88.4796L85.393 87.543C85.82 87.7984 86.1617 88.0539 86.5034 88.139C86.845 88.2241 87.2721 88.3093 87.87 88.3944C88.4679 88.4796 89.4929 88.3093 90.945 88.0539C92.3971 87.7133 93.9346 87.543 95.5575 87.3727C97.1804 87.2024 98.6325 87.0321 99.9137 86.7767C101.195 86.5213 102.989 86.2659 105.124 85.9253C107.26 85.5847 109.224 85.4996 111.018 85.6699C112.812 85.8401 114.52 85.755 116.057 85.4144C117.68 85.0739 123.147 85.0739 132.457 85.4996C132.457 84.0521 132.543 83.0304 132.628 82.4344C132.799 81.7533 132.799 81.4127 132.628 81.3276C132.457 81.2424 132.372 81.1573 132.201 80.987C131.945 81.0721 131.689 81.1573 131.518 81.1573C131.347 81.2424 130.493 81.2424 129.041 81.2424C127.589 81.2424 124.941 81.1573 121.012 81.0721C117.082 80.987 113.239 80.987 109.31 81.1573C105.38 81.3276 102.562 81.583 100.768 81.9236C98.9741 82.2641 97.6929 82.4344 96.8387 82.4344C95.9846 82.4344 95.1304 82.4344 94.1908 82.5196C93.2513 82.6047 92.3117 82.8601 91.2867 83.2858C90.2617 83.7116 89.4075 83.967 88.6388 84.0521C87.87 84.1373 87.1867 84.1373 86.6742 84.1373C86.1617 84.1373 85.4784 84.0521 84.795 83.967C84.6242 83.7967 84.4534 83.6264 84.368 83.371C84.2825 83.1156 84.1971 82.6898 84.1117 82.0087C84.0263 81.3276 84.1971 80.8167 84.4534 80.2207C84.795 79.7098 84.8805 79.199 84.795 78.6881C84.7096 78.1773 84.7096 77.7515 84.795 77.3258L85.1367 75.3675L83.9409 74.1755C84.7096 74.1755 85.393 74.0052 85.9909 73.6647C86.5034 73.1538 86.7596 72.4727 86.7596 71.6212L85.82 71.451V70.6847L85.9909 70.259H87.3575C87.6992 70.259 88.0409 70.1738 88.2117 69.9184C88.3825 69.663 88.7242 69.5778 89.2367 69.4927C89.6638 69.4075 90.1763 69.4927 90.6034 69.663C91.0304 69.9184 91.4575 70.0035 91.8846 70.0887C92.3117 70.1738 92.9096 70.0887 93.8492 70.0035C94.7888 69.8332 96.07 69.8332 97.7783 69.8332C99.4866 69.8332 101.366 69.7481 103.587 69.4927C105.807 69.2372 107.26 69.1521 107.857 69.1521C108.541 69.1521 109.053 69.2372 109.48 69.4927C109.907 69.7481 110.762 69.7481 112.128 69.663C113.58 69.4927 115.545 69.2372 118.193 68.8967ZM94.8742 131.051C95.3867 131.221 95.8137 131.392 96.1554 131.477C96.4971 131.562 96.9242 131.647 97.3512 131.903C97.7783 132.158 98.2054 132.243 98.4616 132.243C98.7179 132.243 98.8887 132.243 99.0596 132.158L99.4866 132.328C99.8283 133.009 100.17 133.435 100.426 133.691C100.682 133.946 100.853 134.457 100.853 135.308C100.853 136.16 100.768 137.011 100.512 138.118C100.255 139.14 99.9991 140.076 99.5721 140.928C99.145 141.779 98.7179 142.46 98.2054 142.971C97.6929 143.482 96.8387 144.419 95.8137 145.781C94.7033 146.717 93.8492 147.484 92.995 148.08C92.2263 148.676 91.1159 149.442 89.7492 150.293C88.3825 151.145 87.1867 151.741 86.2471 151.996C85.3075 152.252 84.368 152.592 83.4284 153.018C82.4888 153.444 81.8055 153.699 81.4638 153.784C81.0367 153.869 80.5242 153.869 79.6701 153.869L79.243 154.38C78.8159 154.465 78.3034 154.551 77.7055 154.721C77.1076 154.891 76.5097 155.061 75.8263 155.061C75.143 155.147 74.118 155.402 72.7513 155.828C71.3847 156.253 70.5305 156.509 70.3597 156.509C70.1034 156.509 69.9326 156.424 69.5909 156.168V156.679L68.6514 156.764V144.504L70.018 145.015L70.7014 144.589V144.248L69.8472 143.993C70.4451 143.737 70.8722 143.482 71.2139 143.312C71.5555 143.141 72.1534 142.971 73.1784 142.886C74.2034 142.801 75.143 142.46 76.168 142.035C77.193 141.609 78.218 141.183 79.243 140.757C80.3534 140.332 81.5492 139.906 82.8305 139.225C84.1117 138.629 85.5638 138.033 87.1013 137.352C88.6388 136.671 89.8346 136.16 90.6034 135.564C91.4575 135.053 92.0554 134.627 92.5679 134.372C92.995 134.116 93.7638 133.691 94.6179 133.18C94.8742 132.669 95.1304 132.328 95.2158 132.243C95.3012 132.073 95.3012 131.903 95.2158 131.732C95.1304 131.903 95.045 131.562 94.8742 131.051ZM83.8555 118.024C84.1117 118.109 84.368 118.109 84.5388 118.195C84.7096 118.195 85.3075 118.195 86.3325 118.195C87.3575 118.195 88.5534 118.195 89.8346 118.28C91.1158 118.365 92.9096 118.365 95.045 118.195C97.1804 118.024 98.3762 118.109 98.7179 118.45C99.0596 118.791 99.4012 119.216 99.7429 119.642C99.7429 120.068 99.8283 120.408 99.9137 120.749L99.4012 121.26L99.7429 121.685L99.2304 121.941C99.5721 122.367 99.8283 122.792 99.9991 123.218L100.682 123.473L99.8283 123.814L99.4866 122.963H98.8033V124.751L99.7429 125.091H98.0346V125.772L98.5471 126.028C97.4367 126.368 96.3262 126.624 95.045 126.794L97.1804 127.645L95.5575 127.986C95.3867 128.327 95.2158 128.667 95.045 129.093C94.7887 129.263 94.3617 129.348 93.9346 129.348C93.5075 129.348 92.4825 129.433 90.945 129.433C89.4075 129.433 88.6388 129.519 88.5534 129.689C88.4679 129.859 88.2971 129.944 88.0409 130.029L87.9554 129.774C87.3575 129.689 86.9305 129.689 86.5888 129.774C86.2471 129.859 85.9055 129.859 85.5638 129.859C85.2221 129.859 84.8805 129.859 84.5388 129.944C84.1971 130.029 83.9409 130.029 83.77 130.029C83.5992 130.029 83.1721 129.944 82.6596 129.859L82.4034 130.115L82.8305 130.2L80.3534 130.881L81.0367 130.029L80.6096 129.944L79.4138 130.796L79.8409 130.029C79.6701 130.029 79.5847 130.029 79.4138 129.944C79.243 129.944 79.1576 129.774 78.9867 129.604C78.8159 129.433 78.4742 129.348 77.8763 129.348C77.2784 129.348 77.0222 129.348 76.9367 129.263C76.8513 129.178 76.6805 129.093 76.4242 128.923C76.4242 128.071 76.5097 127.22 76.7659 126.368C76.9367 125.517 77.193 124.921 77.3638 124.665C77.5347 124.41 77.6201 123.899 77.6201 123.303L78.8159 122.792L78.3034 120.749L79.9263 120.493L80.4388 120.068L81.293 119.727L81.8055 118.62C82.4034 118.535 83.0867 118.365 83.8555 118.024ZM100.853 124.751C101.195 125.006 101.366 125.432 101.366 125.943L100.17 126.113L100.853 125.602L100.426 125.176L100.853 124.751Z" fill="white"/>
<defs>
<linearGradient id="paint0_linear_4666_68549" x1="58.9799" y1="154.797" x2="58.4203" y2="142.895" gradientUnits="userSpaceOnUse">
<stop stop-color="#C471F5"/>
<stop offset="0.4952" stop-color="#E171E0"/>
<stop offset="1" stop-color="#FA71CD"/>
</linearGradient>
<linearGradient id="paint1_linear_4666_68549" x1="103.431" y1="82.0778" x2="89.1442" y2="89.0751" gradientUnits="userSpaceOnUse">
<stop stop-color="#C471F5"/>
<stop offset="0.4952" stop-color="#E171E0"/>
<stop offset="1" stop-color="#FA71CD"/>
</linearGradient>
<linearGradient id="paint2_linear_4666_68549" x1="73.3504" y1="148.852" x2="70.5515" y2="136.61" gradientUnits="userSpaceOnUse">
<stop stop-color="#C471F5"/>
<stop offset="0.4952" stop-color="#E171E0"/>
<stop offset="1" stop-color="#FA71CD"/>
</linearGradient>
<linearGradient id="paint3_linear_4666_68549" x1="92.2345" y1="105.235" x2="85.6133" y2="97.5795" gradientUnits="userSpaceOnUse">
<stop stop-color="#C471F5"/>
<stop offset="0.4952" stop-color="#E171E0"/>
<stop offset="1" stop-color="#FA71CD"/>
</linearGradient>
<linearGradient id="paint4_linear_4666_68549" x1="71.1603" y1="85.0249" x2="71.0189" y2="85.0504" gradientUnits="userSpaceOnUse">
<stop stop-color="#C471F5"/>
<stop offset="0.4952" stop-color="#E171E0"/>
<stop offset="1" stop-color="#FA71CD"/>
</linearGradient>
<linearGradient id="paint5_linear_4666_68549" x1="68.2548" y1="112.847" x2="19.073" y2="121.742" gradientUnits="userSpaceOnUse">
<stop stop-color="#C471F5"/>
<stop offset="0.4952" stop-color="#E171E0"/>
<stop offset="1" stop-color="#FA71CD"/>
</linearGradient>
<linearGradient id="paint6_linear_4666_68549" x1="17.9836" y1="123.463" x2="35.7054" y2="139.143" gradientUnits="userSpaceOnUse">
<stop offset="0.2155" stop-color="#E7609E"/>
<stop offset="0.3045" stop-color="#DE5D9D"/>
<stop offset="0.4491" stop-color="#C65399"/>
<stop offset="0.6314" stop-color="#9E4593"/>
<stop offset="0.8422" stop-color="#68308C"/>
<stop offset="1" stop-color="#3B1F85"/>
</linearGradient>
<linearGradient id="paint7_linear_4666_68549" x1="23.9532" y1="125.085" x2="40.6815" y2="116.881" gradientUnits="userSpaceOnUse">
<stop stop-color="#ECB944"/>
<stop offset="0.3205" stop-color="#EBA05D"/>
<stop offset="1" stop-color="#E7609E"/>
</linearGradient>
<linearGradient id="paint8_linear_4666_68549" x1="34.4824" y1="111.591" x2="23.8855" y2="126.032" gradientUnits="userSpaceOnUse">
<stop offset="0.1157" stop-color="#FDDB92"/>
<stop offset="0.2554" stop-color="#F5E1A5"/>
<stop offset="0.7613" stop-color="#DBF5E6"/>
<stop offset="1" stop-color="#D1FDFF"/>
</linearGradient>
<linearGradient id="paint9_linear_4666_68549" x1="17.9863" y1="125.342" x2="21.5471" y2="125.342" gradientUnits="userSpaceOnUse">
<stop stop-color="#FDDB92"/>
<stop offset="0.158" stop-color="#F5E1A5"/>
<stop offset="0.7301" stop-color="#DBF5E6"/>
<stop offset="1" stop-color="#D1FDFF"/>
</linearGradient>
<linearGradient id="paint10_linear_4666_68549" x1="21.2796" y1="127.244" x2="21.8059" y2="118.69" gradientUnits="userSpaceOnUse">
<stop stop-color="#ECB944"/>
<stop offset="0.3205" stop-color="#EBA05D"/>
<stop offset="1" stop-color="#E7609E"/>
</linearGradient>
<linearGradient id="paint11_linear_4666_68549" x1="31.5518" y1="124.666" x2="37.7127" y2="127.119" gradientUnits="userSpaceOnUse">
<stop offset="0.2007" stop-color="#510909"/>
<stop offset="0.7185" stop-color="#190303"/>
<stop offset="1"/>
</linearGradient>
</defs>
</svg>
